# This file uses centimeters as units for non-parametric coordinates.

v 1.442581 -0.099614 1.253314
v 1.529541 -0.099614 1.253314
v 1.442581 0.105542 1.253314
v 1.529541 0.105542 1.253314
v 1.442581 0.105542 -1.407415
v 1.529541 0.105542 -1.407415
v 1.442581 -0.099614 -1.407415
v 1.529541 -0.099614 -1.407415
v 0.699539 -0.099614 1.253314
v 0.786514 -0.099614 1.253314
v 0.699539 0.105542 1.253314
v 0.786514 0.105542 1.253314
v 0.699539 0.105542 -1.407415
v 0.786514 0.105542 -1.407415
v 0.699539 -0.099614 -1.407415
v 0.786514 -0.099614 -1.407415
v -0.043488 -0.099614 1.253314
v 0.043488 -0.099614 1.253314
v -0.043488 0.105542 1.253314
v 0.043488 0.105542 1.253314
v -0.043488 0.105542 -1.407415
v 0.043488 0.105542 -1.407415
v -0.043488 -0.099614 -1.407415
v 0.043488 -0.099614 -1.407415
v -0.786514 -0.099614 1.253314
v -0.699539 -0.099614 1.253314
v -0.786514 0.105542 1.253314
v -0.699539 0.105542 1.253314
v -0.786514 0.105542 -1.407415
v -0.699539 0.105542 -1.407415
v -0.786514 -0.099614 -1.407415
v -0.699539 -0.099614 -1.407415
v -1.529541 -0.099614 1.253314
v -1.442581 -0.099614 1.253314
v -1.529541 0.105542 1.253314
v -1.442581 0.105542 1.253314
v -1.529541 0.105542 -1.407415
v -1.442581 0.105542 -1.407415
v -1.529541 -0.099614 -1.407415
v -1.442581 -0.099614 -1.407415
v -2.286972 -0.148709 1.407415
v 2.286972 -0.148709 1.407415
v -2.286972 0.148709 1.407415
v 2.286972 0.063680 1.407415
v -2.286972 0.148709 -1.407415
v 2.286972 0.148709 -1.407415
v -2.286972 -0.148709 -1.407415
v 2.286972 -0.148709 -1.407415
v -2.151978 0.148709 1.253314
v 2.151978 0.148709 1.253314
v 2.151978 0.148709 -1.407415
v -2.151978 0.148709 -1.407415
v -2.116943 -0.148709 -1.407415
v 2.116943 -0.148709 -1.407415
v 2.116943 -0.148709 1.253314
v -2.116943 -0.148709 1.253314
v -1.474594 -0.076909 0.365410
v -1.474579 0.082836 0.365411
v -1.406876 0.082836 0.365411
v -1.406876 -0.076909 0.365410
v -0.066162 -0.064175 -0.605224
v -0.066162 0.070102 -0.605224
v -0.009247 0.070102 -0.605224
v -0.009247 -0.064175 -0.605224
v 0.773331 -0.067011 0.158685
v 0.773331 0.072938 0.158685
v 0.832657 0.072938 0.158685
v 0.832657 -0.067011 0.158685
v -1.467148 0.148709 1.407415
v -0.625336 0.148709 1.407415
v -1.157379 0.148709 1.315251
v -1.066635 0.071169 1.407415
v 2.143051 0.148709 1.407415
v 2.286972 0.148709 1.240327
v -0.049515 0.096123 0.759391
v -0.054779 0.087898 0.328040
v 0.023270 0.091959 0.540983
v -0.052490 0.029244 0.515665
v -2.259460 -0.124580 -0.032666
v -2.280136 0.112756 -0.032666
v -2.172409 0.122144 -0.093282
v -2.123779 -0.112756 -0.093282
vt 0.037138 0.300552
vt 0.037138 0.300552
vt 0.037138 0.300552
vt 0.037138 0.300552
vt 0.037138 0.300552
vt 0.037138 0.300552
vt 0.037138 0.300552
vt 0.037138 0.300552
vt 0.037138 0.300552
vt 0.037138 0.300552
vt 0.037138 0.300552
vt 0.037138 0.300552
vt 0.037138 0.300552
vt 0.037138 0.300552
vt 0.037138 0.300552
vt 0.037138 0.300552
vt 0.037138 0.300552
vt 0.037138 0.300552
vt 0.037138 0.300552
vt 0.037138 0.300552
vt 0.037138 0.300552
vt 0.037138 0.300552
vt 0.037138 0.300552
vt 0.037138 0.300552
vt 0.037138 0.300552
vt 0.037138 0.300552
vt 0.037138 0.300552
vt 0.037138 0.300552
vt 0.037138 0.300552
vt 0.037138 0.300552
vt 0.037138 0.300552
vt 0.037138 0.300552
vt 0.037138 0.300552
vt 0.037138 0.300552
vt 0.037138 0.300552
vt 0.037138 0.300552
vt 0.037138 0.300552
vt 0.037138 0.300552
vt 0.037138 0.300552
vt 0.037138 0.300552
vt 0.037138 0.300552
vt 0.037138 0.300552
vt 0.037138 0.300552
vt 0.037138 0.300552
vt 0.037138 0.300552
vt 0.037138 0.300552
vt 0.037138 0.300552
vt 0.037138 0.300552
vt 0.037138 0.300552
vt 0.037138 0.300552
vt 0.037138 0.300552
vt 0.037138 0.300552
vt 0.037138 0.300552
vt 0.037138 0.300552
vt 0.037138 0.300552
vt 0.037138 0.300552
vt 0.037138 0.300552
vt 0.037138 0.300552
vt 0.037138 0.300552
vt 0.037138 0.300552
vt 0.037138 0.300552
vt 0.037138 0.300552
vt 0.037138 0.300552
vt 0.037138 0.300552
vt 0.037138 0.300552
vt 0.037138 0.300552
vt 0.037138 0.300552
vt 0.037138 0.300552
vt 0.037138 0.300552
vt 0.037138 0.300552
vt 0.113822 0.249030
vt 0.113822 0.249030
vt 0.113822 0.249030
vt 0.113822 0.249030
vt 0.113822 0.249030
vt 0.113822 0.249030
vt 0.113822 0.249030
vt 0.113822 0.249030
vt 0.113822 0.249030
vt 0.113822 0.249030
vt 0.113822 0.249030
vt 0.113822 0.249030
vt 0.113822 0.249030
vt 0.113822 0.249030
vt 0.113822 0.249030
vt 0.113822 0.249030
vt 0.113822 0.249031
vt 0.113822 0.249031
vt 0.113822 0.249031
vt 0.113822 0.249031
vt 0.113822 0.249031
vt 0.113822 0.249031
vt 0.113822 0.249031
vt 0.113822 0.249031
vt 0.113822 0.249031
vt 0.113822 0.249031
vt 0.113822 0.249031
vt 0.113822 0.249031
vt 0.113822 0.249031
vt 0.113822 0.249031
vt 0.113822 0.249031
vt 0.113822 0.249031
vt 0.113822 0.249031
vt 0.113822 0.249031
vt 0.113822 0.249031
vt 0.113822 0.249031
vt 0.037138 0.300552
vt 0.037138 0.300552
vt 0.037138 0.300552
vt 0.037138 0.300552
vt 0.037138 0.300552
vt 0.037138 0.300552
vt 0.037138 0.300552
vt 0.037138 0.300552
vt 0.037138 0.300552
vt 0.037138 0.300552
vt 0.037138 0.300552
vt 0.037138 0.300552
vt 0.037138 0.300552
vt 0.037138 0.300552
vt 0.037138 0.300552
vt 0.037138 0.300552
vt 0.037138 0.300552
vt 0.037138 0.300552
vt 0.037138 0.300552
vt 0.037138 0.300552
vt 0.037138 0.300552
vt 0.037138 0.300552
vt 0.037138 0.300552
vt 0.037138 0.300552
vt 0.113822 0.249030
vt 0.113822 0.249030
vt 0.113822 0.249030
vt 0.113822 0.249030
vt 0.113822 0.249030
vt 0.113822 0.249030
vt 0.037138 0.300552
vt 0.037138 0.300552
vt 0.037138 0.300552
vt 0.037138 0.300552
vt 0.037138 0.300552
vt 0.037138 0.300552
vt 0.037138 0.300552
vt 0.037138 0.300552
vt 0.113822 0.249030
vt 0.113822 0.249030
vt 0.113822 0.249030
vt 0.113822 0.249031
vt 0.113822 0.249030
vt 0.113822 0.249031
vn 0.000000 1.000000 0.000000
vn 0.000000 1.000000 0.000000
vn 0.000000 1.000000 0.000000
vn 0.000000 1.000000 0.000000
vn 0.000000 -1.000000 0.000000
vn 0.000000 -1.000000 0.000000
vn 0.000000 -1.000000 0.000000
vn 0.000000 -1.000000 0.000000
vn 1.000000 0.000000 0.000000
vn 1.000000 0.000000 0.000000
vn 1.000000 0.000000 0.000000
vn 1.000000 0.000000 0.000000
vn -1.000000 0.000000 0.000000
vn -1.000000 0.000000 0.000000
vn -1.000000 0.000000 0.000000
vn -1.000000 0.000000 0.000000
vn 0.000000 0.999783 0.020814
vn 0.000000 0.999783 0.020814
vn 0.000000 0.999783 0.020814
vn 0.000000 0.999783 0.020814
vn 0.000000 -0.999783 0.020814
vn 0.000000 -0.999783 0.020814
vn 0.000000 -0.999783 0.020814
vn 0.000000 -0.999783 0.020814
vn 0.999566 0.000000 -0.029451
vn 0.999566 0.000000 -0.029451
vn 0.999566 0.000000 -0.029451
vn 0.999566 0.000000 -0.029451
vn -0.998892 0.000000 0.047066
vn -0.998892 0.000000 0.047066
vn -0.998892 0.000000 0.047066
vn -0.998892 0.000000 0.047066
vn 0.000000 0.999026 0.044135
vn 0.000000 0.999026 0.044135
vn 0.000000 0.999026 0.044135
vn 0.000000 0.999026 0.044135
vn 0.000000 -0.999026 0.044135
vn 0.000000 -0.999026 0.044135
vn 0.000000 -0.999026 0.044135
vn 0.000000 -0.999026 0.044135
vn 0.997846 0.000000 0.065596
vn 0.997846 0.000000 0.065596
vn 0.997846 0.000000 0.065596
vn 0.997846 0.000000 0.065596
vn -0.999601 0.000000 -0.028254
vn -0.999601 0.000000 -0.028254
vn -0.999601 0.000000 -0.028254
vn -0.999601 0.000000 -0.028254
vn 0.000000 1.000000 0.000000
vn 0.000000 1.000000 0.000000
vn 0.000000 1.000000 0.000000
vn 0.000000 1.000000 0.000000
vn 0.000000 -1.000000 0.000000
vn 0.000000 -1.000000 0.000000
vn 0.000000 -1.000000 0.000000
vn 0.000000 -1.000000 0.000000
vn 1.000000 0.000000 0.000000
vn 1.000000 0.000000 0.000000
vn 1.000000 0.000000 0.000000
vn 1.000000 0.000000 0.000000
vn -1.000000 0.000000 0.000000
vn -1.000000 0.000000 0.000000
vn -1.000000 0.000000 0.000000
vn -1.000000 0.000000 0.000000
vn 0.000000 0.999918 0.012806
vn 0.000000 0.999918 0.012806
vn 0.000000 0.999918 0.012806
vn 0.000000 0.999918 0.012806
vn 0.000000 -0.999918 0.012806
vn 0.000000 -0.999918 0.012806
vn 0.000000 -0.999918 0.012806
vn 0.000000 -0.999918 0.012806
vn 0.999797 0.000000 -0.020136
vn 0.999797 0.000000 -0.020136
vn 0.999797 0.000000 -0.020136
vn 0.999797 0.000000 -0.020136
vn -0.999520 0.000042 0.030983
vn -0.999520 0.000042 0.030983
vn -0.999520 0.000042 0.030983
vn -0.999520 0.000042 0.030983
vn -0.000000 0.000001 1.000000
vn -0.000000 0.000001 1.000000
vn -0.000000 0.000001 1.000000
vn -0.000000 0.000001 1.000000
vn 1.000000 -0.000000 0.000000
vn 1.000000 -0.000000 0.000000
vn 1.000000 -0.000000 0.000000
vn 1.000000 -0.000000 0.000000
vn 1.000000 -0.000000 0.000000
vn -0.999178 -0.038632 0.012316
vn -0.999253 -0.038635 0.000003
vn -0.999253 -0.038635 0.000005
vn -0.999178 -0.038632 0.012316
vn 0.000000 1.000000 0.000004
vn 0.000000 1.000000 0.000004
vn 0.000000 1.000000 0.000004
vn 0.000000 1.000000 0.000000
vn 0.000000 1.000000 0.000000
vn 0.000000 1.000000 0.000000
vn 0.000000 1.000000 0.000000
vn -0.032890 0.999193 0.023066
vn -0.049881 0.998729 -0.007279
vn -0.041715 0.999103 0.007318
vn -0.032890 0.999193 0.023066
vn 0.000000 -1.000000 0.000000
vn 0.000000 -1.000000 0.000000
vn 0.000000 -1.000000 0.000000
vn 0.000000 -1.000000 0.000000
vn 0.000000 -1.000000 0.000000
vn 0.000000 -1.000000 0.000000
vn 0.000000 -1.000000 0.000000
vn 0.000000 -1.000000 0.000000
vn 0.035776 -0.999343 0.005790
vn 0.030660 -0.999514 -0.005675
vn 0.042994 -0.998833 0.021988
vn 0.042994 -0.998833 0.021988
vn 0.000000 0.000000 -1.000000
vn 0.000000 0.000000 -1.000000
vn 0.000000 0.000000 -1.000000
vn 0.000000 0.000000 -1.000000
vn 0.987827 0.155255 0.009694
vn 0.987873 0.155263 0.000001
vn 0.987873 0.155263 0.000002
vn 0.987827 0.155255 0.009694
vn 0.000000 0.000000 -1.000000
vn 0.000000 0.000000 -1.000000
vn 0.000000 0.000000 -1.000000
vn 0.000000 0.000000 -1.000000
vn -0.993134 0.116985 0.000000
vn -0.993134 0.116985 0.000000
vn -0.993134 0.116985 0.000000
vn -0.993134 0.116985 0.000000
vn 0.000000 0.000000 -1.000000
vn 0.000000 0.000000 -1.000000
vn 0.000000 0.000000 -1.000000
vn 0.000000 0.000000 -1.000000
vn -0.998090 0.000042 -0.061774
vn -0.998090 0.000042 -0.061774
vn -0.998090 0.000042 -0.061774
vn -0.998090 0.000042 -0.061774
vn 0.000000 0.999673 -0.025563
vn 0.000000 0.999673 -0.025563
vn 0.000000 0.999673 -0.025563
vn 0.000000 0.999673 -0.025563
vn 0.999192 0.000000 0.040181
vn 0.999192 0.000000 0.040181
vn 0.999192 0.000000 0.040181
vn 0.999192 0.000000 0.040181
vn 0.000000 -0.999673 -0.025563
vn 0.000000 -0.999673 -0.025563
vn 0.000000 -0.999673 -0.025563
vn 0.000000 -0.999673 -0.025563
vn -0.999926 -0.000002 0.012196
vn -0.999926 -0.000003 0.012197
vn -0.999926 -0.000022 0.012199
vn -0.999926 -0.000002 0.012196
vn -0.000001 0.999818 -0.019065
vn -0.000001 0.999818 -0.019065
vn -0.000001 0.999818 -0.019065
vn -0.000001 0.999818 -0.019065
vn 0.999598 0.000010 -0.028369
vn 0.999598 0.000006 -0.028358
vn 0.999598 0.000032 -0.028362
vn 0.000000 -0.999818 -0.019065
vn 0.000000 -0.999818 -0.019065
vn 0.000000 -0.999818 -0.019065
vn 0.000000 -0.999818 -0.019065
vn -0.997736 0.000000 -0.067260
vn -0.997736 0.000000 -0.067260
vn -0.997736 0.000000 -0.067260
vn -0.997736 0.000000 -0.067260
vn 0.000000 0.999557 -0.029772
vn 0.000000 0.999557 -0.029772
vn 0.000000 0.999557 -0.029772
vn 0.000000 0.999557 -0.029772
vn 0.999113 0.000000 0.042116
vn 0.999113 0.000000 0.042116
vn 0.999113 0.000000 0.042116
vn 0.999113 0.000000 0.042116
vn 0.000000 -0.999557 -0.029772
vn 0.000000 -0.999557 -0.029772
vn 0.000000 -0.999557 -0.029772
vn 0.000000 -0.999557 -0.029772
vn 0.160176 0.827352 0.538362
vn 0.160176 0.827352 0.538362
vn 0.160176 0.827352 0.538362
vn -0.122429 0.696780 0.706759
vn -0.122429 0.696780 0.706759
vn -0.122429 0.696780 0.706759
vn 0.465907 0.788595 0.401308
vn 0.465907 0.788595 0.401308
vn 0.465907 0.788595 0.401308
vn 0.000000 1.000000 -0.000000
vn 0.000000 1.000000 -0.000000
vn 0.000000 1.000000 -0.000000
vn 0.000000 1.000000 -0.000001
vn 0.000000 1.000000 -0.000001
vn 0.000000 1.000000 -0.000001
vn 0.000000 1.000000 -0.000001
vn -0.000000 1.000000 -0.000001
vn -0.000000 1.000000 -0.000001
vn -0.000000 1.000000 -0.000001
vn -0.000000 1.000000 -0.000001
vn 0.000000 0.000001 1.000000
vn 0.000000 0.000001 1.000000
vn 0.000000 0.000001 1.000000
vn 0.000000 0.000001 1.000000
vn 0.000000 0.000001 1.000000
vn 0.000000 -0.000002 1.000000
vn 0.000000 -0.000002 1.000000
vn 0.000000 -0.000002 1.000000
vn -0.000000 0.999818 -0.019065
vn -0.000000 0.999818 -0.019065
vn -0.000000 0.999818 -0.019065
vn -0.000000 0.999818 -0.019065
vn -0.665042 0.710440 0.230206
vn -0.665042 0.710440 0.230206
vn -0.665042 0.710440 0.230206
vn -0.581297 0.786468 -0.208714
vn -0.581297 0.786469 -0.208714
vn -0.581297 0.786468 -0.208714
vn -0.999926 -0.000022 0.012199
vn -0.999926 0.000000 0.012203
vn -0.999926 0.000004 0.012203
vn -0.999926 0.000004 0.012203
vn -0.999926 -0.000022 0.012199
vn -0.999926 -0.000003 0.012197
vn -0.999926 0.000000 0.012203
vn 0.999598 0.000032 -0.028362
vn 0.999598 0.000006 -0.028358
vn 0.999598 0.000000 -0.028357
vn 0.999598 0.000010 -0.028369
vn 0.999598 0.000032 -0.028362
vn 0.999597 0.000000 -0.028371
vn -0.999253 -0.038635 0.000005
vn -0.999253 -0.038635 0.000003
vn -0.999184 -0.038632 -0.011757
vn -0.999184 -0.038632 -0.011757
vn -0.041715 0.999103 0.007318
vn -0.049881 0.998729 -0.007279
vn -0.058164 0.998062 -0.022107
vn -0.058164 0.998062 -0.022107
vn 0.987873 0.155263 0.000002
vn 0.987873 0.155263 0.000001
vn 0.987829 0.155256 -0.009460
vn 0.987829 0.155256 -0.009460
vn 0.023647 -0.999492 -0.021374
vn 0.030660 -0.999514 -0.005675
vn 0.035776 -0.999343 0.005790
vn 0.023647 -0.999492 -0.021374
s off
f 3/3/1 4/4/2 6/6/3 5/5/4
f 7/7/5 8/8/6 2/10/7 1/9/8
f 2/2/9 8/11/10 6/12/11 4/4/12
f 7/13/13 1/1/14 3/3/15 5/14/16
f 66/126/17 67/127/18 14/17/19 13/18/20
f 15/19/21 16/20/22 68/129/23 65/124/24
f 67/128/25 68/130/26 16/24/27 14/25/28
f 15/26/29 65/123/30 66/125/31 13/28/32
f 62/118/33 63/119/34 22/31/35 21/32/36
f 23/33/37 24/34/38 64/121/39 61/116/40
f 63/120/41 64/122/42 24/38/43 22/39/44
f 23/40/45 61/115/46 62/117/47 21/42/48
f 27/43/49 28/44/50 30/45/51 29/46/52
f 31/47/53 32/48/54 26/49/55 25/50/56
f 26/51/57 32/52/58 30/53/59 28/44/60
f 31/54/61 25/55/62 27/43/63 29/56/64
f 58/110/65 59/111/66 38/59/67 37/60/68
f 39/61/69 40/62/70 60/113/71 57/108/72
f 59/112/73 60/114/74 40/66/75 38/67/76
f 39/68/77 57/107/78 58/109/79 37/70/80
f 41/71/81 72/134/82 69/131/83 43/74/84
f 42/72/85 48/75/86 46/76/87 74/136/88 44/73/89
f 47/77/90 79/145/91 80/146/92 45/78/93
f 49/80/94 71/133/95 50/79/96
f 74/136/97 46/76/98 51/81/99 50/79/100
f 45/78/101 80/146/102 81/147/103 52/82/104
f 48/75/105 42/72/106 55/83/107 54/84/108
f 42/72/109 41/71/110 56/85/111 55/83/112
f 82/149/113 79/145/114 47/77/115 53/86/116
f 51/87/117 46/88/118 48/89/119 54/90/120
f 52/91/121 81/148/122 82/150/123 53/94/124
f 52/95/125 53/96/126 47/97/127 45/98/128
f 51/99/129 54/100/130 55/101/131 50/102/132
f 50/103/133 55/104/134 56/105/135 49/106/136
f 58/109/137 57/107/138 33/69/139 35/57/140
f 35/57/141 36/58/142 59/111/143 58/110/144
f 34/65/145 60/114/146 59/112/147 36/58/148
f 57/108/149 60/113/150 34/63/151 33/64/152
f 62/117/153 61/115/154 78/143/155 76/139/156
f 76/140/157 77/141/158 63/119/159 62/118/160
f 18/37/161 64/122/162 77/142/163
f 61/116/164 64/121/165 18/35/166 17/36/167
f 66/125/168 65/123/169 9/27/170 11/15/171
f 11/15/172 12/16/173 67/127/174 66/126/175
f 10/23/176 68/130/177 67/128/178 12/16/179
f 65/124/180 68/129/181 10/21/182 9/22/183
f 72/134/184 71/133/185 69/131/186
f 70/132/187 71/133/188 72/134/189
f 74/136/190 73/135/191 44/73/192
f 50/79/193 73/135/194 74/136/195
f 43/74/196 69/131/197 71/133/198 49/80/199
f 50/79/200 71/133/201 70/132/202 73/135/203
f 72/134/204 42/72/205 44/73/206 73/135/207 70/132/208
f 41/71/209 42/72/210 72/134/211
f 19/29/212 20/30/213 77/141/214 75/138/215
f 78/144/216 77/141/217 76/140/218
f 75/138/219 77/141/220 78/144/221
f 78/143/222 17/41/223 19/29/224 75/137/225
f 78/143/226 61/115/227 17/41/228
f 77/142/229 64/122/230 63/120/231
f 18/37/232 77/142/233 20/30/234
f 80/146/235 79/145/236 41/71/237 43/74/238
f 81/147/239 80/146/240 43/74/241 49/80/242
f 82/150/243 81/148/244 49/92/245 56/93/246
f 41/71/247 79/145/248 82/149/249 56/85/250
