# This file uses centimeters as units for non-parametric coordinates.

v -0.703434 0.831929 10.242489
v 0.169039 0.831929 10.222048
v 0.169039 3.136371 10.222048
v -0.703434 3.136371 10.242489
v 0.421326 0.831929 10.216138
v 1.293787 0.831929 10.195698
v 1.293787 3.136371 10.195698
v 0.421326 3.136371 10.216138
v 1.646917 0.831929 -10.142960
v 0.776345 0.831929 -10.204044
v 0.776345 3.136371 -10.204044
v 1.646917 3.136371 -10.142960
v 0.524607 0.831929 -10.221706
v -0.345951 0.831929 -10.282791
v -0.345951 3.136371 -10.282791
v 0.524607 3.136371 -10.221706
v 10.265059 0.825832 0.125822
v 10.124858 0.825832 -1.701918
v 10.124858 5.203838 -1.701918
v 10.265059 5.203838 0.125822
v 10.103755 0.825832 -1.823568
v 9.620176 0.825832 -3.591740
v 9.620176 5.203838 -3.591740
v 10.103755 5.203838 -1.823568
v 9.576433 0.825832 -3.707195
v 8.766970 0.825832 -5.351900
v 8.766970 5.203838 -5.351900
v 9.576433 5.203838 -3.707195
v 8.702169 0.825832 -5.456997
v 7.596069 0.825832 -6.918783
v 7.596069 5.203838 -6.918783
v 8.702169 5.203838 -5.456997
v 7.512548 0.825832 -7.009714
v 6.149792 0.825832 -8.235752
v 6.149792 5.203838 -8.235752
v 7.512548 5.203838 -7.009714
v 6.050570 0.825832 -8.309231
v 4.480410 0.825832 -9.255215
v 4.480410 5.203838 -9.255215
v 6.050570 5.203838 -8.309231
v 4.276882 0.825832 -9.351408
v 2.648637 0.825832 -9.940187
v 2.648637 5.203838 -9.940187
v 4.276882 5.203838 -9.351408
v 2.528840 0.825832 -9.971663
v 0.719570 5.203838 -10.266314
v 2.528840 5.203838 -9.971663
v -1.235964 0.825832 -10.221403
v -1.235964 5.203838 -10.221403
v 0.596375 5.203838 -10.274485
v -1.358479 0.825832 -10.206118
v -3.147659 0.825832 -9.807219
v -3.147659 5.203838 -9.807219
v -1.358479 5.203838 -10.206118
v -3.265066 0.825832 -9.769022
v -4.946423 0.825832 -9.038733
v -4.946423 5.203838 -9.038733
v -3.265066 5.203838 -9.769022
v -5.054482 0.825832 -8.979002
v -6.567242 0.825832 -7.943712
v -6.567242 5.203838 -7.943712
v -5.054482 5.203838 -8.979002
v -6.662045 0.825832 -7.864613
v -7.951540 0.825832 -6.561735
v -7.951540 5.203838 -6.561735
v -6.662045 5.203838 -7.864613
v -8.029659 0.825832 -6.466122
v -9.049280 0.825832 -4.942757
v -9.049280 5.203838 -4.942757
v -8.029659 5.203838 -6.466122
v -9.107893 0.825832 -4.834089
v -9.820786 0.825832 -3.145285
v -9.820786 5.203838 -3.145285
v -9.107893 5.203838 -4.834089
v -9.857775 0.825832 -3.027489
v -10.238182 0.825832 -1.234283
v -10.238182 5.203838 -1.234283
v -9.857775 5.203838 -3.027489
v -10.252203 0.825832 -1.111620
v -10.286371 0.825832 0.721169
v -10.286371 5.203838 0.721169
v -10.252203 5.203838 -1.111620
v -10.276926 0.825832 0.844276
v -9.963619 0.825832 2.650408
v -9.963619 5.203838 2.650408
v -10.276926 5.203838 0.844276
v -9.902611 0.825832 2.867979
v -9.281725 0.825832 4.483339
v -9.281725 5.203838 4.483339
v -9.902611 5.203838 2.867979
v -9.227068 0.825832 4.594477
v -8.264931 0.825832 6.154791
v -8.264931 5.203838 6.154791
v -9.227068 5.203838 4.594477
v -8.190430 0.825832 6.253244
v -6.950386 0.825832 7.603274
v -6.950386 5.203838 7.603274
v -8.190430 5.203838 6.253244
v -6.858599 0.825832 7.685852
v -5.385477 0.825832 8.776804
v -5.385477 5.203838 8.776804
v -6.858599 5.203838 7.685852
v -5.279716 0.825832 8.840521
v -3.626749 0.825832 9.632966
v -3.626749 5.203838 9.632966
v -5.279716 5.203838 8.840521
v -3.510845 0.825832 9.675517
v -1.737778 0.825832 10.140814
v -1.737778 5.203838 10.140814
v -3.510845 5.203838 9.675517
v -1.615913 0.825832 10.160662
v 0.213171 5.203838 10.281995
v -1.615913 5.203838 10.160662
v 2.155167 0.825832 10.051460
v 2.155167 5.203838 10.051460
v 0.352924 5.203838 10.274593
v 2.276091 0.825832 10.024542
v 4.019253 0.825832 9.457380
v 4.019253 5.203838 9.457380
v 2.276091 5.203838 10.024542
v 4.132498 0.825832 9.408193
v 5.736820 0.825832 8.521385
v 5.736820 5.203838 8.521385
v 4.132498 5.203838 9.408193
v 5.838713 0.825832 8.451655
v 7.246213 0.825832 7.277255
v 7.246213 5.203838 7.277255
v 5.838713 5.203838 8.451655
v 7.333063 0.825832 7.189499
v 8.492878 0.825832 5.769955
v 8.492878 5.203838 5.769955
v 7.333063 5.203838 7.189499
v 8.617759 0.825832 5.582157
v 9.431548 0.825832 4.054329
v 9.431548 5.203838 4.054329
v 8.617759 5.203838 5.582157
v 9.479767 0.825832 3.940208
v 10.028906 0.825832 2.191286
v 10.028906 5.203838 2.191286
v 9.479767 5.203838 3.940208
v 10.054526 0.825832 2.070511
v 10.262760 0.825832 0.249264
v 10.262760 5.203838 0.249264
v 10.054526 5.203838 2.070511
v -0.973683 0.825832 10.203264
v -0.924858 3.589055 10.206503
v 0.213171 3.610822 10.281995
v 0.352924 3.583797 10.274593
v 1.441643 3.647423 10.139801
v 1.480207 0.825832 10.135026
v 2.528840 3.491300 -9.971663
v 0.719570 3.491300 -10.266312
v -1.235964 3.495976 -10.221403
v 0.596375 3.495976 -10.274483
v -0.597799 5.203838 -10.239891
v -0.597799 3.495976 -10.239889
v -0.597799 0.825832 -10.239891
v 1.890919 0.825832 -10.075552
v 1.890919 3.491300 -10.075550
v 1.890919 5.203838 -10.075552
vt 0.502349 0.001724
vt 0.608507 0.001724
vt 0.608507 0.109021
vt 0.502349 0.109021
vt 0.502349 0.001724
vt 0.608507 0.001724
vt 0.608507 0.109021
vt 0.502349 0.109021
vt 0.502349 0.001724
vt 0.608507 0.001724
vt 0.608507 0.109021
vt 0.502349 0.109021
vt 0.502349 0.001724
vt 0.608507 0.001724
vt 0.608507 0.109021
vt 0.502349 0.109021
vt 0.722198 0.001218
vt 0.829828 0.001218
vt 0.829828 0.108848
vt 0.722198 0.108848
vt 0.501982 0.001218
vt 0.609612 0.001218
vt 0.609612 0.108848
vt 0.501982 0.108848
vt 0.501982 0.001218
vt 0.609612 0.001218
vt 0.609612 0.108848
vt 0.501982 0.108848
vt 0.501982 0.001218
vt 0.609612 0.001218
vt 0.609612 0.108848
vt 0.501982 0.108848
vt 0.611400 0.001218
vt 0.719030 0.001218
vt 0.719030 0.108848
vt 0.611400 0.108848
vt 0.611400 0.001218
vt 0.719030 0.001218
vt 0.719030 0.108848
vt 0.611400 0.108848
vt 0.501982 0.001218
vt 0.609612 0.001218
vt 0.609612 0.108848
vt 0.501982 0.108848
vt 0.501982 0.066747
vt 0.539931 0.066747
vt 0.539931 0.108848
vt 0.501982 0.108848
vt 0.792343 0.001218
vt 0.829828 0.001218
vt 0.829828 0.066862
vt 0.792343 0.066862
vt 0.501982 0.001218
vt 0.609612 0.001218
vt 0.609612 0.108848
vt 0.501982 0.108848
vt 0.611400 0.001218
vt 0.719030 0.001218
vt 0.719030 0.108848
vt 0.611400 0.108848
vt 0.501982 0.001218
vt 0.609612 0.001218
vt 0.609612 0.108848
vt 0.501982 0.108848
vt 0.722198 0.001218
vt 0.829828 0.001218
vt 0.829828 0.108848
vt 0.722198 0.108848
vt 0.501982 0.001218
vt 0.609612 0.001218
vt 0.609612 0.108848
vt 0.501982 0.108848
vt 0.611400 0.001218
vt 0.719030 0.001218
vt 0.719030 0.108848
vt 0.611400 0.108848
vt 0.501982 0.001218
vt 0.609612 0.001218
vt 0.609612 0.108848
vt 0.501982 0.108848
vt 0.501982 0.001218
vt 0.609612 0.001218
vt 0.609612 0.108848
vt 0.501982 0.108848
vt 0.722198 0.001218
vt 0.829828 0.001218
vt 0.829828 0.108848
vt 0.722198 0.108848
vt 0.722198 0.001218
vt 0.829828 0.001218
vt 0.829828 0.108848
vt 0.722198 0.108848
vt 0.501982 0.001218
vt 0.609612 0.001218
vt 0.609612 0.108848
vt 0.501982 0.108848
vt 0.501982 0.001218
vt 0.609612 0.001218
vt 0.609612 0.108848
vt 0.501982 0.108848
vt 0.501982 0.001218
vt 0.609612 0.001218
vt 0.609612 0.108848
vt 0.501982 0.108848
vt 0.722198 0.001218
vt 0.829828 0.001218
vt 0.829828 0.108848
vt 0.722198 0.108848
vt 0.501982 0.001218
vt 0.609612 0.001218
vt 0.609612 0.108848
vt 0.501982 0.108848
vt 0.502357 0.001892
vt 0.520490 0.001892
vt 0.521868 0.069092
vt 0.502357 0.108363
vt 0.557944 0.068964
vt 0.588683 0.070512
vt 0.608828 0.108363
vt 0.557944 0.108363
vt 0.501982 0.001218
vt 0.609612 0.001218
vt 0.609612 0.108848
vt 0.501982 0.108848
vt 0.722198 0.001218
vt 0.829828 0.001218
vt 0.829828 0.108848
vt 0.722198 0.108848
vt 0.501982 0.001218
vt 0.609612 0.001218
vt 0.609612 0.108848
vt 0.501982 0.108848
vt 0.501982 0.001218
vt 0.609612 0.001218
vt 0.609612 0.108848
vt 0.501982 0.108848
vt 0.611400 0.001218
vt 0.719030 0.001218
vt 0.719030 0.108848
vt 0.611400 0.108848
vt 0.501982 0.001218
vt 0.609612 0.001218
vt 0.609612 0.108848
vt 0.501982 0.108848
vt 0.501982 0.001218
vt 0.609612 0.001218
vt 0.609612 0.108848
vt 0.501982 0.108848
vt 0.553999 0.069622
vt 0.553999 0.108363
vt 0.589772 0.001892
vt 0.608828 0.001892
vt 0.501982 0.001218
vt 0.539931 0.001218
vt 0.829828 0.108848
vt 0.792343 0.108848
vt 0.722198 0.066862
vt 0.722198 0.108848
vt 0.609612 0.066747
vt 0.609612 0.108848
vn 0.023423 0.000000 0.999726
vn 0.023423 0.000000 0.999726
vn 0.023423 0.000000 0.999726
vn 0.023423 0.000000 0.999726
vn 0.023422 0.000000 0.999726
vn 0.023422 0.000000 0.999726
vn 0.023422 0.000000 0.999726
vn 0.023422 0.000000 0.999726
vn 0.069995 0.000000 -0.997547
vn 0.069995 0.000000 -0.997547
vn 0.069995 0.000000 -0.997547
vn 0.069995 0.000000 -0.997547
vn 0.069995 0.000000 -0.997547
vn 0.069995 0.000000 -0.997547
vn 0.069995 0.000000 -0.997547
vn 0.069995 0.000000 -0.997547
vn 0.997071 0.000000 -0.076482
vn 0.997071 0.000000 -0.076482
vn 0.997071 0.000000 -0.076482
vn 0.997071 0.000000 -0.076482
vn 0.964577 0.000000 -0.263803
vn 0.964577 0.000000 -0.263803
vn 0.964577 0.000000 -0.263803
vn 0.964577 0.000000 -0.263803
vn 0.897222 0.000000 -0.441580
vn 0.897222 0.000000 -0.441580
vn 0.897222 0.000000 -0.441580
vn 0.897222 0.000000 -0.441580
vn 0.797437 0.000000 -0.603402
vn 0.797437 0.000000 -0.603402
vn 0.797437 0.000000 -0.603402
vn 0.797437 0.000000 -0.603402
vn 0.668831 0.000000 -0.743414
vn 0.668831 0.000000 -0.743414
vn 0.668831 0.000000 -0.743414
vn 0.668831 0.000000 -0.743414
vn 0.516055 0.000000 -0.856556
vn 0.516055 0.000000 -0.856556
vn 0.516055 0.000000 -0.856556
vn 0.516055 0.000000 -0.856556
vn 0.340054 0.000000 -0.940406
vn 0.340054 0.000000 -0.940406
vn 0.340054 0.000000 -0.940406
vn 0.340054 0.000000 -0.940406
vn 0.160737 -0.000000 -0.986997
vn 0.160738 -0.000000 -0.986997
vn 0.160738 -0.000001 -0.986997
vn 0.160736 -0.000001 -0.986997
vn -0.028956 0.000000 -0.999581
vn -0.028956 0.000000 -0.999581
vn -0.028957 0.000000 -0.999581
vn -0.028957 -0.000000 -0.999581
vn -0.217608 0.000000 -0.976036
vn -0.217608 0.000000 -0.976036
vn -0.217608 0.000000 -0.976036
vn -0.217608 0.000000 -0.976036
vn -0.398389 0.000000 -0.917217
vn -0.398389 0.000000 -0.917217
vn -0.398389 0.000000 -0.917217
vn -0.398389 0.000000 -0.917217
vn -0.564774 0.000000 -0.825245
vn -0.564774 0.000000 -0.825245
vn -0.564774 0.000000 -0.825245
vn -0.564774 0.000000 -0.825245
vn -0.710747 0.000000 -0.703447
vn -0.710747 0.000000 -0.703447
vn -0.710747 0.000000 -0.703447
vn -0.710747 0.000000 -0.703447
vn -0.831031 0.000000 -0.556227
vn -0.831031 0.000000 -0.556227
vn -0.831031 0.000000 -0.556227
vn -0.831031 0.000000 -0.556227
vn -0.921281 0.000000 -0.388899
vn -0.921281 0.000000 -0.388899
vn -0.921281 0.000000 -0.388899
vn -0.921281 0.000000 -0.388899
vn -0.978231 0.000000 -0.207520
vn -0.978231 0.000000 -0.207520
vn -0.978231 0.000000 -0.207520
vn -0.978231 0.000000 -0.207520
vn -0.999826 0.000000 -0.018640
vn -0.999826 0.000000 -0.018640
vn -0.999826 0.000000 -0.018640
vn -0.999826 0.000000 -0.018640
vn -0.985286 0.000000 0.170916
vn -0.985286 0.000000 0.170916
vn -0.985286 0.000000 0.170916
vn -0.985286 0.000000 0.170916
vn -0.933424 0.000000 0.358774
vn -0.933424 0.000000 0.358774
vn -0.933424 0.000000 0.358774
vn -0.933424 0.000000 0.358774
vn -0.851185 0.000000 0.524866
vn -0.851185 0.000000 0.524866
vn -0.851185 0.000000 0.524866
vn -0.851185 0.000000 0.524866
vn -0.736470 0.000000 0.676470
vn -0.736470 0.000000 0.676470
vn -0.736470 0.000000 0.676470
vn -0.736470 0.000000 0.676470
vn -0.595140 0.000000 0.803622
vn -0.595140 0.000000 0.803622
vn -0.595140 0.000000 0.803622
vn -0.595140 0.000000 0.803622
vn -0.432297 0.000000 0.901731
vn -0.432297 0.000000 0.901731
vn -0.432297 0.000000 0.901731
vn -0.432297 0.000000 0.901731
vn -0.253830 0.000000 0.967249
vn -0.253830 0.000000 0.967249
vn -0.253830 0.000000 0.967249
vn -0.253830 0.000000 0.967249
vn -0.066191 0.000000 0.997807
vn -0.066191 0.000000 0.997807
vn -0.066191 -0.000000 0.997807
vn -0.066190 -0.000000 0.997807
vn 0.122871 0.000000 0.992423
vn 0.122871 0.000000 0.992423
vn 0.122871 0.000000 0.992423
vn 0.122871 0.000000 0.992423
vn 0.309399 0.000000 0.950933
vn 0.309399 0.000000 0.950933
vn 0.309399 0.000000 0.950933
vn 0.309399 0.000000 0.950933
vn 0.483773 0.000000 0.875193
vn 0.483773 0.000000 0.875193
vn 0.483773 0.000000 0.875193
vn 0.483773 0.000000 0.875193
vn 0.640662 0.000000 0.767823
vn 0.640662 0.000000 0.767823
vn 0.640662 0.000000 0.767823
vn 0.640662 0.000000 0.767823
vn 0.774393 0.000000 0.632705
vn 0.774393 0.000000 0.632705
vn 0.774393 0.000000 0.632705
vn 0.774393 0.000000 0.632705
vn 0.882605 0.000000 0.470115
vn 0.882605 0.000000 0.470115
vn 0.882605 0.000000 0.470115
vn 0.882605 0.000000 0.470115
vn 0.954075 0.000000 0.299567
vn 0.954075 0.000000 0.299567
vn 0.954075 0.000000 0.299567
vn 0.954075 0.000000 0.299567
vn 0.993527 0.000000 0.113596
vn 0.993527 0.000000 0.113596
vn 0.993527 0.000000 0.113596
vn 0.993527 0.000000 0.113596
vn -0.066190 -0.000000 0.997807
vn -0.066190 -0.000000 0.997807
vn 0.122871 -0.000000 0.992423
vn 0.122871 -0.000000 0.992423
vn 0.160738 0.000000 -0.986997
vn 0.160738 0.000000 -0.986997
vn -0.028958 -0.000001 -0.999581
vn -0.028957 -0.000001 -0.999581
vn -0.028956 -0.000001 -0.999581
vn -0.028956 -0.000001 -0.999581
vn 0.160739 -0.000001 -0.986997
vn 0.160739 -0.000001 -0.986997
s off
f 1/1/1 2/2/2 3/3/3 4/4/4
f 5/5/5 6/6/6 7/7/7 8/8/8
f 9/9/9 10/10/10 11/11/11 12/12/12
f 13/13/13 14/14/14 15/15/15 16/16/16
f 17/17/17 18/18/18 19/19/19 20/20/20
f 21/21/21 22/22/22 23/23/23 24/24/24
f 25/25/25 26/26/26 27/27/27 28/28/28
f 29/29/29 30/30/30 31/31/31 32/32/32
f 33/33/33 34/34/34 35/35/35 36/36/36
f 37/37/37 38/38/38 39/39/39 40/40/40
f 41/41/41 42/42/42 43/43/43 44/44/44
s 1
f 151/45/45 159/46/46 160/47/47 47/48/48
s 2
f 157/49/49 48/50/50 153/51/51 156/52/52
s off
f 51/53/53 52/54/54 53/55/55 54/56/56
f 55/57/57 56/58/58 57/59/59 58/60/60
f 59/61/61 60/62/62 61/63/63 62/64/64
f 63/65/65 64/66/66 65/67/67 66/68/68
f 67/69/69 68/70/70 69/71/71 70/72/72
f 71/73/73 72/74/74 73/75/75 74/76/76
f 75/77/77 76/78/78 77/79/79 78/80/80
f 79/81/81 80/82/82 81/83/83 82/84/84
f 83/85/85 84/86/86 85/87/87 86/88/88
f 87/89/89 88/90/90 89/91/91 90/92/92
f 91/93/93 92/94/94 93/95/95 94/96/96
f 95/97/97 96/98/98 97/99/99 98/100/100
f 99/101/101 100/102/102 101/103/103 102/104/104
f 103/105/105 104/106/106 105/107/107 106/108/108
f 107/109/109 108/110/110 109/111/111 110/112/112
s 3
f 111/113/113 145/114/114 146/115/115 113/116/116
s 4
f 148/117/117 149/118/118 115/119/119 116/120/120
s off
f 117/121/121 118/122/122 119/123/123 120/124/124
f 121/125/125 122/126/126 123/127/127 124/128/128
f 125/129/129 126/130/130 127/131/131 128/132/132
f 129/133/133 130/134/134 131/135/135 132/136/136
f 133/137/137 134/138/138 135/139/139 136/140/140
f 137/141/141 138/142/142 139/143/143 140/144/144
f 141/145/145 142/146/146 143/147/147 144/148/148
s 3
f 113/116/116 146/115/115 147/149/149 112/150/150
s 4
f 149/118/118 150/151/151 114/152/152 115/119/119
s 1
f 45/153/153 158/154/154 159/46/46 151/45/45
s 2
f 156/52/52 153/51/51 49/155/155 155/156/156
f 154/157/157 156/52/52 155/156/156 50/158/158
s 1
f 160/47/47 159/46/46 152/159/159 46/160/160
