# This file uses centimeters as units for non-parametric coordinates.

v -0.011444 0.000000 0.034646
v 5.011444 0.000000 0.034646
v -0.154839 0.499867 0.455802
v 5.154839 0.499867 0.455802
v -0.154839 0.499867 -5.168199
v 5.154839 0.499867 -5.168199
v -0.011444 0.000000 -5.042792
v 5.011444 0.000000 -5.042792
v -0.011444 0.094920 -5.042792
v -0.011444 0.094920 0.034646
v 5.011444 0.094920 0.034646
v 5.011444 0.094920 -5.042792
v 5.066563 0.132862 0.169849
v -0.066565 0.132862 0.169849
v -0.066565 0.132862 -5.083694
v 5.066563 0.132862 -5.083694
v 5.066563 0.229365 0.169849
v -0.066565 0.229365 0.169849
v -0.066565 0.229365 -5.083694
v 5.066563 0.229365 -5.083694
v 5.126102 0.269960 0.349927
v -0.126102 0.269960 0.349927
v -0.126102 0.269960 -5.138172
v 5.126102 0.269960 -5.138172
v 0.842390 0.499867 0.455802
v 4.157610 0.499867 0.455802
v -0.126102 0.348493 -5.138172
v -0.126102 0.348493 0.349927
v 5.126102 0.348493 0.349927
v 5.126102 0.348493 -5.138172
v 5.154839 0.392163 0.455802
v -0.154839 0.392163 0.455802
v -0.154839 0.392163 -5.168199
v 5.154839 0.392163 -5.168199
v 2.500000 0.499867 -5.168199
v 0.842390 0.392163 0.455802
v 0.842390 0.348493 0.349927
v 0.842390 0.269960 0.349927
v 0.842390 0.229365 0.169849
v 0.842390 0.132862 0.169849
v 0.842390 0.094920 0.034646
v 0.842390 0.000000 0.034646
v 2.500000 0.000000 -5.042792
v 2.500000 0.094920 -5.042792
v 2.500000 0.132862 -5.083694
v 2.500000 0.229365 -5.083694
v 2.500000 0.269960 -5.138172
v 2.500000 0.348493 -5.138172
v 2.500000 0.392163 -5.168199
v 4.157610 0.000000 0.034646
v 4.157610 0.094920 0.034646
v 4.157610 0.132862 0.169849
v 4.157610 0.229365 0.169849
v 4.157610 0.269960 0.349927
v 4.157610 0.348493 0.349927
v 4.157610 0.392163 0.455802
v 1.106174 0.132862 0.581279
v 1.185553 0.094920 0.501830
v 3.814447 0.094920 0.501830
v 3.893826 0.132862 0.581279
v 1.185553 0.000000 0.501830
v 3.814447 0.000000 0.501830
v 1.106174 0.229365 0.581279
v 3.893826 0.229365 0.581279
v 1.036787 0.269960 0.687099
v 3.963213 0.269960 0.687099
v 0.980984 0.392163 0.749313
v 1.036787 0.348493 0.687099
v 3.963213 0.348493 0.687099
v 4.019016 0.392163 0.749313
v 0.980984 0.499867 0.749313
v 4.019016 0.499867 0.749313
vt 0.037983 0.325693
vt 0.037983 0.325693
vt 0.037983 0.325693
vt 0.037983 0.325693
vt 0.100260 0.263232
vt 0.100260 0.263232
vt 0.100260 0.263232
vt 0.100260 0.263232
vt 0.037983 0.325693
vt 0.037983 0.325693
vt 0.037983 0.325693
vt 0.037983 0.325693
vt 0.099806 0.231725
vt 0.099806 0.231725
vt 0.099806 0.231725
vt 0.099806 0.231725
vt 0.037983 0.325693
vt 0.037983 0.325693
vt 0.037983 0.325693
vt 0.037983 0.325693
vt 0.099806 0.231725
vt 0.099806 0.231725
vt 0.099806 0.231725
vt 0.099806 0.231725
vt 0.037983 0.325693
vt 0.100260 0.263232
vt 0.100260 0.263232
vt 0.037983 0.325693
vt 0.100260 0.263232
vt 0.037983 0.325693
vt 0.100260 0.263232
vt 0.100260 0.263232
vt 0.100260 0.263232
vt 0.100260 0.263232
vt 0.100260 0.263232
vt 0.100260 0.263232
vt 0.100260 0.263232
vt 0.100260 0.263232
vt 0.100260 0.263232
vt 0.100260 0.263232
vt 0.100260 0.263232
vt 0.100260 0.263232
vt 0.100260 0.263232
vt 0.100260 0.263232
vt 0.100260 0.263232
vt 0.100260 0.263232
vt 0.100260 0.263232
vt 0.100260 0.263232
vt 0.037983 0.325693
vt 0.100260 0.263232
vt 0.037983 0.325693
vt 0.100260 0.263232
vt 0.100260 0.263232
vt 0.100260 0.263232
vt 0.100260 0.263232
vt 0.100260 0.263232
vt 0.100260 0.263232
vt 0.100260 0.263232
vt 0.100260 0.263232
vt 0.037983 0.325693
vt 0.100260 0.263232
vt 0.100260 0.263232
vt 0.100260 0.263232
vt 0.100260 0.263232
vt 0.100260 0.263232
vt 0.100260 0.263232
vt 0.100260 0.263232
vt 0.100260 0.263232
vt 0.100260 0.263232
vt 0.100260 0.263232
vt 0.100260 0.263232
vt 0.100260 0.263232
vt 0.100260 0.263232
vt 0.100260 0.263232
vt 0.100260 0.263232
vt 0.100260 0.263232
vt 0.100260 0.263232
vt 0.100260 0.263232
vt 0.100260 0.263232
vt 0.100260 0.263232
vt 0.100260 0.263232
vt 0.100260 0.263232
vt 0.100260 0.263232
vt 0.100260 0.263232
vt 0.100260 0.263232
vt 0.100260 0.263232
vt 0.037983 0.325693
vt 0.100260 0.263232
vt 0.037983 0.325693
vt 0.037983 0.325693
vt 0.099806 0.231725
vt 0.099806 0.231725
vt 0.099806 0.231725
vt 0.037983 0.325693
vt 0.099806 0.231725
vt 0.037983 0.325693
vt 0.037983 0.325693
vt 0.100260 0.263232
vt 0.100260 0.263232
vt 0.100260 0.263232
vt 0.100260 0.263232
vt 0.100260 0.263232
vt 0.100260 0.263232
vt 0.100260 0.263232
vt 0.099806 0.231725
vt 0.037983 0.325693
vt 0.099806 0.231725
vt 0.037983 0.325693
vt 0.037983 0.325693
vt 0.100260 0.263232
vt 0.100260 0.263232
vt 0.100260 0.263232
vt 0.100260 0.263232
vt 0.100260 0.263232
vt 0.100260 0.263232
vt 0.037983 0.325693
vt 0.037983 0.325693
vt 0.037983 0.325693
vt 0.037983 0.325693
vt 0.099806 0.231725
vt 0.099806 0.231725
vt 0.099806 0.231725
vt 0.099806 0.231725
vt 0.037983 0.325693
vt 0.037983 0.325693
vt 0.100260 0.263232
vt 0.100260 0.263232
vt 0.100260 0.263232
vt 0.100260 0.263232
vt 0.100260 0.263232
vt 0.100260 0.263232
vt 0.100260 0.263232
vt 0.100260 0.263232
vt 0.100260 0.263232
vt 0.100260 0.263232
vt 0.100260 0.263232
vt 0.100260 0.263232
vn 0.000000 -0.902381 0.430940
vn 0.000000 -0.902381 0.430940
vn 0.000000 -0.902381 0.430940
vn 0.000000 -0.902381 0.430940
vn 0.000000 -1.000000 0.000000
vn 0.000000 -1.000000 0.000000
vn 0.000000 -1.000000 0.000000
vn 0.567016 -0.823707 0.000000
vn 0.567016 -0.823707 0.000000
vn 0.567016 -0.823707 0.000000
vn 0.567016 -0.823707 0.000000
vn -0.567002 -0.823717 0.000000
vn -0.567001 -0.823717 0.000000
vn -0.567002 -0.823717 0.000000
vn -0.567002 -0.823717 0.000000
vn -1.000000 0.000000 0.000000
vn -1.000000 0.000000 0.000000
vn -1.000000 0.000000 0.000000
vn -1.000000 0.000000 0.000000
vn 0.000000 0.000000 1.000000
vn 0.000000 0.000000 1.000000
vn 0.000000 0.000000 1.000000
vn 0.000000 0.000000 1.000000
vn 1.000000 0.000000 0.000000
vn 1.000000 0.000000 0.000000
vn 1.000000 0.000000 0.000000
vn 1.000000 0.000000 0.000000
vn 0.000000 0.000000 1.000000
vn 0.000000 0.000000 1.000000
vn 0.000000 0.000000 1.000000
vn 0.000000 0.000000 1.000000
vn -1.000000 0.000000 0.000000
vn -1.000000 0.000000 0.000000
vn -1.000000 0.000000 0.000000
vn -1.000000 0.000000 0.000000
vn 1.000000 0.000000 0.000000
vn 1.000000 0.000000 0.000000
vn 1.000000 0.000000 0.000000
vn 1.000000 0.000000 0.000000
vn 0.000000 -0.933654 0.358176
vn 0.000000 -0.933654 0.358176
vn 0.000000 -0.933654 0.358176
vn 0.000000 -0.933654 0.358176
vn -0.563348 -0.826220 0.000000
vn -0.563348 -0.826220 0.000000
vn -0.563348 -0.826220 0.000000
vn -0.563348 -0.826220 0.000000
vn 0.563334 -0.826229 0.000000
vn 0.563334 -0.826229 0.000000
vn 0.563334 -0.826229 0.000000
vn 0.563334 -0.826229 0.000000
vn 0.000000 -0.818497 0.574511
vn 0.000000 -0.818497 0.574511
vn 0.000000 -0.818497 0.574511
vn 0.000000 -0.818497 0.574511
vn -0.835361 -0.549702 0.000000
vn -0.835361 -0.549702 0.000000
vn -0.835361 -0.549702 0.000000
vn -0.835361 -0.549702 0.000000
vn 0.835360 -0.549704 0.000000
vn 0.835360 -0.549704 0.000000
vn 0.835360 -0.549704 0.000000
vn 0.835360 -0.549704 0.000000
vn 0.000000 1.000000 0.000000
vn 0.000000 1.000000 0.000000
vn 0.000000 1.000000 0.000000
vn 0.000000 1.000000 0.000000
vn 0.000000 1.000000 0.000000
vn 0.000000 1.000000 0.000000
vn 0.000000 1.000000 0.000000
vn -1.000000 0.000000 0.000000
vn -1.000000 0.000000 0.000000
vn -1.000000 0.000000 0.000000
vn -1.000000 0.000000 0.000000
vn 0.000000 0.000000 1.000000
vn 0.000000 0.000000 1.000000
vn 0.000000 0.000000 1.000000
vn 0.000000 0.000000 1.000000
vn 1.000000 0.000000 0.000000
vn 1.000000 0.000000 0.000000
vn 1.000000 0.000000 0.000000
vn 1.000000 0.000000 0.000000
vn 0.000000 0.000000 1.000000
vn 0.000000 0.000000 1.000000
vn 0.000000 0.000000 1.000000
vn 0.000000 0.000000 1.000000
vn -1.000000 0.000000 0.000000
vn -1.000000 0.000000 0.000000
vn -1.000000 0.000000 0.000000
vn -1.000000 0.000000 0.000000
vn 1.000000 0.000000 0.000000
vn 1.000000 0.000000 0.000000
vn 1.000000 0.000000 0.000000
vn 1.000000 0.000000 0.000000
vn 0.000000 0.000000 1.000000
vn 0.000000 0.000000 1.000000
vn 0.000000 0.000000 1.000000
vn 0.000000 0.000000 1.000000
vn 0.000000 -0.924451 0.381301
vn 0.000000 -0.924451 0.381301
vn 0.000000 -0.924451 0.381301
vn 0.000000 -0.924451 0.381301
vn 0.000000 0.000000 1.000000
vn 0.000000 0.000000 1.000000
vn 0.000000 0.000000 1.000000
vn 0.000000 0.000000 1.000000
vn 0.000000 -0.975520 0.219912
vn 0.000000 -0.975520 0.219912
vn 0.000000 -0.975520 0.219912
vn 0.000000 -0.975520 0.219912
vn 0.000000 0.000000 1.000000
vn 0.000000 0.000000 1.000000
vn 0.000000 0.000000 1.000000
vn 0.000000 0.000000 1.000000
vn 0.000000 -0.962807 0.270191
vn 0.000000 -0.962807 0.270191
vn 0.000000 -0.962807 0.270191
vn 0.000000 -0.962807 0.270191
vn 0.000000 0.000000 1.000000
vn 0.000000 0.000000 1.000000
vn 0.000000 0.000000 1.000000
vn 0.000000 0.000000 1.000000
vn 0.000000 -1.000000 0.000000
vn 0.000000 -1.000000 0.000000
vn 0.000000 -1.000000 0.000000
vn 0.000000 -1.000000 0.000000
vn 0.000000 0.000000 -1.000000
vn 0.000000 0.000000 -1.000000
vn 0.000000 0.000000 -1.000000
vn 0.000000 0.000000 -1.000000
vn 0.000000 -0.733135 -0.680083
vn 0.000000 -0.733135 -0.680083
vn 0.000000 -0.733135 -0.680083
vn 0.000000 -0.733135 -0.680083
vn 0.000000 0.000000 -1.000000
vn 0.000000 0.000000 -1.000000
vn 0.000000 0.000000 -1.000000
vn 0.000000 0.000000 -1.000000
vn -0.000000 -0.801856 -0.597517
vn -0.000000 -0.801856 -0.597517
vn -0.000000 -0.801856 -0.597517
vn -0.000000 -0.801856 -0.597517
vn -0.000000 0.000000 -1.000000
vn 0.000000 0.000000 -1.000000
vn 0.000000 0.000000 -1.000000
vn -0.000000 0.000000 -1.000000
vn -0.000000 -0.566588 -0.824002
vn 0.000000 -0.566588 -0.824002
vn 0.000000 -0.566588 -0.824002
vn -0.000000 -0.566588 -0.824002
vn 0.000000 0.000000 -1.000000
vn 0.000000 0.000000 -1.000000
vn 0.000000 0.000000 -1.000000
vn 0.000000 0.000000 -1.000000
vn 0.000000 1.000000 0.000000
vn 0.000000 1.000000 0.000000
vn 0.000000 1.000000 0.000000
vn 0.000000 1.000000 0.000000
vn 0.000000 -0.566588 -0.824002
vn 0.000000 -0.566588 -0.824002
vn 0.000000 -0.566588 -0.824001
vn 0.000000 -0.566588 -0.824001
vn 0.000000 0.000000 -1.000000
vn 0.000000 0.000000 -1.000000
vn 0.000000 0.000000 -1.000000
vn 0.000000 0.000000 -1.000000
vn -0.000000 -0.801856 -0.597517
vn -0.000000 -0.801856 -0.597517
vn 0.000000 -0.801856 -0.597517
vn 0.000000 -0.801856 -0.597517
vn 0.000000 0.000000 -1.000000
vn 0.000000 0.000000 -1.000000
vn 0.000000 0.000000 -1.000000
vn 0.000000 0.000000 -1.000000
vn 0.000000 -0.733135 -0.680083
vn 0.000000 -0.733135 -0.680083
vn 0.000000 -0.733135 -0.680083
vn 0.000000 -0.733135 -0.680083
vn 0.000000 0.000000 -1.000000
vn 0.000000 0.000000 -1.000000
vn 0.000000 0.000000 -1.000000
vn 0.000000 0.000000 -1.000000
vn 0.000000 -1.000000 0.000000
vn 0.000000 -1.000000 0.000000
vn 0.000000 -1.000000 0.000000
vn 0.000000 -1.000000 0.000000
vn 0.000000 0.000000 1.000000
vn 0.000000 0.000000 1.000000
vn 0.000000 0.000000 1.000000
vn 0.000000 0.000000 1.000000
vn 0.000000 -0.962807 0.270191
vn 0.000000 -0.962807 0.270191
vn 0.000000 -0.962807 0.270191
vn 0.000000 -0.962807 0.270191
vn 0.000000 0.000000 1.000000
vn 0.000000 0.000000 1.000000
vn 0.000000 0.000000 1.000000
vn 0.000000 0.000000 1.000000
vn 0.000000 -0.975520 0.219912
vn 0.000000 -0.975520 0.219912
vn 0.000000 -0.975520 0.219912
vn 0.000000 -0.975520 0.219912
vn 0.000000 0.000000 1.000000
vn 0.000000 0.000000 1.000000
vn 0.000000 0.000000 1.000000
vn 0.000000 0.000000 1.000000
vn 0.000000 -0.924451 0.381301
vn 0.000000 -0.924451 0.381301
vn 0.000000 -0.924451 0.381301
vn 0.000000 -0.924451 0.381301
vn 0.000000 0.000000 1.000000
vn 0.000000 0.000000 1.000000
vn 0.000000 0.000000 1.000000
vn 0.000000 0.000000 1.000000
vn 0.000000 0.000000 -1.000000
vn 0.000000 0.000000 -1.000000
vn 0.000000 0.000000 -1.000000
vn 0.000000 0.000000 -1.000000
vn -0.308932 -0.926832 0.213410
vn -0.308932 -0.926832 0.213410
vn -0.308932 -0.926832 0.213410
vn -0.308932 -0.926832 0.213410
vn 0.308932 -0.926832 0.213410
vn 0.308932 -0.926832 0.213410
vn 0.308932 -0.926832 0.213410
vn 0.308932 -0.926832 0.213410
vn -0.805943 0.000000 0.591993
vn -0.805943 0.000000 0.591993
vn -0.805943 0.000000 0.591993
vn -0.805943 0.000000 0.591993
vn 0.000000 -1.000000 0.000000
vn 0.000000 -1.000000 0.000000
vn 0.000000 -1.000000 0.000000
vn 0.000000 -1.000000 0.000000
vn 0.805943 0.000000 0.591993
vn 0.805943 0.000000 0.591993
vn 0.805943 0.000000 0.591993
vn 0.805943 0.000000 0.591993
vn -0.841835 0.000000 0.539735
vn -0.841835 0.000000 0.539735
vn -0.841835 0.000000 0.539735
vn -0.841835 0.000000 0.539735
vn 0.841835 0.000000 0.539735
vn 0.841835 0.000000 0.539735
vn 0.841835 0.000000 0.539735
vn 0.841835 0.000000 0.539735
vn -0.309584 -0.931802 0.189481
vn -0.309584 -0.931802 0.189481
vn -0.309584 -0.931802 0.189481
vn -0.309584 -0.931802 0.189481
vn 0.309583 -0.931802 0.189481
vn 0.309583 -0.931802 0.189481
vn 0.309583 -0.931802 0.189481
vn 0.309583 -0.931802 0.189481
vn -0.498875 -0.825678 0.263399
vn -0.498875 -0.825678 0.263398
vn -0.498875 -0.825678 0.263398
vn -0.498875 -0.825678 0.263399
vn 0.498877 -0.825677 0.263399
vn 0.498877 -0.825677 0.263399
vn 0.498877 -0.825677 0.263399
vn 0.498877 -0.825677 0.263399
vn -0.866324 0.000000 0.499482
vn -0.866324 0.000000 0.499482
vn -0.866324 0.000000 0.499482
vn -0.866324 0.000000 0.499482
vn 0.866324 0.000000 0.499482
vn 0.866324 0.000000 0.499482
vn 0.866324 0.000000 0.499482
vn 0.866324 0.000000 0.499482
vn 0.000000 1.000000 -0.000000
vn 0.000000 1.000000 -0.000000
vn 0.000000 1.000000 -0.000000
vn 0.000000 1.000000 -0.000000
vn -0.904259 0.000000 0.426984
vn -0.904259 0.000000 0.426984
vn -0.904259 0.000000 0.426984
vn -0.904259 0.000000 0.426984
vn 0.904259 0.000000 0.426984
vn 0.904259 0.000000 0.426984
vn 0.904259 0.000000 0.426984
vn 0.904259 0.000000 0.426984
s off
f 57/116/1 58/117/2 59/118/3 60/119/4
f 50/105/5 42/92/6 43/93/7
f 11/2/8 12/17/9 16/18/10 13/3/11
f 9/19/12 10/1/13 14/4/14 15/20/15
f 7/13/16 1/16/17 10/21/18 9/22/19
f 59/123/20 58/120/21 61/121/22 62/122/23
f 2/15/24 8/14/25 12/24/26 11/23/27
f 63/124/28 57/116/29 60/119/30 64/125/31
f 15/20/32 14/4/33 18/60/34 19/51/35
f 13/3/36 16/18/37 20/30/38 17/25/39
f 65/126/40 63/127/41 64/128/42 66/129/43
f 19/27/44 18/26/45 22/48/46 23/44/47
f 17/58/48 20/50/49 24/40/50 21/31/51
f 67/130/52 68/131/53 69/132/54 70/133/55
f 27/65/56 28/67/57 32/75/58 33/77/59
f 29/70/60 30/72/61 34/80/62 31/74/63
f 35/81/64 25/63/65 26/64/66
f 35/104/67 26/64/68 4/55/69 6/7/70
f 23/33/71 22/32/72 28/67/73 27/65/74
f 69/132/75 68/131/76 65/134/77 66/135/78
f 21/43/79 24/36/80 30/72/81 29/70/82
f 72/136/83 71/137/84 67/130/85 70/133/86
f 33/77/87 32/75/88 3/5/89 5/37/90
f 31/74/91 34/80/92 6/38/93 4/56/94
f 32/76/95 36/83/96 25/82/97 3/54/98
f 28/68/99 37/84/100 36/83/101 32/76/102
f 22/46/103 38/86/104 37/84/105 28/68/106
f 18/59/107 39/88/108 38/85/109 22/47/110
f 14/4/111 40/89/112 39/87/113 18/60/114
f 10/1/115 41/90/116 40/89/117 14/4/118
f 1/16/119 42/92/120 41/91/121 10/21/122
f 7/13/123 43/93/124 42/92/125 1/16/126
f 9/22/127 44/95/128 43/93/129 7/13/130
f 15/9/131 45/96/132 44/94/133 9/12/134
f 19/28/135 46/97/136 45/96/137 15/9/138
f 23/45/139 47/99/140 46/98/141 19/52/142
f 27/66/143 48/101/144 47/100/145 23/34/146
f 33/78/147 49/102/148 48/101/149 27/66/150
f 5/8/151 35/103/152 49/102/153 33/78/154
f 25/63/155 35/104/156 5/62/157 3/53/158
f 48/101/159 49/102/160 34/79/161 30/71/162
f 47/100/163 48/101/164 30/71/165 24/35/166
f 46/98/167 47/99/168 24/39/169 20/29/170
f 45/96/171 46/97/172 20/49/173 16/10/174
f 44/94/175 45/96/176 16/10/177 12/11/178
f 43/93/179 44/95/180 12/24/181 8/14/182
f 50/105/183 43/93/184 8/14/185 2/15/186
f 51/107/187 50/105/188 2/15/189 11/23/190
f 52/108/191 51/106/192 11/2/193 13/3/194
f 53/109/195 52/108/196 13/3/197 17/25/198
f 54/111/199 53/110/200 17/57/201 21/41/202
f 55/113/203 54/112/204 21/42/205 29/69/206
f 56/114/207 55/113/208 29/69/209 31/73/210
f 26/115/211 56/114/212 31/73/213 4/6/214
f 49/102/215 35/103/216 6/61/217 34/79/218
f 40/89/219 41/90/220 58/117/221 57/116/222
f 51/106/223 52/108/224 60/119/225 59/118/226
f 41/91/227 42/92/228 61/121/229 58/120/230
f 42/92/231 50/105/232 62/122/233 61/121/234
f 50/105/235 51/107/236 59/123/237 62/122/238
f 39/87/239 40/89/240 57/116/241 63/124/242
f 52/108/243 53/109/244 64/125/245 60/119/246
f 38/85/247 39/88/248 63/127/249 65/126/250
f 53/110/251 54/111/252 66/129/253 64/128/254
f 36/83/255 37/84/256 68/131/257 67/130/258
f 55/113/259 56/114/260 70/133/261 69/132/262
f 37/84/263 38/86/264 65/134/265 68/131/266
f 54/112/267 55/113/268 69/132/269 66/135/270
f 26/115/271 25/82/272 71/137/273 72/136/274
f 25/82/275 36/83/276 67/130/277 71/137/278
f 56/114/279 26/115/280 72/136/281 70/133/282
