# This file uses centimeters as units for non-parametric coordinates.

v 2.362595 -0.263630 1.721606
v 2.445343 -0.263630 1.721606
v 2.362595 1.085557 -1.750265
v 2.445343 1.085557 -1.750265
v 2.362595 1.009008 -1.750265
v 2.445343 1.009008 -1.750265
v 2.362595 -0.315537 1.641010
v 2.445343 -0.315537 1.641010
v -2.440430 -0.263630 1.721606
v -2.357712 -0.263630 1.721606
v -2.440430 1.085557 -1.750265
v -2.357712 1.085557 -1.750265
v -2.440430 1.009008 -1.750265
v -2.357712 1.009008 -1.750265
v -2.440430 -0.315537 1.641010
v -2.357712 -0.315537 1.641010
v -2.500000 -0.672641 1.750265
v 2.500000 -0.672641 1.750265
v -2.500000 -0.263630 1.750265
v 2.500000 -0.263630 1.750265
v -2.500000 -0.263630 -1.701564
v 2.500000 -0.263630 -1.701564
v -2.500000 -0.672641 -1.701564
v 2.500000 -0.672641 -1.701564
v -2.352432 -0.263630 1.596164
v 2.352432 -0.263630 1.596164
v 2.352432 -0.263630 -1.701564
v -2.352432 -0.263630 -1.701564
v -2.352432 -0.415817 1.596164
v 2.352432 -0.415817 1.596164
v -1.664764 0.216475 -1.242987
v 1.664764 0.216475 -1.242987
v 1.664764 0.216475 -1.701564
v -1.664764 0.216475 -1.701564
v -2.314133 -0.672641 -1.080071
v 2.314133 -0.672641 -1.080071
v 2.314133 -0.672641 1.632805
v -2.314133 -0.672641 1.632805
v -1.614014 -0.137102 -1.080071
v 1.614014 -0.137102 -1.080071
v 1.614014 -0.137102 -0.894304
v -1.614014 -0.137102 -0.894304
v 0.000000 -0.415817 1.596164
v 0.000000 0.216475 -1.242987
v 0.000000 0.216475 -1.701564
v -1.664764 -0.415816 1.596164
v 1.664764 -0.415817 1.596164
v -0.832382 -0.415817 1.596164
v -0.832382 0.216475 -1.242987
v -0.832382 0.216475 -1.701564
v 0.832382 0.216475 -1.701564
v 0.832382 0.216475 -1.242987
v 0.832382 -0.415817 1.596164
v -1.248581 0.071525 -1.701564
v -1.248581 0.071525 -1.242987
v -1.248581 -0.415817 1.596164
v -0.416183 -0.415817 1.596164
v -0.416183 0.071525 -1.242987
v -0.416183 0.071525 -1.701564
v 0.416183 0.071525 -1.701564
v 0.416183 0.071525 -1.242987
v 0.416183 -0.415817 1.596164
v 1.248581 -0.415817 1.596164
v 1.248581 0.071525 -1.242987
v 1.248581 0.071525 -1.701564
v -1.990601 -0.672641 1.750265
v -1.258347 -0.672641 1.750265
v -1.576675 -0.672641 1.632805
v -1.575912 -0.560883 1.750264
v 0.664841 -0.263630 1.750265
v 1.072556 -0.263630 1.750265
v 0.876556 -0.263630 1.685449
v 1.080551 -0.263630 1.746748
v 0.897232 -0.355449 1.750264
v -2.500000 -0.263630 0.339596
v -2.500000 -0.263630 -0.522647
v -2.421066 -0.263630 -0.117986
v -2.500000 -0.312185 -0.192771
vt 0.112686 0.276289
vt 0.112686 0.276289
vt 0.112686 0.276289
vt 0.112686 0.276289
vt 0.112686 0.276289
vt 0.112686 0.276289
vt 0.112686 0.276289
vt 0.112686 0.276289
vt 0.112686 0.276289
vt 0.112686 0.276289
vt 0.112686 0.276289
vt 0.112686 0.276289
vt 0.112686 0.276289
vt 0.112686 0.276289
vt 0.112686 0.276289
vt 0.112686 0.276289
vt 0.133743 0.301127
vt 0.133743 0.301127
vt 0.133743 0.301127
vt 0.133743 0.301127
vt 0.133592 0.299953
vt 0.133592 0.299953
vt 0.133592 0.299953
vt 0.133592 0.299953
vt 0.069035 0.252523
vt 0.069035 0.252523
vt 0.069035 0.252523
vt 0.069035 0.252523
vt 0.133592 0.299953
vt 0.133743 0.301127
vt 0.133743 0.301127
vt 0.133743 0.301127
vt 0.069035 0.252523
vt 0.069035 0.252523
vt 0.069035 0.252523
vt 0.069035 0.252523
vt 0.069035 0.252523
vt 0.069035 0.252523
vt 0.069035 0.252523
vt 0.069035 0.252523
vt 0.069035 0.252523
vt 0.069035 0.252523
vt 0.133592 0.299953
vt 0.133592 0.299953
vt 0.133592 0.299953
vt 0.133592 0.299953
vt 0.133592 0.299953
vt 0.133592 0.299953
vt 0.133592 0.299953
vt 0.133592 0.299953
vt 0.133592 0.299953
vt 0.133592 0.299953
vt 0.133592 0.299953
vt 0.069035 0.252523
vt 0.133592 0.299953
vt 0.133592 0.299953
vt 0.069035 0.252523
vt 0.133592 0.299953
vt 0.069035 0.252523
vt 0.133592 0.299953
vt 0.069035 0.252523
vt 0.133592 0.299953
vt 0.133592 0.299953
vt 0.133592 0.299953
vt 0.133592 0.299953
vt 0.133743 0.301127
vt 0.133592 0.299953
vt 0.069035 0.252523
vt 0.133743 0.301127
vt 0.133592 0.299953
vt 0.133743 0.301127
vt 0.133592 0.299953
vt 0.069035 0.252523
vt 0.133592 0.299953
vt 0.069035 0.252523
vt 0.133592 0.299953
vt 0.069035 0.252523
vt 0.133743 0.301127
vt 0.133592 0.299953
vt 0.133743 0.301127
vt 0.133743 0.301127
vt 0.133743 0.301127
vt 0.133592 0.299953
vt 0.133592 0.299953
vt 0.069035 0.252523
vt 0.133743 0.301127
vt 0.133743 0.301127
vt 0.133592 0.299953
vt 0.133592 0.299953
vt 0.069035 0.252523
vt 0.133592 0.299953
vt 0.069035 0.252523
vt 0.133743 0.301127
vt 0.133592 0.299953
vt 0.133743 0.301127
vt 0.133743 0.301127
vt 0.133743 0.301127
vt 0.133592 0.299953
vt 0.133592 0.299953
vt 0.069035 0.252523
vt 0.133592 0.299953
vt 0.069035 0.252523
vt 0.133743 0.301127
vt 0.133592 0.299953
vt 0.133743 0.301127
vt 0.069035 0.252523
vt 0.069035 0.252523
vt 0.069035 0.252523
vt 0.133592 0.299953
vt 0.069035 0.252523
vt 0.069035 0.252523
vt 0.069035 0.252523
vt 0.069035 0.252523
vt 0.069035 0.252523
vt 0.069035 0.252523
vt 0.069035 0.252523
vt 0.069035 0.252523
vt 0.069035 0.252523
vt 0.069035 0.252523
vn 0.000000 0.932094 0.362217
vn 0.000000 0.932094 0.362217
vn 0.000000 0.932094 0.362217
vn 0.000000 0.932094 0.362217
vn 0.000000 -0.931473 -0.363810
vn 0.000000 -0.931473 -0.363810
vn 0.000000 -0.931473 -0.363810
vn 0.000000 -0.931473 -0.363810
vn 1.000000 0.000000 0.000000
vn 1.000000 0.000000 0.000000
vn 1.000000 0.000000 0.000000
vn 1.000000 0.000000 0.000000
vn -1.000000 0.000000 0.000000
vn -1.000000 0.000000 0.000000
vn -1.000000 0.000000 0.000000
vn -1.000000 0.000000 0.000000
vn 0.000000 0.932094 0.362217
vn 0.000000 0.932094 0.362217
vn 0.000000 0.932094 0.362217
vn 0.000000 0.932094 0.362217
vn 0.000000 -0.931473 -0.363810
vn 0.000000 -0.931473 -0.363810
vn 0.000000 -0.931473 -0.363810
vn 0.000000 -0.931473 -0.363810
vn 1.000000 0.000000 0.000000
vn 1.000000 0.000000 0.000000
vn 1.000000 0.000000 0.000000
vn 1.000000 0.000000 0.000000
vn -1.000000 0.000000 0.000000
vn -1.000000 0.000000 0.000000
vn -1.000000 0.000000 0.000000
vn -1.000000 0.000000 0.000000
vn 0.000000 -0.000001 1.000000
vn -0.000000 0.000002 1.000000
vn 0.000000 -0.000002 1.000000
vn 0.000000 -0.000001 1.000000
vn -0.328896 0.944366 0.000000
vn -0.328896 0.944366 0.000000
vn -0.328896 0.944366 0.000000
vn -0.328896 0.944366 0.000000
vn 0.000000 -1.000000 0.000000
vn 0.000000 -1.000000 0.000000
vn 0.000000 -1.000000 0.000000
vn 0.000000 -1.000000 0.000000
vn 1.000000 0.000000 0.000000
vn 1.000000 0.000000 0.000000
vn 1.000000 0.000000 0.000000
vn 1.000000 0.000000 0.000000
vn -1.000000 0.000000 0.000000
vn -1.000000 -0.000000 0.000000
vn -1.000000 0.000000 0.000000
vn -1.000000 0.000000 0.000000
vn 0.000000 1.000000 -0.000001
vn -0.000000 1.000000 0.000002
vn -0.000000 1.000000 -0.000001
vn 0.000000 1.000000 0.000000
vn 0.000000 1.000000 0.000000
vn 0.000000 1.000000 0.000000
vn 0.000000 1.000000 0.000000
vn 0.000001 1.000000 0.000000
vn -0.000003 1.000000 0.000000
vn 0.000001 1.000000 -0.000000
vn 0.000000 0.000000 -1.000000
vn 0.000000 0.000000 -1.000000
vn 0.000000 0.000000 -1.000000
vn 0.000000 0.000000 -1.000000
vn 0.000000 0.000000 -1.000000
vn 0.000000 0.000000 -1.000000
vn 0.000000 0.000000 -1.000000
vn 0.000000 0.000000 -1.000000
vn 0.000000 0.000000 -1.000000
vn 0.000000 0.000000 -1.000000
vn 0.000000 0.000000 -1.000000
vn 0.000000 0.000000 -1.000000
vn 0.000000 0.000000 -1.000000
vn -1.000000 0.000000 0.000000
vn -1.000000 0.000000 0.000000
vn -1.000000 0.000000 0.000000
vn 1.000000 0.000000 0.000000
vn 1.000000 0.000000 0.000000
vn 1.000000 0.000000 0.000000
vn -0.321855 0.924149 0.205812
vn -0.321855 0.924149 0.205812
vn -0.321855 0.924149 0.205812
vn 0.586749 0.809105 0.032781
vn 0.586749 0.809105 0.032781
vn 0.586749 0.809105 0.032781
vn 0.586749 0.809105 0.032781
vn -0.586749 0.809105 0.032781
vn -0.586749 0.809105 0.032781
vn -0.586749 0.809105 0.032781
vn -0.586749 0.809105 0.032781
vn 0.000000 -1.000000 0.000000
vn 0.000000 -1.000000 0.000000
vn 0.000000 -1.000000 0.000000
vn 0.000000 -1.000000 0.000000
vn 0.000000 -1.000000 0.000000
vn 0.000000 -1.000000 0.000000
vn 0.000000 -1.000000 0.000000
vn 0.000000 -1.000000 0.000000
vn 0.000000 -1.000000 -0.000000
vn 0.000000 -1.000000 -0.000000
vn 0.000000 -1.000000 -0.000000
vn 0.000000 -1.000000 -0.000000
vn 0.000000 -1.000000 0.000000
vn 0.000000 -1.000000 0.000000
vn 0.000000 -1.000000 0.000000
vn 0.000000 -1.000000 0.000000
vn 0.000000 0.000000 1.000000
vn 0.000000 0.000000 1.000000
vn 0.000000 0.000000 1.000000
vn 0.000000 0.000000 1.000000
vn -0.607560 -0.794274 0.000000
vn -0.607560 -0.794274 0.000000
vn -0.607560 -0.794274 0.000000
vn -0.607560 -0.794274 0.000000
vn 0.000000 -0.978275 -0.207313
vn 0.000000 -0.978275 -0.207313
vn 0.000000 -0.978275 -0.207313
vn 0.607560 -0.794274 0.000000
vn 0.607560 -0.794274 0.000000
vn 0.607560 -0.794274 0.000000
vn 0.607560 -0.794274 0.000000
vn 0.321855 0.924149 0.205812
vn 0.321855 0.924149 0.205812
vn 0.321855 0.924149 0.205812
vn 0.328896 0.944366 0.000000
vn 0.328896 0.944366 0.000000
vn 0.328896 0.944366 0.000000
vn 0.328896 0.944366 0.000000
vn -0.000000 0.976087 0.217379
vn -0.000000 0.976087 0.217379
vn -0.000000 0.976087 0.217379
vn 0.000000 0.976087 0.217379
vn 0.000000 0.976087 0.217379
vn 0.000000 0.976087 0.217379
vn 0.321855 0.924149 0.205812
vn 0.321855 0.924149 0.205812
vn 0.321855 0.924149 0.205812
vn 0.328896 0.944366 0.000000
vn 0.328896 0.944366 0.000000
vn 0.328896 0.944366 0.000000
vn 0.328896 0.944366 0.000000
vn -0.328896 0.944366 0.000000
vn -0.328896 0.944366 0.000000
vn -0.328896 0.944366 0.000000
vn -0.328896 0.944366 0.000000
vn -0.321855 0.924149 0.205812
vn -0.321855 0.924149 0.205812
vn -0.321855 0.924149 0.205812
vn 0.328907 0.944363 0.000000
vn 0.328907 0.944363 0.000000
vn 0.328907 0.944363 0.000000
vn 0.328907 0.944363 0.000000
vn 0.321865 0.924145 0.205811
vn 0.321865 0.924145 0.205811
vn 0.321865 0.924145 0.205811
vn -0.321865 0.924145 0.205811
vn -0.321865 0.924145 0.205811
vn -0.321865 0.924145 0.205811
vn -0.328907 0.944363 0.000000
vn -0.328907 0.944363 0.000000
vn -0.328907 0.944363 0.000000
vn -0.328907 0.944363 0.000000
vn 0.328907 0.944363 0.000000
vn 0.328907 0.944363 0.000000
vn 0.328907 0.944363 0.000000
vn 0.328907 0.944363 0.000000
vn 0.321865 0.924145 0.205811
vn 0.321865 0.924145 0.205811
vn 0.321865 0.924145 0.205811
vn -0.321865 0.924145 0.205811
vn -0.321865 0.924145 0.205811
vn -0.321865 0.924145 0.205811
vn -0.328907 0.944363 0.000000
vn -0.328907 0.944363 0.000000
vn -0.328907 0.944363 0.000000
vn -0.328907 0.944363 0.000000
vn 0.000001 0.985586 0.169176
vn 0.000001 0.985586 0.169176
vn 0.000001 0.985586 0.169176
vn 0.000000 0.985586 0.169176
vn 0.000000 0.985586 0.169176
vn 0.000000 0.985586 0.169176
vn 0.000000 0.985586 0.169176
vn 0.000000 0.985586 0.169176
vn 0.000000 0.985586 0.169176
vn 0.000000 0.985586 0.169176
vn 0.000000 0.985586 0.169176
vn 0.000000 0.985586 0.169176
vn 0.000000 0.985586 0.169176
vn 0.000000 0.985586 0.169176
vn 0.000000 0.985586 0.169176
vn 0.000000 0.985586 0.169176
vn 0.000000 0.985586 0.169176
vn 0.000000 0.985586 0.169176
vn 0.000000 0.985586 0.169176
vn 0.000000 0.985586 0.169176
vn 0.000000 0.985586 0.169176
vn 0.000000 0.985586 0.169176
vn 0.000000 0.985586 0.169176
vn 0.000000 0.985586 0.169176
vn -0.000000 -1.000000 -0.000002
vn -0.000000 -1.000000 -0.000002
vn -0.000000 -1.000000 -0.000002
vn -0.000000 -1.000000 -0.000002
vn 0.191787 -0.711644 0.675855
vn 0.191787 -0.711644 0.675855
vn 0.191787 -0.711644 0.675855
vn -0.246789 -0.701262 0.668825
vn -0.246789 -0.701262 0.668825
vn -0.246789 -0.701262 0.668825
vn 0.235211 0.595307 0.768300
vn 0.235211 0.595307 0.768300
vn 0.235211 0.595307 0.768300
vn -0.261657 0.552701 0.791238
vn -0.261657 0.552701 0.791238
vn -0.261657 0.552701 0.791238
vn -0.261657 0.552701 0.791238
vn -0.598229 0.792783 0.116692
vn -0.598229 0.792783 0.116692
vn -0.598229 0.792783 0.116692
vn -0.465903 0.881178 -0.080370
vn -0.465903 0.881178 -0.080370
vn -0.465903 0.881178 -0.080370
vn 0.000001 1.000000 0.000000
vn 0.000001 1.000000 0.000000
vn -0.000003 1.000000 0.000000
vn 0.000001 1.000000 0.000000
vn 0.000001 1.000000 -0.000000
vn -0.000003 1.000000 0.000000
vn 0.000001 1.000000 -0.000000
vn 0.000001 1.000000 -0.000000
vn -1.000000 -0.000000 0.000000
vn -1.000000 -0.000000 0.000000
vn -1.000000 -0.000001 0.000000
vn -1.000000 -0.000001 0.000000
vn -1.000000 0.000000 0.000000
vn -1.000000 -0.000000 0.000000
vn -1.000000 -0.000000 0.000000
vn 0.000000 -0.000001 1.000000
vn 0.000000 -0.000001 1.000000
vn 0.000000 0.000001 1.000000
vn 0.000000 0.000001 1.000000
vn -0.000000 0.000002 1.000000
vn -0.000000 0.000000 1.000000
vn -0.000000 -0.000001 1.000000
vn -0.000000 -0.000001 1.000000
vn -0.000000 0.000003 1.000000
vn -0.000000 0.000000 1.000000
vn -0.000000 0.000002 1.000000
vn 0.000000 -0.000001 1.000000
vn 0.000000 1.000000 -0.000001
vn 0.000000 1.000000 -0.000001
vn -0.000000 1.000000 0.000002
vn 0.000000 1.000000 -0.000001
vn -0.000000 1.000000 -0.000001
vn -0.000000 1.000000 0.000002
vn -0.000000 1.000000 -0.000001
vn -0.000000 1.000000 -0.000001
vn -0.000000 1.000000 -0.000001
vn 0.000000 -0.978275 -0.207313
vn 0.000000 -0.978275 -0.207313
vn 0.000000 -0.978275 -0.207313
vn 0.000000 -0.978275 -0.207313
vn 0.000000 -0.978275 -0.207313
vn 0.000000 -0.978275 -0.207313
s off
f 1/1/1 2/2/2 4/3/3 3/4/4
f 5/5/5 6/6/6 8/7/7 7/8/8
f 2/2/9 8/7/10 6/6/11 4/3/12
f 7/8/13 1/1/14 3/4/15 5/5/16
f 9/9/17 10/10/18 12/11/19 11/12/20
f 13/13/21 14/14/22 16/15/23 15/16/24
f 10/10/25 16/15/26 14/14/27 12/11/28
f 15/16/29 9/9/30 11/12/31 13/13/32
f 69/110/33 74/115/34 70/111/35 19/28/36
f 54/86/37 55/87/38 49/78/39 50/80/40
f 39/21/41 40/22/42 41/23/43 42/24/44
f 18/26/45 24/33/46 22/34/47 20/27/48
f 23/35/49 78/119/50 76/117/51 21/36/52
f 25/38/53 72/113/54 26/37/55
f 20/27/56 22/34/57 27/39/58 26/37/59
f 28/40/60 77/118/61 25/38/62
f 25/38/63 26/37/64 30/41/65 47/75/66 63/102/67 53/85/68 62/100/69 43/68/70 57/92/71 48/77/72 56/90/73 46/73/74 29/42/75
f 26/37/76 27/39/77 30/41/78
f 28/40/79 25/38/80 29/42/81
f 55/88/82 48/76/83 49/79/84
f 30/30/85 27/31/86 33/19/87 32/18/88
f 28/32/89 29/66/90 31/17/91 34/20/92
f 23/35/93 24/33/94 36/59/95 35/61/96
f 24/33/97 18/26/98 37/57/99 36/59/100
f 18/26/101 67/107/102 68/108/103 37/57/104
f 17/25/105 23/35/106 35/61/107 38/54/108
f 35/44/109 36/60/110 40/56/111 39/48/112
f 36/43/113 37/58/114 41/53/115 40/47/116
f 41/49/117 68/109/118 42/52/119
f 38/46/120 35/62/121 39/51/122 42/50/123
f 52/83/124 53/84/125 64/104/126
f 51/81/127 52/82/128 64/103/129 65/105/130
f 29/29/131 46/72/132 31/63/133
f 32/64/134 47/74/135 30/65/136
f 49/79/137 48/76/138 58/94/139
f 50/80/140 49/78/141 58/93/142 59/95/143
f 60/96/144 61/97/145 52/82/146 51/81/147
f 61/98/148 53/84/149 52/83/150
f 34/20/151 31/17/152 55/87/153 54/86/154
f 31/63/155 46/72/156 55/88/157
f 58/94/158 43/67/159 44/70/160
f 59/95/161 58/93/162 44/69/163 45/71/164
f 45/71/165 44/69/166 61/97/167 60/96/168
f 44/70/169 43/67/170 61/98/171
f 64/104/172 47/74/173 32/64/174
f 65/105/175 64/103/176 32/18/177 33/19/178
f 55/88/179 46/72/180 56/89/181
f 55/88/182 56/89/183 48/76/184
f 58/94/185 48/76/186 57/91/187
f 58/94/188 57/91/189 43/67/190
f 61/98/191 43/67/192 62/99/193
f 61/98/194 62/99/195 53/84/196
f 64/104/197 53/84/198 63/101/199
f 64/104/200 63/101/201 47/74/202
f 68/108/203 66/106/204 17/25/205 38/54/206
f 68/108/207 69/110/208 66/106/209
f 68/108/210 67/107/211 69/110/212
f 74/115/213 72/113/214 70/111/215
f 71/112/216 73/114/217 72/113/218 74/115/219
f 76/117/220 78/119/221 77/118/222
f 77/118/223 78/119/224 75/116/225
f 21/36/226 76/117/227 77/118/228 28/40/229
f 25/38/230 77/118/231 75/116/232 19/28/233
f 78/119/234 17/25/235 19/28/236 75/116/237
f 23/35/238 17/25/239 78/119/240
f 69/110/241 19/28/242 17/25/243 66/106/244
f 74/115/245 18/26/246 20/27/247 71/112/248
f 67/107/249 18/26/250 74/115/251 69/110/252
f 19/28/253 70/111/254 72/113/255 25/38/256
f 26/37/257 72/113/258 73/114/259 71/112/260 20/27/261
f 37/45/262 68/109/263 41/49/264
f 42/52/265 68/109/266 38/55/267
