# This file uses centimeters as units for non-parametric coordinates.

v 1.905075 0.136928 0.235679
v 2.094925 0.136928 0.235679
v 1.905075 0.269960 0.292038
v 2.094925 0.269960 0.292038
v 1.905075 0.269960 0.020749
v 2.094925 0.269960 0.020749
v 1.905075 0.027393 0.020749
v 2.094925 0.027393 0.020749
v 1.405075 0.136928 0.235679
v 1.594925 0.136928 0.235679
v 1.405075 0.269960 0.292038
v 1.594925 0.269960 0.292038
v 1.405075 0.269960 0.020749
v 1.594925 0.269960 0.020749
v 1.405075 0.027393 0.020749
v 1.594925 0.027393 0.020749
v 0.905075 0.136928 0.235679
v 1.094925 0.136928 0.235679
v 0.905075 0.269960 0.292038
v 1.094925 0.269960 0.292038
v 0.905075 0.269960 0.020749
v 1.094925 0.269960 0.020749
v 0.905075 0.027393 0.020749
v 1.094925 0.027393 0.020749
v 0.405075 0.136928 0.235679
v 0.594925 0.136928 0.235679
v 0.405075 0.269960 0.292038
v 0.594925 0.269960 0.292038
v 0.405075 0.269960 0.020749
v 0.594925 0.269960 0.020749
v 0.405075 0.027393 0.020749
v 0.594925 0.027393 0.020749
v 4.405075 0.136928 0.235679
v 4.594925 0.136928 0.235679
v 4.405075 0.269960 0.292038
v 4.594925 0.269960 0.292038
v 4.405075 0.269960 0.020749
v 4.594925 0.269960 0.020749
v 4.405075 0.027393 0.020749
v 4.594925 0.027393 0.020749
v 3.905075 0.136928 0.235679
v 4.094925 0.136928 0.235679
v 3.905075 0.269960 0.292038
v 4.094925 0.269960 0.292038
v 3.905075 0.269960 0.020749
v 4.094925 0.269960 0.020749
v 3.905075 0.027393 0.020749
v 4.094925 0.027393 0.020749
v 3.405075 0.136928 0.235679
v 3.594925 0.136928 0.235679
v 3.405075 0.269960 0.292038
v 3.594925 0.269960 0.292038
v 3.405075 0.269960 0.020749
v 3.594925 0.269960 0.020749
v 3.405075 0.027393 0.020749
v 3.594925 0.027393 0.020749
v 2.905075 0.136928 0.235679
v 3.094925 0.136928 0.235679
v 2.905075 0.269960 0.292038
v 3.094925 0.269960 0.292038
v 2.905075 0.269960 0.020749
v 3.094925 0.269960 0.020749
v 2.905075 0.027393 0.020749
v 3.094925 0.027393 0.020749
v 2.405075 0.136928 0.235679
v 2.594925 0.136928 0.235679
v 2.405075 0.269960 0.292038
v 2.594925 0.269960 0.292038
v 2.405075 0.269960 0.020749
v 2.594925 0.269960 0.020749
v 2.405075 0.027393 0.020749
v 2.594925 0.027393 0.020749
v -0.011444 0.000000 0.050776
v 5.011444 0.000000 0.050776
v -0.126102 0.499867 0.336030
v 5.126102 0.499867 0.336030
v -0.126102 0.499867 -5.152069
v 5.126102 0.499867 -5.152069
v -0.011444 0.000000 -5.056689
v 5.011444 0.000000 -5.056689
v -0.011444 0.094920 -5.056689
v -0.011444 0.094920 0.050776
v 5.011444 0.094920 0.050776
v 5.011444 0.094920 -5.056689
v 5.066565 0.132862 0.155952
v -0.066565 0.132862 0.155952
v -0.066565 0.132862 -5.097591
v 5.066565 0.132862 -5.097591
v 5.066565 0.229365 0.155952
v -0.066565 0.229365 0.155952
v -0.066565 0.229365 -5.097591
v 5.066565 0.229365 -5.097591
v 5.126102 0.269960 0.336030
v -0.126102 0.269960 0.336030
v -0.126102 0.269960 -5.152069
v 5.126102 0.269960 -5.152069
v 0.000000 0.499867 0.213519
v 5.000000 0.499867 0.213519
v 5.000000 0.499867 -0.052369
v 0.000000 0.499867 -0.052369
v -0.026413 0.743541 0.242642
v 5.026415 0.743541 0.242642
v 5.026415 0.743541 -0.081493
v -0.026413 0.743541 -0.081493
v -0.026413 0.692281 -0.081493
v -0.026413 0.692281 0.242643
v 5.026415 0.692281 0.242643
v 5.026415 0.692281 -0.081493
v 0.000000 0.558852 -0.052369
v 0.000000 0.558852 0.213519
v 5.000000 0.558852 0.213519
v 5.000000 0.558852 -0.052369
v 0.029161 0.574672 -0.022730
v 0.029161 0.574672 0.183881
v 0.029161 0.676460 0.183881
v 0.029161 0.676460 -0.022731
v 4.970839 0.574672 0.183881
v 4.970839 0.676460 0.183881
v 4.970839 0.574672 -0.022730
v 4.970839 0.676460 -0.022731
vt 0.037983 0.325693
vt 0.037983 0.325693
vt 0.037983 0.325693
vt 0.037983 0.325693
vt 0.037983 0.325693
vt 0.037983 0.325693
vt 0.037983 0.325693
vt 0.037983 0.325693
vt 0.037983 0.325693
vt 0.037983 0.325693
vt 0.037983 0.325693
vt 0.037983 0.325693
vt 0.037983 0.325693
vt 0.037983 0.325693
vt 0.037983 0.325693
vt 0.037983 0.325693
vt 0.037983 0.325693
vt 0.037983 0.325693
vt 0.037983 0.325693
vt 0.037983 0.325693
vt 0.037983 0.325693
vt 0.037983 0.325693
vt 0.037983 0.325693
vt 0.037983 0.325693
vt 0.037983 0.325693
vt 0.037983 0.325693
vt 0.037983 0.325693
vt 0.037983 0.325693
vt 0.037983 0.325693
vt 0.037983 0.325693
vt 0.037983 0.325693
vt 0.037983 0.325693
vt 0.037983 0.325693
vt 0.037983 0.325693
vt 0.037983 0.325693
vt 0.037983 0.325693
vt 0.037983 0.325693
vt 0.037983 0.325693
vt 0.037983 0.325693
vt 0.037983 0.325693
vt 0.037983 0.325693
vt 0.037983 0.325693
vt 0.037983 0.325693
vt 0.037983 0.325693
vt 0.037983 0.325693
vt 0.037983 0.325693
vt 0.037983 0.325693
vt 0.037983 0.325693
vt 0.037983 0.325693
vt 0.037983 0.325693
vt 0.037983 0.325693
vt 0.037983 0.325693
vt 0.037983 0.325693
vt 0.037983 0.325693
vt 0.037983 0.325693
vt 0.037983 0.325693
vt 0.037983 0.325693
vt 0.037983 0.325693
vt 0.037983 0.325693
vt 0.037983 0.325693
vt 0.037983 0.325693
vt 0.037983 0.325693
vt 0.037983 0.325693
vt 0.037983 0.325693
vt 0.037983 0.325693
vt 0.037983 0.325693
vt 0.037983 0.325693
vt 0.037983 0.325693
vt 0.037983 0.325693
vt 0.037983 0.325693
vt 0.037983 0.325693
vt 0.037983 0.325693
vt 0.037983 0.325693
vt 0.037983 0.325693
vt 0.037983 0.325693
vt 0.037983 0.325693
vt 0.037983 0.325693
vt 0.037983 0.325693
vt 0.037983 0.325693
vt 0.037983 0.325693
vt 0.037983 0.325693
vt 0.037983 0.325693
vt 0.037983 0.325693
vt 0.037983 0.325693
vt 0.037983 0.325693
vt 0.037983 0.325693
vt 0.037983 0.325693
vt 0.037983 0.325693
vt 0.037983 0.325693
vt 0.037983 0.325693
vt 0.037983 0.325693
vt 0.037983 0.325693
vt 0.037983 0.325693
vt 0.037983 0.325693
vt 0.037983 0.325693
vt 0.037983 0.325693
vt 0.037983 0.325693
vt 0.037983 0.325693
vt 0.037983 0.325693
vt 0.037983 0.325693
vt 0.037983 0.325693
vt 0.037983 0.325693
vt 0.037983 0.325693
vt 0.037983 0.325693
vt 0.037983 0.325693
vt 0.037983 0.325693
vt 0.037983 0.325693
vt 0.037983 0.325693
vt 0.037983 0.325693
vt 0.037983 0.325693
vt 0.037983 0.325693
vt 0.037983 0.325693
vt 0.100260 0.263232
vt 0.100260 0.263232
vt 0.100260 0.263232
vt 0.100260 0.263232
vt 0.037983 0.325693
vt 0.037983 0.325693
vt 0.037983 0.325693
vt 0.037983 0.325693
vt 0.198054 0.252221
vt 0.198054 0.252221
vt 0.198054 0.252221
vt 0.198054 0.252221
vt 0.037983 0.325693
vt 0.037983 0.325693
vt 0.037983 0.325693
vt 0.037983 0.325693
vt 0.198054 0.252221
vt 0.198054 0.252221
vt 0.198054 0.252221
vt 0.198054 0.252221
vt 0.037983 0.325693
vt 0.100260 0.263232
vt 0.100260 0.263232
vt 0.037983 0.325693
vt 0.100260 0.263232
vt 0.037983 0.325693
vt 0.100260 0.263232
vt 0.100260 0.263232
vt 0.100260 0.263232
vt 0.100260 0.263232
vt 0.100260 0.263232
vt 0.100260 0.263232
vt 0.100260 0.263232
vt 0.100260 0.263232
vt 0.100260 0.263232
vt 0.100260 0.263232
vt 0.100260 0.263232
vt 0.100260 0.263232
vt 0.100260 0.263232
vt 0.100260 0.263232
vt 0.100260 0.263232
vt 0.100260 0.263232
vt 0.100260 0.263232
vt 0.100260 0.263232
vt 0.037983 0.325693
vt 0.100260 0.263232
vt 0.037983 0.325693
vt 0.100260 0.263232
vt 0.100260 0.263232
vt 0.100260 0.263232
vt 0.100260 0.263232
vt 0.100260 0.263232
vt 0.100260 0.263232
vt 0.100260 0.263232
vt 0.100260 0.263232
vt 0.037983 0.325693
vt 0.100260 0.263232
vt 0.100260 0.263232
vt 0.100260 0.263232
vt 0.100260 0.263232
vt 0.100260 0.263232
vt 0.100260 0.263232
vt 0.037185 0.302378
vt 0.037185 0.302378
vt 0.037185 0.302378
vt 0.037185 0.302378
vt 0.037185 0.302378
vt 0.037185 0.302378
vt 0.037185 0.302378
vt 0.037185 0.302378
vt 0.037185 0.302378
vt 0.037185 0.302378
vt 0.037185 0.302378
vt 0.037185 0.302378
vt 0.037185 0.302378
vt 0.037185 0.302378
vt 0.037185 0.302378
vt 0.037185 0.302378
vt 0.037185 0.302378
vt 0.037185 0.302378
vt 0.037185 0.302378
vt 0.037185 0.302378
vt 0.037185 0.302378
vt 0.037185 0.302378
vt 0.037185 0.302378
vt 0.037185 0.302378
vt 0.037185 0.302378
vt 0.037185 0.302378
vt 0.037185 0.302378
vt 0.037185 0.302378
vt 0.037185 0.302378
vt 0.037185 0.302378
vt 0.037185 0.302378
vt 0.037185 0.302378
vt 0.037185 0.302378
vt 0.037185 0.302378
vt 0.037185 0.302378
vt 0.037185 0.302378
vt 0.037185 0.302378
vt 0.037185 0.302378
vt 0.037185 0.302378
vt 0.037185 0.302378
vt 0.037185 0.302378
vt 0.037185 0.302378
vt 0.037185 0.302378
vt 0.037185 0.302378
vt 0.037185 0.302378
vt 0.037185 0.302378
vt 0.037185 0.302378
vt 0.037185 0.302378
vt 0.037185 0.302378
vt 0.037185 0.302378
vt 0.037185 0.302378
vt 0.037185 0.302378
vt 0.037185 0.302378
vt 0.037185 0.302378
vt 0.037185 0.302378
vt 0.037185 0.302378
vt 0.037185 0.302378
vt 0.037185 0.302378
vt 0.037185 0.302378
vt 0.037185 0.302378
vt 0.037185 0.302378
vt 0.037185 0.302378
vt 0.037185 0.302378
vt 0.037185 0.302378
vt 0.037185 0.302378
vt 0.037185 0.302378
vt 0.037185 0.302378
vt 0.037185 0.302378
vt 0.037185 0.302378
vt 0.037185 0.302378
vt 0.037185 0.302378
vt 0.037185 0.302378
vt 0.037185 0.302378
vt 0.037185 0.302378
vt 0.037185 0.302378
vt 0.037185 0.302378
vt 0.037185 0.302378
vt 0.037185 0.302378
vt 0.037185 0.302378
vt 0.037185 0.302378
vt 0.037185 0.302378
vt 0.037185 0.302378
vt 0.037185 0.302378
vt 0.037185 0.302378
vn 0.000000 -0.390091 0.920776
vn 0.000000 -0.390091 0.920776
vn 0.000000 -0.390091 0.920776
vn 0.000000 -0.390091 0.920776
vn 0.000000 -0.890968 0.454066
vn 0.000000 -0.890968 0.454066
vn 0.000000 -0.890968 0.454066
vn 0.000000 -0.890968 0.454066
vn 1.000000 -0.000001 0.000000
vn 1.000000 -0.000001 0.000000
vn 1.000000 -0.000001 0.000000
vn 1.000000 -0.000001 0.000000
vn -1.000000 0.000000 0.000000
vn -1.000000 0.000000 0.000000
vn -1.000000 0.000000 0.000000
vn -1.000000 0.000000 0.000000
vn 0.000000 -0.390091 0.920776
vn 0.000000 -0.390091 0.920776
vn 0.000000 -0.390091 0.920776
vn 0.000000 -0.390091 0.920776
vn 0.000000 -0.890968 0.454066
vn 0.000000 -0.890968 0.454066
vn 0.000000 -0.890968 0.454066
vn 0.000000 -0.890968 0.454066
vn 1.000000 0.000000 0.000000
vn 1.000000 0.000000 0.000000
vn 1.000000 0.000000 0.000000
vn 1.000000 0.000000 0.000000
vn -1.000000 0.000000 0.000000
vn -1.000000 0.000000 0.000000
vn -1.000000 0.000000 0.000000
vn -1.000000 0.000000 0.000000
vn 0.000000 -0.390090 0.920777
vn 0.000000 -0.390090 0.920777
vn 0.000000 -0.390090 0.920777
vn 0.000000 -0.390090 0.920777
vn 0.000000 -0.890968 0.454066
vn 0.000000 -0.890968 0.454066
vn 0.000000 -0.890968 0.454066
vn 0.000000 -0.890968 0.454066
vn 1.000000 0.000000 0.000000
vn 1.000000 0.000000 0.000000
vn 1.000000 0.000000 0.000000
vn 1.000000 0.000000 0.000000
vn -1.000000 0.000000 0.000000
vn -1.000000 0.000000 0.000000
vn -1.000000 0.000000 0.000000
vn -1.000000 0.000000 0.000000
vn 0.000000 -0.390090 0.920777
vn 0.000000 -0.390090 0.920777
vn 0.000000 -0.390090 0.920777
vn 0.000000 -0.390090 0.920777
vn 0.000000 -0.890968 0.454066
vn 0.000000 -0.890968 0.454066
vn 0.000000 -0.890968 0.454066
vn 0.000000 -0.890968 0.454066
vn 1.000000 -0.000000 0.000000
vn 1.000000 -0.000000 0.000000
vn 1.000000 -0.000000 0.000000
vn 1.000000 -0.000000 0.000000
vn -1.000000 0.000000 0.000000
vn -1.000000 0.000000 0.000000
vn -1.000000 0.000000 0.000000
vn -1.000000 0.000000 0.000000
vn 0.000000 -0.390091 0.920776
vn 0.000000 -0.390091 0.920776
vn 0.000000 -0.390091 0.920776
vn 0.000000 -0.390091 0.920776
vn 0.000000 -0.890968 0.454066
vn 0.000000 -0.890968 0.454066
vn 0.000000 -0.890968 0.454066
vn 0.000000 -0.890968 0.454066
vn 1.000000 -0.000001 0.000000
vn 1.000000 -0.000001 0.000000
vn 1.000000 -0.000001 0.000000
vn 1.000000 -0.000001 0.000000
vn -1.000000 0.000000 0.000000
vn -1.000000 0.000000 0.000000
vn -1.000000 0.000000 0.000000
vn -1.000000 0.000000 0.000000
vn 0.000000 -0.390091 0.920776
vn 0.000000 -0.390091 0.920776
vn 0.000000 -0.390091 0.920776
vn 0.000000 -0.390091 0.920776
vn 0.000000 -0.890968 0.454066
vn 0.000000 -0.890968 0.454066
vn 0.000000 -0.890968 0.454066
vn 0.000000 -0.890968 0.454066
vn 1.000000 -0.000001 0.000000
vn 1.000000 -0.000001 0.000000
vn 1.000000 -0.000001 0.000000
vn 1.000000 -0.000001 0.000000
vn -1.000000 0.000000 0.000000
vn -1.000000 0.000000 0.000000
vn -1.000000 0.000000 0.000000
vn -1.000000 0.000000 0.000000
vn 0.000000 -0.390091 0.920776
vn 0.000000 -0.390091 0.920776
vn 0.000000 -0.390091 0.920776
vn 0.000000 -0.390091 0.920776
vn 0.000000 -0.890968 0.454066
vn 0.000000 -0.890968 0.454066
vn 0.000000 -0.890968 0.454066
vn 0.000000 -0.890968 0.454066
vn 1.000000 -0.000001 0.000000
vn 1.000000 -0.000001 0.000000
vn 1.000000 -0.000001 0.000000
vn 1.000000 -0.000001 0.000000
vn -1.000000 0.000000 0.000000
vn -1.000000 0.000000 0.000000
vn -1.000000 0.000000 0.000000
vn -1.000000 0.000000 0.000000
vn 0.000000 -0.390091 0.920776
vn 0.000000 -0.390091 0.920776
vn 0.000000 -0.390091 0.920776
vn 0.000000 -0.390091 0.920776
vn 0.000000 -0.890968 0.454066
vn 0.000000 -0.890968 0.454066
vn 0.000000 -0.890968 0.454066
vn 0.000000 -0.890968 0.454066
vn 1.000000 -0.000001 0.000000
vn 1.000000 -0.000001 0.000000
vn 1.000000 -0.000001 0.000000
vn 1.000000 -0.000001 0.000000
vn -1.000000 0.000000 0.000000
vn -1.000000 0.000000 0.000000
vn -1.000000 0.000000 0.000000
vn -1.000000 0.000000 0.000000
vn 0.000000 -0.390091 0.920776
vn 0.000000 -0.390091 0.920776
vn 0.000000 -0.390091 0.920776
vn 0.000000 -0.390091 0.920776
vn 0.000000 -0.890968 0.454066
vn 0.000000 -0.890968 0.454066
vn 0.000000 -0.890968 0.454066
vn 0.000000 -0.890968 0.454066
vn 1.000000 -0.000001 0.000000
vn 1.000000 -0.000001 0.000000
vn 1.000000 -0.000001 0.000000
vn 1.000000 -0.000001 0.000000
vn -1.000000 0.000000 0.000000
vn -1.000000 0.000000 0.000000
vn -1.000000 0.000000 0.000000
vn -1.000000 0.000000 0.000000
vn 0.000000 -0.940663 0.339341
vn 0.000000 -0.940663 0.339341
vn 0.000000 -0.940663 0.339341
vn 0.000000 -0.940663 0.339341
vn 0.000000 1.000000 0.000000
vn 0.000000 1.000000 0.000000
vn 0.000000 1.000000 0.000000
vn 0.000000 1.000000 0.000000
vn 0.000000 -0.733139 -0.680079
vn 0.000000 -0.733139 -0.680079
vn 0.000000 -0.733139 -0.680079
vn 0.000000 -0.733139 -0.680079
vn 0.000000 -1.000000 0.000000
vn 0.000000 -1.000000 0.000000
vn 0.000000 -1.000000 0.000000
vn 0.000000 -1.000000 0.000000
vn 0.567003 -0.823716 0.000000
vn 0.567003 -0.823716 0.000000
vn 0.567003 -0.823716 0.000000
vn 0.567003 -0.823716 0.000000
vn -0.567001 -0.823717 0.000000
vn -0.567001 -0.823717 0.000000
vn -0.567001 -0.823717 0.000000
vn -0.567001 -0.823717 0.000000
vn -1.000000 0.000000 0.000000
vn -1.000000 0.000000 0.000000
vn -1.000000 0.000000 0.000000
vn -1.000000 0.000000 0.000000
vn 0.000000 0.000000 1.000000
vn 0.000000 0.000000 1.000000
vn 0.000000 0.000000 1.000000
vn 0.000000 0.000000 1.000000
vn 1.000000 0.000000 0.000000
vn 1.000000 0.000000 0.000000
vn 1.000000 0.000000 0.000000
vn 1.000000 0.000000 0.000000
vn 0.000000 0.000000 -1.000000
vn 0.000000 0.000000 -1.000000
vn 0.000000 0.000000 -1.000000
vn 0.000000 0.000000 -1.000000
vn 0.000000 0.000000 1.000000
vn 0.000000 0.000000 1.000000
vn 0.000000 0.000000 1.000000
vn 0.000000 0.000000 1.000000
vn -1.000000 0.000000 0.000000
vn -1.000000 0.000000 0.000000
vn -1.000000 0.000000 0.000000
vn -1.000000 0.000000 0.000000
vn 0.000000 0.000000 -1.000000
vn 0.000000 0.000000 -1.000000
vn 0.000000 0.000000 -1.000000
vn 0.000000 0.000000 -1.000000
vn 1.000000 0.000000 0.000000
vn 1.000000 0.000000 0.000000
vn 1.000000 0.000000 0.000000
vn 1.000000 0.000000 0.000000
vn 0.000000 -0.975520 0.219912
vn 0.000000 -0.975520 0.219912
vn 0.000000 -0.975520 0.219912
vn 0.000000 -0.975520 0.219912
vn -0.563348 -0.826220 0.000000
vn -0.563348 -0.826220 0.000000
vn -0.563348 -0.826220 0.000000
vn -0.563348 -0.826220 0.000000
vn 0.000000 -0.801855 -0.597519
vn 0.000000 -0.801855 -0.597519
vn 0.000000 -0.801855 -0.597519
vn 0.000000 -0.801855 -0.597519
vn 0.563346 -0.826221 0.000000
vn 0.563346 -0.826221 0.000000
vn 0.563346 -0.826221 0.000000
vn 0.563346 -0.826221 0.000000
vn 0.000000 0.000000 1.000000
vn 0.000000 0.000000 1.000000
vn 0.000000 0.000000 1.000000
vn 0.000000 0.000000 1.000000
vn -1.000000 0.000000 0.000000
vn -1.000000 0.000000 0.000000
vn -1.000000 0.000000 0.000000
vn -1.000000 0.000000 0.000000
vn 0.000000 0.000000 -1.000000
vn 0.000000 0.000000 -1.000000
vn 0.000000 0.000000 -1.000000
vn 0.000000 0.000000 -1.000000
vn 1.000000 0.000000 0.000000
vn 1.000000 0.000000 0.000000
vn 1.000000 0.000000 0.000000
vn 1.000000 0.000000 0.000000
vn 0.000000 1.000000 -0.000000
vn 0.000000 1.000000 -0.000000
vn 0.000000 1.000000 -0.000000
vn 0.000000 1.000000 -0.000000
vn 0.000000 1.000000 0.000000
vn 0.000000 1.000000 0.000000
vn 0.000000 1.000000 0.000000
vn 0.000000 1.000000 0.000000
vn 0.000000 1.000000 0.000000
vn 0.000000 1.000000 0.000000
vn 0.000000 1.000000 0.000000
vn 0.000000 1.000000 0.000000
vn 0.000000 1.000000 0.000000
vn 0.000000 1.000000 0.000000
vn 0.000000 1.000000 0.000000
vn 0.000000 1.000000 0.000000
vn 0.000000 0.000009 1.000000
vn 0.000000 0.000009 1.000000
vn 0.000000 0.000009 1.000000
vn 0.000000 0.000009 1.000000
vn 1.000000 -0.000001 0.000000
vn 1.000000 -0.000001 0.000000
vn 1.000000 -0.000001 0.000000
vn 1.000000 -0.000001 0.000000
vn 0.000000 0.000000 -1.000000
vn 0.000000 0.000000 -1.000000
vn 0.000000 0.000000 -1.000000
vn 0.000000 0.000000 -1.000000
vn -1.000000 0.000000 0.000000
vn -1.000000 0.000000 0.000000
vn -1.000000 0.000000 0.000000
vn -1.000000 0.000000 0.000000
vn -1.000000 0.000000 0.000000
vn -1.000000 0.000000 0.000000
vn -1.000000 0.000000 0.000000
vn -1.000000 0.000000 0.000000
vn 0.000000 0.000000 1.000000
vn 0.000000 0.000000 1.000000
vn 0.000000 0.000000 1.000000
vn 0.000000 0.000000 1.000000
vn 1.000000 0.000000 0.000000
vn 1.000000 0.000000 0.000000
vn 1.000000 0.000000 0.000000
vn 1.000000 0.000000 0.000000
vn 0.000000 -0.000005 -1.000000
vn 0.000000 -0.000005 -1.000000
vn 0.000000 -0.000005 -1.000000
vn 0.000000 -0.000005 -1.000000
vn -1.000000 0.000000 0.000000
vn -1.000000 0.000000 0.000000
vn -1.000000 0.000000 0.000000
vn -1.000000 0.000000 0.000000
vn 0.000000 0.000000 1.000000
vn 0.000000 0.000000 1.000000
vn 0.000000 0.000000 1.000000
vn 0.000000 0.000000 1.000000
vn 1.000000 0.000000 0.000000
vn 1.000000 0.000000 0.000000
vn 1.000000 0.000000 0.000000
vn 1.000000 0.000000 0.000000
vn 0.000000 0.000000 -1.000000
vn 0.000000 0.000000 -1.000000
vn 0.000000 0.000000 -1.000000
vn 0.000000 0.000000 -1.000000
vn -0.476855 0.878982 0.000000
vn -0.476855 0.878982 0.000000
vn -0.476855 0.878982 0.000000
vn -0.476855 0.878982 0.000000
vn -0.273792 -0.961789 0.000000
vn -0.273792 -0.961789 0.000000
vn -0.273792 -0.961789 0.000000
vn -0.273792 -0.961789 0.000000
vn 0.000000 0.882190 0.470895
vn 0.000000 0.882190 0.470895
vn 0.000000 0.882190 0.470895
vn 0.000000 0.882190 0.470895
vn 0.000000 -0.965617 0.259970
vn 0.000000 -0.965617 0.259970
vn 0.000000 -0.965617 0.259970
vn 0.000000 -0.965617 0.259970
vn 0.476857 0.878981 0.000000
vn 0.476856 0.878981 0.000000
vn 0.476857 0.878981 0.000000
vn 0.476857 0.878981 0.000000
vn 0.273784 -0.961791 0.000000
vn 0.273784 -0.961791 0.000000
vn 0.273784 -0.961791 0.000000
vn 0.273784 -0.961791 0.000000
vn 0.000000 0.882193 -0.470889
vn 0.000000 0.882193 -0.470889
vn 0.000000 0.882193 -0.470889
vn 0.000000 0.882193 -0.470889
vn 0.000000 -0.965617 -0.259970
vn 0.000000 -0.965617 -0.259970
vn 0.000000 -0.965617 -0.259970
vn 0.000000 -0.965617 -0.259970
s off
f 1/1/1 2/2/2 4/3/3 3/4/4
f 7/5/5 8/6/6 2/7/7 1/8/8
f 2/2/9 8/9/10 6/10/11 4/3/12
f 7/11/13 1/1/14 3/4/15 5/12/16
f 9/13/17 10/14/18 12/15/19 11/16/20
f 15/17/21 16/18/22 10/19/23 9/20/24
f 10/14/25 16/21/26 14/22/27 12/15/28
f 15/23/29 9/13/30 11/16/31 13/24/32
f 17/25/33 18/26/34 20/27/35 19/28/36
f 23/29/37 24/30/38 18/31/39 17/32/40
f 18/26/41 24/33/42 22/34/43 20/27/44
f 23/35/45 17/25/46 19/28/47 21/36/48
f 25/37/49 26/38/50 28/39/51 27/40/52
f 31/41/53 32/42/54 26/43/55 25/44/56
f 26/38/57 32/45/58 30/46/59 28/39/60
f 31/47/61 25/37/62 27/40/63 29/48/64
f 33/49/65 34/50/66 36/51/67 35/52/68
f 39/53/69 40/54/70 34/55/71 33/56/72
f 34/50/73 40/57/74 38/58/75 36/51/76
f 39/59/77 33/49/78 35/52/79 37/60/80
f 41/61/81 42/62/82 44/63/83 43/64/84
f 47/65/85 48/66/86 42/67/87 41/68/88
f 42/62/89 48/69/90 46/70/91 44/63/92
f 47/71/93 41/61/94 43/64/95 45/72/96
f 49/73/97 50/74/98 52/75/99 51/76/100
f 55/77/101 56/78/102 50/79/103 49/80/104
f 50/74/105 56/81/106 54/82/107 52/75/108
f 55/83/109 49/73/110 51/76/111 53/84/112
f 57/85/113 58/86/114 60/87/115 59/88/116
f 63/89/117 64/90/118 58/91/119 57/92/120
f 58/86/121 64/93/122 62/94/123 60/87/124
f 63/95/125 57/85/126 59/88/127 61/96/128
f 65/97/129 66/98/130 68/99/131 67/100/132
f 71/101/133 72/102/134 66/103/135 65/104/136
f 66/98/137 72/105/138 70/106/139 68/99/140
f 71/107/141 65/97/142 67/100/143 69/108/144
f 82/109/145 83/110/146 85/111/147 86/112/148
f 101/251/149 102/249/150 103/247/151 104/253/152
f 87/117/153 88/118/154 84/119/155 81/120/156
f 79/121/157 80/122/158 74/123/159 73/124/160
f 83/110/161 84/125/162 88/126/163 85/111/164
f 81/127/165 82/109/166 86/112/167 87/128/168
f 79/121/169 73/124/170 82/129/171 81/130/172
f 73/124/173 74/123/174 83/131/175 82/129/176
f 74/123/177 80/122/178 84/132/179 83/131/180
f 81/130/181 84/132/182 80/122/183 79/121/184
f 86/112/185 85/111/186 89/133/187 90/168/188
f 87/128/189 86/112/190 90/168/191 91/159/192
f 91/136/193 92/157/194 88/118/195 87/117/196
f 85/111/197 88/126/198 92/138/199 89/133/200
f 90/167/201 89/165/202 93/149/203 94/155/204
f 91/135/205 90/134/206 94/156/207 95/152/208
f 95/153/209 96/147/210 92/137/211 91/160/212
f 89/166/213 92/158/214 96/148/215 93/139/216
f 94/154/217 93/150/218 76/114/219 75/162/220
f 95/141/221 94/140/222 75/113/223 77/145/224
f 77/116/225 78/169/226 96/143/227 95/142/228
f 93/151/229 96/144/230 78/146/231 76/164/232
f 75/161/233 76/163/234 98/172/235 97/171/236
f 76/163/237 78/115/238 99/173/239 98/172/240
f 78/115/241 77/170/242 100/174/243 99/173/244
f 77/170/245 75/161/246 97/171/247 100/174/248
f 106/239/249 107/226/250 102/176/251 101/252/252
f 107/227/253 108/214/254 103/177/255 102/250/256
f 108/215/257 105/235/258 104/178/259 103/248/260
f 105/236/261 106/238/262 101/175/263 104/254/264
f 113/208/265 114/230/266 115/223/267 116/203/268
f 114/231/269 117/218/270 118/211/271 115/185/272
f 117/219/273 119/206/274 120/199/275 118/188/276
f 119/207/277 113/183/278 116/204/279 120/190/280
f 100/191/281 97/258/282 110/242/283 109/244/284
f 97/192/285 98/257/286 111/233/287 110/241/288
f 98/195/289 99/256/290 112/221/291 111/232/292
f 99/197/293 100/255/294 109/245/295 112/220/296
f 109/194/297 110/243/298 114/229/299 113/209/300
f 106/179/301 105/237/302 116/202/303 115/224/304
f 110/193/305 111/234/306 117/217/307 114/184/308
f 107/180/309 106/240/310 115/225/311 118/212/312
f 111/196/313 112/222/314 119/205/315 117/187/316
f 108/181/317 107/228/318 118/213/319 120/200/320
f 112/198/321 109/246/322 113/210/323 119/189/324
f 105/182/325 108/216/326 120/201/327 116/186/328
