# This file uses centimeters as units for non-parametric coordinates.

v 0.091446 0.360697 -0.108623
v 4.908554 0.360697 -0.108623
v 0.091446 2.377989 -0.108623
v 4.908554 2.377989 -0.108623
v 1.565872 0.360697 -0.108623
v 1.565872 2.377989 -0.108623
v 3.434128 0.360697 -0.108623
v 3.434128 2.377989 -0.108623
v 1.550751 2.377989 -0.162596
v 1.550751 0.360697 -0.162596
v 3.449249 2.377988 -0.162596
v 3.449249 0.360697 -0.162596
v 1.527893 2.377989 -0.108623
v 1.527893 0.360697 -0.108623
v 3.472107 2.377988 -0.108623
v 3.472107 0.360697 -0.108623
vt 0.549636 0.050622
vt 0.549636 0.050622
vt 0.549636 0.050622
vt 0.549636 0.050622
vt 0.604380 0.104161
vt 0.506457 0.104161
vt 0.506457 0.006238
vt 0.604380 0.006238
vt 0.506457 0.104161
vt 0.506457 0.006238
vt 0.604380 0.006238
vt 0.604380 0.104161
vt 0.549636 0.050622
vt 0.549636 0.050622
vt 0.549636 0.050622
vt 0.549636 0.050622
vt 0.549636 0.050622
vt 0.549636 0.050622
vt 0.506457 0.006238
vt 0.604380 0.006238
vt 0.604380 0.104161
vt 0.506457 0.104161
vt 0.549636 0.050622
vt 0.549636 0.050622
vn -0.962922 0.000000 0.269782
vn -0.962922 0.000000 0.269782
vn -0.962922 0.000000 0.269782
vn -0.962922 0.000000 0.269782
vn 0.000000 0.000000 1.000000
vn 0.000000 0.000000 1.000000
vn 0.000000 0.000000 1.000000
vn 0.000000 0.000000 1.000000
vn 0.000000 0.000000 1.000000
vn 0.000000 0.000000 1.000000
vn 0.000000 0.000000 1.000000
vn 0.000000 0.000000 1.000000
vn 0.920825 0.000000 0.389975
vn 0.920825 0.000000 0.389975
vn 0.920825 0.000000 0.389975
vn 0.920825 0.000000 0.389975
vn 0.962922 0.000000 0.269782
vn 0.962922 0.000000 0.269782
vn 0.962922 0.000000 0.269782
vn 0.962922 0.000000 0.269782
vn 0.000000 0.000000 1.000000
vn 0.000000 0.000000 1.000000
vn 0.000000 0.000000 1.000000
vn 0.000000 0.000000 1.000000
vn -0.920825 0.000000 0.389975
vn -0.920825 0.000000 0.389975
vn -0.920825 0.000000 0.389975
vn -0.920825 0.000000 0.389975
s off
f 9/1/1 10/2/2 5/3/3 6/4/4
f 8/5/5 6/6/6 5/7/7 7/8/8
f 15/9/9 16/10/10 2/11/11 4/12/12
f 13/13/13 14/14/14 10/2/15 9/1/16
f 8/15/17 7/16/18 12/17/19 11/18/20
f 1/19/21 14/20/22 13/21/23 3/22/24
f 11/18/25 12/17/26 16/23/27 15/24/28
