# This file uses centimeters as units for non-parametric coordinates.

v -0.034645 0.000000 -5.042792
v -0.034645 0.000000 0.034647
v -0.455803 0.499867 -5.168199
v -0.455803 0.499867 0.455802
v -0.034645 0.094919 -5.042792
v -0.034645 0.094919 0.034647
v -0.169849 0.132860 0.169849
v -0.169849 0.132860 -5.083694
v -0.169849 0.229365 0.169849
v -0.169849 0.229365 -5.083694
v -0.349930 0.269958 0.349927
v -0.349930 0.269958 -5.138172
v -0.455803 0.499867 -4.157609
v -0.455803 0.499867 -0.842390
v -0.349930 0.348493 -5.138172
v -0.349930 0.348493 0.349927
v -0.455803 0.392163 0.455802
v -0.455803 0.392163 -5.168199
v -0.455803 0.392163 -4.157609
v -0.349930 0.348493 -4.157609
v -0.349930 0.269958 -4.157609
v -0.169849 0.229365 -4.157609
v -0.169849 0.132860 -4.157609
v -0.034645 0.094919 -4.157609
v -0.034645 0.000000 -4.157609
v -0.034645 0.000000 -0.842390
v -0.034645 0.094919 -0.842390
v -0.169849 0.132860 -0.842390
v -0.169849 0.229365 -0.842390
v -0.349930 0.269958 -0.842390
v -0.349930 0.348493 -0.842390
v -0.455803 0.392163 -0.842390
v -0.581280 0.132860 -3.893825
v -0.501831 0.094919 -3.814447
v -0.501831 0.094919 -1.185552
v -0.581280 0.132860 -1.106174
v -0.501831 0.000000 -3.814447
v -0.501831 0.000000 -1.185552
v -0.581280 0.229365 -3.893825
v -0.581280 0.229365 -1.106174
v -0.687099 0.269958 -3.963212
v -0.687099 0.269958 -1.036787
v -0.749313 0.392163 -4.019016
v -0.687099 0.348493 -3.963212
v -0.687099 0.348493 -1.036787
v -0.749313 0.392163 -0.980983
v -0.749313 0.499867 -4.019016
v -0.749313 0.499867 -0.980983
v 5.011444 0.000000 0.034646
v 5.154839 0.499867 0.455801
v 5.154839 0.499867 -5.168199
v 5.011444 0.000000 -5.042793
v 5.011444 0.094919 0.034646
v 5.011444 0.094919 -5.042793
v 5.066563 0.132860 0.169849
v 5.066563 0.132860 -5.083694
v 5.066563 0.229365 0.169849
v 5.066563 0.229365 -5.083694
v 5.126102 0.269958 0.349927
v 5.126102 0.269958 -5.138172
v 0.842392 0.499867 0.455801
v 4.157608 0.499867 0.455801
v 5.126102 0.348493 0.349927
v 5.126102 0.348493 -5.138172
v 5.154839 0.392163 0.455801
v 5.154839 0.392163 -5.168199
v 2.500000 0.499867 -5.168199
v 0.842392 0.392163 0.455801
v 0.842392 0.348493 0.349927
v 0.842392 0.269958 0.349927
v 0.842392 0.229365 0.169849
v 0.842392 0.132860 0.169849
v 0.842392 0.094919 0.034646
v 0.842392 0.000000 0.034646
v 2.500000 0.000000 -5.042793
v 2.500000 0.094919 -5.042793
v 2.500000 0.132860 -5.083694
v 2.500000 0.229365 -5.083694
v 2.500000 0.269958 -5.138173
v 2.500000 0.348493 -5.138173
v 2.500000 0.392163 -5.168199
v 4.157608 0.000000 0.034646
v 4.157608 0.094919 0.034646
v 4.157608 0.132860 0.169849
v 4.157608 0.229365 0.169849
v 4.157608 0.269958 0.349927
v 4.157608 0.348493 0.349927
v 4.157608 0.392163 0.455801
v 1.106174 0.132860 0.581279
v 1.185555 0.094919 0.501829
v 3.814445 0.094919 0.501829
v 3.893826 0.132860 0.581279
v 1.185555 0.000000 0.501829
v 3.814445 0.000000 0.501829
v 1.106174 0.229365 0.581279
v 3.893826 0.229365 0.581279
v 1.036789 0.269958 0.687098
v 3.963211 0.269958 0.687098
v 0.980984 0.392163 0.749313
v 1.036789 0.348493 0.687098
v 3.963211 0.348493 0.687098
v 4.019016 0.392163 0.749313
v 0.980984 0.499867 0.749313
v 4.019016 0.499867 0.749313
vt 0.037983 0.325693
vt 0.037983 0.325693
vt 0.037983 0.325693
vt 0.037983 0.325693
vt 0.100260 0.263232
vt 0.099806 0.231725
vt 0.099806 0.231725
vt 0.099806 0.231725
vt 0.099806 0.231725
vt 0.037983 0.325693
vt 0.100260 0.263232
vt 0.100260 0.263232
vt 0.100260 0.263232
vt 0.100260 0.263232
vt 0.100260 0.263232
vt 0.100260 0.263232
vt 0.100260 0.263232
vt 0.037983 0.325693
vt 0.100260 0.263232
vt 0.100260 0.263232
vt 0.100260 0.263232
vt 0.100260 0.263232
vt 0.100260 0.263232
vt 0.100260 0.263232
vt 0.100260 0.263232
vt 0.100260 0.263232
vt 0.100260 0.263232
vt 0.037983 0.325693
vt 0.100260 0.263232
vt 0.037983 0.325693
vt 0.037983 0.325693
vt 0.099806 0.231725
vt 0.099806 0.231725
vt 0.099806 0.231725
vt 0.037983 0.325693
vt 0.099806 0.231725
vt 0.037983 0.325693
vt 0.037983 0.325693
vt 0.100260 0.263232
vt 0.100260 0.263232
vt 0.100260 0.263232
vt 0.100260 0.263232
vt 0.100260 0.263232
vt 0.100260 0.263232
vt 0.037983 0.325693
vt 0.037983 0.325693
vt 0.037983 0.325693
vt 0.037983 0.325693
vt 0.099806 0.231725
vt 0.099806 0.231725
vt 0.099806 0.231725
vt 0.099806 0.231725
vt 0.037983 0.325693
vt 0.037983 0.325693
vt 0.100260 0.263232
vt 0.100260 0.263232
vt 0.100260 0.263232
vt 0.100260 0.263232
vt 0.100260 0.263232
vt 0.100260 0.263232
vt 0.100260 0.263232
vt 0.100260 0.263232
vt 0.100260 0.263232
vt 0.100260 0.263232
vt 0.100260 0.263232
vt 0.100260 0.263232
vt 0.037983 0.325693
vt 0.037983 0.325693
vt 0.037983 0.325693
vt 0.037983 0.325693
vt 0.099806 0.231725
vt 0.099806 0.231725
vt 0.099806 0.231725
vt 0.037983 0.325693
vt 0.037983 0.325693
vt 0.037983 0.325693
vt 0.037983 0.325693
vt 0.099806 0.231725
vt 0.099806 0.231725
vt 0.099806 0.231725
vt 0.099806 0.231725
vt 0.099806 0.231725
vt 0.099806 0.231725
vt 0.099806 0.231725
vt 0.099806 0.231725
vt 0.037983 0.325693
vt 0.037983 0.325693
vt 0.037983 0.325693
vt 0.037983 0.325693
vt 0.100260 0.263232
vt 0.100260 0.263232
vt 0.100260 0.263232
vt 0.100260 0.263232
vt 0.100260 0.263232
vt 0.100260 0.263232
vt 0.100260 0.263232
vt 0.100260 0.263232
vt 0.100260 0.263232
vt 0.100260 0.263232
vt 0.100260 0.263232
vt 0.100260 0.263232
vt 0.100260 0.263232
vt 0.100260 0.263232
vt 0.100260 0.263232
vt 0.100260 0.263232
vt 0.100260 0.263232
vt 0.100260 0.263232
vt 0.100260 0.263232
vt 0.100260 0.263232
vt 0.100260 0.263232
vt 0.100260 0.263232
vt 0.100260 0.263232
vt 0.100260 0.263232
vt 0.100260 0.263232
vt 0.100260 0.263232
vt 0.100260 0.263232
vt 0.100260 0.263232
vt 0.100260 0.263232
vt 0.100260 0.263232
vt 0.100260 0.263232
vt 0.100260 0.263232
vt 0.100260 0.263232
vt 0.100260 0.263232
vt 0.100260 0.263232
vt 0.100260 0.263232
vt 0.100260 0.263232
vt 0.100260 0.263232
vt 0.100260 0.263232
vt 0.100260 0.263232
vt 0.100260 0.263232
vt 0.100260 0.263232
vt 0.037983 0.325693
vt 0.037983 0.325693
vt 0.037983 0.325693
vt 0.037983 0.325693
vt 0.037983 0.325693
vt 0.037983 0.325693
vt 0.099806 0.231725
vt 0.099806 0.231725
vt 0.099806 0.231725
vt 0.099806 0.231725
vt 0.099806 0.231725
vt 0.099806 0.231725
vt 0.037983 0.325693
vt 0.037983 0.325693
vt 0.037983 0.325693
vt 0.037983 0.325693
vt 0.037983 0.325693
vt 0.037983 0.325693
vt 0.100260 0.263232
vt 0.100260 0.263232
vt 0.100260 0.263232
vt 0.100260 0.263232
vt 0.100260 0.263232
vt 0.100260 0.263232
vt 0.100260 0.263232
vt 0.100260 0.263232
vt 0.100260 0.263232
vt 0.100260 0.263232
vt 0.100260 0.263232
vt 0.100260 0.263232
vt 0.100260 0.263232
vt 0.100260 0.263232
vt 0.100260 0.263232
vt 0.100260 0.263232
vt 0.100260 0.263232
vt 0.100260 0.263232
vt 0.100260 0.263232
vt 0.037983 0.325693
vt 0.037983 0.325693
vt 0.037983 0.325693
vt 0.099806 0.231725
vt 0.037983 0.325693
vt 0.037983 0.325693
vt 0.037983 0.325693
vt 0.100260 0.263232
vt 0.100260 0.263232
vt 0.100260 0.263232
vt 0.100260 0.263232
vt 0.100260 0.263232
vt 0.100260 0.263232
vt 0.100260 0.263232
vt 0.100260 0.263232
vt 0.100260 0.263232
vt 0.100260 0.263232
vt 0.100260 0.263232
vt 0.100260 0.263232
vt 0.100260 0.263232
vn -0.430938 -0.902382 0.000000
vn -0.430938 -0.902382 0.000000
vn -0.430938 -0.902382 0.000000
vn -0.430938 -0.902382 0.000000
vn -1.000000 0.000000 0.000000
vn -1.000000 0.000000 0.000000
vn -1.000000 0.000000 0.000000
vn -1.000000 0.000000 0.000000
vn -1.000000 0.000000 0.000000
vn -1.000000 0.000000 0.000000
vn -1.000000 0.000000 0.000000
vn -1.000000 0.000000 0.000000
vn -0.358163 -0.933659 0.000000
vn -0.358163 -0.933659 0.000000
vn -0.358163 -0.933659 0.000000
vn -0.358163 -0.933659 0.000000
vn -0.574518 -0.818492 0.000000
vn -0.574518 -0.818492 0.000000
vn -0.574518 -0.818492 0.000000
vn -0.574518 -0.818492 0.000000
vn -1.000000 0.000000 0.000000
vn -1.000000 0.000000 0.000000
vn -1.000000 0.000000 0.000000
vn -1.000000 0.000000 0.000000
vn -1.000000 0.000000 0.000000
vn -1.000000 0.000000 0.000000
vn -1.000000 0.000000 0.000000
vn -1.000000 0.000000 0.000000
vn -1.000000 0.000000 0.000000
vn -1.000000 0.000000 0.000000
vn -1.000000 0.000000 0.000000
vn -1.000000 0.000000 0.000000
vn -0.381305 -0.924449 0.000000
vn -0.381305 -0.924449 0.000000
vn -0.381305 -0.924449 0.000000
vn -0.381305 -0.924449 0.000000
vn -1.000000 0.000000 0.000000
vn -1.000000 0.000000 0.000000
vn -1.000000 0.000000 0.000000
vn -1.000000 0.000000 0.000000
vn -0.219902 -0.975522 0.000000
vn -0.219902 -0.975522 0.000000
vn -0.219902 -0.975522 0.000000
vn -0.219902 -0.975522 0.000000
vn -1.000000 0.000000 0.000000
vn -1.000000 0.000000 0.000000
vn -1.000000 0.000000 0.000000
vn -1.000000 0.000000 0.000000
vn -0.270184 -0.962809 0.000000
vn -0.270184 -0.962809 0.000000
vn -0.270184 -0.962809 0.000000
vn -0.270184 -0.962809 0.000000
vn -1.000000 0.000000 0.000000
vn -1.000000 0.000000 0.000000
vn -1.000000 0.000000 0.000000
vn -1.000000 0.000000 0.000000
vn -1.000000 0.000000 0.000000
vn -1.000000 0.000000 0.000000
vn -1.000000 0.000000 0.000000
vn -1.000000 0.000000 0.000000
vn -0.270184 -0.962809 0.000000
vn -0.270184 -0.962809 0.000000
vn -0.270184 -0.962809 0.000000
vn -0.270184 -0.962809 0.000000
vn -1.000000 0.000000 0.000000
vn -1.000000 0.000000 0.000000
vn -1.000000 0.000000 0.000000
vn -1.000000 0.000000 0.000000
vn -0.219902 -0.975522 0.000000
vn -0.219902 -0.975522 0.000000
vn -0.219902 -0.975522 0.000000
vn -0.219902 -0.975522 0.000000
vn -1.000000 0.000000 0.000000
vn -1.000000 0.000000 0.000000
vn -1.000000 0.000000 0.000000
vn -1.000000 0.000000 0.000000
vn -0.381305 -0.924449 0.000000
vn -0.381305 -0.924449 0.000000
vn -0.381305 -0.924449 0.000000
vn -0.381305 -0.924449 0.000000
vn -1.000000 0.000000 0.000000
vn -1.000000 0.000000 0.000000
vn -1.000000 0.000000 0.000000
vn -1.000000 0.000000 0.000000
vn -0.213407 -0.926834 -0.308927
vn -0.213407 -0.926834 -0.308927
vn -0.213407 -0.926834 -0.308927
vn -0.213407 -0.926834 -0.308927
vn -0.213406 -0.926834 0.308927
vn -0.213406 -0.926834 0.308927
vn -0.213406 -0.926834 0.308927
vn -0.213406 -0.926834 0.308927
vn -0.591991 0.000000 -0.805944
vn -0.591991 0.000000 -0.805944
vn -0.591991 0.000000 -0.805944
vn -0.591991 0.000000 -0.805944
vn 0.000000 -1.000000 0.000000
vn 0.000000 -1.000000 0.000000
vn 0.000000 -1.000000 0.000000
vn 0.000000 -1.000000 0.000000
vn -0.591991 0.000000 0.805945
vn -0.591991 0.000000 0.805945
vn -0.591991 0.000000 0.805945
vn -0.591991 0.000000 0.805945
vn -0.539735 0.000000 -0.841835
vn -0.539735 0.000000 -0.841835
vn -0.539735 0.000000 -0.841835
vn -0.539735 0.000000 -0.841835
vn -0.539734 0.000000 0.841835
vn -0.539734 0.000000 0.841835
vn -0.539734 0.000000 0.841835
vn -0.539734 0.000000 0.841835
vn -0.189474 -0.931807 -0.309572
vn -0.189474 -0.931807 -0.309572
vn -0.189474 -0.931807 -0.309572
vn -0.189474 -0.931807 -0.309572
vn -0.189474 -0.931807 0.309572
vn -0.189474 -0.931807 0.309572
vn -0.189474 -0.931807 0.309572
vn -0.189474 -0.931807 0.309572
vn -0.263401 -0.825676 -0.498877
vn -0.263401 -0.825676 -0.498877
vn -0.263401 -0.825676 -0.498877
vn -0.263401 -0.825676 -0.498877
vn -0.263401 -0.825676 0.498877
vn -0.263401 -0.825676 0.498877
vn -0.263401 -0.825676 0.498877
vn -0.263401 -0.825676 0.498877
vn -0.499483 0.000000 -0.866323
vn -0.499483 0.000000 -0.866323
vn -0.499483 0.000000 -0.866323
vn -0.499483 0.000000 -0.866323
vn -0.499483 0.000000 0.866323
vn -0.499483 0.000000 0.866323
vn -0.499483 0.000000 0.866323
vn -0.499483 0.000000 0.866323
vn 0.000000 1.000000 0.000000
vn 0.000000 1.000000 0.000000
vn 0.000000 1.000000 0.000000
vn 0.000000 1.000000 0.000000
vn -0.426985 0.000000 -0.904259
vn -0.426985 0.000000 -0.904259
vn -0.426985 0.000000 -0.904259
vn -0.426985 0.000000 -0.904259
vn -0.426985 0.000000 0.904259
vn -0.426985 0.000000 0.904259
vn -0.426985 0.000000 0.904259
vn -0.426985 0.000000 0.904259
vn 0.000000 -0.902384 0.430934
vn 0.000000 -0.902384 0.430933
vn 0.000000 -0.902384 0.430933
vn 0.000000 -0.902384 0.430934
vn 0.000000 -1.000000 0.000000
vn 0.000000 -1.000000 0.000000
vn 0.000000 -1.000000 0.000000
vn 0.567007 -0.823713 0.000000
vn 0.567007 -0.823713 0.000000
vn 0.567007 -0.823713 0.000000
vn 0.567007 -0.823713 0.000000
vn 0.000000 0.000000 1.000000
vn 0.000000 0.000000 1.000000
vn 0.000000 0.000000 1.000000
vn 0.000000 0.000000 1.000000
vn 1.000000 0.000000 0.000000
vn 1.000000 0.000000 0.000000
vn 1.000000 0.000000 0.000000
vn 1.000000 0.000000 0.000000
vn 0.000000 0.000000 1.000000
vn 0.000000 0.000000 1.000000
vn 0.000000 0.000000 1.000000
vn 0.000000 0.000000 1.000000
vn 1.000000 0.000000 0.000000
vn 1.000000 0.000000 0.000000
vn 1.000000 0.000000 0.000000
vn 1.000000 0.000000 0.000000
vn 0.000000 -0.933659 0.358164
vn 0.000000 -0.933659 0.358164
vn 0.000000 -0.933659 0.358164
vn 0.000000 -0.933659 0.358164
vn 0.563323 -0.826237 0.000000
vn 0.563323 -0.826237 0.000000
vn 0.563323 -0.826237 0.000000
vn 0.563323 -0.826237 0.000000
vn 0.000000 -0.818497 0.574511
vn 0.000000 -0.818497 0.574511
vn 0.000000 -0.818497 0.574511
vn 0.000000 -0.818497 0.574511
vn 0.835360 -0.549704 0.000000
vn 0.835360 -0.549704 0.000000
vn 0.835360 -0.549704 0.000000
vn 0.835360 -0.549704 0.000000
vn 0.000000 1.000000 0.000000
vn 0.000000 1.000000 0.000000
vn 0.000000 1.000000 0.000000
vn 0.000000 1.000000 -0.000000
vn 0.000000 1.000000 -0.000000
vn 0.000000 1.000000 -0.000000
vn 0.000000 1.000000 -0.000000
vn 0.000000 0.000000 1.000000
vn 0.000000 0.000000 1.000000
vn 0.000000 0.000000 1.000000
vn 0.000000 0.000000 1.000000
vn 1.000000 0.000000 0.000000
vn 1.000000 0.000000 0.000000
vn 1.000000 0.000000 0.000000
vn 1.000000 0.000000 0.000000
vn 0.000000 0.000000 1.000000
vn 0.000000 0.000000 1.000000
vn 0.000000 0.000000 1.000000
vn 0.000000 0.000000 1.000000
vn 1.000000 0.000000 0.000000
vn 1.000000 0.000000 0.000000
vn 1.000000 0.000000 0.000000
vn 1.000000 0.000000 0.000000
vn 0.000001 0.000000 1.000000
vn 0.000001 0.000000 1.000000
vn 0.000001 0.000000 1.000000
vn 0.000001 0.000000 1.000000
vn 0.000000 -0.924451 0.381300
vn 0.000000 -0.924451 0.381300
vn 0.000000 -0.924451 0.381300
vn 0.000000 -0.924451 0.381300
vn 0.000000 0.000000 1.000000
vn 0.000000 0.000000 1.000000
vn 0.000000 0.000000 1.000000
vn 0.000000 0.000000 1.000000
vn 0.000000 -0.975521 0.219905
vn 0.000000 -0.975521 0.219905
vn 0.000000 -0.975521 0.219905
vn 0.000000 -0.975521 0.219905
vn 0.000000 0.000000 1.000000
vn 0.000000 0.000000 1.000000
vn 0.000000 0.000000 1.000000
vn 0.000000 0.000000 1.000000
vn 0.000000 -0.962808 0.270187
vn 0.000000 -0.962808 0.270187
vn 0.000000 -0.962808 0.270187
vn 0.000000 -0.962808 0.270187
vn 0.000001 0.000000 1.000000
vn 0.000001 0.000000 1.000000
vn 0.000001 0.000000 1.000000
vn 0.000001 0.000000 1.000000
vn 0.000000 -1.000000 0.000000
vn 0.000000 -1.000000 0.000000
vn 0.000000 -1.000000 0.000000
vn 0.000000 -1.000000 0.000000
vn -0.000000 0.000000 -1.000000
vn -0.000000 0.000000 -1.000000
vn -0.000000 0.000000 -1.000000
vn -0.000000 0.000000 -1.000000
vn -0.000000 -0.733141 -0.680076
vn -0.000000 -0.733139 -0.680078
vn -0.000000 -0.733139 -0.680078
vn -0.000000 -0.733141 -0.680076
vn 0.000000 0.000000 -1.000000
vn 0.000000 0.000000 -1.000000
vn 0.000000 0.000000 -1.000000
vn 0.000000 0.000000 -1.000000
vn 0.000000 -0.801868 -0.597502
vn 0.000000 -0.801868 -0.597502
vn 0.000000 -0.801868 -0.597502
vn 0.000000 -0.801868 -0.597501
vn -0.000000 0.000000 -1.000000
vn 0.000000 0.000000 -1.000000
vn 0.000000 0.000000 -1.000000
vn -0.000000 0.000000 -1.000000
vn -0.000000 -0.566585 -0.824004
vn 0.000000 -0.566585 -0.824004
vn 0.000000 -0.566585 -0.824004
vn -0.000000 -0.566585 -0.824003
vn 0.000000 0.000000 -1.000000
vn 0.000000 0.000000 -1.000000
vn 0.000000 0.000000 -1.000000
vn 0.000000 0.000000 -1.000000
vn 0.000000 1.000000 0.000000
vn 0.000000 1.000000 0.000000
vn 0.000000 1.000000 0.000000
vn 0.000000 1.000000 0.000000
vn 0.000000 -0.566585 -0.824004
vn 0.000000 -0.566585 -0.824004
vn 0.000000 -0.566585 -0.824004
vn 0.000000 -0.566585 -0.824004
vn 0.000000 0.000000 -1.000000
vn 0.000000 0.000000 -1.000000
vn 0.000000 0.000000 -1.000000
vn 0.000000 0.000000 -1.000000
vn 0.000000 -0.801868 -0.597502
vn 0.000000 -0.801868 -0.597502
vn 0.000000 -0.801868 -0.597502
vn 0.000000 -0.801868 -0.597502
vn 0.000000 0.000000 -1.000000
vn 0.000000 0.000000 -1.000000
vn 0.000000 0.000000 -1.000000
vn 0.000000 0.000000 -1.000000
vn -0.000000 -0.733139 -0.680078
vn -0.000000 -0.733139 -0.680078
vn 0.000000 -0.733137 -0.680081
vn 0.000000 -0.733137 -0.680081
vn -0.000000 0.000000 -1.000000
vn -0.000000 0.000000 -1.000000
vn 0.000000 0.000000 -1.000000
vn 0.000000 0.000000 -1.000000
vn 0.000000 -1.000000 0.000000
vn 0.000000 -1.000000 0.000000
vn 0.000000 -1.000000 0.000000
vn 0.000000 -1.000000 0.000000
vn 0.000000 0.000000 1.000000
vn 0.000000 0.000000 1.000000
vn 0.000000 0.000000 1.000000
vn 0.000000 0.000000 1.000000
vn 0.000000 -0.962808 0.270186
vn 0.000000 -0.962808 0.270186
vn 0.000000 -0.962808 0.270186
vn 0.000000 -0.962808 0.270186
vn 0.000000 0.000000 1.000000
vn 0.000000 0.000000 1.000000
vn 0.000000 0.000000 1.000000
vn 0.000000 0.000000 1.000000
vn 0.000000 -0.975521 0.219905
vn 0.000000 -0.975521 0.219905
vn 0.000000 -0.975521 0.219905
vn 0.000000 -0.975521 0.219905
vn 0.000000 0.000000 1.000000
vn 0.000000 0.000000 1.000000
vn 0.000000 0.000000 1.000000
vn 0.000000 0.000000 1.000000
vn 0.000000 -0.924451 0.381301
vn 0.000000 -0.924451 0.381301
vn 0.000000 -0.924451 0.381301
vn 0.000000 -0.924451 0.381301
vn 0.000000 0.000000 1.000000
vn 0.000000 0.000000 1.000000
vn 0.000000 0.000000 1.000000
vn 0.000000 0.000000 1.000000
vn 0.000000 0.000000 -1.000000
vn 0.000000 0.000000 -1.000000
vn 0.000000 0.000000 -1.000000
vn 0.000000 0.000000 -1.000000
vn -0.308925 -0.926835 0.213405
vn -0.308925 -0.926835 0.213405
vn -0.308925 -0.926835 0.213405
vn -0.308925 -0.926835 0.213405
vn 0.308925 -0.926835 0.213405
vn 0.308925 -0.926835 0.213405
vn 0.308925 -0.926835 0.213405
vn 0.308925 -0.926835 0.213405
vn -0.805943 0.000000 0.591993
vn -0.805943 0.000000 0.591993
vn -0.805943 0.000000 0.591993
vn -0.805943 0.000000 0.591993
vn 0.000000 -1.000000 0.000000
vn 0.000000 -1.000000 0.000000
vn 0.000000 -1.000000 0.000000
vn 0.000000 -1.000000 0.000000
vn 0.805943 0.000000 0.591993
vn 0.805943 0.000000 0.591993
vn 0.805943 0.000000 0.591993
vn 0.805943 0.000000 0.591993
vn -0.841837 0.000000 0.539732
vn -0.841837 0.000000 0.539732
vn -0.841837 0.000000 0.539732
vn -0.841837 0.000000 0.539732
vn 0.841837 0.000000 0.539732
vn 0.841837 0.000000 0.539732
vn 0.841837 0.000000 0.539732
vn 0.841837 0.000000 0.539732
vn -0.309577 -0.931805 0.189476
vn -0.309577 -0.931805 0.189476
vn -0.309577 -0.931805 0.189476
vn -0.309577 -0.931805 0.189476
vn 0.309577 -0.931805 0.189476
vn 0.309577 -0.931805 0.189476
vn 0.309577 -0.931805 0.189476
vn 0.309577 -0.931805 0.189476
vn -0.498872 -0.825681 0.263395
vn -0.498872 -0.825681 0.263395
vn -0.498872 -0.825681 0.263395
vn -0.498872 -0.825681 0.263395
vn 0.498872 -0.825682 0.263395
vn 0.498872 -0.825682 0.263395
vn 0.498872 -0.825682 0.263395
vn 0.498872 -0.825682 0.263395
vn -0.866324 0.000000 0.499482
vn -0.866324 0.000000 0.499482
vn -0.866324 0.000000 0.499482
vn -0.866324 0.000000 0.499482
vn 0.866324 0.000000 0.499482
vn 0.866324 0.000000 0.499482
vn 0.866324 0.000000 0.499482
vn 0.866324 0.000000 0.499482
vn 0.000000 1.000000 0.000000
vn 0.000000 1.000000 0.000000
vn 0.000000 1.000000 0.000000
vn 0.000000 1.000000 0.000000
vn -0.904262 0.000000 0.426979
vn -0.904262 0.000000 0.426979
vn -0.904262 0.000000 0.426979
vn -0.904262 0.000000 0.426979
vn 0.904262 0.000000 0.426979
vn 0.904262 0.000000 0.426979
vn 0.904262 0.000000 0.426979
vn 0.904262 0.000000 0.426979
s off
f 33/45/1 34/46/2 35/47/3 36/48/4
f 35/52/5 34/49/6 37/50/7 38/51/8
f 39/53/9 33/45/10 36/48/11 40/54/12
f 41/55/13 39/56/14 40/57/15 42/58/16
f 43/59/17 44/60/18 45/61/19 46/62/20
f 45/61/21 44/60/22 41/63/23 42/64/24
f 48/65/25 47/66/26 43/59/27 46/62/28
f 18/22/29 19/24/30 13/23/31 3/15/32
f 15/19/33 20/25/34 19/24/35 18/22/36
f 12/13/37 21/27/38 20/25/39 15/19/40
f 10/17/41 22/29/42 21/26/43 12/14/44
f 8/4/45 23/30/46 22/28/47 10/18/48
f 5/1/49 24/31/50 23/30/51 8/4/52
f 1/7/53 25/33/54 24/32/55 5/8/56
f 27/36/57 26/34/58 2/6/59 6/9/60
f 28/37/61 27/35/62 6/2/63 7/3/64
f 29/38/65 28/37/66 7/3/67 9/10/68
f 30/40/69 29/39/70 9/16/71 11/11/72
f 31/42/73 30/41/74 11/12/75 16/20/76
f 32/43/77 31/42/78 16/20/79 17/21/80
f 14/44/81 32/43/82 17/21/83 4/5/84
f 23/30/85 24/31/86 34/46/87 33/45/88
f 27/35/89 28/37/90 36/48/91 35/47/92
f 24/32/93 25/33/94 37/50/95 34/49/96
f 25/33/97 26/34/98 38/51/99 37/50/100
f 26/34/101 27/36/102 35/52/103 38/51/104
f 22/28/105 23/30/106 33/45/107 39/53/108
f 28/37/109 29/38/110 40/54/111 36/48/112
f 21/26/113 22/29/114 39/56/115 41/55/116
f 29/39/117 30/40/118 42/58/119 40/57/120
f 19/24/121 20/25/122 44/60/123 43/59/124
f 31/42/125 32/43/126 46/62/127 45/61/128
f 20/25/129 21/27/130 41/63/131 44/60/132
f 30/41/133 31/42/134 45/61/135 42/64/136
f 14/44/137 13/23/138 47/66/139 48/65/140
f 13/23/141 19/24/142 43/59/143 47/66/144
f 32/43/145 14/44/146 48/65/147 46/62/148
f 89/67/149 90/68/150 91/69/151 92/70/152
f 82/71/153 74/72/154 75/73/155
f 53/74/156 54/75/157 56/76/158 55/77/159
f 91/78/160 90/79/161 93/80/162 94/81/163
f 49/82/164 52/83/165 54/84/166 53/85/167
f 95/86/168 89/67/169 92/70/170 96/87/171
f 55/77/172 56/76/173 58/88/174 57/89/175
f 97/90/176 95/91/177 96/92/178 98/93/179
f 57/94/180 58/95/181 60/96/182 59/97/183
f 99/98/184 100/99/185 101/100/186 102/101/187
f 63/102/188 64/103/189 66/104/190 65/105/191
f 67/106/192 61/107/193 62/108/194
f 67/109/195 62/108/196 50/110/197 51/111/198
f 101/100/199 100/99/200 97/112/201 98/113/202
f 59/114/203 60/115/204 64/103/205 63/102/206
f 104/116/207 103/117/208 99/98/209 102/101/210
f 65/105/211 66/104/212 51/118/213 50/119/214
f 17/120/215 68/121/216 61/122/217 4/123/218
f 16/124/219 69/125/220 68/121/221 17/120/222
f 11/126/223 70/127/224 69/125/225 16/124/226
f 9/128/227 71/129/228 70/130/229 11/131/230
f 7/132/231 72/133/232 71/134/233 9/135/234
f 6/136/235 73/137/236 72/133/237 7/132/238
f 2/138/239 74/72/240 73/139/241 6/140/242
f 1/141/243 75/73/244 74/72/245 2/138/246
f 5/142/247 76/143/248 75/73/249 1/141/250
f 8/144/251 77/145/252 76/146/253 5/147/254
f 10/148/255 78/149/256 77/145/257 8/144/258
f 12/150/259 79/151/260 78/152/261 10/153/262
f 15/154/263 80/155/264 79/156/265 12/157/266
f 18/158/267 81/159/268 80/155/269 15/154/270
f 3/160/271 67/161/272 81/159/273 18/158/274
f 61/107/275 67/109/276 3/162/277 4/163/278
f 80/155/279 81/159/280 66/164/281 64/165/282
f 79/156/283 80/155/284 64/165/285 60/166/286
f 78/152/287 79/151/288 60/167/289 58/168/290
f 77/145/291 78/149/292 58/169/293 56/170/294
f 76/146/295 77/145/296 56/170/297 54/171/298
f 75/73/299 76/143/300 54/84/301 52/83/302
f 82/71/303 75/73/304 52/83/305 49/82/306
f 83/172/307 82/71/308 49/82/309 53/85/310
f 84/173/311 83/174/312 53/74/313 55/77/314
f 85/175/315 84/173/316 55/77/317 57/89/318
f 86/176/319 85/177/320 57/178/321 59/179/322
f 87/180/323 86/181/324 59/182/325 63/183/326
f 88/184/327 87/180/328 63/183/329 65/185/330
f 62/186/331 88/184/332 65/185/333 50/187/334
f 81/159/335 67/161/336 51/188/337 66/164/338
f 72/133/339 73/137/340 90/68/341 89/67/342
f 83/174/343 84/173/344 92/70/345 91/69/346
f 73/139/347 74/72/348 93/80/349 90/79/350
f 74/72/351 82/71/352 94/81/353 93/80/354
f 82/71/355 83/172/356 91/78/357 94/81/358
f 71/134/359 72/133/360 89/67/361 95/86/362
f 84/173/363 85/175/364 96/87/365 92/70/366
f 70/130/367 71/129/368 95/91/369 97/90/370
f 85/177/371 86/176/372 98/93/373 96/92/374
f 68/121/375 69/125/376 100/99/377 99/98/378
f 87/180/379 88/184/380 102/101/381 101/100/382
f 69/125/383 70/127/384 97/112/385 100/99/386
f 86/181/387 87/180/388 101/100/389 98/113/390
f 62/186/391 61/122/392 103/117/393 104/116/394
f 61/122/395 68/121/396 99/98/397 103/117/398
f 88/184/399 62/186/400 104/116/401 102/101/402
