# This file uses centimeters as units for non-parametric coordinates.

v 2.585739 1.287007 -0.084782
v 2.804657 1.287007 -0.084782
v 2.585739 1.520449 -0.084782
v 2.804657 1.520449 -0.084782
v 0.280807 1.171733 -0.084782
v 0.555115 1.171733 -0.084782
v 0.280807 1.540179 -0.084782
v 0.555115 1.540179 -0.084782
v 0.000000 0.213287 0.000000
v 5.000000 0.213287 0.000000
v 0.000000 2.441141 0.000000
v 5.000000 2.441141 0.000000
v 0.000000 2.441141 -5.000000
v 5.000000 2.441141 -5.000000
v 0.000000 0.213287 -5.000000
v 5.000000 0.213287 -5.000000
v 0.091446 0.360697 0.000000
v 4.908554 0.360697 0.000000
v 4.908554 2.377989 0.000000
v 0.091446 2.377989 0.000000
v 0.091446 0.360697 -0.889163
v 4.908554 0.360697 -0.889163
v 4.908554 2.377989 -0.889163
v 0.091446 2.377989 -0.889163
v 1.448059 0.409488 -0.889163
v 3.551941 0.409488 -0.889163
v 3.551941 2.065197 -0.889163
v 1.448059 2.065197 -0.889163
v 1.448059 0.409488 -1.191589
v 3.551941 0.409488 -1.191589
v 3.551941 2.065197 -1.191589
v 1.448059 2.065197 -1.191589
v -0.054092 2.496129 0.090511
v 5.054092 2.496129 0.090511
v 5.054092 2.496129 -5.090511
v -0.054092 2.496129 -5.090511
v -0.054092 3.000000 0.090511
v 5.054092 3.000000 0.090511
v 5.054092 3.000000 -5.090511
v -0.054092 3.000000 -5.090511
v -0.054092 2.919858 -5.090511
v -0.054092 2.919858 0.090511
v 5.054092 2.919858 0.090511
v 5.054092 2.919858 -5.090511
v -0.054092 2.548610 -5.090511
v -0.054092 2.548610 0.090511
v 5.054092 2.548610 0.090511
v 5.054092 2.548610 -5.090511
v 5.025009 2.592481 0.061007
v -0.025009 2.614470 0.061007
v -0.025009 2.592481 -5.061007
v 5.025009 2.592481 -5.061007
v 5.025009 2.823457 0.061007
v -0.025009 2.874732 0.061007
v -0.025009 2.874732 -5.061007
v 5.025009 2.874732 -5.061007
v -0.052811 0.213287 -5.052811
v 5.052811 0.213287 -5.052811
v 5.052811 0.213287 0.052811
v -0.052811 0.213287 0.052811
v -0.052811 0.000000 -5.052811
v 5.052811 0.000000 -5.052811
v 5.052811 0.000000 0.052811
v -0.052811 0.000000 0.052811
v 2.865280 1.274425 -0.084782
v 3.284378 1.274425 -0.084782
v 2.865280 1.983538 -0.084782
v 3.284378 1.983538 -0.084782
v 4.318649 0.443200 -0.084782
v 4.827393 0.443200 -0.084782
v 4.318649 0.605417 -0.084782
v 4.827393 0.605417 -0.084782
v 0.721939 0.360697 0.000000
v 1.321472 0.360697 0.000000
v 0.912308 0.360697 -0.087613
v 0.925766 0.298351 0.000000
v 4.184341 0.213287 0.052811
v 4.480087 0.213287 0.052811
v 4.306030 0.213287 0.000000
v 4.303131 0.134036 0.052811
v 0.000000 1.367404 0.000000
v 0.000000 2.280070 0.000000
v 0.000000 1.919610 -0.130330
v 0.038849 1.937746 0.000000
v 2.033722 2.548610 0.133190
v 2.603836 2.548610 0.090511
v 2.218292 2.628747 0.061007
v 2.196960 2.496129 0.090511
vt 0.146104 0.443734
vt 0.146104 0.443734
vt 0.146104 0.443734
vt 0.146104 0.443734
vt 0.215968 0.472438
vt 0.215968 0.472438
vt 0.215968 0.472438
vt 0.215968 0.472438
vt 0.101396 0.278767
vt 0.101396 0.278767
vt 0.101396 0.278767
vt 0.101396 0.278767
vt 0.101396 0.278767
vt 0.101396 0.278767
vt 0.101396 0.278767
vt 0.101396 0.278767
vt 0.101396 0.278767
vt 0.101396 0.278767
vt 0.037171 0.303030
vt 0.037171 0.303030
vt 0.101396 0.278767
vt 0.101396 0.278767
vt 0.101396 0.278767
vt 0.101396 0.278767
vt 0.101396 0.278767
vt 0.101396 0.278767
vt 0.101396 0.278767
vt 0.101396 0.278767
vt 0.101396 0.278767
vt 0.101396 0.278767
vt 0.101396 0.255522
vt 0.101396 0.255522
vt 0.101396 0.255522
vt 0.101396 0.255522
vt 0.101396 0.255522
vt 0.101396 0.255522
vt 0.101396 0.255522
vt 0.101396 0.255522
vt 0.101396 0.255522
vt 0.101396 0.255522
vt 0.101396 0.255522
vt 0.101396 0.255522
vt 0.101396 0.255522
vt 0.101396 0.255522
vt 0.101396 0.278767
vt 0.101396 0.255522
vt 0.101396 0.255522
vt 0.101396 0.255522
vt 0.101396 0.278767
vt 0.101396 0.255522
vt 0.101396 0.278767
vt 0.101396 0.255522
vt 0.101396 0.278767
vt 0.101396 0.255522
vt 0.038684 0.303030
vt 0.038684 0.303030
vt 0.038684 0.303030
vt 0.038684 0.303030
vt 0.038684 0.303030
vt 0.038684 0.303030
vt 0.038684 0.303030
vt 0.038684 0.303030
vt 0.038684 0.303030
vt 0.038684 0.303030
vt 0.038684 0.303030
vt 0.038684 0.303030
vt 0.038684 0.303030
vt 0.038684 0.303030
vt 0.038684 0.303030
vt 0.038684 0.303030
vt 0.038684 0.303030
vt 0.038684 0.303030
vt 0.038684 0.303030
vt 0.038684 0.303030
vt 0.038684 0.303030
vt 0.038684 0.303030
vt 0.038684 0.303030
vt 0.038684 0.303030
vt 0.038684 0.303030
vt 0.038684 0.303030
vt 0.038684 0.303030
vt 0.038684 0.303030
vt 0.037171 0.303030
vt 0.037171 0.303030
vt 0.037171 0.303030
vt 0.037171 0.303030
vt 0.037171 0.303030
vt 0.037171 0.303030
vt 0.037171 0.303030
vt 0.037171 0.303030
vt 0.037171 0.303030
vt 0.037171 0.303030
vt 0.134756 0.354470
vt 0.134756 0.354470
vt 0.134756 0.354470
vt 0.134756 0.354470
vt 0.215968 0.472438
vt 0.215968 0.472438
vt 0.215968 0.472438
vt 0.215968 0.472438
vt 0.101396 0.278767
vt 0.101396 0.278767
vt 0.101396 0.278767
vt 0.101396 0.278767
vt 0.037171 0.303030
vt 0.037171 0.303030
vt 0.101396 0.278767
vt 0.037171 0.303030
vt 0.037171 0.303030
vt 0.101396 0.278767
vt 0.101396 0.278767
vt 0.101396 0.278767
vt 0.101396 0.278767
vt 0.038684 0.303030
vt 0.038684 0.303030
vt 0.038684 0.303030
vt 0.038684 0.303030
vn 0.000000 0.000000 1.000000
vn 0.000000 0.000000 1.000000
vn 0.000000 0.000000 1.000000
vn 0.000000 0.000000 1.000000
vn 0.000000 0.000000 1.000000
vn 0.000000 0.000000 1.000000
vn 0.000000 0.000000 1.000000
vn 0.000000 0.000000 1.000000
vn 0.000000 0.000000 1.000000
vn 0.000000 0.000000 1.000000
vn 0.000000 0.000000 1.000000
vn 0.000000 0.000000 1.000000
vn 0.000000 1.000000 0.000000
vn 0.000000 1.000000 0.000000
vn 0.000000 1.000000 0.000000
vn 0.000000 1.000000 0.000000
vn 0.000000 0.000000 -1.000000
vn 0.000000 0.000000 -1.000000
vn 0.000000 0.000000 -1.000000
vn 0.000000 0.000000 -1.000000
vn 0.000000 -1.000000 0.000000
vn 0.000000 -1.000000 0.000000
vn 0.000000 -1.000000 0.000000
vn 0.000000 -1.000000 0.000000
vn 1.000000 0.000000 0.000000
vn 1.000000 0.000000 0.000000
vn 1.000000 0.000000 0.000000
vn 1.000000 0.000000 0.000000
vn -1.000000 0.000000 0.000000
vn -1.000000 0.000000 0.000000
vn -1.000000 0.000000 0.000000
vn 0.000000 0.000000 1.000000
vn 0.000000 0.000000 1.000000
vn 0.000000 0.000000 1.000000
vn 0.000000 0.000000 1.000000
vn 0.000000 0.000000 1.000000
vn 0.000000 0.000000 1.000000
vn 0.000000 0.000000 1.000000
vn 0.000000 0.000000 1.000000
vn 0.000000 0.000000 1.000000
vn 0.000000 0.000000 1.000000
vn 0.000000 0.000000 1.000000
vn 0.000000 0.000000 1.000000
vn 0.000000 0.000000 1.000000
vn 0.000000 0.000000 1.000000
vn 0.000000 0.000000 1.000000
vn 0.000000 0.000000 1.000000
vn 0.000000 1.000000 0.000000
vn 0.000000 1.000000 0.000000
vn 0.000000 1.000000 0.000000
vn 0.000000 1.000000 0.000000
vn 0.000000 1.000000 0.000000
vn 0.000000 1.000000 0.000000
vn 0.000000 1.000000 0.000000
vn -1.000000 0.000000 0.000000
vn -1.000000 0.000000 0.000000
vn -1.000000 0.000000 0.000000
vn -1.000000 0.000000 0.000000
vn 0.000000 -1.000000 0.000000
vn 0.000000 -1.000000 0.000000
vn 0.000000 -1.000000 0.000000
vn 0.000000 -1.000000 0.000000
vn 1.000000 0.000000 0.000000
vn 1.000000 0.000000 0.000000
vn 1.000000 0.000000 0.000000
vn 1.000000 0.000000 0.000000
vn 0.000000 0.000000 1.000000
vn 0.000000 0.000000 1.000000
vn 0.000000 0.000000 1.000000
vn 0.000000 0.000000 1.000000
vn -0.000000 0.000000 1.000000
vn -0.000000 0.000000 1.000000
vn -0.000000 0.000000 1.000000
vn -0.000000 0.000000 1.000000
vn 0.000000 0.000000 1.000000
vn 0.000000 0.000000 1.000000
vn 0.000000 0.000000 1.000000
vn 0.000000 0.000000 1.000000
vn -0.000000 0.000000 1.000000
vn -0.000000 0.000000 1.000000
vn -0.000000 0.000000 1.000000
vn -0.000000 0.000000 1.000000
vn 0.000000 1.000000 0.000000
vn 0.000000 1.000000 0.000000
vn 0.000000 1.000000 0.000000
vn 0.000000 1.000000 0.000000
vn -1.000000 0.000000 0.000000
vn -1.000000 0.000000 0.000000
vn -1.000000 0.000000 0.000000
vn -1.000000 0.000000 0.000000
vn 0.000000 -1.000000 0.000000
vn 0.000000 -1.000000 0.000000
vn 0.000000 -1.000000 0.000000
vn 0.000000 -1.000000 0.000000
vn 1.000000 0.000000 0.000000
vn 1.000000 0.000000 0.000000
vn 1.000000 0.000000 0.000000
vn 1.000000 0.000000 0.000000
vn 0.000000 -0.854642 0.519218
vn 0.000000 -0.854642 0.519218
vn 0.000000 -0.854642 0.519218
vn 0.712888 -0.701278 0.000000
vn 0.712888 -0.701278 0.000000
vn 0.712888 -0.701278 0.000000
vn 0.712888 -0.701278 0.000000
vn 0.000000 -0.854641 -0.519219
vn 0.000000 -0.854641 -0.519219
vn 0.000000 -0.854641 -0.519219
vn 0.000000 -0.854641 -0.519219
vn -0.712888 -0.701278 0.000000
vn -0.712888 -0.701278 0.000000
vn -0.712888 -0.701278 0.000000
vn -0.712888 -0.701278 0.000000
vn 0.000000 0.000000 1.000000
vn 0.000000 0.000000 1.000000
vn 0.000000 0.000000 1.000000
vn 0.000000 0.000000 1.000000
vn 1.000000 0.000000 0.000000
vn 1.000000 0.000000 0.000000
vn 1.000000 0.000000 0.000000
vn 1.000000 0.000000 0.000000
vn 0.000000 0.000000 -1.000000
vn 0.000000 0.000000 -1.000000
vn 0.000000 0.000000 -1.000000
vn 0.000000 0.000000 -1.000000
vn -1.000000 0.000000 0.000000
vn -1.000000 0.000000 0.000000
vn -1.000000 0.000000 0.000000
vn -1.000000 0.000000 0.000000
vn -0.883544 0.468347 -0.001000
vn -0.883544 0.468347 -0.001000
vn -0.883544 0.468347 -0.001000
vn -0.883544 0.468348 -0.001000
vn -0.009934 0.581253 0.813662
vn -0.009934 0.581253 0.813662
vn -0.009934 0.581253 0.813662
vn -0.009934 0.581253 0.813662
vn 0.833489 0.552535 0.000000
vn 0.833490 0.552535 0.000000
vn 0.833489 0.552535 0.000000
vn 0.833489 0.552535 0.000000
vn 0.000000 0.558057 -0.829803
vn 0.000000 0.558057 -0.829803
vn 0.000000 0.558057 -0.829803
vn 0.000000 0.558057 -0.829803
vn -1.000000 0.000000 0.000000
vn -1.000000 0.000000 0.000000
vn -1.000000 0.000000 0.000000
vn -1.000000 0.000000 0.000000
vn 0.000000 0.000000 1.000000
vn 0.000000 0.000000 1.000000
vn 0.000000 0.000000 1.000000
vn 0.000000 0.000000 1.000000
vn 1.000000 0.000000 0.000000
vn 1.000000 0.000000 0.000000
vn 1.000000 0.000000 0.000000
vn 1.000000 0.000000 0.000000
vn 0.000000 0.000000 -1.000000
vn 0.000000 0.000000 -1.000000
vn 0.000000 0.000000 -1.000000
vn 0.000000 0.000000 -1.000000
vn -0.000000 0.000000 1.000000
vn -0.000000 0.000000 1.000000
vn -0.000000 0.000000 1.000000
vn -1.000000 0.000000 0.000000
vn -1.000000 0.000000 0.000000
vn -1.000000 0.000000 0.000000
vn -1.000000 0.000000 0.000000
vn 0.000000 0.000000 -1.000000
vn 0.000000 0.000000 -1.000000
vn 0.000000 0.000000 -1.000000
vn 0.000000 0.000000 -1.000000
vn 1.000000 0.000000 0.000000
vn 1.000000 0.000000 0.000000
vn 1.000000 0.000000 0.000000
vn 1.000000 0.000000 0.000000
vn -0.001942 -0.384828 0.922986
vn -0.001942 -0.384828 0.922986
vn -0.001942 -0.384828 0.922986
vn -0.001942 -0.384828 0.922986
vn -0.840556 -0.541725 0.000000
vn -0.840556 -0.541725 0.000000
vn -0.840556 -0.541725 0.000000
vn -0.840556 -0.541725 0.000000
vn 0.000000 -0.547230 -0.836983
vn 0.000000 -0.547230 -0.836983
vn 0.000000 -0.547230 -0.836983
vn 0.000000 -0.547230 -0.836983
vn 0.924928 -0.380137 -0.001892
vn 0.924928 -0.380137 -0.001892
vn 0.924928 -0.380137 -0.001892
vn 0.924928 -0.380137 -0.001892
vn 0.000000 1.000000 -0.000000
vn 0.000000 1.000000 -0.000000
vn 0.000000 1.000000 -0.000000
vn 0.000000 1.000000 -0.000000
vn 0.000000 1.000000 0.000000
vn 0.000000 1.000000 0.000000
vn 0.000000 1.000000 0.000000
vn 0.000000 1.000000 0.000000
vn 0.000000 1.000000 0.000000
vn 0.000000 1.000000 0.000000
vn 0.000000 1.000000 0.000000
vn 0.000000 1.000000 0.000000
vn 0.000000 1.000000 0.000000
vn 0.000000 1.000000 0.000000
vn 0.000000 1.000000 0.000000
vn 0.000000 1.000000 0.000000
vn 0.000000 0.000000 -1.000000
vn 0.000000 0.000000 -1.000000
vn 0.000000 0.000000 -1.000000
vn 0.000000 0.000000 -1.000000
vn 1.000000 0.000000 0.000000
vn 1.000000 0.000000 0.000000
vn 1.000000 0.000000 0.000000
vn 1.000000 0.000000 0.000000
vn 0.000000 -0.000000 1.000000
vn 0.000000 -0.000000 1.000000
vn 0.000000 -0.000000 1.000000
vn 0.000000 -0.000000 1.000000
vn 0.000000 -0.000000 1.000000
vn 0.000000 -0.000000 1.000000
vn 0.000000 -0.000000 1.000000
vn -1.000000 0.000000 0.000000
vn -1.000000 0.000000 0.000000
vn -1.000000 0.000000 0.000000
vn -1.000000 0.000000 0.000000
vn 0.000000 0.000000 1.000000
vn 0.000000 0.000000 1.000000
vn 0.000000 0.000000 1.000000
vn 0.000000 0.000000 1.000000
vn 0.000000 0.000000 1.000000
vn 0.000000 0.000000 1.000000
vn 0.000000 0.000000 1.000000
vn 0.000000 0.000000 1.000000
vn 0.246862 0.807061 0.536388
vn 0.246862 0.807061 0.536388
vn 0.246862 0.807061 0.536388
vn -0.125895 0.799045 0.587944
vn -0.125895 0.799045 0.587944
vn -0.125895 0.799045 0.587944
vn 0.000000 1.000000 0.000000
vn 0.000000 1.000000 0.000000
vn 0.000000 1.000000 0.000000
vn 0.000000 1.000000 0.000000
vn 0.341867 0.512428 0.787747
vn 0.341867 0.512428 0.787747
vn 0.341867 0.512428 0.787747
vn -0.243624 0.543979 0.802953
vn -0.243624 0.543979 0.802953
vn -0.243624 0.543979 0.802953
vn -0.958737 0.065304 0.276693
vn -0.958737 0.065304 0.276693
vn -0.958737 0.065304 0.276693
vn -0.948562 -0.107648 0.297728
vn -0.948562 -0.107648 0.297728
vn -0.948562 -0.107648 0.297727
vn -1.000000 0.000000 0.000000
vn -1.000000 0.000000 0.000000
vn -1.000000 0.000000 0.000000
vn -1.000000 0.000000 0.000000
vn -1.000000 0.000000 0.000000
vn -1.000000 0.000000 0.000000
vn -1.000000 0.000000 0.000000
vn -1.000000 0.000000 0.000000
vn 0.000000 0.000000 1.000000
vn 0.000000 0.000000 1.000000
vn 0.000000 0.000000 1.000000
vn 0.000000 0.000000 1.000000
vn 0.000000 0.000000 1.000000
vn 0.000000 0.000000 1.000000
vn 0.000000 0.000000 1.000000
vn 0.000000 0.000000 1.000000
vn 0.000000 0.000000 1.000000
vn 0.000000 0.000000 1.000000
vn 0.000000 0.000000 1.000000
vn 0.000000 0.000000 1.000000
vn 0.000000 0.000000 1.000000
vn 0.000000 0.000000 1.000000
vn 0.000000 0.000000 1.000000
vn 0.000000 0.000000 1.000000
vn 0.000000 0.000000 1.000000
vn 0.003021 0.437888 0.899024
vn 0.003021 0.437888 0.899024
vn 0.003021 0.437888 0.899024
vn 0.003021 0.437888 0.899024
vn -0.009063 -0.388719 0.921312
vn -0.009063 -0.388719 0.921312
vn -0.009063 -0.388719 0.921312
vn -0.009063 -0.388719 0.921312
vn 0.297883 0.161402 0.940859
vn 0.297883 0.161402 0.940859
vn 0.297883 0.161402 0.940859
vn -0.028564 0.221451 0.974753
vn -0.028564 0.221451 0.974753
vn -0.028564 0.221451 0.974753
vn 0.000000 0.000000 1.000000
vn 0.000000 0.000000 1.000000
vn 0.000000 0.000000 1.000000
vn 0.000000 0.000000 1.000000
vn 0.000000 0.000000 1.000000
vn 0.000000 0.000000 1.000000
vn 0.000000 -0.854640 0.519220
vn 0.000000 -0.854640 0.519220
vn 0.000000 -0.854640 0.519220
vn 0.000000 -0.854641 0.519219
vn 0.000000 -0.854641 0.519219
vn 0.000000 -0.854641 0.519219
s off
f 1/1/1 2/2/2 4/3/3 3/4/4
f 5/5/5 6/6/6 8/7/7 7/8/8
f 29/35/9 30/48/10 31/44/11 32/42/12
f 37/55/13 38/56/14 39/57/15 40/58/16
f 13/16/17 14/15/18 16/17/19 15/18/20
f 61/19/21 62/20/22 63/83/23 64/84/24
f 10/21/25 16/22/26 14/23/27 12/14/28
f 15/24/29 83/112/30 13/26/31
f 9/25/32 76/104/33 73/101/34 17/28/35
f 10/21/36 12/14/37 19/29/38 18/27/39
f 12/14/40 11/13/41 20/30/42 19/29/43
f 17/28/44 84/113/45 81/110/46 9/25/47
f 17/28/48 73/101/49 75/103/50 74/102/51 18/27/52 22/10/53 21/9/54
f 18/27/55 19/29/56 23/11/57 22/10/58
f 19/29/59 20/30/60 24/12/61 23/11/62
f 20/30/63 17/28/64 21/9/65 24/12/66
f 21/9/67 22/10/68 26/51/69 25/53/70
f 22/10/71 23/11/72 27/49/73 26/51/74
f 23/11/75 24/12/76 28/45/77 27/49/78
f 24/12/79 21/9/80 25/53/81 28/45/82
f 25/31/83 26/52/84 30/47/85 29/39/86
f 26/32/87 27/50/88 31/43/89 30/36/90
f 27/33/91 28/46/92 32/41/93 31/37/94
f 28/34/95 25/54/96 29/40/97 32/38/98
f 11/59/99 88/117/100 33/62/101
f 12/60/102 14/63/103 35/64/104 34/61/105
f 14/63/106 13/65/107 36/66/108 35/64/109
f 13/65/110 11/59/111 33/62/112 36/66/113
f 42/67/114 43/68/115 38/56/116 37/55/117
f 43/68/118 44/69/119 39/57/120 38/56/121
f 44/69/122 41/70/123 40/58/124 39/57/125
f 41/70/126 42/67/127 37/55/128 40/58/129
f 45/71/130 46/72/131 50/73/132 51/74/133
f 46/72/134 85/114/135 87/116/136 50/73/137
f 47/75/138 48/77/139 52/78/140 49/76/141
f 48/77/142 45/71/143 51/74/144 52/78/145
f 36/66/146 33/62/147 46/72/148 45/71/149
f 86/115/150 88/117/151 34/61/152 47/75/153
f 34/61/154 35/64/155 48/77/156 47/75/157
f 35/64/158 36/66/159 45/71/160 48/77/161
f 54/80/162 87/116/163 53/79/164
f 51/74/165 50/73/166 54/80/167 55/81/168
f 52/78/169 51/74/170 55/81/171 56/82/172
f 49/76/173 52/78/174 56/82/175 53/79/176
f 54/80/177 53/79/178 43/68/179 42/67/180
f 55/81/181 54/80/182 42/67/183 41/70/184
f 56/82/185 55/81/186 41/70/187 44/69/188
f 53/79/189 56/82/190 44/69/191 43/68/192
f 15/85/193 16/86/194 58/87/195 57/88/196
f 16/86/197 10/89/198 59/90/199 58/87/200
f 77/105/201 79/108/202 9/91/203 60/92/204
f 9/91/205 15/85/206 57/88/207 60/92/208
f 57/88/209 58/87/210 62/20/211 61/19/212
f 58/87/213 59/90/214 63/83/215 62/20/216
f 59/90/217 78/106/218 80/109/219 77/105/220 60/92/221 64/84/222 63/83/223
f 60/92/224 57/88/225 61/19/226 64/84/227
f 65/93/228 66/94/229 68/95/230 67/96/231
f 69/97/232 70/98/233 72/99/234 71/100/235
f 76/104/236 75/103/237 73/101/238
f 74/102/239 75/103/240 76/104/241
f 10/89/242 79/108/243 78/106/244 59/90/245
f 80/109/246 79/108/247 77/105/248
f 78/106/249 79/108/250 80/109/251
f 84/113/252 83/112/253 81/110/254
f 82/111/255 83/112/256 84/113/257
f 15/24/258 9/25/259 81/110/260 83/112/261
f 13/26/262 83/112/263 82/111/264 11/13/265
f 11/13/266 82/111/267 84/113/268 20/30/269
f 20/30/270 84/113/271 17/28/272
f 76/104/273 79/107/274 18/27/275 74/102/276
f 9/25/277 79/107/278 76/104/279
f 18/27/280 79/107/281 10/21/282
f 87/116/283 86/115/284 47/75/285 49/76/286
f 33/62/287 88/117/288 85/114/289 46/72/290
f 85/114/291 88/117/292 87/116/293
f 87/116/294 88/117/295 86/115/296
f 50/73/297 87/116/298 54/80/299
f 53/79/300 87/116/301 49/76/302
f 88/117/303 12/60/304 34/61/305
f 11/59/306 12/60/307 88/117/308
