# This file uses centimeters as units for non-parametric coordinates.

v 0.789711 1.856777 -0.081179
v 0.177734 1.856777 -0.081179
v 0.177734 0.797062 -0.081179
v 0.789711 0.797062 -0.081179
v 0.899605 0.159142 -0.081179
v 1.511581 0.159142 -0.081179
v 1.511581 0.668312 -0.081179
v 0.899605 0.668312 -0.081179
v 0.081177 1.856777 -4.796022
v 0.081177 0.797062 -4.796022
v 0.081177 0.797062 -3.407660
v 0.081177 1.856777 -3.407660
v 4.889847 0.797062 -0.008919
v 4.889847 1.856777 -0.008919
v 3.469437 1.856777 -0.008919
v 3.469437 0.797062 -0.008919
v 3.970795 0.797062 -0.008919
v 1.677055 1.856777 -0.008919
v 1.677055 0.797062 -0.008919
v 3.322937 0.797062 -0.008919
v 3.322937 1.856777 -0.008919
v 1.511581 1.856777 -0.081179
v 0.899605 1.856777 -0.081179
v 0.899605 0.797062 -0.081179
v 1.511581 0.797062 -0.081179
v 0.081177 0.797062 -0.124172
v 0.081177 1.856777 -0.124172
v 0.081177 1.856777 -1.512535
v 0.081177 0.797062 -1.512535
v 0.081177 1.856777 -3.264478
v 0.081177 0.797062 -3.264478
v 0.081177 0.797062 -1.655716
v 0.081177 1.054207 -1.655716
v 0.081177 1.856777 -1.655716
v 0.177734 0.668312 -0.081179
v 0.177734 0.159142 -0.081179
v 0.789711 0.159142 -0.081179
v 0.789711 0.668312 -0.081179
vt 0.505817 0.105454
vt 0.605998 0.105454
vt 0.605998 0.005272
vt 0.505817 0.005272
vt 0.605998 0.005272
vt 0.505817 0.005272
vt 0.505817 0.105454
vt 0.605998 0.105454
vt 0.605998 0.105454
vt 0.605998 0.005272
vt 0.505817 0.005272
vt 0.505817 0.105454
vt 0.505817 0.005272
vt 0.505817 0.105454
vt 0.605998 0.105454
vt 0.605998 0.005272
vt 0.570637 0.005272
vt 0.605998 0.105454
vt 0.605998 0.005272
vt 0.505817 0.005272
vt 0.505817 0.105454
vt 0.505817 0.105454
vt 0.605998 0.105454
vt 0.605998 0.005272
vt 0.505817 0.005272
vt 0.505817 0.005272
vt 0.505817 0.105454
vt 0.605998 0.105454
vt 0.605998 0.005272
vt 0.605998 0.105454
vt 0.605998 0.005272
vt 0.505817 0.005272
vt 0.505817 0.029582
vt 0.505817 0.105454
vt 0.605998 0.105454
vt 0.605998 0.005272
vt 0.505817 0.005272
vt 0.505817 0.105454
vn 0.000000 0.000000 1.000000
vn 0.000000 0.000000 1.000000
vn 0.000000 0.000000 1.000000
vn 0.000000 0.000000 1.000000
vn 0.000000 0.000000 1.000000
vn 0.000000 0.000000 1.000000
vn 0.000000 0.000000 1.000000
vn 0.000000 0.000000 1.000000
vn -1.000000 0.000000 0.000000
vn -1.000000 0.000000 0.000000
vn -1.000000 0.000000 0.000000
vn -1.000000 0.000000 0.000000
vn 0.000000 0.000000 1.000000
vn 0.000000 0.000000 1.000000
vn 0.000000 0.000000 1.000000
vn 0.000000 0.000000 1.000000
vn 0.000000 0.000000 1.000000
vn 0.000000 0.000000 1.000000
vn 0.000000 0.000000 1.000000
vn 0.000000 0.000000 1.000000
vn 0.000000 0.000000 1.000000
vn 0.000000 0.000000 1.000000
vn 0.000000 0.000000 1.000000
vn 0.000000 0.000000 1.000000
vn 0.000000 0.000000 1.000000
vn -1.000000 0.000000 0.000000
vn -1.000000 0.000000 0.000000
vn -1.000000 0.000000 0.000000
vn -1.000000 0.000000 0.000000
vn -1.000000 -0.000000 0.000000
vn -1.000000 -0.000000 0.000000
vn -1.000000 -0.000000 0.000000
vn -1.000000 -0.000000 0.000000
vn -1.000000 -0.000000 0.000000
vn 0.000000 0.000000 1.000000
vn 0.000000 0.000000 1.000000
vn 0.000000 0.000000 1.000000
vn 0.000000 0.000000 1.000000
s off
f 1/1/1 2/2/2 3/3/3 4/4/4
f 5/5/5 6/6/6 7/7/7 8/8/8
f 9/9/9 10/10/10 11/11/11 12/12/12
f 13/13/13 14/14/14 15/15/15 16/16/16 17/17/17
f 18/18/18 19/19/19 20/20/20 21/21/21
f 22/22/22 23/23/23 24/24/24 25/25/25
f 26/26/26 27/27/27 28/28/28 29/29/29
f 30/30/30 31/31/31 32/32/32 33/33/33 34/34/34
f 35/35/35 36/36/36 37/37/37 38/38/38
