# This file uses centimeters as units for non-parametric coordinates.

v 0.940454 0.000000 -0.940454
v 0.000000 0.000000 -1.330004
v -0.940454 0.000000 -0.940454
v -1.330004 0.000000 0.000000
v -0.940454 0.000000 0.940454
v 0.000000 0.000000 1.330004
v 0.940454 0.000000 0.940454
v 1.330004 0.000000 0.000000
v 0.707107 0.563992 -0.707108
v 0.000000 0.563992 -1.000000
v -0.707107 0.563992 -0.707108
v -1.000000 0.563992 0.000000
v -0.707107 0.563992 0.707108
v 0.000000 0.563992 1.000000
v 0.707107 0.563992 0.707108
v 1.000000 0.563992 0.000000
v 0.304420 0.563992 -0.304420
v 0.000000 0.563992 -0.430515
v -0.304420 0.563992 -0.304420
v -0.430515 0.563992 0.000000
v -0.304420 0.563992 0.304420
v 0.000000 0.563992 0.430515
v 0.304420 0.563992 0.304420
v 0.430515 0.563992 0.000000
v 0.212027 5.989719 -0.307331
v -0.047379 5.989719 -0.414780
v -0.306784 5.989719 -0.307331
v -0.414233 5.989719 -0.047926
v -0.306784 5.989719 0.211479
v -0.047379 5.989719 0.318928
v 0.212027 5.989719 0.211479
v 0.319475 5.989719 -0.047926
v 0.091321 21.313847 -0.091320
v 0.000000 21.313847 -0.129147
v 0.000000 21.313847 0.000000
v -0.091321 21.313847 -0.091320
v -0.129147 21.313847 0.000000
v -0.091321 21.313847 0.091320
v 0.000000 21.313847 0.129147
v 0.091321 21.313847 0.091320
v 0.129147 21.313847 0.000000
v -0.034822 13.651783 0.261713
v -0.210185 13.651783 0.189075
v -0.282823 13.651783 0.013714
v -0.210185 13.651783 -0.161650
v -0.034822 13.651783 -0.234287
v 0.140541 13.651783 -0.161650
v 0.213179 13.651783 0.013714
v 0.140541 13.651783 0.189075
vt 0.418068 0.445408
vt 0.418067 0.445408
vt 0.418067 0.445408
vt 0.418068 0.445408
vt 0.418067 0.445408
vt 0.418067 0.445408
vt 0.418067 0.445408
vt 0.418067 0.445408
vt 0.418067 0.445408
vt 0.418067 0.445408
vt 0.418067 0.445408
vt 0.418067 0.445408
vt 0.418067 0.445408
vt 0.418067 0.445408
vt 0.418067 0.445408
vt 0.418067 0.445408
vt 0.418067 0.445408
vt 0.418067 0.445408
vt 0.418067 0.445408
vt 0.418067 0.445408
vt 0.418067 0.445408
vt 0.418068 0.445408
vt 0.418068 0.445408
vt 0.418068 0.445408
vt 0.418067 0.445408
vt 0.418067 0.445408
vt 0.418067 0.445408
vt 0.418067 0.445408
vt 0.418067 0.445408
vt 0.418067 0.445408
vt 0.418067 0.445408
vt 0.418068 0.445408
vt 0.418068 0.445408
vt 0.418068 0.445408
vt 0.418068 0.445408
vt 0.418068 0.445408
vt 0.418068 0.445408
vt 0.418067 0.445408
vt 0.418067 0.445408
vt 0.418067 0.445408
vt 0.418067 0.445408
vt 0.418067 0.445408
vt 0.418067 0.445408
vt 0.418067 0.445408
vt 0.418067 0.445408
vt 0.418068 0.445408
vt 0.418068 0.445408
vt 0.418068 0.445408
vt 0.418067 0.445408
vt 0.418067 0.445408
vt 0.418067 0.445408
vt 0.418067 0.445408
vt 0.418067 0.445408
vt 0.418068 0.445408
vt 0.418068 0.445408
vt 0.418068 0.445408
vt 0.418067 0.445408
vt 0.418067 0.445408
vt 0.418067 0.445408
vn 0.336643 0.475545 -0.812729
vn 0.336643 0.475545 -0.812729
vn 0.336643 0.475545 -0.812729
vn 0.336643 0.475545 -0.812729
vn -0.336643 0.475545 -0.812729
vn -0.336643 0.475545 -0.812729
vn -0.336643 0.475545 -0.812729
vn -0.336643 0.475545 -0.812729
vn -0.812729 0.475545 -0.336643
vn -0.812729 0.475545 -0.336643
vn -0.812729 0.475545 -0.336643
vn -0.812729 0.475545 -0.336643
vn -0.812729 0.475545 0.336643
vn -0.812729 0.475545 0.336643
vn -0.812729 0.475545 0.336643
vn -0.812729 0.475545 0.336643
vn -0.336643 0.475545 0.812729
vn -0.336643 0.475545 0.812729
vn -0.336643 0.475545 0.812729
vn -0.336643 0.475545 0.812729
vn 0.336643 0.475545 0.812729
vn 0.336643 0.475545 0.812729
vn 0.336643 0.475545 0.812729
vn 0.336643 0.475545 0.812729
vn 0.812729 0.475545 0.336643
vn 0.812729 0.475545 0.336643
vn 0.812729 0.475545 0.336643
vn 0.812729 0.475545 0.336643
vn 0.812729 0.475545 -0.336643
vn 0.812729 0.475545 -0.336643
vn 0.812729 0.475545 -0.336643
vn 0.812729 0.475545 -0.336643
vn 0.000000 1.000000 0.000000
vn 0.000000 1.000000 0.000000
vn 0.000000 1.000000 0.000000
vn 0.000000 1.000000 0.000000
vn 0.000000 1.000000 0.000010
vn 0.000000 1.000000 0.000000
vn 0.000000 1.000000 0.000010
vn 0.000000 1.000000 0.000010
vn 0.000000 1.000000 0.000000
vn 0.000000 1.000000 0.000010
vn 0.000000 1.000000 0.000000
vn 0.000000 1.000000 0.000000
vn 0.000000 1.000000 0.000000
vn 0.000000 1.000000 0.000000
vn 0.000000 1.000000 0.000000
vn 0.000000 1.000000 0.000000
vn 0.000000 1.000000 -0.000010
vn 0.000000 1.000000 0.000000
vn 0.000000 1.000000 -0.000010
vn 0.000000 1.000000 -0.000010
vn 0.000000 1.000000 0.000000
vn 0.000000 1.000000 -0.000010
vn 0.000000 1.000000 0.000000
vn 0.000000 1.000000 0.000000
vn 0.000000 1.000000 0.000000
vn 0.000000 1.000000 0.000000
vn 0.000000 1.000000 0.000000
vn 0.000000 1.000000 0.000000
vn 0.000000 1.000000 0.000000
vn 0.000000 1.000000 0.000000
vn 0.000000 1.000000 0.000000
vn 0.000000 1.000000 0.000000
vn 0.000000 1.000000 -0.000000
vn 0.000000 1.000000 -0.000000
vn 0.000000 1.000000 -0.000000
vn 0.000000 1.000000 -0.000000
vn 0.000000 1.000000 0.000000
vn 0.000000 1.000000 0.000000
vn 0.000000 1.000000 0.000000
vn 0.000000 1.000000 0.000000
vn 0.000000 1.000000 0.000000
vn 0.000000 1.000000 0.000000
vn 0.000000 1.000000 0.000000
vn 0.000000 1.000000 0.000000
vn 0.000000 1.000000 0.000000
vn 0.000000 1.000000 0.000000
vn 0.000000 1.000000 0.000000
vn 0.000000 1.000000 0.000000
vn 0.000000 1.000000 0.000000
vn 0.000000 1.000000 0.000000
vn 0.000000 1.000000 0.000000
vn 0.000000 1.000000 0.000000
vn 0.000000 1.000000 -0.000000
vn 0.000000 1.000000 -0.000000
vn 0.000000 1.000000 -0.000000
vn 0.000000 1.000000 -0.000000
vn 0.382675 0.006021 -0.923863
vn 0.382675 0.006021 -0.923863
vn 0.382675 0.006021 -0.923863
vn 0.382675 0.006021 -0.923863
vn -0.382682 -0.000662 -0.923880
vn -0.382682 -0.000662 -0.923880
vn -0.382682 -0.000662 -0.923880
vn -0.382682 -0.000662 -0.923880
vn -0.923879 -0.000608 -0.382684
vn -0.923879 -0.000608 -0.382684
vn -0.923879 -0.000608 -0.382684
vn -0.923879 -0.000608 -0.382684
vn -0.923862 0.006153 0.382676
vn -0.923862 0.006153 0.382676
vn -0.923862 0.006153 0.382676
vn -0.923862 0.006153 0.382676
vn -0.382635 0.015657 0.923767
vn -0.382635 0.015657 0.923767
vn -0.382635 0.015657 0.923767
vn -0.382635 0.015657 0.923767
vn 0.382587 0.022337 0.923650
vn 0.382587 0.022337 0.923650
vn 0.382587 0.022337 0.923650
vn 0.382587 0.022337 0.923649
vn 0.923651 0.022282 0.382587
vn 0.923651 0.022282 0.382587
vn 0.923651 0.022282 0.382587
vn 0.923651 0.022282 0.382587
vn 0.923769 0.015525 -0.382636
vn 0.923769 0.015525 -0.382636
vn 0.923769 0.015525 -0.382636
vn 0.923769 0.015525 -0.382636
vn 0.382596 0.021132 -0.923674
vn 0.382596 0.021132 -0.923674
vn 0.382625 0.017287 -0.923742
vn 0.382625 0.017262 -0.923742
vn -0.382587 0.022385 -0.923649
vn -0.382587 0.022385 -0.923648
vn -0.382611 0.019374 -0.923706
vn -0.382611 0.019366 -0.923707
vn -0.923714 0.018920 -0.382615
vn -0.923714 0.018920 -0.382615
vn -0.923722 0.018512 -0.382617
vn -0.923722 0.018513 -0.382617
vn -0.923804 0.012766 0.382654
vn -0.923804 0.012766 0.382654
vn -0.923772 0.015213 0.382640
vn -0.923773 0.015197 0.382640
vn -0.382672 0.007526 0.923854
vn -0.382672 0.007526 0.923854
vn -0.382658 0.011397 0.923820
vn -0.382658 0.011372 0.923820
vn 0.382674 0.006272 0.923862
vn 0.382674 0.006272 0.923862
vn 0.382666 0.009293 0.923840
vn 0.382666 0.009285 0.923840
vn 0.923836 0.009738 0.382665
vn 0.923836 0.009738 0.382665
vn 0.923832 0.010146 0.382664
vn 0.923832 0.010147 0.382664
vn 0.923764 0.015894 -0.382633
vn 0.923764 0.015894 -0.382633
vn 0.923797 0.013462 -0.382647
vn 0.923797 0.013447 -0.382647
vn -0.382658 0.011372 0.923820
vn -0.382658 0.011397 0.923820
vn -0.382624 0.017721 0.923734
vn -0.382624 0.017721 0.923734
vn -0.923773 0.015197 0.382640
vn -0.923772 0.015213 0.382640
vn -0.923709 0.019211 0.382613
vn -0.923709 0.019211 0.382613
vn -0.923722 0.018513 -0.382617
vn -0.923722 0.018512 -0.382617
vn -0.923733 0.017842 -0.382620
vn -0.923734 0.017842 -0.382620
vn -0.382611 0.019366 -0.923707
vn -0.382611 0.019374 -0.923706
vn -0.382644 0.014415 -0.923783
vn -0.382644 0.014415 -0.923783
vn 0.382625 0.017262 -0.923742
vn 0.382625 0.017287 -0.923742
vn 0.382660 0.010938 -0.923825
vn 0.382660 0.010938 -0.923825
vn 0.923797 0.013447 -0.382647
vn 0.923797 0.013462 -0.382647
vn 0.923839 0.009447 -0.382664
vn 0.923839 0.009447 -0.382664
vn 0.923832 0.010147 0.382664
vn 0.923832 0.010146 0.382664
vn 0.923826 0.010817 0.382661
vn 0.923826 0.010817 0.382661
vn 0.382666 0.009285 0.923840
vn 0.382666 0.009293 0.923840
vn 0.382644 0.014244 0.923786
vn 0.382644 0.014244 0.923786
s off
f 1/1/1 2/2/2 10/3/3 9/4/4
f 2/2/5 3/5/6 11/6/7 10/3/8
f 3/5/9 4/7/10 12/8/11 11/6/12
f 4/7/13 5/9/14 13/10/15 12/8/16
f 5/9/17 6/11/18 14/12/19 13/10/20
f 6/11/21 7/13/22 15/14/23 14/12/24
f 7/13/25 8/15/26 16/16/27 15/14/28
f 8/15/29 1/17/30 9/18/31 16/16/32
f 33/19/33 34/20/34 35/21/35
f 34/20/36 36/22/37 35/21/38
f 36/22/39 37/23/40 35/21/41
f 37/23/42 38/24/43 35/21/44
f 38/24/45 39/25/46 35/21/47
f 39/25/48 40/26/49 35/21/50
f 40/26/51 41/27/52 35/21/53
f 41/27/54 33/19/55 35/21/56
f 9/28/57 10/29/58 18/30/59 17/31/60
f 10/29/61 11/32/62 19/33/63 18/30/64
f 11/32/65 12/34/66 20/35/67 19/33/68
f 12/34/69 13/36/70 21/37/71 20/35/72
f 13/36/73 14/38/74 22/39/75 21/37/76
f 14/38/77 15/40/78 23/41/79 22/39/80
f 15/40/81 16/42/82 24/43/83 23/41/84
f 16/42/85 9/28/86 17/31/87 24/43/88
f 17/31/89 18/30/90 26/44/91 25/45/92
f 18/30/93 19/33/94 27/46/95 26/44/96
f 19/33/97 20/35/98 28/47/99 27/46/100
f 20/35/101 21/37/102 29/48/103 28/47/104
f 21/37/105 22/39/106 30/49/107 29/48/108
f 22/39/109 23/41/110 31/50/111 30/49/112
f 23/41/113 24/43/114 32/51/115 31/50/116
f 24/43/117 17/31/118 25/45/119 32/51/120
f 25/45/121 26/44/122 46/52/123 47/53/124
f 26/44/125 27/46/126 45/54/127 46/52/128
f 27/46/129 28/47/130 44/55/131 45/54/132
f 28/47/133 29/48/134 43/56/135 44/55/136
f 29/48/137 30/49/138 42/57/139 43/56/140
f 30/49/141 31/50/142 49/58/143 42/57/144
f 31/50/145 32/51/146 48/59/147 49/58/148
f 32/51/149 25/45/150 47/53/151 48/59/152
f 43/56/153 42/57/154 39/25/155 38/24/156
f 44/55/157 43/56/158 38/24/159 37/23/160
f 45/54/161 44/55/162 37/23/163 36/22/164
f 46/52/165 45/54/166 36/22/167 34/20/168
f 47/53/169 46/52/170 34/20/171 33/19/172
f 48/59/173 47/53/174 33/19/175 41/27/176
f 49/58/177 48/59/178 41/27/179 40/26/180
f 42/57/181 49/58/182 40/26/183 39/25/184
