# This file uses centimeters as units for non-parametric coordinates.

v -2.415770 -1.000000 0.669743
v 2.415768 -1.000000 0.669743
v -2.081169 0.000000 0.242208
v 2.081169 0.000000 0.242208
v -2.081169 0.000000 0.000000
v 2.081169 0.000000 0.000000
v -2.415770 -1.000000 0.000000
v 2.415768 -1.000000 0.000000
v -2.415770 -0.817906 0.000000
v -2.415770 -0.817906 0.669743
v 2.415768 -0.817906 0.669743
v 2.415768 -0.817906 0.000000
v -2.300541 -1.000000 0.000000
v 2.300541 -1.000000 0.000000
v 2.245644 -1.000000 0.607731
v -2.245644 -1.000000 0.607732
v -1.981903 -0.089143 0.000000
v 1.981903 -0.089143 0.000000
v 1.981903 -0.089143 0.214392
v -1.981903 -0.089143 0.214392
v -2.081169 -0.817906 1.000000
v -2.081169 -1.000000 1.000000
v -1.981903 -1.000000 0.862373
v 1.981903 -1.000000 0.862373
v 2.081169 -1.000000 1.000000
v 2.081169 -0.817906 1.000000
v 0.000000 0.000000 0.000000
v 0.000000 0.000000 0.242208
v 0.000000 -0.817906 1.000000
v 0.000000 -1.000000 1.000000
v 0.000000 -1.000000 0.862373
v 0.000000 -0.089143 0.214392
v 0.000000 -0.089143 0.000000
v -1.040585 0.000000 0.000000
v -1.040585 0.000000 0.242208
v -1.040585 -0.817906 1.000000
v -1.040585 -1.000000 1.000000
v -0.990952 -1.000000 0.862373
v -0.990952 -0.089143 0.214392
v -0.990952 -0.089143 0.000000
v 0.990952 -0.089143 0.000000
v 0.990952 -0.089143 0.214392
v 0.990952 -1.000000 0.862373
v 1.040585 -1.000000 1.000000
v 1.040585 -0.817906 1.000000
v 1.040585 0.000000 0.242208
v 1.040585 0.000000 0.000000
v -1.996365 0.000000 0.000000
v -1.996365 -0.031698 0.217596
v -1.996365 -0.849605 0.975388
v -1.996365 -1.035951 1.000000
v -1.900387 -1.000000 0.862373
v -1.900387 -0.089143 0.214392
v -1.900387 -0.089143 0.000000
v -1.113216 -0.089143 -0.000000
v -1.113216 -0.089143 0.214392
v -1.113216 -1.000000 0.862373
v -1.168972 -1.035951 1.000000
v -1.168972 -0.849605 0.975388
v -1.168972 -0.031699 0.217596
v -1.168972 0.000000 -0.000000
v -0.867641 -0.089143 0.000000
v -0.867641 -0.089143 0.214392
v -0.867641 -1.000000 0.862373
v -0.913834 -1.074645 1.000000
v -0.913834 -0.849605 0.975388
v -0.913834 -0.031699 0.217596
v -0.913834 0.000000 0.000000
v -0.098141 -0.089143 0.000000
v -0.098141 -0.089143 0.214392
v -0.098141 -1.000000 0.862373
v -0.100861 -1.074645 1.000000
v -0.100861 -0.849605 0.975388
v -0.100861 -0.031699 0.217596
v -0.100861 0.000000 0.000000
v 0.135029 0.000000 0.000000
v 0.135029 -0.031699 0.217596
v 0.135029 -0.849605 0.975388
v 0.135029 -1.035951 1.000000
v 0.132961 -1.000000 0.862373
v 0.132961 -0.089144 0.214392
v 0.132961 -0.089144 0.000000
v 0.874638 -0.089143 0.000000
v 0.874638 -0.089143 0.214392
v 0.874638 -1.000000 0.862373
v 0.918446 -1.035951 1.000000
v 0.918446 -0.849605 0.975388
v 0.918446 -0.031699 0.217596
v 0.918446 0.000000 0.000000
v 1.123856 -0.089144 0.000000
v 1.123856 -0.089144 0.214392
v 1.123856 -1.000000 0.862373
v 1.180145 -1.067238 1.000000
v 1.180145 -0.849605 0.975388
v 1.180145 -0.031699 0.217596
v 1.180145 -0.000000 0.000000
v 1.856945 -0.089143 0.000000
v 1.856945 -0.089143 0.214392
v 1.856945 -1.000000 0.862373
v 1.951485 -1.067238 1.000000
v 1.951485 -0.849605 0.975388
v 1.951485 -0.031699 0.217596
v 1.951485 0.000000 0.000000
vt 0.147011 0.421331
vt 0.147011 0.421331
vt 0.147011 0.421331
vt 0.147011 0.421331
vt 0.147011 0.421331
vt 0.147011 0.421331
vt 0.147011 0.421331
vt 0.147011 0.421331
vt 0.147011 0.421331
vt 0.147011 0.421331
vt 0.147011 0.421331
vt 0.147011 0.421331
vt 0.147011 0.421331
vt 0.147011 0.421331
vt 0.147011 0.421331
vt 0.147011 0.421331
vt 0.147011 0.421331
vt 0.147011 0.421331
vt 0.147011 0.421331
vt 0.147011 0.421331
vt 0.147011 0.421331
vt 0.147011 0.421331
vt 0.147011 0.421331
vt 0.147011 0.421331
vt 0.147011 0.421331
vt 0.147011 0.421331
vt 0.147011 0.421331
vt 0.147011 0.421331
vt 0.147011 0.421331
vt 0.147011 0.421331
vt 0.147011 0.421331
vt 0.147011 0.421331
vt 0.147011 0.421331
vt 0.147011 0.421331
vt 0.147011 0.421331
vt 0.147011 0.421331
vt 0.147011 0.421331
vt 0.147011 0.421331
vt 0.147011 0.421331
vt 0.147011 0.421331
vt 0.147011 0.421331
vt 0.147011 0.421331
vt 0.147011 0.421331
vt 0.147011 0.421331
vt 0.147011 0.421331
vt 0.147011 0.421331
vt 0.147011 0.421331
vt 0.147011 0.421331
vt 0.147011 0.421331
vt 0.147011 0.421331
vt 0.147011 0.421331
vt 0.147011 0.421331
vt 0.147011 0.421331
vt 0.147011 0.421331
vt 0.147011 0.421331
vt 0.147011 0.421331
vt 0.147011 0.421331
vt 0.147011 0.421331
vt 0.147011 0.421331
vt 0.147011 0.421331
vt 0.147011 0.421331
vt 0.147011 0.421331
vt 0.147011 0.421331
vt 0.147011 0.421331
vt 0.147011 0.421331
vt 0.147011 0.421331
vt 0.147011 0.421331
vt 0.147011 0.421331
vt 0.147011 0.421331
vt 0.147011 0.421331
vt 0.147011 0.421331
vt 0.147011 0.421331
vt 0.147011 0.421331
vt 0.147011 0.421331
vt 0.147011 0.421331
vt 0.147011 0.421331
vt 0.147011 0.421331
vt 0.147011 0.421331
vt 0.147011 0.421331
vt 0.147011 0.421331
vt 0.147011 0.421331
vt 0.147011 0.421331
vt 0.147011 0.421331
vt 0.147011 0.421331
vt 0.147011 0.421331
vt 0.147011 0.421331
vt 0.147011 0.421331
vt 0.147011 0.421331
vt 0.147011 0.421331
vt 0.147011 0.421331
vt 0.147011 0.421331
vt 0.147011 0.421331
vt 0.147011 0.421331
vt 0.147011 0.421331
vt 0.147011 0.421331
vt 0.147011 0.421331
vt 0.147011 0.421331
vt 0.147011 0.421331
vt 0.147011 0.421331
vt 0.147011 0.421331
vt 0.147011 0.421331
vt 0.147011 0.421331
vt 0.147011 0.421331
vt 0.147011 0.421331
vt 0.147011 0.421331
vt 0.147011 0.421331
vt 0.147011 0.421331
vt 0.147011 0.421331
vt 0.147011 0.421331
vt 0.147011 0.421331
vt 0.147011 0.421331
vt 0.147011 0.421331
vt 0.147011 0.421331
vt 0.147011 0.421331
vt 0.147011 0.421331
vt 0.147011 0.421331
vt 0.147011 0.421331
vt 0.147011 0.421331
vt 0.147011 0.421331
vt 0.147011 0.421331
vt 0.147011 0.421331
vt 0.147011 0.421331
vn 0.000000 0.679636 0.733550
vn 0.000000 0.679636 0.733550
vn 0.000000 0.679636 0.733550
vn 0.000000 0.679636 0.733550
vn 0.000000 0.989555 0.144155
vn 0.000000 0.989555 0.144155
vn 0.000000 0.989555 0.144155
vn 0.000000 0.989555 0.144155
vn 0.000001 -1.000000 0.000000
vn 0.000001 -1.000000 0.000000
vn 0.000001 -1.000000 0.000000
vn 0.000001 -1.000000 0.000000
vn 0.925547 0.378633 0.000000
vn 0.925547 0.378633 0.000000
vn 0.925547 0.378633 0.000000
vn 0.925547 0.378634 0.000000
vn -0.925546 0.378636 0.000000
vn -0.925546 0.378636 0.000000
vn -0.925546 0.378636 0.000000
vn -0.925546 0.378636 0.000000
vn -1.000000 0.000000 0.000000
vn -1.000000 0.000000 0.000000
vn -1.000000 0.000000 0.000000
vn -1.000000 0.000000 0.000000
vn 0.000000 0.130941 0.991390
vn 0.000000 0.130941 0.991390
vn 0.000000 0.130941 0.991390
vn 0.000000 0.130941 0.991390
vn 1.000000 0.000000 0.000000
vn 1.000000 0.000000 0.000000
vn 1.000000 0.000000 0.000000
vn 1.000000 0.000000 0.000000
vn 0.000000 -1.000000 0.000000
vn 0.000000 -1.000000 0.000000
vn 0.000000 -1.000000 0.000000
vn 0.000000 -1.000000 0.000000
vn 0.000000 -0.967535 -0.252737
vn 0.000000 -0.967535 -0.252737
vn 0.000000 -0.967535 -0.252737
vn 0.000000 -0.967535 -0.252737
vn 0.000000 -1.000000 0.000000
vn 0.000000 -1.000000 0.000000
vn 0.000000 -1.000000 0.000000
vn 0.000000 -1.000000 0.000000
vn -0.946567 -0.316253 -0.063207
vn -0.946567 -0.316253 -0.063207
vn -0.946567 -0.316253 -0.063207
vn -0.946567 -0.316253 -0.063207
vn 0.000000 -0.579679 -0.814845
vn 0.000000 -0.579679 -0.814845
vn 0.000000 -0.579679 -0.814845
vn 0.000000 -0.579679 -0.814845
vn 0.946567 -0.316253 -0.063207
vn 0.946567 -0.316253 -0.063207
vn 0.946567 -0.316253 -0.063207
vn 0.946567 -0.316253 -0.063207
vn -0.586451 0.550494 0.594164
vn -0.586451 0.550494 0.594164
vn -0.586451 0.550494 0.594164
vn -0.702472 0.000000 0.711711
vn -0.702472 0.000000 0.711711
vn -0.702472 0.000000 0.711711
vn -0.702472 0.000000 0.711711
vn 0.000000 -1.000000 0.000000
vn 0.000000 -1.000000 0.000000
vn 0.000000 -1.000000 0.000000
vn 0.000000 -1.000000 0.000000
vn 0.618316 -0.455586 -0.640411
vn 0.618316 -0.455586 -0.640411
vn 0.618316 -0.455586 -0.640411
vn -0.618317 -0.455587 -0.640411
vn -0.618316 -0.455586 -0.640411
vn -0.618316 -0.455587 -0.640411
vn 0.000000 -1.000000 0.000000
vn 0.000000 -1.000000 0.000000
vn 0.000000 -1.000000 0.000000
vn 0.000000 -1.000000 0.000000
vn 0.702474 0.000000 0.711709
vn 0.702474 0.000000 0.711709
vn 0.702474 0.000000 0.711709
vn 0.702474 0.000000 0.711709
vn 0.586453 0.550493 0.594163
vn 0.586453 0.550493 0.594163
vn 0.586453 0.550493 0.594163
vn 0.130304 0.989126 0.068190
vn 0.130304 0.989126 0.068190
vn 0.130304 0.989126 0.068190
vn 0.130304 0.989126 0.068190
vn 0.298194 0.648716 0.700177
vn 0.298194 0.648716 0.700177
vn 0.298194 0.648716 0.700177
vn 0.298194 0.648716 0.700177
vn 0.121323 0.059896 0.990804
vn 0.121323 0.059896 0.990804
vn 0.121323 0.059896 0.990804
vn 0.121323 0.059896 0.990804
vn -0.269174 -0.901740 -0.338246
vn -0.269174 -0.901740 -0.338246
vn -0.269174 -0.901740 -0.338246
vn -0.269174 -0.901740 -0.338246
vn 0.000000 -0.579678 -0.814845
vn 0.000000 -0.579678 -0.814845
vn 0.000000 -0.579678 -0.814845
vn 0.000000 -0.579678 -0.814845
vn 0.000000 -1.000000 0.000000
vn 0.000000 -1.000000 0.000000
vn 0.000000 -1.000000 0.000000
vn 0.000000 -1.000000 0.000000
vn 0.000001 0.989555 0.144155
vn 0.000001 0.989555 0.144155
vn 0.000001 0.989555 0.144155
vn 0.000001 0.989555 0.144155
vn 0.000000 0.679635 0.733550
vn 0.000000 0.679635 0.733550
vn 0.000000 0.679635 0.733550
vn 0.000000 0.679635 0.733550
vn 0.000000 0.130941 0.991390
vn 0.000000 0.130941 0.991390
vn 0.000000 0.130941 0.991390
vn 0.000000 0.130941 0.991390
vn 0.000000 -0.967535 -0.252737
vn 0.000000 -0.967535 -0.252737
vn 0.000000 -0.967535 -0.252737
vn 0.000000 -0.967535 -0.252737
vn 0.000000 -0.579678 -0.814845
vn 0.000000 -0.579678 -0.814845
vn 0.000000 -0.579678 -0.814845
vn 0.000000 -0.579678 -0.814845
vn 0.000000 -1.000000 0.000000
vn 0.000000 -1.000000 0.000000
vn 0.000000 -1.000000 0.000000
vn 0.000000 -1.000000 0.000000
vn -0.000004 -1.000000 0.000000
vn -0.000004 -1.000000 0.000000
vn -0.000004 -1.000000 0.000000
vn -0.000004 -1.000000 0.000000
vn -0.000002 -0.579679 -0.814845
vn -0.000002 -0.579679 -0.814845
vn -0.000002 -0.579679 -0.814845
vn -0.000002 -0.579679 -0.814845
vn -0.237114 -0.960831 -0.143461
vn -0.237114 -0.960831 -0.143461
vn -0.237114 -0.960831 -0.143461
vn -0.237114 -0.960831 -0.143461
vn 0.109138 0.061089 0.992148
vn 0.109138 0.061089 0.992148
vn 0.109138 0.061089 0.992148
vn 0.109138 0.061089 0.992148
vn 0.272959 0.653827 0.705694
vn 0.272958 0.653827 0.705694
vn 0.272959 0.653827 0.705694
vn 0.272958 0.653827 0.705694
vn 0.118524 0.990600 0.068292
vn 0.118524 0.990600 0.068292
vn 0.118524 0.990600 0.068292
vn 0.118524 0.990600 0.068292
vn 0.192742 0.978926 0.067487
vn 0.192742 0.978926 0.067487
vn 0.192742 0.978926 0.067487
vn 0.192742 0.978926 0.067487
vn 0.423080 0.615813 0.664664
vn 0.423080 0.615813 0.664664
vn 0.423080 0.615813 0.664664
vn 0.423080 0.615813 0.664664
vn 0.168911 0.065695 0.983440
vn 0.168911 0.065695 0.983440
vn 0.168911 0.065695 0.983440
vn 0.168911 0.065695 0.983440
vn -0.203580 -0.941831 -0.267414
vn -0.203580 -0.941831 -0.267414
vn -0.203580 -0.941831 -0.267414
vn -0.203580 -0.941831 -0.267414
vn -0.000001 -0.579678 -0.814846
vn -0.000001 -0.579678 -0.814846
vn -0.000001 -0.579678 -0.814846
vn -0.000001 -0.579678 -0.814846
vn 0.000000 -1.000000 0.000000
vn 0.000000 -1.000000 0.000000
vn 0.000000 -1.000000 0.000000
vn 0.000000 -1.000000 0.000000
vn 0.000000 -1.000000 0.000000
vn 0.000000 -1.000000 0.000000
vn 0.000000 -1.000000 0.000000
vn 0.000000 -1.000000 0.000000
vn 0.000000 -0.579679 -0.814845
vn 0.000000 -0.579679 -0.814845
vn 0.000000 -0.579679 -0.814845
vn 0.000000 -0.579679 -0.814845
vn 0.141579 -0.987103 -0.074717
vn 0.141579 -0.987103 -0.074717
vn 0.141579 -0.987103 -0.074717
vn 0.141579 -0.987103 -0.074717
vn -0.112480 0.066230 0.991444
vn -0.112480 0.066230 0.991444
vn -0.112480 0.066230 0.991444
vn -0.112480 0.066230 0.991444
vn -0.294725 0.649448 0.700967
vn -0.294725 0.649448 0.700967
vn -0.294725 0.649448 0.700967
vn -0.294725 0.649448 0.700967
vn -0.128671 0.989339 0.068205
vn -0.128671 0.989339 0.068205
vn -0.128671 0.989339 0.068205
vn -0.128671 0.989339 0.068205
vn 0.000000 -1.000000 0.000000
vn 0.000000 -1.000000 0.000000
vn 0.000000 -1.000000 0.000000
vn 0.000000 -1.000000 0.000000
vn 0.000000 -0.579678 -0.814845
vn 0.000000 -0.579678 -0.814845
vn 0.000000 -0.579678 -0.814845
vn 0.000000 -0.579678 -0.814845
vn 0.000000 -0.879034 -0.476760
vn 0.000000 -0.879034 -0.476759
vn 0.000000 -0.879034 -0.476759
vn 0.000000 -0.879034 -0.476759
vn 0.000000 0.108720 0.994072
vn 0.000000 0.108720 0.994072
vn 0.000000 0.108720 0.994072
vn 0.000000 0.108720 0.994072
vn 0.000000 0.679636 0.733550
vn 0.000000 0.679636 0.733550
vn 0.000000 0.679636 0.733550
vn 0.000000 0.679636 0.733550
vn 0.000000 0.989555 0.144155
vn 0.000000 0.989555 0.144155
vn 0.000000 0.989555 0.144155
vn 0.000000 0.989555 0.144155
vn 0.000000 -1.000000 0.000000
vn 0.000000 -1.000000 0.000000
vn 0.000000 -1.000000 0.000000
vn 0.000000 -1.000000 0.000000
vn 0.000000 -0.579678 -0.814845
vn 0.000000 -0.579678 -0.814845
vn 0.000000 -0.579678 -0.814845
vn 0.000000 -0.579678 -0.814845
vn 0.340681 -0.908250 -0.242936
vn 0.340681 -0.908250 -0.242936
vn 0.340681 -0.908250 -0.242936
vn 0.340681 -0.908250 -0.242936
vn -0.151819 0.059643 0.986607
vn -0.151819 0.059643 0.986607
vn -0.151819 0.059643 0.986607
vn -0.151819 0.059643 0.986607
vn -0.365445 0.632627 0.682813
vn -0.365445 0.632627 0.682812
vn -0.365445 0.632627 0.682813
vn -0.365445 0.632627 0.682812
vn -0.162953 0.984298 0.067857
vn -0.162953 0.984298 0.067857
vn -0.162953 0.984298 0.067857
vn -0.162953 0.984298 0.067857
vn 0.122439 0.990126 0.068259
vn 0.122439 0.990126 0.068259
vn 0.122439 0.990126 0.068259
vn 0.122439 0.990126 0.068259
vn 0.281404 0.652171 0.703907
vn 0.281404 0.652171 0.703907
vn 0.281404 0.652171 0.703907
vn 0.281404 0.652171 0.703907
vn 0.107013 0.066270 0.992047
vn 0.107013 0.066270 0.992047
vn 0.107013 0.066270 0.992047
vn 0.107013 0.066270 0.992047
vn -0.131875 -0.983045 -0.127404
vn -0.131875 -0.983045 -0.127404
vn -0.131875 -0.983045 -0.127404
vn -0.131875 -0.983045 -0.127404
vn -0.000001 -0.579678 -0.814845
vn -0.000001 -0.579678 -0.814845
vn -0.000001 -0.579678 -0.814845
vn -0.000001 -0.579678 -0.814845
vn -0.000004 -1.000000 0.000000
vn -0.000004 -1.000000 0.000000
vn -0.000004 -1.000000 0.000000
vn -0.000004 -1.000000 0.000000
vn 0.000000 -1.000000 0.000000
vn 0.000000 -1.000000 0.000000
vn 0.000000 -1.000000 0.000000
vn 0.000000 -1.000000 0.000000
vn 0.000000 -0.579678 -0.814846
vn 0.000000 -0.579678 -0.814846
vn 0.000000 -0.579678 -0.814846
vn 0.000000 -0.579678 -0.814846
vn 0.146730 -0.973226 -0.176922
vn 0.146730 -0.973226 -0.176922
vn 0.146730 -0.973226 -0.176922
vn 0.146730 -0.973226 -0.176922
vn -0.118156 0.066186 0.990787
vn -0.118156 0.066186 0.990787
vn -0.118156 0.066186 0.990787
vn -0.118156 0.066186 0.990787
vn -0.308401 0.646508 0.697794
vn -0.308401 0.646508 0.697794
vn -0.308401 0.646508 0.697794
vn -0.308401 0.646508 0.697794
vn -0.135136 0.988481 0.068145
vn -0.135136 0.988481 0.068145
vn -0.135136 0.988481 0.068145
vn -0.135136 0.988481 0.068145
vn 0.000001 -1.000000 0.000000
vn 0.000001 -1.000000 0.000000
vn 0.000001 -1.000000 0.000000
vn 0.000001 -1.000000 0.000000
vn 0.000000 -0.579678 -0.814845
vn 0.000000 -0.579678 -0.814845
vn 0.000000 -0.579678 -0.814845
vn 0.000000 -0.579678 -0.814845
vn 0.000001 -0.898504 -0.438965
vn 0.000001 -0.898504 -0.438965
vn 0.000001 -0.898504 -0.438965
vn 0.000001 -0.898504 -0.438965
vn 0.000000 0.112374 0.993666
vn 0.000000 0.112374 0.993666
vn 0.000000 0.112374 0.993666
vn 0.000000 0.112374 0.993666
vn -0.000000 0.679636 0.733550
vn -0.000000 0.679636 0.733550
vn -0.000000 0.679636 0.733550
vn -0.000000 0.679636 0.733550
vn -0.000001 0.989555 0.144155
vn -0.000001 0.989555 0.144155
vn -0.000001 0.989555 0.144155
vn -0.000001 0.989555 0.144155
vn 0.000000 -1.000000 0.000000
vn 0.000000 -1.000000 0.000000
vn 0.000000 -1.000000 0.000000
vn 0.000000 -1.000000 0.000000
vn 0.000000 -0.579678 -0.814846
vn 0.000000 -0.579678 -0.814846
vn 0.000000 -0.579678 -0.814846
vn 0.000000 -0.579678 -0.814846
vn 0.235721 -0.892720 -0.384040
vn 0.235721 -0.892720 -0.384040
vn 0.235721 -0.892720 -0.384040
vn 0.235721 -0.892720 -0.384040
vn -0.117339 0.061031 0.991215
vn -0.117339 0.061031 0.991215
vn -0.117339 0.061031 0.991215
vn -0.117339 0.061031 0.991215
vn -0.292030 0.650010 0.701574
vn -0.292030 0.650010 0.701574
vn -0.292030 0.650010 0.701574
vn -0.292030 0.650010 0.701574
vn -0.127405 0.989502 0.068216
vn -0.127405 0.989502 0.068216
vn -0.127405 0.989502 0.068216
vn -0.127405 0.989502 0.068216
s off
f 87/104/1 88/105/2 77/92/3 78/93/4
f 88/105/5 89/106/6 76/91/7 77/92/8
f 81/97/9 82/98/10 83/99/11 84/100/12
f 12/18/13 6/12/14 4/4/15 11/17/16
f 10/16/17 3/3/18 5/14/19 9/15/20
f 1/1/21 10/16/22 9/15/23 7/13/24
f 86/102/25 87/104/26 78/93/27 79/94/28
f 8/11/29 12/18/30 11/17/31 2/2/32
f 14/20/33 8/8/34 2/10/35 15/21/36
f 85/101/37 86/103/38 79/95/39 80/96/40
f 16/22/41 1/9/42 7/7/43 13/19/44
f 18/24/45 14/20/46 15/21/47 19/25/48
f 84/100/49 85/101/50 80/96/51 81/97/52
f 17/23/53 20/26/54 16/22/55 13/19/56
f 10/16/57 21/27/58 3/3/59
f 1/1/60 22/28/61 21/27/62 10/16/63
f 23/30/64 22/29/65 1/9/66 16/22/67
f 20/26/68 23/30/69 16/22/70
f 15/21/71 24/31/72 19/25/73
f 2/10/74 25/33/75 24/31/76 15/21/77
f 26/34/78 25/32/79 2/2/80 11/17/81
f 4/4/82 26/34/83 11/17/84
f 67/81/85 68/82/86 34/43/87 35/44/88
f 66/80/89 67/81/90 35/44/91 36/45/92
f 65/78/93 66/80/94 36/45/95 37/46/96
f 64/77/97 65/79/98 37/47/99 38/48/100
f 63/76/101 64/77/102 38/48/103 39/49/104
f 39/49/105 40/50/106 62/75/107 63/76/108
f 60/73/109 61/74/110 48/59/111 49/60/112
f 59/72/113 60/73/114 49/60/115 50/61/116
f 58/70/117 59/72/118 50/61/119 51/62/120
f 57/69/121 58/71/122 51/63/123 52/64/124
f 56/68/125 57/69/126 52/64/127 53/65/128
f 53/65/129 54/66/130 55/67/131 56/68/132
f 42/52/133 41/51/134 90/107/135 91/108/136
f 91/108/137 92/109/138 43/53/139 42/52/140
f 92/109/141 93/111/142 44/55/143 43/53/144
f 93/110/145 94/112/146 45/56/147 44/54/148
f 94/112/149 95/113/150 46/57/151 45/56/152
f 95/113/153 96/114/154 47/58/155 46/57/156
f 49/60/157 48/59/158 5/5/159 3/3/160
f 50/61/161 49/60/162 3/3/163 21/27/164
f 51/62/165 50/61/166 21/27/167 22/28/168
f 52/64/169 51/63/170 22/29/171 23/30/172
f 53/65/173 52/64/174 23/30/175 20/26/176
f 17/23/177 54/66/178 53/65/179 20/26/180
f 56/68/181 55/67/182 40/50/183 39/49/184
f 39/49/185 38/48/186 57/69/187 56/68/188
f 38/48/189 37/47/190 58/71/191 57/69/192
f 37/46/193 36/45/194 59/72/195 58/70/196
f 36/45/197 35/44/198 60/73/199 59/72/200
f 35/44/201 34/43/202 61/74/203 60/73/204
f 63/76/205 62/75/206 69/83/207 70/84/208
f 70/84/209 71/85/210 64/77/211 63/76/212
f 71/85/213 72/87/214 65/79/215 64/77/216
f 72/86/217 73/88/218 66/80/219 65/78/220
f 73/88/221 74/89/222 67/81/223 66/80/224
f 74/89/225 75/90/226 68/82/227 67/81/228
f 70/84/229 69/83/230 33/42/231 32/41/232
f 32/41/233 31/40/234 71/85/235 70/84/236
f 31/40/237 30/39/238 72/87/239 71/85/240
f 30/38/241 29/37/242 73/88/243 72/86/244
f 29/37/245 28/36/246 74/89/247 73/88/248
f 28/36/249 27/35/250 75/90/251 74/89/252
f 77/92/253 76/91/254 27/35/255 28/36/256
f 78/93/257 77/92/258 28/36/259 29/37/260
f 79/94/261 78/93/262 29/37/263 30/38/264
f 80/96/265 79/95/266 30/39/267 31/40/268
f 81/97/269 80/96/270 31/40/271 32/41/272
f 32/41/273 33/42/274 82/98/275 81/97/276
f 84/100/277 83/99/278 41/51/279 42/52/280
f 42/52/281 43/53/282 85/101/283 84/100/284
f 43/53/285 44/55/286 86/103/287 85/101/288
f 44/54/289 45/56/290 87/104/291 86/102/292
f 45/56/293 46/57/294 88/105/295 87/104/296
f 46/57/297 47/58/298 89/106/299 88/105/300
f 91/108/301 90/107/302 97/115/303 98/116/304
f 98/116/305 99/117/306 92/109/307 91/108/308
f 99/117/309 100/119/310 93/111/311 92/109/312
f 100/118/313 101/120/314 94/112/315 93/110/316
f 101/120/317 102/121/318 95/113/319 94/112/320
f 102/121/321 103/122/322 96/114/323 95/113/324
f 98/116/325 97/115/326 18/24/327 19/25/328
f 19/25/329 24/31/330 99/117/331 98/116/332
f 24/31/333 25/33/334 100/119/335 99/117/336
f 25/32/337 26/34/338 101/120/339 100/118/340
f 26/34/341 4/4/342 102/121/343 101/120/344
f 4/4/345 6/6/346 103/122/347 102/121/348
