# This file uses centimeters as units for non-parametric coordinates.

v 0.054611 2.034786 -0.004514
v 0.054611 0.189121 -0.004514
v 0.285843 0.189121 0.269610
v 0.285843 2.034786 0.269610
v 0.293747 0.194599 0.278023
v 1.548752 0.194599 0.278023
v 1.548752 2.029312 0.278023
v 0.293747 2.029312 0.278023
v 1.726273 0.969276 0.002685
v 1.726273 2.033039 0.002685
v 1.550705 2.033039 0.271109
v 1.550705 0.190872 0.271109
v 1.726273 0.190872 0.002685
v 1.828766 0.172283 -0.044645
v 2.458252 0.172283 -0.044645
v 2.458252 0.911037 -0.044645
v 2.208267 0.911037 -0.044645
v 1.828766 0.911037 -0.044645
v 2.458252 1.999348 -0.044645
v 1.828766 1.999348 -0.044645
v 1.828766 1.027515 -0.044645
v 2.458252 1.027515 -0.044645
v 3.171234 0.911037 -0.044645
v 2.541763 0.911037 -0.044645
v 2.541763 0.172283 -0.044645
v 3.171234 0.172283 -0.044645
v 3.171234 1.999348 -0.044645
v 2.541763 1.999348 -0.044645
v 2.541763 1.027515 -0.044645
v 3.171234 1.027515 -0.044645
v 3.171234 1.555370 -0.044645
v 3.451248 2.029312 0.278023
v 3.451248 0.194599 0.278023
v 4.706253 0.194599 0.278023
v 4.706253 2.029312 0.278023
v 3.273743 0.969276 0.002685
v 3.273743 0.190872 0.002685
v 3.449310 0.190872 0.271109
v 3.449310 2.033039 0.271109
v 3.273743 2.033039 0.002685
v 4.945404 0.189121 -0.004514
v 4.945404 2.034786 -0.004514
v 4.714172 2.034786 0.269610
v 4.714172 0.189121 0.269610
vt 0.504398 0.005226
vt 0.606133 0.005226
vt 0.606133 0.106962
vt 0.504398 0.106962
vt 0.504398 0.005226
vt 0.606134 0.005226
vt 0.606134 0.106962
vt 0.504398 0.106962
vt 0.504398 0.056094
vt 0.606134 0.005226
vt 0.606134 0.056094
vt 0.606134 0.106962
vt 0.555265 0.106962
vt 0.504398 0.005226
vt 0.606134 0.005226
vt 0.606134 0.106962
vt 0.565732 0.106962
vt 0.504398 0.106962
vt 0.504398 0.005226
vt 0.606134 0.005226
vt 0.606134 0.106962
vt 0.504398 0.106962
vt 0.504398 0.005226
vt 0.606134 0.005226
vt 0.606134 0.106962
vt 0.504398 0.106962
vt 0.504398 0.005226
vt 0.606134 0.005226
vt 0.606134 0.106962
vt 0.504398 0.106962
vt 0.504398 0.051704
vt 0.504398 0.005226
vt 0.606134 0.005226
vt 0.606134 0.106962
vt 0.504398 0.106962
vt 0.504398 0.056094
vt 0.606133 0.005226
vt 0.606134 0.056094
vt 0.606134 0.106962
vt 0.555265 0.106962
vt 0.504398 0.005226
vt 0.606134 0.005226
vt 0.606134 0.106962
vt 0.504398 0.106962
vn -0.764375 0.000000 0.644772
vn -0.764375 0.000000 0.644772
vn -0.764375 0.000000 0.644772
vn -0.764375 0.000000 0.644772
vn 0.000000 0.000000 1.000000
vn 0.000000 0.000000 1.000000
vn 0.000000 0.000000 1.000000
vn 0.000000 0.000000 1.000000
vn 0.836884 0.000000 0.547379
vn 0.836884 0.000000 0.547379
vn 0.836884 0.000000 0.547379
vn 0.836884 0.000000 0.547379
vn 0.836884 0.000000 0.547379
vn 0.000000 0.000000 1.000000
vn 0.000000 0.000000 1.000000
vn 0.000000 0.000000 1.000000
vn 0.000000 0.000000 1.000000
vn 0.000000 0.000000 1.000000
vn 0.000000 0.000000 1.000000
vn 0.000000 0.000000 1.000000
vn 0.000000 0.000000 1.000000
vn 0.000000 0.000000 1.000000
vn 0.000000 0.000000 1.000000
vn 0.000000 0.000000 1.000000
vn 0.000000 0.000000 1.000000
vn 0.000000 0.000000 1.000000
vn 0.000000 0.000000 1.000000
vn 0.000000 0.000000 1.000000
vn 0.000000 0.000000 1.000000
vn 0.000000 0.000000 1.000000
vn 0.000000 0.000000 1.000000
vn 0.000000 0.000000 1.000000
vn 0.000000 0.000000 1.000000
vn 0.000000 0.000000 1.000000
vn 0.000000 0.000000 1.000000
vn -0.836884 0.000000 0.547379
vn -0.836884 0.000000 0.547379
vn -0.836884 0.000000 0.547379
vn -0.836884 0.000000 0.547379
vn -0.836884 0.000000 0.547379
vn 0.764375 0.000000 0.644772
vn 0.764375 0.000000 0.644772
vn 0.764375 0.000000 0.644772
vn 0.764375 0.000000 0.644772
s off
f 1/1/1 2/2/2 3/3/3 4/4/4
f 5/5/5 6/6/6 7/7/7 8/8/8
f 9/9/9 10/10/10 11/11/11 12/12/12 13/13/13
f 14/14/14 15/15/15 16/16/16 17/17/17 18/18/18
f 19/19/19 20/20/20 21/21/21 22/22/22
f 23/23/23 24/24/24 25/25/25 26/26/26
f 27/27/27 28/28/28 29/29/29 30/30/30 31/31/31
f 32/32/32 33/33/33 34/34/34 35/35/35
f 36/36/36 37/37/37 38/38/38 39/39/39 40/40/40
f 41/41/41 42/42/42 43/43/43 44/44/44
