# This file uses centimeters as units for non-parametric coordinates.

v 0.030666 0.120383 -9.873241
v 0.051105 0.120383 -9.000778
v 0.051105 2.424824 -9.000778
v 0.030666 2.424824 -9.873241
v 0.004314 0.120383 -5.998001
v 0.024757 0.120383 -5.125526
v 0.024757 2.424824 -5.125526
v 0.004314 2.424824 -5.998001
v 0.028149 0.120383 -10.998898
v 0.027760 0.120383 -10.126183
v 0.027760 2.424824 -10.126183
v 0.028149 2.424824 -10.998898
v 5.126759 0.120383 -0.030666
v 5.999222 0.120383 -0.051106
v 5.999222 2.424824 -0.051106
v 5.126759 2.424824 -0.030666
v 0.080406 0.244096 -1.682159
v 0.080406 0.244096 -0.172955
v 0.080406 3.117227 -0.172955
v 0.080406 3.117227 -1.682159
v 0.080406 0.244096 -3.471819
v 0.080406 0.244096 -1.875904
v 0.080406 3.117227 -1.875904
v 0.080406 3.117227 -3.471819
v 0.080406 0.244096 -8.493582
v 0.080406 0.244096 -6.510155
v 0.080406 3.117227 -6.510155
v 0.080406 3.117227 -8.493582
v 0.080406 0.244096 -13.067402
v 0.080406 0.244096 -11.494728
v 0.080406 3.117227 -11.494728
v 0.080406 3.117227 -13.067402
v 0.030666 0.120383 -4.873241
v 0.051105 0.120383 -4.000778
v 0.051105 2.424824 -4.000778
v 0.030666 2.424824 -4.873241
v 0.080406 0.244096 -14.820671
v 0.080406 0.244096 -13.247997
v 0.080406 3.117227 -13.247997
v 0.080406 3.117227 -14.820671
v 14.995686 0.120383 -9.001999
v 14.975243 0.120383 -9.874474
v 14.975243 2.424824 -9.874474
v 14.995686 2.424824 -9.001999
v 14.971851 0.120383 -4.001102
v 14.972240 0.120383 -4.873817
v 14.972240 2.424824 -4.873817
v 14.971851 2.424824 -4.001102
v 14.969334 0.120383 -5.126759
v 14.948895 0.120383 -5.999222
v 14.948895 2.424824 -5.999222
v 14.969334 2.424824 -5.126759
v 1.682159 0.244096 -14.919594
v 0.172955 0.244096 -14.919594
v 0.172955 3.117227 -14.919594
v 1.682159 3.117227 -14.919594
v 3.471819 0.244096 -14.919594
v 1.875904 0.244096 -14.919594
v 1.875904 3.117227 -14.919594
v 3.471819 3.117227 -14.919594
v 4.001102 0.120383 -0.028148
v 4.873817 0.120383 -0.027761
v 4.873817 2.424824 -0.027761
v 4.001102 2.424824 -0.028148
v 9.001999 0.120383 -0.004315
v 9.874474 0.120383 -0.024756
v 9.874474 2.424824 -0.024756
v 9.001999 2.424824 -0.004315
v 10.126759 0.120383 -0.030666
v 10.999222 0.120383 -0.051106
v 10.999222 2.424824 -0.051106
v 10.126759 2.424824 -0.030666
v 0.179329 0.244096 -0.080407
v 1.752003 0.244096 -0.080407
v 1.752003 3.117227 -0.080407
v 0.179329 3.117227 -0.080407
v 1.932598 0.244096 -0.080407
v 3.505272 0.244096 -0.080407
v 3.505272 3.117227 -0.080407
v 1.932598 3.117227 -0.080407
v 6.506418 0.244096 -0.080407
v 8.489845 0.244096 -0.080407
v 8.489845 3.117227 -0.080407
v 6.506418 3.117227 -0.080407
v 11.528181 0.244096 -0.080407
v 13.124096 0.244096 -0.080407
v 13.124096 3.117227 -0.080407
v 11.528181 3.117227 -0.080407
v 13.317841 0.244096 -0.080407
v 14.827045 0.244096 -0.080407
v 14.827045 3.117227 -0.080407
v 13.317841 3.117227 -0.080407
v 9.873241 0.120383 -14.969334
v 9.000778 0.120383 -14.948895
v 9.000778 2.424824 -14.948895
v 9.873241 2.424824 -14.969334
v 10.998898 0.120383 -14.971851
v 10.126183 0.120383 -14.972240
v 10.126183 2.424824 -14.972240
v 10.998898 2.424824 -14.971851
v 5.998001 0.120383 -14.995686
v 5.125526 0.120383 -14.975243
v 5.125526 2.424824 -14.975243
v 5.998001 2.424824 -14.995686
v 4.873241 0.120383 -14.969334
v 4.000778 0.120383 -14.948895
v 4.000778 2.424824 -14.948895
v 4.873241 2.424824 -14.969334
v 14.820671 0.244096 -14.919594
v 13.247997 0.244096 -14.919594
v 13.247997 3.117227 -14.919594
v 14.820671 3.117227 -14.919594
v 13.067402 0.244096 -14.919594
v 11.494728 0.244096 -14.919594
v 11.494728 3.117227 -14.919594
v 13.067402 3.117227 -14.919594
v 8.493582 0.244096 -14.919594
v 6.510155 0.244096 -14.919594
v 6.510155 3.117227 -14.919594
v 8.493582 3.117227 -14.919594
v 14.969334 0.120383 -10.126759
v 14.948895 0.120383 -10.999222
v 14.948895 2.424824 -10.999222
v 14.969334 2.424824 -10.126759
v 14.919594 0.244096 -0.179329
v 14.919594 0.244096 -1.752003
v 14.919594 3.117227 -1.752003
v 14.919594 3.117227 -0.179329
v 14.919594 0.244096 -1.932598
v 14.919594 0.244096 -3.505272
v 14.919594 3.117227 -3.505272
v 14.919594 3.117227 -1.932598
v 14.919594 0.244096 -6.506418
v 14.919594 0.244096 -8.489845
v 14.919594 3.117227 -8.489845
v 14.919594 3.117227 -6.506418
v 14.919594 0.244096 -11.528181
v 14.919594 0.244096 -13.124096
v 14.919594 3.117227 -13.124096
v 14.919594 3.117227 -11.528181
v 14.919594 0.244096 -13.317841
v 14.919594 0.244096 -14.827045
v 14.919594 3.117227 -14.827045
v 14.919594 3.117227 -13.317841
vt 0.502349 0.001724
vt 0.608507 0.001724
vt 0.608507 0.109021
vt 0.502349 0.109021
vt 0.502349 0.001724
vt 0.608507 0.001724
vt 0.608507 0.109021
vt 0.502349 0.109021
vt 0.502349 0.001724
vt 0.608507 0.001724
vt 0.608507 0.109021
vt 0.502349 0.109021
vt 0.502349 0.001724
vt 0.608507 0.001724
vt 0.608507 0.109021
vt 0.502349 0.109021
vt 0.502277 0.002081
vt 0.609104 0.002081
vt 0.609104 0.108905
vt 0.502277 0.108905
vt 0.502277 0.002081
vt 0.609104 0.002081
vt 0.609104 0.108905
vt 0.502277 0.108905
vt 0.611982 0.002081
vt 0.718805 0.002081
vt 0.718805 0.108905
vt 0.611982 0.108905
vt 0.502277 0.002081
vt 0.609100 0.002081
vt 0.609100 0.108905
vt 0.502277 0.108905
vt 0.502349 0.001724
vt 0.608507 0.001724
vt 0.608507 0.109021
vt 0.502349 0.109021
vt 0.611982 0.002081
vt 0.718805 0.002081
vt 0.718805 0.108905
vt 0.611982 0.108905
vt 0.502349 0.001724
vt 0.608507 0.001724
vt 0.608507 0.109021
vt 0.502349 0.109021
vt 0.502349 0.001724
vt 0.608507 0.001724
vt 0.608507 0.109021
vt 0.502349 0.109021
vt 0.502349 0.001724
vt 0.608507 0.001724
vt 0.608507 0.109021
vt 0.502349 0.109021
vt 0.502277 0.002081
vt 0.609104 0.002081
vt 0.609104 0.108905
vt 0.502277 0.108905
vt 0.502277 0.002081
vt 0.609104 0.002081
vt 0.609104 0.108905
vt 0.502277 0.108905
vt 0.502349 0.001724
vt 0.608507 0.001724
vt 0.608507 0.109021
vt 0.502349 0.109021
vt 0.502349 0.001724
vt 0.608507 0.001724
vt 0.608507 0.109021
vt 0.502349 0.109021
vt 0.502349 0.001724
vt 0.608507 0.001724
vt 0.608507 0.109021
vt 0.502349 0.109021
vt 0.611982 0.002081
vt 0.718805 0.002081
vt 0.718805 0.108905
vt 0.611982 0.108905
vt 0.502277 0.002081
vt 0.609100 0.002081
vt 0.609100 0.108905
vt 0.502277 0.108905
vt 0.611982 0.002081
vt 0.718805 0.002081
vt 0.718805 0.108905
vt 0.611982 0.108905
vt 0.502277 0.002081
vt 0.609104 0.002081
vt 0.609104 0.108905
vt 0.502277 0.108905
vt 0.502277 0.002081
vt 0.609104 0.002081
vt 0.609104 0.108905
vt 0.502277 0.108905
vt 0.502349 0.001724
vt 0.608507 0.001724
vt 0.608507 0.109021
vt 0.502349 0.109021
vt 0.502349 0.001724
vt 0.608507 0.001724
vt 0.608507 0.109021
vt 0.502349 0.109021
vt 0.502349 0.001724
vt 0.608507 0.001724
vt 0.608507 0.109021
vt 0.502349 0.109021
vt 0.502349 0.001724
vt 0.608507 0.001724
vt 0.608507 0.109021
vt 0.502349 0.109021
vt 0.611982 0.002081
vt 0.718805 0.002081
vt 0.718805 0.108905
vt 0.611982 0.108905
vt 0.502277 0.002081
vt 0.609100 0.002081
vt 0.609100 0.108905
vt 0.502277 0.108905
vt 0.611982 0.002081
vt 0.718805 0.002081
vt 0.718805 0.108905
vt 0.611982 0.108905
vt 0.502349 0.001724
vt 0.608507 0.001724
vt 0.608507 0.109021
vt 0.502349 0.109021
vt 0.611982 0.002081
vt 0.718805 0.002081
vt 0.718805 0.108905
vt 0.611982 0.108905
vt 0.502277 0.002081
vt 0.609100 0.002081
vt 0.609100 0.108905
vt 0.502277 0.108905
vt 0.611982 0.002081
vt 0.718805 0.002081
vt 0.718805 0.108905
vt 0.611982 0.108905
vt 0.502277 0.002081
vt 0.609104 0.002081
vt 0.609104 0.108905
vt 0.502277 0.108905
vt 0.502277 0.002081
vt 0.609104 0.002081
vt 0.609104 0.108905
vt 0.502277 0.108905
vn -0.999726 0.000000 0.023421
vn -0.999726 0.000000 0.023421
vn -0.999726 0.000000 0.023421
vn -0.999726 0.000000 0.023421
vn -0.999726 0.000000 0.023425
vn -0.999726 0.000000 0.023425
vn -0.999726 0.000000 0.023425
vn -0.999726 0.000000 0.023425
vn -1.000000 0.000000 -0.000446
vn -1.000000 0.000000 -0.000446
vn -1.000000 0.000000 -0.000446
vn -1.000000 0.000000 -0.000446
vn 0.023422 0.000000 0.999726
vn 0.023422 0.000000 0.999726
vn 0.023422 0.000000 0.999726
vn 0.023422 0.000000 0.999726
vn -1.000000 0.000000 0.000000
vn -1.000000 0.000000 0.000000
vn -1.000000 0.000000 0.000000
vn -1.000000 0.000000 0.000000
vn -1.000000 0.000000 0.000000
vn -1.000000 0.000000 0.000000
vn -1.000000 0.000000 0.000000
vn -1.000000 0.000000 0.000000
vn -1.000000 0.000000 0.000000
vn -1.000000 0.000000 0.000000
vn -1.000000 0.000000 0.000000
vn -1.000000 0.000000 0.000000
vn -1.000000 0.000000 0.000000
vn -1.000000 0.000000 0.000000
vn -1.000000 0.000000 0.000000
vn -1.000000 0.000000 0.000000
vn -0.999726 0.000000 0.023421
vn -0.999726 0.000000 0.023421
vn -0.999726 0.000000 0.023421
vn -0.999726 0.000000 0.023421
vn -1.000000 0.000000 0.000000
vn -1.000000 0.000000 0.000000
vn -1.000000 0.000000 0.000000
vn -1.000000 0.000000 0.000000
vn 0.999726 0.000000 -0.023425
vn 0.999726 0.000000 -0.023425
vn 0.999726 0.000000 -0.023425
vn 0.999726 0.000000 -0.023425
vn 1.000000 0.000000 0.000446
vn 1.000000 0.000000 0.000446
vn 1.000000 0.000000 0.000446
vn 1.000000 0.000000 0.000446
vn 0.999726 0.000000 -0.023421
vn 0.999726 0.000000 -0.023421
vn 0.999726 0.000000 -0.023421
vn 0.999726 0.000000 -0.023421
vn 0.000000 0.000000 -1.000000
vn 0.000000 0.000000 -1.000000
vn 0.000000 0.000000 -1.000000
vn 0.000000 0.000000 -1.000000
vn 0.000000 0.000000 -1.000000
vn 0.000000 0.000000 -1.000000
vn 0.000000 0.000000 -1.000000
vn 0.000000 0.000000 -1.000000
vn -0.000444 0.000000 1.000000
vn -0.000444 0.000000 1.000000
vn -0.000444 0.000000 1.000000
vn -0.000444 0.000000 1.000000
vn 0.023422 0.000000 0.999726
vn 0.023422 0.000000 0.999726
vn 0.023422 0.000000 0.999726
vn 0.023422 0.000000 0.999726
vn 0.023422 0.000000 0.999726
vn 0.023422 0.000000 0.999726
vn 0.023422 0.000000 0.999726
vn 0.023422 0.000000 0.999726
vn 0.000000 0.000000 1.000000
vn 0.000000 0.000000 1.000000
vn 0.000000 0.000000 1.000000
vn 0.000000 0.000000 1.000000
vn 0.000000 0.000000 1.000000
vn 0.000000 0.000000 1.000000
vn 0.000000 0.000000 1.000000
vn 0.000000 0.000000 1.000000
vn 0.000000 0.000000 1.000000
vn 0.000000 0.000000 1.000000
vn 0.000000 0.000000 1.000000
vn 0.000000 0.000000 1.000000
vn 0.000000 0.000000 1.000000
vn 0.000000 0.000000 1.000000
vn 0.000000 0.000000 1.000000
vn 0.000000 0.000000 1.000000
vn 0.000000 0.000000 1.000000
vn 0.000000 0.000000 1.000000
vn 0.000000 0.000000 1.000000
vn 0.000000 0.000000 1.000000
vn -0.023420 0.000000 -0.999726
vn -0.023420 0.000000 -0.999726
vn -0.023420 0.000000 -0.999726
vn -0.023420 0.000000 -0.999726
vn 0.000446 0.000000 -1.000000
vn 0.000446 0.000000 -1.000000
vn 0.000446 0.000000 -1.000000
vn 0.000446 0.000000 -1.000000
vn -0.023424 0.000000 -0.999726
vn -0.023424 0.000000 -0.999726
vn -0.023424 0.000000 -0.999726
vn -0.023424 0.000000 -0.999726
vn -0.023420 0.000000 -0.999726
vn -0.023420 0.000000 -0.999726
vn -0.023420 0.000000 -0.999726
vn -0.023420 0.000000 -0.999726
vn 0.000000 0.000000 -1.000000
vn 0.000000 0.000000 -1.000000
vn 0.000000 0.000000 -1.000000
vn 0.000000 0.000000 -1.000000
vn 0.000000 0.000000 -1.000000
vn 0.000000 0.000000 -1.000000
vn 0.000000 0.000000 -1.000000
vn 0.000000 0.000000 -1.000000
vn 0.000000 0.000000 -1.000000
vn 0.000000 0.000000 -1.000000
vn 0.000000 0.000000 -1.000000
vn 0.000000 0.000000 -1.000000
vn 0.999726 0.000000 -0.023421
vn 0.999726 0.000000 -0.023421
vn 0.999726 0.000000 -0.023421
vn 0.999726 0.000000 -0.023421
vn 1.000000 0.000000 0.000000
vn 1.000000 0.000000 0.000000
vn 1.000000 0.000000 0.000000
vn 1.000000 0.000000 0.000000
vn 1.000000 0.000000 0.000000
vn 1.000000 0.000000 0.000000
vn 1.000000 0.000000 0.000000
vn 1.000000 0.000000 0.000000
vn 1.000000 0.000000 0.000000
vn 1.000000 0.000000 0.000000
vn 1.000000 0.000000 0.000000
vn 1.000000 0.000000 0.000000
vn 1.000000 0.000000 0.000000
vn 1.000000 0.000000 0.000000
vn 1.000000 0.000000 0.000000
vn 1.000000 0.000000 0.000000
vn 1.000000 0.000000 0.000000
vn 1.000000 0.000000 0.000000
vn 1.000000 0.000000 0.000000
vn 1.000000 0.000000 0.000000
s off
f 1/1/1 2/2/2 3/3/3 4/4/4
f 5/5/5 6/6/6 7/7/7 8/8/8
f 9/9/9 10/10/10 11/11/11 12/12/12
f 13/13/13 14/14/14 15/15/15 16/16/16
f 17/17/17 18/18/18 19/19/19 20/20/20
f 21/21/21 22/22/22 23/23/23 24/24/24
f 25/25/25 26/26/26 27/27/27 28/28/28
f 29/29/29 30/30/30 31/31/31 32/32/32
f 33/33/33 34/34/34 35/35/35 36/36/36
f 37/37/37 38/38/38 39/39/39 40/40/40
f 41/41/41 42/42/42 43/43/43 44/44/44
f 45/45/45 46/46/46 47/47/47 48/48/48
f 49/49/49 50/50/50 51/51/51 52/52/52
f 53/53/53 54/54/54 55/55/55 56/56/56
f 57/57/57 58/58/58 59/59/59 60/60/60
f 61/61/61 62/62/62 63/63/63 64/64/64
f 65/65/65 66/66/66 67/67/67 68/68/68
f 69/69/69 70/70/70 71/71/71 72/72/72
f 73/73/73 74/74/74 75/75/75 76/76/76
f 77/77/77 78/78/78 79/79/79 80/80/80
f 81/81/81 82/82/82 83/83/83 84/84/84
f 85/85/85 86/86/86 87/87/87 88/88/88
f 89/89/89 90/90/90 91/91/91 92/92/92
f 93/93/93 94/94/94 95/95/95 96/96/96
f 97/97/97 98/98/98 99/99/99 100/100/100
f 101/101/101 102/102/102 103/103/103 104/104/104
f 105/105/105 106/106/106 107/107/107 108/108/108
f 109/109/109 110/110/110 111/111/111 112/112/112
f 113/113/113 114/114/114 115/115/115 116/116/116
f 117/117/117 118/118/118 119/119/119 120/120/120
f 121/121/121 122/122/122 123/123/123 124/124/124
f 125/125/125 126/126/126 127/127/127 128/128/128
f 129/129/129 130/130/130 131/131/131 132/132/132
f 133/133/133 134/134/134 135/135/135 136/136/136
f 137/137/137 138/138/138 139/139/139 140/140/140
f 141/141/141 142/142/142 143/143/143 144/144/144
