# This file uses centimeters as units for non-parametric coordinates.

v -48.481377 0.000000 -212.335831
v -75.781982 0.000000 -204.191162
v -101.785934 0.000000 -192.552734
v -126.048302 0.000000 -177.619690
v -148.153946 0.000000 -159.647507
v -167.724625 0.000000 -138.943710
v -184.425491 0.000000 -115.862556
v -197.970795 0.000000 -90.798965
v -208.128784 0.000000 -64.181786
v -214.725571 0.000000 -36.466434
v -217.648376 0.000000 -8.127143
v -216.847137 0.000000 20.351208
v -212.335617 0.000000 48.481342
v -204.190948 0.000000 75.781937
v -192.552536 0.000000 101.785896
v -177.619492 0.000000 126.048256
v -159.647308 0.000000 148.153900
v -138.943512 0.000000 167.724594
v -115.862366 0.000000 184.425461
v -90.798782 0.000000 197.970734
v -64.181602 0.000000 208.128693
v -36.466270 0.000000 214.725510
v -8.126977 0.000000 217.648300
v 20.351364 0.000000 216.847061
v 48.481491 0.000000 212.335526
v 75.782082 0.000000 204.190857
v 101.786026 0.000000 192.552429
v 126.048378 0.000000 177.619370
v 148.154007 0.000000 159.647217
v 167.724670 0.000000 138.943436
v 184.425537 0.000000 115.862282
v 197.970810 0.000000 90.798714
v 208.128769 0.000000 64.181534
v 214.725555 0.000000 36.466206
v 217.648361 0.000000 8.126929
v 216.847122 0.000000 -20.351400
v 212.335587 0.000000 -48.481510
v 204.190918 0.000000 -75.782089
v 192.552490 0.000000 -101.786018
v 177.619446 0.000000 -126.048355
v 159.647293 0.000000 -148.153976
v 138.943512 0.000000 -167.724640
v 115.862396 0.000000 -184.425491
v 90.798828 0.000000 -197.970779
v 64.181664 0.000000 -208.128708
v 36.466343 0.000000 -214.725525
v 8.127078 0.000000 -217.648300
v -20.351242 0.000000 -216.847076
v -48.481377 42.287365 -212.335831
v -75.781982 42.287365 -204.191162
v -101.785934 42.287365 -192.552734
v -126.048302 42.287365 -177.619690
v -148.153946 42.287365 -159.647507
v -167.724625 42.287365 -138.943710
v -184.425491 42.287365 -115.862556
v -197.970795 42.287365 -90.798965
v -208.128784 42.287365 -64.181786
v -214.725571 42.287365 -36.466434
v -217.648376 42.287365 -8.127143
v -216.847137 42.287365 20.351208
v -212.335617 42.287365 48.481342
v -204.190948 42.287365 75.781937
v -192.552536 42.287365 101.785896
v -177.619492 42.287365 126.048256
v -159.647308 42.287365 148.153900
v -138.943512 42.287365 167.724594
v -115.862366 42.287365 184.425461
v -90.798782 42.287365 197.970734
v -64.181602 42.287365 208.128693
v -36.466270 42.287365 214.725510
v -8.126977 42.287365 217.648300
v 20.351364 42.287365 216.847061
v 48.481491 42.287365 212.335526
v 75.782082 42.287365 204.190857
v 101.786026 42.287365 192.552429
v 126.048378 42.287365 177.619370
v 148.154007 42.287365 159.647217
v 167.724670 42.287365 138.943436
v 184.425537 42.287365 115.862282
v 197.970810 42.287365 90.798714
v 208.128769 42.287365 64.181534
v 214.725555 42.287365 36.466206
v 217.648361 42.287365 8.126929
v 216.847122 42.287365 -20.351400
v 212.335587 42.287365 -48.481510
v 204.190918 42.287365 -75.782089
v 192.552490 42.287365 -101.786018
v 177.619446 42.287365 -126.048355
v 159.647293 42.287365 -148.153976
v 138.943512 42.287365 -167.724640
v 115.862396 42.287365 -184.425491
v 90.798828 42.287365 -197.970779
v 64.181664 42.287365 -208.128708
v 36.466343 42.287365 -214.725525
v 8.127078 42.287365 -217.648300
v -20.351242 42.287365 -216.847076
vt -3.119359 0.268263
vt -3.119359 0.482396
vt -2.968551 0.482396
vt -2.968551 0.268263
vt -2.817744 0.482396
vt -2.817744 0.268263
vt -2.666937 0.482396
vt -2.666937 0.268263
vt -2.516130 0.482396
vt -2.516130 0.268263
vt -2.365323 0.482396
vt -2.365323 0.268263
vt -2.214516 0.482396
vt -2.214516 0.268263
vt -2.063709 0.482396
vt -2.063709 0.268263
vt -1.912902 0.482396
vt -1.912902 0.268263
vt -1.762095 0.482396
vt -1.762095 0.268263
vt -1.611288 0.482396
vt -1.611288 0.268263
vt -1.460481 0.482396
vt -1.460481 0.268263
vt -1.309674 0.482396
vt -1.309674 0.268263
vt -1.158867 0.482396
vt -1.158867 0.268263
vt -1.008060 0.482396
vt -1.008060 0.268263
vt -0.857253 0.482396
vt -0.857253 0.268263
vt -0.706446 0.482396
vt -0.706446 0.268263
vt -0.555639 0.482396
vt -0.555639 0.268263
vt -0.404832 0.482396
vt -0.404832 0.268263
vt -0.254025 0.482396
vt -0.254025 0.268263
vt -0.103218 0.482396
vt -0.103218 0.268263
vt 0.047589 0.482396
vt 0.047589 0.268263
vt 0.198396 0.482396
vt 0.198396 0.268263
vt 0.349203 0.482396
vt 0.349203 0.268263
vt 0.500010 0.482396
vt 0.500010 0.268263
vt 0.650816 0.482396
vt 0.650816 0.268263
vt 0.801622 0.482396
vt 0.801622 0.268263
vt 0.952429 0.482396
vt 0.952429 0.268263
vt 1.103235 0.482396
vt 1.103235 0.268263
vt 1.254041 0.482396
vt 1.254041 0.268263
vt 1.404847 0.482396
vt 1.404847 0.268263
vt 1.555653 0.482396
vt 1.555653 0.268263
vt 1.706460 0.482396
vt 1.706460 0.268263
vt 1.857266 0.482396
vt 1.857266 0.268263
vt 2.008072 0.482396
vt 2.008072 0.268263
vt 2.158878 0.482396
vt 2.158878 0.268263
vt 2.309684 0.482396
vt 2.309684 0.268263
vt 2.460491 0.482396
vt 2.460491 0.268263
vt 2.611297 0.482396
vt 2.611297 0.268263
vt 2.762103 0.482396
vt 2.762103 0.268263
vt 2.912909 0.482396
vt 2.912909 0.268263
vt 3.063715 0.482396
vt 3.063715 0.268263
vt 3.214521 0.482396
vt 3.214521 0.268263
vt 3.365327 0.482396
vt 3.365327 0.268263
vt 3.516134 0.482396
vt 3.516134 0.268263
vt 3.666940 0.482396
vt 3.666940 0.268263
vt 3.817746 0.482396
vt 3.817746 0.268263
vt 3.968552 0.482396
vt 3.968552 0.268263
vt 4.119358 0.482396
vt 4.119358 0.268263
vn 0.222591 0.000000 0.974912
vn 0.222591 0.000000 0.974912
vn 0.347943 0.000000 0.937516
vn 0.347943 0.000000 0.937516
vn 0.467337 0.000000 0.884080
vn 0.467337 0.000000 0.884080
vn 0.578734 0.000000 0.815516
vn 0.578734 0.000000 0.815516
vn 0.680230 0.000000 0.732999
vn 0.680230 0.000000 0.732999
vn 0.770086 0.000000 0.637941
vn 0.770086 0.000000 0.637941
vn 0.846765 0.000000 0.531967
vn 0.846765 0.000000 0.531967
vn 0.908956 0.000000 0.416891
vn 0.908956 0.000000 0.416891
vn 0.955596 0.000000 0.294681
vn 0.955596 0.000000 0.294681
vn 0.985884 0.000000 0.167430
vn 0.985884 0.000000 0.167430
vn 0.999304 0.000000 0.037314
vn 0.999304 0.000000 0.037314
vn 0.995625 0.000000 -0.093440
vn 0.995625 0.000000 -0.093440
vn 0.974911 0.000000 -0.222596
vn 0.974911 0.000000 -0.222596
vn 0.937516 0.000000 -0.347943
vn 0.937516 0.000000 -0.347943
vn 0.884080 0.000000 -0.467336
vn 0.884080 0.000000 -0.467336
vn 0.815516 0.000000 -0.578734
vn 0.815516 0.000000 -0.578734
vn 0.732999 0.000000 -0.680229
vn 0.732999 0.000000 -0.680229
vn 0.637941 0.000000 -0.770085
vn 0.637941 0.000000 -0.770085
vn 0.531967 0.000000 -0.846765
vn 0.531967 0.000000 -0.846765
vn 0.416890 0.000000 -0.908957
vn 0.416890 0.000000 -0.908957
vn 0.294681 0.000000 -0.955596
vn 0.294681 0.000000 -0.955596
vn 0.167430 0.000000 -0.985884
vn 0.167430 0.000000 -0.985884
vn 0.037314 0.000000 -0.999304
vn 0.037314 0.000000 -0.999304
vn -0.093441 0.000000 -0.995625
vn -0.093441 0.000000 -0.995625
vn -0.222596 0.000000 -0.974911
vn -0.222596 0.000000 -0.974911
vn -0.347943 0.000000 -0.937516
vn -0.347943 0.000000 -0.937516
vn -0.467337 0.000000 -0.884079
vn -0.467337 0.000000 -0.884079
vn -0.578734 0.000000 -0.815516
vn -0.578734 0.000000 -0.815516
vn -0.680229 0.000000 -0.732999
vn -0.680229 0.000000 -0.732999
vn -0.770086 0.000000 -0.637941
vn -0.770086 0.000000 -0.637941
vn -0.846765 0.000000 -0.531967
vn -0.846765 0.000000 -0.531967
vn -0.908957 0.000000 -0.416890
vn -0.908957 0.000000 -0.416890
vn -0.955596 0.000000 -0.294681
vn -0.955596 0.000000 -0.294681
vn -0.985884 0.000000 -0.167430
vn -0.985884 0.000000 -0.167430
vn -0.999304 0.000000 -0.037314
vn -0.999304 0.000000 -0.037314
vn -0.995625 0.000000 0.093441
vn -0.995625 0.000000 0.093441
vn -0.974911 0.000000 0.222596
vn -0.974911 0.000000 0.222596
vn -0.937515 0.000000 0.347944
vn -0.937515 0.000000 0.347944
vn -0.884079 0.000000 0.467337
vn -0.884079 0.000000 0.467337
vn -0.815516 0.000000 0.578734
vn -0.815516 0.000000 0.578734
vn -0.732999 0.000000 0.680229
vn -0.732999 0.000000 0.680229
vn -0.637941 0.000000 0.770086
vn -0.637941 0.000000 0.770086
vn -0.531967 0.000000 0.846765
vn -0.531967 0.000000 0.846765
vn -0.416890 0.000000 0.908957
vn -0.416890 0.000000 0.908957
vn -0.294681 0.000000 0.955596
vn -0.294681 0.000000 0.955596
vn -0.167430 0.000000 0.985884
vn -0.167430 0.000000 0.985884
vn -0.037314 0.000000 0.999304
vn -0.037314 0.000000 0.999304
vn 0.093435 0.000000 0.995625
vn 0.093435 0.000000 0.995625
s 1
f 1/1/1 49/2/2 50/3/3 2/4/4
f 2/4/4 50/3/3 51/5/5 3/6/6
f 3/6/6 51/5/5 52/7/7 4/8/8
f 4/8/8 52/7/7 53/9/9 5/10/10
f 5/10/10 53/9/9 54/11/11 6/12/12
f 6/12/12 54/11/11 55/13/13 7/14/14
f 7/14/14 55/13/13 56/15/15 8/16/16
f 8/16/16 56/15/15 57/17/17 9/18/18
f 9/18/18 57/17/17 58/19/19 10/20/20
f 10/20/20 58/19/19 59/21/21 11/22/22
f 11/22/22 59/21/21 60/23/23 12/24/24
f 12/24/24 60/23/23 61/25/25 13/26/26
f 13/26/26 61/25/25 62/27/27 14/28/28
f 14/28/28 62/27/27 63/29/29 15/30/30
f 15/30/30 63/29/29 64/31/31 16/32/32
f 16/32/32 64/31/31 65/33/33 17/34/34
f 17/34/34 65/33/33 66/35/35 18/36/36
f 18/36/36 66/35/35 67/37/37 19/38/38
f 19/38/38 67/37/37 68/39/39 20/40/40
f 20/40/40 68/39/39 69/41/41 21/42/42
f 21/42/42 69/41/41 70/43/43 22/44/44
f 22/44/44 70/43/43 71/45/45 23/46/46
f 23/46/46 71/45/45 72/47/47 24/48/48
f 24/48/48 72/47/47 73/49/49 25/50/50
f 25/50/50 73/49/49 74/51/51 26/52/52
f 26/52/52 74/51/51 75/53/53 27/54/54
f 27/54/54 75/53/53 76/55/55 28/56/56
f 28/56/56 76/55/55 77/57/57 29/58/58
f 29/58/58 77/57/57 78/59/59 30/60/60
f 30/60/60 78/59/59 79/61/61 31/62/62
f 31/62/62 79/61/61 80/63/63 32/64/64
f 32/64/64 80/63/63 81/65/65 33/66/66
f 33/66/66 81/65/65 82/67/67 34/68/68
f 34/68/68 82/67/67 83/69/69 35/70/70
f 35/70/70 83/69/69 84/71/71 36/72/72
f 36/72/72 84/71/71 85/73/73 37/74/74
f 37/74/74 85/73/73 86/75/75 38/76/76
f 38/76/76 86/75/75 87/77/77 39/78/78
f 39/78/78 87/77/77 88/79/79 40/80/80
f 40/80/80 88/79/79 89/81/81 41/82/82
f 41/82/82 89/81/81 90/83/83 42/84/84
f 42/84/84 90/83/83 91/85/85 43/86/86
f 43/86/86 91/85/85 92/87/87 44/88/88
f 44/88/88 92/87/87 93/89/89 45/90/90
f 45/90/90 93/89/89 94/91/91 46/92/92
f 46/92/92 94/91/91 95/93/93 47/94/94
f 47/94/94 95/93/93 96/95/95 48/96/96
f 48/96/96 96/95/95 49/97/2 1/98/1
