# This file uses centimeters as units for non-parametric coordinates.

v 0.135468 0.000000 -5.000000
v 0.135468 0.000000 0.000000
v 0.315384 0.000000 -5.000000
v 0.315384 0.000000 0.000000
v 0.415970 0.000000 -1.375526
v 0.236053 0.000000 -1.375526
v 4.864532 0.000000 -5.000000
v 4.864532 0.000000 0.000000
v 4.684616 0.000000 -5.000000
v 4.684616 0.000000 0.000000
v 4.785507 0.000000 -1.781952
v 4.605591 0.000000 -1.781952
v 2.934502 0.000000 -1.584824
v 2.072754 0.000000 -1.584824
v 2.504471 0.000000 -0.655128
v 3.669342 0.000000 -1.584824
v 1.330643 0.000000 -1.584824
v 2.934502 0.000000 -3.861534
v 2.072754 0.000000 -3.834160
v 2.072754 0.000000 -2.637939
v 2.072754 0.000000 -3.093651
v 2.132736 0.000000 -2.959976
v 2.934502 0.000000 -1.921745
v 2.934502 0.000000 -2.111336
v 2.875603 0.000000 -2.007904
v 1.904114 0.000000 -1.130630
v 1.749481 0.000000 -1.253098
v 1.904053 0.000000 -1.216049
v 0.000000 0.000000 -5.000000
v 0.000000 0.000000 0.000000
v 0.000000 0.000000 -1.500000
v 5.000000 0.000000 -5.000000
v 5.000000 0.000000 0.000000
v 5.000000 0.000000 -1.500000
v 2.500000 0.000000 0.000000
v 2.500000 0.000000 -5.000000
vt 0.077522 0.208919
vt 0.077522 0.208919
vt 0.077522 0.208919
vt 0.077522 0.208919
vt 0.077522 0.208919
vt 0.077522 0.208919
vt 0.079147 0.209205
vt 0.079147 0.209205
vt 0.079147 0.209205
vt 0.079147 0.209205
vt 0.079147 0.209205
vt 0.079147 0.209205
vt 0.081123 0.209280
vt 0.081123 0.209280
vt 0.081123 0.209280
vt 0.081123 0.209280
vt 0.081123 0.209280
vt 0.081123 0.209280
vt 0.081123 0.209280
vt 0.081123 0.209280
vt 0.081123 0.209280
vt 0.081123 0.209280
vt 0.081123 0.209280
vt 0.081123 0.209280
vt 0.081123 0.209280
vt 0.081123 0.209280
vt 0.081123 0.209280
vt 0.081123 0.209280
vt 0.519734 0.505899
vt 0.529557 0.640216
vt 0.506507 0.652370
vt 0.506507 0.505899
vt 0.519734 0.994139
vt 0.506507 0.994139
vt 0.994747 0.505899
vt 0.994747 0.652370
vt 0.973802 0.679903
vt 0.981519 0.505899
vt 0.994747 0.994139
vt 0.981519 0.994139
vt 0.537303 0.505899
vt 0.692439 0.616303
vt 0.677340 0.628261
vt 0.547125 0.640216
vt 0.636442 0.660653
vt 0.708907 0.660653
vt 0.708907 0.763488
vt 0.956234 0.679903
vt 0.793055 0.712066
vt 0.793055 0.693553
vt 0.864811 0.660653
vt 0.963950 0.505899
vt 0.751063 0.569871
vt 0.750627 0.505899
vt 0.750627 0.994139
vt 0.793055 0.882970
vt 0.963950 0.994139
vt 0.537303 0.994139
vt 0.708907 0.880296
vt 0.714764 0.794935
vt 0.708907 0.807987
vt 0.787303 0.701967
vt 0.692433 0.624644
vt 0.793055 0.660653
vn 0.000000 1.000000 0.000000
vn 0.000000 1.000000 0.000000
vn 0.000000 1.000000 0.000000
vn 0.000000 1.000000 0.000000
vn 0.000000 1.000000 0.000000
vn 0.000000 1.000000 0.000000
vn 0.000000 1.000000 0.000000
vn 0.000000 1.000000 0.000000
vn 0.000000 1.000000 0.000000
vn 0.000000 1.000000 0.000000
vn 0.000000 1.000000 0.000000
vn 0.000000 1.000000 0.000000
vn 0.000000 1.000000 0.000000
vn 0.000000 1.000000 0.000000
vn 0.000000 1.000000 0.000000
vn 0.000000 1.000000 0.000000
vn 0.000000 1.000000 0.000000
vn -0.000000 1.000000 0.000000
vn 0.000000 1.000000 0.000000
vn 0.000000 1.000000 0.000000
vn 0.000000 1.000000 0.000000
vn 0.000000 1.000000 0.000000
vn -0.000000 1.000000 0.000000
vn 0.000000 1.000000 -0.000000
vn 0.000000 1.000000 0.000000
vn 0.000000 1.000000 0.000000
vn 0.000000 1.000000 -0.000000
vn 0.000000 1.000000 -0.000000
vn 0.000000 1.000000 0.000000
vn 0.000001 1.000000 -0.000000
vn -0.000000 1.000000 -0.000000
vn -0.000000 1.000000 -0.000000
vn 0.000000 1.000000 -0.000000
vn 0.000000 1.000000 -0.000000
vn 0.000000 1.000000 0.000000
vn -0.000000 1.000000 0.000000
vn 0.000000 1.000000 0.000000
vn 0.000000 1.000000 0.000001
vn 0.000000 1.000000 0.000000
vn 0.000000 1.000000 -0.000000
vn -0.000001 1.000000 0.000000
vn -0.000000 1.000000 0.000000
vn -0.000000 1.000000 -0.000000
vn -0.000000 1.000000 -0.000000
vn 0.000000 1.000000 -0.000000
vn -0.000000 1.000000 0.000000
vn 0.000000 1.000000 0.000000
vn 0.000000 1.000000 0.000000
vn 0.000000 1.000000 0.000000
vn 0.000000 1.000000 0.000000
vn 0.000000 1.000000 0.000000
vn 0.000000 1.000000 0.000000
vn 0.000000 1.000000 0.000000
vn 0.000000 1.000000 0.000000
vn 0.000000 1.000000 0.000000
vn 0.000000 1.000000 0.000000
vn 0.000000 1.000000 0.000000
vn 0.000000 1.000000 0.000000
vn 0.000000 1.000000 0.000000
vn 0.000000 1.000000 0.000000
vn 0.000000 1.000000 0.000000
vn 0.000000 1.000000 0.000000
vn 0.000000 1.000000 0.000000
vn -0.000000 1.000000 0.000000
vn -0.000000 1.000000 0.000000
vn 0.000000 1.000000 0.000000
vn 0.000000 1.000000 0.000000
vn -0.000000 1.000000 0.000000
vn -0.000000 1.000000 0.000000
vn 0.000000 1.000000 0.000000
vn 0.000000 1.000000 0.000000
vn 0.000000 1.000000 0.000000
vn 0.000000 1.000000 0.000000
vn 0.000000 1.000000 0.000000
vn 0.000000 1.000000 0.000000
vn 0.000000 1.000000 0.000000
vn 0.000000 1.000000 0.000000
vn 0.000000 1.000000 0.000000
vn 0.000000 1.000000 0.000000
vn 0.000000 1.000000 0.000000
vn 0.000000 1.000000 0.000000
vn 0.000000 1.000000 0.000000
vn 0.000000 1.000000 0.000000
vn 0.000000 1.000000 0.000000
vn 0.000000 1.000000 0.000000
vn 0.000000 1.000000 0.000000
vn 0.000000 1.000000 0.000000
vn 0.000000 1.000000 0.000000
vn 0.000000 1.000000 0.000000
vn 0.000000 1.000000 0.000000
vn 0.000000 1.000000 0.000000
vn 0.000000 1.000000 0.000000
vn 0.000000 1.000000 0.000000
vn -0.000000 1.000000 0.000000
vn -0.000006 1.000000 0.000000
vn -0.000000 1.000000 0.000000
vn 0.000000 1.000000 0.000000
vn 0.000006 1.000000 0.000000
vn 0.000000 1.000000 0.000000
vn -0.000000 1.000000 0.000000
vn -0.000003 1.000000 0.000004
vn -0.000000 1.000000 0.000000
vn 0.000000 1.000000 0.000000
vn 0.000000 1.000000 0.000000
vn 0.000000 1.000000 0.000000
vn 0.000000 1.000000 0.000000
vn 0.000000 1.000000 0.000000
vn 0.000000 1.000000 0.000000
vn 0.000000 1.000000 0.000000
vn -0.000000 1.000000 0.000000
vn 0.000000 1.000000 0.000000
vn 0.000000 1.000000 0.000000
vn -0.000000 1.000000 0.000000
vn -0.000000 1.000000 0.000000
vn 0.000000 1.000000 0.000000
vn 0.000000 1.000000 0.000000
vn -0.000000 1.000000 0.000000
vn 0.000000 1.000000 0.000000
vn 0.000000 1.000000 0.000000
vn 0.000000 1.000000 0.000000
vn 0.000000 1.000000 0.000000
vn -0.000000 1.000000 0.000000
vn 0.000000 1.000000 0.000000
vn 0.000000 1.000000 0.000000
vn 0.000000 1.000000 0.000000
vn 0.000000 1.000000 0.000000
s off
f 4/1/1 5/2/2 6/3/3 2/4/4
f 6/3/5 5/2/6 3/5/7 1/6/8
f 8/7/9 11/8/10 12/9/11 10/10/12
f 12/9/13 11/8/14 7/11/15 9/12/16
f 13/13/17 14/14/18 15/15/19
f 15/15/20 16/16/21 13/13/22
f 14/14/23 28/17/24 26/18/25 15/15/26
f 18/19/27 22/20/28 25/21/29 24/22/30
f 19/23/31 21/24/32 22/20/33 18/19/34
f 25/21/35 14/14/36 13/13/37 23/25/38
f 25/21/39 22/20/40 20/26/41 14/14/42
f 17/27/43 27/28/44 28/17/45 14/14/46
f 2/29/47 6/30/48 31/31/49 30/32/50
f 31/31/51 6/30/52 1/33/53 29/34/54
f 33/35/55 34/36/56 11/37/57 8/38/58
f 11/37/59 34/36/60 32/39/61 7/40/62
f 4/41/63 26/42/64 27/43/65
f 5/44/66 17/45/67 20/47/68
f 20/47/69 17/45/70 14/46/71
f 12/48/72 24/49/73 23/50/74 16/51/75
f 12/48/76 16/51/77 10/52/78
f 16/51/79 15/53/80 10/52/81
f 10/52/82 15/53/83 35/54/84
f 36/55/85 18/56/86 9/57/87
f 3/58/88 19/59/89 36/55/90
f 19/59/91 18/56/92 36/55/93
f 20/47/94 22/60/95 21/61/96
f 24/49/97 25/62/98 23/50/99
f 26/42/100 28/63/101 27/43/102
f 9/57/103 18/56/104 24/49/105
f 9/57/106 24/49/107 12/48/108
f 3/58/109 21/61/110 19/59/111
f 5/44/112 20/47/113 21/61/114 3/58/115
f 4/41/116 27/43/117 17/45/118 5/44/119
f 35/54/120 15/53/121 26/42/122 4/41/123
f 16/51/124 23/50/125 13/64/126
