# This file uses centimeters as units for non-parametric coordinates.

v 3.503821 0.000000 -4.999992
v 3.508951 0.000000 -1.449825
v 3.503821 0.000000 0.000000
v 9.844467 0.000000 0.000000
v 9.871460 0.000000 -0.746788
v 9.844467 0.000000 -4.999992
v 10.000000 0.000000 0.000000
v 10.000000 0.000000 -4.999992
v 3.346381 0.000000 0.000000
v 0.157440 0.000000 -4.999992
v 0.195465 0.000000 -2.194649
v 0.157440 0.000000 0.000000
v 3.190848 0.000000 0.000000
v 3.250735 0.000000 -1.086365
v 3.190848 0.000000 -4.999992
v 0.000000 0.000000 0.000000
v 0.000000 0.000000 -4.999992
v 6.674143 0.000000 -4.999992
v 6.674143 0.000000 0.000000
v 6.991176 0.000000 -4.999992
v 6.991175 0.000000 0.000000
v 6.718154 0.000000 -2.535871
v 6.947165 0.000000 -2.535871
v 5.088982 0.000000 -4.999992
v 5.088982 0.000000 0.000000
vt 0.994670 0.995051
vt 0.755330 0.806358
vt 0.994670 0.512144
vt 0.994670 0.801889
vt 0.994670 0.995051
vt 0.755330 0.829613
vt 0.081127 0.211208
vt 0.081127 0.211208
vt 0.081127 0.211208
vt 0.081127 0.211208
vt 0.081127 0.211208
vt 0.081127 0.211208
vt 0.081127 0.211208
vt 0.081127 0.211208
vt 0.081127 0.211208
vt 0.722188 0.991307
vt 0.994670 0.696328
vt 0.614540 0.690430
vt 0.509022 0.995051
vt 0.509022 0.696328
vt 0.649843 0.665002
vt 0.081127 0.211208
vt 0.081127 0.211208
vt 0.081127 0.211208
vt 0.081127 0.211208
vt 0.081127 0.211208
vt 0.081127 0.211208
vt 0.081127 0.211208
vt 0.081127 0.211208
vt 0.994670 0.834083
vt 0.509022 0.509403
vt 0.509022 0.834083
vt 0.509022 0.995051
vt 0.994670 0.509403
vt 0.581557 0.509403
vt 0.081632 0.209682
vt 0.081632 0.209682
vt 0.081632 0.209682
vt 0.081632 0.209682
vt 0.081632 0.209682
vt 0.081632 0.209682
vt 0.509022 0.801889
vt 0.509022 0.512144
vt 0.994670 0.665507
vt 0.509022 0.665507
vn 0.000000 1.000000 0.000000
vn 0.000000 1.000000 0.000000
vn 0.000000 1.000000 0.000000
vn 0.000000 1.000000 0.000000
vn 0.000000 1.000000 0.000000
vn 0.000000 1.000000 0.000000
vn 0.000000 1.000000 0.000000
vn 0.000000 1.000000 0.000000
vn 0.000000 1.000000 0.000000
vn 0.000000 1.000000 0.000000
vn 0.000000 1.000000 0.000000
vn 0.000000 1.000000 0.000000
vn 0.000000 1.000000 0.000000
vn 0.000000 1.000000 0.000000
vn 0.000000 1.000000 0.000000
vn 0.000000 1.000000 0.000000
vn 0.000000 1.000000 0.000000
vn 0.000000 1.000000 0.000000
vn 0.000000 1.000000 0.000000
vn 0.000000 1.000000 0.000000
vn 0.000000 1.000000 0.000000
vn 0.000000 1.000000 0.000000
vn 0.000000 1.000000 0.000000
vn 0.000000 1.000000 0.000000
vn 0.000000 1.000000 0.000000
vn 0.000000 1.000000 0.000000
vn 0.000000 1.000000 0.000000
vn 0.000000 1.000000 0.000000
vn 0.000000 1.000000 0.000000
vn 0.000000 1.000000 0.000000
vn 0.000000 1.000000 0.000000
vn 0.000000 1.000000 0.000000
vn 0.000000 1.000000 0.000000
vn 0.000000 1.000000 0.000000
vn 0.000000 1.000000 0.000000
vn 0.000000 1.000000 0.000000
vn 0.000000 1.000000 0.000000
vn 0.000000 1.000000 0.000000
vn 0.000000 1.000000 0.000000
vn 0.000000 1.000000 0.000000
vn 0.000000 1.000000 0.000000
vn 0.000000 1.000000 0.000000
vn 0.000000 1.000000 0.000000
vn 0.000000 1.000000 0.000000
vn 0.000000 1.000000 0.000000
vn 0.000000 1.000000 0.000000
vn 0.000000 1.000000 0.000000
vn 0.000000 1.000000 0.000000
vn 0.000000 1.000000 0.000000
vn 0.000000 1.000000 0.000000
vn 0.000000 1.000000 0.000000
vn 0.000000 1.000000 0.000000
vn 0.000000 1.000000 0.000000
vn 0.000000 1.000000 0.000000
vn 0.000000 1.000000 0.000000
vn 0.000000 1.000000 0.000000
vn 0.000000 1.000000 0.000000
vn 0.000000 1.000000 0.000000
vn 0.000000 1.000000 0.000000
vn 0.000000 1.000000 0.000000
vn 0.000000 1.000000 0.000000
vn 0.000000 1.000000 0.000000
vn 0.000000 1.000000 0.000000
vn 0.000000 1.000000 0.000000
vn 0.000000 1.000000 0.000000
vn 0.000000 1.000000 0.000000
vn 0.000000 1.000000 0.000000
vn 0.000000 1.000000 0.000000
vn 0.000000 1.000000 0.000000
s off
f 23/2/1 6/3/2 20/4/3
f 7/7/4 5/8/5 4/9/6
f 6/10/7 5/8/8 7/7/9 8/11/10
f 10/1/11 11/16/12 15/17/13
f 15/17/14 11/16/15 14/18/16
f 11/16/17 12/19/18 14/18/19
f 12/19/20 13/20/21 14/18/22
f 14/22/23 2/13/24 1/14/25 15/24/26
f 16/25/27 11/26/28 10/27/29 17/28/30
f 16/25/31 12/29/32 11/26/33
f 14/22/34 13/23/35 9/12/36 3/15/37 2/13/38
f 24/5/39 22/6/40 18/30/41
f 22/36/42 23/37/43 20/38/44 18/39/45
f 21/40/46 23/37/47 22/36/48 19/41/49
f 19/32/50 22/6/51 25/33/52
f 5/35/53 23/2/54 21/42/55 4/43/56
f 24/5/57 25/33/58 22/6/59
f 5/35/60 6/3/61 23/2/62
f 2/21/63 25/31/64 24/34/65 1/44/66
f 25/31/67 2/21/68 3/45/69
