# This file uses centimeters as units for non-parametric coordinates.

v 0.000000 0.000000 0.000000
v 5.000000 0.000000 0.000000
v 0.000000 0.000000 -5.000000
v 5.000000 0.000000 -5.000000
v 0.250000 0.000000 -5.000000
v 0.250000 0.000000 0.000000
v 4.750000 0.000000 -5.000000
v 4.750000 0.000000 0.000000
v 4.750000 0.000000 -1.000000
v 0.250000 0.000000 -4.000008
v 1.392242 0.000000 -3.984673
v 2.800903 0.000000 -2.732529
v 2.054153 0.000000 -3.209488
v 4.005783 0.000000 -0.661537
v 3.470505 0.000000 -1.137329
v 3.665863 0.000000 -1.114021
v 4.750000 0.000000 -2.824242
v 4.750000 0.000000 -2.504417
v 4.805664 0.000000 -2.721329
vt 0.078022 0.211379
vt 0.078022 0.211379
vt 0.078022 0.211379
vt 0.078022 0.211379
vt 0.078022 0.211379
vt 0.078022 0.211379
vt 0.078022 0.211379
vt 0.078022 0.211379
vt 0.078022 0.211379
vt 0.078022 0.211379
vt 0.078022 0.211379
vt 0.078022 0.211379
vt 0.078022 0.211379
vt 0.078022 0.211379
vt 0.078022 0.211379
vt 0.078022 0.211379
vt 0.078022 0.211379
vt 0.078022 0.211379
vt 0.078022 0.211379
vt 0.506507 0.994139
vt 0.628924 0.894994
vt 0.988782 0.994139
vt 0.699862 0.819299
vt 0.779893 0.772725
vt 0.988782 0.750450
vt 0.994748 0.771631
vt 0.988782 0.781680
vt 0.988782 0.603546
vt 0.506507 0.505899
vt 0.988782 0.505899
vt 0.909023 0.570496
vt 0.851656 0.616956
vt 0.872593 0.614680
vt 0.506507 0.896492
vn 0.000000 1.000000 0.000000
vn 0.000000 1.000000 0.000000
vn 0.000000 1.000000 0.000000
vn 0.000000 1.000000 0.000000
vn 0.000000 1.000000 0.000000
vn 0.000000 1.000000 0.000000
vn 0.000000 1.000000 0.000000
vn 0.000000 1.000000 0.000000
vn 0.000000 1.000000 0.000000
vn 0.000000 1.000000 0.000000
vn 0.000000 1.000000 0.000000
vn 0.000000 1.000000 0.000000
vn 0.000000 1.000000 0.000000
vn 0.000000 1.000000 0.000000
vn 0.000000 1.000000 0.000000
vn 0.000000 1.000000 0.000000
vn 0.000000 1.000000 0.000000
vn 0.000000 1.000000 0.000000
vn 0.000000 1.000000 0.000000
vn 0.000000 1.000000 0.000000
vn 0.000000 1.000000 0.000000
vn 0.000000 1.000000 0.000000
vn 0.000000 1.000000 0.000000
vn 0.000000 1.000000 0.000000
vn 0.000000 1.000000 0.000000
vn 0.000000 1.000000 0.000000
vn 0.000000 1.000000 0.000000
vn 0.000000 1.000000 0.000000
vn 0.000000 1.000000 0.000000
vn 0.000000 1.000000 0.000000
vn 0.000000 1.000000 0.000000
vn 0.000000 1.000000 0.000000
vn 0.000000 1.000000 0.000000
vn 0.000000 1.000000 0.000000
vn 0.000000 1.000000 0.000000
vn 0.000000 1.000000 0.000000
vn 0.000000 1.000000 0.000000
vn 0.000000 1.000000 0.000000
vn 0.000000 1.000000 0.000000
vn 0.000000 1.000000 0.000000
vn 0.000000 1.000000 0.000000
vn 0.000000 1.000000 0.000000
vn 0.000000 1.000000 0.000000
vn 0.000000 1.000000 0.000000
vn 0.000000 1.000000 0.000000
vn 0.000000 1.000000 0.000000
vn 0.000000 1.000000 0.000000
vn 0.000000 1.000000 0.000000
vn 0.000000 1.000000 0.000000
vn 0.000000 1.000000 0.000000
vn 0.000000 1.000000 0.000000
vn 0.000000 1.000000 0.000000
vn 0.000000 1.000000 0.000000
vn 0.000000 1.000000 0.000000
vn 0.000000 1.000000 0.000000
vn 0.000000 1.000000 0.000000
vn 0.000000 1.000000 0.000000
vn 0.000000 1.000000 0.000000
vn 0.000000 1.000000 0.000000
vn 0.000000 1.000000 0.000000
vn 0.000000 1.000000 0.000000
vn 0.000000 1.000000 0.000000
vn 0.000000 1.000000 0.000000
vn 0.000000 1.000000 0.000000
vn 0.000000 1.000000 0.000000
vn 0.000000 1.000000 0.000000
vn 0.000000 1.000000 0.000000
vn 0.000000 1.000000 0.000000
vn 0.000000 1.000000 0.000000
vn 0.000000 1.000000 0.000000
s off
f 4/1/1 19/2/2 2/3/3
f 1/4/4 6/5/5 3/8/6
f 5/7/7 3/8/8 10/6/9
f 6/5/10 10/6/11 3/8/12
f 9/9/13 16/10/14 14/11/15 8/12/16
f 10/6/17 15/13/18 16/10/19 13/14/20
f 13/14/21 16/10/22 9/9/23 12/15/24
f 10/6/25 13/14/26 11/16/27 5/7/28
f 7/17/29 17/18/30 19/2/31 4/1/32
f 19/2/33 18/19/34 2/3/35
f 18/19/36 9/9/37 2/3/38
f 2/3/39 9/9/40 8/12/41
f 5/20/42 11/21/43 7/22/44
f 11/21/45 13/23/46 12/24/47
f 18/25/48 19/26/49 17/27/50
f 17/27/51 11/21/52 12/24/53 18/25/54
f 18/25/55 12/24/56 9/28/57
f 7/22/58 11/21/59 17/27/60
f 6/29/61 8/30/62 14/31/63 15/32/64
f 14/31/65 16/33/66 15/32/67
f 6/29/68 15/32/69 10/34/70
