# This file uses centimeters as units for non-parametric coordinates.

v 4.864532 0.000000 0.000000
v 4.864532 0.000000 -5.000000
v 4.684616 0.000000 0.000000
v 4.684616 0.000000 -5.000000
v 4.589523 0.000000 -1.634674
v 4.769440 0.000000 -1.634674
v 5.000000 0.000000 0.000000
v 5.000000 0.000000 -5.000000
v 5.000000 0.000000 -1.634674
v 0.000000 0.000000 0.000000
v 0.000000 0.000000 -5.000000
v 0.000000 0.000000 -1.634674
vt 0.096745 0.211665
vt 0.096745 0.211665
vt 0.096745 0.211665
vt 0.096745 0.211665
vt 0.096745 0.211665
vt 0.096745 0.211665
vt 0.981519 0.994139
vt 0.972233 0.665522
vt 0.994747 0.665522
vt 0.994747 0.994139
vt 0.981519 0.505899
vt 0.994747 0.505899
vt 0.506507 0.994139
vt 0.506507 0.665522
vt 0.954665 0.665522
vt 0.963951 0.994139
vt 0.506507 0.505899
vt 0.963951 0.505899
vn 0.000000 1.000000 0.000000
vn 0.000000 1.000000 0.000000
vn 0.000000 1.000000 0.000000
vn 0.000000 1.000000 0.000000
vn 0.000000 1.000000 0.000000
vn 0.000000 1.000000 0.000000
vn 0.000000 1.000000 0.000000
vn 0.000000 1.000000 0.000000
vn 0.000000 1.000000 0.000000
vn 0.000000 1.000000 0.000000
vn 0.000000 1.000000 0.000000
vn 0.000000 1.000000 0.000000
vn 0.000000 1.000000 0.000000
vn 0.000000 1.000000 0.000000
vn 0.000000 1.000000 0.000000
vn 0.000000 1.000000 0.000000
vn 0.000000 1.000000 0.000000
vn 0.000000 1.000000 0.000000
vn 0.000000 1.000000 0.000000
vn 0.000000 1.000000 0.000000
vn 0.000000 1.000000 0.000000
vn 0.000000 1.000000 0.000000
vn 0.000000 1.000000 0.000000
vn 0.000000 1.000000 0.000000
s off
f 4/1/1 5/2/2 6/3/3 2/4/4
f 6/3/5 5/2/6 3/5/7 1/6/8
f 2/7/9 6/8/10 9/9/11 8/10/12
f 9/9/13 6/8/14 1/11/15 7/12/16
f 11/13/17 12/14/18 5/15/19 4/16/20
f 5/15/21 12/14/22 10/17/23 3/18/24
