# This file uses centimeters as units for non-parametric coordinates.

v 0.000000 0.000000 0.000000
v 5.000000 0.000000 0.000000
v 0.000000 0.000000 -5.000000
v 5.000000 0.000000 -5.000000
v 2.500000 0.000000 -5.000000
v 2.500000 0.000000 0.000000
v 4.842545 0.000000 -4.375000
v 2.500000 0.000000 -2.500000
v 4.842545 0.000000 -1.875000
v 5.000000 0.000000 -1.875000
v 5.000000 0.000000 -3.125000
v 4.842545 0.000000 -3.125000
v 0.157440 0.000000 -0.625000
v 0.000000 0.000000 -0.625000
v 0.000000 0.000000 -4.375000
v 0.157440 0.000000 -4.375000
v 5.000000 0.000000 -0.625000
v 4.842545 0.000000 -0.625000
v 4.842545 0.000000 -4.287666
v 4.945435 0.000000 -4.375000
v 5.000000 0.000000 -4.375000
v 0.157440 0.000000 -4.127106
v 0.157440 0.000000 -3.698570
v 0.157440 0.000000 -3.125000
v 0.000000 0.000000 -3.125000
v 0.000000 0.000000 -1.875000
v 0.157440 0.000000 -1.875000
v 0.117111 0.000000 -3.942017
v 0.157440 0.000000 -0.996353
v 0.109100 0.000000 -0.882767
v 0.157440 0.000000 -0.750237
v 4.842545 0.000000 -1.554024
v 4.885651 0.000000 -1.675026
v 4.842545 0.000000 -1.799713
vt 0.979372 0.811049
vt 0.979372 0.688989
vt 0.994747 0.688989
vt 0.994747 0.811049
vt 0.506507 0.505899
vt 0.750627 0.505899
vt 0.521881 0.566929
vt 0.506507 0.566929
vt 0.506507 0.933109
vt 0.521881 0.933109
vt 0.750627 0.994139
vt 0.506507 0.994139
vt 0.994747 0.566929
vt 0.979372 0.566929
vt 0.994747 0.505899
vt 0.979372 0.924581
vt 0.989420 0.933109
vt 0.979372 0.933109
vt 0.994747 0.933109
vt 0.994747 0.994139
vt 0.521881 0.811049
vt 0.750627 0.750019
vt 0.521881 0.908902
vt 0.521881 0.867057
vt 0.506507 0.811049
vt 0.506507 0.688989
vt 0.521881 0.688989
vt 0.517942 0.890829
vt 0.521881 0.603191
vt 0.517160 0.592098
vt 0.521881 0.579158
vt 0.979372 0.657646
vt 0.983582 0.669462
vt 0.979372 0.681637
vt 0.082605 0.208233
vt 0.082605 0.208233
vt 0.082605 0.208233
vt 0.082605 0.208233
vt 0.082605 0.208233
vt 0.082605 0.208233
vt 0.082605 0.208233
vt 0.082605 0.208233
vt 0.082605 0.208233
vt 0.082605 0.208233
vt 0.082605 0.208233
vt 0.082605 0.208233
vt 0.082605 0.208233
vt 0.082605 0.208233
vt 0.082604 0.208233
vt 0.082604 0.208233
vt 0.082604 0.208233
vt 0.082604 0.208233
vt 0.082604 0.208233
vt 0.082604 0.208233
vt 0.082604 0.208233
vt 0.082604 0.208233
vt 0.082604 0.208233
vt 0.082604 0.208233
vt 0.082604 0.208233
vt 0.082604 0.208233
vn 0.000000 1.000000 0.000000
vn 0.000000 1.000000 0.000000
vn 0.000000 1.000000 0.000000
vn 0.000000 1.000000 0.000000
vn 0.000000 1.000000 0.000000
vn 0.000000 1.000000 0.000000
vn 0.000000 1.000000 0.000000
vn 0.000000 1.000000 0.000000
vn 0.000000 1.000000 0.000000
vn 0.000000 1.000000 0.000000
vn 0.000000 1.000000 0.000000
vn 0.000000 1.000000 0.000000
vn 0.000000 1.000000 0.000000
vn 0.000000 1.000000 0.000000
vn 0.000000 1.000000 0.000000
vn 0.000000 1.000000 0.000000
vn 0.000000 1.000000 0.000000
vn 0.000000 1.000000 0.000000
vn 0.000000 1.000000 0.000000
vn 0.000000 1.000000 0.000000
vn 0.000000 1.000000 0.000000
vn 0.000000 1.000000 0.000000
vn 0.000000 1.000000 0.000000
vn 0.000000 1.000000 0.000000
vn 0.000000 1.000000 0.000000
vn 0.000000 1.000000 0.000000
vn 0.000000 1.000000 0.000000
vn 0.000000 1.000000 0.000000
vn 0.000000 1.000000 0.000000
vn 0.000000 1.000000 0.000000
vn 0.000000 1.000000 0.000000
vn 0.000000 1.000000 0.000000
vn 0.000000 1.000000 0.000000
vn 0.000000 1.000000 0.000000
vn 0.000000 1.000000 0.000000
vn 0.000000 1.000000 0.000000
vn 0.000000 1.000000 0.000000
vn 0.000000 1.000000 0.000000
vn 0.000000 1.000000 0.000000
vn 0.000000 1.000000 0.000000
vn 0.000000 1.000000 0.000000
vn 0.000000 1.000000 0.000000
vn 0.000000 1.000000 0.000000
vn 0.000000 1.000000 0.000000
vn 0.000000 1.000000 0.000000
vn 0.000000 1.000000 0.000000
vn 0.000000 1.000000 0.000000
vn 0.000000 1.000000 0.000000
vn 0.000000 1.000000 0.000000
vn 0.000000 1.000000 0.000000
vn 0.000000 1.000000 0.000000
vn 0.000000 1.000000 0.000000
vn 0.000000 1.000000 0.000000
vn 0.000000 1.000000 0.000000
vn 0.000000 1.000000 0.000000
vn 0.000000 1.000000 0.000000
vn 0.000000 1.000000 0.000000
vn 0.000000 1.000000 0.000000
vn 0.000000 1.000000 0.000000
vn 0.000000 1.000000 0.000000
vn 0.000000 1.000000 0.000000
vn 0.000000 1.000000 0.000000
vn 0.000000 1.000000 0.000000
vn 0.000000 1.000000 0.000000
vn 0.000000 1.000000 0.000000
vn 0.000000 1.000000 0.000000
vn 0.000000 1.000000 0.000000
vn 0.000000 1.000000 0.000000
vn 0.000000 1.000000 0.000000
vn 0.000000 1.000000 0.000000
vn 0.000000 1.000000 0.000000
vn 0.000000 1.000000 0.000000
vn 0.000000 1.000000 0.000000
vn 0.000000 1.000000 0.000000
vn 0.000000 1.000000 0.000000
vn 0.000000 1.000000 0.000000
vn 0.000000 1.000000 0.000000
vn 0.000000 1.000000 0.000000
vn 0.000000 1.000000 0.000000
vn 0.000000 1.000000 0.000000
vn 0.000000 1.000000 0.000000
vn 0.000000 1.000000 0.000000
vn 0.000000 1.000000 0.000000
vn 0.000000 1.000000 0.000000
vn 0.000000 1.000000 0.000000
vn 0.000000 1.000000 0.000000
vn 0.000000 1.000000 0.000000
vn 0.000000 1.000000 0.000000
vn 0.000000 1.000000 0.000000
vn 0.000000 1.000000 0.000000
vn 0.000000 1.000000 0.000000
vn 0.000000 1.000000 0.000000
vn 0.000000 1.000000 0.000000
vn 0.000000 1.000000 0.000000
vn 0.000000 1.000000 0.000000
vn 0.000000 1.000000 0.000000
vn 0.000000 1.000000 0.000000
vn 0.000000 1.000000 0.000000
vn 0.000000 1.000000 0.000000
vn 0.000000 1.000000 0.000000
vn 0.000000 1.000000 0.000000
vn 0.000000 1.000000 0.000000
vn 0.000000 1.000000 0.000000
vn 0.000000 1.000000 0.000000
vn 0.000000 1.000000 0.000000
vn 0.000000 1.000000 0.000000
vn 0.000000 1.000000 0.000000
vn 0.000000 1.000000 0.000000
vn 0.000000 1.000000 0.000000
vn 0.000000 1.000000 0.000000
vn 0.000000 1.000000 0.000000
vn 0.000000 1.000000 0.000000
vn 0.000000 1.000000 0.000000
vn 0.000000 1.000000 0.000000
vn 0.000000 1.000000 0.000000
vn 0.000000 1.000000 0.000000
vn 0.000000 1.000000 0.000000
vn 0.000000 1.000000 0.000000
vn 0.000000 1.000000 0.000000
vn 0.000000 1.000000 0.000000
vn 0.000000 1.000000 0.000000
vn 0.000000 1.000000 0.000000
vn 0.000000 1.000000 0.000000
vn 0.000000 1.000000 0.000000
vn 0.000000 1.000000 0.000000
vn 0.000000 1.000000 0.000000
vn 0.000000 1.000000 0.000000
vn 0.000000 1.000000 0.000000
vn 0.000000 1.000000 0.000000
vn 0.000000 1.000000 0.000000
vn 0.000000 1.000000 0.000000
vn 0.000000 1.000000 0.000000
vn 0.000000 1.000000 0.000000
vn 0.000000 1.000000 0.000000
vn 0.000000 1.000000 0.000000
vn 0.000000 1.000000 0.000000
vn 0.000000 1.000000 0.000000
vn 0.000000 1.000000 0.000000
s off
f 12/1/1 9/2/2 10/3/3 11/4/4
f 1/5/5 6/6/6 13/7/7 14/8/8
f 15/9/9 16/10/10 5/11/11 3/12/12
f 17/13/13 18/14/14 6/6/15 2/15/16
f 19/16/17 20/17/18 7/18/19
f 21/19/20 4/20/21 20/17/22
f 20/17/23 4/20/24 7/18/25
f 5/11/26 7/18/27 4/20/28
f 8/22/29 5/11/30 24/21/31
f 24/21/32 5/11/33 23/24/34
f 23/24/35 5/11/36 22/23/37
f 5/11/38 16/10/39 22/23/40
f 24/21/41 25/25/42 26/26/43 27/27/44
f 12/1/45 8/22/46 9/2/47
f 22/23/48 28/28/49 23/24/50
f 29/29/51 30/30/52 31/31/53
f 8/22/54 27/27/55 6/6/56
f 27/27/57 29/29/58 6/6/59
f 29/29/60 31/31/61 6/6/62
f 31/31/63 13/7/64 6/6/65
f 24/21/66 27/27/67 8/22/68
f 32/32/69 33/33/70 34/34/71
f 5/11/72 8/22/73 7/18/74
f 7/18/75 8/22/76 19/16/77
f 12/1/78 19/16/79 8/22/80
f 8/22/81 6/6/82 9/2/83
f 9/2/84 6/6/85 34/34/86
f 34/34/87 6/6/88 32/32/89
f 6/6/90 18/14/91 32/32/92
f 15/35/93 25/36/94 28/37/95
f 28/37/96 25/36/97 24/38/98 23/39/99
f 15/35/100 28/37/101 22/40/102 16/41/103
f 26/42/104 14/43/105 30/44/106
f 30/44/107 14/43/108 13/45/109 31/46/110
f 26/42/111 30/44/112 29/47/113 27/48/114
f 18/49/115 17/50/116 32/55/117
f 9/52/118 34/53/119 10/51/120
f 34/53/121 33/54/122 10/51/123
f 10/51/124 33/54/125 17/50/126
f 17/50/127 33/54/128 32/55/129
f 12/56/130 11/57/131 19/60/132
f 21/58/133 20/59/134 11/57/135
f 11/57/136 20/59/137 19/60/138
