# This file uses centimeters as units for non-parametric coordinates.

v 5.000000 -0.000000 0.000008
v 5.000000 0.069697 -0.673775
v 5.000000 0.069697 -1.023056
v 5.000000 -0.230295 -0.587440
v 5.000000 -0.000000 -1.073776
v 5.000000 -0.054173 -0.080345
v 5.000000 -0.083538 -0.265427
v 5.000008 -0.000000 -3.166565
v 2.683113 -0.000000 0.000008
v 2.694344 -0.054173 -0.075539
v 2.804993 -0.103095 -0.303513
v 2.985542 -0.230295 -0.769783
v 2.987007 0.069697 -0.856117
v 3.001068 0.069697 -1.205399
v 3.091797 -0.000000 -1.279053
v 3.151985 -0.036160 -3.039116
v 3.145393 -0.000000 -3.110390
v 2.968040 -0.000000 -1.312347
v 3.062256 -0.000000 -3.022926
v 4.973396 0.008383 -3.184288
v 4.973595 -0.007455 -3.146568
v 4.948936 -0.000000 -1.083763
v 4.917877 0.069697 -1.023056
v 4.973595 0.069697 -0.673775
v 4.973595 -0.230295 -0.587440
v 4.973595 -0.083538 -0.265427
v 4.973595 -0.054173 -0.080345
v 0.000008 -0.000000 -4.999992
v 5.000008 -0.000000 -4.999992
v 0.673790 0.069697 -4.999992
v 1.023071 0.069697 -4.999992
v 0.587456 -0.230295 -4.999992
v 1.073792 -0.000000 -4.999992
v 0.080360 -0.054173 -4.999992
v 0.265434 -0.083538 -4.999992
v 3.173294 -0.000000 -4.999992
v 0.000008 -0.000000 -3.062614
v 0.075554 -0.054173 -3.052490
v 0.334938 -0.103095 -3.173767
v 0.828545 -0.230295 -3.188148
v 0.914879 0.069697 -3.188148
v 1.264160 0.069697 -3.188148
v 1.349098 -0.000000 -3.132019
v 1.325699 -0.000000 -3.234352
v 3.091972 0.017936 -3.110382
v 3.200005 -0.000000 -4.966393
v 3.146584 -0.000000 -4.966393
v 1.108856 -0.000000 -4.908806
v 1.023071 0.069697 -4.966393
v 0.673790 0.069697 -4.966393
v 0.587456 -0.230295 -4.966393
v 0.265434 -0.083538 -4.966393
v 0.080360 -0.054173 -4.966393
v 4.973793 -0.000000 -4.966393
v 0.000000 0.000000 0.000008
v 1.851547 -0.000000 -1.863411
v 1.759926 0.069697 -1.800636
v 1.508072 0.069697 -1.550705
v 1.396500 -0.230295 -1.479858
v 1.048790 -0.103095 -1.165245
v 0.878502 -0.054173 -0.971352
v 0.769127 0.000000 -0.850410
vt 0.066177 0.209415
vt 0.102497 0.279316
vt 0.102497 0.279316
vt 0.102497 0.279316
vt 0.102705 0.299407
vt 0.102497 0.279316
vt 0.102497 0.279316
vt 0.066177 0.209415
vt 0.102497 0.279316
vt 0.102497 0.279316
vt 0.102497 0.279316
vt 0.102705 0.299407
vt 0.102705 0.299407
vt 0.102183 0.307564
vt 0.102183 0.307564
vt 0.102183 0.307564
vt 0.102183 0.307564
vt 0.102497 0.301795
vt 0.102183 0.307564
vt 0.102705 0.299407
vt 0.102705 0.299407
vt 0.102497 0.301795
vt 0.102705 0.299407
vt 0.102705 0.299407
vt 0.102318 0.327655
vt 0.102183 0.307564
vt 0.102318 0.327655
vt 0.102183 0.307564
vt 0.102183 0.307564
vt 0.102183 0.307564
vt 0.102183 0.307564
vt 0.102183 0.307564
vt 0.102183 0.307564
vt 0.102183 0.307564
vt 0.102183 0.307564
vt 0.066177 0.209415
vt 0.066177 0.209415
vt 0.066177 0.209415
vt 0.102705 0.299407
vt 0.102497 0.279316
vt 0.102497 0.279316
vt 0.102497 0.279316
vt 0.102497 0.279316
vt 0.102497 0.279316
vt 0.102497 0.279316
vt 0.102497 0.279316
vt 0.102497 0.279316
vt 0.102497 0.279316
vt 0.102497 0.279316
vt 0.102705 0.299407
vt 0.102497 0.279316
vt 0.102705 0.299407
vt 0.102705 0.299407
vt 0.102705 0.299407
vt 0.102705 0.299407
vt 0.102497 0.279316
vt 0.102705 0.299407
vt 0.102318 0.327655
vt 0.102705 0.299407
vt 0.102183 0.307564
vt 0.102497 0.301795
vt 0.102318 0.327655
vt 0.102183 0.307564
vt 0.102183 0.307564
vt 0.102183 0.307564
vt 0.066177 0.209415
vt 0.066177 0.209415
vt 0.066177 0.209415
vt 0.066177 0.209415
vt 0.102183 0.307564
vt 0.102183 0.307564
vt 0.102183 0.307564
vt 0.102183 0.307564
vt 0.102183 0.307564
vt 0.102183 0.307564
vt 0.102183 0.307564
vt 0.102183 0.307564
vt 0.102183 0.307564
vt 0.102183 0.307564
vt 0.102183 0.307564
vt 0.102183 0.307564
vt 0.102705 0.299407
vt 0.102705 0.299407
vt 0.102705 0.299407
vt 0.102705 0.299407
vt 0.102183 0.307564
vt 0.102183 0.307564
vt 0.102183 0.307564
vt 0.102183 0.307564
vt 0.102183 0.307564
vt 0.102183 0.307564
vt 0.102318 0.327655
vt 0.102318 0.327655
vt 0.102318 0.327655
vt 0.102318 0.327655
vt 0.102318 0.327655
vt 0.102318 0.327655
vt 0.102318 0.327655
vt 0.102318 0.327655
vt 0.102497 0.301795
vt 0.102497 0.301795
vt 0.102497 0.301795
vt 0.102705 0.299407
vt 0.102705 0.299407
vt 0.102705 0.299407
vt 0.102705 0.299407
vt 0.102705 0.299407
vt 0.102705 0.299407
vt 0.102705 0.299407
vt 0.102705 0.299407
vt 0.102705 0.299407
vt 0.102705 0.299407
vt 0.102705 0.299407
vt 0.102705 0.299407
vt 0.102705 0.299407
vt 0.102705 0.299407
vt 0.102705 0.299407
vt 0.102705 0.299407
vt 0.102705 0.299407
vt 0.102705 0.299407
vt 0.102497 0.279316
vt 0.102497 0.279316
vt 0.102497 0.279316
vt 0.102497 0.279316
vt 0.102497 0.279316
vt 0.102497 0.279316
vt 0.102497 0.279316
vt 0.102497 0.279316
vt 0.102497 0.279316
vt 0.102497 0.279316
vt 0.102497 0.279316
vt 0.102497 0.279316
vt 0.102497 0.279316
vt 0.102497 0.279316
vt 0.102497 0.279316
vt 0.102497 0.279316
vt 0.102497 0.279316
vt 0.102497 0.279316
vt 0.102497 0.279316
vt 0.102497 0.279316
vt 0.066177 0.209415
vt 0.102705 0.299407
vt 0.102318 0.306199
vt 0.102318 0.306199
vt 0.102318 0.306199
vt 0.102318 0.306199
vt 0.102705 0.299407
vt 0.102705 0.299407
vt 0.065979 0.208380
vt 0.065979 0.208380
vt 0.065979 0.208380
vt 0.101578 0.304601
vt 0.101578 0.304601
vt 0.101578 0.304601
vt 0.101578 0.304601
vt 0.101578 0.306290
vt 0.101578 0.304601
vt 0.101578 0.306290
vt 0.101578 0.306290
vt 0.101578 0.306290
vt 0.101578 0.306290
vt 0.101578 0.331052
vt 0.101578 0.306290
vt 0.101578 0.331052
vt 0.101578 0.306290
vt 0.101578 0.331052
vt 0.101578 0.306290
vt 0.101578 0.306290
vt 0.101578 0.306290
vt 0.101578 0.306290
vt 0.101578 0.304601
vt 0.101578 0.306290
vt 0.101578 0.304601
vt 0.101578 0.304601
vt 0.065979 0.208380
vt 0.065979 0.208380
vt 0.101578 0.306290
vt 0.101578 0.331052
vt 0.101578 0.306290
vt 0.101578 0.306290
vt 0.101578 0.306290
vt 0.101578 0.306290
vt 0.101578 0.304601
vt 0.101578 0.306290
vt 0.101578 0.304601
vt 0.101578 0.304601
vt 0.065979 0.208380
vt 0.101578 0.304601
vt 0.065979 0.208380
vn 0.000000 0.829162 -0.559009
vn 0.000000 0.829162 -0.559009
vn 0.000000 0.829162 -0.559009
vn 0.000000 0.987646 -0.156701
vn 0.000000 0.987646 -0.156701
vn 0.000000 0.987646 -0.156701
vn 0.000000 0.987646 -0.156701
vn 0.000000 0.909954 -0.414710
vn 0.000000 0.909954 -0.414710
vn 0.000000 0.909954 -0.414710
vn 0.000000 0.909954 -0.414710
vn 0.000002 0.276566 0.960995
vn 0.000002 0.276566 0.960995
vn 0.000002 0.276566 0.960995
vn 0.000002 0.276566 0.960995
vn 0.000000 1.000000 -0.000000
vn 0.000000 1.000000 -0.000000
vn 0.000000 1.000000 -0.000000
vn 0.000000 1.000000 -0.000000
vn 0.057998 0.631200 -0.773449
vn 0.057998 0.631200 -0.773449
vn 0.057998 0.631200 -0.773449
vn 0.057998 0.631200 -0.773449
vn -0.096084 0.995371 -0.002356
vn -0.096084 0.995370 -0.002356
vn -0.096084 0.995371 -0.002356
vn -0.096084 0.995370 -0.002356
vn 0.032706 0.921592 0.386780
vn 0.032706 0.921592 0.386780
vn 0.032706 0.921592 0.386780
vn 0.153996 0.805380 -0.572406
vn 0.153996 0.805380 -0.572406
vn 0.153996 0.805380 -0.572406
vn 0.167222 0.985915 -0.002833
vn 0.167222 0.985915 -0.002833
vn 0.167222 0.985915 -0.002833
vn 0.167222 0.985915 -0.002833
vn 0.012189 0.902778 0.429934
vn 0.012189 0.902778 0.429934
vn 0.012189 0.902778 0.429934
vn 0.012189 0.902778 0.429934
vn -0.007526 0.999905 -0.011575
vn -0.007526 0.999905 -0.011575
vn -0.007526 0.999905 -0.011575
vn -0.007526 0.999905 -0.011575
vn 0.068800 0.722856 -0.687565
vn 0.068800 0.722856 -0.687565
vn 0.068800 0.722856 -0.687565
vn 0.068800 0.722856 -0.687565
vn 0.000000 1.000000 0.000000
vn 0.000000 1.000000 0.000000
vn 0.000000 1.000000 0.000000
vn 0.000000 1.000000 0.000000
vn -0.087828 0.275693 0.957225
vn -0.087828 0.275693 0.957225
vn -0.087828 0.275693 0.957225
vn -0.087828 0.275693 0.957225
vn 0.012820 0.945412 -0.325627
vn 0.012820 0.945412 -0.325627
vn 0.012820 0.945412 -0.325627
vn 0.012820 0.945412 -0.325627
vn -0.002920 0.982361 -0.186973
vn -0.002920 0.982361 -0.186973
vn -0.002920 0.982361 -0.186973
vn -0.002920 0.982361 -0.186973
vn -0.000597 0.821194 -0.570649
vn -0.000597 0.821194 -0.570649
vn -0.000597 0.821194 -0.570649
vn -0.000597 0.821194 -0.570649
vn 0.570554 0.821260 0.000712
vn 0.570554 0.821260 0.000712
vn 0.570554 0.821260 0.000712
vn 0.570554 0.821260 0.000712
vn 0.000000 1.000000 0.000000
vn 0.000000 1.000000 0.000000
vn 0.000000 1.000000 0.000000
vn 0.000000 1.000000 0.000000
vn 0.688128 0.719826 -0.091267
vn 0.688129 0.719826 -0.091267
vn 0.688128 0.719826 -0.091267
vn 0.688128 0.719826 -0.091267
vn -0.952941 0.274246 0.129197
vn -0.952941 0.274246 0.129197
vn -0.952941 0.274246 0.129197
vn -0.952941 0.274246 0.129197
vn 0.165556 0.986200 0.000106
vn 0.165556 0.986200 0.000106
vn 0.165556 0.986200 0.000106
vn 0.165556 0.986200 0.000106
vn 0.317966 0.947836 -0.022465
vn 0.317966 0.947836 -0.022465
vn 0.317966 0.947836 -0.022465
vn 0.317966 0.947836 -0.022465
vn 0.174043 0.984736 0.002158
vn 0.174043 0.984736 0.002158
vn 0.174043 0.984736 0.002158
vn 0.174043 0.984736 0.002158
vn -0.002375 0.999995 -0.002340
vn -0.002375 0.999994 -0.002340
vn -0.002375 0.999995 -0.002340
vn -0.002375 0.999994 -0.002340
vn -0.004630 0.999977 -0.004867
vn -0.004630 0.999977 -0.004867
vn -0.004630 0.999978 -0.004867
vn -0.004630 0.999977 -0.004867
vn 0.686390 0.710095 -0.156949
vn 0.686390 0.710095 -0.156949
vn 0.686390 0.710095 -0.156949
vn -0.011408 0.995535 0.093703
vn -0.011408 0.995535 0.093703
vn -0.011408 0.995535 0.093703
vn -0.011408 0.995535 0.093703
vn 0.403896 0.830346 0.383919
vn 0.403896 0.830346 0.383919
vn 0.403896 0.830346 0.383919
vn -0.000000 1.000000 0.000000
vn -0.000000 1.000000 0.000000
vn -0.000000 1.000000 0.000000
vn -0.000000 1.000000 0.000000
vn 0.000000 1.000000 0.000000
vn 0.000000 1.000000 0.000000
vn 0.000000 1.000000 0.000000
vn 0.000000 1.000000 0.000000
vn 0.000000 1.000000 0.000000
vn 0.000000 1.000000 0.000000
vn 0.000000 1.000000 0.000000
vn 0.740422 0.639131 -0.208058
vn 0.740422 0.639131 -0.208058
vn 0.740421 0.639131 -0.208058
vn 0.740422 0.639131 -0.208058
vn 0.000000 1.000000 -0.000001
vn 0.000000 1.000000 -0.000001
vn 0.000000 1.000000 -0.000001
vn 0.000000 1.000000 -0.000001
vn -0.960997 0.276559 -0.000000
vn -0.960997 0.276559 -0.000000
vn -0.960997 0.276559 -0.000000
vn -0.960997 0.276559 -0.000000
vn 0.414698 0.909959 0.000000
vn 0.414698 0.909959 0.000000
vn 0.414698 0.909959 0.000000
vn 0.414698 0.909959 0.000000
vn 0.156709 0.987645 0.000000
vn 0.156709 0.987645 0.000000
vn 0.156709 0.987645 0.000000
vn 0.156709 0.987645 0.000000
vn 0.559011 0.829160 0.000000
vn 0.559011 0.829160 0.000000
vn 0.559012 0.829160 0.000000
vn 0.304682 0.907355 0.289613
vn 0.304682 0.907355 0.289613
vn 0.304682 0.907355 0.289613
vn 0.156053 0.987746 -0.002273
vn 0.156053 0.987746 -0.002273
vn 0.156053 0.987746 -0.002273
vn 0.156053 0.987746 -0.002273
vn 0.000000 1.000000 0.000000
vn 0.000000 1.000000 0.000000
vn 0.000000 1.000000 0.000000
vn 0.084370 0.981569 -0.171474
vn 0.084370 0.981569 -0.171474
vn 0.084370 0.981569 -0.171474
vn 0.084370 0.981569 -0.171474
vn 0.112049 0.964664 -0.238471
vn 0.112049 0.964664 -0.238471
vn 0.112049 0.964664 -0.238471
vn 0.112049 0.964664 -0.238471
vn -0.396870 0.301856 0.866820
vn -0.396870 0.301856 0.866820
vn -0.396870 0.301856 0.866820
vn -0.396870 0.301856 0.866820
vn 0.000000 1.000000 -0.000000
vn 0.000000 1.000000 -0.000000
vn 0.000000 1.000000 -0.000000
vn 0.000000 1.000000 -0.000000
vn 0.269352 0.787749 -0.553986
vn 0.269352 0.787749 -0.553986
vn 0.269352 0.787749 -0.553986
vn 0.269352 0.787749 -0.553986
vn 0.000000 1.000000 0.000000
vn 0.000000 1.000000 0.000000
vn 0.000000 1.000000 0.000000
vn 0.598545 0.768859 -0.224943
vn 0.598545 0.768859 -0.224943
vn 0.598545 0.768859 -0.224943
vn 0.598545 0.768859 -0.224943
vn 0.000000 1.000000 -0.000000
vn 0.000000 1.000000 -0.000000
vn 0.000000 1.000000 -0.000000
vn 0.000000 1.000000 -0.000000
vn -0.891591 0.330633 0.309430
vn -0.891592 0.330632 0.309430
vn -0.891591 0.330632 0.309430
vn -0.891591 0.330633 0.309430
vn 0.256457 0.962501 -0.088444
vn 0.256457 0.962501 -0.088444
vn 0.256457 0.962501 -0.088444
vn 0.256457 0.962501 -0.088444
vn 0.175842 0.982256 -0.065218
vn 0.175842 0.982256 -0.065218
vn 0.175842 0.982256 -0.065218
vn 0.175842 0.982256 -0.065218
vn 0.000000 1.000000 0.000000
vn 0.000000 1.000000 0.000000
vn 0.000000 1.000000 0.000000
vn -0.000000 1.000000 -0.000000
vn -0.000000 1.000000 -0.000000
vn -0.000000 1.000000 -0.000000
vn 0.181281 0.903997 -0.387204
vn 0.181281 0.903997 -0.387204
vn 0.181281 0.903997 -0.387204
vn 0.181281 0.903997 -0.387204
vn 0.427732 0.890233 -0.156620
vn 0.427732 0.890234 -0.156620
vn 0.427732 0.890233 -0.156620
vn 0.427732 0.890234 -0.156620
s off
f 1/36/1 6/37/2 27/38/3
f 26/43/4 27/40/5 6/41/6 7/11/7
f 25/45/8 26/42/9 7/56/10 4/2/11
f 24/47/12 25/44/13 4/7/14 2/3/15
f 23/49/16 24/46/17 2/9/18 3/4/19
f 22/51/20 23/48/21 3/10/22 5/6/23
f 21/54/24 22/50/25 5/5/26 8/13/27
f 20/55/28 21/53/29 8/12/30
f 18/22/31 14/18/32 15/61/33
f 19/39/34 18/23/35 15/20/36 16/59/37
f 16/57/38 21/52/39 20/24/40 17/21/41
f 16/58/42 15/62/43 22/27/44 21/25/45
f 15/19/46 14/63/47 23/29/48 22/26/49
f 14/17/50 13/64/51 24/31/52 23/28/53
f 13/16/54 12/65/55 25/33/56 24/30/57
f 12/15/58 11/60/59 26/34/60 25/32/61
f 11/60/62 10/14/63 27/35/64 26/34/65
f 1/36/66 27/38/67 10/8/68 9/1/69
f 37/66/70 38/67/71 53/68/72 28/69/73
f 49/70/74 50/71/75 41/72/76 42/73/77
f 48/74/78 49/75/79 42/76/80 44/77/81
f 50/78/82 51/79/83 40/80/84 41/81/85
f 46/82/86 47/83/87 45/84/88 17/85/89
f 51/86/90 52/87/91 39/88/92 40/89/93
f 52/87/94 53/90/95 38/91/96 39/88/97
f 20/92/98 54/93/99 46/94/100 17/95/101
f 47/96/102 48/97/103 44/98/104 45/99/105
f 44/100/106 42/101/107 43/102/108
f 45/103/109 44/104/110 43/105/111 19/106/112
f 17/107/113 19/148/114 16/109/115
f 36/110/116 46/111/117 54/112/118 29/113/119
f 36/114/120 47/115/121 46/116/122
f 33/117/123 48/118/124 47/119/125 36/120/126
f 31/121/127 49/122/128 48/123/129 33/124/130
f 30/125/131 50/126/132 49/127/133 31/128/134
f 32/129/135 51/130/136 50/131/137 30/132/138
f 35/133/139 52/134/140 51/135/141 32/136/142
f 34/137/143 53/138/144 52/139/145 35/140/146
f 28/69/147 53/68/148 34/141/149
f 17/147/150 45/142/151 19/108/152
f 29/143/153 54/144/154 20/145/155 8/146/156
f 55/176/157 9/149/158 62/189/159
f 10/152/160 11/173/161 60/185/162 61/188/163
f 11/153/164 12/171/165 59/183/166 60/186/167
f 12/156/168 13/169/169 58/181/170 59/184/171
f 13/158/172 14/167/173 57/179/174 58/182/175
f 14/160/176 18/165/177 56/177/178 57/180/179
f 18/162/180 19/164/181 56/178/182
f 57/180/183 56/177/184 43/163/185 42/168/186
f 58/182/187 57/179/188 42/161/189 41/170/190
f 59/184/191 58/181/192 41/159/193 40/172/194
f 60/186/195 59/183/196 40/157/197 39/174/198
f 61/188/199 60/185/200 39/154/201 38/155/202
f 56/178/203 19/164/204 43/166/205
f 37/175/206 55/176/207 62/189/208
f 62/189/209 9/149/210 10/150/211 61/187/212
f 37/175/213 62/189/214 61/187/215 38/151/216
