# This file uses centimeters as units for non-parametric coordinates.

v 0.866025 0.500000 -0.687744
v 0.500000 0.866025 -0.687744
v 0.000000 1.000000 -0.687744
v -0.500000 0.866025 -0.687744
v -0.866025 0.500000 -0.687744
v -1.000000 0.000000 -0.687744
v -0.866025 -0.500000 -0.687744
v -0.500000 -0.866026 -0.687744
v 0.000000 -1.000000 -0.687744
v 0.500000 -0.866026 -0.687744
v 0.866025 -0.500000 -0.687744
v 1.000000 0.000000 -0.687744
v 0.866025 0.500000 0.000000
v 0.500000 0.866025 0.000000
v 0.000000 1.000000 0.000000
v -0.500000 0.866025 0.000000
v -0.866025 0.500000 0.000000
v -1.000000 0.000000 0.000000
v -0.866025 -0.500000 0.000000
v -0.500000 -0.866026 0.000000
v 0.000000 -1.000000 0.000000
v 0.500000 -0.866026 0.000000
v 0.866025 -0.500000 0.000000
v 1.000000 0.000000 0.000000
v 0.942545 0.544178 -0.687744
v 0.544178 0.942544 -0.687744
v 0.000000 1.088357 -0.687744
v -0.544178 0.942544 -0.687744
v -0.942544 0.544178 -0.687744
v -1.088357 0.000000 -0.687744
v -0.942544 -0.544178 -0.687744
v -0.544178 -0.942545 -0.687744
v 0.000000 -1.088357 -0.687744
v 0.544178 -0.942545 -0.687744
v 0.942545 -0.544178 -0.687744
v 1.088357 0.000000 -0.687744
v 0.942547 0.544178 -0.998314
v 0.496039 0.859162 -0.998314
v 0.000002 1.088357 -0.998314
v -0.544178 0.942544 -0.998314
v -0.942546 0.544178 -0.998314
v -1.088357 0.000000 -0.998314
v -0.942546 -0.544178 -0.998314
v -0.544176 -0.942545 -0.998314
v 0.000002 -1.088357 -0.998314
v 0.544178 -0.942545 -0.998314
v 0.942547 -0.544178 -0.998314
v 1.088357 0.000000 -0.998314
v 0.748468 0.432127 -0.998314
v 0.432129 0.748466 -0.998314
v 0.000002 0.864254 -0.998314
v -0.432127 0.748466 -0.998314
v -0.748467 0.432127 -0.998314
v -0.864254 0.000000 -0.998314
v -0.748467 -0.432127 -0.998314
v -0.432125 -0.748466 -0.998314
v 0.000002 -0.864254 -0.998314
v 0.432127 -0.748466 -0.998314
v 0.748468 -0.432127 -0.998314
v 0.864254 0.000000 -0.998314
v 0.748468 0.432127 -0.208679
v 0.432129 0.748466 -0.208679
v 0.000001 0.000000 -0.208679
v 0.000002 0.864254 -0.208679
v -0.432127 0.748466 -0.208679
v -0.748467 0.432127 -0.208679
v -0.864254 0.000000 -0.208679
v -0.748467 -0.432127 -0.208679
v -0.432125 -0.748466 -0.208679
v 0.000002 -0.864254 -0.208679
v 0.432127 -0.748466 -0.208679
v 0.748468 -0.432127 -0.208679
v 0.864254 0.000000 -0.208679
v -0.055362 -0.864254 -0.783401
v 0.055366 -0.864254 -0.783401
v -0.055362 0.864254 -0.783401
v 0.055366 0.864254 -0.783401
v -0.055362 0.864254 -0.894135
v 0.055366 0.864254 -0.894135
v -0.055362 -0.864254 -0.894135
v 0.055366 -0.864254 -0.894135
v -0.427251 -0.807929 -0.783401
v -0.316522 -0.807929 -0.783401
v -0.427251 0.801935 -0.783401
v -0.316522 0.801935 -0.783401
v -0.427251 0.801935 -0.894135
v -0.316522 0.801935 -0.894135
v -0.427251 -0.807929 -0.894135
v -0.316522 -0.807929 -0.894135
v -0.736313 -0.576563 -0.783401
v -0.625585 -0.576563 -0.783401
v -0.736313 0.650551 -0.783401
v -0.625585 0.650551 -0.783401
v -0.736313 0.650551 -0.894135
v -0.625585 0.650551 -0.894135
v -0.736313 -0.576563 -0.894135
v -0.625585 -0.576563 -0.894135
v 0.300703 -0.790876 -0.783401
v 0.411431 -0.790876 -0.783401
v 0.300703 0.819577 -0.783401
v 0.411431 0.819577 -0.783401
v 0.300703 0.819577 -0.894135
v 0.411431 0.819577 -0.894135
v 0.300703 -0.790876 -0.894135
v 0.411431 -0.790876 -0.894135
v 0.614540 -0.600847 -0.783401
v 0.725268 -0.600847 -0.783401
v 0.614540 0.601053 -0.783401
v 0.725268 0.601053 -0.783401
v 0.614540 0.601053 -0.894135
v 0.725268 0.601053 -0.894135
v 0.614540 -0.600847 -0.894135
v 0.725268 -0.600847 -0.894135
v 0.290808 -0.368834 -0.765099
v 0.243692 -0.368834 -0.865318
v 0.343898 -0.368834 -0.912430
v 0.391014 -0.368834 -0.812210
v -0.418369 0.325803 -0.798424
v -0.377657 0.326551 -0.901398
v -0.274696 0.327956 -0.860687
v -0.315407 0.327209 -0.757713
v 0.544179 0.942544 -0.835487
v 0.664186 0.822539 -0.998314
v 0.454745 0.966509 -0.998314
vt 0.110775 0.303438
vt 0.110775 0.303438
vt 0.110775 0.303438
vt 0.110775 0.303438
vt 0.110775 0.303438
vt 0.110775 0.303438
vt 0.110775 0.303438
vt 0.110775 0.303438
vt 0.110775 0.303438
vt 0.110775 0.303438
vt 0.110775 0.303438
vt 0.110775 0.303438
vt 0.110775 0.303438
vt 0.110775 0.303438
vt 0.110775 0.303438
vt 0.110775 0.303438
vt 0.110775 0.303438
vt 0.110775 0.303438
vt 0.110775 0.303438
vt 0.110775 0.303438
vt 0.110775 0.303438
vt 0.110775 0.303438
vt 0.110775 0.303438
vt 0.110775 0.303438
vt 0.110775 0.303438
vt 0.110775 0.303438
vt 0.110775 0.303438
vt 0.110775 0.303438
vt 0.110775 0.303438
vt 0.110775 0.303438
vt 0.110775 0.303438
vt 0.110775 0.303438
vt 0.110775 0.303438
vt 0.110775 0.303438
vt 0.110775 0.303438
vt 0.110775 0.303438
vt 0.110775 0.303438
vt 0.110775 0.303438
vt 0.112218 0.227695
vt 0.110775 0.303438
vt 0.110775 0.303438
vt 0.110775 0.303438
vt 0.110775 0.303438
vt 0.110775 0.303438
vt 0.110775 0.303438
vt 0.110775 0.303438
vt 0.110775 0.303438
vt 0.110775 0.303438
vt 0.110775 0.303438
vt 0.110775 0.303438
vt 0.110775 0.303438
vt 0.110775 0.303438
vt 0.110775 0.303438
vt 0.110775 0.303438
vt 0.110775 0.303438
vt 0.110775 0.303438
vt 0.110775 0.303438
vt 0.110775 0.303438
vt 0.110775 0.303438
vt 0.110775 0.303438
vt 0.110775 0.303438
vt 0.110775 0.303438
vt 0.110775 0.303438
vt 0.110775 0.303438
vt 0.110775 0.303438
vt 0.110775 0.303438
vt 0.110775 0.303438
vt 0.110775 0.303438
vt 0.110775 0.303438
vt 0.110775 0.303438
vt 0.110775 0.303438
vt 0.110775 0.303438
vt 0.110775 0.303438
vt 0.110775 0.303438
vt 0.110775 0.303438
vt 0.110775 0.303438
vt 0.110775 0.303438
vt 0.110775 0.303438
vt 0.110775 0.303438
vt 0.110775 0.303438
vt 0.110775 0.303438
vt 0.110775 0.303438
vt 0.110775 0.303438
vt 0.110775 0.303438
vt 0.110775 0.303438
vt 0.110775 0.303438
vt 0.110775 0.303438
vt 0.112218 0.227695
vt 0.112218 0.227695
vt 0.112218 0.227695
vt 0.112218 0.227695
vt 0.112218 0.227695
vt 0.112218 0.227695
vt 0.112218 0.227695
vt 0.112218 0.227695
vt 0.112218 0.227695
vt 0.112218 0.227695
vt 0.112218 0.227695
vt 0.112218 0.227695
vt 0.101775 0.302309
vt 0.101775 0.302309
vt 0.101775 0.302309
vt 0.101775 0.302309
vt 0.101775 0.302309
vt 0.101775 0.302309
vt 0.101775 0.302309
vt 0.101775 0.302309
vt 0.101775 0.302309
vt 0.101775 0.302309
vt 0.101775 0.302309
vt 0.101775 0.302309
vt 0.101775 0.302309
vt 0.101775 0.302309
vt 0.101775 0.302309
vt 0.101775 0.302309
vt 0.101775 0.302309
vt 0.101775 0.302309
vt 0.101775 0.302309
vt 0.101775 0.302309
vt 0.101775 0.302309
vt 0.101775 0.302309
vt 0.101775 0.302309
vt 0.101775 0.302309
vt 0.101775 0.302309
vt 0.101775 0.302309
vt 0.101775 0.302309
vt 0.101775 0.302309
vt 0.101775 0.302309
vt 0.101775 0.302309
vt 0.101775 0.302309
vt 0.101775 0.302309
vt 0.101775 0.302309
vt 0.101775 0.302309
vt 0.101775 0.302309
vt 0.101775 0.302309
vt 0.101775 0.302309
vt 0.101775 0.302309
vt 0.101775 0.302309
vt 0.101775 0.302309
vt 0.101775 0.302309
vt 0.101775 0.302309
vt 0.101775 0.302309
vt 0.101775 0.302309
vt 0.101775 0.302309
vt 0.101775 0.302309
vt 0.101775 0.302309
vt 0.101775 0.302309
vt 0.101775 0.302309
vt 0.101775 0.302309
vt 0.101775 0.302309
vt 0.101775 0.302309
vt 0.101775 0.302309
vt 0.101775 0.302309
vt 0.101775 0.302309
vt 0.101775 0.302309
vt 0.101775 0.302309
vt 0.101775 0.302309
vt 0.101775 0.302309
vt 0.101775 0.302309
vt 0.101775 0.302309
vt 0.101775 0.302309
vt 0.101775 0.302309
vt 0.101775 0.302309
vt 0.101775 0.302309
vt 0.101775 0.302309
vt 0.101775 0.302309
vt 0.101775 0.302309
vt 0.101775 0.302309
vt 0.101775 0.302309
vt 0.101775 0.302309
vt 0.101775 0.302309
vt 0.110775 0.303438
vt 0.110775 0.303438
vt 0.110775 0.303438
vn 0.707107 0.707107 0.000000
vn 0.707107 0.707107 0.000000
vn 0.707107 0.707107 0.000000
vn 0.707107 0.707107 0.000000
vn 0.258819 0.965926 0.000000
vn 0.258819 0.965926 0.000000
vn 0.258819 0.965926 0.000000
vn 0.258819 0.965926 0.000000
vn -0.258819 0.965926 0.000000
vn -0.258819 0.965926 0.000000
vn -0.258819 0.965926 0.000000
vn -0.258819 0.965926 0.000000
vn -0.707107 0.707107 0.000000
vn -0.707107 0.707107 0.000000
vn -0.707107 0.707107 0.000000
vn -0.707107 0.707107 0.000000
vn -0.965926 0.258819 0.000000
vn -0.965926 0.258819 0.000000
vn -0.965926 0.258819 0.000000
vn -0.965926 0.258819 0.000000
vn -0.965926 -0.258819 0.000000
vn -0.965926 -0.258819 0.000000
vn -0.965926 -0.258819 0.000000
vn -0.965926 -0.258819 0.000000
vn -0.707107 -0.707107 0.000000
vn -0.707107 -0.707107 0.000000
vn -0.707107 -0.707107 0.000000
vn -0.707107 -0.707107 0.000000
vn -0.258819 -0.965926 0.000000
vn -0.258819 -0.965926 0.000000
vn -0.258819 -0.965926 0.000000
vn -0.258819 -0.965926 0.000000
vn 0.258819 -0.965926 0.000000
vn 0.258819 -0.965926 0.000000
vn 0.258819 -0.965926 0.000000
vn 0.258819 -0.965926 0.000000
vn 0.707107 -0.707107 0.000000
vn 0.707107 -0.707107 0.000000
vn 0.707107 -0.707107 0.000000
vn 0.707107 -0.707107 0.000000
vn 0.965926 -0.258819 0.000000
vn 0.965926 -0.258819 0.000000
vn 0.965926 -0.258819 0.000000
vn 0.965926 -0.258819 0.000000
vn 0.965926 0.258819 0.000000
vn 0.965926 0.258819 0.000000
vn 0.965926 0.258819 0.000000
vn 0.965926 0.258819 0.000000
vn 0.000000 0.000000 -1.000000
vn 0.000000 0.000000 -1.000000
vn 0.000000 0.000000 -1.000000
vn 0.000000 0.000000 -1.000000
vn 0.000000 0.000000 -1.000000
vn 0.000000 0.000000 -1.000000
vn 0.000000 0.000000 -1.000000
vn 0.000000 0.000000 -1.000000
vn 0.000000 0.000000 -1.000000
vn 0.000000 0.000000 -1.000000
vn 0.000000 0.000000 -1.000000
vn 0.000000 0.000000 -1.000000
vn 0.000000 0.000000 -1.000000
vn 0.000000 0.000000 -1.000000
vn 0.000000 0.000000 -1.000000
vn 0.000000 0.000000 -1.000000
vn 0.000000 0.000000 -1.000000
vn 0.000000 0.000000 -1.000000
vn 0.000000 0.000000 -1.000000
vn 0.000000 0.000000 -1.000000
vn 0.000000 0.000000 -1.000000
vn 0.000000 0.000000 -1.000000
vn 0.000000 0.000000 -1.000000
vn 0.000000 0.000000 -1.000000
vn 0.000000 0.000000 -1.000000
vn 0.000000 0.000000 -1.000000
vn 0.000000 0.000000 -1.000000
vn -0.000000 0.000000 -1.000000
vn -0.000000 0.000000 -1.000000
vn -0.000000 0.000000 -1.000000
vn 0.000000 0.000000 -1.000000
vn 0.000000 0.000000 -1.000000
vn 0.000000 0.000000 -1.000000
vn 0.000000 0.000000 -1.000000
vn 0.000000 0.000000 -1.000000
vn 0.000000 0.000000 -1.000000
vn 0.000000 0.000000 1.000000
vn 0.000000 0.000000 1.000000
vn 0.000000 0.000000 1.000000
vn 0.000000 0.000000 1.000000
vn 0.000000 0.000000 1.000000
vn 0.000000 0.000000 1.000000
vn 0.000000 0.000000 1.000000
vn 0.000000 0.000000 1.000000
vn 0.000000 0.000000 1.000000
vn 0.000000 0.000000 1.000000
vn 0.000000 0.000000 1.000000
vn 0.000000 0.000000 1.000000
vn -0.000000 0.000000 1.000000
vn -0.000000 0.000000 1.000000
vn -0.000000 0.000000 1.000000
vn -0.000000 0.000000 1.000000
vn 0.000000 0.000000 1.000000
vn 0.000000 0.000000 1.000000
vn 0.000000 0.000000 1.000000
vn 0.000000 0.000000 1.000000
vn -0.000000 0.000000 1.000000
vn -0.000000 0.000000 1.000000
vn -0.000000 0.000000 1.000000
vn -0.000000 0.000000 1.000000
vn -0.000000 0.000000 1.000000
vn -0.000000 0.000000 1.000000
vn -0.000000 0.000000 1.000000
vn -0.000000 0.000000 1.000000
vn 0.000000 0.000000 1.000000
vn 0.000000 0.000000 1.000000
vn 0.000000 0.000000 1.000000
vn 0.000000 0.000000 1.000000
vn -0.000000 0.000000 1.000000
vn -0.000000 0.000000 1.000000
vn -0.000000 0.000000 1.000000
vn -0.000000 0.000000 1.000000
vn 0.000000 0.000000 1.000000
vn 0.000000 0.000000 1.000000
vn 0.000000 0.000000 1.000000
vn 0.000000 0.000000 1.000000
vn 0.000000 0.000000 1.000000
vn 0.000000 0.000000 1.000000
vn 0.000000 0.000000 1.000000
vn 0.000000 0.000000 1.000000
vn -0.000000 0.000000 1.000000
vn -0.000000 0.000000 1.000000
vn -0.000000 0.000000 1.000000
vn -0.000000 0.000000 1.000000
vn 0.185421 0.851325 -0.490779
vn 0.185421 0.851325 -0.490779
vn 0.185421 0.851325 -0.490779
vn 0.847982 0.326202 -0.417754
vn 0.847982 0.326202 -0.417754
vn 0.847982 0.326202 -0.417754
vn -0.258819 0.965926 -0.000001
vn -0.258819 0.965926 -0.000001
vn -0.258819 0.965926 -0.000001
vn -0.258819 0.965926 -0.000001
vn -0.707106 0.707108 0.000002
vn -0.707106 0.707108 0.000002
vn -0.707106 0.707108 0.000002
vn -0.707106 0.707108 0.000002
vn -0.965926 0.258818 0.000003
vn -0.965926 0.258818 0.000003
vn -0.965926 0.258818 0.000003
vn -0.965926 0.258818 0.000003
vn -0.965926 -0.258818 0.000003
vn -0.965926 -0.258818 0.000003
vn -0.965926 -0.258818 0.000003
vn -0.965926 -0.258818 0.000003
vn -0.707105 -0.707109 -0.000000
vn -0.707105 -0.707109 -0.000000
vn -0.707105 -0.707109 -0.000000
vn -0.707105 -0.707109 -0.000000
vn -0.258819 -0.965926 -0.000002
vn -0.258819 -0.965926 -0.000002
vn -0.258819 -0.965926 -0.000002
vn -0.258819 -0.965926 -0.000002
vn 0.258819 -0.965926 0.000001
vn 0.258819 -0.965926 0.000001
vn 0.258819 -0.965926 0.000001
vn 0.258819 -0.965926 0.000001
vn 0.707106 -0.707108 0.000002
vn 0.707106 -0.707108 0.000002
vn 0.707106 -0.707108 0.000002
vn 0.707106 -0.707108 0.000002
vn 0.965926 -0.258817 0.000003
vn 0.965926 -0.258817 0.000003
vn 0.965926 -0.258817 0.000003
vn 0.965926 -0.258817 0.000003
vn 0.965926 0.258817 0.000003
vn 0.965926 0.258817 0.000003
vn 0.965926 0.258817 0.000003
vn 0.965926 0.258817 0.000003
vn 0.000000 0.000000 -1.000000
vn 0.000000 0.000000 -1.000000
vn 0.000000 0.000000 -1.000000
vn 0.000000 0.000000 -1.000000
vn -0.000000 0.000000 -1.000000
vn -0.000000 0.000000 -1.000000
vn -0.000000 0.000000 -1.000000
vn -0.000000 0.000000 -1.000000
vn 0.000000 0.000000 -1.000000
vn 0.000000 0.000000 -1.000000
vn 0.000000 0.000000 -1.000000
vn 0.000000 0.000000 -1.000000
vn -0.000000 0.000000 -1.000000
vn -0.000000 0.000000 -1.000000
vn -0.000000 0.000000 -1.000000
vn -0.000000 0.000000 -1.000000
vn -0.000000 0.000000 -1.000000
vn -0.000000 0.000000 -1.000000
vn -0.000000 0.000000 -1.000000
vn -0.000000 0.000000 -1.000000
vn 0.000000 0.000000 -1.000000
vn 0.000000 0.000000 -1.000000
vn 0.000000 0.000000 -1.000000
vn 0.000000 0.000000 -1.000000
vn 0.000000 0.000000 -1.000000
vn 0.000000 0.000000 -1.000000
vn 0.000000 0.000000 -1.000000
vn 0.000000 0.000000 -1.000000
vn 0.000000 0.000000 -1.000000
vn 0.000000 0.000000 -1.000000
vn 0.000000 0.000000 -1.000000
vn 0.000000 0.000000 -1.000000
vn 0.000000 0.000000 -1.000000
vn 0.000000 0.000000 -1.000000
vn 0.000000 0.000000 -1.000000
vn 0.000000 0.000000 -1.000000
vn 0.000000 0.000000 -1.000000
vn 0.000000 0.000000 -1.000000
vn 0.000000 0.000000 -1.000000
vn 0.000000 0.000000 -1.000000
vn -0.707107 -0.707107 0.000000
vn -0.707107 -0.707107 0.000000
vn -0.707107 -0.707107 0.000000
vn -0.707107 -0.707107 0.000000
vn -0.258820 -0.965926 0.000000
vn -0.258820 -0.965926 0.000000
vn -0.258820 -0.965926 0.000000
vn -0.258820 -0.965926 0.000000
vn 0.258819 -0.965926 0.000000
vn 0.258819 -0.965926 0.000000
vn 0.258819 -0.965926 0.000000
vn 0.258819 -0.965926 0.000000
vn 0.707105 -0.707109 0.000000
vn 0.707105 -0.707109 0.000000
vn 0.707105 -0.707109 0.000000
vn 0.707105 -0.707109 0.000000
vn 0.965927 -0.258816 0.000000
vn 0.965927 -0.258816 0.000000
vn 0.965927 -0.258816 0.000000
vn 0.965927 -0.258816 0.000000
vn 0.965927 0.258816 0.000000
vn 0.965927 0.258816 0.000000
vn 0.965927 0.258816 0.000000
vn 0.965927 0.258816 0.000000
vn 0.707104 0.707110 0.000000
vn 0.707104 0.707110 0.000000
vn 0.707104 0.707110 0.000000
vn 0.707104 0.707110 0.000000
vn 0.258819 0.965926 0.000000
vn 0.258819 0.965926 0.000000
vn 0.258819 0.965926 0.000000
vn 0.258819 0.965926 0.000000
vn -0.258820 0.965926 0.000000
vn -0.258820 0.965926 0.000000
vn -0.258820 0.965926 0.000000
vn -0.258820 0.965926 0.000000
vn -0.707105 0.707108 0.000000
vn -0.707105 0.707108 0.000000
vn -0.707105 0.707108 0.000000
vn -0.707105 0.707108 0.000000
vn -0.965927 0.258816 0.000000
vn -0.965927 0.258816 0.000000
vn -0.965927 0.258816 0.000000
vn -0.965927 0.258816 0.000000
vn -0.965927 -0.258816 0.000000
vn -0.965927 -0.258816 0.000000
vn -0.965927 -0.258816 0.000000
vn -0.965927 -0.258816 0.000000
vn 0.000000 0.000000 1.000000
vn 0.000000 0.000000 1.000000
vn 0.000000 0.000000 1.000000
vn 0.000000 0.000000 1.000000
vn 0.000000 0.000000 -1.000000
vn 0.000000 0.000000 -1.000000
vn 0.000000 0.000000 -1.000000
vn 0.000000 0.000000 -1.000000
vn 1.000000 0.000000 0.000000
vn 1.000000 0.000000 0.000000
vn 1.000000 0.000000 0.000000
vn 1.000000 0.000000 0.000000
vn -1.000000 0.000000 0.000000
vn -1.000000 0.000000 0.000000
vn -1.000000 0.000000 0.000000
vn -1.000000 0.000000 0.000000
vn -0.187121 -0.003793 0.982330
vn -0.187121 -0.003793 0.982330
vn -0.187121 -0.003793 0.982330
vn -0.187121 -0.003793 0.982330
vn 0.187121 0.003794 -0.982330
vn 0.187121 0.003794 -0.982330
vn 0.187121 0.003794 -0.982330
vn 0.187121 0.003794 -0.982330
vn 0.982079 -0.023439 0.187006
vn 0.982079 -0.023439 0.187006
vn 0.982079 -0.023439 0.187006
vn 0.982079 -0.023439 0.187006
vn -0.982078 0.023481 -0.187006
vn -0.982078 0.023481 -0.187006
vn -0.982078 0.023481 -0.187006
vn -0.982078 0.023481 -0.187006
vn 0.000000 0.000000 1.000000
vn 0.000000 0.000000 1.000000
vn 0.000000 0.000000 1.000000
vn 0.000000 0.000000 1.000000
vn 0.000000 0.000000 -1.000000
vn 0.000000 0.000000 -1.000000
vn 0.000000 0.000000 -1.000000
vn 0.000000 0.000000 -1.000000
vn 1.000000 0.000000 0.000000
vn 1.000000 0.000000 0.000000
vn 1.000000 0.000000 0.000000
vn 1.000000 0.000000 0.000000
vn -1.000000 0.000000 0.000000
vn -1.000000 0.000000 0.000000
vn -1.000000 0.000000 0.000000
vn -1.000000 0.000000 0.000000
vn 0.217933 0.019971 0.975759
vn 0.217933 0.019971 0.975759
vn 0.217933 0.019971 0.975759
vn 0.217933 0.019971 0.975759
vn -0.217933 -0.019994 -0.975759
vn -0.217933 -0.019994 -0.975759
vn -0.217933 -0.019994 -0.975759
vn -0.217933 -0.019994 -0.975759
vn 0.972065 0.089169 -0.217112
vn 0.972065 0.089169 -0.217112
vn 0.972065 0.089169 -0.217112
vn 0.972065 0.089169 -0.217112
vn -0.972065 -0.089169 0.217112
vn -0.972065 -0.089169 0.217112
vn -0.972065 -0.089169 0.217112
vn -0.972065 -0.089169 0.217112
vn 0.000000 0.000000 1.000000
vn 0.000000 0.000000 1.000000
vn 0.000000 0.000000 1.000000
vn 0.000000 0.000000 1.000000
vn 0.000000 0.000000 -1.000000
vn 0.000000 0.000000 -1.000000
vn 0.000000 0.000000 -1.000000
vn 0.000000 0.000000 -1.000000
vn 1.000000 0.000000 0.000000
vn 1.000000 0.000000 0.000000
vn 1.000000 0.000000 0.000000
vn 1.000000 0.000000 0.000000
vn -1.000000 0.000000 0.000000
vn -1.000000 0.000000 0.000000
vn -1.000000 0.000000 0.000000
vn -1.000000 0.000000 0.000000
vn -0.975460 0.031777 0.217870
vn -0.975460 0.031777 0.217870
vn -0.975460 0.031777 0.217870
vn -0.975460 0.031777 0.217870
vn -0.217971 0.007102 -0.975929
vn -0.217971 0.007102 -0.975929
vn -0.217971 0.007102 -0.975929
vn -0.217971 0.007102 -0.975929
vn 0.975460 -0.031777 -0.217871
vn 0.975460 -0.031777 -0.217871
vn 0.975460 -0.031777 -0.217871
vn 0.975460 -0.031777 -0.217871
vn 0.217971 -0.007093 0.975930
vn 0.217971 -0.007093 0.975929
vn 0.217971 -0.007093 0.975930
vn 0.217971 -0.007093 0.975930
vn -0.980762 -0.055892 -0.187033
vn -0.980762 -0.055892 -0.187033
vn -0.980762 -0.055892 -0.187033
vn -0.980762 -0.055892 -0.187033
vn 0.187196 -0.009066 -0.982281
vn 0.187196 -0.009066 -0.982281
vn 0.187196 -0.009066 -0.982281
vn 0.187196 -0.009066 -0.982281
vn 0.980754 0.056050 0.187031
vn 0.980754 0.056050 0.187031
vn 0.980754 0.056050 0.187031
vn 0.980754 0.056050 0.187031
vn -0.187196 0.009050 0.982281
vn -0.187196 0.009050 0.982281
vn -0.187196 0.009050 0.982281
vn -0.187196 0.009050 0.982281
vn 0.707107 0.707107 0.000005
vn 0.707107 0.707107 0.000005
vn 0.707107 0.707107 0.000005
vn 0.707107 0.707107 0.000005
vn 0.707107 0.707107 0.000005
vn 0.000000 0.000000 -1.000000
vn 0.000000 0.000000 -1.000000
vn 0.000000 0.000000 -1.000000
vn 0.000000 0.000000 -1.000000
vn 0.000000 0.000000 -1.000000
vn 0.000000 0.000000 -1.000000
vn 0.000000 0.000000 -1.000000
vn 0.000000 0.000000 -1.000000
vn 0.000000 0.000000 -1.000000
vn 0.000000 0.000000 -1.000000
vn 0.258819 0.965926 0.000002
vn 0.258819 0.965926 0.000002
vn 0.258819 0.965926 0.000002
vn 0.258819 0.965926 0.000002
vn 0.258819 0.965926 0.000002
s off
f 1/13/1 2/14/2 14/27/3 13/26/4
f 2/14/5 3/15/6 15/28/7 14/27/8
f 3/15/9 4/16/10 16/29/11 15/28/12
f 4/16/13 5/17/14 17/30/15 16/29/16
f 5/17/17 6/18/18 18/31/19 17/30/20
f 6/18/21 7/19/22 19/32/23 18/31/24
f 7/19/25 8/20/26 20/33/27 19/32/28
f 8/20/29 9/21/30 21/34/31 20/33/32
f 9/21/33 10/22/34 22/35/35 21/34/36
f 10/22/37 11/23/38 23/36/39 22/35/40
f 11/23/41 12/24/42 24/37/43 23/36/44
f 12/24/45 1/25/46 13/38/47 24/37/48
f 62/39/49 61/88/50 63/89/51
f 64/90/52 62/39/53 63/89/54
f 65/91/55 64/90/56 63/89/57
f 66/92/58 65/91/59 63/89/60
f 67/93/61 66/92/62 63/89/63
f 68/94/64 67/93/65 63/89/66
f 69/95/67 68/94/68 63/89/69
f 70/96/70 69/95/71 63/89/72
f 71/97/73 70/96/74 63/89/75
f 72/98/76 71/97/77 63/89/78
f 73/99/79 72/98/80 63/89/81
f 61/88/82 73/99/83 63/89/84
f 2/2/85 1/1/86 25/41/87 26/40/88
f 3/3/89 2/2/90 26/40/91 27/42/92
f 4/4/93 3/3/94 27/42/95 28/43/96
f 5/5/97 4/4/98 28/43/99 29/44/100
f 6/6/101 5/5/102 29/44/103 30/45/104
f 7/7/105 6/6/106 30/45/107 31/46/108
f 8/8/109 7/7/110 31/46/111 32/47/112
f 9/9/113 8/8/114 32/47/115 33/48/116
f 10/10/117 9/9/118 33/48/119 34/49/120
f 11/11/121 10/10/122 34/49/123 35/50/124
f 12/12/125 11/11/126 35/50/127 36/51/128
f 1/1/129 12/12/130 36/51/131 25/41/132
f 122/172/133 123/173/134 38/52/135
f 124/174/136 122/172/137 38/52/138
f 28/43/139 27/42/140 39/54/141 40/55/142
f 29/44/143 28/43/144 40/55/145 41/56/146
f 30/45/147 29/44/148 41/56/149 42/57/150
f 31/46/151 30/45/152 42/57/153 43/58/154
f 32/47/155 31/46/156 43/58/157 44/59/158
f 33/48/159 32/47/160 44/59/161 45/60/162
f 34/49/163 33/48/164 45/60/165 46/61/166
f 35/50/167 34/49/168 46/61/169 47/62/170
f 36/51/171 35/50/172 47/62/173 48/63/174
f 25/41/175 36/51/176 48/63/177 37/53/178
f 40/55/179 39/54/180 51/66/181 52/67/182
f 41/56/183 40/55/184 52/67/185 53/68/186
f 42/57/187 41/56/188 53/68/189 54/69/190
f 43/58/191 42/57/192 54/69/193 55/70/194
f 44/59/195 43/58/196 55/70/197 56/71/198
f 45/60/199 44/59/200 56/71/201 57/72/202
f 46/61/203 45/60/204 57/72/205 58/73/206
f 47/62/207 46/61/208 58/73/209 59/74/210
f 48/63/211 47/62/212 59/74/213 60/75/214
f 37/53/215 48/63/216 60/75/217 49/65/218
f 50/64/219 49/65/220 61/77/221 62/76/222
f 51/66/223 50/64/224 62/76/225 64/78/226
f 52/67/227 51/66/228 64/78/229 65/79/230
f 53/68/231 52/67/232 65/79/233 66/80/234
f 54/69/235 53/68/236 66/80/237 67/81/238
f 55/70/239 54/69/240 67/81/241 68/82/242
f 56/71/243 55/70/244 68/82/245 69/83/246
f 57/72/247 56/71/248 69/83/249 70/84/250
f 58/73/251 57/72/252 70/84/253 71/85/254
f 59/74/255 58/73/256 71/85/257 72/86/258
f 60/75/259 59/74/260 72/86/261 73/87/262
f 49/65/263 60/75/264 73/87/265 61/77/266
f 74/100/267 75/101/268 77/102/269 76/103/270
f 78/104/271 79/105/272 81/106/273 80/107/274
f 75/101/275 81/108/276 79/109/277 77/102/278
f 80/110/279 74/100/280 76/103/281 78/111/282
f 82/112/283 83/113/284 121/171/285 118/166/286
f 119/168/287 120/169/288 89/118/289 88/119/290
f 83/113/291 89/120/292 120/170/293 121/171/294
f 88/122/295 82/112/296 118/166/297 119/167/298
f 90/124/299 91/125/300 93/126/301 92/127/302
f 94/128/303 95/129/304 97/130/305 96/131/306
f 91/125/307 97/132/308 95/133/309 93/126/310
f 96/134/311 90/124/312 92/127/313 94/135/314
f 98/136/315 99/137/316 117/165/317 114/160/318
f 115/162/319 116/163/320 105/142/321 104/143/322
f 99/137/323 105/144/324 116/164/325 117/165/326
f 104/146/327 98/136/328 114/160/329 115/161/330
f 106/148/331 107/149/332 109/150/333 108/151/334
f 110/152/335 111/153/336 113/154/337 112/155/338
f 107/149/339 113/156/340 111/157/341 109/150/342
f 112/158/343 106/148/344 108/151/345 110/159/346
f 115/161/347 114/160/348 100/139/349 102/147/350
f 102/140/351 103/141/352 116/163/353 115/162/354
f 117/165/355 116/164/356 103/145/357 101/138/358
f 114/160/359 117/165/360 101/138/361 100/139/362
f 119/167/363 118/166/364 84/115/365 86/123/366
f 86/116/367 87/117/368 120/169/369 119/168/370
f 121/171/371 120/170/372 87/121/373 85/114/374
f 118/166/375 121/171/376 85/114/377 84/115/378
f 26/40/379 25/41/380 37/53/381 123/173/382 122/172/383
f 38/52/384 123/173/385 37/53/386 49/65/387 50/64/388
f 39/54/389 124/174/390 38/52/391 50/64/392 51/66/393
f 27/42/394 26/40/395 122/172/396 124/174/397 39/54/398
