# This file uses centimeters as units for non-parametric coordinates.

v -2.449382 -5.000000 -0.429794
v -5.000003 -5.000000 -0.507393
v -0.000003 -5.000000 -0.507393
v -4.999995 -1.276499 -0.507393
v -2.449382 -1.276499 -0.429794
v -0.000003 -1.276499 -0.507393
v -2.083838 -2.824044 -0.342262
v -2.990237 -5.177670 -0.944649
v -4.844548 -5.135042 -0.251854
v -0.442722 -4.118693 -0.279510
v -1.514820 -3.944245 -1.252464
v -0.288506 -4.322561 -0.188560
v -0.744110 -2.942385 -0.311584
v -4.938179 -4.639905 -0.292618
v -4.501335 -3.862285 -0.393036
v -4.509635 -4.178432 -0.341019
v -2.820492 -3.353855 -0.388573
v -1.836319 -2.702007 -0.428947
v -1.607709 -2.600785 -0.376762
v -2.190802 -3.017431 -0.349007
v -0.449139 -3.701601 -0.288979
v -4.060005 -3.440231 -0.426407
v -0.464451 -5.077876 -0.897720
v -1.168477 -5.030088 -1.475380
v -4.429643 -5.239176 -0.660698
v -2.577019 -5.198583 -1.203171
v -1.586569 -5.159591 -1.397636
v -0.605850 -5.093984 -1.116730
v -4.005257 -5.208666 -0.273239
v -3.191307 -3.386130 -0.395401
v -3.921833 -3.396192 -0.431496
v -0.475287 -5.080019 -0.240868
v -0.210343 -4.922457 -0.426369
v -0.309134 -4.779034 -0.241478
v -0.285928 -4.664935 -0.183456
v -4.846260 -5.027428 -0.278778
vt 0.102411 0.254143
vt 0.102411 0.254143
vt 0.102411 0.254143
vt 0.102411 0.254143
vt 0.102411 0.254143
vt 0.102411 0.254143
vt 0.102411 0.254143
vt 0.102411 0.254143
vt 0.060252 0.303556
vt 0.060252 0.303556
vt 0.060252 0.303556
vt 0.060252 0.303556
vt 0.060252 0.303556
vt 0.060252 0.303556
vt 0.060252 0.303556
vt 0.060252 0.303556
vt 0.060252 0.303556
vt 0.060252 0.303556
vt 0.060252 0.303556
vt 0.060252 0.303556
vt 0.060252 0.303556
vt 0.060252 0.303556
vt 0.060252 0.303556
vt 0.060252 0.303556
vt 0.060252 0.303556
vt 0.060252 0.303556
vt 0.060252 0.303556
vt 0.060252 0.303556
vt 0.060252 0.303556
vt 0.060252 0.303556
vt 0.060252 0.303556
vt 0.060252 0.303556
vt 0.060252 0.303556
vt 0.060252 0.303556
vt 0.060252 0.303556
vt 0.060252 0.303556
vt 0.060252 0.303556
vt 0.060252 0.303556
vt 0.060252 0.303556
vn 0.030409 -0.000000 -0.999538
vn 0.030409 -0.000000 -0.999538
vn 0.030409 -0.000000 -0.999538
vn 0.030409 -0.000000 -0.999538
vn -0.031665 0.000000 -0.999499
vn -0.031665 0.000000 -0.999499
vn -0.031665 0.000000 -0.999499
vn -0.031665 0.000000 -0.999499
vn -0.472032 0.398984 -0.786128
vn -0.472032 0.398984 -0.786128
vn -0.472032 0.398984 -0.786128
vn 0.028317 -0.115270 -0.992930
vn 0.028317 -0.115270 -0.992931
vn 0.028317 -0.115270 -0.992931
vn 0.273160 0.538479 -0.797135
vn 0.273160 0.538479 -0.797135
vn 0.273160 0.538479 -0.797135
vn -0.557059 0.334622 -0.760074
vn -0.557059 0.334622 -0.760074
vn -0.557059 0.334622 -0.760074
vn 0.050866 -0.152384 -0.987011
vn 0.050866 -0.152384 -0.987011
vn 0.050866 -0.152384 -0.987011
vn -0.049079 0.543021 -0.838283
vn -0.049079 0.543021 -0.838284
vn -0.049079 0.543021 -0.838283
vn -0.256712 0.572104 -0.778971
vn -0.256712 0.572104 -0.778971
vn -0.256712 0.572104 -0.778971
vn 0.625920 0.220913 -0.747945
vn 0.625920 0.220913 -0.747945
vn 0.625920 0.220913 -0.747945
vn 0.000047 -0.114932 -0.993373
vn 0.000047 -0.114932 -0.993373
vn 0.000047 -0.114932 -0.993373
vn -0.283913 0.535733 -0.795225
vn -0.283913 0.535733 -0.795225
vn -0.283913 0.535733 -0.795225
vn -0.299729 0.254496 -0.919454
vn -0.299729 0.254496 -0.919453
vn -0.299729 0.254496 -0.919453
vn 0.609952 0.341365 -0.715143
vn 0.609952 0.341365 -0.715143
vn 0.609952 0.341365 -0.715143
vn 0.083457 -0.973665 0.212160
vn 0.083457 -0.973665 0.212160
vn 0.083457 -0.973665 0.212160
vn -0.279382 0.199678 -0.939188
vn -0.279382 0.199678 -0.939188
vn -0.279382 0.199678 -0.939188
vn 0.255760 0.937964 -0.234118
vn 0.255760 0.937964 -0.234118
vn 0.255760 0.937964 -0.234118
vn -0.219626 0.128484 -0.967087
vn -0.219626 0.128484 -0.967087
vn -0.219626 0.128484 -0.967087
vn -0.195923 0.127703 -0.972268
vn -0.195923 0.127703 -0.972269
vn -0.195923 0.127703 -0.972268
vn -0.081931 -0.982529 0.167108
vn -0.081931 -0.982529 0.167108
vn -0.081931 -0.982529 0.167108
vn 0.514069 -0.857730 0.005683
vn 0.514069 -0.857730 0.005683
vn 0.514069 -0.857730 0.005683
vn 0.341613 0.822209 -0.455273
vn 0.341613 0.822209 -0.455273
vn 0.341613 0.822209 -0.455273
vn 0.977381 -0.105615 -0.183225
vn 0.977381 -0.105615 -0.183225
vn 0.977381 -0.105615 -0.183225
vn 0.969651 0.003656 -0.244468
vn 0.969650 0.003656 -0.244468
vn 0.969650 0.003656 -0.244468
vn 0.766527 0.335557 -0.547575
vn 0.766527 0.335557 -0.547575
vn 0.766527 0.335557 -0.547575
vn 0.594337 0.319773 -0.737909
vn 0.594337 0.319773 -0.737909
vn 0.594337 0.319773 -0.737909
vn 0.998280 0.014065 -0.056910
vn 0.998280 0.014065 -0.056910
vn 0.998280 0.014065 -0.056910
vn -0.712964 -0.180840 -0.677480
vn -0.712964 -0.180840 -0.677480
vn -0.712964 -0.180840 -0.677480
vn -0.714600 -0.193508 -0.672236
vn -0.714600 -0.193508 -0.672236
vn -0.714600 -0.193508 -0.672236
vn -0.363784 0.243526 -0.899086
vn -0.363784 0.243526 -0.899086
vn -0.363784 0.243526 -0.899086
vn 0.082416 -0.163906 -0.983027
vn 0.082416 -0.163906 -0.983027
vn 0.082416 -0.163906 -0.983027
s off
f 4/1/1 5/2/2 1/3/3 2/4/4
f 5/5/5 6/6/6 3/7/7 1/8/8
f 11/9/9 7/10/10 18/11/11
f 16/12/12 30/13/13 17/14/14
f 19/15/15 13/16/16 11/9/17
f 20/17/18 7/10/19 11/9/20
f 16/12/21 31/18/22 30/13/23
f 11/9/24 18/11/25 19/15/26
f 20/17/27 11/9/28 17/14/29
f 13/16/30 21/19/31 11/9/32
f 16/12/33 22/20/34 31/18/35
f 17/14/36 11/9/37 16/12/38
f 16/12/39 11/9/40 25/21/41
f 23/22/42 24/23/43 11/9/44
f 25/21/45 26/24/46 8/25/47
f 25/21/48 11/9/49 26/24/50
f 28/26/51 24/23/52 23/22/53
f 11/9/54 24/23/55 27/27/56
f 26/24/57 11/9/58 27/27/59
f 25/21/60 29/28/61 9/29/62
f 23/22/63 33/30/64 32/31/65
f 23/22/66 34/32/67 33/30/68
f 35/33/69 34/32/70 23/22/71
f 35/33/72 23/22/73 12/34/74
f 12/34/75 23/22/76 10/35/77
f 11/9/78 21/36/79 23/22/80
f 23/22/81 21/36/82 10/35/83
f 9/29/84 36/37/85 25/21/86
f 25/21/87 36/37/88 14/38/89
f 25/21/90 14/38/91 16/12/92
f 16/12/93 15/39/94 22/20/95
