# This file uses centimeters as units for non-parametric coordinates.

v 4.999992 0.000000 -4.999992
v 4.326210 0.069697 -4.999992
v 3.976936 0.069697 -4.999992
v 4.412544 -0.230295 -4.999992
v 3.926216 -0.000000 -4.999992
v 4.919640 -0.054173 -4.999992
v 4.734566 -0.083538 -4.999992
v 1.833420 -0.000000 -5.000000
v 5.000000 -0.000000 -2.683105
v 4.924454 -0.054173 -2.694336
v 4.696480 -0.103095 -2.804985
v 4.396164 -0.230295 -3.162674
v 4.309830 -0.141855 -3.164139
v 3.522514 0.045981 -3.001060
v 3.370323 -0.000000 -3.091789
v 1.960876 -0.036160 -3.151978
v 1.889603 -0.000000 -3.145386
v 3.373672 -0.000000 -2.968033
v 1.977058 -0.000000 -3.062248
v 1.815704 0.008383 -4.973389
v 1.853424 -0.007455 -4.973587
v 3.916229 -0.000000 -4.948929
v 3.976936 0.069697 -4.917870
v 4.326218 0.069697 -4.973587
v 4.412552 -0.230295 -4.973587
v 4.734558 -0.083538 -4.973587
v 4.919647 -0.054173 -4.973587
v 0.000000 0.000000 0.000000
v 0.000000 0.000000 -5.000000
v 0.000000 0.069697 -0.673782
v -0.000008 0.069697 -1.023064
v 0.000000 -0.230295 -0.587448
v -0.000008 -0.000000 -1.073784
v 0.000000 -0.054173 -0.080353
v 0.000000 -0.083538 -0.265427
v -0.000008 -0.000000 -3.173286
v 1.937378 -0.000000 0.000000
v 1.947495 -0.054173 -0.075546
v 1.826218 -0.103095 -0.334930
v 1.645401 -0.230295 -0.641388
v 1.645401 -0.141855 -0.727722
v 1.811836 0.045981 -1.516472
v 1.867966 -0.000000 -1.641296
v 1.765633 -0.000000 -1.617897
v 1.889603 0.017936 -3.091965
v 0.033600 -0.000000 -3.199997
v 0.033600 -0.000000 -3.146576
v 0.091179 -0.000000 -1.108849
v 0.033592 0.069697 -1.023064
v 0.033600 0.069697 -0.673782
v 0.033600 -0.230295 -0.587448
v 0.033600 -0.083538 -0.265427
v 0.033600 -0.054173 -0.080353
v 0.033600 -0.000000 -4.973785
v 4.999992 0.000000 0.000008
v 2.881332 -0.000000 -2.104095
v 2.981911 0.045981 -1.996986
v 3.391487 -0.141855 -1.545708
v 3.462334 -0.230295 -1.434135
v 3.834747 -0.103095 -1.048782
v 4.028641 -0.054173 -0.878494
v 4.149582 0.000000 -0.769119
v 1.104767 -0.000000 0.000000
v 1.124985 -0.054173 -0.077606
v 1.055832 -0.094691 -0.305054
v 1.047615 -0.230295 -0.724922
v 1.047623 -0.141855 -0.811264
v 1.047623 -0.015744 -1.385544
v 1.046021 -0.000000 -1.524704
v 3.460762 -0.000000 -3.951820
v 3.606956 0.045981 -3.888725
v 4.228310 -0.141855 -3.906975
v 4.314651 -0.230295 -3.906189
v 4.714111 -0.094039 -3.809250
v 4.922226 -0.054173 -3.749847
v 5.000000 -0.000000 -3.756042
v 0.889610 -0.000000 -1.238121
v 0.919533 0.069697 -1.143166
v 0.919533 0.069697 -0.793892
v 0.919533 -0.230295 -0.707558
v 0.926697 -0.093282 -0.300049
v 0.987122 -0.054173 -0.077957
v 0.965195 -0.000000 0.000000
v 4.999992 -0.000000 -3.920097
v 4.921875 -0.054173 -3.911240
v 4.716805 -0.092654 -3.962807
v 4.327568 -0.230295 -4.046959
v 4.241219 0.069697 -4.047646
v 3.891945 0.069697 -4.024452
v 3.788551 -0.000000 -4.083321
v 1.119896 -0.113563 -1.132011
v 1.884117 -0.097763 -1.286232
v 3.167259 -0.101878 -1.826012
v 3.740509 -0.088330 -2.938812
v 3.957535 -0.128412 -3.837952
vt 0.066177 0.209415
vt 0.102497 0.279316
vt 0.102497 0.279316
vt 0.102497 0.279316
vt 0.102705 0.299407
vt 0.102497 0.279316
vt 0.102497 0.279316
vt 0.066177 0.209415
vt 0.102497 0.279316
vt 0.102497 0.279316
vt 0.102497 0.279316
vt 0.102705 0.299407
vt 0.102705 0.299407
vt 0.102183 0.307564
vt 0.102183 0.307564
vt 0.102183 0.307564
vt 0.102183 0.307564
vt 0.102497 0.301795
vt 0.102183 0.307564
vt 0.102705 0.299407
vt 0.102705 0.299407
vt 0.102497 0.301795
vt 0.102705 0.299407
vt 0.102705 0.299407
vt 0.102318 0.327655
vt 0.102183 0.307564
vt 0.102318 0.327655
vt 0.102183 0.307564
vt 0.102183 0.307564
vt 0.102183 0.307564
vt 0.102183 0.307564
vt 0.102183 0.307564
vt 0.102183 0.307564
vt 0.102183 0.307564
vt 0.102183 0.307564
vt 0.066177 0.209415
vt 0.066177 0.209415
vt 0.066177 0.209415
vt 0.102705 0.299407
vt 0.102497 0.279316
vt 0.102497 0.279316
vt 0.102497 0.279316
vt 0.102497 0.279316
vt 0.102497 0.279316
vt 0.102497 0.279316
vt 0.102497 0.279316
vt 0.102497 0.279316
vt 0.102497 0.279316
vt 0.102497 0.279316
vt 0.102705 0.299407
vt 0.102497 0.279316
vt 0.102705 0.299407
vt 0.102705 0.299407
vt 0.102705 0.299407
vt 0.102705 0.299407
vt 0.102497 0.279316
vt 0.102705 0.299407
vt 0.102318 0.327655
vt 0.102705 0.299407
vt 0.102183 0.307564
vt 0.102497 0.301795
vt 0.102318 0.327655
vt 0.102183 0.307564
vt 0.102183 0.307564
vt 0.102183 0.307564
vt 0.066177 0.209415
vt 0.066177 0.209415
vt 0.066177 0.209415
vt 0.066177 0.209415
vt 0.102183 0.307564
vt 0.102183 0.307564
vt 0.102183 0.307564
vt 0.102183 0.307564
vt 0.102183 0.307564
vt 0.102183 0.307564
vt 0.102183 0.307564
vt 0.102183 0.307564
vt 0.102183 0.307564
vt 0.102183 0.307564
vt 0.102183 0.307564
vt 0.102183 0.307564
vt 0.102705 0.299407
vt 0.102705 0.299407
vt 0.102705 0.299407
vt 0.102705 0.299407
vt 0.102183 0.307564
vt 0.102183 0.307564
vt 0.102183 0.307564
vt 0.102183 0.307564
vt 0.102183 0.307564
vt 0.102183 0.307564
vt 0.102318 0.327655
vt 0.102318 0.327655
vt 0.102318 0.327655
vt 0.102318 0.327655
vt 0.102318 0.327655
vt 0.102318 0.327655
vt 0.102318 0.327655
vt 0.102318 0.327655
vt 0.102497 0.301795
vt 0.102497 0.301795
vt 0.102497 0.301795
vt 0.102705 0.299407
vt 0.102705 0.299407
vt 0.102705 0.299407
vt 0.102705 0.299407
vt 0.102705 0.299407
vt 0.102705 0.299407
vt 0.102705 0.299407
vt 0.102705 0.299407
vt 0.102705 0.299407
vt 0.102705 0.299407
vt 0.102705 0.299407
vt 0.102705 0.299407
vt 0.102705 0.299407
vt 0.102705 0.299407
vt 0.102705 0.299407
vt 0.102705 0.299407
vt 0.102705 0.299407
vt 0.102705 0.299407
vt 0.102497 0.279316
vt 0.102497 0.279316
vt 0.102497 0.279316
vt 0.102497 0.279316
vt 0.102497 0.279316
vt 0.102497 0.279316
vt 0.102497 0.279316
vt 0.102497 0.279316
vt 0.102497 0.279316
vt 0.102497 0.279316
vt 0.102497 0.279316
vt 0.102497 0.279316
vt 0.102497 0.279316
vt 0.102497 0.279316
vt 0.102497 0.279316
vt 0.102497 0.279316
vt 0.102497 0.279316
vt 0.102497 0.279316
vt 0.102497 0.279316
vt 0.102497 0.279316
vt 0.066177 0.209415
vt 0.102705 0.299407
vt 0.102318 0.306199
vt 0.102318 0.306199
vt 0.102318 0.306199
vt 0.102318 0.306199
vt 0.102705 0.299407
vt 0.102705 0.299407
vt 0.065979 0.208380
vt 0.065979 0.208380
vt 0.065979 0.208380
vt 0.101578 0.304601
vt 0.101578 0.304601
vt 0.101578 0.304601
vt 0.101578 0.304601
vt 0.101578 0.306290
vt 0.101578 0.304601
vt 0.101578 0.306290
vt 0.101578 0.306290
vt 0.101578 0.306290
vt 0.101578 0.306290
vt 0.101578 0.331052
vt 0.101578 0.306290
vt 0.101578 0.331052
vt 0.101578 0.306290
vt 0.101578 0.331052
vt 0.101578 0.306290
vt 0.101578 0.306290
vt 0.101578 0.306290
vt 0.101578 0.306290
vt 0.101578 0.304601
vt 0.101578 0.306290
vt 0.101578 0.304601
vt 0.101578 0.304601
vt 0.065979 0.208380
vt 0.065979 0.208380
vt 0.101578 0.306290
vt 0.101578 0.331052
vt 0.101578 0.306290
vt 0.101578 0.306290
vt 0.101578 0.306290
vt 0.101578 0.306290
vt 0.101578 0.304601
vt 0.101578 0.306290
vt 0.101578 0.304601
vt 0.101578 0.304601
vt 0.065979 0.208380
vt 0.101578 0.304601
vt 0.065979 0.208380
vt 0.066177 0.209415
vt 0.066177 0.209415
vt 0.102183 0.307564
vt 0.102183 0.307564
vt 0.102183 0.307564
vt 0.102183 0.307564
vt 0.102183 0.307564
vt 0.102183 0.307564
vt 0.102183 0.307564
vt 0.102183 0.307564
vt 0.102183 0.307564
vt 0.102318 0.327655
vt 0.102183 0.307564
vt 0.102318 0.327655
vt 0.102183 0.307564
vt 0.102183 0.307564
vt 0.102183 0.307564
vt 0.102183 0.307564
vt 0.102183 0.307564
vt 0.102183 0.307564
vt 0.102183 0.307564
vt 0.066177 0.209415
vt 0.102183 0.307564
vt 0.066177 0.209415
vt 0.102183 0.307564
vt 0.102318 0.327655
vt 0.102183 0.307564
vt 0.102183 0.307564
vt 0.102183 0.307564
vt 0.102183 0.307564
vt 0.102183 0.307564
vt 0.102183 0.307564
vt 0.102183 0.307564
vt 0.066177 0.209415
vt 0.102183 0.307564
vt 0.066177 0.209415
vt 0.066177 0.209415
vt 0.066177 0.209415
vt 0.102183 0.307564
vt 0.102183 0.307564
vt 0.102183 0.307564
vt 0.102183 0.307564
vt 0.102183 0.307564
vt 0.102183 0.307564
vt 0.102183 0.307564
vt 0.102183 0.307564
vt 0.102183 0.307564
vt 0.102318 0.327655
vt 0.102183 0.307564
vt 0.102183 0.307564
vt 0.101578 0.306290
vt 0.101578 0.306290
vt 0.101578 0.306290
vt 0.102183 0.307564
vt 0.102183 0.307564
vn -0.559015 0.829158 0.000161
vn -0.559015 0.829158 0.000161
vn -0.559014 0.829158 0.000161
vn -0.156700 0.987646 -0.000000
vn -0.156700 0.987646 -0.000000
vn -0.156700 0.987646 -0.000000
vn -0.156700 0.987646 -0.000000
vn -0.414707 0.909955 0.000000
vn -0.414707 0.909955 0.000000
vn -0.414707 0.909955 0.000000
vn -0.414707 0.909955 0.000000
vn 0.960997 0.276560 -0.000278
vn 0.960997 0.276560 -0.000278
vn 0.960997 0.276560 -0.000278
vn 0.960997 0.276560 -0.000278
vn -0.000000 1.000000 -0.000001
vn -0.000000 1.000000 -0.000001
vn -0.000000 1.000000 -0.000001
vn -0.000000 1.000000 -0.000001
vn -0.773450 0.631199 -0.057997
vn -0.773450 0.631199 -0.057997
vn -0.773450 0.631199 -0.057997
vn -0.773450 0.631199 -0.057997
vn -0.002356 0.995371 0.096083
vn -0.002356 0.995371 0.096083
vn -0.002356 0.995371 0.096083
vn -0.002356 0.995371 0.096083
vn 0.386777 0.921589 -0.032816
vn 0.386777 0.921589 -0.032816
vn 0.386777 0.921589 -0.032816
vn -0.293541 0.955913 0.007944
vn -0.293541 0.955913 0.007944
vn -0.293541 0.955913 0.007944
vn -0.003534 0.986004 -0.166687
vn -0.003534 0.986004 -0.166687
vn -0.003534 0.986004 -0.166687
vn -0.003534 0.986004 -0.166687
vn 0.429934 0.902778 -0.012189
vn 0.429934 0.902778 -0.012189
vn 0.429934 0.902778 -0.012189
vn 0.429934 0.902778 -0.012189
vn -0.015693 0.999839 0.008742
vn -0.016226 0.999829 0.008869
vn -0.003314 0.999994 -0.001170
vn -0.270005 0.961172 -0.056966
vn -0.266135 0.960523 -0.081044
vn -0.567196 0.810822 -0.144421
vn 0.458985 0.882492 0.102663
vn 0.229426 0.966141 0.118051
vn 0.053475 0.972959 0.224702
vn 0.788038 0.611293 0.072920
vn 0.772189 0.634400 0.035501
vn 0.951030 0.286909 0.114998
vn 0.954450 0.280921 0.100537
vn -0.354797 0.934872 0.011572
vn -0.357788 0.933697 0.014078
vn -0.362055 0.932039 -0.014814
vn -0.364159 0.931217 -0.014930
vn -0.198310 0.980135 0.002828
vn -0.199319 0.979931 0.002819
vn -0.174494 0.984654 0.003024
vn -0.173375 0.984851 0.003033
vn -0.565072 0.825041 0.000592
vn -0.565241 0.824925 0.000593
vn -0.576318 0.817226 0.000607
vn -0.576195 0.817312 0.000608
vn 0.000719 0.817211 -0.576339
vn 0.000719 0.816926 -0.576742
vn 0.000708 0.824609 -0.565702
vn 0.000707 0.824905 -0.565271
vn 0.219939 0.975011 0.031310
vn 0.126997 0.969373 0.210207
vn 0.097986 0.904455 0.415163
vn -0.121424 0.797331 -0.591202
vn -0.026275 0.995669 -0.089184
vn -0.049039 0.993245 -0.105169
vn 0.141919 0.278948 0.949762
vn 0.156690 0.284350 0.945830
vn 0.051000 0.626862 0.777459
vn 0.097486 0.601608 0.792820
vn 0.000106 0.986200 -0.165556
vn 0.000106 0.986200 -0.165556
vn 0.000106 0.986200 -0.165556
vn 0.000106 0.986200 -0.165556
vn -0.025709 0.934718 -0.354460
vn -0.025803 0.934315 -0.355512
vn 0.011839 0.940752 -0.338887
vn 0.011833 0.940754 -0.338883
vn 0.002286 0.985933 -0.167128
vn 0.002274 0.985818 -0.167801
vn 0.002032 0.983510 -0.180843
vn 0.002042 0.983604 -0.180328
vn -0.002340 0.999994 0.002375
vn -0.002340 0.999995 0.002375
vn -0.002340 0.999994 0.002375
vn -0.002340 0.999994 0.002375
vn -0.005792 0.999962 0.006563
vn 0.000000 1.000000 0.000000
vn -0.005998 0.999959 0.006796
vn -0.086522 0.921594 -0.378389
vn -0.086522 0.921594 -0.378389
vn -0.086522 0.921594 -0.378389
vn 0.093624 0.995513 0.013705
vn 0.093624 0.995513 0.013705
vn 0.093624 0.995513 0.013705
vn 0.093624 0.995513 0.013705
vn 0.383926 0.830357 -0.403867
vn 0.383926 0.830357 -0.403867
vn 0.383926 0.830357 -0.403867
vn 0.000000 1.000000 0.000000
vn 0.000000 1.000000 0.000000
vn 0.000000 1.000000 0.000000
vn 0.000000 1.000000 0.000000
vn 0.000000 1.000000 0.000000
vn 0.000000 1.000000 0.000000
vn 0.000000 1.000000 0.000000
vn 0.000000 1.000000 0.000000
vn 0.000000 1.000000 0.000000
vn 0.000000 1.000000 0.000000
vn 0.000000 1.000000 0.000000
vn -0.208057 0.639129 -0.740423
vn -0.208057 0.639129 -0.740423
vn -0.208057 0.639129 -0.740423
vn -0.208057 0.639129 -0.740423
vn -0.000001 1.000000 0.000000
vn -0.000001 1.000000 0.000000
vn -0.000001 1.000000 0.000000
vn -0.000001 1.000000 0.000000
vn -0.000001 0.276564 0.960996
vn -0.000001 0.276564 0.960996
vn -0.000001 0.276564 0.960995
vn -0.000001 0.276564 0.960996
vn 0.000000 0.909958 -0.414700
vn 0.000000 0.909958 -0.414700
vn 0.000000 0.909958 -0.414700
vn 0.000000 0.909958 -0.414700
vn 0.000000 0.987645 -0.156709
vn 0.000000 0.987645 -0.156709
vn 0.000000 0.987645 -0.156709
vn 0.000000 0.987645 -0.156709
vn 0.000000 0.829161 -0.559010
vn 0.000000 0.829161 -0.559010
vn 0.000000 0.829161 -0.559010
vn 0.289604 0.907370 -0.304647
vn 0.289604 0.907370 -0.304647
vn 0.289604 0.907370 -0.304647
vn -0.002273 0.987746 -0.156055
vn -0.002273 0.987746 -0.156055
vn -0.002273 0.987746 -0.156055
vn -0.002273 0.987746 -0.156055
vn 0.000000 1.000000 -0.000000
vn 0.000000 1.000000 -0.000000
vn 0.000000 1.000000 -0.000000
vn -0.171474 0.981569 -0.084370
vn -0.171474 0.981569 -0.084370
vn -0.171474 0.981569 -0.084370
vn -0.171474 0.981569 -0.084370
vn -0.232604 0.965158 -0.119853
vn -0.232604 0.965158 -0.119853
vn -0.232604 0.965158 -0.119853
vn -0.232604 0.965158 -0.119853
vn 0.592401 0.735928 0.327828
vn 0.592401 0.735928 0.327828
vn 0.592401 0.735928 0.327828
vn 0.592401 0.735928 0.327828
vn 0.211438 0.970235 0.118060
vn 0.201603 0.972936 0.112924
vn 0.456319 0.855257 0.245579
vn 0.456319 0.855257 0.245579
vn -0.297790 0.940322 -0.164667
vn -0.297790 0.940322 -0.164667
vn -0.297790 0.940322 -0.164667
vn -0.297790 0.940322 -0.164667
vn 0.000000 1.000000 0.000000
vn 0.000000 1.000000 0.000000
vn 0.000000 1.000000 0.000000
vn -0.146943 0.928830 -0.340121
vn -0.146943 0.928830 -0.340121
vn -0.146943 0.928830 -0.340121
vn -0.146943 0.928830 -0.340121
vn 0.090122 0.974075 0.207501
vn 0.091267 0.973367 0.210304
vn 0.203794 0.849534 0.486580
vn 0.203794 0.849534 0.486580
vn 0.265729 0.764116 0.587805
vn 0.265729 0.764116 0.587805
vn 0.265729 0.764116 0.587805
vn 0.265729 0.764116 0.587805
vn -0.105476 0.957679 -0.267818
vn -0.105476 0.957679 -0.267818
vn -0.105476 0.957679 -0.267818
vn -0.105476 0.957679 -0.267818
vn -0.065217 0.982256 -0.175842
vn -0.065217 0.982256 -0.175842
vn -0.065217 0.982256 -0.175843
vn -0.065217 0.982256 -0.175842
vn 0.000000 1.000000 0.000000
vn 0.000000 1.000000 0.000000
vn 0.000000 1.000000 0.000000
vn -0.000000 1.000000 0.000000
vn -0.000000 1.000000 0.000000
vn -0.000000 1.000000 0.000000
vn -0.387205 0.903997 -0.181281
vn -0.387205 0.903997 -0.181281
vn -0.387205 0.903997 -0.181281
vn -0.387205 0.903997 -0.181281
vn -0.156618 0.890236 -0.427728
vn -0.156618 0.890236 -0.427728
vn -0.156618 0.890236 -0.427728
vn -0.156618 0.890236 -0.427728
vn 0.000719 0.816437 -0.577434
vn 0.000719 0.816437 -0.577434
vn 0.000719 0.816926 -0.576742
vn 0.000719 0.817211 -0.576339
vn 0.002042 0.983604 -0.180328
vn 0.002032 0.983510 -0.180843
vn 0.002020 0.983396 -0.181459
vn 0.002020 0.983396 -0.181459
vn 0.011833 0.940754 -0.338883
vn 0.011839 0.940752 -0.338887
vn 0.019281 0.938548 -0.344609
vn 0.019281 0.938548 -0.344609
vn 0.097486 0.601608 0.792820
vn 0.051000 0.626862 0.777459
vn -0.099500 0.695089 0.712005
vn -0.099500 0.695089 0.712005
vn 0.097986 0.904455 0.415163
vn 0.126997 0.969373 0.210207
vn 0.015991 0.961377 0.274771
vn 0.036108 0.898354 0.437786
vn -0.049039 0.993245 -0.105169
vn -0.026275 0.995669 -0.089184
vn -0.058338 0.991873 -0.113066
vn -0.058338 0.991873 -0.113066
vn -0.005792 0.999962 0.006563
vn -0.005998 0.999959 0.006796
vn -0.006847 0.999946 0.007758
vn -0.006847 0.999947 0.007758
vn -0.018334 0.999773 0.010818
vn -0.018334 0.999773 0.010818
vn -0.016226 0.999829 0.008869
vn -0.015693 0.999839 0.008742
vn -0.281138 0.959255 -0.028132
vn -0.281138 0.959255 -0.028132
vn -0.266135 0.960523 -0.081044
vn -0.270005 0.961172 -0.056966
vn 0.467229 0.882163 0.059042
vn 0.312600 0.949472 0.027985
vn 0.229426 0.966141 0.118051
vn 0.458985 0.882492 0.102663
vn 0.713859 0.695898 -0.078301
vn 0.713859 0.695898 -0.078301
vn 0.772189 0.634400 0.035501
vn 0.788038 0.611293 0.072920
vn -0.362551 0.931789 0.018080
vn -0.362551 0.931789 0.018080
vn -0.357788 0.933697 0.014078
vn -0.354797 0.934872 0.011572
vn -0.200559 0.979678 0.002808
vn -0.200559 0.979678 0.002808
vn -0.199319 0.979931 0.002819
vn -0.198310 0.980135 0.002828
vn -0.576195 0.817312 0.000608
vn -0.576318 0.817226 0.000607
vn -0.577122 0.816658 0.000604
vn -0.577122 0.816658 0.000604
vn -0.005792 0.999962 0.006563
vn 0.000000 1.000000 0.000000
vn 0.000000 1.000000 0.000000
vn -0.091331 0.781739 -0.616882
vn -0.091331 0.781739 -0.616882
vn -0.108945 0.785252 -0.609517
vn -0.121424 0.797331 -0.591202
vn 0.000000 1.000000 -0.000000
vn 0.000000 1.000000 -0.000000
vn 0.160604 0.986752 0.022951
vn 0.219939 0.975011 0.031310
vn 0.129194 0.274246 0.952942
vn 0.129194 0.274246 0.952942
vn 0.156690 0.284350 0.945830
vn 0.141919 0.278948 0.949762
vn -0.026396 0.931740 -0.362165
vn -0.026396 0.931740 -0.362165
vn -0.025803 0.934315 -0.355512
vn -0.025709 0.934718 -0.354460
vn 0.002303 0.986093 -0.166177
vn 0.002303 0.986093 -0.166177
vn 0.002274 0.985818 -0.167801
vn 0.002286 0.985933 -0.167128
vn 0.000707 0.824905 -0.565271
vn 0.000708 0.824609 -0.565702
vn 0.000705 0.825354 -0.564616
vn 0.000705 0.825354 -0.564616
vn -0.564324 0.825553 0.000587
vn -0.564324 0.825553 0.000587
vn -0.565241 0.824925 0.000593
vn -0.565072 0.825041 0.000592
vn -0.173375 0.984851 0.003033
vn -0.174494 0.984654 0.003024
vn -0.171713 0.985142 0.003046
vn -0.171713 0.985142 0.003046
vn -0.364159 0.931217 -0.014930
vn -0.362055 0.932039 -0.014814
vn -0.369681 0.929034 -0.015232
vn -0.369681 0.929034 -0.015232
vn 0.954450 0.280921 0.100537
vn 0.951030 0.286909 0.114998
vn 0.957249 0.275610 0.087833
vn 0.957249 0.275610 0.087833
vn 0.053475 0.972959 0.224702
vn 0.024916 0.988426 0.149642
vn 0.000000 1.000000 0.000000
vn 0.000000 1.000000 0.000000
vn -0.567196 0.810822 -0.144421
vn -0.586035 0.799652 -0.130841
vn -0.621338 0.779934 -0.075121
vn -0.621338 0.779934 -0.075121
vn -0.015693 0.999839 0.008742
vn -0.003314 0.999994 -0.001170
vn -0.003608 0.999993 -0.000532
vn -0.121424 0.797331 -0.591202
vn -0.108945 0.785252 -0.609517
vn -0.026275 0.995669 -0.089184
vn -0.567196 0.810822 -0.144421
vn -0.266135 0.960523 -0.081044
vn -0.586035 0.799652 -0.130841
vn 0.219939 0.975011 0.031310
vn 0.160604 0.986752 0.022951
vn 0.198680 0.975598 0.093458
vn 0.126997 0.969373 0.210207
vn 0.015991 0.961377 0.274771
vn 0.126997 0.969373 0.210207
vn 0.198680 0.975598 0.093458
vn -0.007442 0.996813 0.079430
vn 0.046356 0.993866 0.100410
vn 0.091267 0.973367 0.210304
vn 0.090122 0.974075 0.207501
vn 0.046356 0.993866 0.100410
vn 0.112235 0.991473 0.066213
vn 0.201603 0.972936 0.112924
vn 0.211438 0.970235 0.118060
vn 0.112235 0.991473 0.066213
vn 0.229426 0.966141 0.118051
vn 0.312600 0.949472 0.027985
vn 0.073073 0.997159 -0.018311
vn 0.091835 0.980727 0.172455
vn 0.053475 0.972959 0.224702
vn 0.229426 0.966141 0.118051
vn 0.091835 0.980727 0.172455
vn 0.024916 0.988426 0.149642
s off
f 1/36/1 6/37/2 27/38/3
f 26/43/4 27/40/5 6/41/6 7/11/7
f 25/45/8 26/42/9 7/56/10 4/2/11
f 24/47/12 25/44/13 4/7/14 2/3/15
f 23/49/16 24/46/17 2/9/18 3/4/19
f 22/51/20 23/48/21 3/10/22 5/6/23
f 21/54/24 22/50/25 5/5/26 8/13/27
f 20/55/28 21/53/29 8/12/30
f 18/22/31 14/18/32 15/61/33
f 19/39/34 18/23/35 15/20/36 16/59/37
f 17/21/38 16/57/39 21/52/40 20/24/41
f 21/25/42 70/203/43 90/237/44
f 70/202/45 71/205/46 90/236/47
f 71/204/48 95/244/49 89/234/50
f 72/206/51 73/209/52 87/231/53 88/232/54
f 73/208/55 74/210/56 86/229/57 87/230/58
f 74/210/59 75/212/60 85/228/61 86/229/62
f 84/226/63 85/227/64 75/211/65 76/213/66
f 63/190/67 64/191/68 82/223/69 83/225/70
f 78/216/71 91/238/72 68/198/73
f 77/214/74 68/199/75 69/200/76
f 79/218/77 80/221/78 66/195/79 67/196/80
f 46/82/81 47/83/82 45/84/83 17/85/84
f 80/220/85 81/222/86 65/193/87 66/194/88
f 81/222/89 82/224/90 64/192/91 65/193/92
f 46/94/93 17/95/94 20/92/95 54/93/96
f 47/96/97 77/215/98 69/201/99
f 44/100/100 42/101/101 43/102/102
f 45/103/103 44/104/104 43/105/105 19/106/106
f 17/107/107 19/148/108 16/109/109
f 29/113/110 36/110/111 46/111/112 54/112/113
f 36/114/114 47/115/115 46/116/116
f 33/117/117 48/118/118 47/119/119 36/120/120
f 31/121/121 49/122/122 48/123/123 33/124/124
f 30/125/125 50/126/126 49/127/127 31/128/128
f 32/129/129 51/130/130 50/131/131 30/132/132
f 35/133/133 52/134/134 51/135/135 32/136/136
f 34/137/137 53/138/138 52/139/139 35/140/140
f 28/69/141 53/68/142 34/141/143
f 17/147/144 45/142/145 19/108/146
f 8/146/147 29/143/148 54/144/149 20/145/150
f 55/176/151 9/149/152 62/189/153
f 10/152/154 11/173/155 60/185/156 61/188/157
f 11/153/158 12/171/159 59/183/160 60/186/161
f 12/156/162 13/169/163 58/181/164 59/184/165
f 93/241/166 94/242/167 14/167/168 57/179/169
f 14/160/170 18/165/171 56/177/172 57/180/173
f 18/162/174 19/164/175 56/178/176
f 57/180/177 56/177/178 43/163/179 42/168/180
f 92/240/181 93/241/182 57/179/183 42/161/184
f 59/184/185 58/181/186 41/159/187 40/172/188
f 60/186/189 59/183/190 40/157/191 39/174/192
f 61/188/193 60/185/194 39/154/195 38/155/196
f 56/178/197 19/164/198 43/166/199
f 37/175/200 55/176/201 62/189/202
f 62/189/203 9/149/204 10/150/205 61/187/206
f 37/175/207 62/189/208 61/187/209 38/151/210
f 37/66/211 38/67/212 64/191/213 63/190/214
f 65/193/215 64/192/216 38/91/217 39/88/218
f 66/194/219 65/193/220 39/88/221 40/89/222
f 67/196/223 66/195/224 40/80/225 41/81/226
f 68/198/227 91/238/228 92/239/229 42/73/230
f 69/200/231 68/199/232 42/76/233 44/77/234
f 47/96/235 69/201/236 44/98/237 45/99/238
f 16/58/239 15/62/240 70/203/241 21/25/242
f 15/19/243 14/63/244 71/205/245 70/202/246
f 14/17/247 94/243/248 95/244/249 71/204/250
f 13/16/251 12/65/252 73/209/253 72/206/254
f 12/15/255 11/60/256 74/210/257 73/208/258
f 11/60/259 10/14/260 75/212/261 74/210/262
f 76/213/263 75/211/264 10/8/265 9/1/266
f 47/96/267 48/97/268 77/215/269
f 48/74/270 49/75/271 78/217/272 77/214/273
f 49/70/274 50/71/275 79/219/276 78/216/277
f 50/78/278 51/79/279 80/221/280 79/218/281
f 51/86/282 52/87/283 81/222/284 80/220/285
f 52/87/286 53/90/287 82/224/288 81/222/289
f 83/225/290 82/223/291 53/68/292 28/69/293
f 1/36/294 27/38/295 85/227/296 84/226/297
f 86/229/298 85/228/299 27/35/300 26/34/301
f 87/230/302 86/229/303 26/34/304 25/32/305
f 88/232/306 87/231/307 25/33/308 24/30/309
f 89/234/310 88/233/311 24/31/312 23/28/313
f 90/236/314 89/235/315 23/29/316 22/26/317
f 21/25/318 90/237/319 22/27/320
f 77/214/321 78/217/322 68/199/323
f 90/236/324 71/205/325 89/235/326
f 78/216/327 79/219/328 67/197/329 91/238/330
f 92/239/331 91/238/332 67/197/333 41/72/334
f 58/182/335 93/241/336 92/240/337 41/170/338
f 13/158/339 94/242/340 93/241/341 58/182/342
f 95/244/343 94/243/344 13/64/345 72/207/346
f 89/234/347 95/244/348 72/207/349 88/233/350
