# This file uses centimeters as units for non-parametric coordinates.

v -0.591354 0.000000 4.999994
v 0.591354 0.000000 4.999994
v -0.438988 0.165093 4.999994
v 0.438984 0.165093 4.999994
v -0.438988 0.165093 0.000002
v 0.438984 0.165093 0.000002
v -0.591354 0.000000 0.000002
v 0.591354 0.000000 0.000002
v -0.373779 0.165093 4.999994
v 0.373775 0.165093 4.999994
v 0.373775 0.165093 0.000002
v -0.373779 0.165093 0.000002
v -0.345709 0.132796 4.999994
v 0.345703 0.132796 4.999994
v 0.345703 0.132796 0.000002
v -0.345709 0.132796 0.000002
v -0.539242 0.000000 3.693263
v -0.386877 0.165093 3.693264
v -0.321667 0.165093 3.693264
v -0.293598 0.132796 3.693264
v 0.276060 0.132796 3.527179
v 0.304132 0.165093 3.527179
v 0.369341 0.165093 3.527179
v 0.521713 0.000000 3.527179
v -0.652891 0.000000 0.684369
v -0.500526 0.165093 0.684369
v -0.435316 0.165093 0.684369
v -0.407248 0.132796 0.684369
v 0.410675 0.132796 1.974606
v 0.438747 0.165093 1.974606
v 0.503956 0.165093 1.974606
v 0.656328 0.000000 1.974606
vt 0.382623 0.419678
vt 0.382623 0.419678
vt 0.382623 0.419678
vt 0.382623 0.419678
vt 0.382623 0.419678
vt 0.382623 0.419678
vt 0.382623 0.419678
vt 0.382623 0.419678
vt 0.382623 0.419678
vt 0.382623 0.419678
vt 0.382623 0.419678
vt 0.382623 0.419678
vt 0.382623 0.419678
vt 0.382623 0.419678
vt 0.382623 0.419678
vt 0.382623 0.419678
vt 0.382623 0.419678
vt 0.382623 0.419678
vt 0.070469 0.230790
vt 0.070469 0.230790
vt 0.070469 0.230790
vt 0.070469 0.230790
vt 0.382623 0.419678
vt 0.382623 0.419678
vt 0.382624 0.419678
vt 0.382624 0.419678
vt 0.382624 0.419678
vt 0.070469 0.230790
vt 0.070469 0.230790
vt 0.382624 0.419678
vt 0.382624 0.419678
vt 0.382624 0.419678
vt 0.382623 0.419678
vt 0.382623 0.419678
vt 0.382623 0.419678
vt 0.382623 0.419678
vt 0.382623 0.419678
vt 0.382623 0.419678
vt 0.382623 0.419678
vt 0.070469 0.230790
vt 0.070469 0.230790
vt 0.382623 0.419678
vt 0.382623 0.419678
vt 0.382623 0.419678
vt 0.382623 0.419678
vt 0.382623 0.419678
vn 0.000000 1.000000 0.000000
vn 0.000000 1.000000 0.000000
vn 0.000000 1.000000 0.000000
vn 0.000000 1.000000 0.000000
vn 0.734769 0.678151 0.014996
vn 0.734780 0.678161 0.013995
vn 0.734638 0.678028 -0.024173
vn 0.734638 0.678028 -0.024173
vn -0.733266 0.676737 -0.065935
vn -0.734825 0.678172 0.010692
vn -0.734830 0.678177 0.010058
vn -0.733266 0.676737 -0.065935
vn 0.000000 1.000000 -0.000000
vn 0.000000 1.000000 -0.000000
vn 0.000000 1.000000 0.000000
vn 0.000000 1.000000 0.000000
vn 0.000000 1.000000 -0.000000
vn 0.000000 1.000000 -0.000000
vn 0.000000 1.000000 -0.000000
vn 0.000000 1.000000 -0.000000
vn -0.754655 0.655942 -0.015386
vn -0.754666 0.655951 -0.014391
vn -0.754512 0.655817 0.024826
vn -0.754512 0.655817 0.024826
vn 0.753045 0.654475 0.067713
vn 0.754741 0.655931 -0.010971
vn 0.754746 0.655935 -0.010340
vn 0.753045 0.654475 0.067713
vn -0.734827 0.678174 0.010489
vn -0.734827 0.678174 0.010467
vn -0.734550 0.677922 -0.029293
vn -0.734550 0.677922 -0.029293
vn 0.000000 1.000000 0.000000
vn 0.000000 1.000000 0.000000
vn 0.000000 1.000000 0.000000
vn 0.000000 1.000000 0.000000
vn 0.754742 0.655934 -0.010773
vn 0.754742 0.655934 -0.010751
vn 0.754436 0.655684 0.030086
vn 0.754436 0.655684 0.030086
vn 0.000000 1.000000 -0.000000
vn 0.000000 1.000000 -0.000000
vn 0.000000 1.000000 -0.000000
vn 0.000000 1.000000 -0.000000
vn -0.754264 0.655602 0.035666
vn -0.754640 0.655929 -0.016608
vn -0.754650 0.655937 -0.015781
vn -0.754264 0.655602 0.035666
vn 0.000000 1.000000 0.000000
vn 0.000000 1.000000 -0.000000
vn 0.000000 1.000000 -0.000000
vn 0.000000 1.000000 0.000000
vn 0.734410 0.677818 -0.034727
vn 0.734756 0.678139 0.016184
vn 0.734765 0.678148 0.015351
vn 0.734410 0.677818 -0.034727
vn -0.734830 0.678177 0.010058
vn -0.734825 0.678172 0.010692
vn -0.734827 0.678174 0.010467
vn -0.734827 0.678174 0.010489
vn 0.000000 1.000000 -0.000000
vn 0.000000 1.000000 -0.000000
vn 0.000000 1.000000 0.000000
vn 0.000000 1.000000 0.000000
vn 0.754746 0.655935 -0.010340
vn 0.754741 0.655931 -0.010971
vn 0.754742 0.655934 -0.010751
vn 0.754742 0.655934 -0.010773
vn 0.000000 1.000000 -0.000000
vn 0.000000 1.000000 -0.000000
vn 0.000000 1.000000 0.000000
vn 0.000000 1.000000 0.000000
vn -0.754650 0.655937 -0.015781
vn -0.754640 0.655929 -0.016608
vn -0.754666 0.655951 -0.014391
vn -0.754655 0.655942 -0.015386
vn 0.000000 1.000000 -0.000000
vn 0.000000 1.000000 -0.000000
vn 0.000000 1.000000 -0.000000
vn 0.000000 1.000000 -0.000000
vn 0.734765 0.678148 0.015351
vn 0.734756 0.678139 0.016184
vn 0.734780 0.678161 0.013995
vn 0.734769 0.678151 0.014996
s off
f 28/40/1 29/41/2 15/21/3 16/22/4
f 31/45/5 32/46/6 8/7/7 6/8/8
f 7/9/9 25/35/10 26/36/11 5/10/12
f 30/43/13 31/44/14 6/6/15 11/13/16
f 5/5/17 26/37/18 27/38/19 12/14/20
f 29/42/21 30/43/22 11/13/23 15/17/24
f 12/14/25 27/38/26 28/39/27 16/18/28
f 18/24/29 17/23/30 1/1/31 3/3/32
f 19/26/33 18/25/34 3/3/35 9/11/36
f 20/27/37 19/26/38 9/11/39 13/15/40
f 13/19/41 14/20/42 21/29/43 20/28/44
f 10/12/45 22/31/46 21/30/47 14/16/48
f 4/4/49 23/32/50 22/31/51 10/12/52
f 2/2/53 24/34/54 23/33/55 4/4/56
f 26/36/57 25/35/58 17/23/59 18/24/60
f 27/38/61 26/37/62 18/25/63 19/26/64
f 28/39/65 27/38/66 19/26/67 20/27/68
f 20/28/69 21/29/70 29/41/71 28/40/72
f 21/30/73 22/31/74 30/43/75 29/42/76
f 22/31/77 23/32/78 31/44/79 30/43/80
f 23/33/81 24/34/82 32/46/83 31/45/84
