# This file uses centimeters as units for non-parametric coordinates.

v -0.049767 0.171938 0.058105
v 0.065372 0.164363 0.048587
v -0.059037 0.211706 0.062439
v 0.076760 0.217449 0.072340
v -0.063227 0.205089 -0.065462
v 0.078564 0.200914 -0.075406
v -0.059927 0.167613 -0.057337
v 0.055378 0.159946 -0.066969
v 0.028092 0.223527 -0.116555
v -0.009820 0.229539 0.101042
v 0.009722 0.168959 0.075172
v -0.004239 0.162900 -0.083973
v -0.076680 0.171189 0.002261
v -0.105592 0.233515 -0.022074
v 0.128749 0.206922 0.026958
v 0.082165 0.160669 -0.011062
v -0.001990 0.201969 -0.073903
v 0.070769 0.193780 -0.011984
v 0.052871 0.195218 -0.060320
v -0.058497 0.201818 -0.002000
v -0.047402 0.203456 -0.053514
v -0.033841 0.200143 0.039985
v 0.012172 0.199993 0.057634
v 0.057120 0.198543 0.041591
v 0.002442 0.240169 -0.062304
v 0.058350 0.230087 -0.014219
v 0.053469 0.213753 -0.056418
v -0.038159 0.235565 -0.007779
v -0.039816 0.222883 -0.051498
v -0.024050 0.214990 0.030184
v 0.014905 0.234214 0.037299
v 0.053248 0.217228 0.039301
v 0.005314 0.192903 -0.006192
v 0.026580 0.136617 -0.004791
v -0.002262 0.137982 -0.030423
v -0.030271 0.142540 -0.000148
v 0.002792 0.140810 0.026425
v 0.018050 -0.067253 0.002434
v -0.003892 -0.066726 -0.016990
v -0.025260 -0.064385 0.006066
v -0.000104 -0.065082 0.026197
v 0.031370 -0.044793 -0.001179
v 0.002689 -0.040599 0.036406
v -0.037108 -0.039035 0.004493
v -0.003346 -0.043578 -0.031970
v 0.017847 0.117326 -0.007467
v 0.009094 0.119450 0.013287
v -0.013007 0.120805 0.003244
v -0.001781 0.118452 -0.017592
vt 0.209279 0.351296
vt 0.209279 0.351296
vt 0.209279 0.351296
vt 0.209279 0.351296
vt 0.209279 0.351296
vt 0.209279 0.351296
vt 0.209279 0.351296
vt 0.209279 0.351296
vt 0.209279 0.351296
vt 0.209279 0.351296
vt 0.209279 0.351296
vt 0.209279 0.351296
vt 0.209279 0.351296
vt 0.209279 0.351296
vt 0.209279 0.351296
vt 0.209279 0.351296
vt 0.209279 0.351296
vt 0.209279 0.351296
vt 0.209279 0.351296
vt 0.209279 0.351296
vt 0.209279 0.351296
vt 0.209279 0.351296
vt 0.209279 0.351296
vt 0.209279 0.351296
vt 0.209279 0.351296
vt 0.209279 0.351296
vt 0.209279 0.351296
vt 0.209279 0.351296
vt 0.209279 0.351296
vt 0.209279 0.351296
vt 0.209279 0.351296
vt 0.209279 0.351296
vt 0.209279 0.351296
vt 0.209279 0.351296
vt 0.209279 0.351296
vt 0.209279 0.351296
vt 0.209279 0.351296
vt 0.209279 0.351296
vt 0.209279 0.351296
vt 0.209279 0.351296
vt 0.209279 0.351296
vt 0.209279 0.351296
vt 0.209279 0.351296
vt 0.209279 0.351296
vt 0.209279 0.351296
vt 0.209279 0.351296
vt 0.209279 0.351296
vt 0.209279 0.351296
vt 0.155333 0.302412
vt 0.155333 0.302412
vt 0.155333 0.302412
vt 0.155333 0.302412
vt 0.155333 0.302412
vt 0.155333 0.302412
vt 0.155333 0.302412
vt 0.155333 0.302412
vt 0.155333 0.302412
vt 0.155333 0.302412
vt 0.155333 0.302412
vt 0.155333 0.302412
vt 0.155333 0.302412
vt 0.155333 0.302412
vt 0.155333 0.302412
vt 0.155333 0.302412
vn 0.260611 -0.306835 0.915388
vn 0.260611 -0.306835 0.915387
vn 0.260611 -0.306835 0.915387
vn 0.356052 -0.444228 0.822124
vn 0.356052 -0.444228 0.822124
vn 0.356052 -0.444228 0.822124
vn 0.204691 -0.545827 -0.812511
vn 0.204691 -0.545827 -0.812511
vn 0.204691 -0.545827 -0.812511
vn 0.453720 -0.418765 -0.786622
vn 0.453720 -0.418765 -0.786622
vn 0.453719 -0.418765 -0.786622
vn 0.788549 -0.500580 -0.357225
vn 0.788549 -0.500580 -0.357225
vn 0.788549 -0.500580 -0.357224
vn 0.775973 -0.514342 -0.365129
vn 0.775973 -0.514342 -0.365129
vn 0.775973 -0.514342 -0.365129
vn -0.955297 -0.140531 -0.260112
vn -0.955297 -0.140531 -0.260112
vn -0.955297 -0.140531 -0.260112
vn -0.758171 -0.510230 -0.406008
vn -0.758171 -0.510230 -0.406008
vn -0.758171 -0.510230 -0.406008
vn -0.279609 -0.168190 0.945268
vn -0.279609 -0.168190 0.945268
vn -0.279609 -0.168190 0.945268
vn -0.433821 -0.468576 0.769569
vn -0.433821 -0.468576 0.769569
vn -0.433821 -0.468576 0.769569
vn -0.438709 -0.232550 -0.868018
vn -0.438709 -0.232550 -0.868018
vn -0.438709 -0.232550 -0.868018
vn -0.435781 -0.227188 -0.870908
vn -0.435781 -0.227188 -0.870908
vn -0.435781 -0.227188 -0.870908
vn -0.874894 -0.242058 0.419485
vn -0.874894 -0.242058 0.419485
vn -0.874894 -0.242058 0.419485
vn -0.871118 -0.249167 0.423165
vn -0.871118 -0.249167 0.423165
vn -0.871118 -0.249167 0.423165
vn 0.593978 -0.775161 0.215209
vn 0.593978 -0.775161 0.215209
vn 0.593978 -0.775161 0.215209
vn 0.539380 -0.437602 0.719426
vn 0.539380 -0.437602 0.719426
vn 0.539380 -0.437602 0.719426
vn -0.268126 0.960453 0.075090
vn -0.268126 0.960453 0.075090
vn -0.268126 0.960453 0.075090
vn -0.164765 0.982196 0.090239
vn -0.164765 0.982196 0.090239
vn -0.164765 0.982196 0.090239
vn 0.052887 0.901124 0.430323
vn 0.052887 0.901124 0.430323
vn 0.052887 0.901124 0.430323
vn -0.001577 0.892928 0.450196
vn -0.001577 0.892928 0.450196
vn -0.001577 0.892928 0.450196
vn 0.113833 0.852051 0.510932
vn 0.113833 0.852051 0.510931
vn 0.113833 0.852051 0.510932
vn 0.058811 0.996563 0.058331
vn 0.058811 0.996564 0.058331
vn 0.058811 0.996563 0.058331
vn 0.558015 0.829830 0.001179
vn 0.558015 0.829830 0.001179
vn 0.558015 0.829830 0.001179
vn 0.067895 0.996617 0.046306
vn 0.067895 0.996617 0.046306
vn 0.067895 0.996617 0.046306
vn 0.019842 0.897761 -0.440037
vn 0.019842 0.897761 -0.440037
vn 0.019842 0.897761 -0.440037
vn 0.188940 0.853670 -0.485334
vn 0.188940 0.853670 -0.485334
vn 0.188940 0.853670 -0.485334
vn 0.588543 0.799837 -0.117803
vn 0.588543 0.799837 -0.117803
vn 0.588543 0.799837 -0.117803
vn 0.305600 0.941525 -0.141913
vn 0.305600 0.941525 -0.141913
vn 0.305600 0.941525 -0.141913
vn -0.083078 0.803733 -0.589161
vn -0.083078 0.803733 -0.589161
vn -0.083078 0.803733 -0.589161
vn -0.134160 0.880093 -0.455452
vn -0.134160 0.880093 -0.455452
vn -0.134160 0.880093 -0.455452
vn -0.190089 0.885841 -0.423262
vn -0.190089 0.885841 -0.423262
vn -0.190089 0.885841 -0.423262
vn -0.140058 0.982471 -0.123022
vn -0.140058 0.982471 -0.123022
vn -0.140058 0.982471 -0.123022
vn 0.937338 0.042565 -0.345811
vn 0.937338 0.042565 -0.345811
vn 0.937338 0.042565 -0.345811
vn 0.926192 0.303000 -0.224407
vn 0.926192 0.303000 -0.224407
vn 0.926192 0.303000 -0.224407
vn 0.257980 0.191074 -0.947068
vn 0.257980 0.191074 -0.947068
vn 0.257980 0.191074 -0.947068
vn 0.240677 0.256312 -0.936151
vn 0.240677 0.256312 -0.936151
vn 0.240677 0.256312 -0.936151
vn -0.390471 0.244564 -0.887536
vn -0.390471 0.244564 -0.887536
vn -0.390471 0.244564 -0.887536
vn -0.352328 0.309084 -0.883364
vn -0.352328 0.309084 -0.883364
vn -0.352328 0.309084 -0.883364
vn -0.856692 0.487349 -0.169027
vn -0.856692 0.487349 -0.169027
vn -0.856692 0.487349 -0.169027
vn -0.926538 0.369248 -0.071992
vn -0.926538 0.369248 -0.071992
vn -0.926538 0.369248 -0.071992
vn -0.270808 0.648354 0.711548
vn -0.270808 0.648354 0.711548
vn -0.270808 0.648354 0.711548
vn -0.386020 0.493847 0.779168
vn -0.386020 0.493847 0.779168
vn -0.386020 0.493847 0.779168
vn -0.625769 0.672991 0.394330
vn -0.625769 0.672991 0.394330
vn -0.625769 0.672991 0.394330
vn -0.684885 0.503022 0.527163
vn -0.684885 0.503022 0.527163
vn -0.684885 0.503022 0.527163
vn 0.335734 0.182785 0.924052
vn 0.335734 0.182785 0.924052
vn 0.335734 0.182785 0.924052
vn 0.173778 0.492790 0.852619
vn 0.173778 0.492790 0.852619
vn 0.173778 0.492790 0.852619
vn 0.949031 0.223844 0.221888
vn 0.949031 0.223844 0.221888
vn 0.949031 0.223844 0.221888
vn 0.929607 0.328291 0.167498
vn 0.929607 0.328291 0.167498
vn 0.929607 0.328291 0.167498
vn -0.581638 0.778985 -0.234265
vn -0.581638 0.778985 -0.234265
vn -0.581638 0.778985 -0.234265
vn 0.310798 0.734720 0.602985
vn 0.310798 0.734720 0.602985
vn 0.310798 0.734720 0.602985
vn -0.143968 0.753206 0.641837
vn -0.143968 0.753206 0.641837
vn -0.143968 0.753206 0.641837
vn 0.686429 0.691027 -0.226488
vn 0.686429 0.691027 -0.226488
vn 0.686429 0.691027 -0.226488
vn -0.243225 0.729477 -0.639301
vn -0.243225 0.729477 -0.639301
vn -0.243225 0.729477 -0.639301
vn 0.692322 0.710209 0.127647
vn 0.692322 0.710209 0.127647
vn 0.692322 0.710209 0.127647
vn 0.323622 0.649351 -0.688195
vn 0.323622 0.649351 -0.688195
vn 0.323622 0.649351 -0.688195
vn -0.553336 0.820352 0.144367
vn -0.553336 0.820352 0.144367
vn -0.553336 0.820352 0.144367
vn 0.075889 -0.902958 -0.422974
vn 0.075889 -0.902958 -0.422974
vn 0.075889 -0.902958 -0.422974
vn 0.375449 -0.911474 -0.168088
vn 0.375449 -0.911474 -0.168088
vn 0.375449 -0.911474 -0.168088
vn 0.191494 -0.944818 -0.265799
vn 0.191493 -0.944818 -0.265799
vn 0.191494 -0.944818 -0.265799
vn -0.265021 -0.877932 -0.398746
vn -0.265021 -0.877932 -0.398746
vn -0.265021 -0.877933 -0.398746
vn -0.369674 -0.906135 -0.205572
vn -0.369674 -0.906135 -0.205572
vn -0.369674 -0.906135 -0.205572
vn -0.526446 -0.844622 -0.097308
vn -0.526446 -0.844622 -0.097308
vn -0.526446 -0.844622 -0.097308
vn -0.188611 -0.838600 0.511054
vn -0.188611 -0.838600 0.511054
vn -0.188611 -0.838600 0.511054
vn -0.498907 -0.829344 0.251555
vn -0.498907 -0.829344 0.251555
vn -0.498907 -0.829345 0.251555
vn -0.319253 -0.884720 0.339629
vn -0.319253 -0.884720 0.339629
vn -0.319253 -0.884720 0.339629
vn 0.407452 -0.897215 0.170257
vn 0.407452 -0.897215 0.170257
vn 0.407452 -0.897215 0.170257
vn 0.156506 -0.864794 0.477114
vn 0.156506 -0.864794 0.477114
vn 0.156506 -0.864794 0.477114
vn 0.238647 -0.921740 0.305685
vn 0.238647 -0.921740 0.305685
vn 0.238647 -0.921740 0.305685
vn 0.630281 -0.285653 -0.721906
vn 0.630281 -0.285653 -0.721906
vn 0.630281 -0.285653 -0.721906
vn 0.631559 -0.284718 -0.721158
vn 0.631559 -0.284718 -0.721158
vn 0.631559 -0.284718 -0.721158
vn -0.735166 -0.139952 -0.663283
vn -0.735166 -0.139952 -0.663283
vn -0.735166 -0.139952 -0.663283
vn -0.733373 -0.138168 -0.665638
vn -0.733373 -0.138168 -0.665638
vn -0.733373 -0.138168 -0.665638
vn -0.626000 -0.050322 0.778198
vn -0.626000 -0.050322 0.778198
vn -0.626000 -0.050322 0.778198
vn -0.624890 -0.049248 0.779158
vn -0.624890 -0.049248 0.779158
vn -0.624890 -0.049248 0.779158
vn 0.766326 -0.207719 0.607945
vn 0.766326 -0.207719 0.607945
vn 0.766326 -0.207719 0.607945
vn 0.768422 -0.206051 0.605864
vn 0.768422 -0.206051 0.605864
vn 0.768422 -0.206051 0.605864
vn -0.062392 -0.997106 0.043430
vn -0.062392 -0.997106 0.043430
vn -0.062392 -0.997106 0.043430
vn -0.062395 -0.997106 0.043430
vn -0.062395 -0.997106 0.043430
vn -0.062395 -0.997106 0.043430
vn 0.921532 0.075258 0.380940
vn 0.921532 0.075258 0.380940
vn 0.921532 0.075258 0.380940
vn 0.796564 0.043499 0.602987
vn 0.796564 0.043499 0.602987
vn 0.796564 0.043499 0.602987
vn -0.375254 0.321993 0.869198
vn -0.375254 0.321993 0.869198
vn -0.375254 0.321993 0.869198
vn -0.596585 0.266421 0.757038
vn -0.596585 0.266421 0.757038
vn -0.596585 0.266421 0.757038
vn -0.864782 0.141272 -0.481865
vn -0.864782 0.141272 -0.481866
vn -0.864782 0.141272 -0.481866
vn -0.707407 0.195154 -0.679331
vn -0.707407 0.195154 -0.679331
vn -0.707407 0.195154 -0.679331
vn 0.459085 0.016066 -0.888247
vn 0.459085 0.016066 -0.888247
vn 0.459085 0.016066 -0.888247
vn 0.660325 -0.073243 -0.747400
vn 0.660325 -0.073243 -0.747400
vn 0.660325 -0.073243 -0.747400
vn 0.787654 -0.079738 0.610936
vn 0.787654 -0.079738 0.610936
vn 0.787654 -0.079738 0.610936
vn 0.899872 -0.178814 0.397813
vn 0.899872 -0.178814 0.397813
vn 0.899872 -0.178814 0.397813
vn -0.626859 -0.086328 0.774336
vn -0.626858 -0.086328 0.774336
vn -0.626858 -0.086328 0.774336
vn -0.415897 -0.187020 0.889974
vn -0.415897 -0.187020 0.889974
vn -0.415897 -0.187020 0.889974
vn -0.734893 -0.188375 -0.651496
vn -0.734893 -0.188375 -0.651496
vn -0.734893 -0.188375 -0.651496
vn -0.881604 -0.057334 -0.468496
vn -0.881604 -0.057334 -0.468495
vn -0.881604 -0.057334 -0.468495
vn 0.649171 -0.176604 -0.739857
vn 0.649171 -0.176604 -0.739857
vn 0.649170 -0.176604 -0.739857
vn 0.455405 -0.052496 -0.888736
vn 0.455405 -0.052496 -0.888736
vn 0.455405 -0.052496 -0.888736
s off
f 10/1/1 11/2/2 4/4/3
f 4/4/4 11/2/5 2/3/6
f 12/5/7 9/6/8 8/8/9
f 8/8/10 9/6/11 6/7/12
f 15/9/13 16/10/14 6/12/15
f 6/12/16 16/10/17 8/11/18
f 7/13/19 13/14/20 5/16/21
f 5/16/22 13/14/23 14/15/24
f 1/17/25 11/2/26 3/18/27
f 3/18/28 11/2/29 10/1/30
f 9/6/31 12/5/32 5/19/33
f 5/19/34 12/5/35 7/20/36
f 14/15/37 13/14/38 3/18/39
f 3/18/40 13/14/41 1/17/42
f 16/10/43 15/9/44 2/3/45
f 2/3/46 15/9/47 4/4/48
f 15/21/49 6/7/50 18/23/51
f 18/23/52 6/7/53 19/22/54
f 6/7/55 9/6/56 19/22/57
f 19/22/58 9/6/59 17/24/60
f 9/6/61 5/19/62 17/24/63
f 17/24/64 5/19/65 21/25/66
f 14/26/67 20/27/68 5/19/69
f 5/19/70 20/27/71 21/25/72
f 3/18/73 10/1/74 22/29/75
f 22/29/76 10/1/77 23/28/78
f 14/26/79 3/18/80 20/27/81
f 20/27/82 3/18/83 22/29/84
f 10/1/85 4/4/86 23/28/87
f 23/28/88 4/4/89 24/30/90
f 4/4/91 15/21/92 24/30/93
f 24/30/94 15/21/95 18/23/96
f 19/22/97 27/31/98 18/23/99
f 18/23/100 27/31/101 26/32/102
f 19/22/103 17/24/104 27/31/105
f 27/31/106 17/24/107 25/33/108
f 21/25/109 29/34/110 17/24/111
f 17/24/112 29/34/113 25/33/114
f 20/27/115 28/35/116 21/25/117
f 21/25/118 28/35/119 29/34/120
f 22/29/121 23/28/122 30/37/123
f 30/37/124 23/28/125 31/36/126
f 22/29/127 30/37/128 20/27/129
f 20/27/130 30/37/131 28/35/132
f 24/30/133 32/38/134 23/28/135
f 23/28/136 32/38/137 31/36/138
f 24/30/139 18/23/140 32/38/141
f 32/38/142 18/23/143 26/32/144
f 26/32/145 27/31/146 33/39/147
f 27/31/148 25/33/149 33/39/150
f 25/33/151 29/34/152 33/39/153
f 29/34/154 28/35/155 33/39/156
f 30/37/157 31/36/158 33/39/159
f 28/35/160 30/37/161 33/39/162
f 31/36/163 32/38/164 33/39/165
f 32/38/166 26/32/167 33/39/168
f 12/5/169 8/8/170 35/40/171
f 16/41/172 34/42/173 8/8/174
f 8/8/175 34/42/176 35/40/177
f 12/5/178 35/40/179 7/20/180
f 7/20/181 35/40/182 36/43/183
f 13/44/184 7/20/185 36/43/186
f 11/45/187 1/46/188 37/47/189
f 13/44/190 36/43/191 1/46/192
f 1/46/193 36/43/194 37/47/195
f 16/41/196 2/48/197 34/42/198
f 11/45/199 37/47/200 2/48/201
f 2/48/202 37/47/203 34/42/204
f 42/50/205 38/51/206 45/49/207
f 45/49/208 38/51/209 39/52/210
f 45/49/211 39/52/212 44/53/213
f 44/53/214 39/52/215 40/54/216
f 43/55/217 44/53/218 41/56/219
f 41/56/220 44/53/221 40/54/222
f 42/50/223 43/55/224 38/51/225
f 38/51/226 43/55/227 41/56/228
f 38/51/229 41/56/230 39/52/231
f 39/52/232 41/56/233 40/54/234
f 46/57/235 47/58/236 42/50/237
f 42/50/238 47/58/239 43/55/240
f 47/58/241 48/59/242 43/55/243
f 43/55/244 48/59/245 44/53/246
f 49/60/247 45/49/248 48/59/249
f 48/59/250 45/49/251 44/53/252
f 49/60/253 46/57/254 45/49/255
f 45/49/256 46/57/257 42/50/258
f 37/62/259 47/58/260 34/61/261
f 34/61/262 47/58/263 46/57/264
f 36/63/265 48/59/266 37/62/267
f 37/62/268 48/59/269 47/58/270
f 36/63/271 35/64/272 48/59/273
f 48/59/274 35/64/275 49/60/276
f 35/64/277 34/61/278 49/60/279
f 49/60/280 34/61/281 46/57/282
