# This file uses centimeters as units for non-parametric coordinates.

v -115.608292 0.000000 -162.785278
v -135.866959 0.000000 -146.302719
v -153.800919 0.000000 -127.316879
v -169.103302 0.000000 -106.152618
v -181.512283 0.000000 -83.172058
v -190.815521 0.000000 -58.768394
v -196.853867 0.000000 -33.359184
v -199.523972 0.000000 -7.379199
v -198.780212 0.000000 18.727045
v -194.635208 0.000000 44.512859
v -187.159973 0.000000 69.537041
v -176.482376 0.000000 93.371414
v -162.785110 0.000000 115.608185
v -146.302536 0.000000 135.866867
v -127.316727 0.000000 153.800827
v -106.152451 0.000000 169.103195
v -83.171906 0.000000 181.512177
v -58.768234 0.000000 190.815414
v -33.359039 0.000000 196.853760
v -7.379051 0.000000 199.523880
v 18.727177 0.000000 198.780090
v 44.512978 0.000000 194.635101
v 69.537155 0.000000 187.159851
v 93.371529 0.000000 176.482239
v 115.608284 0.000000 162.784988
v 135.866943 0.000000 146.302429
v 153.800903 0.000000 127.316582
v 169.103271 0.000000 106.152313
v 181.512238 0.000000 83.171768
v 190.815491 0.000000 58.768124
v 196.853836 0.000000 33.358932
v 199.523926 0.000000 7.378963
v 198.780121 0.000000 -18.727259
v 194.635147 0.000000 -44.513054
v 187.159897 0.000000 -69.537216
v 176.482285 0.000000 -93.371574
v 162.785034 0.000000 -115.608322
v 146.302475 0.000000 -135.866974
v 127.316635 0.000000 -153.800919
v 106.152397 0.000000 -169.103271
v 83.171867 0.000000 -181.512238
v 58.768215 0.000000 -190.815491
v 33.359039 0.000000 -196.853821
v 7.379078 0.000000 -199.523926
v -18.727137 0.000000 -198.780121
v -44.512917 0.000000 -194.635147
v -69.537064 0.000000 -187.159912
v -93.371422 0.000000 -176.482300
v -115.608292 34.118652 -162.785278
v -135.866959 34.118652 -146.302719
v -153.800919 34.118652 -127.316879
v -169.103302 34.118652 -106.152618
v -181.512283 34.118652 -83.172058
v -190.815521 34.118652 -58.768394
v -196.853867 34.118652 -33.359184
v -199.523972 34.118652 -7.379199
v -198.780212 34.118652 18.727045
v -194.635208 34.118652 44.512859
v -187.159973 34.118652 69.537041
v -176.482376 34.118652 93.371414
v -162.785110 34.118652 115.608185
v -146.302536 34.118652 135.866867
v -127.316727 34.118652 153.800827
v -106.152451 34.118652 169.103195
v -83.171906 34.118652 181.512177
v -58.768234 34.118652 190.815414
v -33.359039 34.118652 196.853760
v -7.379051 34.118652 199.523880
v 18.727177 34.118652 198.780090
v 44.512978 34.118652 194.635101
v 69.537155 34.118652 187.159851
v 93.371529 34.118652 176.482239
v 115.608284 34.118652 162.784988
v 135.866943 34.118652 146.302429
v 153.800903 34.118652 127.316582
v 169.103271 34.118652 106.152313
v 181.512238 34.118652 83.171768
v 190.815491 34.118652 58.768124
v 196.853836 34.118652 33.358932
v 199.523926 34.118652 7.378963
v 198.780121 34.118652 -18.727259
v 194.635147 34.118652 -44.513054
v 187.159897 34.118652 -69.537216
v 176.482285 34.118652 -93.371574
v 162.785034 34.118652 -115.608322
v 146.302475 34.118652 -135.866974
v 127.316635 34.118652 -153.800919
v 106.152397 34.118652 -169.103271
v 83.171867 34.118652 -181.512238
v 58.768215 34.118652 -190.815491
v 33.359039 34.118652 -196.853821
v 7.379078 34.118652 -199.523926
v -18.727137 34.118652 -198.780121
v -44.512917 34.118652 -194.635147
v -69.537064 34.118652 -187.159912
v -93.371422 34.118652 -176.482300
vt -3.119359 0.520505
vt -3.119359 0.734638
vt -2.968551 0.734638
vt -2.968551 0.520505
vt -2.817744 0.734638
vt -2.817744 0.520505
vt -2.666937 0.734638
vt -2.666937 0.520505
vt -2.516130 0.734638
vt -2.516130 0.520505
vt -2.365323 0.734638
vt -2.365323 0.520505
vt -2.214516 0.734638
vt -2.214516 0.520505
vt -2.063709 0.734638
vt -2.063709 0.520505
vt -1.912902 0.734638
vt -1.912902 0.520505
vt -1.762095 0.734638
vt -1.762095 0.520505
vt -1.611288 0.734638
vt -1.611288 0.520505
vt -1.460481 0.734638
vt -1.460481 0.520505
vt -1.309674 0.734638
vt -1.309674 0.520505
vt -1.158867 0.734638
vt -1.158867 0.520505
vt -1.008060 0.734638
vt -1.008060 0.520505
vt -0.857253 0.734638
vt -0.857253 0.520505
vt -0.706446 0.734638
vt -0.706446 0.520505
vt -0.555639 0.734638
vt -0.555639 0.520505
vt -0.404832 0.734638
vt -0.404832 0.520505
vt -0.254025 0.734638
vt -0.254025 0.520505
vt -0.103218 0.734638
vt -0.103218 0.520505
vt 0.047589 0.734638
vt 0.047589 0.520505
vt 0.198396 0.734638
vt 0.198396 0.520505
vt 0.349203 0.734638
vt 0.349203 0.520505
vt 0.500010 0.734638
vt 0.500010 0.520505
vt 0.650816 0.734638
vt 0.650816 0.520505
vt 0.801622 0.734638
vt 0.801622 0.520505
vt 0.952429 0.734638
vt 0.952429 0.520505
vt 1.103235 0.734638
vt 1.103235 0.520505
vt 1.254041 0.734638
vt 1.254041 0.520505
vt 1.404847 0.734638
vt 1.404847 0.520505
vt 1.555653 0.734638
vt 1.555653 0.520505
vt 1.706460 0.734638
vt 1.706460 0.520505
vt 1.857266 0.734638
vt 1.857266 0.520505
vt 2.008072 0.734638
vt 2.008072 0.520505
vt 2.158878 0.734638
vt 2.158878 0.520505
vt 2.309684 0.734638
vt 2.309684 0.520505
vt 2.460491 0.734638
vt 2.460491 0.520505
vt 2.611297 0.734638
vt 2.611297 0.520505
vt 2.762103 0.734638
vt 2.762103 0.520505
vt 2.912909 0.734638
vt 2.912909 0.520505
vt 3.063715 0.734638
vt 3.063715 0.520505
vt 3.214521 0.734638
vt 3.214521 0.520505
vt 3.365327 0.734638
vt 3.365327 0.520505
vt 3.516134 0.734638
vt 3.516134 0.520505
vt 3.666940 0.734638
vt 3.666940 0.520505
vt 3.817746 0.734638
vt 3.817746 0.520505
vt 3.968552 0.734638
vt 3.968552 0.520505
vt 4.119358 0.734638
vt 4.119358 0.520505
vn 0.579021 0.000000 0.815313
vn 0.579021 0.000000 0.815313
vn 0.680490 0.000000 0.732757
vn 0.680490 0.000000 0.732757
vn 0.770313 0.000000 0.637667
vn 0.770313 0.000000 0.637667
vn 0.846955 0.000000 0.531665
vn 0.846955 0.000000 0.531665
vn 0.909105 0.000000 0.416567
vn 0.909105 0.000000 0.416567
vn 0.955701 0.000000 0.294341
vn 0.955701 0.000000 0.294341
vn 0.985944 0.000000 0.167079
vn 0.985944 0.000000 0.167079
vn 0.999317 0.000000 0.036959
vn 0.999317 0.000000 0.036959
vn 0.995592 0.000000 -0.093795
vn 0.995592 0.000000 -0.093795
vn 0.974831 0.000000 -0.222944
vn 0.974831 0.000000 -0.222944
vn 0.937392 0.000000 -0.348277
vn 0.937392 0.000000 -0.348277
vn 0.883913 0.000000 -0.467652
vn 0.883913 0.000000 -0.467652
vn 0.815310 0.000000 -0.579025
vn 0.815310 0.000000 -0.579025
vn 0.732757 0.000000 -0.680490
vn 0.732757 0.000000 -0.680490
vn 0.637667 0.000000 -0.770313
vn 0.637667 0.000000 -0.770313
vn 0.531665 0.000000 -0.846955
vn 0.531665 0.000000 -0.846955
vn 0.416567 0.000000 -0.909105
vn 0.416567 0.000000 -0.909105
vn 0.294341 0.000000 -0.955701
vn 0.294341 0.000000 -0.955701
vn 0.167079 0.000000 -0.985943
vn 0.167079 0.000000 -0.985943
vn 0.036958 0.000000 -0.999317
vn 0.036958 0.000000 -0.999317
vn -0.093795 0.000000 -0.995592
vn -0.093795 0.000000 -0.995592
vn -0.222944 0.000000 -0.974831
vn -0.222944 0.000000 -0.974831
vn -0.348278 0.000000 -0.937391
vn -0.348278 0.000000 -0.937391
vn -0.467652 0.000000 -0.883913
vn -0.467652 0.000000 -0.883913
vn -0.579025 0.000000 -0.815310
vn -0.579025 0.000000 -0.815310
vn -0.680491 0.000000 -0.732757
vn -0.680491 0.000000 -0.732757
vn -0.770313 0.000000 -0.637666
vn -0.770313 0.000000 -0.637666
vn -0.846955 0.000000 -0.531665
vn -0.846955 0.000000 -0.531665
vn -0.909105 0.000000 -0.416567
vn -0.909105 0.000000 -0.416567
vn -0.955700 0.000000 -0.294341
vn -0.955700 0.000000 -0.294341
vn -0.985944 0.000000 -0.167079
vn -0.985944 0.000000 -0.167079
vn -0.999317 0.000000 -0.036957
vn -0.999317 0.000000 -0.036957
vn -0.995592 0.000000 0.093795
vn -0.995592 0.000000 0.093795
vn -0.974831 0.000000 0.222944
vn -0.974831 0.000000 0.222944
vn -0.937391 0.000000 0.348278
vn -0.937391 0.000000 0.348278
vn -0.883913 0.000000 0.467652
vn -0.883913 0.000000 0.467652
vn -0.815310 0.000000 0.579025
vn -0.815310 0.000000 0.579025
vn -0.732757 0.000000 0.680491
vn -0.732757 0.000000 0.680491
vn -0.637666 0.000000 0.770313
vn -0.637666 0.000000 0.770313
vn -0.531665 0.000000 0.846955
vn -0.531665 0.000000 0.846955
vn -0.416567 0.000000 0.909105
vn -0.416567 0.000000 0.909105
vn -0.294341 0.000000 0.955701
vn -0.294341 0.000000 0.955701
vn -0.167079 0.000000 0.985944
vn -0.167079 0.000000 0.985944
vn -0.036958 0.000000 0.999317
vn -0.036958 0.000000 0.999317
vn 0.093795 0.000000 0.995592
vn 0.093795 0.000000 0.995592
vn 0.222943 0.000000 0.974831
vn 0.222943 0.000000 0.974831
vn 0.348278 0.000000 0.937392
vn 0.348278 0.000000 0.937392
vn 0.467648 0.000000 0.883915
vn 0.467648 0.000000 0.883915
s 1
f 1/1/1 49/2/2 50/3/3 2/4/4
f 2/4/4 50/3/3 51/5/5 3/6/6
f 3/6/6 51/5/5 52/7/7 4/8/8
f 4/8/8 52/7/7 53/9/9 5/10/10
f 5/10/10 53/9/9 54/11/11 6/12/12
f 6/12/12 54/11/11 55/13/13 7/14/14
f 7/14/14 55/13/13 56/15/15 8/16/16
f 8/16/16 56/15/15 57/17/17 9/18/18
f 9/18/18 57/17/17 58/19/19 10/20/20
f 10/20/20 58/19/19 59/21/21 11/22/22
f 11/22/22 59/21/21 60/23/23 12/24/24
f 12/24/24 60/23/23 61/25/25 13/26/26
f 13/26/26 61/25/25 62/27/27 14/28/28
f 14/28/28 62/27/27 63/29/29 15/30/30
f 15/30/30 63/29/29 64/31/31 16/32/32
f 16/32/32 64/31/31 65/33/33 17/34/34
f 17/34/34 65/33/33 66/35/35 18/36/36
f 18/36/36 66/35/35 67/37/37 19/38/38
f 19/38/38 67/37/37 68/39/39 20/40/40
f 20/40/40 68/39/39 69/41/41 21/42/42
f 21/42/42 69/41/41 70/43/43 22/44/44
f 22/44/44 70/43/43 71/45/45 23/46/46
f 23/46/46 71/45/45 72/47/47 24/48/48
f 24/48/48 72/47/47 73/49/49 25/50/50
f 25/50/50 73/49/49 74/51/51 26/52/52
f 26/52/52 74/51/51 75/53/53 27/54/54
f 27/54/54 75/53/53 76/55/55 28/56/56
f 28/56/56 76/55/55 77/57/57 29/58/58
f 29/58/58 77/57/57 78/59/59 30/60/60
f 30/60/60 78/59/59 79/61/61 31/62/62
f 31/62/62 79/61/61 80/63/63 32/64/64
f 32/64/64 80/63/63 81/65/65 33/66/66
f 33/66/66 81/65/65 82/67/67 34/68/68
f 34/68/68 82/67/67 83/69/69 35/70/70
f 35/70/70 83/69/69 84/71/71 36/72/72
f 36/72/72 84/71/71 85/73/73 37/74/74
f 37/74/74 85/73/73 86/75/75 38/76/76
f 38/76/76 86/75/75 87/77/77 39/78/78
f 39/78/78 87/77/77 88/79/79 40/80/80
f 40/80/80 88/79/79 89/81/81 41/82/82
f 41/82/82 89/81/81 90/83/83 42/84/84
f 42/84/84 90/83/83 91/85/85 43/86/86
f 43/86/86 91/85/85 92/87/87 44/88/88
f 44/88/88 92/87/87 93/89/89 45/90/90
f 45/90/90 93/89/89 94/91/91 46/92/92
f 46/92/92 94/91/91 95/93/93 47/94/94
f 47/94/94 95/93/93 96/95/95 48/96/96
f 48/96/96 96/95/95 49/97/2 1/98/1
