# This file uses centimeters as units for non-parametric coordinates.

v -1.250000 0.087735 -5.000000
v -3.750000 0.087735 -5.000000
v -1.250000 0.087735 0.000000
v -3.750000 0.087735 0.000000
v -3.427689 0.087735 0.000000
v -3.427689 0.087735 -5.000000
v -1.572311 0.087735 0.000000
v -1.572311 0.087735 -5.000000
v -3.750000 -0.032550 -5.000000
v -3.427689 -0.032550 -5.000000
v -3.750000 -0.032550 0.000000
v -1.250000 -0.032550 0.000000
v -1.250000 -0.032550 -5.000000
v -1.572311 -0.032550 0.000000
v -3.427689 -0.032550 0.000000
v -1.572311 -0.032550 -5.000000
v -3.475647 0.137937 0.000000
v -3.696655 0.137937 0.000000
v -3.475647 0.137937 -5.000000
v -3.696655 0.137937 -5.000000
v -1.303345 0.137937 0.000000
v -1.524353 0.137937 0.000000
v -1.303345 0.137937 -5.000000
v -1.524353 0.137937 -5.000000
v -3.251999 -0.032550 0.000000
v -3.251999 0.087735 0.000000
v -3.251999 0.087735 -5.000000
v -3.251999 -0.032550 -5.000000
v -1.718323 -0.032550 0.000000
v -1.718323 0.087735 0.000000
v -1.718323 0.087735 -5.000000
v -1.718323 -0.032550 -5.000000
v -1.250000 -0.032550 -3.156284
v -1.250000 0.087735 -3.156284
v -1.303345 0.137937 -3.156284
v -1.479156 0.137937 -3.156284
v -1.572311 0.087735 -3.156284
v -1.648468 0.087735 -3.161489
v -3.143707 0.087735 -3.135691
v -3.427689 0.087735 -3.156284
v -3.475647 0.137937 -3.156284
v -3.642746 0.137937 -3.156284
v -3.750000 0.087735 -3.156284
v -3.750000 -0.032550 -3.156284
v -1.250000 -0.032550 -1.500076
v -1.250000 0.087735 -1.500076
v -1.348190 0.137937 -1.500076
v -1.524353 0.137937 -1.500076
v -1.572327 0.087735 -1.500076
v -1.775330 0.087735 -1.496017
v -3.276779 0.087735 -1.445002
v -3.427704 0.087735 -1.500076
v -3.515182 0.137937 -1.500076
v -3.674362 0.137937 -1.500076
v -3.750000 0.087735 -1.500076
v -3.750000 -0.032550 -1.500076
v -3.167099 0.087735 -4.370148
v -2.776978 0.087735 -4.408415
v -3.151535 0.113050 -4.389948
v -2.796082 0.113050 -4.424814
v -3.166962 0.113050 -4.547209
v -2.811508 0.113050 -4.582075
v -3.186066 0.087735 -4.563608
v -2.795944 0.087735 -4.601875
v -2.266907 0.087735 -3.678812
v -1.874908 0.087735 -3.678812
v -2.249481 0.113050 -3.696999
v -1.892334 0.113050 -3.696999
v -2.249481 0.113050 -3.855015
v -1.892334 0.113050 -3.855015
v -2.266907 0.087735 -3.873201
v -1.874908 0.087735 -3.873201
v -2.473816 0.087735 -3.150074
v -2.082169 0.087735 -3.133718
v -2.455658 0.113050 -3.167519
v -2.098816 0.113050 -3.152617
v -2.449066 0.113050 -3.325396
v -2.092224 0.113050 -3.310493
v -2.465714 0.087735 -3.344294
v -2.074066 0.087735 -3.327938
v -2.127823 0.087735 -2.799532
v -1.735825 0.087735 -2.799532
v -2.110397 0.113050 -2.817719
v -1.753250 0.113050 -2.817719
v -2.110397 0.113050 -2.975735
v -1.753250 0.113050 -2.975735
v -2.127823 0.087735 -2.993921
v -1.735825 0.087735 -2.993921
v -3.207306 0.087735 -2.345556
v -2.815308 0.087735 -2.345556
v -3.189880 0.113050 -2.363743
v -2.832733 0.113050 -2.363743
v -3.189880 0.113050 -2.521759
v -2.832733 0.113050 -2.521759
v -3.207306 0.087735 -2.539946
v -2.815308 0.087735 -2.539946
v -2.246460 0.087735 -1.151546
v -1.856339 0.087735 -1.189814
v -2.230896 0.113050 -1.171347
v -1.875443 0.113050 -1.206213
v -2.246323 0.113050 -1.328608
v -1.890869 0.113050 -1.363474
v -2.265427 0.087735 -1.345007
v -1.875305 0.087735 -1.383274
v -3.014664 0.087735 -2.020142
v -2.623016 0.087735 -2.003786
v -2.996506 0.113050 -2.037586
v -2.639664 0.113050 -2.022684
v -2.989914 0.113050 -2.195463
v -2.633072 0.113050 -2.180561
v -3.006561 0.087735 -2.214361
v -2.614914 0.087735 -2.198006
v -3.261276 0.087735 -0.196999
v -2.869278 0.087735 -0.196999
v -3.243851 0.113050 -0.215185
v -2.886703 0.113050 -0.215185
v -3.243851 0.113050 -0.373201
v -2.886703 0.113050 -0.373201
v -3.261276 0.087735 -0.391388
v -2.869278 0.087735 -0.391388
vt 0.061973 0.299430
vt 0.061973 0.299430
vt 0.061973 0.299430
vt 0.061973 0.299430
vt 0.059983 0.281522
vt 0.059983 0.281522
vt 0.059983 0.281522
vt 0.059983 0.281522
vt 0.061973 0.299430
vt 0.061973 0.299430
vt 0.061973 0.299430
vt 0.061973 0.299430
vt 0.061973 0.299430
vt 0.061973 0.299430
vt 0.061973 0.299430
vt 0.061973 0.299430
vt 0.061973 0.299430
vt 0.061973 0.299430
vt 0.061973 0.299430
vt 0.061973 0.299430
vt 0.061973 0.299430
vt 0.061973 0.299430
vt 0.061973 0.299430
vt 0.061973 0.299430
vt 0.061973 0.299430
vt 0.061973 0.299430
vt 0.061973 0.299430
vt 0.061973 0.299430
vt 0.061973 0.299430
vt 0.061973 0.299430
vt 0.061973 0.299430
vt 0.061973 0.299430
vt 0.061973 0.299430
vt 0.061973 0.299430
vt 0.061973 0.299430
vt 0.061973 0.299430
vt 0.061973 0.299430
vt 0.061973 0.299430
vt 0.061973 0.299430
vt 0.061973 0.299430
vt 0.061973 0.299430
vt 0.061973 0.299430
vt 0.061973 0.299430
vt 0.061973 0.299430
vt 0.061973 0.299430
vt 0.061973 0.299430
vt 0.061973 0.299430
vt 0.061973 0.299430
vt 0.061973 0.299430
vt 0.061973 0.299430
vt 0.061973 0.299430
vt 0.061973 0.299430
vt 0.061973 0.299430
vt 0.061973 0.299430
vt 0.061973 0.299430
vt 0.061973 0.299430
vt 0.061973 0.299430
vt 0.061973 0.299430
vt 0.061973 0.299430
vt 0.061973 0.299430
vt 0.061973 0.299430
vt 0.061973 0.299430
vt 0.061973 0.299430
vt 0.061973 0.299430
vt 0.061973 0.299430
vt 0.061973 0.299430
vt 0.061973 0.299430
vt 0.061973 0.299430
vt 0.061973 0.299430
vt 0.061973 0.299430
vt 0.058789 0.276349
vt 0.058789 0.276349
vt 0.058789 0.276349
vt 0.058789 0.276349
vt 0.061973 0.299430
vt 0.061973 0.299430
vt 0.061973 0.299430
vt 0.061973 0.299430
vt 0.061973 0.299430
vt 0.061973 0.299430
vt 0.061973 0.299430
vt 0.061973 0.299430
vt 0.061973 0.299430
vt 0.061973 0.299430
vt 0.058789 0.276349
vt 0.058789 0.276349
vt 0.058789 0.276349
vt 0.058789 0.276349
vt 0.061973 0.299430
vt 0.061973 0.299430
vt 0.061973 0.299430
vt 0.061973 0.299430
vt 0.059983 0.281522
vt 0.059983 0.281522
vt 0.059983 0.281522
vt 0.059983 0.281522
vt 0.061973 0.299430
vt 0.061973 0.299430
vt 0.061973 0.299430
vt 0.061973 0.299430
vt 0.061973 0.299430
vt 0.061973 0.299430
vt 0.061973 0.299430
vt 0.061973 0.299430
vt 0.058789 0.276349
vt 0.058789 0.276349
vt 0.058789 0.276349
vt 0.058789 0.276349
vt 0.059983 0.281522
vt 0.059983 0.281522
vt 0.059983 0.281522
vt 0.059983 0.281522
vt 0.057198 0.253267
vt 0.057197 0.253267
vt 0.057197 0.253268
vt 0.057198 0.253268
vt 0.057197 0.253268
vt 0.057198 0.253268
vt 0.057197 0.253267
vt 0.057198 0.253267
vt 0.057197 0.253267
vt 0.057197 0.253268
vt 0.057197 0.253267
vt 0.057197 0.253268
vt 0.057198 0.253267
vt 0.057197 0.253267
vt 0.057197 0.253268
vt 0.057198 0.253268
vt 0.057197 0.253268
vt 0.057198 0.253268
vt 0.057197 0.253267
vt 0.057198 0.253267
vt 0.057197 0.253267
vt 0.057197 0.253268
vt 0.057197 0.253267
vt 0.057197 0.253268
vt 0.058789 0.332062
vt 0.058789 0.332062
vt 0.058789 0.332062
vt 0.058789 0.332062
vt 0.058789 0.332062
vt 0.058789 0.332062
vt 0.058789 0.332062
vt 0.058789 0.332062
vt 0.058789 0.332062
vt 0.058789 0.332062
vt 0.058789 0.332062
vt 0.058789 0.332062
vt 0.057198 0.253267
vt 0.057197 0.253267
vt 0.057197 0.253268
vt 0.057198 0.253268
vt 0.057197 0.253268
vt 0.057198 0.253268
vt 0.057197 0.253267
vt 0.057198 0.253267
vt 0.057197 0.253267
vt 0.057197 0.253268
vt 0.057197 0.253267
vt 0.057197 0.253268
vt 0.057198 0.253267
vt 0.057197 0.253267
vt 0.057197 0.253268
vt 0.057198 0.253268
vt 0.057197 0.253268
vt 0.057198 0.253268
vt 0.057197 0.253267
vt 0.057198 0.253267
vt 0.057197 0.253267
vt 0.057197 0.253268
vt 0.057197 0.253267
vt 0.057197 0.253268
vt 0.057198 0.253267
vt 0.057197 0.253267
vt 0.057197 0.253268
vt 0.057198 0.253268
vt 0.057197 0.253268
vt 0.057198 0.253268
vt 0.057197 0.253267
vt 0.057198 0.253267
vt 0.057197 0.253267
vt 0.057197 0.253268
vt 0.057197 0.253267
vt 0.057197 0.253268
vt 0.059983 0.328480
vt 0.059983 0.328480
vt 0.059983 0.328480
vt 0.059983 0.328480
vt 0.059983 0.328480
vt 0.059983 0.328480
vt 0.059983 0.328480
vt 0.059983 0.328480
vt 0.059983 0.328480
vt 0.059983 0.328480
vt 0.059983 0.328480
vt 0.059983 0.328480
vt 0.058789 0.332062
vt 0.058789 0.332062
vt 0.058789 0.332062
vt 0.058789 0.332062
vt 0.058789 0.332062
vt 0.058789 0.332062
vt 0.058789 0.332062
vt 0.058789 0.332062
vt 0.058789 0.332062
vt 0.058789 0.332062
vt 0.058789 0.332062
vt 0.058789 0.332062
vn 0.000000 1.000000 -0.000000
vn 0.000000 1.000000 -0.000000
vn 0.000000 1.000000 0.000000
vn 0.000000 1.000000 0.000000
vn 0.000000 1.000000 0.000000
vn 0.000000 1.000000 0.000000
vn 0.000000 1.000000 0.000000
vn 0.000000 1.000000 0.000000
vn 0.000000 1.000000 0.000000
vn 0.000000 1.000000 0.000000
vn 0.000000 1.000000 -0.000000
vn 0.000000 1.000000 -0.000000
vn 0.000000 0.000000 -1.000000
vn 0.000000 0.000000 -1.000000
vn 0.000000 0.000000 -1.000000
vn 0.000000 0.000000 -1.000000
vn -1.000000 0.000000 0.000000
vn -1.000000 0.000000 0.000000
vn -1.000000 0.000000 0.000000
vn -1.000000 0.000000 0.000000
vn 1.000000 0.000000 0.000000
vn 1.000000 0.000000 0.000000
vn 1.000000 0.000000 0.000000
vn 1.000000 0.000000 0.000000
vn 0.000000 0.000000 1.000000
vn 0.000000 0.000000 1.000000
vn 0.000000 0.000000 1.000000
vn 0.000000 0.000000 1.000000
vn 0.000000 0.000000 1.000000
vn 0.000000 0.000000 1.000000
vn 0.000000 0.000000 1.000000
vn 0.000000 0.000000 1.000000
vn 0.000000 0.000000 -1.000000
vn -0.000000 0.000000 -1.000000
vn -0.000000 0.000000 -1.000000
vn 0.000000 0.000000 -1.000000
vn 0.000000 0.000000 1.000000
vn 0.000000 0.000000 1.000000
vn 0.000000 0.000000 1.000000
vn 0.000000 0.000000 1.000000
vn 0.000000 0.000000 -1.000000
vn 0.000000 0.000000 -1.000000
vn 0.000000 0.000000 -1.000000
vn 0.000000 0.000000 -1.000000
vn 0.000000 0.000000 1.000000
vn 0.000000 0.000000 1.000000
vn 0.000000 0.000000 1.000000
vn 0.000000 0.000000 1.000000
vn 0.595518 0.803303 -0.007851
vn 0.595537 0.803328 -0.000000
vn 0.595537 0.803328 0.000005
vn 0.595518 0.803303 -0.007851
vn 0.000000 0.000000 -1.000000
vn 0.000000 0.000000 -1.000000
vn 0.000000 0.000000 -1.000000
vn 0.000000 0.000000 -1.000000
vn -0.538103 0.842867 -0.004595
vn -0.614258 0.789092 -0.004564
vn -0.614258 0.789092 -0.004564
vn -0.537516 0.843241 -0.004595
vn 0.000000 0.000000 1.000000
vn 0.000000 0.000000 1.000000
vn 0.000000 0.000000 1.000000
vn 0.000000 0.000000 1.000000
vn 0.552322 0.833590 -0.008256
vn 0.552341 0.833618 0.000000
vn 0.552341 0.833618 0.000006
vn 0.552322 0.833590 -0.008256
vn 0.000000 0.000000 -1.000000
vn 0.000000 0.000000 -1.000000
vn 0.000000 0.000000 -1.000000
vn 0.000000 0.000000 -1.000000
vn -0.642810 0.766011 -0.004602
vn -0.723027 0.690819 0.000004
vn -0.723027 0.690819 0.000004
vn -0.642387 0.766367 -0.004625
vn 0.000000 0.000000 1.000000
vn 0.000000 0.000000 1.000000
vn 0.000000 0.000000 1.000000
vn 0.000000 0.000000 1.000000
vn 0.000000 1.000000 0.000000
vn 0.000000 1.000000 0.000000
vn 0.000000 1.000000 0.000000
vn 0.000000 1.000000 0.000000
vn -0.000000 0.000000 -1.000000
vn -0.000000 0.000000 -1.000000
vn -0.000000 0.000000 -1.000000
vn -0.000000 0.000000 -1.000000
vn 0.000000 0.000000 1.000000
vn 0.000000 0.000000 1.000000
vn 0.000000 0.000000 1.000000
vn 0.000000 0.000000 1.000000
vn 0.000000 1.000000 0.000000
vn 0.000000 1.000000 0.000000
vn 0.000000 1.000000 0.000000
vn 0.000000 1.000000 0.000000
vn -0.000000 0.000000 -1.000000
vn -0.000000 0.000000 -1.000000
vn 0.000000 0.000000 -1.000000
vn 0.000000 0.000000 -1.000000
vn 1.000000 0.000000 0.000000
vn 1.000000 0.000000 0.000000
vn 1.000000 0.000000 0.000000
vn 1.000000 0.000000 0.000000
vn 0.617032 0.786928 0.003979
vn 0.617448 0.786602 0.003956
vn 0.685332 0.728231 0.000000
vn 0.685332 0.728231 0.000000
vn 0.000000 1.000000 -0.000000
vn 0.000000 1.000000 -0.000000
vn 0.000000 1.000000 0.000000
vn 0.000000 1.000000 0.000000
vn -0.579729 0.814779 0.007106
vn -0.579724 0.814813 -0.000001
vn -0.579724 0.814813 0.000005
vn -0.579729 0.814779 0.007106
vn 0.000000 1.000000 -0.000000
vn 0.000000 1.000000 -0.000000
vn 0.000000 1.000000 0.000000
vn 0.000000 1.000000 0.000000
vn 0.000000 1.000000 -0.000000
vn 0.000000 1.000000 -0.000000
vn 0.000000 1.000000 -0.000000
vn 0.000000 1.000000 -0.000000
vn 0.000000 1.000000 0.000000
vn 0.000000 1.000000 -0.000000
vn 0.000000 1.000000 -0.000000
vn 0.000000 1.000000 -0.000000
vn 0.658587 0.752495 0.003742
vn 0.658922 0.752202 0.003723
vn 0.723081 0.690763 0.000000
vn 0.723081 0.690763 0.000000
vn 0.000000 1.000000 -0.000000
vn 0.000000 1.000000 -0.000000
vn 0.000000 1.000000 -0.000000
vn 0.000000 1.000000 -0.000000
vn -0.530098 0.847901 0.007750
vn -0.506005 0.862529 0.001612
vn -0.505932 0.862572 0.001593
vn -0.530098 0.847901 0.007750
vn -1.000000 0.000000 0.000000
vn -1.000000 0.000000 0.000000
vn -1.000000 0.000000 0.000000
vn -1.000000 0.000000 0.000000
vn 1.000000 0.000000 0.000000
vn 1.000000 0.000000 0.000000
vn 1.000000 0.000000 0.000000
vn 1.000000 0.000000 0.000000
vn 0.552341 0.833618 0.000006
vn 0.552341 0.833618 0.000000
vn 0.617448 0.786602 0.003956
vn 0.617032 0.786928 0.003979
vn 0.000000 1.000000 -0.000000
vn 0.000000 1.000000 -0.000000
vn 0.000000 1.000000 -0.000000
vn 0.000000 1.000000 -0.000000
vn -0.579724 0.814813 -0.000001
vn -0.642810 0.766011 -0.004602
vn -0.642387 0.766367 -0.004625
vn -0.579724 0.814813 0.000005
vn 0.000000 1.000000 -0.000000
vn 0.000000 1.000000 0.000000
vn 0.000000 1.000000 0.000000
vn 0.000000 1.000000 0.000000
vn 0.000000 1.000000 -0.000000
vn 0.000000 1.000000 0.000000
vn 0.000000 1.000000 0.000000
vn 0.000000 1.000000 -0.000000
vn 0.000000 1.000000 0.000000
vn 0.000000 1.000000 0.000000
vn 0.000000 1.000000 -0.000000
vn 0.000000 1.000000 0.000000
vn 0.595537 0.803328 0.000005
vn 0.595537 0.803328 -0.000000
vn 0.658922 0.752202 0.003723
vn 0.658587 0.752495 0.003742
vn 0.000000 1.000000 0.000000
vn 0.000000 1.000000 0.000000
vn 0.000000 1.000000 -0.000000
vn 0.000000 1.000000 -0.000000
vn -0.506005 0.862529 0.001612
vn -0.538103 0.842867 -0.004595
vn -0.537516 0.843241 -0.004595
vn -0.505932 0.862572 0.001593
vn -1.000000 0.000000 0.000000
vn -1.000000 0.000000 0.000000
vn -1.000000 0.000000 0.000000
vn -1.000000 0.000000 0.000000
vn 0.079284 0.583443 0.808275
vn 0.079284 0.583443 0.808275
vn 0.079284 0.583443 0.808275
vn 0.079284 0.583443 0.808275
vn 0.000000 1.000000 0.000000
vn 0.000000 1.000000 0.000000
vn 0.000000 1.000000 0.000000
vn 0.000000 1.000000 0.000000
vn -0.079284 0.583443 -0.808275
vn -0.079284 0.583443 -0.808275
vn -0.079284 0.583443 -0.808275
vn -0.079284 0.583443 -0.808275
vn 0.819910 0.566819 -0.080404
vn 0.819910 0.566819 -0.080404
vn 0.819910 0.566819 -0.080404
vn 0.819910 0.566819 -0.080404
vn -0.819914 0.566812 0.080404
vn -0.819914 0.566812 0.080404
vn -0.819914 0.566812 0.080404
vn -0.819914 0.566812 0.080404
vn 0.000000 0.583452 0.812148
vn 0.000000 0.583452 0.812148
vn 0.000000 0.583452 0.812148
vn 0.000000 0.583452 0.812148
vn 0.000000 1.000000 0.000000
vn 0.000000 1.000000 0.000000
vn 0.000000 1.000000 0.000000
vn 0.000000 1.000000 0.000000
vn 0.000000 0.583452 -0.812148
vn 0.000000 0.583452 -0.812148
vn 0.000000 0.583452 -0.812148
vn 0.000000 0.583452 -0.812148
vn 0.823718 0.567000 0.000000
vn 0.823718 0.567000 0.000000
vn 0.823718 0.567000 0.000000
vn 0.823718 0.567000 0.000000
vn -0.823716 0.567002 0.000000
vn -0.823716 0.567002 0.000000
vn -0.823716 0.567002 0.000000
vn -0.823716 0.567002 0.000000
vn -0.033886 0.583461 0.811434
vn -0.033886 0.583461 0.811434
vn -0.033886 0.583461 0.811434
vn -0.033886 0.583461 0.811434
vn 0.000000 1.000000 -0.000000
vn 0.000000 1.000000 -0.000000
vn 0.000000 1.000000 -0.000000
vn 0.000000 1.000000 -0.000000
vn 0.033886 0.583461 -0.811434
vn 0.033886 0.583461 -0.811434
vn 0.033886 0.583461 -0.811434
vn 0.033886 0.583461 -0.811434
vn 0.823115 0.566835 0.034351
vn 0.823115 0.566835 0.034351
vn 0.823115 0.566835 0.034351
vn 0.823115 0.566835 0.034351
vn -0.823117 0.566832 -0.034352
vn -0.823117 0.566832 -0.034352
vn -0.823117 0.566832 -0.034352
vn -0.823117 0.566832 -0.034352
vn 0.000000 0.583452 0.812148
vn 0.000000 0.583452 0.812148
vn 0.000000 0.583452 0.812148
vn 0.000000 0.583452 0.812148
vn 0.000000 1.000000 0.000000
vn 0.000000 1.000000 0.000000
vn 0.000000 1.000000 0.000000
vn 0.000000 1.000000 0.000000
vn 0.000000 0.583452 -0.812148
vn 0.000000 0.583452 -0.812148
vn 0.000000 0.583452 -0.812148
vn 0.000000 0.583452 -0.812148
vn 0.823714 0.567005 0.000000
vn 0.823714 0.567005 0.000000
vn 0.823714 0.567005 0.000000
vn 0.823714 0.567005 0.000000
vn -0.823717 0.567001 0.000000
vn -0.823717 0.567001 0.000000
vn -0.823717 0.567001 0.000000
vn -0.823717 0.567001 0.000000
vn 0.000000 0.583452 0.812148
vn 0.000000 0.583452 0.812148
vn 0.000000 0.583452 0.812148
vn 0.000000 0.583452 0.812148
vn 0.000000 1.000000 0.000000
vn 0.000000 1.000000 0.000000
vn 0.000000 1.000000 0.000000
vn 0.000000 1.000000 0.000000
vn 0.000000 0.583452 -0.812148
vn 0.000000 0.583452 -0.812148
vn 0.000000 0.583452 -0.812148
vn 0.000000 0.583452 -0.812148
vn 0.823720 0.566996 0.000000
vn 0.823720 0.566996 0.000000
vn 0.823720 0.566996 0.000000
vn 0.823720 0.566996 0.000000
vn -0.823722 0.566994 0.000000
vn -0.823722 0.566994 0.000000
vn -0.823722 0.566994 0.000000
vn -0.823722 0.566994 0.000000
vn 0.079284 0.583443 0.808275
vn 0.079284 0.583443 0.808275
vn 0.079284 0.583443 0.808275
vn 0.079284 0.583443 0.808275
vn 0.000000 1.000000 0.000000
vn 0.000000 1.000000 0.000000
vn 0.000000 1.000000 0.000000
vn 0.000000 1.000000 0.000000
vn -0.079284 0.583442 -0.808275
vn -0.079284 0.583443 -0.808275
vn -0.079284 0.583442 -0.808275
vn -0.079284 0.583442 -0.808275
vn 0.819909 0.566819 -0.080404
vn 0.819909 0.566819 -0.080404
vn 0.819909 0.566819 -0.080404
vn 0.819909 0.566819 -0.080404
vn -0.819912 0.566816 0.080404
vn -0.819912 0.566816 0.080404
vn -0.819912 0.566816 0.080404
vn -0.819912 0.566816 0.080404
vn -0.033886 0.583461 0.811434
vn -0.033886 0.583461 0.811434
vn -0.033886 0.583461 0.811434
vn -0.033886 0.583461 0.811434
vn 0.000000 1.000000 -0.000000
vn 0.000000 1.000000 -0.000000
vn 0.000000 1.000000 -0.000000
vn 0.000000 1.000000 -0.000000
vn 0.033886 0.583461 -0.811434
vn 0.033886 0.583461 -0.811434
vn 0.033886 0.583461 -0.811434
vn 0.033886 0.583461 -0.811434
vn 0.823120 0.566827 0.034352
vn 0.823120 0.566827 0.034352
vn 0.823120 0.566827 0.034352
vn 0.823120 0.566827 0.034352
vn -0.823117 0.566832 -0.034352
vn -0.823117 0.566832 -0.034352
vn -0.823117 0.566832 -0.034352
vn -0.823117 0.566832 -0.034352
vn 0.000000 0.583452 0.812147
vn 0.000000 0.583452 0.812147
vn 0.000000 0.583452 0.812147
vn 0.000000 0.583452 0.812147
vn 0.000000 1.000000 0.000000
vn 0.000000 1.000000 0.000000
vn 0.000000 1.000000 0.000000
vn 0.000000 1.000000 0.000000
vn 0.000000 0.583452 -0.812147
vn 0.000000 0.583452 -0.812147
vn 0.000000 0.583452 -0.812147
vn 0.000000 0.583452 -0.812147
vn 0.823716 0.567003 0.000000
vn 0.823716 0.567003 0.000000
vn 0.823716 0.567003 0.000000
vn 0.823716 0.567003 0.000000
vn -0.823719 0.566998 0.000000
vn -0.823719 0.566998 0.000000
vn -0.823719 0.566998 0.000000
vn -0.823719 0.566998 0.000000
s off
f 18/1/1 17/2/2 53/3/3 54/4/4
f 5/5/5 26/6/6 51/7/7 52/8/8
f 22/9/9 21/10/10 47/11/11 48/12/12
f 2/13/13 6/14/14 10/15/15 9/16/16
f 4/17/17 55/18/18 56/19/19 11/20/20
f 46/21/21 3/22/22 12/23/23 45/24/24
f 3/25/25 7/26/26 14/27/27 12/28/28
f 5/29/29 4/30/30 11/31/31 15/32/32
f 6/33/33 27/34/34 28/35/35 10/36/36
f 26/37/37 5/38/38 15/39/39 25/40/40
f 8/41/41 1/42/42 13/43/43 16/44/44
f 4/45/45 5/46/46 17/2/47 18/1/48
f 5/46/49 52/47/50 53/3/51 17/2/52
f 6/48/53 2/49/54 20/50/55 19/51/56
f 55/52/57 4/45/58 18/1/59 54/4/60
f 7/53/61 3/54/62 21/10/63 22/9/64
f 3/54/65 46/55/66 47/11/67 21/10/68
f 1/56/69 8/57/70 24/58/71 23/59/72
f 49/60/73 7/53/74 22/9/75 48/12/76
f 30/61/77 26/37/78 25/40/79 29/62/80
f 51/63/81 26/64/82 30/65/83 50/66/84
f 28/35/85 27/34/86 31/67/87 32/68/88
f 7/69/89 30/61/90 29/62/91 14/70/92
f 50/71/93 30/72/94 7/73/95 49/74/96
f 32/68/97 31/67/98 8/75/99 16/76/100
f 1/77/101 34/78/102 33/79/103 13/80/104
f 35/81/105 34/82/106 1/56/107 23/59/108
f 36/83/109 35/81/110 23/59/111 24/58/112
f 8/57/113 37/84/114 36/83/115 24/58/116
f 31/85/117 38/86/118 37/87/119 8/88/120
f 27/89/121 39/90/122 38/91/123 31/92/124
f 40/93/125 39/94/126 27/95/127 6/96/128
f 41/97/129 40/98/130 6/48/131 19/51/132
f 42/99/133 41/97/134 19/51/135 20/50/136
f 2/49/137 43/100/138 42/99/139 20/50/140
f 44/101/141 43/102/142 2/103/143 9/104/144
f 34/78/145 46/21/146 45/24/147 33/79/148
f 47/11/149 46/55/150 34/82/151 35/81/152
f 48/12/153 47/11/154 35/81/155 36/83/156
f 37/84/157 49/60/158 48/12/159 36/83/160
f 38/105/161 50/106/162 49/107/163 37/108/164
f 39/90/165 51/63/166 50/66/167 38/91/168
f 52/109/169 51/110/170 39/111/171 40/112/172
f 53/3/173 52/47/174 40/98/175 41/97/176
f 54/4/177 53/3/178 41/97/179 42/99/180
f 43/100/181 55/52/182 54/4/183 42/99/184
f 56/19/185 55/18/186 43/102/187 44/101/188
f 57/113/189 58/114/190 60/115/191 59/116/192
f 59/116/193 60/115/194 62/117/195 61/118/196
f 61/118/197 62/117/198 64/119/199 63/120/200
f 58/114/201 64/121/202 62/122/203 60/115/204
f 63/123/205 57/113/206 59/116/207 61/124/208
f 65/125/209 66/126/210 68/127/211 67/128/212
f 67/128/213 68/127/214 70/129/215 69/130/216
f 69/130/217 70/129/218 72/131/219 71/132/220
f 66/126/221 72/133/222 70/134/223 68/127/224
f 71/135/225 65/125/226 67/128/227 69/136/228
f 73/137/229 74/138/230 76/139/231 75/140/232
f 75/140/233 76/139/234 78/141/235 77/142/236
f 77/142/237 78/141/238 80/143/239 79/144/240
f 74/138/241 80/145/242 78/146/243 76/139/244
f 79/147/245 73/137/246 75/140/247 77/148/248
f 81/149/249 82/150/250 84/151/251 83/152/252
f 83/152/253 84/151/254 86/153/255 85/154/256
f 85/154/257 86/153/258 88/155/259 87/156/260
f 82/150/261 88/157/262 86/158/263 84/151/264
f 87/159/265 81/149/266 83/152/267 85/160/268
f 89/161/269 90/162/270 92/163/271 91/164/272
f 91/164/273 92/163/274 94/165/275 93/166/276
f 93/166/277 94/165/278 96/167/279 95/168/280
f 90/162/281 96/169/282 94/170/283 92/163/284
f 95/171/285 89/161/286 91/164/287 93/172/288
f 97/173/289 98/174/290 100/175/291 99/176/292
f 99/176/293 100/175/294 102/177/295 101/178/296
f 101/178/297 102/177/298 104/179/299 103/180/300
f 98/174/301 104/181/302 102/182/303 100/175/304
f 103/183/305 97/173/306 99/176/307 101/184/308
f 105/185/309 106/186/310 108/187/311 107/188/312
f 107/188/313 108/187/314 110/189/315 109/190/316
f 109/190/317 110/189/318 112/191/319 111/192/320
f 106/186/321 112/193/322 110/194/323 108/187/324
f 111/195/325 105/185/326 107/188/327 109/196/328
f 113/197/329 114/198/330 116/199/331 115/200/332
f 115/200/333 116/199/334 118/201/335 117/202/336
f 117/202/337 118/201/338 120/203/339 119/204/340
f 114/198/341 120/205/342 118/206/343 116/199/344
f 119/207/345 113/197/346 115/200/347 117/208/348
