# This file uses centimeters as units for non-parametric coordinates.

v -4.999991 -0.877824 0.000000
v -4.999991 -0.877824 -5.000000
v -4.999991 -1.528068 -5.000000
v -4.999991 -1.528068 0.000000
v 0.000000 -0.877824 -5.000000
v 0.000000 -0.877824 0.000000
v 0.000000 -1.528068 0.000000
v 0.000000 -1.528068 -5.000000
vt 0.383844 0.442228
vt 0.383844 0.442228
vt 0.383844 0.442228
vt 0.383844 0.442228
vt 0.383844 0.442228
vt 0.383844 0.442228
vt 0.383844 0.442228
vt 0.383844 0.442228
vt 0.383844 0.442228
vt 0.383844 0.442228
vt 0.383844 0.442228
vt 0.383844 0.442228
vn 1.000000 0.000000 0.000000
vn 1.000000 0.000000 0.000000
vn 1.000000 0.000000 0.000000
vn 1.000000 0.000000 0.000000
vn 0.000000 1.000000 0.000000
vn 0.000000 1.000000 0.000000
vn 0.000000 1.000000 0.000000
vn 0.000000 1.000000 0.000000
vn 0.000000 0.000000 1.000000
vn 0.000000 0.000000 1.000000
vn 0.000000 0.000000 1.000000
vn 0.000000 0.000000 1.000000
vn 0.000000 -1.000000 0.000000
vn 0.000000 -1.000000 0.000000
vn 0.000000 -1.000000 0.000000
vn 0.000000 -1.000000 0.000000
vn 0.000000 0.000000 -1.000000
vn 0.000000 0.000000 -1.000000
vn 0.000000 0.000000 -1.000000
vn 0.000000 0.000000 -1.000000
vn -1.000000 0.000000 0.000000
vn -1.000000 0.000000 0.000000
vn -1.000000 0.000000 0.000000
vn -1.000000 0.000000 0.000000
s off
f 5/4/1 6/5/2 7/6/3 8/7/4
f 2/1/5 1/8/6 6/5/7 5/4/8
f 1/8/9 4/3/10 7/6/11 6/5/12
f 4/3/13 3/2/14 8/7/15 7/6/16
f 3/2/17 2/1/18 5/4/19 8/7/20
f 3/9/21 4/10/22 1/11/23 2/12/24
