# This file uses centimeters as units for non-parametric coordinates.

v 5.000000 0.000000 -1.875000
v 5.000000 0.000000 -0.625000
v 4.842552 0.000000 -0.625000
v 4.842552 0.000000 -1.875000
v 4.842552 0.000000 -0.788170
v 4.842552 0.000000 -1.107315
v 4.889618 0.000000 -0.957809
v 5.000000 0.000000 -4.375000
v 5.000000 0.000000 -3.125000
v 4.842552 0.000000 -3.125000
v 4.925507 0.000000 -4.375000
v 4.842552 0.000000 -4.279793
v 0.315384 0.000000 0.000000
v 0.315384 0.000000 -5.000000
v 0.135468 0.000000 -5.000000
v 0.135468 0.000000 0.000000
v 0.373779 0.000000 -1.826164
v 0.193863 0.000000 -1.826164
v 5.000000 0.000000 0.000000
v 5.000000 0.000000 -5.000000
v 4.842552 0.000000 -4.375000
v 0.000000 0.000000 -5.000000
v 0.000000 0.000000 0.000000
v 0.000000 0.000000 -2.500000
vt 0.082604 0.208233
vt 0.082604 0.208233
vt 0.082604 0.208233
vt 0.082604 0.208233
vt 0.082604 0.208233
vt 0.082604 0.208233
vt 0.082604 0.208233
vt 0.082604 0.208233
vt 0.082604 0.208233
vt 0.082604 0.208233
vt 0.082604 0.208233
vt 0.082604 0.208233
vt 0.096416 0.209425
vt 0.096416 0.209425
vt 0.096416 0.209425
vt 0.096416 0.209425
vt 0.096416 0.209425
vt 0.096416 0.209425
vt 0.979372 0.811049
vt 0.979372 0.688989
vt 0.994746 0.688989
vt 0.994746 0.811049
vt 0.994746 0.566929
vt 0.979372 0.566929
vt 0.537303 0.505899
vt 0.994746 0.505899
vt 0.537303 0.994139
vt 0.979372 0.933109
vt 0.987472 0.933109
vt 0.994746 0.933109
vt 0.994746 0.994139
vt 0.543005 0.684220
vt 0.979372 0.582862
vt 0.983968 0.599427
vt 0.979372 0.614026
vt 0.979372 0.923812
vt 0.519734 0.505899
vt 0.525436 0.684220
vt 0.506506 0.750019
vt 0.506506 0.505899
vt 0.519734 0.994139
vt 0.506506 0.994139
vn 0.000000 1.000000 0.000000
vn -0.000000 1.000000 0.000000
vn -0.000001 1.000000 0.000001
vn 0.000000 1.000000 0.000000
vn 0.000000 1.000000 -0.000000
vn -0.000000 1.000000 0.000000
vn 0.000000 1.000000 -0.000000
vn 0.000000 1.000000 -0.000000
vn -0.000000 1.000000 0.000000
vn 0.000000 1.000000 -0.000000
vn 0.000022 1.000000 -0.000006
vn -0.000000 1.000000 0.000000
vn -0.000000 1.000000 0.000000
vn 0.000022 1.000000 -0.000006
vn -0.000001 1.000000 0.000001
vn 0.000000 1.000000 0.000000
vn 0.000000 1.000000 0.000000
vn 0.000000 1.000000 0.000000
vn 0.000000 1.000000 0.000000
vn 0.000000 1.000000 0.000000
vn 0.000000 1.000000 0.000000
vn 0.000000 1.000000 0.000000
vn 0.000000 1.000000 0.000000
vn 0.000000 1.000000 0.000000
vn 0.000000 1.000000 0.000000
vn 0.000000 1.000000 0.000000
vn 0.000000 1.000000 0.000000
vn 0.000000 1.000000 0.000000
vn 0.000000 1.000000 0.000000
vn 0.000000 1.000000 0.000000
vn 0.000000 1.000000 0.000000
vn 0.000000 1.000000 0.000000
vn 0.000000 1.000000 0.000000
vn -0.000000 1.000000 -0.000000
vn 0.000000 1.000000 0.000000
vn 0.000000 1.000000 0.000000
vn 0.000000 1.000000 0.000000
vn -0.000000 1.000000 0.000000
vn 0.000000 1.000000 0.000000
vn 0.000000 1.000000 0.000000
vn 0.000000 1.000000 0.000000
vn 0.000000 1.000000 0.000000
vn 0.000000 1.000000 0.000000
vn 0.000000 1.000000 0.000000
vn 0.000000 1.000000 0.000000
vn 0.000000 1.000000 0.000000
vn 0.000000 1.000000 0.000000
vn 0.000000 1.000000 0.000000
vn 0.000000 1.000000 0.000000
vn 0.000000 1.000000 0.000000
vn -0.000000 1.000000 -0.000000
vn -0.000000 1.000000 -0.000000
vn -0.000000 1.000000 0.000000
vn -0.000008 1.000000 0.000000
vn -0.000000 1.000000 -0.000000
vn 0.000000 1.000000 0.000000
vn 0.000000 1.000000 0.000000
vn 0.000000 1.000000 0.000000
vn -0.000000 1.000000 -0.000000
vn 0.000000 1.000000 0.000000
vn 0.000000 1.000000 0.000000
vn 0.000000 1.000000 0.000000
vn 0.000000 1.000000 0.000000
vn 0.000000 1.000000 0.000000
vn 0.000000 1.000000 0.000000
vn 0.000000 1.000000 0.000000
vn 0.000000 1.000000 0.000000
vn 0.000000 1.000000 0.000000
vn -0.000000 1.000000 0.000000
vn -0.000000 1.000000 -0.000000
vn -0.000000 1.000000 0.000000
vn -0.000000 1.000000 0.000000
vn -0.000000 1.000000 -0.000000
vn -0.000000 1.000000 0.000000
vn -0.000000 1.000000 -0.000000
vn -0.000000 1.000000 -0.000000
vn -0.000000 1.000000 -0.000000
vn -0.000000 1.000000 -0.000000
vn -0.000000 1.000000 -0.000000
vn 0.000000 1.000000 0.000000
vn 0.000000 1.000000 0.000000
vn 0.000000 1.000000 0.000000
vn 0.000000 1.000000 0.000000
vn 0.000000 1.000000 0.000000
vn 0.000000 1.000000 0.000000
vn 0.000000 1.000000 0.000000
vn 0.000000 1.000000 0.000000
s off
f 3/1/1 2/2/2 5/7/3
f 1/3/4 4/4/5 2/2/6
f 4/4/7 6/5/8 2/2/9
f 6/5/10 7/6/11 2/2/12
f 2/2/13 7/6/14 5/7/15
f 10/8/16 9/9/17 12/12/18
f 8/10/19 11/11/20 9/9/21
f 9/9/22 11/11/23 12/12/24
f 13/13/25 17/14/26 18/15/27 16/16/28
f 18/15/29 17/14/30 14/17/31 15/18/32
f 10/19/33 4/20/34 1/21/35 9/22/36
f 2/23/37 3/24/38 13/25/39 19/26/40
f 8/30/41 20/31/42 11/29/43
f 11/29/44 20/31/45 21/28/46
f 14/27/47 21/28/48 20/31/49
f 10/19/50 17/32/51 4/20/52
f 5/33/53 7/34/54 6/35/55
f 12/36/56 11/29/57 21/28/58
f 17/32/59 10/19/60 14/27/61
f 21/28/62 14/27/63 12/36/64
f 10/19/65 12/36/66 14/27/67
f 13/25/68 3/24/69 17/32/70
f 3/24/71 5/33/72 17/32/73
f 5/33/74 6/35/75 17/32/76
f 4/20/77 17/32/78 6/35/79
f 16/37/80 18/38/81 24/39/82 23/40/83
f 24/39/84 18/38/85 15/41/86 22/42/87
