# This file uses centimeters as units for non-parametric coordinates.

v 0.000000 -0.000000 0.000015
v -0.000008 -0.000000 -5.000000
v 0.673782 0.069697 0.000023
v -0.000008 0.069697 -0.673782
v 1.023064 0.069697 0.000023
v -0.000008 0.069697 -1.023064
v 0.587448 -0.230295 0.000023
v -0.000008 -0.230295 -0.587448
v 1.073784 -0.000000 0.000023
v -0.000008 -0.000000 -1.073784
v 0.080353 -0.054173 0.000023
v -0.000008 -0.054173 -0.080353
v -0.000008 -0.083538 -0.265427
v 0.265427 -0.083538 0.000023
v -0.000008 -0.000000 -3.173286
v 0.033592 -0.054173 -0.080353
v 0.215981 -0.103096 -0.202492
v 0.465134 -0.230295 -0.420021
v 0.549797 0.069697 -0.523453
v 0.782814 0.069697 -0.753609
v 0.844254 -0.000000 -0.829750
v 2.505287 -0.031709 -3.176537
v 2.506058 -0.000000 -5.000000
v 2.432251 -0.013135 -3.135872
v 2.428482 -0.019650 -3.195229
v 2.445900 -0.000000 -5.000000
v 5.000000 -0.000000 -5.000000
v 5.000000 -0.000000 -2.581863
v 5.000000 -0.000000 -2.488861
v 1.070877 0.019193 -0.058159
v 1.023064 0.069697 -0.042572
v 0.673782 0.069697 -0.022278
v 0.587448 -0.230295 -0.036255
v 0.265427 -0.083538 -0.036621
v 0.080353 -0.054173 -0.027374
v 0.033592 -0.000000 -5.000000
v 0.033592 0.024367 -3.199997
v 0.033592 -0.000000 -3.146576
v 0.055138 -0.000000 -1.073784
v 0.081642 0.069697 -1.034065
v 0.033592 0.069697 -0.673782
v 0.033592 -0.230295 -0.587448
v 0.033592 -0.083538 -0.265427
v 3.173286 -0.000000 0.000023
v 5.000000 -0.000000 0.000023
v 5.000000 0.008996 -0.058159
v 3.198219 0.013985 -0.058159
v 3.139671 0.014154 -0.058159
v 3.198219 -0.015454 -2.488861
v 3.135040 -0.005041 -2.494781
v 3.189125 -0.019261 -2.549026
vt 0.065277 0.211215
vt 0.102497 0.279316
vt 0.102705 0.299407
vt 0.102497 0.279316
vt 0.102497 0.279316
vt 0.102497 0.279316
vt 0.102497 0.279316
vt 0.102497 0.279316
vt 0.102497 0.279316
vt 0.102705 0.299407
vt 0.102705 0.299407
vt 0.102497 0.279316
vt 0.102497 0.279316
vt 0.102497 0.279316
vt 0.065277 0.211215
vt 0.102497 0.279316
vt 0.102497 0.279316
vt 0.102497 0.279316
vt 0.102497 0.279316
vt 0.102497 0.279316
vt 0.102497 0.279316
vt 0.102497 0.279316
vt 0.102705 0.299407
vt 0.102705 0.299407
vt 0.102183 0.307564
vt 0.102183 0.307564
vt 0.102183 0.307564
vt 0.102183 0.307564
vt 0.102183 0.307564
vt 0.102318 0.327655
vt 0.102183 0.307564
vt 0.102705 0.299407
vt 0.102705 0.299407
vt 0.102705 0.299407
vt 0.102705 0.299407
vt 0.102318 0.327655
vt 0.102183 0.307564
vt 0.102318 0.327655
vt 0.102183 0.307564
vt 0.102183 0.307564
vt 0.102183 0.307564
vt 0.102183 0.307564
vt 0.102183 0.307564
vt 0.102183 0.307564
vt 0.102183 0.307564
vt 0.102183 0.307564
vt 0.102318 0.327655
vt 0.102705 0.299407
vt 0.102705 0.299407
vt 0.102497 0.279316
vt 0.102705 0.299407
vt 0.102497 0.279316
vt 0.102497 0.279316
vt 0.102497 0.279316
vt 0.102497 0.279316
vt 0.102497 0.279316
vt 0.102497 0.279316
vt 0.102497 0.279316
vt 0.065277 0.211215
vt 0.065277 0.211215
vt 0.102497 0.279316
vt 0.102183 0.307564
vt 0.102497 0.279316
vt 0.102183 0.307564
vt 0.102183 0.307564
vt 0.102183 0.307564
vt 0.102183 0.307564
vt 0.102183 0.307564
vt 0.102183 0.307564
vt 0.102183 0.307564
vt 0.102318 0.327655
vt 0.102183 0.307564
vt 0.102705 0.299407
vt 0.102705 0.299407
vt 0.102318 0.327655
vt 0.102705 0.299407
vt 0.102318 0.327655
vt 0.102705 0.299407
vt 0.102705 0.299407
vt 0.065277 0.211215
vt 0.102318 0.327655
vt 0.102497 0.279316
vt 0.102497 0.279316
vt 0.102497 0.279316
vt 0.102497 0.279316
vt 0.102497 0.279316
vt 0.102497 0.279316
vt 0.102497 0.279316
vt 0.102497 0.279316
vt 0.102497 0.279316
vt 0.102497 0.279316
vt 0.102705 0.299407
vt 0.102497 0.279316
vt 0.102705 0.299407
vt 0.102318 0.327655
vt 0.102318 0.327655
vt 0.102497 0.279316
vt 0.102705 0.299407
vt 0.102705 0.299407
vt 0.102318 0.327655
vt 0.102705 0.299407
vt 0.102705 0.299407
vt 0.102318 0.327655
vt 0.102318 0.327655
vt 0.102183 0.307564
vt 0.102318 0.327655
vt 0.102183 0.307564
vt 0.102183 0.307564
vt 0.102183 0.307564
vt 0.102183 0.307564
vt 0.102183 0.307564
vt 0.102183 0.307564
vt 0.102183 0.307564
vt 0.102705 0.299407
vt 0.102318 0.327655
vt 0.102183 0.307564
vt 0.102183 0.307564
vt 0.102183 0.307564
vt 0.102497 0.279316
vt 0.102705 0.299407
vt 0.102705 0.299407
vt 0.102705 0.299407
vt 0.102705 0.299407
vt 0.102318 0.327655
vt 0.102705 0.299407
vt 0.102318 0.327655
vt 0.102318 0.327655
vt 0.102705 0.299407
vt 0.102318 0.327655
vt 0.102318 0.305847
vt 0.102318 0.305847
vt 0.102318 0.305847
vt 0.102318 0.305847
vt 0.102318 0.327655
vt 0.102318 0.305847
vt 0.102318 0.327655
vt 0.102705 0.299407
vt 0.102318 0.327655
vt 0.102705 0.299407
vn 0.000000 1.000000 0.000000
vn 0.000000 1.000000 0.000000
vn 0.000000 1.000000 0.000000
vn 0.000000 1.000000 0.000000
vn 0.250802 0.655177 -0.712630
vn 0.250802 0.655177 -0.712630
vn 0.250802 0.655177 -0.712630
vn 0.250802 0.655177 -0.712630
vn -0.300528 0.325914 0.896361
vn -0.300528 0.325914 0.896361
vn -0.300528 0.325914 0.896361
vn -0.300528 0.325914 0.896361
vn 0.011272 0.987698 0.155969
vn 0.011272 0.987698 0.155969
vn 0.011272 0.987698 0.155969
vn 0.011272 0.987698 0.155969
vn 0.172126 0.908149 -0.381627
vn 0.172126 0.908149 -0.381627
vn 0.172126 0.908149 -0.381627
vn 0.172126 0.908149 -0.381627
vn 0.157969 0.975244 -0.154741
vn 0.157969 0.975244 -0.154741
vn 0.157969 0.975244 -0.154741
vn 0.009157 0.999957 -0.001264
vn 0.009157 0.999957 -0.001264
vn 0.009157 0.999957 -0.001264
vn 0.009157 0.999957 -0.001264
vn 0.004239 0.999990 -0.001483
vn 0.004239 0.999990 -0.001483
vn 0.004239 0.999990 -0.001483
vn 0.004239 0.999990 -0.001483
vn 0.559010 0.829161 0.000000
vn 0.559010 0.829161 0.000000
vn 0.559010 0.829161 0.000000
vn 0.156709 0.987645 0.000000
vn 0.156709 0.987645 0.000000
vn 0.156709 0.987645 0.000000
vn 0.156709 0.987645 0.000000
vn 0.414700 0.909958 0.000000
vn 0.414700 0.909958 0.000000
vn 0.414700 0.909958 0.000000
vn 0.414700 0.909958 0.000000
vn -0.960996 0.276564 0.000000
vn -0.960996 0.276564 0.000000
vn -0.960996 0.276564 0.000000
vn -0.960996 0.276564 0.000000
vn 0.000000 1.000000 0.000000
vn 0.000000 1.000000 0.000000
vn 0.000000 1.000000 0.000000
vn 0.000000 1.000000 0.000000
vn 0.775854 0.623509 0.096372
vn 0.775854 0.623509 0.096372
vn 0.775854 0.623509 0.096372
vn 0.775854 0.623509 0.096372
vn 0.002811 0.972027 0.234851
vn 0.002811 0.972027 0.234851
vn 0.002811 0.972027 0.234851
vn 0.133034 0.978568 -0.157183
vn 0.133034 0.978568 -0.157183
vn 0.133034 0.978568 -0.157183
vn 0.133034 0.978568 -0.157183
vn 0.085734 0.996212 0.014532
vn 0.085734 0.996212 0.014532
vn 0.085734 0.996212 0.014532
vn 0.085734 0.996212 0.014532
vn -0.007596 0.999954 0.005938
vn -0.007596 0.999954 0.005938
vn -0.007596 0.999954 0.005938
vn -0.007596 0.999954 0.005938
vn -0.007596 0.999954 0.005938
vn -0.009827 0.999657 -0.024264
vn -0.009827 0.999657 -0.024264
vn -0.009827 0.999657 -0.024264
vn -0.009827 0.999657 -0.024264
vn 0.087087 0.996150 -0.010037
vn 0.087087 0.996150 -0.010037
vn 0.087087 0.996150 -0.010037
vn 0.087087 0.996150 -0.010037
vn 0.638085 0.740628 -0.210518
vn 0.638085 0.740628 -0.210518
vn 0.638085 0.740628 -0.210518
vn 0.638085 0.740628 -0.210518
vn 0.000000 1.000000 0.000000
vn 0.000000 1.000000 0.000000
vn 0.000000 1.000000 0.000000
vn 0.000000 1.000000 0.000000
vn -0.918992 0.300052 0.255777
vn -0.918992 0.300052 0.255777
vn -0.918992 0.300052 0.255777
vn -0.918992 0.300052 0.255777
vn 0.380145 0.912474 -0.151262
vn 0.380145 0.912474 -0.151262
vn 0.380145 0.912474 -0.151262
vn 0.380145 0.912474 -0.151262
vn 0.146967 0.976291 -0.158922
vn 0.146967 0.976291 -0.158922
vn 0.146967 0.976291 -0.158922
vn 0.426320 0.822595 -0.376284
vn 0.426320 0.822595 -0.376284
vn 0.426320 0.822595 -0.376284
vn -0.343092 0.939281 -0.006311
vn -0.343092 0.939281 -0.006311
vn -0.343092 0.939281 -0.006311
vn -0.343092 0.939281 -0.006311
vn -0.313297 0.864019 0.394101
vn -0.313297 0.864019 0.394101
vn -0.313297 0.864019 0.394101
vn 0.000000 1.000000 0.000000
vn 0.000000 1.000000 0.000000
vn 0.000000 1.000000 0.000000
vn 0.000000 1.000000 0.000000
vn -0.066846 0.551980 -0.831174
vn -0.066846 0.551980 -0.831174
vn -0.066846 0.551980 -0.831174
vn -0.066846 0.551980 -0.831174
vn 0.000000 1.000000 0.000000
vn 0.000000 1.000000 0.000000
vn 0.000000 1.000000 0.000000
vn 0.000000 1.000000 0.000000
vn 0.000000 0.276564 0.960995
vn 0.000000 0.276564 0.960995
vn 0.000000 0.276564 0.960995
vn 0.000000 0.276564 0.960995
vn 0.000000 0.909958 -0.414700
vn 0.000000 0.909958 -0.414700
vn 0.000000 0.909958 -0.414700
vn 0.000000 0.909958 -0.414700
vn 0.000000 0.987645 -0.156709
vn 0.000000 0.987645 -0.156709
vn 0.000000 0.987645 -0.156709
vn 0.000000 0.987645 -0.156709
vn 0.000000 0.829211 -0.558937
vn 0.000000 0.829211 -0.558937
vn 0.000000 0.829211 -0.558937
vn 0.136475 0.977953 -0.158061
vn 0.136475 0.977953 -0.158061
vn 0.136475 0.977953 -0.158062
vn 0.136475 0.977953 -0.158061
vn 0.164480 0.975638 -0.145175
vn 0.164480 0.975638 -0.145175
vn 0.164480 0.975639 -0.145175
vn -0.002904 0.999965 -0.007906
vn -0.002904 0.999965 -0.007906
vn -0.002904 0.999965 -0.007906
vn -0.002904 0.999965 -0.007906
vn -0.002650 0.999937 -0.010883
vn -0.002650 0.999937 -0.010883
vn -0.002650 0.999937 -0.010883
vn -0.002650 0.999937 -0.010883
vn -0.002650 0.999937 -0.010883
vn 0.001162 0.961399 0.275156
vn 0.001162 0.961399 0.275156
vn 0.001162 0.961399 0.275156
vn 0.001162 0.961399 0.275156
vn 0.001349 0.980995 0.194031
vn 0.001349 0.980995 0.194031
vn 0.001349 0.980995 0.194031
vn 0.001349 0.980995 0.194031
s off
f 40/70/1 41/67/2 19/110/3 20/107/4
f 39/72/5 40/69/6 20/108/7 21/105/8
f 41/68/9 42/65/10 18/112/11 19/109/12
f 37/78/13 38/74/14 24/32/15 25/102/16
f 42/66/17 43/64/18 17/31/19 18/111/20
f 43/64/21 16/62/22 17/31/23
f 36/47/24 37/77/25 25/103/26 26/104/27
f 38/75/28 39/71/29 21/106/30 24/81/31
f 1/1/32 11/59/33 35/60/34
f 34/85/35 35/82/36 11/83/37 14/22/38
f 33/87/39 34/84/40 14/97/41 7/2/42
f 32/89/43 33/86/44 7/14/45 3/7/46
f 31/91/47 32/88/48 3/17/49 5/8/50
f 30/93/51 31/90/52 5/18/53 9/12/54
f 44/121/55 47/125/56 48/128/57
f 22/98/58 25/101/59 49/139/60 51/137/61
f 26/34/62 25/33/63 22/99/64 23/114/65
f 23/30/66 22/100/67 51/138/68 28/95/69 27/96/70
f 51/137/71 49/139/72 29/94/73 28/35/74
f 49/133/75 50/135/76 48/131/77 47/132/78
f 21/29/79 20/116/80 31/40/81 30/37/82
f 20/28/83 19/117/84 32/42/85 31/39/86
f 19/27/87 18/118/88 33/44/89 32/41/90
f 18/26/91 17/113/92 34/45/93 33/43/94
f 17/113/95 35/46/96 34/45/97
f 1/1/98 35/60/99 16/15/100
f 15/23/101 37/76/102 36/79/103 2/3/104
f 15/24/105 38/73/106 37/48/107
f 10/11/108 39/51/109 38/49/110 15/120/111
f 6/9/112 40/53/113 39/50/114 10/13/115
f 4/6/116 41/55/117 40/52/118 6/19/119
f 8/4/120 42/57/121 41/54/122 4/16/123
f 13/21/124 43/63/125 42/56/126 8/5/127
f 12/20/128 16/61/129 43/58/130 13/119/131
f 1/1/132 16/15/133 12/80/134
f 25/101/135 24/130/136 50/135/137 49/133/138
f 17/113/139 16/25/140 35/46/141
f 49/134/142 47/126/143 46/124/144 29/36/145
f 48/129/146 50/136/147 24/127/148 21/115/149 30/38/150
f 44/121/151 48/128/152 30/92/153 9/10/154
f 45/122/155 46/123/156 47/125/157 44/121/158
