# This file uses centimeters as units for non-parametric coordinates.

v 5.000008 0.000000 -5.000000
v 0.000008 0.000000 -5.000000
v 5.000008 0.000000 0.000000
v 0.000008 0.000000 0.000000
v 1.250008 0.000000 -5.000000
v 1.250008 0.000000 0.000000
v 3.750008 0.000000 -5.000000
v 3.750008 0.000000 0.000000
v 5.000008 0.138377 0.000000
v 3.750008 0.138377 0.000000
v 5.000008 0.138377 -5.000000
v 3.750008 0.138377 -5.000000
v 1.250008 0.138377 0.000000
v 0.000008 0.138377 0.000000
v 1.250008 0.138377 -5.000000
v 0.000008 0.138377 -5.000000
v 4.375008 0.000000 0.000000
v 4.375008 0.093628 0.000000
v 4.375008 0.093628 -5.000000
v 4.375008 0.000000 -5.000000
v 0.625008 0.000000 0.000000
v 0.625008 0.093628 0.000000
v 0.625008 0.093628 -5.000000
v 0.625008 0.000000 -5.000000
v 5.000008 0.000000 -2.500000
v 5.000008 0.138377 -2.500000
v 4.375008 0.138377 -2.500000
v 3.750008 0.138377 -2.500000
v 1.250008 0.138377 -2.500000
v 0.625008 0.138377 -2.500000
v 0.000008 0.138377 -2.500000
v 0.000008 0.000000 -2.500000
v 5.000008 0.000000 -1.250000
v 5.000008 0.088910 -1.250000
v 4.375008 0.138377 -1.250000
v 3.750008 0.097601 -1.250000
v 1.250008 0.097601 -1.250000
v 0.625008 0.138377 -1.250000
v 0.000008 0.088910 -1.250000
v 0.000008 0.000000 -1.250000
v 5.000008 0.000000 -3.750000
v 5.000008 0.088910 -3.750000
v 4.375008 0.138377 -3.750000
v 3.750008 0.097601 -3.750000
v 1.250008 0.097601 -3.750000
v 0.625008 0.138377 -3.750000
v 0.000008 0.088910 -3.750000
v 0.000008 0.000000 -3.750000
v 3.099043 0.000000 0.000000
v 3.099043 0.109214 0.000000
v 3.099043 0.131547 -1.250000
v 3.099043 0.109214 -2.500000
v 3.099043 0.131555 -3.750000
v 3.099043 0.109214 -5.000000
v 3.099043 0.000000 -5.000000
v 1.900973 0.000000 0.000000
v 1.900973 0.109214 0.000000
v 1.900973 0.131547 -1.250000
v 1.900973 0.109214 -2.500000
v 1.900973 0.131555 -3.750000
v 1.900973 0.109214 -5.000000
v 1.900973 0.000000 -5.000000
v 2.500008 0.000000 0.000000
v 2.500008 0.138377 0.000000
v 2.500008 0.097601 -1.250000
v 2.500008 0.138377 -2.500000
v 2.500008 0.097601 -3.750000
v 2.500008 0.138377 -5.000000
v 2.500008 0.000000 -5.000000
vt 0.142015 0.254783
vt 0.142015 0.254783
vt 0.142015 0.254783
vt 0.142015 0.254783
vt 0.142015 0.254783
vt 0.142015 0.254783
vt 0.142015 0.254783
vt 0.142015 0.254783
vt 0.142015 0.254783
vt 0.142015 0.254783
vt 0.142015 0.254783
vt 0.142015 0.254783
vt 0.142015 0.254783
vt 0.142015 0.254783
vt 0.142015 0.254783
vt 0.142015 0.254783
vt 0.142015 0.254783
vt 0.142015 0.254783
vt 0.142015 0.254783
vt 0.142015 0.254783
vt 0.142015 0.254783
vt 0.142015 0.254783
vt 0.142015 0.254783
vt 0.142015 0.254783
vt 0.142015 0.254783
vt 0.142015 0.254783
vt 0.142015 0.254783
vt 0.142015 0.254783
vt 0.142015 0.254783
vt 0.142015 0.254783
vt 0.142015 0.254783
vt 0.142015 0.254783
vt 0.142015 0.254783
vt 0.142015 0.254783
vt 0.142015 0.254783
vt 0.142015 0.254783
vt 0.142015 0.254783
vt 0.142015 0.254783
vt 0.142015 0.254783
vt 0.142015 0.254783
vt 0.142015 0.254783
vt 0.142015 0.254783
vt 0.142015 0.254783
vt 0.142015 0.254783
vt 0.142015 0.254783
vt 0.142015 0.254783
vt 0.142015 0.254783
vt 0.142015 0.254783
vt 0.142441 0.252518
vt 0.142441 0.252518
vt 0.142441 0.252518
vt 0.142441 0.252518
vt 0.142441 0.252518
vt 0.142441 0.252518
vt 0.142441 0.252518
vt 0.142441 0.252518
vt 0.142441 0.252518
vt 0.142441 0.252518
vt 0.142441 0.252518
vt 0.142441 0.252518
vt 0.142441 0.252518
vt 0.142441 0.252518
vt 0.142441 0.252518
vt 0.142441 0.252518
vt 0.142441 0.252518
vt 0.142441 0.252518
vt 0.142441 0.252518
vt 0.142441 0.252518
vt 0.142441 0.252518
vt 0.142441 0.252518
vt 0.142441 0.252518
vt 0.142441 0.252518
vt 0.142441 0.252518
vt 0.142441 0.252518
vt 0.142441 0.252518
vt 0.142441 0.252518
vt 0.142441 0.252518
vt 0.142441 0.252518
vt 0.142441 0.252518
vt 0.142441 0.252518
vt 0.142441 0.252518
vt 0.142441 0.252518
vt 0.142441 0.252518
vn 0.003179 0.999994 0.001589
vn 0.003179 0.999994 0.001589
vn 0.003179 0.999994 0.001589
vn 0.003179 0.999994 0.001589
vn -0.003775 0.999991 -0.001887
vn -0.003775 0.999991 -0.001887
vn -0.003775 0.999991 -0.001887
vn -0.003775 0.999991 -0.001887
vn 0.000000 0.000000 1.000000
vn 0.000000 0.000000 1.000000
vn 0.000000 0.000000 1.000000
vn 0.000000 0.000000 1.000000
vn 1.000000 0.000000 0.000000
vn 1.000000 0.000000 0.000000
vn 1.000000 0.000000 0.000000
vn 1.000000 0.000000 0.000000
vn 0.000000 0.000000 -1.000000
vn 0.000000 0.000000 -1.000000
vn 0.000000 0.000000 -1.000000
vn 0.000000 0.000000 -1.000000
vn 0.000000 0.000000 1.000000
vn 0.000000 0.000000 1.000000
vn 0.000000 0.000000 1.000000
vn 0.000000 0.000000 1.000000
vn 0.000000 0.000000 -1.000000
vn 0.000000 0.000000 -1.000000
vn 0.000000 0.000000 -1.000000
vn 0.000000 0.000000 -1.000000
vn -1.000000 0.000000 0.000000
vn -1.000000 0.000000 0.000000
vn -1.000000 0.000000 0.000000
vn -1.000000 0.000000 0.000000
vn 0.000000 0.000000 1.000000
vn 0.000000 0.000000 1.000000
vn 0.000000 0.000000 1.000000
vn 0.000000 0.000000 1.000000
vn 0.003775 0.999991 -0.001887
vn 0.003775 0.999991 -0.001887
vn 0.003775 0.999991 -0.001887
vn 0.003775 0.999991 -0.001887
vn 0.000000 0.000000 -1.000000
vn 0.000000 0.000000 -1.000000
vn 0.000000 0.000000 -1.000000
vn 0.000000 0.000000 -1.000000
vn 0.000000 0.000000 1.000000
vn 0.000000 0.000000 1.000000
vn 0.000000 0.000000 1.000000
vn 0.000000 0.000000 1.000000
vn -0.003179 0.999994 0.001589
vn -0.003179 0.999994 0.001589
vn -0.003179 0.999994 0.001589
vn -0.003179 0.999994 0.001589
vn 0.000000 0.000000 -1.000000
vn 0.000000 0.000000 -1.000000
vn 0.000000 0.000000 -1.000000
vn 0.000000 0.000000 -1.000000
vn 1.000000 0.000000 0.000000
vn 1.000000 0.000000 0.000000
vn 1.000000 0.000000 0.000000
vn 1.000000 0.000000 0.000000
vn 0.039535 0.999023 -0.019768
vn 0.039535 0.999023 -0.019768
vn 0.039535 0.999023 -0.019768
vn 0.039535 0.999023 -0.019768
vn -0.032599 0.999336 -0.016300
vn -0.032599 0.999336 -0.016300
vn -0.032599 0.999336 -0.016300
vn -0.032599 0.999336 -0.016300
vn 0.032599 0.999336 -0.016300
vn 0.032599 0.999336 -0.016300
vn 0.032599 0.999336 -0.016300
vn 0.032599 0.999336 -0.016300
vn -0.039535 0.999023 -0.019768
vn -0.039535 0.999023 -0.019768
vn -0.039535 0.999023 -0.019768
vn -0.039535 0.999023 -0.019768
vn -1.000000 0.000000 0.000000
vn -1.000000 0.000000 0.000000
vn -1.000000 0.000000 0.000000
vn -1.000000 0.000000 0.000000
vn 1.000000 0.000000 0.000000
vn 1.000000 0.000000 0.000000
vn 1.000000 0.000000 0.000000
vn 1.000000 0.000000 0.000000
vn 0.039535 0.999023 0.019768
vn 0.039535 0.999023 0.019768
vn 0.039535 0.999023 0.019768
vn 0.039535 0.999023 0.019768
vn -0.032599 0.999336 0.016300
vn -0.032599 0.999336 0.016300
vn -0.032599 0.999336 0.016300
vn -0.032599 0.999336 0.016300
vn 0.032599 0.999336 0.016300
vn 0.032599 0.999336 0.016300
vn 0.032599 0.999336 0.016300
vn 0.032599 0.999336 0.016300
vn -0.039535 0.999023 0.019768
vn -0.039535 0.999023 0.019768
vn -0.039535 0.999023 0.019768
vn -0.039535 0.999023 0.019768
vn -1.000000 0.000000 0.000000
vn -1.000000 0.000000 0.000000
vn -1.000000 0.000000 0.000000
vn -1.000000 0.000000 0.000000
vn 1.000000 0.000000 0.000000
vn 1.000000 0.000000 0.000000
vn 1.000000 0.000000 0.000000
vn 1.000000 0.000000 0.000000
vn 0.003775 0.999991 0.001887
vn 0.003775 0.999991 0.001887
vn 0.003775 0.999991 0.001887
vn 0.003775 0.999991 0.001887
vn 0.003179 0.999994 -0.001589
vn 0.003179 0.999994 -0.001589
vn 0.003179 0.999994 -0.001589
vn 0.003179 0.999994 -0.001589
vn -0.003179 0.999994 -0.001589
vn -0.003179 0.999994 -0.001589
vn -0.003179 0.999994 -0.001589
vn -0.003179 0.999994 -0.001589
vn -0.003775 0.999991 0.001887
vn -0.003775 0.999991 0.001887
vn -0.003775 0.999991 0.001887
vn -0.003775 0.999991 0.001887
vn -1.000000 0.000000 0.000000
vn -1.000000 0.000000 0.000000
vn -1.000000 0.000000 0.000000
vn -1.000000 0.000000 0.000000
vn -0.000000 0.000000 -1.000000
vn -0.000000 0.000000 -1.000000
vn -0.000000 0.000000 -1.000000
vn -0.000000 0.000000 -1.000000
vn -0.003679 0.999966 0.007374
vn -0.003679 0.999966 0.007374
vn -0.003679 0.999966 0.007374
vn -0.003679 0.999966 0.007374
vn 0.000000 0.000000 1.000000
vn 0.000000 0.000000 1.000000
vn 0.000000 0.000000 1.000000
vn 0.000000 0.000000 1.000000
vn -0.003673 0.999966 0.007377
vn -0.003673 0.999966 0.007377
vn -0.003673 0.999966 0.007377
vn -0.003673 0.999966 0.007377
vn -0.003673 0.999966 -0.007377
vn -0.003673 0.999966 -0.007377
vn -0.003673 0.999966 -0.007377
vn -0.003673 0.999966 -0.007377
vn -0.003679 0.999966 -0.007374
vn -0.003679 0.999966 -0.007374
vn -0.003679 0.999966 -0.007374
vn -0.003679 0.999966 -0.007374
vn 0.000000 0.000000 1.000000
vn 0.000000 0.000000 1.000000
vn 0.000000 0.000000 1.000000
vn 0.000000 0.000000 1.000000
vn 0.003673 0.999966 -0.007377
vn 0.003673 0.999966 -0.007377
vn 0.003673 0.999966 -0.007377
vn 0.003673 0.999966 -0.007377
vn 0.003673 0.999966 0.007377
vn 0.003673 0.999966 0.007377
vn 0.003673 0.999966 0.007377
vn 0.003673 0.999966 0.007377
vn 0.003679 0.999966 -0.007374
vn 0.003679 0.999966 -0.007374
vn 0.003679 0.999966 -0.007374
vn 0.003679 0.999966 -0.007374
vn 0.003679 0.999966 0.007374
vn 0.003679 0.999966 0.007374
vn 0.003679 0.999966 0.007374
vn 0.003679 0.999966 0.007374
vn 0.000000 0.000000 -1.000000
vn 0.000000 0.000000 -1.000000
vn 0.000000 0.000000 -1.000000
vn 0.000000 0.000000 -1.000000
vn 0.000000 0.000000 1.000000
vn 0.000000 0.000000 1.000000
vn 0.000000 0.000000 1.000000
vn 0.000000 0.000000 1.000000
vn 0.003991 0.999965 -0.007377
vn 0.003991 0.999965 -0.007377
vn 0.003991 0.999965 -0.007377
vn 0.003991 0.999965 -0.007377
vn 0.003991 0.999965 0.007377
vn 0.003991 0.999965 0.007377
vn 0.003991 0.999965 0.007377
vn 0.003991 0.999965 0.007377
vn 0.003998 0.999965 -0.007374
vn 0.003998 0.999965 -0.007374
vn 0.003998 0.999965 -0.007374
vn 0.003998 0.999965 -0.007374
vn 0.003998 0.999965 0.007374
vn 0.003998 0.999965 0.007374
vn 0.003998 0.999965 0.007374
vn 0.003998 0.999965 0.007374
vn 0.000000 0.000000 -1.000000
vn 0.000000 0.000000 -1.000000
vn 0.000000 0.000000 -1.000000
vn 0.000000 0.000000 -1.000000
vn 0.000000 0.000000 1.000000
vn 0.000000 0.000000 1.000000
vn 0.000000 0.000000 1.000000
vn 0.000000 0.000000 1.000000
vn -0.003991 0.999965 -0.007377
vn -0.003991 0.999965 -0.007377
vn -0.003991 0.999965 -0.007377
vn -0.003991 0.999965 -0.007377
vn -0.003991 0.999965 0.007377
vn -0.003991 0.999965 0.007377
vn -0.003991 0.999965 0.007377
vn -0.003991 0.999965 0.007377
vn -0.003998 0.999965 -0.007374
vn -0.003998 0.999965 -0.007374
vn -0.003998 0.999965 -0.007374
vn -0.003998 0.999965 -0.007374
vn -0.003998 0.999965 0.007374
vn -0.003998 0.999965 0.007374
vn -0.003998 0.999965 0.007374
vn -0.003998 0.999965 0.007374
vn -0.000000 0.000000 -1.000000
vn -0.000000 0.000000 -1.000000
vn -0.000000 0.000000 -1.000000
vn -0.000000 0.000000 -1.000000
s off
f 10/9/1 18/18/2 35/35/3 36/36/4
f 14/13/5 22/22/6 38/38/7 39/39/8
f 8/8/9 17/17/10 18/18/11 10/9/12
f 3/3/13 33/33/14 34/34/15 9/10/16
f 20/20/17 7/7/18 12/12/19 19/19/20
f 4/4/21 21/21/22 22/22/23 14/13/24
f 24/24/25 2/2/26 16/16/27 23/23/28
f 40/40/29 4/4/30 14/13/31 39/39/32
f 17/17/33 3/3/34 9/10/35 18/18/36
f 35/35/37 18/18/38 9/10/39 34/34/40
f 1/1/41 20/20/42 19/19/43 11/11/44
f 21/21/45 6/6/46 13/14/47 22/22/48
f 38/38/49 22/22/50 13/14/51 37/37/52
f 5/5/53 24/24/54 23/23/55 15/15/56
f 25/25/57 41/41/58 42/42/59 26/26/60
f 43/43/61 27/27/62 26/26/63 42/42/64
f 28/28/65 27/27/66 43/43/67 44/44/68
f 46/46/69 30/30/70 29/29/71 45/45/72
f 31/31/73 30/30/74 46/46/75 47/47/76
f 48/48/77 32/32/78 31/31/79 47/47/80
f 33/33/81 25/25/82 26/26/83 34/34/84
f 27/27/85 35/35/86 34/34/87 26/26/88
f 36/36/89 35/35/90 27/27/91 28/28/92
f 30/30/93 38/38/94 37/37/95 29/29/96
f 39/39/97 38/38/98 30/30/99 31/31/100
f 32/32/101 40/40/102 39/39/103 31/31/104
f 41/41/105 1/1/106 11/11/107 42/42/108
f 19/19/109 43/43/110 42/42/111 11/11/112
f 44/44/113 43/43/114 19/19/115 12/12/116
f 23/23/117 46/46/118 45/45/119 15/15/120
f 47/47/121 46/46/122 23/23/123 16/16/124
f 2/2/125 48/48/126 47/47/127 16/16/128
f 61/49/129 62/50/130 5/51/131 15/52/132
f 60/53/133 61/49/134 15/52/135 45/54/136
f 13/55/137 6/56/138 56/57/139 57/58/140
f 58/59/141 59/60/142 29/61/143 37/62/144
f 13/55/145 57/58/146 58/59/147 37/62/148
f 29/61/149 59/60/150 60/53/151 45/54/152
f 50/63/153 49/64/154 8/65/155 10/66/156
f 51/67/157 50/63/158 10/66/159 36/68/160
f 36/68/161 28/69/162 52/70/163 51/67/164
f 53/71/165 52/70/166 28/69/167 44/72/168
f 44/72/169 12/73/170 54/74/171 53/71/172
f 12/73/173 7/75/174 55/76/175 54/74/176
f 57/58/177 56/57/178 63/77/179 64/78/180
f 58/59/181 57/58/182 64/78/183 65/79/184
f 65/79/185 66/80/186 59/60/187 58/59/188
f 60/53/189 59/60/190 66/80/191 67/81/192
f 67/81/193 68/82/194 61/49/195 60/53/196
f 68/82/197 69/83/198 62/50/199 61/49/200
f 64/78/201 63/77/202 49/64/203 50/63/204
f 65/79/205 64/78/206 50/63/207 51/67/208
f 51/67/209 52/70/210 66/80/211 65/79/212
f 67/81/213 66/80/214 52/70/215 53/71/216
f 53/71/217 54/74/218 68/82/219 67/81/220
f 54/74/221 55/76/222 69/83/223 68/82/224
