# This file uses centimeters as units for non-parametric coordinates.

v 0.323180 0.122038 0.043941
v 0.323180 1.078235 0.043941
v 0.323180 1.078235 0.006166
v 0.323180 0.122038 0.006166
v -0.327563 0.122038 0.006166
v -0.327563 0.122038 0.043941
v -0.327563 1.078235 0.043941
v -0.327563 1.078235 0.006166
vt 0.508002 0.253383
vt 0.508002 0.253383
vt 0.508002 0.253383
vt 0.508002 0.253383
vt 0.508002 0.253383
vt 0.508002 0.253383
vt 0.508002 0.253383
vt 0.508002 0.253383
vt 0.334605 0.748281
vt 0.334605 0.503422
vt 0.498125 0.503422
vt 0.498125 0.748281
vt 0.508002 0.253383
vt 0.508002 0.253383
vt 0.508002 0.253383
vt 0.502935 0.250004
vt 0.502935 0.250004
vt 0.502935 0.250004
vt 0.502935 0.250004
vn 1.000000 0.000000 0.000000
vn 1.000000 0.000000 0.000000
vn 1.000000 0.000000 0.000000
vn 1.000000 0.000000 0.000000
vn 0.000000 -1.000000 0.000000
vn 0.000000 -1.000000 0.000000
vn 0.000000 -1.000000 0.000000
vn 0.000000 -1.000000 0.000000
vn 0.000000 0.000000 1.000000
vn 0.000000 0.000000 1.000000
vn 0.000000 0.000000 1.000000
vn 0.000000 0.000000 1.000000
vn 0.000000 1.000000 0.000000
vn 0.000000 1.000000 0.000000
vn 0.000000 1.000000 0.000000
vn 0.000000 1.000000 0.000000
vn 0.000000 0.000000 -1.000000
vn 0.000000 0.000000 -1.000000
vn 0.000000 0.000000 -1.000000
vn 0.000000 0.000000 -1.000000
vn -1.000000 0.000000 0.000000
vn -1.000000 0.000000 0.000000
vn -1.000000 0.000000 0.000000
vn -1.000000 0.000000 0.000000
s off
f 1/1/1 4/2/2 3/3/3 2/4/4
f 6/5/5 5/6/6 4/7/7 1/8/8
f 7/9/9 6/10/10 1/11/11 2/12/12
f 8/13/13 7/14/14 2/4/15 3/15/16
f 5/6/17 8/13/18 3/15/19 4/7/20
f 6/16/21 7/17/22 8/18/23 5/19/24
