# This file uses centimeters as units for non-parametric coordinates.

v -0.150299 -0.775473 0.026935
v 0.150299 -0.775473 0.026935
v -0.150299 0.775473 0.026935
v 0.150299 0.775473 0.026935
v -0.150299 0.775473 -0.026935
v 0.150299 0.775473 -0.026935
v -0.150299 -0.775473 -0.026935
v 0.150299 -0.775473 -0.026935
v 0.066985 -0.775473 0.067192
v 0.066985 0.775473 0.067192
v 0.066985 0.775473 -0.067192
v 0.066985 -0.775473 -0.067192
v -0.066984 0.775473 -0.067192
v -0.066984 0.775473 0.067192
v -0.066984 -0.775473 0.067192
v -0.066984 -0.775473 -0.067192
v 0.058673 -0.705343 0.069770
v 0.058673 0.705343 0.069770
v -0.058673 0.705343 0.069770
v -0.058673 -0.705343 0.069770
v 0.114166 -0.705343 0.036249
v 0.114166 0.705343 0.036249
v -0.114166 -0.705343 0.036249
v -0.114166 0.705343 0.036249
v 0.058673 0.705343 -0.069770
v 0.058673 -0.705343 -0.069770
v -0.058673 -0.705343 -0.069770
v -0.058673 0.705343 -0.069770
v 0.114166 0.705343 -0.036250
v 0.114166 -0.705343 -0.036250
v -0.114166 0.705343 -0.036250
v -0.114166 -0.705343 -0.036250
vt 0.293885 0.444748
vt 0.293885 0.444748
vt 0.293885 0.444748
vt 0.293885 0.444748
vt 0.293885 0.444748
vt 0.293885 0.444748
vt 0.293885 0.444748
vt 0.293885 0.444748
vt 0.293885 0.444748
vt 0.293885 0.444748
vt 0.293885 0.444748
vt 0.293885 0.444748
vt 0.293885 0.444748
vt 0.293885 0.444748
vt 0.293885 0.444748
vt 0.293885 0.444748
vt 0.293885 0.444748
vt 0.293885 0.444748
vt 0.293885 0.444748
vt 0.293885 0.444748
vt 0.293885 0.444748
vt 0.293885 0.444748
vt 0.293885 0.444748
vt 0.293885 0.444748
vt 0.293885 0.444748
vt 0.293885 0.444748
vt 0.293885 0.444748
vt 0.293885 0.444748
vt 0.293885 0.444748
vt 0.293885 0.444748
vt 0.293885 0.444748
vt 0.293885 0.444748
vt 0.293885 0.444748
vt 0.293885 0.444748
vt 0.293885 0.444748
vt 0.293885 0.444748
vt 0.293885 0.444748
vt 0.293885 0.444748
vt 0.293885 0.444748
vt 0.293885 0.444748
vt 0.293885 0.444748
vt 0.293885 0.444748
vt 0.293885 0.444748
vt 0.293885 0.444748
vt 0.293885 0.444748
vt 0.293885 0.444748
vt 0.293885 0.444748
vt 0.293885 0.444748
vt 0.293885 0.444748
vt 0.293885 0.444748
vt 0.293885 0.444748
vt 0.293885 0.444748
vt 0.293885 0.444748
vt 0.293885 0.444748
vt 0.293885 0.444748
vt 0.293885 0.444748
vt 0.022076 0.527093
vt 0.022076 0.707802
vt 0.013623 0.707802
vt 0.013623 0.527093
vt 0.013654 0.707802
vt 0.013654 0.527093
vt 0.022046 0.527093
vt 0.022046 0.707802
vt 0.026839 0.527093
vt 0.026839 0.707802
vt 0.008925 0.707802
vt 0.008925 0.527093
vt 0.008860 0.527093
vt 0.008860 0.707802
vt 0.026775 0.707802
vt 0.026775 0.527093
vt 0.293885 0.444748
vt 0.293885 0.444748
vt 0.293885 0.444748
vt 0.293885 0.444748
vt 0.293885 0.444748
vt 0.293885 0.444748
vt 0.293885 0.444748
vt 0.293885 0.444748
vt 0.293885 0.444748
vt 0.293885 0.444748
vt 0.293885 0.444748
vt 0.293885 0.444748
vt 0.293885 0.444748
vt 0.293885 0.444748
vt 0.293885 0.444748
vt 0.293885 0.444748
vt 0.293885 0.444748
vt 0.293885 0.444748
vt 0.293885 0.444748
vt 0.293885 0.444748
vt 0.293885 0.444748
vt 0.293885 0.444748
vt 0.293885 0.444748
vt 0.293885 0.444748
vt 0.293885 0.444748
vt 0.293885 0.444748
vn 0.189222 0.000105 0.981934
vn 0.189223 -0.000105 0.981934
vn -0.189222 -0.000105 0.981934
vn -0.189222 0.000105 0.981934
vn 0.000000 1.000000 0.000000
vn 0.000000 1.000000 0.000000
vn 0.000000 1.000000 0.000000
vn 0.000000 1.000000 0.000000
vn 0.189221 -0.000106 -0.981935
vn 0.189221 0.000106 -0.981935
vn -0.189221 0.000106 -0.981935
vn -0.189221 -0.000106 -0.981935
vn 0.000000 -1.000000 0.000000
vn 0.000000 -1.000000 0.000000
vn 0.000000 -1.000000 0.000000
vn 0.000000 -1.000000 0.000000
vn 1.000000 0.000000 0.000000
vn 1.000000 0.000000 0.000000
vn 1.000000 0.000000 0.000000
vn 1.000000 0.000000 0.000000
vn -1.000000 0.000000 0.000000
vn -1.000000 0.000000 0.000000
vn -1.000000 0.000000 0.000000
vn -1.000000 0.000000 0.000000
vn 0.189223 -0.000105 0.981934
vn 0.189222 0.000105 0.981934
vn 0.389272 0.002780 0.921119
vn 0.389272 -0.002780 0.921119
vn 0.000000 1.000000 0.000000
vn 0.000000 1.000000 0.000000
vn 0.000000 1.000000 0.000000
vn 0.000000 1.000000 0.000000
vn 0.189221 0.000106 -0.981935
vn 0.189221 -0.000106 -0.981935
vn 0.389273 -0.002780 -0.921118
vn 0.389273 0.002780 -0.921118
vn 0.000000 -1.000000 0.000000
vn 0.000000 -1.000000 0.000000
vn 0.000000 -1.000000 0.000000
vn 0.000000 -1.000000 0.000000
vn 0.000000 1.000000 0.000000
vn 0.000000 1.000000 0.000000
vn 0.000000 1.000000 0.000000
vn 0.000000 1.000000 0.000000
vn -0.389271 0.002780 0.921119
vn -0.189222 0.000105 0.981934
vn -0.189222 -0.000105 0.981934
vn -0.389271 -0.002780 0.921119
vn 0.000000 -1.000000 0.000000
vn 0.000000 -1.000000 0.000000
vn 0.000000 -1.000000 0.000000
vn 0.000000 -1.000000 0.000000
vn -0.389273 -0.002780 -0.921118
vn -0.189221 -0.000106 -0.981935
vn -0.189221 0.000106 -0.981935
vn -0.389273 0.002780 -0.921118
vn 0.203743 -0.010156 0.978972
vn -0.203742 -0.010156 0.978972
vn -0.189222 -0.000105 0.981934
vn 0.189223 -0.000105 0.981934
vn -0.203742 0.010156 0.978972
vn 0.203743 0.010156 0.978972
vn 0.189222 0.000105 0.981934
vn -0.189222 0.000105 0.981934
vn 0.203743 0.010156 0.978972
vn 0.290842 0.013511 0.956676
vn 0.389272 0.002780 0.921119
vn 0.189222 0.000105 0.981934
vn 0.290842 0.013511 0.956676
vn 0.290843 -0.013511 0.956675
vn 0.389272 -0.002780 0.921119
vn 0.389272 0.002780 0.921119
vn 0.290843 -0.013511 0.956675
vn 0.203743 -0.010156 0.978972
vn 0.189223 -0.000105 0.981934
vn 0.389272 -0.002780 0.921119
vn -0.290842 0.013510 0.956676
vn -0.203742 0.010156 0.978972
vn -0.189222 0.000105 0.981934
vn -0.389271 0.002780 0.921119
vn -0.203742 -0.010156 0.978972
vn -0.290843 -0.013511 0.956676
vn -0.389271 -0.002780 0.921119
vn -0.189222 -0.000105 0.981934
vn -0.290843 -0.013511 0.956676
vn -0.290842 0.013510 0.956676
vn -0.389271 0.002780 0.921119
vn -0.389271 -0.002780 0.921119
vn 0.203743 0.010159 -0.978972
vn -0.203742 0.010159 -0.978972
vn -0.189221 0.000106 -0.981935
vn 0.189221 0.000106 -0.981935
vn -0.203742 -0.010159 -0.978972
vn 0.203743 -0.010159 -0.978972
vn 0.189221 -0.000106 -0.981935
vn -0.189221 -0.000106 -0.981935
vn 0.203743 -0.010159 -0.978972
vn 0.290850 -0.013511 -0.956674
vn 0.389273 -0.002780 -0.921118
vn 0.189221 -0.000106 -0.981935
vn 0.290850 -0.013511 -0.956674
vn 0.290849 0.013511 -0.956674
vn 0.389273 0.002780 -0.921118
vn 0.389273 -0.002780 -0.921118
vn 0.290849 0.013511 -0.956674
vn 0.203743 0.010159 -0.978972
vn 0.189221 0.000106 -0.981935
vn 0.389273 0.002780 -0.921118
vn -0.290849 -0.013510 -0.956674
vn -0.203742 -0.010159 -0.978972
vn -0.189221 -0.000106 -0.981935
vn -0.389273 -0.002780 -0.921118
vn -0.203742 0.010159 -0.978972
vn -0.290848 0.013510 -0.956674
vn -0.389273 0.002780 -0.921118
vn -0.189221 0.000106 -0.981935
vn -0.290848 0.013510 -0.956674
vn -0.290849 -0.013510 -0.956674
vn -0.389273 -0.002780 -0.921118
vn -0.389273 0.002780 -0.921118
s off
f 17/57/1 18/58/2 19/59/3 20/60/4
f 10/27/5 11/30/6 13/34/7 14/35/8
f 25/61/9 26/62/10 27/63/11 28/64/12
f 12/31/13 9/26/14 15/38/15 16/39/16
f 2/17/17 8/18/18 6/19/19 4/20/20
f 7/21/21 1/22/22 3/23/23 5/24/24
f 18/58/25 17/57/26 21/65/27 22/66/28
f 11/30/29 10/27/30 4/6/31 6/7/32
f 26/62/33 25/61/34 29/67/35 30/68/36
f 9/26/37 12/31/38 8/14/39 2/15/40
f 3/5/41 14/35/42 13/34/43 5/8/44
f 23/69/45 20/60/46 19/59/47 24/70/48
f 7/13/49 16/39/50 15/38/51 1/16/52
f 31/71/53 28/64/54 27/63/55 32/72/56
f 10/28/57 14/36/58 19/42/59 18/41/60
f 15/37/61 9/25/62 17/44/63 20/43/64
f 9/32/65 2/40/66 21/46/67 17/45/68
f 2/33/69 4/29/70 22/48/71 21/47/72
f 4/73/73 10/2/74 18/49/75 22/74/76
f 1/75/77 15/3/78 20/50/79 23/76/80
f 14/77/81 3/78/82 24/79/83 19/80/84
f 3/81/85 1/10/86 23/51/87 24/82/88
f 12/83/89 16/11/90 27/52/91 26/84/92
f 13/85/93 11/86/94 25/87/95 28/88/96
f 11/1/97 6/89/98 29/90/99 25/53/100
f 6/91/101 8/4/102 30/54/103 29/92/104
f 8/4/105 12/93/106 26/94/107 30/54/108
f 5/9/109 13/95/110 28/96/111 31/55/112
f 16/97/113 7/12/114 32/56/115 27/98/116
f 7/12/117 5/9/118 31/55/119 32/56/120
