# This file uses centimeters as units for non-parametric coordinates.

v 0.049166 2.570306 0.008337
v 0.225376 2.570306 0.008337
v 0.049166 2.604839 0.008337
v 0.225376 2.604839 0.008337
v 0.049166 2.604839 -0.035593
v 0.253226 2.604839 -0.035593
v 0.049166 2.570306 -0.035593
v 0.253226 2.570306 -0.035593
v 0.253226 2.570306 0.116140
v 0.225376 2.570306 0.116140
v 0.253226 2.604839 0.116140
v 0.225376 2.604839 0.116140
v 0.049166 2.705173 0.008337
v 0.225376 2.705173 0.008337
v 0.049166 2.739707 0.008337
v 0.225376 2.739707 0.008337
v 0.049166 2.739707 -0.035593
v 0.253226 2.739707 -0.035593
v 0.049166 2.705173 -0.035593
v 0.253226 2.705173 -0.035593
v 0.253226 2.705173 0.116140
v 0.225376 2.705173 0.116140
v 0.253226 2.739707 0.116140
v 0.225376 2.739707 0.116140
v 0.030573 2.471003 0.279039
v 0.448029 2.471003 0.279039
v 0.030573 2.833318 0.279039
v 0.448029 2.833318 0.279039
v 0.030573 2.833318 0.221945
v 0.448029 2.833318 0.221945
v 0.030573 2.471003 0.221945
v 0.448029 2.471003 0.221945
v 0.044024 2.484453 0.279039
v 0.434578 2.484453 0.279039
v 0.434578 2.819866 0.279039
v 0.044024 2.819866 0.279039
v 0.056848 2.497277 0.263697
v 0.421754 2.497277 0.263697
v 0.421754 2.807043 0.263697
v 0.056848 2.807043 0.263697
v 0.067446 2.850899 0.279039
v 0.067446 2.850899 0.221945
v 0.012992 2.796444 0.221945
v 0.012992 2.796444 0.279039
v 0.012992 2.507875 0.279039
v 0.012992 2.507875 0.221945
v 0.067446 2.453421 0.221945
v 0.067446 2.453421 0.279039
v 0.411156 2.453421 0.279039
v 0.411156 2.453421 0.221945
v 0.465610 2.507875 0.221945
v 0.465610 2.507875 0.279039
v 0.411156 2.850899 0.279039
v 0.411156 2.850899 0.221945
v 0.465609 2.796444 0.221945
v 0.465609 2.796444 0.279039
v 0.075503 2.515932 0.263697
v 0.403099 2.515932 0.263697
v 0.403099 2.788387 0.263697
v 0.075503 2.788387 0.263697
v 0.249068 2.788387 0.263697
v 0.249068 2.515932 0.263697
v 0.229534 2.788387 0.263697
v 0.229534 2.515932 0.263697
v 0.160018 2.817092 0.221945
v 0.134897 2.770772 0.221945
v 0.318583 2.817092 0.221945
v 0.343705 2.770772 0.221945
v 0.343705 2.533548 0.221945
v 0.318583 2.487228 0.221945
v 0.160018 2.487228 0.221945
v 0.134897 2.533548 0.221945
v 0.160018 2.817092 0.156918
v 0.134897 2.770772 0.156918
v 0.318583 2.817092 0.156918
v 0.343705 2.770772 0.156918
v 0.343705 2.533548 0.156918
v 0.318583 2.487228 0.156918
v 0.160018 2.487228 0.156918
v 0.134897 2.533548 0.156918
v 0.268851 2.752775 0.156918
v 0.209751 2.752775 0.156918
v 0.268851 2.551546 0.156918
v 0.209751 2.551546 0.156918
v 0.268851 2.752775 0.116142
v 0.209751 2.752775 0.116142
v 0.268851 2.551546 0.116142
v 0.209751 2.551546 0.116142
vt 0.097011 0.210609
vt 0.097011 0.210609
vt 0.097011 0.210609
vt 0.097011 0.210609
vt 0.097011 0.210609
vt 0.097011 0.210609
vt 0.097011 0.210609
vt 0.097011 0.210609
vt 0.097011 0.210609
vt 0.097011 0.210609
vt 0.097011 0.210609
vt 0.097011 0.210609
vt 0.097011 0.210609
vt 0.097011 0.210609
vt 0.097011 0.210609
vt 0.097011 0.210609
vt 0.097011 0.210609
vt 0.097011 0.210609
vt 0.097011 0.210609
vt 0.097011 0.210609
vt 0.097011 0.210609
vt 0.097011 0.210609
vt 0.097011 0.210609
vt 0.097011 0.210609
vt 0.097011 0.210609
vt 0.097011 0.210609
vt 0.097011 0.210609
vt 0.097011 0.210609
vt 0.097011 0.210609
vt 0.097011 0.210609
vt 0.097011 0.210609
vt 0.097011 0.210609
vt 0.257415 0.752280
vt 0.257415 0.676088
vt 0.302737 0.676088
vt 0.302737 0.752280
vt 0.096207 0.210259
vt 0.096207 0.210259
vt 0.096207 0.210259
vt 0.096207 0.210259
vt 0.096207 0.210259
vt 0.096207 0.210259
vt 0.096207 0.210259
vt 0.096207 0.210259
vt 0.096207 0.210259
vt 0.096207 0.210259
vt 0.096207 0.210259
vt 0.096207 0.210259
vt 0.096207 0.210259
vt 0.096207 0.210259
vt 0.096207 0.210259
vt 0.096207 0.210259
vt 0.096207 0.210259
vt 0.096207 0.210259
vt 0.096207 0.210259
vt 0.096207 0.210259
vt 0.096207 0.210259
vt 0.096207 0.210259
vt 0.096207 0.210259
vt 0.096207 0.210259
vt 0.096207 0.210259
vt 0.096207 0.210259
vt 0.096207 0.210259
vt 0.096207 0.210259
vt 0.096207 0.210259
vt 0.096207 0.210259
vt 0.096207 0.210259
vt 0.096207 0.210259
vt 0.096207 0.210259
vt 0.096207 0.210259
vt 0.096207 0.210259
vt 0.096207 0.210259
vt 0.096207 0.210259
vt 0.096207 0.210259
vt 0.096207 0.210259
vt 0.096207 0.210259
vt 0.096207 0.210259
vt 0.096207 0.210259
vt 0.096207 0.210259
vt 0.096207 0.210259
vt 0.096207 0.210259
vt 0.096207 0.210259
vt 0.096207 0.210259
vt 0.096207 0.210259
vt 0.089531 0.229735
vt 0.089531 0.229735
vt 0.089531 0.229735
vt 0.089531 0.229735
vt 0.089531 0.229735
vt 0.089531 0.229735
vt 0.091734 0.229427
vt 0.091734 0.229427
vt 0.091734 0.229427
vt 0.091734 0.229427
vt 0.091734 0.229427
vt 0.091734 0.229427
vt 0.091734 0.229427
vt 0.091734 0.229427
vt 0.091734 0.229427
vt 0.091734 0.229427
vt 0.089531 0.229735
vt 0.089531 0.229735
vt 0.089531 0.229735
vt 0.089531 0.229735
vt 0.212246 0.676088
vt 0.257568 0.676088
vt 0.257568 0.752280
vt 0.212246 0.752280
vt 0.096207 0.210259
vt 0.096207 0.210259
vt 0.096207 0.210259
vt 0.096207 0.210259
vt 0.096207 0.210259
vt 0.096207 0.210259
vt 0.096207 0.210259
vt 0.096207 0.210259
vt 0.096207 0.210259
vt 0.096207 0.210259
vt 0.096207 0.210259
vt 0.096207 0.210259
vt 0.102994 0.229307
vt 0.102994 0.229307
vt 0.102994 0.229307
vt 0.102994 0.229307
vt 0.096207 0.210259
vt 0.096207 0.210259
vt 0.096207 0.210259
vt 0.096207 0.210259
vt 0.102994 0.229307
vt 0.102994 0.229307
vt 0.102994 0.229307
vt 0.102994 0.229307
vn 0.000000 0.000000 1.000000
vn 0.000000 0.000000 1.000000
vn 0.000000 0.000000 1.000000
vn 0.000000 0.000000 1.000000
vn 0.000000 1.000000 0.000000
vn 0.000000 1.000000 0.000000
vn 0.000000 1.000000 0.000000
vn 0.000000 1.000000 0.000000
vn 0.000000 0.000000 -1.000000
vn 0.000000 0.000000 -1.000000
vn 0.000000 0.000000 -1.000000
vn 0.000000 0.000000 -1.000000
vn 0.000000 -1.000000 0.000004
vn 0.000000 -1.000000 0.000004
vn 0.000000 -1.000000 0.000004
vn 0.000000 -1.000000 0.000004
vn 0.000000 -1.000000 0.000000
vn 0.000000 -1.000000 0.000000
vn 0.000000 -1.000000 0.000000
vn 0.000000 -1.000000 0.000000
vn 1.000000 0.000000 0.000000
vn 1.000000 0.000000 0.000000
vn 1.000000 0.000000 0.000000
vn 1.000000 0.000000 0.000000
vn 0.000000 1.000000 0.000000
vn 0.000000 1.000000 0.000000
vn 0.000000 1.000000 0.000000
vn 0.000000 1.000000 0.000000
vn -1.000000 0.000000 0.000000
vn -1.000000 0.000000 0.000000
vn -1.000000 0.000000 0.000000
vn -1.000000 0.000000 0.000000
vn 0.000000 0.000000 1.000000
vn 0.000000 0.000000 1.000000
vn 0.000000 0.000000 1.000000
vn 0.000000 0.000000 1.000000
vn 0.000000 1.000000 0.000000
vn 0.000000 1.000000 0.000000
vn 0.000000 1.000000 0.000000
vn 0.000000 1.000000 0.000000
vn 0.000000 0.000000 -1.000000
vn 0.000000 0.000000 -1.000000
vn 0.000000 0.000000 -1.000000
vn 0.000000 0.000000 -1.000000
vn 0.000000 -1.000000 0.000000
vn 0.000000 -1.000000 0.000000
vn 0.000000 -1.000000 0.000000
vn 0.000000 -1.000000 0.000000
vn 0.000000 -1.000000 0.000000
vn 0.000000 -1.000000 0.000000
vn 0.000000 -1.000000 0.000000
vn 0.000000 -1.000000 0.000000
vn 1.000000 0.000000 0.000000
vn 1.000000 0.000000 0.000000
vn 1.000000 0.000000 0.000000
vn 1.000000 0.000000 0.000000
vn 0.000000 1.000000 0.000000
vn 0.000000 1.000000 0.000000
vn 0.000000 1.000000 0.000000
vn 0.000000 1.000000 0.000000
vn -1.000000 0.000000 0.000000
vn -1.000000 0.000000 0.000000
vn -1.000000 0.000000 0.000000
vn -1.000000 0.000000 0.000000
vn 0.000000 0.000000 1.000000
vn 0.000000 0.000000 1.000000
vn 0.000000 0.000000 1.000000
vn 0.000000 0.000000 1.000000
vn -0.430376 0.902650 0.000000
vn -0.430376 0.902650 0.000000
vn -0.430376 0.902650 0.000000
vn -0.430376 0.902650 0.000000
vn 0.000000 0.000000 -1.000000
vn 0.000000 0.000000 -1.000000
vn 0.000000 0.000000 -1.000000
vn -0.430385 -0.902645 0.000000
vn -0.430385 -0.902645 0.000000
vn -0.430385 -0.902645 0.000000
vn -0.430385 -0.902645 0.000000
vn 0.902649 -0.430379 0.000000
vn 0.902649 -0.430379 0.000000
vn 0.902649 -0.430379 0.000000
vn 0.902649 -0.430379 0.000000
vn -0.902652 0.430371 0.000000
vn -0.902652 0.430371 0.000000
vn -0.902652 0.430371 0.000000
vn -0.902652 0.430371 0.000000
vn -0.000001 0.000000 1.000000
vn -0.000001 0.000000 1.000000
vn -0.000001 0.000000 1.000000
vn 0.000001 0.000000 1.000000
vn 0.000001 0.000000 1.000000
vn 0.000001 0.000000 1.000000
vn -0.000001 0.000000 1.000000
vn -0.000001 0.000000 1.000000
vn -0.000001 0.000000 1.000000
vn -0.000001 0.000000 1.000000
vn -0.000001 0.000000 1.000000
vn -0.000001 0.000000 1.000000
vn 0.000000 0.767281 0.641311
vn 0.000000 0.767281 0.641311
vn 0.000000 0.767281 0.641311
vn 0.000000 0.767281 0.641311
vn -0.767280 -0.000000 0.641312
vn -0.767280 -0.000000 0.641312
vn -0.767280 -0.000000 0.641312
vn -0.767280 -0.000000 0.641312
vn 0.000000 -0.767315 0.641271
vn 0.000000 -0.767315 0.641271
vn 0.000000 -0.767315 0.641271
vn 0.000000 -0.767315 0.641271
vn 0.767279 0.000000 0.641313
vn 0.767279 0.000000 0.641313
vn 0.767279 0.000000 0.641313
vn 0.767279 0.000000 0.641313
vn 0.000000 0.000000 1.000000
vn 0.000000 0.000000 1.000000
vn 0.000000 0.000000 1.000000
vn 0.000000 0.000000 1.000000
vn 0.000000 1.000000 0.000000
vn 0.000000 1.000000 0.000000
vn 0.000000 1.000000 0.000000
vn 0.000000 1.000000 0.000000
vn -0.000002 0.000000 -1.000000
vn -0.000002 0.000000 -1.000000
vn -0.000002 0.000000 -1.000000
vn -0.902649 -0.430377 0.000000
vn -0.902649 -0.430377 0.000000
vn -0.902649 -0.430377 0.000000
vn -0.902649 -0.430377 0.000000
vn -0.000001 0.000000 1.000000
vn -0.000001 0.000000 1.000000
vn -0.000001 0.000000 1.000000
vn 0.000000 0.000000 1.000000
vn 0.000000 0.000000 1.000000
vn 0.000000 0.000000 1.000000
vn 0.000000 0.000000 1.000000
vn -1.000000 0.000000 0.000000
vn -1.000000 0.000000 0.000000
vn -1.000000 0.000000 0.000000
vn -1.000000 0.000000 0.000000
vn 0.000001 0.000000 -1.000000
vn 0.000001 0.000000 -1.000000
vn 0.000001 0.000000 -1.000000
vn 0.430385 -0.902645 0.000000
vn 0.430385 -0.902645 0.000000
vn 0.430385 -0.902645 0.000000
vn 0.430385 -0.902645 0.000000
vn 0.000001 0.000000 1.000000
vn 0.000001 0.000000 1.000000
vn 0.000001 0.000000 1.000000
vn 0.000000 0.000000 1.000000
vn 0.000000 0.000000 1.000000
vn 0.000000 0.000000 1.000000
vn 0.000000 0.000000 1.000000
vn 0.000000 -1.000000 0.000000
vn 0.000000 -1.000000 0.000000
vn 0.000000 -1.000000 0.000000
vn 0.000000 -1.000000 0.000000
vn 0.000000 0.000000 -1.000000
vn 0.000000 0.000000 -1.000000
vn 0.000000 0.000000 -1.000000
vn 0.000000 0.000000 -1.000000
vn 1.000000 0.000001 0.000000
vn 1.000000 0.000001 0.000000
vn 1.000000 0.000001 0.000000
vn 1.000000 0.000001 0.000000
vn 0.000000 0.000000 1.000000
vn 0.000000 0.000000 1.000000
vn 0.000000 0.000000 1.000000
vn 0.000000 0.000000 1.000000
vn 0.000001 0.000000 1.000000
vn 0.000001 0.000000 1.000000
vn 0.000001 0.000000 1.000000
vn 0.430375 0.902650 0.000000
vn 0.430375 0.902650 0.000000
vn 0.430375 0.902650 0.000000
vn 0.430375 0.902650 0.000000
vn 0.000000 0.000000 -1.000000
vn 0.000000 0.000000 -1.000000
vn 0.000000 0.000000 -1.000000
vn 0.902653 0.430369 0.000000
vn 0.902653 0.430369 0.000000
vn 0.902653 0.430369 0.000000
vn 0.902653 0.430369 0.000000
vn 0.000001 0.000000 1.000000
vn 0.000001 0.000000 1.000000
vn 0.000001 0.000000 1.000000
vn 0.000000 0.000000 1.000000
vn 0.000000 0.000000 1.000000
vn 0.000000 0.000000 1.000000
vn 0.000000 0.000000 1.000000
vn 0.000000 0.000000 1.000000
vn 0.000000 0.000000 1.000000
vn -0.000001 0.000000 1.000000
vn -0.000001 0.000000 1.000000
vn -0.000001 0.000000 1.000000
vn -0.000001 0.000000 1.000000
vn 0.000000 0.000000 1.000000
vn 0.000000 0.000000 1.000000
vn 0.000000 0.000000 1.000000
vn 0.000000 0.000000 1.000000
vn 0.000000 0.000000 1.000000
vn 0.000000 0.000000 1.000000
vn 0.000001 0.000000 1.000000
vn 0.000001 0.000000 1.000000
vn 0.000001 0.000000 1.000000
vn 0.000001 0.000000 1.000000
vn 0.000000 0.000000 1.000000
vn 0.000000 0.000000 1.000000
vn 0.000000 0.000000 1.000000
vn 0.000000 0.000000 1.000000
vn 0.000000 0.000000 1.000000
vn 0.000000 0.000000 1.000000
vn 0.000000 0.000000 1.000000
vn 0.000000 0.000000 1.000000
vn 0.000000 0.000000 -1.000000
vn 0.000000 0.000000 -1.000000
vn 0.000000 0.000000 -1.000000
vn 0.000000 0.000000 -1.000000
vn 0.000000 0.000000 -1.000000
vn 0.000000 0.000000 -1.000000
vn 0.000000 0.000000 -1.000000
vn 0.000000 0.000000 -1.000000
vn 0.000000 0.000000 -1.000000
vn 0.000000 0.000000 -1.000000
vn 0.000000 0.000000 -1.000000
vn 0.000000 0.000000 -1.000000
vn -0.000000 0.000000 -1.000000
vn -0.000000 0.000000 -1.000000
vn -0.000000 0.000000 -1.000000
vn -0.000000 0.000000 -1.000000
vn -0.000000 0.000000 -1.000000
vn -0.000000 0.000000 -1.000000
vn -0.000000 0.000000 -1.000000
vn -0.000000 0.000000 -1.000000
vn 0.000000 0.000000 -1.000000
vn 0.000000 0.000000 -1.000000
vn 0.000000 0.000000 -1.000000
vn 0.000000 0.000000 -1.000000
vn 0.000000 0.000000 -1.000000
vn 0.000000 0.000000 -1.000000
vn 0.000000 0.000000 -1.000000
vn 0.000000 0.000000 -1.000000
vn 0.000000 0.000000 -1.000000
vn 0.000000 0.000000 -1.000000
vn 0.000000 0.000000 -1.000000
vn 0.000000 0.000000 -1.000000
vn -0.879041 0.476747 0.000000
vn -0.879041 0.476747 0.000000
vn -0.879041 0.476747 0.000000
vn -0.879041 0.476747 0.000000
vn 0.000000 1.000000 0.000000
vn 0.000000 1.000000 0.000000
vn 0.000000 1.000000 0.000000
vn 0.000000 1.000000 0.000000
vn 0.879041 0.476747 0.000000
vn 0.879041 0.476747 0.000000
vn 0.879041 0.476747 0.000000
vn 0.879041 0.476747 0.000000
vn 1.000000 0.000000 0.000000
vn 1.000000 0.000000 0.000000
vn 1.000000 0.000000 0.000000
vn 1.000000 0.000000 0.000000
vn 0.879044 -0.476740 0.000000
vn 0.879044 -0.476740 0.000000
vn 0.879044 -0.476740 0.000000
vn 0.879044 -0.476740 0.000000
vn 0.000000 -1.000000 0.000000
vn 0.000000 -1.000000 0.000000
vn 0.000000 -1.000000 0.000000
vn 0.000000 -1.000000 0.000000
vn -0.879045 -0.476739 0.000000
vn -0.879045 -0.476739 0.000000
vn -0.879045 -0.476739 0.000000
vn -0.879045 -0.476739 0.000000
vn -1.000000 0.000000 0.000000
vn -1.000000 0.000000 0.000000
vn -1.000000 0.000000 0.000000
vn -1.000000 0.000000 0.000000
vn 0.000000 0.000000 -1.000000
vn 0.000000 0.000000 -1.000000
vn 0.000000 0.000000 -1.000000
vn 0.000000 0.000000 -1.000000
vn 0.000000 0.000000 -1.000000
vn 0.000000 0.000000 -1.000000
vn 0.000000 0.000000 -1.000000
vn 0.000000 0.000000 -1.000000
vn 0.000000 0.000000 -1.000000
vn 0.000000 0.000000 -1.000000
vn 0.000000 0.000000 -1.000000
vn 0.000000 0.000000 -1.000000
vn 0.000000 0.000000 -1.000000
vn 0.000000 0.000000 -1.000000
vn 0.000000 0.000000 -1.000000
vn 0.000000 0.000000 -1.000000
vn 0.000000 0.000000 -1.000000
vn 0.000000 0.000000 -1.000000
vn 0.000000 0.000000 -1.000000
vn 0.000000 0.000000 -1.000000
vn -0.000000 0.000000 -1.000000
vn -0.000000 0.000000 -1.000000
vn -0.000000 0.000000 -1.000000
vn -0.000000 0.000000 -1.000000
vn 0.000000 1.000000 0.000000
vn 0.000000 1.000000 0.000000
vn 0.000000 1.000000 0.000000
vn 0.000000 1.000000 0.000000
vn 1.000000 0.000000 0.000000
vn 1.000000 0.000000 0.000000
vn 1.000000 0.000000 0.000000
vn 1.000000 0.000000 0.000000
vn 0.000000 -1.000000 0.000000
vn 0.000000 -1.000000 0.000000
vn 0.000000 -1.000000 0.000000
vn 0.000000 -1.000000 0.000000
vn -1.000000 0.000000 0.000000
vn -1.000000 0.000000 0.000000
vn -1.000000 0.000000 0.000000
vn -1.000000 0.000000 0.000000
s off
f 1/1/1 2/2/2 4/4/3 3/3/4
f 3/3/5 4/4/6 6/6/7 5/5/8
f 5/5/9 6/6/10 8/8/11 7/7/12
f 7/7/13 8/8/14 2/10/15 1/9/16
f 2/2/17 8/11/18 9/14/19 10/13/20
f 8/11/21 6/12/22 11/15/23 9/14/24
f 6/12/25 4/4/26 12/16/27 11/15/28
f 4/4/29 2/2/30 10/13/31 12/16/32
f 13/17/33 14/18/34 16/19/35 15/20/36
f 15/20/37 16/19/38 18/21/39 17/22/40
f 17/22/41 18/21/42 20/23/43 19/24/44
f 19/24/45 20/23/46 14/25/47 13/26/48
f 14/18/49 20/31/50 21/28/51 22/27/52
f 20/31/53 18/32/54 23/29/55 21/28/56
f 18/32/57 16/19/58 24/30/59 23/29/60
f 16/19/61 14/18/62 22/27/63 24/30/64
f 61/33/65 62/34/66 58/35/67 59/36/68
f 27/37/69 41/38/70 42/39/71 29/40/72
f 29/40/73 42/39/74 43/41/75
f 31/42/76 47/43/77 48/44/78 25/45/79
f 26/46/80 32/47/81 51/48/82 52/49/83
f 43/50/84 44/51/85 27/37/86 29/52/87
f 25/53/88 48/54/89 33/55/90
f 26/46/91 52/49/92 34/56/93
f 36/57/94 41/38/95 27/37/96
f 27/37/97 44/51/98 36/57/99
f 33/55/100 34/56/101 38/58/102 37/59/103
f 34/56/104 35/60/105 39/61/106 38/58/107
f 35/60/108 36/57/109 40/62/110 39/61/111
f 36/57/112 33/55/113 37/59/114 40/62/115
f 35/60/116 53/63/117 41/38/118 36/57/119
f 42/39/120 41/38/121 53/63/122 54/64/123
f 46/65/124 47/43/125 31/42/126
f 31/66/127 25/53/128 45/67/129 46/68/130
f 33/55/131 45/67/132 25/53/133
f 36/57/134 44/51/135 45/67/136 33/55/137
f 46/68/138 45/67/139 44/51/140 43/50/141
f 50/69/142 51/70/143 32/71/144
f 49/72/145 50/69/146 32/71/147 26/73/148
f 34/56/149 49/74/150 26/46/151
f 33/55/152 48/54/153 49/74/154 34/56/155
f 48/44/156 47/43/157 50/69/158 49/72/159
f 74/75/160 73/76/161 75/77/162 76/78/163
f 52/49/164 51/48/165 55/79/166 56/80/167
f 34/56/168 52/49/169 56/80/170 35/60/171
f 28/81/172 53/63/173 35/60/174
f 54/64/175 53/63/176 28/81/177 30/82/178
f 55/83/179 54/64/180 30/82/181
f 56/80/182 55/79/183 30/84/184 28/81/185
f 35/60/186 56/80/187 28/81/188
f 37/85/189 38/86/190 58/87/191 62/88/192 64/89/193 57/90/194
f 38/91/195 39/92/196 59/93/197 58/94/198
f 39/92/199 40/95/200 60/96/201 63/97/202 61/98/203 59/93/204
f 40/95/205 37/99/206 57/100/207 60/96/208
f 62/101/209 61/102/210 63/103/211 64/104/212
f 57/105/213 64/106/214 63/107/215 60/108/216
f 43/41/217 42/39/218 65/109/219 66/110/220
f 42/39/221 54/64/222 67/111/223 65/109/224
f 54/64/225 55/83/226 68/112/227 67/111/228
f 55/83/229 51/70/230 69/113/231 68/112/232
f 51/70/233 50/69/234 70/114/235 69/113/236
f 50/69/237 47/43/238 71/115/239 70/114/240
f 47/43/241 46/65/242 72/116/243 71/115/244
f 46/65/245 43/41/246 66/110/247 72/116/248
f 66/110/249 65/109/250 73/76/251 74/75/252
f 65/109/253 67/111/254 75/77/255 73/76/256
f 67/111/257 68/112/258 76/78/259 75/77/260
f 68/112/261 69/113/262 77/117/263 76/78/264
f 69/113/265 70/114/266 78/118/267 77/117/268
f 70/114/269 71/115/270 79/119/271 78/118/272
f 71/115/273 72/116/274 80/120/275 79/119/276
f 72/116/277 66/110/278 74/75/279 80/120/280
f 80/120/281 77/117/282 78/118/283 79/119/284
f 86/121/285 85/122/286 87/123/287 88/124/288
f 74/75/289 76/78/290 81/125/291 82/126/292
f 76/78/293 77/117/294 83/127/295 81/125/296
f 77/117/297 80/120/298 84/128/299 83/127/300
f 80/120/301 74/75/302 82/126/303 84/128/304
f 82/129/305 81/130/306 85/122/307 86/121/308
f 81/130/309 83/131/310 87/123/311 85/122/312
f 83/131/313 84/132/314 88/124/315 87/123/316
f 84/132/317 82/129/318 86/121/319 88/124/320
