# This file uses centimeters as units for non-parametric coordinates.

v -0.088893 0.004545 0.369166
v 0.067829 0.005883 0.373593
v -0.106994 0.161098 0.386720
v 0.082235 0.162715 0.392065
v -0.092824 0.221029 -0.133153
v 0.096405 0.222646 -0.127808
v -0.074722 0.064475 -0.150707
v 0.082000 0.065815 -0.146280
v -0.065266 0.033508 0.373149
v 0.043522 0.034439 0.376222
v 0.042267 0.140912 0.388462
v -0.066521 0.139981 0.385389
v 0.083257 0.075985 0.382094
v 0.097428 0.135916 -0.137778
v -0.091801 0.134298 -0.143123
v -0.105972 0.074368 0.376749
v -0.077167 0.085876 0.378861
v 0.054186 0.086999 0.382572
v -0.121906 0.174239 0.449289
v 0.093364 0.176079 0.455369
v 0.110255 0.247514 -0.164290
v -0.105015 0.245673 -0.170370
v 0.109298 0.076207 0.382830
v 0.123469 0.136139 -0.137043
v -0.117842 0.134076 -0.143859
v -0.132013 0.074145 0.376014
v -0.108382 0.155226 0.437651
v 0.080846 0.156843 0.442996
v -0.091932 0.224801 -0.165874
v 0.097298 0.226418 -0.160530
v -0.032383 0.207540 0.168802
v 0.019259 0.207980 0.170261
v 0.020733 0.214213 0.116197
v -0.030910 0.213772 0.114738
v -0.032718 0.235912 0.172064
v 0.018924 0.236354 0.173522
v 0.020398 0.242586 0.119459
v -0.031244 0.242145 0.118000
v -0.046133 0.056199 -0.075781
v 0.049372 0.057015 -0.073083
v 0.045017 0.038598 0.086679
v -0.050488 0.037782 0.083981
v -0.034091 0.006583 -0.060763
v 0.037351 0.007195 -0.058745
v 0.034093 -0.006583 0.060763
v -0.037349 -0.007194 0.058746
v 0.000001 0.000000 0.000000
vt 0.107975 0.011158
vt 0.107975 0.011158
vt 0.107975 0.011158
vt 0.107975 0.011158
vt 0.360552 0.016749
vt 0.360552 0.016749
vt 0.360552 0.016749
vt 0.360552 0.016749
vt 0.360552 0.016749
vt 0.360552 0.016749
vt 0.360552 0.016749
vt 0.360552 0.016749
vt 0.360552 0.016749
vt 0.360552 0.016749
vt 0.360552 0.016749
vt 0.360552 0.016749
vt 0.360552 0.016749
vt 0.360552 0.016749
vt 0.360552 0.016749
vt 0.360552 0.016749
vt 0.360552 0.016749
vt 0.360552 0.016749
vt 0.360552 0.016749
vt 0.360552 0.016749
vt 0.360552 0.016749
vt 0.360552 0.016749
vt 0.360552 0.016749
vt 0.360552 0.016749
vt 0.360552 0.016749
vt 0.360552 0.016749
vt 0.360552 0.016749
vt 0.360552 0.016749
vt 0.360552 0.016749
vt 0.360552 0.016749
vt 0.360552 0.016749
vt 0.360552 0.016749
vt 0.360552 0.016749
vt 0.360552 0.016749
vt 0.107975 0.011158
vt 0.107975 0.011158
vt 0.360552 0.016749
vt 0.360552 0.016749
vt 0.360552 0.016749
vt 0.360552 0.016749
vt 0.360552 0.016749
vt 0.360552 0.016749
vt 0.360552 0.016749
vt 0.360552 0.016749
vt 0.360552 0.016749
vt 0.360552 0.016749
vt 0.360552 0.016749
vt 0.360552 0.016749
vt 0.360552 0.016749
vt 0.360552 0.016749
vt 0.360552 0.016749
vt 0.360552 0.016749
vt 0.360552 0.016749
vt 0.360552 0.016749
vt 0.360552 0.016749
vt 0.360552 0.016749
vt 0.360552 0.016749
vt 0.360552 0.016749
vt 0.360552 0.016749
vt 0.360552 0.016749
vt 0.360552 0.016749
vt 0.360552 0.016749
vt 0.360552 0.016749
vt 0.360552 0.016749
vt 0.360552 0.016749
vt 0.360552 0.016749
vt 0.360552 0.016749
vt 0.360552 0.016749
vt 0.360552 0.016749
vt 0.360552 0.016749
vt 0.360552 0.016749
vt 0.360552 0.016749
vt 0.360552 0.016749
vt 0.360552 0.016749
vt 0.360552 0.016749
vn -0.027072 -0.114484 0.993056
vn -0.027072 -0.114484 0.993056
vn -0.027072 -0.114484 0.993056
vn -0.027072 -0.114484 0.993056
vn -0.011719 0.993389 0.114196
vn -0.011719 0.993389 0.114196
vn -0.011719 0.993389 0.114196
vn -0.011719 0.993389 0.114196
vn 0.027072 0.114474 -0.993057
vn 0.027072 0.114474 -0.993057
vn 0.027072 0.114474 -0.993057
vn 0.027072 0.114474 -0.993057
vn 0.990924 0.127779 0.041742
vn 0.990924 0.127779 0.041742
vn 0.990924 0.127779 0.041742
vn 0.990924 0.127779 0.041742
vn -0.993737 0.110823 -0.014312
vn -0.993737 0.110823 -0.014312
vn -0.993737 0.110823 -0.014312
vn -0.993737 0.110823 -0.014312
vn -0.027074 -0.114480 0.993057
vn -0.027074 -0.114480 0.993057
vn -0.027074 -0.114480 0.993057
vn -0.027074 -0.114480 0.993057
vn -0.027069 -0.114483 0.993056
vn -0.027069 -0.114483 0.993056
vn -0.027069 -0.114483 0.993056
vn -0.027069 -0.114483 0.993056
vn -0.027072 -0.114477 0.993057
vn -0.027072 -0.114477 0.993057
vn -0.027072 -0.114477 0.993057
vn -0.027072 -0.114477 0.993057
vn -0.027071 -0.114482 0.993056
vn -0.027071 -0.114482 0.993056
vn -0.027071 -0.114482 0.993056
vn -0.027071 -0.114482 0.993056
vn 0.976578 -0.215154 0.001817
vn 0.976578 -0.215154 0.001817
vn 0.976578 -0.215154 0.001817
vn 0.976578 -0.215154 0.001817
vn 0.027070 0.114481 -0.993057
vn 0.027070 0.114481 -0.993057
vn 0.027070 0.114481 -0.993057
vn 0.027070 0.114481 -0.993057
vn -0.971307 -0.231803 -0.053199
vn -0.971307 -0.231803 -0.053199
vn -0.971307 -0.231803 -0.053199
vn -0.971307 -0.231803 -0.053199
vn -0.027071 -0.114479 0.993057
vn -0.027071 -0.114479 0.993057
vn -0.027071 -0.114479 0.993057
vn -0.027071 -0.114479 0.993057
vn -0.027073 -0.114477 0.993057
vn -0.027073 -0.114477 0.993057
vn -0.027073 -0.114477 0.993057
vn -0.027073 -0.114477 0.993057
vn -0.027066 -0.114476 0.993057
vn -0.027066 -0.114476 0.993057
vn -0.027066 -0.114476 0.993057
vn -0.027066 -0.114476 0.993057
vn -0.019365 -0.531951 0.846554
vn -0.019365 -0.531951 0.846554
vn -0.019365 -0.531951 0.846554
vn -0.019365 -0.531951 0.846554
vn 0.029348 -0.192852 -0.980789
vn 0.029348 -0.192852 -0.980789
vn 0.029348 -0.192852 -0.980789
vn 0.029348 -0.192852 -0.980789
vn 0.011719 -0.993389 -0.114199
vn 0.011719 -0.993389 -0.114199
vn 0.011719 -0.993389 -0.114199
vn 0.011719 -0.993389 -0.114199
vn 0.054137 -0.236678 -0.970079
vn 0.054137 -0.236678 -0.970079
vn 0.054137 -0.236678 -0.970079
vn 0.054137 -0.236678 -0.970079
vn 0.024996 -0.592155 0.805436
vn 0.024996 -0.592155 0.805436
vn 0.024996 -0.592155 0.805436
vn 0.024996 -0.592155 0.805436
vn 0.011702 -0.993389 -0.114199
vn 0.011702 -0.993389 -0.114199
vn 0.011702 -0.993389 -0.114199
vn 0.011702 -0.993389 -0.114199
vn -0.060297 -0.592883 0.803028
vn -0.060297 -0.592883 0.803028
vn -0.060297 -0.592883 0.803028
vn -0.060297 -0.592883 0.803028
vn 0.004758 -0.237095 -0.971475
vn 0.004758 -0.237095 -0.971475
vn 0.004758 -0.237095 -0.971475
vn 0.004758 -0.237095 -0.971475
vn 0.011717 -0.993388 -0.114207
vn 0.011717 -0.993388 -0.114207
vn 0.011717 -0.993388 -0.114207
vn 0.011717 -0.993388 -0.114207
vn -0.999565 -0.008539 -0.028236
vn -0.999565 -0.008539 -0.028236
vn -0.999565 -0.008539 -0.028236
vn 0.999565 0.008538 0.028222
vn 0.999565 0.008538 0.028222
vn 0.999565 0.008538 0.028222
vn 0.011711 -0.993390 -0.114189
vn 0.011711 -0.993390 -0.114189
vn 0.011711 -0.993390 -0.114189
vn 0.011711 -0.993390 -0.114189
vn -0.999565 -0.008542 -0.028238
vn -0.999565 -0.008542 -0.028238
vn -0.999565 -0.008542 -0.028238
vn 0.999565 0.008541 0.028224
vn 0.999565 0.008541 0.028224
vn 0.999565 0.008541 0.028224
vn -0.011712 0.993389 0.114198
vn -0.011712 0.993389 0.114198
vn -0.011712 0.993389 0.114198
vn -0.011712 0.993389 0.114198
vn -0.011719 0.993389 0.114200
vn -0.011719 0.993389 0.114200
vn -0.011719 0.993389 0.114200
vn -0.011719 0.993389 0.114200
vn -0.011719 0.993389 0.114198
vn -0.011719 0.993389 0.114198
vn -0.011719 0.993389 0.114198
vn -0.011719 0.993389 0.114198
vn -0.011719 0.993389 0.114198
vn -0.011719 0.993389 0.114198
vn -0.011719 0.993389 0.114198
vn -0.011719 0.993389 0.114198
vn -0.027071 -0.114474 0.993057
vn -0.027071 -0.114474 0.993057
vn -0.027071 -0.114474 0.993057
vn -0.027071 -0.114474 0.993057
vn 0.999565 0.008551 0.028234
vn 0.999565 0.008551 0.028234
vn 0.999565 0.008551 0.028234
vn 0.999565 0.008551 0.028234
vn 0.027073 0.114488 -0.993056
vn 0.027073 0.114488 -0.993056
vn 0.027073 0.114488 -0.993056
vn 0.027073 0.114488 -0.993056
vn -0.999565 -0.008539 -0.028230
vn -0.999565 -0.008539 -0.028230
vn -0.999565 -0.008539 -0.028230
vn -0.999565 -0.008539 -0.028230
vn 0.011718 -0.993389 -0.114198
vn 0.011718 -0.993389 -0.114198
vn 0.011718 -0.993389 -0.114198
vn 0.011718 -0.993389 -0.114198
vn 0.011710 -0.993389 -0.114200
vn 0.011710 -0.993389 -0.114200
vn 0.011710 -0.993389 -0.114200
vn 0.011710 -0.993389 -0.114200
vn 0.011711 -0.993389 -0.114198
vn 0.011711 -0.993389 -0.114198
vn 0.011711 -0.993389 -0.114198
vn 0.011711 -0.993389 -0.114198
vn 0.011712 -0.993389 -0.114197
vn 0.011712 -0.993389 -0.114197
vn 0.011712 -0.993389 -0.114197
vn 0.011712 -0.993389 -0.114197
vn 0.029495 -0.283013 -0.958663
vn 0.029495 -0.283013 -0.958663
vn 0.029495 -0.283013 -0.958662
vn 0.029495 -0.283013 -0.958662
vn 0.972065 -0.234712 -0.000561
vn 0.972065 -0.234712 -0.000561
vn 0.972065 -0.234712 -0.000561
vn 0.972065 -0.234712 -0.000561
vn -0.020335 -0.493747 0.869368
vn -0.020335 -0.493747 0.869368
vn -0.020335 -0.493747 0.869368
vn -0.020335 -0.493747 0.869368
vn -0.966334 -0.251276 -0.055307
vn -0.966334 -0.251276 -0.055307
vn -0.966334 -0.251276 -0.055307
vn -0.966334 -0.251276 -0.055307
vn 0.011725 -0.993388 -0.114204
vn 0.011725 -0.993388 -0.114204
vn 0.011725 -0.993388 -0.114204
vn 0.011725 -0.993388 -0.114205
vn 0.011725 -0.993388 -0.114205
vn 0.011725 -0.993388 -0.114205
vn 0.011712 -0.993389 -0.114198
vn 0.011712 -0.993389 -0.114198
vn 0.011712 -0.993389 -0.114198
vn 0.011712 -0.993389 -0.114197
vn 0.011712 -0.993389 -0.114197
vn 0.011712 -0.993389 -0.114197
s off
f 17/1/1 18/2/2 11/3/3 12/4/4
f 35/5/5 36/6/6 37/7/7 38/8/8
f 5/9/9 6/10/10 14/11/11 15/12/12
f 23/13/13 24/14/14 21/15/15 20/16/16
f 25/17/17 26/18/18 19/19/19 22/20/20
f 1/21/21 2/22/22 10/23/23 9/24/24
f 18/25/25 13/26/26 4/27/27 11/28/28
f 4/27/29 3/29/30 12/30/31 11/28/32
f 3/29/33 16/31/34 17/32/35 12/30/36
f 2/22/37 8/33/38 14/34/39 13/26/40
f 15/12/41 14/11/42 8/35/43 7/36/44
f 7/37/45 1/21/46 16/31/47 15/38/48
f 17/32/49 16/31/50 1/21/51 9/24/52
f 9/39/53 10/40/54 18/2/55 17/1/56
f 2/22/57 13/26/58 18/25/59 10/23/60
f 27/41/61 28/63/62 20/16/63 19/19/64
f 30/42/65 29/64/66 22/43/67 21/44/68
f 13/26/69 14/34/70 24/14/71 23/13/72
f 14/34/73 30/45/74 21/15/75 24/14/76
f 28/65/77 13/26/78 23/13/79 20/16/80
f 15/38/81 16/31/82 26/18/83 25/17/84
f 16/31/85 27/41/86 19/19/87 26/18/88
f 29/46/89 15/38/90 25/17/91 22/20/92
f 3/29/93 4/27/94 28/66/95 27/41/96
f 4/67/97 13/68/98 28/69/99
f 16/70/100 3/71/101 27/72/102
f 6/73/103 5/74/104 29/75/105 30/76/106
f 14/77/107 6/78/108 30/79/109
f 5/47/110 15/38/111 29/46/112
f 19/19/113 20/16/114 32/48/115 31/49/116
f 20/16/117 21/44/118 33/50/119 32/48/120
f 21/44/121 22/43/122 34/51/123 33/50/124
f 22/43/125 19/19/126 31/49/127 34/51/128
f 31/49/129 32/48/130 36/6/131 35/5/132
f 32/48/133 33/50/134 37/7/135 36/6/136
f 33/50/137 34/51/138 38/8/139 37/7/140
f 34/51/141 31/49/142 35/5/143 38/8/144
f 7/36/145 8/35/146 40/52/147 39/53/148
f 8/35/149 2/54/150 41/55/151 40/52/152
f 2/54/153 1/56/154 42/57/155 41/55/156
f 1/56/157 7/36/158 39/53/159 42/57/160
f 39/53/161 40/52/162 44/58/163 43/59/164
f 40/52/165 41/55/166 45/60/167 44/58/168
f 41/55/169 42/57/170 46/61/171 45/60/172
f 42/57/173 39/53/174 43/59/175 46/61/176
f 43/59/177 44/58/178 47/62/179
f 44/58/180 45/60/181 47/62/182
f 45/60/183 46/61/184 47/62/185
f 46/61/186 43/59/187 47/62/188
