# This file uses centimeters as units for non-parametric coordinates.

v 0.517204 2.068913 0.277027
v -0.517204 2.068913 0.277027
v 0.517204 2.068913 0.000000
v -0.517204 2.068913 0.000000
v 0.560966 2.145747 0.000000
v 0.560966 2.145747 0.310091
v -0.560966 2.145747 0.310091
v -0.560966 2.145747 0.000000
v 0.651627 2.173272 0.361643
v -0.651627 2.173272 0.361643
v -0.651627 2.312667 0.369618
v 0.651627 2.312667 0.369618
v -0.651627 2.305744 0.000000
v 0.651627 2.305744 0.000000
v -0.651627 2.173272 0.000000
v 0.651627 2.173272 0.000000
v 0.538071 1.961161 0.000000
v 0.538071 0.000000 0.000000
v -0.538071 1.961161 0.000000
v -0.538071 0.000000 0.000000
v -0.538071 1.961161 0.230332
v -0.538071 0.000000 0.230332
v 0.538071 1.961161 0.230332
v 0.538071 0.000000 0.230332
v -0.423340 1.846448 0.230332
v -0.423340 0.114713 0.230332
v 0.423340 1.846448 0.230332
v 0.423340 0.114713 0.230332
v -0.423340 1.846448 0.147963
v -0.423340 0.114713 0.147963
v 0.423340 1.846448 0.147963
v 0.423340 0.114713 0.147963
v -0.343681 1.739120 0.147963
v -0.343681 0.236341 0.147963
v 0.343681 1.724818 0.147963
v 0.343681 0.236341 0.147963
v 0.343681 0.955499 0.147963
v -0.343681 0.947650 0.147963
v 0.343681 0.854983 0.147963
v -0.343681 0.876262 0.147963
v 0.343681 0.955499 0.095647
v -0.343681 0.955499 0.095647
v -0.343681 1.724818 0.095647
v 0.343681 1.724818 0.095647
v -0.343681 0.829458 0.095647
v -0.343681 0.236341 0.095647
v 0.343681 0.815363 0.095647
v 0.343681 0.236341 0.095647
v 0.504181 0.013344 0.321129
v -0.538071 0.013344 0.321129
v -0.423340 0.101368 0.321129
v 0.389450 0.101368 0.321129
v 0.538071 1.947614 0.321130
v -0.538071 1.947614 0.321130
v 0.423340 1.859996 0.321130
v -0.423340 1.859996 0.321130
v 0.000000 1.947614 0.321130
v -0.538071 1.485236 0.230332
v -0.538071 1.049635 0.230332
v -0.423340 1.263972 0.230332
v -0.538071 1.261540 0.000000
vt 0.036561 0.326012
vt 0.036561 0.326012
vt 0.036561 0.326012
vt 0.036561 0.326012
vt 0.036561 0.326012
vt 0.036561 0.326012
vt 0.036561 0.326012
vt 0.036561 0.326012
vt 0.036561 0.300853
vt 0.036561 0.300853
vt 0.036561 0.300853
vt 0.036561 0.300853
vt 0.036561 0.326012
vt 0.036561 0.326012
vt 0.036561 0.326012
vt 0.036561 0.326012
vt 0.036561 0.326012
vt 0.036561 0.326012
vt 0.036561 0.326012
vt 0.036561 0.326012
vt 0.036561 0.300853
vt 0.036561 0.300853
vt 0.036561 0.300853
vt 0.036561 0.300853
vt 0.036561 0.326012
vt 0.036561 0.326012
vt 0.036561 0.326012
vt 0.036561 0.326012
vt 0.036561 0.326012
vt 0.036561 0.326012
vt 0.036561 0.326012
vt 0.036561 0.326012
vt 0.036561 0.326012
vt 0.036561 0.326012
vt 0.036561 0.326012
vt 0.036561 0.326012
vt 0.619909 0.008373
vt 0.619909 0.103586
vt 0.715122 0.103586
vt 0.715122 0.008373
vt 0.036561 0.300853
vt 0.036561 0.300853
vt 0.036561 0.300853
vt 0.036561 0.300853
vt 0.036561 0.300853
vt 0.036561 0.300853
vt 0.036561 0.300853
vt 0.036561 0.300853
vt 0.036561 0.300853
vt 0.036561 0.300853
vt 0.036561 0.300853
vt 0.037677 0.327940
vt 0.037677 0.327940
vt 0.037677 0.327940
vt 0.037677 0.327940
vt 0.037677 0.327940
vt 0.036561 0.300853
vt 0.036561 0.300853
vt 0.037677 0.327940
vt 0.037677 0.327940
vt 0.037677 0.327940
vt 0.037677 0.327940
vt 0.036561 0.300853
vt 0.036561 0.300853
vt 0.036561 0.300853
vt 0.036561 0.300853
vt 0.036561 0.300853
vt 0.036561 0.300853
vt 0.102520 0.254952
vt 0.102520 0.254952
vt 0.102520 0.254952
vt 0.102520 0.254952
vt 0.102520 0.254952
vt 0.102520 0.254952
vt 0.102520 0.254952
vt 0.102520 0.254952
vt 0.102520 0.254952
vt 0.102520 0.254952
vt 0.102520 0.254952
vt 0.102520 0.254952
vt 0.619909 0.008373
vt 0.619909 0.103586
vt 0.715122 0.103586
vt 0.715122 0.008373
vt 0.102520 0.254952
vt 0.102520 0.254952
vt 0.102520 0.254952
vt 0.102520 0.254952
vt 0.102520 0.254952
vt 0.102520 0.254952
vt 0.102520 0.254952
vt 0.102520 0.254952
vt 0.037677 0.327940
vt 0.037677 0.327940
vt 0.037677 0.327940
vt 0.037677 0.327940
vt 0.037677 0.327940
vt 0.037677 0.327940
vt 0.037677 0.327940
vt 0.037677 0.327940
vt 0.037677 0.327940
vt 0.037677 0.327940
vt 0.037677 0.327940
vt 0.037677 0.327940
vt 0.037677 0.327940
vt 0.037677 0.327940
vt 0.037677 0.327940
vt 0.037677 0.327940
vt 0.037677 0.327940
vt 0.037677 0.327940
vt 0.037677 0.327940
vt 0.037677 0.327940
vt 0.037677 0.327940
vt 0.037677 0.327940
vt 0.037677 0.327940
vt 0.037677 0.327940
vt 0.037677 0.327940
vt 0.037677 0.327940
vt 0.037677 0.327940
vt 0.037677 0.327940
vt 0.037677 0.327940
vt 0.037677 0.327940
vt 0.037677 0.327940
vt 0.037677 0.327940
vt 0.037677 0.327940
vt 0.036561 0.300853
vt 0.036060 0.300933
vt 0.036060 0.300933
vt 0.036060 0.300933
vt 0.036060 0.300933
vt 0.036060 0.300933
vt 0.036060 0.300933
vt 0.036060 0.300933
vt 0.036060 0.300933
vn 0.000000 -0.057119 0.998367
vn 0.000000 -0.057119 0.998367
vn 0.000000 -0.057119 0.998367
vn 0.000000 -0.057119 0.998367
vn 0.000000 0.999825 -0.018726
vn 0.000000 0.999825 -0.018726
vn 0.000000 0.999825 -0.018726
vn 0.000000 0.999825 -0.018726
vn 0.000000 -1.000000 0.000000
vn 0.000000 -1.000000 0.000000
vn 0.000000 -1.000000 0.000000
vn 0.000000 -1.000000 0.000000
vn -1.000000 0.000000 0.000000
vn -1.000000 0.000000 0.000000
vn -1.000000 0.000000 0.000000
vn -1.000000 0.000000 0.000000
vn 1.000000 0.000000 0.000000
vn 1.000000 0.000000 0.000000
vn 1.000000 0.000000 0.000000
vn 1.000000 0.000000 0.000000
vn 0.868938 -0.494921 0.000000
vn 0.868938 -0.494921 0.000000
vn 0.868938 -0.494921 0.000000
vn 0.868938 -0.494921 0.000000
vn 0.000000 -0.395282 0.918560
vn 0.000000 -0.395282 0.918560
vn 0.000000 -0.395282 0.918560
vn 0.000000 -0.395282 0.918560
vn -0.868938 -0.494921 0.000000
vn -0.868938 -0.494921 0.000000
vn -0.868938 -0.494921 0.000000
vn -0.868938 -0.494921 0.000000
vn 0.000000 -0.882138 0.470992
vn 0.000000 -0.882138 0.470992
vn 0.000000 -0.882138 0.470992
vn 0.000000 -0.882138 0.470992
vn -0.290512 -0.956871 0.000000
vn -0.290512 -0.956871 0.000000
vn -0.290512 -0.956871 0.000000
vn -0.290512 -0.956871 0.000000
vn 0.290512 -0.956871 0.000000
vn 0.290512 -0.956871 0.000000
vn 0.290512 -0.956871 0.000000
vn 0.290512 -0.956871 0.000000
vn 0.000000 0.000000 1.000000
vn 0.000000 0.000000 1.000000
vn 0.000000 0.000000 1.000000
vn 0.000000 0.000000 1.000000
vn 0.000000 1.000000 0.000000
vn 0.000000 1.000000 0.000000
vn 0.000000 1.000000 0.000000
vn 0.000000 1.000000 0.000000
vn 1.000000 0.000000 0.000000
vn 1.000000 0.000000 0.000000
vn 1.000000 0.000000 0.000000
vn 1.000000 0.000000 0.000000
vn 0.000000 -1.000000 0.000000
vn 0.000000 -1.000000 0.000000
vn 0.000000 -1.000000 0.000000
vn 0.000000 -1.000000 0.000000
vn -0.810450 -0.420239 0.408130
vn -0.810450 -0.420239 0.408130
vn -0.810450 -0.420239 0.408130
vn 0.000000 0.000000 1.000000
vn 0.000000 0.000000 1.000000
vn 0.000000 0.000000 1.000000
vn 0.000000 0.000000 1.000000
vn 0.000000 0.000000 1.000000
vn 0.000000 0.000000 1.000000
vn 0.000000 0.000000 1.000000
vn 0.000000 0.000000 1.000000
vn 0.000000 0.000000 1.000000
vn 0.000000 0.000000 1.000000
vn 0.000000 0.000000 1.000000
vn 0.000000 0.000000 1.000000
vn 0.000000 0.000000 1.000000
vn 1.000000 0.000000 0.000000
vn 1.000000 0.000000 0.000000
vn 1.000000 0.000000 0.000000
vn 0.000000 -1.000000 0.000000
vn 0.000000 -1.000000 0.000000
vn 0.000000 -1.000000 0.000000
vn 0.000000 -1.000000 0.000000
vn -1.000000 0.000000 0.000000
vn -1.000000 0.000000 0.000000
vn -1.000000 0.000000 0.000000
vn -1.000000 0.000000 0.000000
vn 0.000000 1.000000 0.000000
vn 0.000000 1.000000 0.000000
vn 0.000000 1.000000 0.000000
vn 0.000000 1.000000 0.000000
vn 0.000000 0.000000 1.000000
vn 0.000000 0.000000 1.000000
vn 0.000000 0.000000 1.000000
vn 0.000000 0.000000 1.000000
vn 0.000000 0.000000 1.000000
vn 0.000000 0.000000 1.000000
vn 0.000000 0.000000 1.000000
vn 0.000000 0.000000 1.000000
vn 0.000000 0.000000 1.000000
vn 0.000000 0.000000 1.000000
vn -0.000000 0.000000 1.000000
vn -0.000000 0.000000 1.000000
vn -0.000000 0.000000 1.000000
vn -0.000000 0.000000 1.000000
vn -0.000000 0.000000 1.000000
vn -0.000000 0.000000 1.000000
vn 0.000000 0.000000 1.000000
vn 0.000000 0.000000 1.000000
vn 0.000000 0.000000 1.000000
vn 0.000000 0.000000 1.000000
vn -0.000000 0.000000 1.000000
vn -0.000000 0.000000 1.000000
vn -0.000000 0.000000 1.000000
vn -0.000000 0.000000 1.000000
vn 0.000000 0.000000 1.000000
vn 0.000000 0.000000 1.000000
vn 0.000000 0.000000 1.000000
vn 0.000000 0.000000 1.000000
vn -0.005693 0.997182 0.074801
vn -0.005693 0.997182 0.074801
vn -0.005693 0.997182 0.074801
vn -0.005693 0.997182 0.074801
vn 1.000000 0.000000 0.000000
vn 1.000000 0.000000 0.000000
vn 1.000000 0.000000 0.000000
vn 1.000000 0.000000 0.000000
vn -0.010307 -0.990736 0.135411
vn -0.010307 -0.990736 0.135411
vn -0.010307 -0.990736 0.135411
vn -0.010307 -0.990736 0.135411
vn -1.000000 0.000000 0.000000
vn -1.000000 0.000000 0.000000
vn -1.000000 0.000000 0.000000
vn -1.000000 0.000000 0.000000
vn 1.000000 0.000000 0.000000
vn 1.000000 0.000000 0.000000
vn 1.000000 0.000000 0.000000
vn 1.000000 0.000000 0.000000
vn -0.019835 -0.770854 0.636702
vn -0.019835 -0.770854 0.636702
vn -0.019835 -0.770855 0.636702
vn -0.019835 -0.770855 0.636702
vn -1.000000 0.000000 0.000000
vn -1.000000 0.000000 0.000000
vn -1.000000 0.000000 0.000000
vn -1.000000 0.000000 0.000000
vn 0.000000 1.000000 0.000000
vn 0.000000 1.000000 0.000000
vn 0.000000 1.000000 0.000000
vn 0.000000 1.000000 0.000000
vn 0.000000 -0.989373 0.145401
vn 0.000000 -0.989373 0.145401
vn 0.000000 -0.989373 0.145401
vn 0.000000 -0.989373 0.145401
vn -0.662118 0.749399 0.000004
vn -0.662118 0.749399 0.000004
vn -0.662118 0.749399 0.000004
vn -0.662118 0.749399 0.000004
vn 0.000000 0.989371 0.145412
vn 0.000000 0.989371 0.145412
vn 0.000000 0.989371 0.145412
vn 0.000000 0.989371 0.145412
vn 0.642780 0.727511 0.239920
vn 0.642780 0.727511 0.239920
vn 0.642780 0.727511 0.239920
vn 0.642780 0.727511 0.239920
vn 0.000000 0.989052 0.147566
vn 0.000000 0.989052 0.147566
vn 0.000000 0.989052 0.147566
vn 0.000000 0.989052 0.147566
vn 0.000000 0.989052 0.147566
vn 0.661372 -0.750058 0.000004
vn 0.661372 -0.750058 0.000004
vn 0.661372 -0.750058 0.000004
vn 0.661372 -0.750058 0.000004
vn 0.000000 -0.989051 0.147578
vn 0.000000 -0.989051 0.147578
vn 0.000000 -0.989051 0.147578
vn 0.000000 -0.989051 0.147578
vn -0.661372 -0.750058 0.000004
vn -0.661372 -0.750058 0.000004
vn -0.661372 -0.750058 0.000004
vn -0.661372 -0.750058 0.000004
vn -0.000000 0.000000 1.000000
vn -0.000000 0.000000 1.000000
vn -0.000000 0.000000 1.000000
vn -0.000000 0.000000 1.000000
vn 0.000000 0.000000 1.000000
vn 0.000000 0.000000 1.000000
vn 0.000000 0.000000 1.000000
vn 0.000000 0.000000 1.000000
vn -1.000000 0.000000 0.000000
vn -1.000000 0.000000 0.000000
vn -1.000000 0.000000 0.000000
vn -1.000000 0.000000 0.000000
vn -1.000000 0.000000 0.000000
vn -1.000000 0.000000 0.000000
vn -1.000000 0.000000 0.000000
vn -1.000000 0.000000 0.000000
vn -0.808705 0.432885 0.398254
vn -0.808705 0.432885 0.398254
vn -0.808705 0.432885 0.398254
vn 1.000000 0.000000 0.000000
vn 1.000000 0.000000 0.000000
vn 1.000000 0.000000 0.000000
vn 1.000000 0.000000 0.000000
vn 1.000000 0.000000 0.000000
vn 1.000000 0.000000 0.000000
vn 0.000000 0.000000 -1.000000
vn 0.000000 0.000000 -1.000000
vn 0.000000 0.000000 -1.000000
vn 0.000000 0.000000 -1.000000
vn 0.000000 0.000000 -1.000000
vn 0.000000 0.000000 -1.000000
vn 0.000000 0.000000 -1.000000
vn 0.000000 0.000000 -1.000000
vn 0.000000 0.000000 -1.000000
vn 0.000000 0.000000 -1.000000
vn 0.000000 0.000000 -1.000000
vn 0.000000 0.000000 -1.000000
vn 0.000000 0.000000 -1.000000
vn 0.000000 0.000000 -1.000000
vn 0.000000 0.000000 -1.000000
s off
f 9/1/1 12/4/2 11/3/3 10/2/4
f 12/5/5 14/8/6 13/7/7 11/6/8
f 3/9/9 1/12/10 2/11/11 4/10/12
f 10/13/13 11/16/14 13/15/15 15/14/16
f 16/17/17 14/20/18 12/19/19 9/18/20
f 3/9/21 5/22/22 6/21/23 1/12/24
f 1/12/25 6/21/26 7/23/27 2/11/28
f 2/11/29 7/23/30 8/24/31 4/10/32
f 6/25/33 9/28/34 10/27/35 7/26/36
f 7/29/37 10/32/38 15/31/39 8/30/40
f 5/33/41 16/36/42 9/35/43 6/34/44
f 41/37/45 44/40/46 43/39/47 42/38/48
f 19/41/49 21/44/50 23/43/51 17/42/52
f 17/42/53 23/43/54 24/46/55 18/45/56
f 18/45/57 24/46/58 22/48/59 20/47/60
f 60/49/61 58/51/62 61/50/63
f 54/52/64 56/56/65 55/55/66 53/54/67 57/53/68
f 23/43/69 27/58/70 28/57/71 24/46/72
f 49/59/73 52/62/74 51/61/75 50/60/76
f 30/63/77 29/64/78 60/49/79
f 25/65/80 29/64/81 31/66/82 27/58/83
f 27/58/84 31/66/85 32/67/86 28/57/87
f 28/57/88 32/67/89 30/63/90 26/68/91
f 30/69/92 34/74/93 40/73/94 38/72/95 33/71/96 29/70/97
f 29/70/98 33/71/99 35/76/100 31/75/101
f 31/75/102 35/76/103 37/80/104 39/79/105 36/78/106 32/77/107
f 32/77/108 36/78/109 34/74/110 30/69/111
f 39/79/112 37/80/113 38/72/114 40/73/115
f 46/81/116 48/84/117 47/83/118 45/82/119
f 37/80/120 41/86/121 42/85/122 38/72/123
f 38/72/124 42/85/125 43/87/126 33/71/127
f 33/71/128 43/87/129 44/88/130 35/76/131
f 35/76/132 44/88/133 41/86/134 37/80/135
f 34/74/136 46/90/137 45/89/138 40/73/139
f 40/73/140 45/89/141 47/91/142 39/79/143
f 39/79/144 47/91/145 48/92/146 36/78/147
f 36/78/148 48/92/149 46/90/150 34/74/151
f 24/93/152 49/96/153 50/95/154 22/94/155
f 22/97/156 50/100/157 51/99/158 26/98/159
f 26/101/160 51/104/161 52/103/162 28/102/163
f 28/105/164 52/108/165 49/107/166 24/106/167
f 21/109/168 54/113/169 57/112/170 53/111/171 23/110/172
f 23/114/173 53/117/174 55/116/175 27/115/176
f 27/118/177 55/121/178 56/120/179 25/119/180
f 25/122/181 56/125/182 54/124/183 21/123/184
f 60/49/185 25/65/186 21/44/187 58/51/188
f 22/48/189 26/68/190 60/49/191 59/126/192
f 20/47/193 22/48/194 59/126/195 61/50/196
f 58/51/197 21/44/198 19/41/199 61/50/200
f 60/49/201 61/50/202 59/126/203
f 26/68/204 30/63/205 60/49/206
f 29/64/207 25/65/208 60/49/209
f 20/47/210 61/50/211 19/41/212 17/42/213 18/45/214
f 13/127/215 14/128/216 16/129/217 5/130/218 8/131/219 15/132/220
f 8/131/221 5/130/222 3/133/223 4/134/224
