# This file uses centimeters as units for non-parametric coordinates.

v -0.141632 0.073976 0.141625
v 0.141632 0.073976 0.141625
v -0.141632 0.079329 0.141625
v 0.141632 0.079329 0.141625
v -0.141632 0.079329 -0.141633
v 0.141632 0.079329 -0.141633
v -0.141632 0.073976 -0.141633
v 0.141632 0.073976 -0.141633
v 0.141632 0.093285 -0.047216
v -0.141632 0.093285 -0.047216
v -0.141632 0.087932 -0.047216
v 0.141632 0.087932 -0.047216
v 0.141632 0.093285 0.047209
v -0.141632 0.093285 0.047209
v -0.141632 0.087932 0.047209
v 0.141632 0.087932 0.047209
v 0.047216 0.093285 -0.141633
v 0.047216 0.087932 -0.141633
v 0.047216 0.087932 -0.047216
v 0.047216 0.087932 0.047209
v 0.047216 0.087932 0.141625
v 0.047216 0.093285 0.141625
v 0.047216 0.093285 0.047209
v 0.047216 0.093285 -0.047216
v -0.047216 0.093285 -0.141633
v -0.047216 0.087932 -0.141633
v -0.047216 0.087932 -0.047216
v -0.047216 0.087932 0.047209
v -0.047216 0.087932 0.141625
v -0.047216 0.093285 0.141625
v -0.047216 0.093285 0.047209
v -0.047216 0.093285 -0.047216
v 0.077255 0.114193 -0.133810
v -0.077242 0.115955 -0.133810
v -0.154509 0.115955 0.000000
v -0.077242 0.109116 0.133802
v 0.077255 0.109116 0.133802
v 0.154510 0.109116 0.000000
v 0.070009 0.152295 -0.123974
v -0.067610 0.165828 -0.112274
v -0.137810 0.158393 0.000000
v -0.068913 0.158393 0.119349
v 0.064528 0.165295 0.115242
v 0.137821 0.158393 0.000000
v 0.037497 0.191718 -0.064955
v -0.000002 0.202094 0.000000
v -0.042654 0.193614 -0.072666
v -0.074995 0.191718 0.000000
v -0.037498 0.191718 0.064948
v 0.037497 0.191718 0.064948
v 0.081749 0.189467 0.000494
v 0.077255 0.047370 0.133802
v -0.077242 0.047370 0.133802
v -0.154509 0.047370 -0.000000
v -0.077242 0.047370 -0.133810
v 0.077255 0.047370 -0.133810
v 0.154510 0.047370 -0.000000
v 0.078869 0.022805 0.136586
v -0.078857 0.022805 0.136586
v -0.157709 0.032099 -0.000000
v -0.078857 0.032099 -0.136594
v 0.078869 0.022805 -0.136594
v 0.157722 0.022805 -0.000000
v 0.071497 0.000000 0.123834
v -0.071501 0.000000 0.123834
v -0.142998 0.000000 -0.000000
v -0.071501 0.000000 -0.123842
v 0.071497 0.000000 -0.123842
v 0.142994 0.000000 -0.000000
v -0.000002 0.000000 -0.000000
v 0.082890 0.068731 -0.143578
v -0.082893 0.068731 -0.143578
v -0.165779 0.068731 -0.000000
v -0.082893 0.068731 0.143570
v 0.082890 0.068731 0.143570
v 0.165779 0.068731 -0.000000
v 0.153782 0.092950 -0.000000
v 0.076891 0.092950 -0.133174
v -0.076893 0.092950 -0.133174
v -0.153769 0.092950 -0.000000
v -0.076893 0.092950 0.133166
v 0.076891 0.092950 0.133166
vt 0.221634 0.478064
vt 0.221634 0.478064
vt 0.221634 0.478064
vt 0.221634 0.478064
vt 0.221634 0.478064
vt 0.221634 0.478064
vt 0.221634 0.478064
vt 0.221634 0.478064
vt 0.221634 0.478064
vt 0.221634 0.478064
vt 0.221634 0.478064
vt 0.221634 0.478064
vt 0.221634 0.478064
vt 0.221634 0.478064
vt 0.221634 0.478064
vt 0.221634 0.478064
vt 0.221634 0.478064
vt 0.221634 0.478064
vt 0.221634 0.478064
vt 0.221634 0.478064
vt 0.221634 0.478064
vt 0.221634 0.478064
vt 0.221634 0.478064
vt 0.221634 0.478064
vt 0.221634 0.478064
vt 0.221634 0.478064
vt 0.221634 0.478064
vt 0.221634 0.478064
vt 0.221634 0.478064
vt 0.221634 0.478064
vt 0.221634 0.478064
vt 0.221634 0.478064
vt 0.221634 0.478064
vt 0.221634 0.478064
vt 0.221634 0.478064
vt 0.221634 0.478064
vt 0.221634 0.478064
vt 0.221634 0.478064
vt 0.221634 0.478064
vt 0.221634 0.478064
vt 0.221634 0.478064
vt 0.221634 0.478064
vt 0.221634 0.478064
vt 0.221634 0.478064
vt 0.221634 0.478064
vt 0.221634 0.478064
vt 0.221634 0.478064
vt 0.221634 0.478064
vt 0.002261 0.381044
vt 0.002261 0.381044
vt 0.002261 0.381044
vt 0.002261 0.381044
vt 0.002261 0.381044
vt 0.002261 0.381044
vt 0.002261 0.381044
vt 0.002261 0.381044
vt 0.002261 0.381044
vt 0.002261 0.381044
vt 0.002261 0.381044
vt 0.002261 0.381044
vt 0.005011 0.321642
vt 0.005011 0.321642
vt 0.005011 0.321642
vt 0.005011 0.321642
vt 0.005011 0.321642
vt 0.005011 0.321642
vt 0.005011 0.321642
vt 0.005011 0.321642
vt 0.005011 0.321642
vt 0.005011 0.321642
vt 0.005011 0.321642
vt 0.005011 0.321642
vt 0.005011 0.321642
vt 0.005011 0.321642
vt 0.005011 0.321642
vt 0.005011 0.321642
vt 0.005011 0.321642
vt 0.005011 0.321642
vt 0.005011 0.321642
vt 0.002261 0.381044
vt 0.002261 0.381044
vt 0.002261 0.381044
vt 0.002261 0.381044
vt 0.002261 0.381044
vt 0.002261 0.381044
vt 0.002261 0.381044
vt 0.002261 0.381044
vt 0.002261 0.381044
vt 0.002261 0.381044
vt 0.002261 0.381044
vt 0.002261 0.381044
vt 0.002261 0.381044
vt 0.002261 0.381044
vt 0.002261 0.381044
vt 0.002261 0.381044
vt 0.002261 0.381044
vt 0.002261 0.381044
vt 0.002261 0.381044
vt 0.002261 0.381044
vt 0.002261 0.381044
vt 0.002261 0.381044
vt 0.002261 0.381044
vt 0.002261 0.381044
vt 0.005011 0.321642
vt 0.005011 0.321642
vt 0.005011 0.321642
vt 0.005011 0.321642
vt 0.005011 0.321642
vt 0.005011 0.321642
vt 0.005011 0.321642
vt 0.005011 0.321642
vt 0.005011 0.321642
vt 0.005011 0.321642
vt 0.005011 0.321642
vt 0.005011 0.321642
vt 0.005011 0.321642
vt 0.004927 0.373010
vt 0.004927 0.373010
vt 0.004927 0.373010
vt 0.004927 0.373010
vt 0.004927 0.373010
vt 0.004925 0.373010
vt 0.013261 0.254540
vt 0.013261 0.254540
vt 0.013261 0.254540
vt 0.013261 0.254540
vt 0.013261 0.254540
vt 0.013261 0.254540
vt 0.013261 0.254540
vt 0.013261 0.254540
vt 0.013261 0.254540
vt 0.013261 0.254540
vt 0.013261 0.254540
vt 0.013261 0.254540
vt 0.013261 0.254540
vt 0.013261 0.254540
vt 0.013261 0.254540
vt 0.013261 0.254540
vt 0.013261 0.254540
vt 0.013261 0.254540
vt 0.013261 0.254540
vt 0.013261 0.254540
vt 0.013261 0.254540
vt 0.013261 0.254540
vt 0.013261 0.254540
vt 0.013261 0.254540
vt 0.013261 0.254540
vt 0.013261 0.254540
vt 0.013261 0.254540
vt 0.013261 0.254540
vt 0.013261 0.254540
vt 0.013261 0.254540
vt 0.013261 0.254540
vt 0.013261 0.254540
vt 0.013261 0.254540
vt 0.013261 0.254540
vt 0.013261 0.254540
vt 0.013261 0.254540
vt 0.013261 0.254540
vt 0.013261 0.254540
vt 0.013261 0.254540
vt 0.013261 0.254540
vt 0.013261 0.254540
vt 0.013261 0.254540
vt 0.013261 0.254540
vt 0.013261 0.254540
vt 0.013261 0.254540
vt 0.013261 0.254540
vt 0.013261 0.254540
vt 0.013261 0.254540
vn 0.000000 0.000000 1.000000
vn 0.000000 0.000000 1.000000
vn 0.000000 0.000000 1.000000
vn 0.000000 0.000000 1.000000
vn -0.024897 0.999380 0.024896
vn -0.024895 0.999380 0.024895
vn 0.000000 1.000000 0.000000
vn -0.000000 0.000000 -1.000000
vn -0.000000 0.000000 -1.000000
vn -0.000000 0.000000 -1.000000
vn -0.000000 0.000000 -1.000000
vn 0.024897 -0.999380 -0.024896
vn 0.000000 -1.000000 0.000000
vn 0.024895 -0.999380 -0.024895
vn 1.000000 0.000000 0.000000
vn 1.000000 0.000000 0.000000
vn 1.000000 0.000000 0.000000
vn 1.000000 0.000000 0.000000
vn -1.000000 0.000000 0.000000
vn -1.000000 0.000000 0.000000
vn -1.000000 0.000000 0.000000
vn -1.000000 0.000000 0.000000
vn -0.024897 0.999380 -0.024896
vn 0.000000 1.000000 0.000000
vn -0.024896 0.999380 -0.024895
vn -1.000000 0.000000 0.000000
vn -1.000000 0.000000 0.000000
vn -1.000000 0.000000 0.000000
vn -1.000000 0.000000 0.000000
vn 0.144682 -0.978844 0.144680
vn 0.024896 -0.999380 0.024895
vn 0.024897 -0.999380 0.024896
vn 1.000000 0.000000 0.000000
vn 1.000000 0.000000 0.000000
vn 1.000000 0.000000 0.000000
vn 1.000000 0.000000 0.000000
vn -0.024897 0.999380 0.024896
vn 0.000000 1.000000 0.000000
vn 0.000000 1.000000 0.000000
vn -0.024897 0.999380 -0.024896
vn -1.000000 0.000000 0.000000
vn -1.000000 0.000000 0.000000
vn -1.000000 0.000000 0.000000
vn -1.000000 0.000000 0.000000
vn 0.024897 -0.999380 0.024896
vn 0.000000 -1.000000 0.000000
vn 0.000000 -1.000000 0.000000
vn 0.024897 -0.999380 -0.024896
vn 1.000000 0.000000 0.000000
vn 1.000000 0.000000 0.000000
vn 1.000000 0.000000 0.000000
vn 1.000000 0.000000 0.000000
vn -0.000000 0.000000 -1.000000
vn -0.000000 0.000000 -1.000000
vn -0.000000 0.000000 -1.000000
vn -0.000000 0.000000 -1.000000
vn -0.024897 -0.999380 0.024896
vn -0.024896 -0.999380 0.024895
vn -0.144682 -0.978844 0.144680
vn 0.000000 -1.000000 0.000000
vn 0.000000 -1.000000 0.000000
vn -0.024897 -0.999380 0.024896
vn -0.024897 -0.999380 -0.024896
vn -0.024895 -0.999380 -0.024895
vn 0.000000 -1.000000 0.000000
vn -0.024897 -0.999380 -0.024896
vn -0.000000 0.000000 1.000000
vn -0.000000 0.000000 1.000000
vn -0.000000 0.000000 1.000000
vn -0.000000 0.000000 1.000000
vn 0.000000 1.000000 0.000000
vn 0.024895 0.999380 0.024895
vn 0.024897 0.999380 0.024896
vn 0.000000 1.000000 0.000000
vn 0.000000 1.000000 0.000000
vn 0.024897 0.999380 0.024896
vn 0.024897 0.999380 -0.024896
vn 0.024896 0.999380 -0.024895
vn 0.000000 1.000000 0.000000
vn 0.024897 0.999380 -0.024896
vn -0.000000 0.000000 -1.000000
vn -0.000000 0.000000 -1.000000
vn -0.000000 0.000000 -1.000000
vn -0.000000 0.000000 -1.000000
vn 0.000000 -1.000000 0.000000
vn 0.024896 -0.999380 0.024895
vn -0.024896 -0.999380 0.024895
vn 0.000000 -1.000000 0.000000
vn 0.000000 -1.000000 0.000000
vn 0.000000 -1.000000 0.000000
vn 0.000000 -1.000000 0.000000
vn 0.000000 -1.000000 0.000000
vn 0.024895 -0.999380 -0.024895
vn 0.000000 -1.000000 0.000000
vn 0.000000 -1.000000 0.000000
vn -0.024895 -0.999380 -0.024895
vn 0.000000 0.000000 1.000000
vn 0.000000 0.000000 1.000000
vn -0.000000 0.000000 1.000000
vn -0.000000 0.000000 1.000000
vn 0.000000 1.000000 0.000000
vn -0.024895 0.999380 0.024895
vn 0.024895 0.999380 0.024895
vn 0.000000 1.000000 0.000000
vn 0.000000 1.000000 0.000000
vn 0.000000 1.000000 0.000000
vn 0.000000 1.000000 0.000000
vn 0.000000 1.000000 0.000000
vn -0.024896 0.999380 -0.024895
vn 0.000000 1.000000 0.000000
vn 0.000000 1.000000 0.000000
vn 0.024896 0.999380 -0.024895
vn 0.024896 0.999380 -0.024895
vn 0.024897 0.999380 -0.024896
vn 0.144682 0.978844 -0.144680
vn -0.024897 0.999380 -0.024896
vn -0.024896 0.999380 -0.024895
vn -0.144682 0.978844 -0.144680
vn -0.144682 0.978844 0.144681
vn -0.024895 0.999380 0.024895
vn -0.024897 0.999380 0.024896
vn 0.024897 0.999380 0.024896
vn 0.024895 0.999380 0.024895
vn 0.144682 0.978844 0.144681
vn 0.000000 -1.000000 0.000000
vn -0.024896 -0.999380 0.024895
vn -0.024897 -0.999380 0.024896
vn 0.024897 -0.999380 0.024896
vn 0.024896 -0.999380 0.024895
vn 0.000000 -1.000000 0.000000
vn 0.024897 -0.999380 -0.024896
vn 0.024895 -0.999380 -0.024895
vn 0.144682 -0.978844 -0.144681
vn -0.024895 -0.999380 -0.024895
vn -0.024897 -0.999380 -0.024896
vn -0.144682 -0.978844 -0.144681
vn -0.000164 -0.028740 -0.999587
vn -0.000164 -0.028740 -0.999587
vn -0.000070 0.223010 -0.974816
vn -0.000070 0.223144 -0.974786
vn -0.865701 -0.027402 -0.499811
vn -0.865701 -0.027402 -0.499811
vn -0.844928 0.219462 -0.487783
vn -0.844927 0.219467 -0.487783
vn -0.865922 -0.032182 0.499143
vn -0.865922 -0.032182 0.499143
vn -0.842070 0.234277 0.485831
vn -0.842165 0.233826 0.485885
vn 0.000000 -0.039318 0.999227
vn 0.000000 -0.039318 0.999227
vn 0.000000 0.250797 0.968040
vn 0.000000 0.250735 0.968056
vn 0.865347 -0.039081 0.499647
vn 0.865347 -0.039081 0.499647
vn 0.838387 0.250568 0.484070
vn 0.838388 0.250564 0.484070
vn 0.865248 -0.033784 -0.500204
vn 0.865248 -0.033784 -0.500204
vn 0.841073 0.237810 -0.485843
vn 0.840998 0.238163 -0.485799
vn 0.036600 0.989896 -0.136990
vn 0.036600 0.989896 -0.136990
vn 0.036600 0.989896 -0.136990
vn -0.136963 0.989953 -0.035122
vn -0.136963 0.989953 -0.035122
vn -0.136963 0.989953 -0.035122
vn -0.136620 0.987478 0.078876
vn -0.136620 0.987478 0.078876
vn -0.136620 0.987478 0.078876
vn 0.000000 0.987479 0.157752
vn 0.000000 0.987479 0.157752
vn 0.000000 0.987479 0.157752
vn 0.151855 0.985933 0.069829
vn 0.151855 0.985933 0.069829
vn 0.151855 0.985933 0.069829
vn 0.152682 0.985841 -0.069329
vn 0.152682 0.985841 -0.069329
vn 0.152682 0.985841 -0.069329
vn -0.020104 0.336297 -0.941541
vn -0.020104 0.336297 -0.941541
vn -0.020104 0.336297 -0.941541
vn -0.020104 0.336297 -0.941541
vn -0.810540 0.342105 -0.475383
vn -0.810540 0.342105 -0.475383
vn -0.810540 0.342105 -0.475383
vn -0.810540 0.342105 -0.475383
vn -0.822437 0.300551 0.482977
vn -0.822437 0.300551 0.482977
vn -0.822437 0.300551 0.482977
vn -0.822437 0.300551 0.482977
vn 0.006441 0.298998 0.954232
vn 0.006441 0.298998 0.954232
vn 0.006441 0.298998 0.954232
vn 0.006441 0.298998 0.954232
vn 0.816567 0.313131 0.484941
vn 0.816567 0.313131 0.484941
vn 0.816567 0.313131 0.484941
vn 0.816567 0.313131 0.484941
vn 0.835645 0.281966 -0.471373
vn 0.835645 0.281966 -0.471373
vn 0.835645 0.281966 -0.471373
vn 0.835645 0.281966 -0.471374
vn 0.048347 0.827120 -0.559942
vn 0.048347 0.827120 -0.559942
vn 0.048347 0.827120 -0.559942
vn 0.048347 0.827120 -0.559942
vn -0.485587 0.844300 -0.226634
vn -0.485587 0.844300 -0.226634
vn -0.485587 0.844300 -0.226634
vn -0.485587 0.844300 -0.226634
vn -0.452386 0.852726 0.261161
vn -0.452386 0.852726 0.261161
vn -0.452386 0.852726 0.261161
vn -0.452386 0.852726 0.261161
vn -0.019018 0.868706 0.494963
vn -0.019018 0.868706 0.494963
vn -0.019018 0.868706 0.494963
vn -0.019018 0.868706 0.494963
vn 0.446231 0.859841 0.248097
vn 0.446231 0.859840 0.248097
vn 0.446231 0.859841 0.248097
vn 0.446231 0.859840 0.248097
vn 0.466952 0.834261 -0.293196
vn 0.466952 0.834261 -0.293196
vn 0.466952 0.834261 -0.293196
vn 0.466952 0.834261 -0.293196
vn 0.000000 0.112604 0.993640
vn 0.000000 0.112604 0.993640
vn 0.000000 0.112604 0.993640
vn 0.000000 0.112604 0.993640
vn -0.855624 0.138300 0.498779
vn -0.855624 0.138300 0.498779
vn -0.855624 0.138300 0.498779
vn -0.855624 0.138300 0.498779
vn -0.852007 0.179188 -0.491910
vn -0.852007 0.179188 -0.491910
vn -0.852007 0.179188 -0.491910
vn -0.852007 0.179188 -0.491910
vn 0.004120 0.138418 -0.990365
vn 0.004120 0.138418 -0.990365
vn 0.004120 0.138418 -0.990365
vn 0.004120 0.138418 -0.990365
vn 0.860523 0.112673 -0.496796
vn 0.860523 0.112673 -0.496796
vn 0.860523 0.112673 -0.496796
vn 0.860523 0.112673 -0.496796
vn 0.860510 0.112673 0.496817
vn 0.860510 0.112673 0.496817
vn 0.860510 0.112673 0.496817
vn 0.860510 0.112673 0.496817
vn 0.000000 -1.000000 0.000000
vn 0.000000 -1.000000 0.000000
vn 0.000000 -1.000000 0.000000
vn 0.000000 -1.000000 0.000000
vn 0.000000 -1.000000 0.000000
vn 0.000000 -1.000000 0.000000
vn 0.000000 -1.000000 0.000000
vn 0.000000 -1.000000 0.000000
vn 0.000000 -1.000000 0.000000
vn 0.000000 -1.000000 0.000000
vn 0.000000 -1.000000 0.000000
vn 0.000000 -1.000000 0.000000
vn 0.000000 -1.000000 0.000000
vn 0.000000 -1.000000 0.000000
vn 0.000000 -1.000000 0.000000
vn 0.000000 -1.000000 0.000000
vn 0.000000 -1.000000 0.000000
vn 0.000000 -1.000000 0.000000
vn 0.000000 -0.488046 0.872818
vn 0.000000 -0.488046 0.872818
vn 0.000000 -0.488046 0.872818
vn 0.000000 -0.488046 0.872818
vn -0.791961 -0.421021 0.442199
vn -0.791961 -0.421021 0.442199
vn -0.791961 -0.421021 0.442199
vn -0.791961 -0.421021 0.442199
vn -0.804930 -0.368995 -0.464684
vn -0.804930 -0.368995 -0.464684
vn -0.804930 -0.368995 -0.464684
vn -0.804930 -0.368995 -0.464684
vn -0.013018 -0.421240 -0.906856
vn -0.013018 -0.421240 -0.906856
vn -0.013018 -0.421240 -0.906856
vn -0.013018 -0.421240 -0.906856
vn 0.755814 -0.488218 -0.436335
vn 0.755814 -0.488218 -0.436335
vn 0.755814 -0.488218 -0.436335
vn 0.755814 -0.488218 -0.436335
vn 0.755803 -0.488218 0.436354
vn 0.755803 -0.488218 0.436354
vn 0.755803 -0.488218 0.436354
vn 0.755803 -0.488218 0.436354
vn 0.787682 -0.415612 0.454779
vn 0.787682 -0.415612 0.454779
vn 0.787682 -0.415612 0.454779
vn 0.787682 -0.415612 0.454779
vn 0.000000 -0.415846 0.909435
vn 0.000000 -0.415846 0.909435
vn 0.000000 -0.415846 0.909435
vn 0.000000 -0.415846 0.909435
vn -0.787557 -0.415903 0.454729
vn -0.787557 -0.415903 0.454729
vn -0.787557 -0.415903 0.454729
vn -0.787557 -0.415903 0.454729
vn -0.787568 -0.415903 -0.454711
vn -0.787568 -0.415902 -0.454710
vn -0.787568 -0.415903 -0.454711
vn -0.787568 -0.415903 -0.454711
vn 0.000000 -0.415846 -0.909435
vn 0.000000 -0.415846 -0.909435
vn 0.000000 -0.415846 -0.909435
vn 0.000000 -0.415846 -0.909435
vn 0.787693 -0.415612 -0.454761
vn 0.787693 -0.415612 -0.454761
vn 0.787693 -0.415612 -0.454761
vn 0.787693 -0.415612 -0.454761
vn 0.795838 0.394369 -0.459472
vn 0.840998 0.238163 -0.485799
vn 0.841073 0.237810 -0.485843
vn 0.795838 0.394369 -0.459472
vn 0.000000 0.394705 -0.918808
vn -0.000070 0.223144 -0.974786
vn -0.000070 0.223010 -0.974816
vn 0.000000 0.394705 -0.918808
vn -0.795783 0.394581 -0.459385
vn -0.844927 0.219467 -0.487783
vn -0.844928 0.219462 -0.487783
vn -0.795783 0.394581 -0.459385
vn -0.795772 0.394581 0.459404
vn -0.842165 0.233826 0.485885
vn -0.842070 0.234277 0.485831
vn -0.795772 0.394581 0.459404
vn 0.000000 0.394705 0.918808
vn 0.000000 0.250735 0.968056
vn 0.000000 0.250797 0.968040
vn 0.000000 0.394705 0.918808
vn 0.795827 0.394370 0.459491
vn 0.838388 0.250564 0.484070
vn 0.838387 0.250568 0.484070
vn 0.795827 0.394370 0.459491
s off
f 1/1/1 29/44/2 30/46/3 3/3/4
f 14/26/5 30/46/6 31/47/7
f 5/5/8 25/40/9 26/41/10 7/7/11
f 15/28/12 28/43/13 29/45/14
f 2/2/15 16/30/16 13/24/17 4/4/18
f 15/27/19 1/1/20 3/3/21 14/25/22
f 10/18/23 32/48/24 25/40/25
f 7/13/26 11/19/27 10/17/28 5/14/29
f 7/7/30 26/41/31 11/20/32
f 9/16/33 12/22/34 8/11/35 6/12/36
f 14/26/37 31/47/38 32/48/39 10/18/40
f 11/19/41 15/27/42 14/25/43 10/17/44
f 11/20/45 27/42/46 28/43/47 15/28/48
f 13/24/49 16/30/50 12/22/51 9/16/52
f 17/31/53 6/6/54 8/8/55 18/32/56
f 12/21/57 18/32/58 8/8/59
f 20/34/60 19/33/61 12/21/62 16/29/63
f 21/36/64 20/34/65 16/29/66
f 22/37/67 21/35/68 2/2/69 4/4/70
f 23/38/71 22/37/72 13/23/73
f 24/39/74 23/38/75 13/23/76 9/15/77
f 17/31/78 24/39/79 9/15/80
f 25/40/81 17/31/82 18/32/83 26/41/84
f 27/42/85 26/41/86 18/32/87 19/33/88
f 28/43/89 27/42/90 19/33/91 20/34/92
f 29/45/93 28/43/94 20/34/95 21/36/96
f 30/46/97 29/44/98 21/35/99 22/37/100
f 31/47/101 30/46/102 22/37/103 23/38/104
f 32/48/105 31/47/106 23/38/107 24/39/108
f 25/40/109 32/48/110 24/39/111 17/31/112
f 17/31/113 9/15/114 6/6/115
f 10/18/116 25/40/117 5/5/118
f 3/3/119 30/46/120 14/26/121
f 13/23/122 22/37/123 4/4/124
f 19/33/125 18/32/126 12/21/127
f 11/20/128 26/41/129 27/42/130
f 15/28/131 29/45/132 1/9/133
f 21/36/134 16/29/135 2/10/136
f 34/51/137 33/50/138 78/117/139 79/118/140
f 35/53/141 34/52/142 79/118/143 80/119/144
f 36/55/145 35/54/146 80/119/147 81/120/148
f 37/57/149 36/56/150 81/120/151 82/121/152
f 38/59/153 37/58/154 82/121/155 77/122/156
f 33/49/157 38/60/158 77/122/159 78/117/160
f 46/62/161 45/61/162 47/63/163
f 46/62/164 47/63/165 48/64/166
f 46/62/167 48/64/168 49/65/169
f 46/62/170 49/65/171 50/66/172
f 46/62/173 50/66/174 51/67/175
f 46/62/176 51/67/177 45/61/178
f 39/69/179 33/68/180 34/70/181 40/71/182
f 40/71/183 34/70/184 35/72/185 41/73/186
f 41/73/187 35/72/188 36/74/189 42/75/190
f 42/75/191 36/74/192 37/76/193 43/77/194
f 43/77/195 37/76/196 38/78/197 44/79/198
f 44/79/199 38/78/200 33/68/201 39/69/202
f 45/61/203 39/69/204 40/71/205 47/63/206
f 47/63/207 40/71/208 41/73/209 48/64/210
f 48/64/211 41/73/212 42/75/213 49/65/214
f 49/65/215 42/75/216 43/77/217 50/66/218
f 50/66/219 43/77/220 44/79/221 51/67/222
f 45/61/223 51/67/224 44/79/225 39/69/226
f 58/83/227 52/82/228 53/84/229 59/85/230
f 59/87/231 53/86/232 54/88/233 60/89/234
f 60/91/235 54/90/236 55/92/237 61/93/238
f 61/95/239 55/94/240 56/96/241 62/97/242
f 62/99/243 56/98/244 57/100/245 63/101/246
f 63/103/247 57/102/248 52/80/249 58/81/250
f 70/104/251 64/105/252 65/106/253
f 70/104/254 65/106/255 66/107/256
f 70/104/257 66/107/258 67/108/259
f 70/104/260 67/108/261 68/109/262
f 70/104/263 68/109/264 69/110/265
f 70/104/266 69/110/267 64/105/268
f 64/105/269 58/111/270 59/112/271 65/106/272
f 65/106/273 59/112/274 60/113/275 66/107/276
f 66/107/277 60/113/278 61/114/279 67/108/280
f 67/108/281 61/114/282 62/115/283 68/109/284
f 68/109/285 62/115/286 63/116/287 69/110/288
f 69/110/289 63/116/290 58/111/291 64/105/292
f 75/124/293 52/123/294 57/145/295 76/146/296
f 74/128/297 53/127/298 52/125/299 75/126/300
f 73/132/301 54/131/302 53/129/303 74/130/304
f 72/136/305 55/135/306 54/133/307 73/134/308
f 71/140/309 56/139/310 55/137/311 72/138/312
f 76/144/313 57/143/314 56/141/315 71/142/316
f 71/148/317 78/160/318 77/159/319 76/147/320
f 72/150/321 79/162/322 78/161/323 71/149/324
f 73/152/325 80/164/326 79/163/327 72/151/328
f 74/154/329 81/166/330 80/165/331 73/153/332
f 75/156/333 82/168/334 81/167/335 74/155/336
f 76/158/337 77/170/338 82/169/339 75/157/340
