# This file uses centimeters as units for non-parametric coordinates.

v -0.327563 0.122038 0.006166
v -0.327563 0.122038 0.043941
v -0.327563 1.078235 0.043941
v -0.327563 1.078235 0.006166
v 0.328124 0.122038 0.006166
v 0.328124 0.122038 0.043941
v 0.328124 1.078235 0.043941
v 0.328124 1.078235 0.006166
vt 0.508002 0.253383
vt 0.508002 0.253383
vt 0.508002 0.253383
vt 0.508002 0.253383
vt 0.167962 0.748281
vt 0.167962 0.503422
vt 0.332724 0.503422
vt 0.332724 0.748281
vt 0.508002 0.253383
vt 0.508002 0.253383
vt 0.508002 0.253383
vt 0.508002 0.253383
vt 0.502935 0.244937
vt 0.502935 0.244937
vt 0.502935 0.244937
vt 0.502935 0.244937
vt 0.502935 0.244937
vt 0.502935 0.244937
vt 0.502935 0.244937
vt 0.502935 0.244937
vn 0.000000 -1.000000 0.000000
vn 0.000000 -1.000000 0.000000
vn 0.000000 -1.000000 0.000000
vn 0.000000 -1.000000 0.000000
vn 0.000000 0.000000 1.000000
vn 0.000000 0.000000 1.000000
vn 0.000000 0.000000 1.000000
vn 0.000000 0.000000 1.000000
vn 0.000000 1.000000 0.000000
vn 0.000000 1.000000 0.000000
vn 0.000000 1.000000 0.000000
vn 0.000000 1.000000 0.000000
vn 0.000000 0.000000 -1.000000
vn 0.000000 0.000000 -1.000000
vn 0.000000 0.000000 -1.000000
vn 0.000000 0.000000 -1.000000
vn -1.000000 0.000000 0.000000
vn -1.000000 0.000000 0.000000
vn -1.000000 0.000000 0.000000
vn -1.000000 0.000000 0.000000
vn 1.000000 0.000000 0.000000
vn 1.000000 0.000000 0.000000
vn 1.000000 0.000000 0.000000
vn 1.000000 0.000000 0.000000
s off
f 2/1/1 1/2/2 5/3/3 6/4/4
f 3/5/5 2/6/6 6/7/7 7/8/8
f 4/9/9 3/10/10 7/11/11 8/12/12
f 1/2/13 4/9/14 8/12/15 5/3/16
f 2/13/17 3/14/18 4/15/19 1/16/20
f 6/17/21 5/18/22 8/19/23 7/20/24
