# This file uses centimeters as units for non-parametric coordinates.

v -0.327563 0.122038 0.043941
v -0.327563 1.078235 0.043941
v -0.327563 1.078235 0.006166
v -0.327563 0.122038 0.006166
v 0.327563 1.078235 0.043941
v 0.327563 0.122038 0.043941
v 0.327563 0.122038 0.006166
v 0.327563 1.078235 0.006166
vt 0.508002 0.253383
vt 0.508002 0.253383
vt 0.508002 0.253383
vt 0.508002 0.253383
vt 0.001310 0.503422
vt 0.165932 0.503422
vt 0.165932 0.748281
vt 0.001310 0.748281
vt 0.508002 0.253383
vt 0.508002 0.253383
vt 0.508002 0.253383
vt 0.508002 0.253383
vt 0.508002 0.253383
vt 0.508002 0.253383
vt 0.508002 0.253383
vt 0.499557 0.239870
vt 0.499557 0.239870
vt 0.499557 0.239870
vt 0.499557 0.239870
vn -1.000000 0.000000 0.000000
vn -1.000000 0.000000 0.000000
vn -1.000000 0.000000 0.000000
vn -1.000000 0.000000 0.000000
vn 0.000000 0.000000 1.000000
vn 0.000000 0.000000 1.000000
vn 0.000000 0.000000 1.000000
vn 0.000000 0.000000 1.000000
vn 0.000000 -1.000000 0.000000
vn 0.000000 -1.000000 0.000000
vn 0.000000 -1.000000 0.000000
vn 0.000000 -1.000000 0.000000
vn 0.000000 0.000000 -1.000000
vn 0.000000 0.000000 -1.000000
vn 0.000000 0.000000 -1.000000
vn 0.000000 0.000000 -1.000000
vn 0.000000 1.000000 0.000000
vn 0.000000 1.000000 0.000000
vn 0.000000 1.000000 0.000000
vn 0.000000 1.000000 0.000000
vn 1.000000 0.000000 0.000000
vn 1.000000 0.000000 0.000000
vn 1.000000 0.000000 0.000000
vn 1.000000 0.000000 0.000000
s off
f 4/1/1 1/2/2 2/3/3 3/4/4
f 1/5/5 6/6/6 5/7/7 2/8/8
f 4/9/9 7/10/10 6/11/11 1/12/12
f 3/13/13 8/14/14 7/10/15 4/9/16
f 2/3/17 5/15/18 8/14/19 3/13/20
f 6/16/21 7/17/22 8/18/23 5/19/24
