# This file uses centimeters as units for non-parametric coordinates.

v -0.006533 0.168327 0.190055
v -0.006533 0.168327 -0.190053
v -0.006533 0.548434 -0.190053
v -0.006533 0.548434 0.190055
v -0.039186 0.168327 0.190055
v -0.039186 0.168327 -0.190053
v -0.039186 0.548434 -0.190053
v -0.039186 0.548434 0.190055
v -0.006533 0.124642 0.233740
v -0.006533 0.124642 -0.233739
v -0.006533 0.592120 -0.233739
v -0.006533 0.592120 0.233740
v -0.474012 0.168327 -0.190055
v -0.474012 0.168327 0.190053
v -0.474012 0.548434 0.190053
v -0.474012 0.548434 -0.190055
v -0.441360 0.168327 -0.190055
v -0.441360 0.168327 0.190053
v -0.441360 0.548434 0.190053
v -0.441360 0.548434 -0.190055
v -0.474012 0.124642 -0.233740
v -0.474012 0.124642 0.233740
v -0.474012 0.592120 0.233740
v -0.474012 0.592120 -0.233740
v -0.430327 0.168327 0.233740
v -0.050219 0.168327 0.233740
v -0.050219 0.548434 0.233740
v -0.430327 0.548434 0.233740
v -0.430327 0.168327 0.201087
v -0.050219 0.168327 0.201087
v -0.050219 0.548434 0.201087
v -0.430327 0.548434 0.201087
v -0.430327 0.168327 -0.233739
v -0.050219 0.168327 -0.233739
v -0.430327 0.548434 -0.233739
v -0.050219 0.548434 -0.233739
v -0.430327 0.168327 -0.201085
v -0.050219 0.168327 -0.201085
v -0.430327 0.548434 -0.201085
v -0.050219 0.548434 -0.201085
v -0.046554 0.592120 0.193719
v -0.046554 0.592120 -0.193720
v -0.433993 0.592120 -0.193720
v -0.433993 0.592120 0.193719
v -0.407474 0.103544 0.167201
v -0.407474 0.103544 -0.167200
v -0.073073 0.103544 -0.167200
v -0.073073 0.103544 0.167201
v -0.407474 0.000000 0.167201
v -0.407474 0.000000 -0.167200
v -0.073073 0.000000 -0.167200
v -0.073073 0.000000 0.167201
v 0.016815 0.196275 -0.120865
v 0.016815 0.235415 -0.133582
v 0.016815 0.235415 -0.174736
v 0.016815 0.196275 -0.187453
v 0.016815 0.172085 -0.154159
v -0.049832 0.196275 -0.120865
v -0.049832 0.235415 -0.133582
v -0.049832 0.235415 -0.174736
v -0.049832 0.196275 -0.187453
v -0.049832 0.172085 -0.154159
v 0.032475 0.196275 -0.120865
v 0.032475 0.235415 -0.133582
v 0.032475 0.235415 -0.174736
v 0.032475 0.196275 -0.187453
v 0.032475 0.172085 -0.154159
v 0.369680 0.191852 -0.120865
v 0.381230 0.229249 -0.133582
v 0.381230 0.229249 -0.174736
v 0.369680 0.191852 -0.187453
v 0.362541 0.168740 -0.154159
v 0.425678 0.157763 -0.121156
v 0.459051 0.179026 -0.132457
v 0.460229 0.179932 -0.173585
v 0.427583 0.159228 -0.187700
v 0.406229 0.145527 -0.155297
v 0.434908 0.116058 -0.120865
v 0.474012 0.116058 -0.133582
v 0.474012 0.116058 -0.174736
v 0.434908 0.116058 -0.187453
v 0.410740 0.116058 -0.154159
v 0.434908 0.000000 -0.120865
v 0.474012 0.000000 -0.133582
v 0.474012 0.000000 -0.174736
v 0.434908 0.000000 -0.187453
v 0.410740 0.000000 -0.154159
v 0.016815 0.193499 -0.112321
v 0.016815 0.242683 -0.128302
v 0.032475 0.193499 -0.112321
v 0.032475 0.242683 -0.128302
v 0.016815 0.242683 -0.180017
v 0.032475 0.242683 -0.180017
v 0.016815 0.193499 -0.195997
v 0.032475 0.193499 -0.195997
v 0.016815 0.163102 -0.154159
v 0.032475 0.163102 -0.154159
v 0.201283 0.235357 -0.174736
v 0.201283 0.235357 -0.133582
v 0.201175 0.196233 -0.120865
v 0.201108 0.172054 -0.154159
v 0.201175 0.196233 -0.187453
vt 0.170523 0.925620
vt 0.170523 0.992084
vt 0.007493 0.992084
vt 0.007493 0.925620
vt 0.100285 0.329684
vt 0.100285 0.329684
vt 0.100285 0.329684
vt 0.100285 0.329684
vt 0.100285 0.329684
vt 0.100285 0.329684
vt 0.100285 0.329684
vt 0.100285 0.329684
vt 0.100285 0.329684
vt 0.100285 0.329684
vt 0.100285 0.329684
vt 0.100285 0.329684
vt 0.170523 0.925620
vt 0.170523 0.992084
vt 0.007493 0.992084
vt 0.007493 0.925620
vt 0.100285 0.329684
vt 0.100285 0.329684
vt 0.100285 0.329684
vt 0.100285 0.329684
vt 0.100285 0.329684
vt 0.100285 0.329684
vt 0.100285 0.329684
vt 0.100285 0.329684
vt 0.100285 0.329684
vt 0.100285 0.329684
vt 0.100285 0.329684
vt 0.100285 0.329684
vt 0.170523 0.925620
vt 0.170523 0.992084
vt 0.007493 0.992084
vt 0.007493 0.925620
vt 0.100285 0.329684
vt 0.100285 0.329684
vt 0.100285 0.329684
vt 0.100285 0.329684
vt 0.100285 0.329684
vt 0.100285 0.329684
vt 0.100285 0.329684
vt 0.100285 0.329684
vt 0.100285 0.329684
vt 0.100285 0.329684
vt 0.100285 0.329684
vt 0.100285 0.329684
vt 0.099125 0.831363
vt 0.099125 0.907878
vt 0.022609 0.907878
vt 0.022609 0.831363
vt 0.101092 0.278012
vt 0.101092 0.278012
vt 0.101092 0.278012
vt 0.101092 0.278012
vt 0.170523 0.992084
vt 0.170523 0.925620
vt 0.007493 0.925620
vt 0.007493 0.992084
vt 0.100285 0.329684
vt 0.100285 0.329684
vt 0.100285 0.329684
vt 0.100285 0.329684
vt 0.100285 0.329684
vt 0.100285 0.329684
vt 0.100285 0.329684
vt 0.100285 0.329684
vt 0.100285 0.329684
vt 0.100285 0.329684
vt 0.100285 0.329684
vt 0.100285 0.329684
vt 0.022722 0.846999
vt 0.022722 0.846999
vt 0.022722 0.846999
vt 0.022722 0.846999
vt 0.022722 0.846999
vt 0.022722 0.846999
vt 0.022722 0.846999
vt 0.022722 0.846999
vt 0.100285 0.329684
vt 0.100285 0.329684
vt 0.100285 0.329684
vt 0.100285 0.329684
vt 0.100285 0.329684
vt 0.100285 0.329684
vt 0.100285 0.329684
vt 0.100285 0.329684
vt 0.101092 0.278012
vt 0.101092 0.278012
vt 0.101092 0.278012
vt 0.101092 0.278012
vt 0.131122 0.303808
vt 0.131122 0.303808
vt 0.131122 0.303808
vt 0.131122 0.303808
vt 0.131122 0.303808
vt 0.131122 0.303808
vt 0.131122 0.303808
vt 0.131122 0.303808
vt 0.131122 0.303808
vt 0.131122 0.303808
vt 0.134982 0.231429
vt 0.134982 0.231429
vt 0.134982 0.231429
vt 0.134982 0.231429
vt 0.134982 0.231429
vt 0.134982 0.231429
vt 0.134982 0.231429
vt 0.134982 0.231429
vt 0.134982 0.231429
vt 0.134982 0.231429
vt 0.131122 0.303808
vt 0.131122 0.303808
vt 0.131122 0.303808
vt 0.131122 0.303808
vt 0.131122 0.303808
vt 0.131122 0.303808
vt 0.131122 0.303808
vt 0.131122 0.303808
vt 0.131122 0.303808
vt 0.131122 0.303808
vt 0.131122 0.303808
vt 0.131122 0.303808
vt 0.131122 0.303808
vt 0.131122 0.303808
vt 0.131122 0.303808
vt 0.131122 0.303808
vt 0.131122 0.303808
vt 0.131122 0.303808
vt 0.131122 0.303808
vt 0.131122 0.303808
vt 0.131122 0.303808
vt 0.131122 0.303808
vt 0.131122 0.303808
vt 0.131122 0.303808
vt 0.131122 0.303808
vt 0.134982 0.231429
vt 0.134982 0.231429
vt 0.134982 0.231429
vt 0.134982 0.231429
vt 0.134982 0.231429
vt 0.134982 0.231429
vt 0.134982 0.231429
vt 0.134982 0.231429
vt 0.134982 0.231429
vt 0.134982 0.231429
vt 0.131122 0.303808
vt 0.131122 0.303808
vt 0.131122 0.303808
vt 0.131122 0.303808
vt 0.131122 0.303808
vn 1.000000 0.000000 0.000000
vn 1.000000 0.000000 0.000000
vn 1.000000 0.000000 0.000000
vn 1.000000 0.000000 0.000000
vn 1.000000 -0.000016 0.000000
vn 1.000000 -0.000016 0.000000
vn 1.000000 -0.000016 0.000000
vn 1.000000 -0.000016 0.000000
vn 1.000000 0.000000 -0.000016
vn 1.000000 0.000000 -0.000016
vn 1.000000 0.000000 -0.000016
vn 1.000000 0.000000 -0.000016
vn 1.000000 0.000016 0.000000
vn 1.000000 0.000016 0.000000
vn 1.000000 0.000016 0.000000
vn 1.000000 0.000016 0.000000
vn 1.000000 0.000000 0.000016
vn 1.000000 0.000000 0.000016
vn 1.000000 0.000000 0.000016
vn 1.000000 0.000000 0.000016
vn 0.000000 1.000000 0.000000
vn 0.000000 1.000000 0.000000
vn 0.000000 1.000000 0.000000
vn 0.000000 1.000000 0.000000
vn 0.000000 0.000000 1.000000
vn 0.000000 0.000000 1.000000
vn 0.000000 0.000000 1.000000
vn 0.000000 0.000000 1.000000
vn 0.000000 -1.000000 0.000000
vn 0.000000 -1.000000 0.000000
vn 0.000000 -1.000000 0.000000
vn 0.000000 -1.000000 0.000000
vn 0.000000 0.000000 -1.000000
vn 0.000000 0.000000 -1.000000
vn 0.000000 0.000000 -1.000000
vn 0.000000 0.000000 -1.000000
vn -1.000000 0.000000 0.000000
vn -1.000000 0.000000 0.000000
vn -1.000000 0.000000 0.000000
vn -1.000000 0.000000 0.000000
vn -1.000000 -0.000003 0.000000
vn -1.000000 -0.000003 0.000000
vn -1.000000 -0.000003 0.000000
vn -1.000000 -0.000003 0.000000
vn -1.000000 0.000000 0.000005
vn -1.000000 0.000000 0.000005
vn -1.000000 0.000000 0.000005
vn -1.000000 0.000000 0.000005
vn -1.000000 0.000002 0.000000
vn -1.000000 0.000002 0.000000
vn -1.000000 0.000002 0.000000
vn -1.000000 0.000002 0.000000
vn -1.000000 0.000000 0.000000
vn -1.000000 0.000000 0.000000
vn -1.000000 0.000000 0.000000
vn -1.000000 0.000000 0.000000
vn 0.000000 1.000000 0.000000
vn 0.000000 1.000000 0.000000
vn 0.000000 1.000000 0.000000
vn 0.000000 1.000000 0.000000
vn 0.000000 0.000000 -1.000000
vn 0.000000 0.000000 -1.000000
vn 0.000000 0.000000 -1.000000
vn 0.000000 0.000000 -1.000000
vn 0.000000 -1.000000 0.000000
vn 0.000000 -1.000000 0.000000
vn 0.000000 -1.000000 0.000000
vn 0.000000 -1.000000 0.000000
vn 0.000000 0.000000 1.000000
vn 0.000000 0.000000 1.000000
vn 0.000000 0.000000 1.000000
vn 0.000000 0.000000 1.000000
vn 0.000000 0.000000 1.000000
vn 0.000000 0.000000 1.000000
vn 0.000000 0.000000 1.000000
vn 0.000000 0.000000 1.000000
vn 0.000000 0.000000 1.000000
vn 0.000000 0.000000 1.000000
vn 0.000000 0.000000 1.000000
vn 0.000000 0.000000 1.000000
vn -0.000000 0.000000 1.000000
vn -0.000000 0.000000 1.000000
vn -0.000000 0.000000 1.000000
vn -0.000000 0.000000 1.000000
vn 0.000000 0.000000 1.000000
vn 0.000000 0.000000 1.000000
vn 0.000000 0.000000 1.000000
vn 0.000000 0.000000 1.000000
vn -0.000000 0.000000 1.000000
vn -0.000000 0.000000 1.000000
vn -0.000000 0.000000 1.000000
vn -0.000000 0.000000 1.000000
vn 0.000000 1.000000 0.000000
vn 0.000000 1.000000 0.000000
vn 0.000000 1.000000 0.000000
vn 0.000000 1.000000 0.000000
vn -1.000000 0.000000 0.000000
vn -1.000000 0.000000 0.000000
vn -1.000000 0.000000 0.000000
vn -1.000000 0.000000 0.000000
vn 0.000000 -1.000000 0.000000
vn 0.000000 -1.000000 0.000000
vn 0.000000 -1.000000 0.000000
vn 0.000000 -1.000000 0.000000
vn 1.000000 0.000000 0.000000
vn 1.000000 0.000000 0.000000
vn 1.000000 0.000000 0.000000
vn 1.000000 0.000000 0.000000
vn 0.000000 1.000000 0.000000
vn 0.000000 1.000000 0.000000
vn 0.000000 1.000000 0.000000
vn 0.000000 1.000000 0.000000
vn 0.000000 0.000000 -1.000000
vn 0.000000 0.000000 -1.000000
vn 0.000000 0.000000 -1.000000
vn 0.000000 0.000000 -1.000000
vn 0.000001 0.000011 -1.000000
vn 0.000001 0.000011 -1.000000
vn 0.000001 0.000011 -1.000000
vn 0.000001 0.000011 -1.000000
vn 0.000022 0.000000 -1.000000
vn 0.000022 0.000000 -1.000000
vn 0.000022 0.000000 -1.000000
vn 0.000022 0.000000 -1.000000
vn 0.000001 -0.000011 -1.000000
vn 0.000001 -0.000011 -1.000000
vn 0.000001 -0.000011 -1.000000
vn 0.000001 -0.000011 -1.000000
vn 0.000000 0.000000 -1.000000
vn 0.000000 0.000000 -1.000000
vn 0.000000 0.000000 -1.000000
vn 0.000000 0.000000 -1.000000
vn 0.000000 1.000000 0.000000
vn 0.000000 1.000000 0.000000
vn 0.000000 1.000000 0.000000
vn 0.000000 1.000000 0.000000
vn 1.000000 0.000000 0.000000
vn 1.000000 0.000000 0.000000
vn 1.000000 0.000000 0.000000
vn 1.000000 0.000000 0.000000
vn 0.000000 -1.000000 0.000000
vn 0.000000 -1.000000 0.000000
vn 0.000000 -1.000000 0.000000
vn 0.000000 -1.000000 0.000000
vn -1.000000 0.000000 0.000000
vn -1.000000 0.000000 0.000000
vn -1.000000 0.000000 0.000000
vn -1.000000 0.000000 0.000000
vn 0.000000 1.000000 0.000000
vn 0.000000 1.000000 0.000000
vn 0.000000 1.000000 0.000000
vn 0.000000 1.000000 0.000000
vn 0.000000 1.000000 0.000001
vn 0.000000 1.000000 0.000001
vn 0.000000 1.000000 0.000001
vn 0.000000 1.000000 0.000001
vn 0.000000 1.000000 0.000000
vn 0.000000 1.000000 0.000000
vn 0.000000 1.000000 0.000000
vn 0.000000 1.000000 0.000000
vn 0.000000 1.000000 -0.000001
vn 0.000000 1.000000 -0.000001
vn 0.000000 1.000000 -0.000001
vn 0.000000 1.000000 -0.000001
vn -0.302257 -0.953227 0.000000
vn -0.302257 -0.953227 0.000000
vn -0.302257 -0.953227 0.000000
vn -0.302257 -0.953227 0.000000
vn 0.000000 -0.953227 -0.302254
vn 0.000000 -0.953228 -0.302254
vn 0.000000 -0.953227 -0.302254
vn 0.000000 -0.953227 -0.302254
vn 0.302253 -0.953228 0.000000
vn 0.302253 -0.953228 0.000000
vn 0.302253 -0.953228 0.000000
vn 0.302253 -0.953228 0.000000
vn 0.000000 -0.953227 0.302256
vn 0.000000 -0.953227 0.302256
vn 0.000000 -0.953227 0.302256
vn 0.000000 -0.953227 0.302256
vn -1.000000 0.000000 0.000000
vn -1.000000 0.000000 0.000000
vn -1.000000 0.000000 0.000000
vn -1.000000 0.000000 0.000000
vn 0.000000 0.000000 -1.000000
vn 0.000000 0.000000 -1.000000
vn 0.000000 0.000000 -1.000000
vn 0.000000 0.000000 -1.000000
vn 1.000000 0.000000 0.000000
vn 1.000000 0.000000 0.000000
vn 1.000000 0.000000 0.000000
vn 1.000000 0.000000 0.000000
vn 0.000000 0.000000 1.000000
vn 0.000000 0.000000 1.000000
vn 0.000000 0.000000 1.000000
vn 0.000000 0.000000 1.000000
vn 0.000000 0.309016 0.951057
vn 0.000000 0.309016 0.951057
vn 0.000000 0.309016 0.951057
vn 0.000000 0.309016 0.951057
vn 0.000000 1.000000 0.000000
vn 0.000000 1.000000 0.000000
vn 0.000000 1.000000 0.000000
vn 0.000000 1.000000 0.000000
vn 0.000000 0.309016 -0.951057
vn 0.000000 0.309016 -0.951057
vn 0.000000 0.309016 -0.951057
vn 0.000000 0.309016 -0.951057
vn 0.000000 -0.809021 -0.587780
vn 0.000000 -0.809021 -0.587780
vn 0.000000 -0.809021 -0.587780
vn 0.000000 -0.809021 -0.587780
vn 0.000000 -0.809013 0.587791
vn 0.000000 -0.809013 0.587791
vn 0.000000 -0.809013 0.587791
vn 0.000000 -0.809013 0.587791
vn 0.000000 0.309017 0.951057
vn 0.000000 0.309017 0.951057
vn 0.000000 0.309017 0.951057
vn 0.000000 0.309017 0.951057
vn 0.000000 1.000000 0.000000
vn 0.000000 1.000000 0.000000
vn 0.000000 1.000000 0.000000
vn 0.000000 1.000000 0.000000
vn 0.000000 0.309017 -0.951057
vn 0.000000 0.309017 -0.951057
vn 0.000000 0.309017 -0.951057
vn 0.000000 0.309017 -0.951057
vn 0.000000 -0.809021 -0.587779
vn 0.000000 -0.809021 -0.587779
vn 0.000000 -0.809021 -0.587779
vn 0.000000 -0.809021 -0.587779
vn 0.000000 -0.809015 0.587788
vn 0.000000 -0.809015 0.587788
vn 0.000000 -0.809015 0.587788
vn 0.000000 -0.809015 0.587788
vn 0.004769 0.311594 0.950203
vn 0.004839 0.311632 0.950191
vn 0.009455 0.314109 0.949340
vn 0.009455 0.314109 0.949340
vn 0.017676 0.999844 0.000000
vn 0.017676 0.999844 0.000000
vn 0.033923 0.999424 0.000000
vn 0.033923 0.999424 0.000000
vn 0.004839 0.311632 -0.950191
vn 0.004769 0.311594 -0.950203
vn 0.009455 0.314109 -0.949340
vn 0.009455 0.314109 -0.949340
vn -0.009475 -0.811648 -0.584070
vn -0.009412 -0.811631 -0.584095
vn -0.018989 -0.814187 -0.580293
vn -0.018989 -0.814187 -0.580293
vn -0.009412 -0.811623 0.584106
vn -0.009475 -0.811640 0.584081
vn -0.018989 -0.814179 0.580304
vn -0.018989 -0.814179 0.580304
vn 0.161396 0.265573 0.950486
vn 0.161395 0.265573 0.950485
vn 0.161395 0.265573 0.950485
vn 0.161396 0.265573 0.950485
vn 0.535647 0.844272 0.016955
vn 0.535647 0.844272 0.016955
vn 0.535647 0.844272 0.016955
vn 0.535647 0.844272 0.016955
vn 0.182441 0.294458 -0.938088
vn 0.182441 0.294458 -0.938089
vn 0.182441 0.294458 -0.938088
vn 0.182441 0.294458 -0.938088
vn -0.400439 -0.714319 -0.573931
vn -0.400439 -0.714319 -0.573931
vn -0.400439 -0.714319 -0.573931
vn -0.400439 -0.714319 -0.573931
vn -0.411906 -0.730173 0.545144
vn -0.411906 -0.730173 0.545144
vn -0.411906 -0.730173 0.545144
vn -0.411906 -0.730173 0.545144
vn 0.297747 0.061219 0.952680
vn 0.297747 0.061219 0.952680
vn 0.297747 0.061219 0.952680
vn 0.297747 0.061219 0.952680
vn 0.975203 0.220706 0.016387
vn 0.975203 0.220706 0.016387
vn 0.975203 0.220706 0.016387
vn 0.975203 0.220706 0.016387
vn 0.330749 0.073168 -0.940878
vn 0.330750 0.073168 -0.940878
vn 0.330750 0.073168 -0.940878
vn 0.330750 0.073168 -0.940878
vn -0.799653 -0.141422 -0.583570
vn -0.799653 -0.141422 -0.583570
vn -0.799653 -0.141422 -0.583570
vn -0.799653 -0.141422 -0.583570
vn -0.818218 -0.146798 0.555850
vn -0.818218 -0.146798 0.555850
vn -0.818218 -0.146798 0.555850
vn -0.818218 -0.146798 0.555850
vn 0.309269 0.000000 0.950975
vn 0.309269 0.000000 0.950975
vn 0.309269 0.000000 0.950975
vn 0.309269 0.000000 0.950975
vn 1.000000 0.000000 0.000000
vn 1.000000 0.000000 0.000000
vn 1.000000 0.000000 0.000000
vn 1.000000 0.000000 0.000000
vn 0.309269 0.000000 -0.950975
vn 0.309269 0.000000 -0.950975
vn 0.309269 0.000000 -0.950975
vn 0.309269 0.000000 -0.950975
vn -0.809271 0.000000 -0.587435
vn -0.809271 0.000000 -0.587435
vn -0.809271 0.000000 -0.587435
vn -0.809271 0.000000 -0.587435
vn -0.809263 0.000000 0.587446
vn -0.809263 0.000000 0.587446
vn -0.809263 0.000000 0.587446
vn -0.809263 0.000000 0.587446
vn -1.000000 0.000000 0.000000
vn -1.000000 0.000000 0.000000
vn -1.000000 0.000000 0.000000
vn -1.000000 0.000000 0.000000
vn 1.000000 0.000000 0.000000
vn 1.000000 0.000000 0.000000
vn 1.000000 0.000000 0.000000
vn 1.000000 0.000000 0.000000
vn -1.000000 0.000000 0.000000
vn -1.000000 0.000000 0.000000
vn -1.000000 0.000000 0.000000
vn -1.000000 0.000000 0.000000
vn 1.000000 0.000000 0.000000
vn 1.000000 0.000000 0.000000
vn 1.000000 0.000000 0.000000
vn 1.000000 0.000000 0.000000
vn -1.000000 0.000000 0.000000
vn -1.000000 0.000000 0.000000
vn -1.000000 0.000000 0.000000
vn -1.000000 0.000000 0.000000
vn 1.000000 0.000000 0.000000
vn 1.000000 0.000000 0.000000
vn 1.000000 0.000000 0.000000
vn 1.000000 0.000000 0.000000
vn -1.000000 0.000000 0.000000
vn -1.000000 0.000000 0.000000
vn -1.000000 0.000000 0.000000
vn -1.000000 0.000000 0.000000
vn 1.000000 0.000000 0.000000
vn 1.000000 0.000000 0.000000
vn 1.000000 0.000000 0.000000
vn 1.000000 0.000000 0.000000
vn -1.000000 0.000000 0.000000
vn -1.000000 0.000000 0.000000
vn -1.000000 0.000000 0.000000
vn -1.000000 0.000000 0.000000
vn 1.000000 0.000000 0.000000
vn 1.000000 0.000000 0.000000
vn 1.000000 0.000000 0.000000
vn 1.000000 0.000000 0.000000
vn 0.000343 1.000000 0.000000
vn 0.000343 1.000000 0.000000
vn 0.017676 0.999844 0.000000
vn 0.017676 0.999844 0.000000
vn 0.000091 0.309074 0.951038
vn 0.000091 0.309074 0.951038
vn 0.004839 0.311632 0.950191
vn 0.004769 0.311594 0.950203
vn -0.000175 -0.809071 0.587711
vn -0.000175 -0.809071 0.587711
vn -0.009475 -0.811640 0.584081
vn -0.009412 -0.811623 0.584106
vn -0.000175 -0.809079 -0.587700
vn -0.000175 -0.809079 -0.587700
vn -0.009412 -0.811631 -0.584095
vn -0.009475 -0.811648 -0.584070
vn 0.000091 0.309074 -0.951038
vn 0.000091 0.309074 -0.951038
vn 0.004769 0.311594 -0.950203
vn 0.004839 0.311632 -0.950191
s off
f 5/1/1 6/2/2 7/3/3 8/4/4
f 9/5/5 10/6/6 2/7/7 1/8/8
f 10/6/9 11/9/10 3/10/11 2/7/12
f 11/9/13 12/11/14 4/12/15 3/10/16
f 12/11/17 9/5/18 1/8/19 4/12/20
f 1/8/21 2/7/22 6/13/23 5/14/24
f 2/7/25 3/10/26 7/15/27 6/13/28
f 3/10/29 4/12/30 8/16/31 7/15/32
f 4/12/33 1/8/34 5/14/35 8/16/36
f 17/17/37 18/18/38 19/19/39 20/20/40
f 21/21/41 22/22/42 14/23/43 13/24/44
f 22/22/45 23/25/46 15/26/47 14/23/48
f 23/25/49 24/27/50 16/28/51 15/26/52
f 24/27/53 21/21/54 13/24/55 16/28/56
f 13/24/57 14/23/58 18/29/59 17/30/60
f 14/23/61 15/26/62 19/31/63 18/29/64
f 15/26/65 16/28/66 20/32/67 19/31/68
f 16/28/69 13/24/70 17/30/71 20/32/72
f 29/33/73 30/34/74 31/35/75 32/36/76
f 22/37/77 9/38/78 26/39/79 25/40/80
f 9/38/81 12/41/82 27/42/83 26/39/84
f 12/41/85 23/43/86 28/44/87 27/42/88
f 23/43/89 22/37/90 25/40/91 28/44/92
f 25/40/93 26/39/94 30/45/95 29/46/96
f 26/39/97 27/42/98 31/47/99 30/45/100
f 27/42/101 28/44/102 32/48/103 31/47/104
f 28/44/105 25/40/106 29/46/107 32/48/108
f 41/49/109 42/50/110 43/51/111 44/52/112
f 38/57/113 37/58/114 39/59/115 40/60/116
f 10/61/117 21/62/118 33/63/119 34/64/120
f 21/62/121 24/65/122 35/66/123 33/63/124
f 24/65/125 11/67/126 36/68/127 35/66/128
f 11/67/129 10/61/130 34/64/131 36/68/132
f 34/64/133 33/63/134 37/69/135 38/70/136
f 33/63/137 35/66/138 39/71/139 37/69/140
f 35/66/141 36/68/142 40/72/143 39/71/144
f 36/68/145 34/64/146 38/70/147 40/72/148
f 12/73/149 11/74/150 42/75/151 41/76/152
f 11/74/153 24/77/154 43/78/155 42/75/156
f 24/77/157 23/79/158 44/80/159 43/78/160
f 23/79/161 12/73/162 41/76/163 44/80/164
f 22/81/165 21/82/166 46/83/167 45/84/168
f 21/82/169 10/85/170 47/86/171 46/83/172
f 10/85/173 9/87/174 48/88/175 47/86/176
f 9/87/177 22/81/178 45/84/179 48/88/180
f 45/89/181 46/90/182 50/54/183 49/53/184
f 46/90/185 47/91/186 51/55/187 50/54/188
f 47/91/189 48/92/190 52/56/191 51/55/192
f 48/92/193 45/89/194 49/53/195 52/56/196
f 53/93/197 54/94/198 59/95/199 58/96/200
f 54/94/201 55/97/202 60/98/203 59/95/204
f 55/97/205 56/99/206 61/100/207 60/98/208
f 56/99/209 57/101/210 62/102/211 61/100/212
f 57/101/213 53/93/214 58/96/215 62/102/216
f 89/103/217 88/104/218 90/105/219 91/106/220
f 92/107/221 89/103/222 91/106/223 93/108/224
f 94/109/225 92/107/226 93/108/227 95/110/228
f 96/111/229 94/109/230 95/110/231 97/112/232
f 88/104/233 96/111/234 97/112/235 90/105/236
f 99/113/237 100/114/238 68/115/239 69/116/240
f 98/117/241 99/113/242 69/116/243 70/118/244
f 102/119/245 98/117/246 70/118/247 71/120/248
f 101/121/249 102/119/250 71/120/251 72/122/252
f 100/114/253 101/121/254 72/122/255 68/115/256
f 69/116/257 68/115/258 73/123/259 74/124/260
f 70/118/261 69/116/262 74/124/263 75/125/264
f 71/120/265 70/118/266 75/125/267 76/126/268
f 72/122/269 71/120/270 76/126/271 77/127/272
f 68/115/273 72/122/274 77/127/275 73/123/276
f 74/124/277 73/123/278 78/128/279 79/129/280
f 75/125/281 74/124/282 79/129/283 80/130/284
f 76/126/285 75/125/286 80/130/287 81/131/288
f 77/127/289 76/126/290 81/131/291 82/132/292
f 73/123/293 77/127/294 82/132/295 78/128/296
f 79/129/297 78/128/298 83/133/299 84/134/300
f 80/130/301 79/129/302 84/134/303 85/135/304
f 81/131/305 80/130/306 85/135/307 86/136/308
f 82/132/309 81/131/310 86/136/311 87/137/312
f 78/128/313 82/132/314 87/137/315 83/133/316
f 54/138/317 53/139/318 88/104/319 89/103/320
f 63/140/321 64/141/322 91/106/323 90/105/324
f 55/142/325 54/138/326 89/103/327 92/107/328
f 64/141/329 65/143/330 93/108/331 91/106/332
f 56/144/333 55/142/334 92/107/335 94/109/336
f 65/143/337 66/145/338 95/110/339 93/108/340
f 57/146/341 56/144/342 94/109/343 96/111/344
f 66/145/345 67/147/346 97/112/347 95/110/348
f 53/139/349 57/146/350 96/111/351 88/104/352
f 67/147/353 63/140/354 90/105/355 97/112/356
f 65/148/357 64/149/358 99/113/359 98/117/360
f 64/149/361 63/150/362 100/114/363 99/113/364
f 63/150/365 67/151/366 101/121/367 100/114/368
f 67/151/369 66/152/370 102/119/371 101/121/372
f 66/152/373 65/148/374 98/117/375 102/119/376
