# This file uses centimeters as units for non-parametric coordinates.

v -0.022712 -0.056194 0.414054
v 0.022711 -0.056194 0.414054
v 0.022711 -0.056194 0.465940
v -0.022712 -0.056194 0.465940
v -0.022712 0.067001 0.465940
v -0.022712 0.067001 0.414054
v 0.022711 0.067001 0.414054
v 0.022711 0.067001 0.465940
v 0.022711 -0.044230 0.414054
v -0.022712 -0.044230 0.414054
v -0.022712 -0.044230 0.465940
v 0.022711 -0.044230 0.465940
v -0.039783 0.046338 0.396984
v 0.039782 0.046338 0.396984
v 0.039782 -0.022693 0.396984
v -0.039783 -0.022693 0.396984
v 0.039782 0.046338 0.483011
v 0.039782 -0.022693 0.483011
v -0.039783 0.046338 0.483011
v -0.039783 -0.022693 0.483011
v -0.026830 0.035100 0.396984
v 0.026829 0.035100 0.396984
v 0.026829 -0.011454 0.396984
v -0.026830 -0.011454 0.396984
v -0.044426 0.050366 0.067693
v 0.044424 0.050366 0.067693
v 0.044424 -0.026721 0.067693
v -0.044426 -0.026721 0.067693
v -0.139335 0.088358 0.067693
v 0.139336 0.088358 0.067693
v 0.139336 -0.064712 0.067693
v -0.139335 -0.064712 0.067693
v -0.139335 0.088358 0.000000
v 0.139336 0.088358 0.000000
v 0.139336 -0.064712 0.000000
v -0.139335 -0.064712 0.000000
v -0.022711 0.194288 0.465940
v -0.022711 0.194288 0.414054
v 0.022710 0.194288 0.414054
v 0.022710 0.194288 0.465940
vt 0.360552 0.016749
vt 0.360552 0.016749
vt 0.360552 0.016749
vt 0.360552 0.016749
vt 0.360552 0.016749
vt 0.360552 0.016749
vt 0.360552 0.016749
vt 0.360552 0.016749
vt 0.360552 0.016749
vt 0.360552 0.016749
vt 0.360552 0.016749
vt 0.360552 0.016749
vt 0.360552 0.016749
vt 0.360552 0.016749
vt 0.360552 0.016749
vt 0.360552 0.016749
vt 0.360552 0.016749
vt 0.360552 0.016749
vt 0.360552 0.016749
vt 0.360552 0.016749
vt 0.360552 0.016749
vt 0.360552 0.016749
vt 0.360552 0.016749
vt 0.360552 0.016749
vt 0.360552 0.016749
vt 0.360552 0.016749
vt 0.360552 0.016749
vt 0.360552 0.016749
vt 0.360552 0.016749
vt 0.360552 0.016749
vt 0.360552 0.016749
vt 0.360552 0.016749
vt 0.360552 0.016749
vt 0.360552 0.016749
vt 0.360552 0.016749
vt 0.360552 0.016749
vt 0.360552 0.016749
vt 0.360552 0.016749
vt 0.360552 0.016749
vt 0.360552 0.016749
vn 0.000000 -1.000000 0.000000
vn 0.000000 -1.000000 0.000000
vn 0.000000 -1.000000 0.000000
vn 0.000000 -1.000000 0.000000
vn 0.000000 0.000000 -1.000000
vn 0.000000 0.000000 -1.000000
vn 0.000000 0.000000 -1.000000
vn 0.000000 0.000000 -1.000000
vn 1.000000 0.000000 0.000000
vn 1.000000 0.000000 0.000000
vn 1.000000 0.000000 0.000000
vn 1.000000 0.000000 0.000000
vn 0.000000 0.000000 1.000000
vn 0.000000 0.000000 1.000000
vn 0.000000 0.000000 1.000000
vn 0.000000 0.000000 1.000000
vn -1.000000 0.000000 0.000000
vn -1.000000 0.000000 0.000000
vn -1.000000 0.000000 0.000000
vn -1.000000 0.000000 0.000000
vn -1.000000 0.000008 0.000000
vn -1.000000 0.000008 0.000000
vn -1.000000 0.000008 0.000000
vn -1.000000 0.000008 0.000000
vn 0.000000 0.000002 -1.000000
vn 0.000000 0.000002 -1.000000
vn 0.000000 0.000002 -1.000000
vn 0.000000 0.000002 -1.000000
vn 1.000000 0.000008 0.000000
vn 1.000000 0.000008 0.000000
vn 1.000000 0.000008 0.000000
vn 1.000000 0.000008 0.000000
vn 0.000005 -0.000002 1.000000
vn 0.000005 -0.000002 1.000000
vn 0.000005 -0.000002 1.000000
vn 0.000005 -0.000002 1.000000
vn 0.000000 0.000000 -1.000000
vn 0.000000 0.000000 -1.000000
vn 0.000000 0.000000 -1.000000
vn 0.000000 0.000000 -1.000000
vn -1.000000 0.000000 0.000000
vn -1.000000 0.000000 0.000000
vn -1.000000 0.000000 0.000000
vn -1.000000 0.000000 0.000000
vn 0.000000 0.000000 1.000000
vn 0.000000 0.000000 1.000000
vn 0.000000 0.000000 1.000000
vn 0.000000 0.000000 1.000000
vn 1.000000 0.000000 0.000000
vn 1.000000 0.000000 0.000000
vn 1.000000 0.000000 0.000000
vn 1.000000 0.000000 0.000000
vn 0.000000 0.636901 -0.770945
vn 0.000000 0.636901 -0.770946
vn 0.000000 0.636901 -0.770946
vn 0.000000 0.636901 -0.770946
vn 0.000000 -0.621146 -0.783695
vn 0.000000 -0.621146 -0.783695
vn 0.000000 -0.621146 -0.783695
vn 0.000000 -0.621146 -0.783695
vn 0.770941 0.636906 0.000000
vn 0.770941 0.636906 0.000000
vn 0.770941 0.636906 0.000000
vn 0.770941 0.636906 0.000000
vn 0.783691 -0.621151 0.000000
vn 0.783691 -0.621151 0.000000
vn 0.783691 -0.621151 0.000000
vn 0.783691 -0.621151 0.000000
vn 0.000000 0.636917 0.770932
vn 0.000000 0.636917 0.770932
vn 0.000000 0.636917 0.770932
vn 0.000000 0.636917 0.770932
vn 0.000000 -0.621162 0.783682
vn 0.000000 -0.621162 0.783682
vn 0.000000 -0.621162 0.783683
vn 0.000000 -0.621162 0.783682
vn -0.770941 0.636906 0.000000
vn -0.770941 0.636906 0.000000
vn -0.770941 0.636906 0.000000
vn -0.770941 0.636906 0.000000
vn -0.783691 -0.621151 0.000000
vn -0.783691 -0.621151 0.000000
vn -0.783691 -0.621151 0.000000
vn -0.783691 -0.621151 0.000000
vn -0.000000 0.000000 -1.000000
vn 0.000000 0.000000 -1.000000
vn 0.000000 0.000000 -1.000000
vn -0.000000 0.000000 -1.000000
vn 0.000000 0.000000 -1.000000
vn 0.000000 0.000000 -1.000000
vn 0.000000 0.000000 -1.000000
vn 0.000000 0.000000 -1.000000
vn 0.000000 0.000000 -1.000000
vn -0.000000 0.000000 -1.000000
vn -0.000000 0.000000 -1.000000
vn 0.000000 0.000000 -1.000000
vn -0.000000 0.000000 -1.000000
vn -0.000000 0.000000 -1.000000
vn -0.000000 0.000000 -1.000000
vn -0.000000 0.000000 -1.000000
vn 0.000000 0.998927 0.046312
vn 0.000000 0.998927 0.046312
vn 0.000000 0.998927 0.046312
vn 0.000000 0.998927 0.046312
vn 0.998575 0.000000 0.053358
vn 0.998575 0.000000 0.053358
vn 0.998575 0.000000 0.053358
vn 0.998575 0.000000 0.053358
vn 0.000000 -0.998927 0.046312
vn 0.000000 -0.998927 0.046312
vn 0.000000 -0.998927 0.046312
vn 0.000000 -0.998927 0.046312
vn -0.998575 0.000000 0.053361
vn -0.998575 0.000000 0.053361
vn -0.998575 0.000000 0.053361
vn -0.998575 0.000000 0.053361
vn -0.000000 0.000000 1.000000
vn 0.000000 0.000000 1.000000
vn 0.000000 0.000000 1.000000
vn -0.000000 0.000000 1.000000
vn 0.000000 0.000000 1.000000
vn 0.000000 0.000000 1.000000
vn 0.000000 0.000000 1.000000
vn 0.000000 0.000000 1.000000
vn 0.000000 0.000000 1.000000
vn -0.000000 0.000000 1.000000
vn -0.000000 0.000000 1.000000
vn 0.000000 0.000000 1.000000
vn -0.000000 0.000000 1.000000
vn -0.000000 0.000000 1.000000
vn -0.000000 0.000000 1.000000
vn -0.000000 0.000000 1.000000
vn 0.000000 1.000000 0.000000
vn 0.000000 1.000000 0.000000
vn 0.000000 1.000000 0.000000
vn 0.000000 1.000000 0.000000
vn 1.000000 0.000000 0.000000
vn 1.000000 0.000000 0.000000
vn 1.000000 0.000000 0.000000
vn 1.000000 0.000000 0.000000
vn 0.000000 -1.000000 0.000000
vn 0.000000 -1.000000 0.000000
vn 0.000000 -1.000000 0.000000
vn 0.000000 -1.000000 0.000000
vn -1.000000 0.000000 0.000000
vn -1.000000 0.000000 0.000000
vn -1.000000 0.000000 0.000000
vn -1.000000 0.000000 0.000000
s off
f 1/1/1 2/2/2 3/3/3 4/4/4
f 33/5/5 34/6/6 35/7/7 36/8/8
f 14/9/9 17/10/10 18/11/11 15/12/12
f 17/10/13 19/13/14 20/14/15 18/11/16
f 19/13/17 13/15/18 16/16/19 20/14/20
f 37/17/21 38/18/22 6/19/23 5/20/24
f 38/18/25 39/21/26 7/22/27 6/19/28
f 39/21/29 40/23/30 8/24/31 7/22/32
f 40/23/33 37/17/34 5/20/35 8/24/36
f 10/25/37 9/26/38 2/2/39 1/1/40
f 11/27/41 10/25/42 1/1/43 4/4/44
f 12/28/45 11/27/46 4/4/47 3/3/48
f 9/26/49 12/28/50 3/3/51 2/2/52
f 6/19/53 7/22/54 14/9/55 13/15/56
f 9/26/57 10/25/58 16/16/59 15/12/60
f 7/22/61 8/24/62 17/10/63 14/9/64
f 12/28/65 9/26/66 15/12/67 18/11/68
f 8/24/69 5/20/70 19/13/71 17/10/72
f 11/27/73 12/28/74 18/11/75 20/14/76
f 5/20/77 6/19/78 13/15/79 19/13/80
f 10/25/81 11/27/82 20/14/83 16/16/84
f 13/15/85 14/9/86 22/29/87 21/30/88
f 14/9/89 15/12/90 23/31/91 22/29/92
f 15/12/93 16/16/94 24/32/95 23/31/96
f 16/16/97 13/15/98 21/30/99 24/32/100
f 21/30/101 22/29/102 26/33/103 25/34/104
f 22/29/105 23/31/106 27/35/107 26/33/108
f 23/31/109 24/32/110 28/36/111 27/35/112
f 24/32/113 21/30/114 25/34/115 28/36/116
f 25/34/117 26/33/118 30/37/119 29/38/120
f 26/33/121 27/35/122 31/39/123 30/37/124
f 27/35/125 28/36/126 32/40/127 31/39/128
f 28/36/129 25/34/130 29/38/131 32/40/132
f 29/38/133 30/37/134 34/6/135 33/5/136
f 30/37/137 31/39/138 35/7/139 34/6/140
f 31/39/141 32/40/142 36/8/143 35/7/144
f 32/40/145 29/38/146 33/5/147 36/8/148
