# This file uses centimeters as units for non-parametric coordinates.

v -0.149868 1.274054 0.018816
v 0.149869 1.274054 0.018816
v -0.149868 1.886223 0.018816
v 0.149869 1.886223 0.018816
v -0.149868 1.886223 -0.018816
v 0.149869 1.886223 -0.018816
v -0.149868 1.274054 -0.018816
v 0.149869 1.274054 -0.018816
v 0.044961 1.274054 0.046939
v 0.044961 1.886223 0.046939
v 0.044961 1.886223 -0.046939
v 0.044961 1.274054 -0.046939
v -0.044960 1.886223 -0.046939
v -0.044960 1.886223 0.046939
v -0.044960 1.274054 0.046939
v -0.044960 1.274054 -0.046939
v 0.039382 1.316135 0.048740
v 0.039382 1.844141 0.048740
v -0.039382 1.844141 0.048740
v -0.039382 1.316135 0.048740
v 0.113840 1.316135 0.025323
v 0.113840 1.844141 0.025323
v -0.113839 1.316135 0.025323
v -0.113839 1.844141 0.025323
v 0.039382 1.844141 -0.048740
v 0.039382 1.316135 -0.048740
v -0.039382 1.316135 -0.048740
v -0.039382 1.844141 -0.048740
v 0.113840 1.844141 -0.025323
v 0.113840 1.316135 -0.025323
v -0.113839 1.844141 -0.025323
v -0.113839 1.316135 -0.025323
v 0.016767 0.000000 -0.029042
v -0.016767 0.000000 -0.029042
v -0.033534 0.000000 -0.000000
v -0.016767 0.000000 0.029042
v 0.016767 0.000000 0.029042
v 0.033535 0.000000 0.000000
v 0.016767 3.469099 -0.029042
v -0.016767 3.469099 -0.029042
v -0.033534 3.469099 -0.000000
v -0.016767 3.469099 0.029042
v 0.016767 3.469099 0.029042
v 0.033535 3.469099 0.000000
v 0.000000 0.000000 0.000000
v 0.000000 3.469099 0.000000
v 0.245256 3.610698 0.012891
v 0.141599 3.714355 0.012891
v 0.000000 3.752296 0.012891
v -0.141598 3.714355 0.012891
v -0.245256 3.610698 0.012891
v -0.283197 3.469099 0.012891
v -0.245256 3.327500 0.012891
v -0.141598 3.223843 0.012891
v 0.000000 3.185902 0.012891
v 0.141599 3.223843 0.012891
v 0.245256 3.327500 0.012891
v 0.283197 3.469099 0.012891
v 0.245256 3.610698 0.045192
v 0.141599 3.714355 0.045192
v 0.000000 3.752296 0.045192
v -0.141598 3.714355 0.045192
v -0.245256 3.610698 0.045192
v -0.283197 3.469099 0.045192
v -0.245256 3.327500 0.045192
v -0.141598 3.223843 0.045192
v 0.000000 3.185902 0.045192
v 0.141599 3.223843 0.045192
v 0.245256 3.327500 0.045192
v 0.283197 3.469099 0.045192
v 0.000000 3.469099 0.012891
v 0.000000 3.469099 0.045192
vt 0.341502 0.444748
vt 0.341502 0.444748
vt 0.341502 0.444748
vt 0.341502 0.444748
vt 0.341502 0.444748
vt 0.341502 0.444748
vt 0.341502 0.444748
vt 0.341502 0.444748
vt 0.341502 0.444748
vt 0.341502 0.444748
vt 0.341502 0.444748
vt 0.341502 0.444748
vt 0.341502 0.444748
vt 0.341502 0.444748
vt 0.341502 0.444748
vt 0.341502 0.444748
vt 0.341502 0.444748
vt 0.341502 0.444748
vt 0.341502 0.444748
vt 0.341502 0.444748
vt 0.341502 0.444748
vt 0.341502 0.444748
vt 0.341502 0.444748
vt 0.341502 0.444748
vt 0.341502 0.444748
vt 0.341502 0.444748
vt 0.341502 0.444748
vt 0.341502 0.444748
vt 0.341502 0.444748
vt 0.341502 0.444748
vt 0.341502 0.444748
vt 0.341502 0.444748
vt 0.341502 0.444748
vt 0.341502 0.444748
vt 0.341502 0.444748
vt 0.341502 0.444748
vt 0.341502 0.444748
vt 0.341502 0.444748
vt 0.341502 0.444748
vt 0.341502 0.444748
vt 0.341502 0.444748
vt 0.341502 0.444748
vt 0.341502 0.444748
vt 0.341502 0.444748
vt 0.341502 0.444748
vt 0.341502 0.444748
vt 0.341502 0.444748
vt 0.341502 0.444748
vt 0.341502 0.444748
vt 0.341502 0.444748
vt 0.341502 0.444748
vt 0.341502 0.444748
vt 0.341502 0.444748
vt 0.341502 0.444748
vt 0.341502 0.444748
vt 0.341502 0.444748
vt 0.100345 0.302505
vt 0.100345 0.302505
vt 0.100345 0.302505
vt 0.100345 0.302505
vt 0.100345 0.302505
vt 0.100345 0.302505
vt 0.100345 0.302505
vt 0.100345 0.302505
vt 0.100345 0.302505
vt 0.100345 0.302505
vt 0.100345 0.302505
vt 0.100345 0.302505
vt 0.100345 0.302505
vt 0.100345 0.302505
vt 0.341502 0.444748
vt 0.339550 0.446049
vt 0.237967 0.571821
vt 0.237967 0.616050
vt 0.122390 0.616050
vt 0.122390 0.571821
vt 0.135269 0.616050
vt 0.135269 0.571821
vt 0.275116 0.571821
vt 0.275116 0.616050
vt 0.288431 0.571821
vt 0.288431 0.616050
vt 0.108851 0.616050
vt 0.108851 0.571821
vt 0.341502 0.444748
vt 0.341502 0.444748
vt 0.341502 0.444748
vt 0.341502 0.444748
vt 0.341502 0.444748
vt 0.341502 0.444748
vt 0.341502 0.444748
vt 0.341502 0.444748
vt 0.341502 0.444748
vt 0.341502 0.444748
vt 0.341502 0.444748
vt 0.341502 0.444748
vt 0.341502 0.444748
vt 0.341502 0.444748
vt 0.341502 0.444748
vt 0.341502 0.444748
vt 0.341502 0.444748
vt 0.341502 0.444748
vt 0.341502 0.444748
vt 0.341502 0.444748
vt 0.341502 0.444748
vt 0.341502 0.444748
vt 0.341502 0.444748
vt 0.341502 0.444748
vt 0.341502 0.444748
vt 0.341502 0.444748
vt 0.341502 0.444748
vt 0.341502 0.444748
vt 0.341502 0.444748
vt 0.341502 0.444748
vt 0.339550 0.446049
vt 0.339550 0.446049
vt 0.341502 0.444748
vt 0.341502 0.444748
vt 0.341502 0.444748
vt 0.341502 0.444748
vt 0.341502 0.444748
vt 0.341502 0.444748
vt 0.341502 0.444748
vt 0.339550 0.446050
vt 0.339550 0.446050
vt 0.339550 0.446050
vt 0.201991 0.739892
vt 0.185299 0.756584
vt 0.162496 0.717090
vt 0.162496 0.762694
vt 0.139694 0.756584
vt 0.123002 0.739892
vt 0.116892 0.717090
vt 0.123002 0.694287
vt 0.139694 0.677595
vt 0.162496 0.671485
vt 0.185299 0.677595
vt 0.201991 0.694287
vt 0.208101 0.717090
vt 0.109624 0.571821
vt 0.109624 0.616050
vt 0.287790 0.616050
vt 0.287790 0.571821
vt 0.341502 0.444748
vt 0.341502 0.444748
vt 0.341502 0.444748
vt 0.341502 0.444748
vt 0.341502 0.444748
vt 0.341502 0.444748
vt 0.341502 0.444748
vt 0.341502 0.444748
vt 0.341502 0.444748
vt 0.341502 0.444748
vt 0.341502 0.444748
vt 0.341502 0.444748
vt 0.341502 0.444748
vt 0.341502 0.444748
vt 0.341502 0.444748
vt 0.341502 0.444748
vt 0.341502 0.444748
vt 0.341502 0.444748
vt 0.341502 0.444748
vt 0.341502 0.444748
vt 0.341502 0.444748
vt 0.341502 0.444748
vt 0.341502 0.444748
vt 0.341502 0.444748
vt 0.341502 0.444748
vt 0.341502 0.444748
vn 0.000000 0.000000 1.000000
vn 0.000000 0.000000 1.000000
vn 0.000000 0.000000 1.000000
vn 0.000000 0.000000 1.000000
vn 0.000000 0.000000 1.000000
vn 0.000000 0.000000 1.000000
vn 0.000000 1.000000 0.000000
vn 0.000000 1.000000 0.000000
vn 0.000000 1.000000 0.000000
vn 0.000000 1.000000 0.000000
vn 0.000000 1.000000 0.000000
vn 0.000000 1.000000 0.000000
vn 0.000000 0.000000 -1.000000
vn 0.000000 0.000000 -1.000000
vn 0.000000 0.000000 -1.000000
vn 0.000000 0.000000 -1.000000
vn 0.000000 0.000000 -1.000000
vn 0.000000 0.000000 -1.000000
vn 0.000000 -1.000000 0.000000
vn 0.000000 -1.000000 0.000000
vn 0.000000 -1.000000 0.000000
vn 0.000000 -1.000000 0.000000
vn 0.000000 -1.000000 0.000000
vn 0.000000 -1.000000 0.000000
vn 1.000000 0.000000 0.000000
vn 1.000000 0.000000 0.000000
vn 1.000000 0.000000 0.000000
vn 1.000000 0.000000 0.000000
vn 1.000000 0.000000 0.000000
vn 1.000000 0.000000 0.000000
vn -1.000000 0.000000 0.000000
vn -1.000000 0.000000 0.000000
vn -1.000000 0.000000 0.000000
vn -1.000000 0.000000 0.000000
vn -1.000000 0.000000 0.000000
vn -1.000000 0.000000 0.000000
vn 0.300015 0.000000 0.953934
vn 0.300015 0.000000 0.953934
vn 0.300015 0.000000 0.953934
vn 0.300015 0.000000 0.953934
vn 0.300015 0.000000 0.953934
vn 0.300015 0.000000 0.953934
vn 0.000000 1.000000 0.000000
vn 0.000000 1.000000 0.000000
vn 0.000000 1.000000 0.000000
vn 0.000000 1.000000 0.000000
vn 0.000000 1.000000 0.000000
vn 0.000000 1.000000 0.000000
vn 0.300012 0.000000 -0.953935
vn 0.300012 0.000000 -0.953935
vn 0.300012 0.000000 -0.953935
vn 0.300012 0.000000 -0.953935
vn 0.300012 0.000000 -0.953935
vn 0.300012 0.000000 -0.953935
vn 0.000000 -1.000000 0.000000
vn 0.000000 -1.000000 0.000000
vn 0.000000 -1.000000 0.000000
vn 0.000000 -1.000000 0.000000
vn 0.000000 -1.000000 0.000000
vn 0.000000 -1.000000 0.000000
vn 0.000000 1.000000 0.000000
vn 0.000000 1.000000 0.000000
vn 0.000000 1.000000 0.000000
vn 0.000000 1.000000 0.000000
vn 0.000000 1.000000 0.000000
vn 0.000000 1.000000 0.000000
vn -0.300015 0.000000 0.953934
vn -0.300015 0.000000 0.953934
vn -0.300015 0.000000 0.953934
vn -0.300015 0.000000 0.953934
vn -0.300015 0.000000 0.953934
vn -0.300015 0.000000 0.953934
vn 0.000000 -1.000000 0.000000
vn 0.000000 -1.000000 0.000000
vn 0.000000 -1.000000 0.000000
vn 0.000000 -1.000000 0.000000
vn 0.000000 -1.000000 0.000000
vn 0.000000 -1.000000 0.000000
vn -0.300012 0.000000 -0.953935
vn -0.300012 0.000000 -0.953935
vn -0.300012 0.000000 -0.953935
vn -0.300012 0.000000 -0.953935
vn -0.300012 0.000000 -0.953935
vn -0.300012 0.000000 -0.953935
vn 0.000000 0.042765 0.999085
vn 0.000000 0.042765 0.999085
vn 0.000000 0.042765 0.999085
vn 0.000000 0.042765 0.999085
vn 0.000000 0.042765 0.999085
vn 0.000000 0.042765 0.999085
vn 0.000000 -0.042765 0.999085
vn 0.000000 -0.042765 0.999085
vn 0.000000 -0.042765 0.999085
vn 0.000000 -0.042765 0.999085
vn 0.000000 -0.042765 0.999085
vn 0.000000 -0.042765 0.999085
vn 0.275930 0.041619 0.960276
vn 0.275930 0.041619 0.960276
vn 0.275930 0.041619 0.960276
vn 0.275930 0.041619 0.960276
vn 0.275930 0.041619 0.960276
vn 0.275930 0.041619 0.960276
vn 0.177725 0.000000 0.984080
vn 0.177725 0.000000 0.984080
vn 0.177725 0.000000 0.984080
vn 0.177725 0.000000 0.984080
vn 0.177725 0.000000 0.984080
vn 0.177725 0.000000 0.984080
vn 0.275931 -0.041619 0.960276
vn 0.275931 -0.041619 0.960276
vn 0.275931 -0.041619 0.960276
vn 0.275931 -0.041619 0.960276
vn 0.275931 -0.041619 0.960276
vn 0.275931 -0.041619 0.960276
vn -0.275930 0.041617 0.960276
vn -0.275930 0.041617 0.960276
vn -0.275930 0.041617 0.960276
vn -0.275930 0.041617 0.960276
vn -0.275930 0.041617 0.960276
vn -0.275930 0.041617 0.960276
vn -0.275930 -0.041617 0.960276
vn -0.275930 -0.041617 0.960276
vn -0.275930 -0.041617 0.960276
vn -0.275930 -0.041617 0.960276
vn -0.275930 -0.041617 0.960276
vn -0.275930 -0.041617 0.960276
vn -0.177727 0.000000 0.984080
vn -0.177727 0.000000 0.984080
vn -0.177727 0.000000 0.984080
vn -0.177727 0.000000 0.984080
vn -0.177727 0.000000 0.984080
vn -0.177727 0.000000 0.984080
vn 0.000000 -0.042759 -0.999085
vn 0.000000 -0.042759 -0.999085
vn 0.000000 -0.042759 -0.999085
vn 0.000000 -0.042759 -0.999085
vn 0.000000 -0.042759 -0.999085
vn 0.000000 -0.042759 -0.999085
vn 0.000000 0.042759 -0.999085
vn 0.000000 0.042759 -0.999085
vn 0.000000 0.042759 -0.999085
vn 0.000000 0.042759 -0.999085
vn 0.000000 0.042759 -0.999085
vn 0.000000 0.042759 -0.999085
vn 0.275930 -0.041618 -0.960276
vn 0.275930 -0.041618 -0.960276
vn 0.275930 -0.041618 -0.960276
vn 0.275930 -0.041618 -0.960276
vn 0.275930 -0.041618 -0.960276
vn 0.275930 -0.041618 -0.960276
vn 0.177732 0.000000 -0.984079
vn 0.177732 0.000000 -0.984079
vn 0.177732 0.000000 -0.984079
vn 0.177732 0.000000 -0.984079
vn 0.177732 0.000000 -0.984079
vn 0.177732 0.000000 -0.984079
vn 0.275930 0.041619 -0.960276
vn 0.275930 0.041619 -0.960276
vn 0.275930 0.041619 -0.960276
vn 0.275930 0.041619 -0.960276
vn 0.275930 0.041619 -0.960276
vn 0.275930 0.041619 -0.960276
vn -0.275930 -0.041617 -0.960277
vn -0.275930 -0.041617 -0.960277
vn -0.275930 -0.041617 -0.960277
vn -0.275930 -0.041617 -0.960277
vn -0.275930 -0.041617 -0.960277
vn -0.275930 -0.041617 -0.960277
vn -0.275930 0.041617 -0.960276
vn -0.275930 0.041617 -0.960276
vn -0.275930 0.041617 -0.960276
vn -0.275930 0.041617 -0.960276
vn -0.275930 0.041617 -0.960276
vn -0.275930 0.041617 -0.960276
vn -0.177733 0.000000 -0.984079
vn -0.177733 0.000000 -0.984079
vn -0.177733 0.000000 -0.984079
vn -0.177733 0.000000 -0.984079
vn -0.177733 0.000000 -0.984079
vn -0.177733 0.000000 -0.984079
vn 0.000000 0.000000 -1.000000
vn 0.000000 0.000000 -1.000000
vn 0.000000 0.000000 -1.000000
vn 0.000000 0.000000 -1.000000
vn 0.000000 0.000000 -1.000000
vn 0.000000 0.000000 -1.000000
vn -0.866024 0.000000 -0.500003
vn -0.866024 0.000000 -0.500003
vn -0.866024 0.000000 -0.500003
vn -0.866024 0.000000 -0.500003
vn -0.866024 0.000000 -0.500003
vn -0.866024 0.000000 -0.500003
vn -0.866024 0.000000 0.500003
vn -0.866024 0.000000 0.500003
vn -0.866024 0.000000 0.500003
vn -0.866024 0.000000 0.500003
vn -0.866024 0.000000 0.500003
vn -0.866024 0.000000 0.500003
vn -0.000000 0.000000 1.000000
vn -0.000000 0.000000 1.000000
vn -0.000000 0.000000 1.000000
vn -0.000000 0.000000 1.000000
vn -0.000000 0.000000 1.000000
vn -0.000000 0.000000 1.000000
vn 0.866024 0.000000 0.500003
vn 0.866024 0.000000 0.500003
vn 0.866024 0.000000 0.500003
vn 0.866024 0.000000 0.500003
vn 0.866024 0.000000 0.500003
vn 0.866024 0.000000 0.500003
vn 0.866024 0.000000 -0.500003
vn 0.866024 0.000000 -0.500003
vn 0.866024 0.000000 -0.500003
vn 0.866024 0.000000 -0.500003
vn 0.866024 0.000000 -0.500003
vn 0.866024 0.000000 -0.500003
vn 0.000000 -1.000000 0.000000
vn 0.000000 -1.000000 0.000000
vn 0.000000 -1.000000 0.000000
vn 0.000000 -1.000000 0.000000
vn 0.000000 -1.000000 0.000000
vn 0.000000 -1.000000 0.000000
vn 0.000000 -1.000000 0.000000
vn 0.000000 -1.000000 0.000000
vn 0.000000 -1.000000 0.000000
vn 0.000000 -1.000000 0.000000
vn 0.000000 -1.000000 0.000000
vn 0.000000 -1.000000 0.000000
vn 0.000000 -1.000000 0.000000
vn 0.000000 -1.000000 0.000000
vn 0.000000 -1.000000 0.000000
vn 0.000000 -1.000000 0.000000
vn 0.000000 -1.000000 0.000000
vn 0.000000 -1.000000 0.000000
vn 0.000000 1.000000 0.000000
vn 0.000000 1.000000 0.000000
vn 0.000000 1.000000 0.000000
vn 0.000000 1.000000 0.000000
vn 0.000000 1.000000 0.000000
vn 0.000000 1.000000 0.000000
vn 0.000000 1.000000 0.000000
vn 0.000000 1.000000 0.000000
vn 0.000000 1.000000 0.000000
vn 0.000000 1.000000 0.000000
vn 0.000000 1.000000 0.000000
vn 0.000000 1.000000 0.000000
vn 0.000000 1.000000 0.000000
vn 0.000000 1.000000 0.000000
vn 0.000000 1.000000 0.000000
vn 0.000000 1.000000 0.000000
vn 0.000000 1.000000 0.000000
vn 0.000000 1.000000 0.000000
vn 0.707106 0.707107 0.000000
vn 0.707106 0.707107 0.000000
vn 0.707106 0.707107 0.000000
vn 0.707106 0.707107 0.000000
vn 0.707106 0.707107 0.000000
vn 0.707106 0.707107 0.000000
vn 0.258819 0.965926 0.000000
vn 0.258819 0.965926 0.000000
vn 0.258819 0.965926 0.000000
vn 0.258819 0.965926 0.000000
vn 0.258819 0.965926 0.000000
vn 0.258819 0.965926 0.000000
vn -0.258819 0.965926 0.000000
vn -0.258819 0.965926 0.000000
vn -0.258819 0.965926 0.000000
vn -0.258819 0.965926 0.000000
vn -0.258819 0.965926 0.000000
vn -0.258819 0.965926 0.000000
vn -0.707106 0.707108 0.000000
vn -0.707106 0.707108 0.000000
vn -0.707106 0.707108 0.000000
vn -0.707106 0.707108 0.000000
vn -0.707106 0.707108 0.000000
vn -0.707106 0.707108 0.000000
vn -0.965926 0.258819 0.000000
vn -0.965926 0.258819 0.000000
vn -0.965926 0.258819 0.000000
vn -0.965926 0.258819 0.000000
vn -0.965926 0.258819 0.000000
vn -0.965926 0.258819 0.000000
vn -0.965926 -0.258819 0.000000
vn -0.965926 -0.258819 0.000000
vn -0.965926 -0.258819 0.000000
vn -0.965926 -0.258819 0.000000
vn -0.965926 -0.258819 0.000000
vn -0.965926 -0.258819 0.000000
vn -0.707106 -0.707108 0.000000
vn -0.707106 -0.707108 0.000000
vn -0.707106 -0.707108 0.000000
vn -0.707106 -0.707108 0.000000
vn -0.707106 -0.707108 0.000000
vn -0.707106 -0.707108 0.000000
vn -0.258819 -0.965926 0.000000
vn -0.258819 -0.965926 0.000000
vn -0.258819 -0.965926 0.000000
vn -0.258819 -0.965926 0.000000
vn -0.258819 -0.965926 0.000000
vn -0.258819 -0.965926 0.000000
vn 0.258819 -0.965926 0.000000
vn 0.258819 -0.965926 0.000000
vn 0.258819 -0.965926 0.000000
vn 0.258819 -0.965926 0.000000
vn 0.258819 -0.965926 0.000000
vn 0.258819 -0.965926 0.000000
vn 0.707106 -0.707107 0.000000
vn 0.707106 -0.707107 0.000000
vn 0.707106 -0.707107 0.000000
vn 0.707106 -0.707107 0.000000
vn 0.707106 -0.707107 0.000000
vn 0.707106 -0.707107 0.000000
vn 0.965926 -0.258819 0.000000
vn 0.965926 -0.258819 0.000000
vn 0.965926 -0.258819 0.000000
vn 0.965926 -0.258819 0.000000
vn 0.965926 -0.258819 0.000000
vn 0.965926 -0.258819 0.000000
vn 0.965926 0.258819 0.000000
vn 0.965926 0.258819 0.000000
vn 0.965926 0.258819 0.000000
vn 0.965926 0.258819 0.000000
vn 0.965926 0.258819 0.000000
vn 0.965926 0.258819 0.000000
vn -0.000000 0.000000 -1.000000
vn -0.000000 0.000000 -1.000000
vn -0.000000 0.000000 -1.000000
vn 0.000000 0.000000 -1.000000
vn 0.000000 0.000000 -1.000000
vn 0.000000 0.000000 -1.000000
vn 0.000000 0.000000 -1.000000
vn 0.000000 0.000000 -1.000000
vn 0.000000 0.000000 -1.000000
vn 0.000000 0.000000 -1.000000
vn 0.000000 0.000000 -1.000000
vn 0.000000 0.000000 -1.000000
vn 0.000000 0.000000 -1.000000
vn 0.000000 0.000000 -1.000000
vn 0.000000 0.000000 -1.000000
vn 0.000000 0.000000 -1.000000
vn 0.000000 0.000000 -1.000000
vn 0.000000 0.000000 -1.000000
vn 0.000000 0.000000 -1.000000
vn 0.000000 0.000000 -1.000000
vn 0.000000 0.000000 -1.000000
vn 0.000000 0.000000 -1.000000
vn 0.000000 0.000000 -1.000000
vn 0.000000 0.000000 -1.000000
vn 0.000000 0.000000 -1.000000
vn 0.000000 0.000000 -1.000000
vn 0.000000 0.000000 -1.000000
vn -0.000000 0.000000 -1.000000
vn -0.000000 0.000000 -1.000000
vn -0.000000 0.000000 -1.000000
vn 0.000000 0.000000 -1.000000
vn 0.000000 0.000000 -1.000000
vn 0.000000 0.000000 -1.000000
vn 0.000000 0.000000 -1.000000
vn 0.000000 0.000000 -1.000000
vn 0.000000 0.000000 -1.000000
vn 0.000000 0.000000 1.000000
vn 0.000000 0.000000 1.000000
vn 0.000000 0.000000 1.000000
vn -0.000000 0.000000 1.000000
vn -0.000000 0.000000 1.000000
vn -0.000000 0.000000 1.000000
vn 0.000000 0.000000 1.000000
vn 0.000000 0.000000 1.000000
vn 0.000000 0.000000 1.000000
vn 0.000000 0.000000 1.000000
vn 0.000000 0.000000 1.000000
vn 0.000000 0.000000 1.000000
vn 0.000000 0.000000 1.000000
vn 0.000000 0.000000 1.000000
vn 0.000000 0.000000 1.000000
vn 0.000000 0.000000 1.000000
vn 0.000000 0.000000 1.000000
vn 0.000000 0.000000 1.000000
vn 0.000000 0.000000 1.000000
vn 0.000000 0.000000 1.000000
vn 0.000000 0.000000 1.000000
vn 0.000000 0.000000 1.000000
vn 0.000000 0.000000 1.000000
vn 0.000000 0.000000 1.000000
vn -0.000000 0.000000 1.000000
vn -0.000000 0.000000 1.000000
vn -0.000000 0.000000 1.000000
vn 0.000000 0.000000 1.000000
vn 0.000000 0.000000 1.000000
vn 0.000000 0.000000 1.000000
vn 0.000000 0.000000 1.000000
vn 0.000000 0.000000 1.000000
vn 0.000000 0.000000 1.000000
vn 0.000000 0.000000 1.000000
vn 0.000000 0.000000 1.000000
vn 0.000000 0.000000 1.000000
s off
f 17/73/1 18/74/2 20/76/3
f 20/76/4 18/74/5 19/75/6
f 10/27/7 11/30/8 14/35/9
f 14/35/10 11/30/11 13/34/12
f 25/77/13 26/78/14 28/80/15
f 28/80/16 26/78/17 27/79/18
f 12/31/19 9/26/20 16/39/21
f 16/39/22 9/26/23 15/38/24
f 2/17/25 8/18/26 4/20/27
f 4/20/28 8/18/29 6/19/30
f 7/21/31 1/22/32 5/24/33
f 5/24/34 1/22/35 3/23/36
f 18/74/37 17/73/38 22/82/39
f 22/82/40 17/73/41 21/81/42
f 11/30/43 10/27/44 6/7/45
f 6/7/46 10/27/47 4/6/48
f 26/78/49 25/77/50 30/84/51
f 30/84/52 25/77/53 29/83/54
f 9/26/55 12/31/56 2/15/57
f 2/15/58 12/31/59 8/14/60
f 3/5/61 14/35/62 5/8/63
f 5/8/64 14/35/65 13/34/66
f 23/140/67 20/76/68 24/141/69
f 24/141/70 20/76/71 19/75/72
f 7/13/73 16/39/74 1/16/75
f 1/16/76 16/39/77 15/38/78
f 31/142/79 28/80/80 32/143/81
f 32/143/82 28/80/83 27/79/84
f 10/28/85 14/36/86 18/41/87
f 18/41/88 14/36/89 19/42/90
f 15/37/91 9/25/92 20/43/93
f 20/43/94 9/25/95 17/44/96
f 2/40/97 21/46/98 9/32/99
f 9/32/100 21/46/101 17/45/102
f 2/33/103 4/29/104 21/47/105
f 21/47/106 4/29/107 22/48/108
f 4/144/109 10/2/110 22/145/111
f 22/145/112 10/2/113 18/49/114
f 1/146/115 15/3/116 23/147/117
f 23/147/118 15/3/119 20/50/120
f 3/149/121 24/150/122 14/148/123
f 14/148/124 24/150/125 19/151/126
f 3/152/127 1/10/128 24/153/129
f 24/153/130 1/10/131 23/51/132
f 12/154/133 16/11/134 26/155/135
f 26/155/136 16/11/137 27/52/138
f 13/156/139 11/157/140 28/159/141
f 28/159/142 11/157/143 25/158/144
f 6/160/145 29/161/146 11/1/147
f 11/1/148 29/161/149 25/53/150
f 6/162/151 8/4/152 29/163/153
f 29/163/154 8/4/155 30/54/156
f 8/4/157 12/164/158 30/54/159
f 30/54/160 12/164/161 26/165/162
f 5/9/163 13/166/164 31/55/165
f 31/55/166 13/166/167 28/167/168
f 7/12/169 32/56/170 16/168/171
f 16/168/172 32/56/173 27/169/174
f 7/12/175 5/9/176 32/56/177
f 32/56/178 5/9/179 31/55/180
f 33/57/181 34/58/182 39/60/183
f 39/60/184 34/58/185 40/59/186
f 34/58/187 35/61/188 40/59/189
f 40/59/190 35/61/191 41/62/192
f 35/61/193 36/63/194 41/62/195
f 41/62/196 36/63/197 42/64/198
f 36/63/199 37/65/200 42/64/201
f 42/64/202 37/65/203 43/66/204
f 37/65/205 38/67/206 43/66/207
f 43/66/208 38/67/209 44/68/210
f 38/67/211 33/57/212 44/68/213
f 44/68/214 33/57/215 39/60/216
f 34/58/217 33/57/218 45/69/219
f 35/61/220 34/58/221 45/69/222
f 36/63/223 35/61/224 45/69/225
f 37/65/226 36/63/227 45/69/228
f 38/67/229 37/65/230 45/69/231
f 33/57/232 38/67/233 45/69/234
f 39/60/235 40/59/236 46/70/237
f 40/59/238 41/62/239 46/70/240
f 41/62/241 42/64/242 46/70/243
f 42/64/244 43/66/245 46/70/246
f 43/66/247 44/68/248 46/70/249
f 44/68/250 39/60/251 46/70/252
f 47/85/253 48/86/254 59/88/255
f 59/88/256 48/86/257 60/87/258
f 48/86/259 49/89/260 60/87/261
f 60/87/262 49/89/263 61/90/264
f 49/89/265 50/91/266 61/90/267
f 61/90/268 50/91/269 62/92/270
f 50/91/271 51/93/272 62/92/273
f 62/92/274 51/93/275 63/94/276
f 51/93/277 52/95/278 63/94/279
f 63/94/280 52/95/281 64/96/282
f 52/95/283 53/97/284 64/96/285
f 64/96/286 53/97/287 65/98/288
f 53/97/289 54/99/290 65/98/291
f 65/98/292 54/99/293 66/100/294
f 54/99/295 55/101/296 66/100/297
f 66/100/298 55/101/299 67/102/300
f 55/101/301 56/103/302 67/102/303
f 67/102/304 56/103/305 68/104/306
f 56/103/307 57/105/308 68/104/309
f 68/104/310 57/105/311 69/106/312
f 57/105/313 58/107/314 69/106/315
f 69/106/316 58/107/317 70/108/318
f 58/107/319 47/109/320 70/108/321
f 70/108/322 47/109/323 59/110/324
f 48/111/325 47/112/326 71/113/327
f 49/114/328 48/111/329 71/113/330
f 50/124/331 49/125/332 71/126/333
f 51/116/334 50/115/335 71/72/336
f 52/117/337 51/71/338 71/113/339
f 53/118/340 52/117/341 71/113/342
f 54/119/343 53/118/344 71/113/345
f 55/120/346 54/119/347 71/113/348
f 56/121/349 55/120/350 71/113/351
f 57/122/352 56/121/353 71/113/354
f 58/123/355 57/122/356 71/113/357
f 47/112/358 58/123/359 71/113/360
f 59/127/361 60/128/362 72/129/363
f 60/128/364 61/130/365 72/129/366
f 61/130/367 62/131/368 72/129/369
f 62/131/370 63/132/371 72/129/372
f 63/132/373 64/133/374 72/129/375
f 64/133/376 65/134/377 72/129/378
f 65/134/379 66/135/380 72/129/381
f 66/135/382 67/136/383 72/129/384
f 67/136/385 68/137/386 72/129/387
f 68/137/388 69/138/389 72/129/390
f 69/138/391 70/139/392 72/129/393
f 70/139/394 59/127/395 72/129/396
