# This file uses centimeters as units for non-parametric coordinates.

v -0.175079 0.000000 0.182060
v 0.178757 0.000000 0.171223
v 0.167908 0.000000 -0.182623
v -0.185913 0.000000 -0.171785
v -0.167114 0.053410 0.173601
v 0.167389 0.053410 0.161549
v 0.159958 0.053410 -0.174164
v -0.177475 0.053410 -0.163825
v -0.154785 0.053410 0.160444
v 0.157120 0.053410 0.150892
v 0.147568 0.053410 -0.161004
v -0.164337 0.053410 -0.151452
v -0.149490 0.040709 0.154850
v 0.151535 0.040709 0.145626
v 0.142319 0.040709 -0.155413
v -0.158707 0.040709 -0.146189
v -0.142303 0.040709 0.147231
v 0.143967 0.040709 0.138463
v 0.135178 0.040709 -0.147795
v -0.151062 0.040709 -0.139027
v -0.122269 0.056495 0.130239
v 0.120560 0.056495 0.123571
v 0.127151 0.056495 -0.134089
v -0.132950 0.056495 -0.120116
v 0.169922 0.056495 0.001567
v -0.209702 0.053410 -0.006727
v -0.221298 0.000000 -0.007113
v 0.221329 0.000000 0.007480
v 0.207687 0.053410 0.008981
v 0.200607 0.053410 0.007124
v 0.194977 0.040709 0.010244
v 0.187622 0.040709 0.011838
v -0.173035 0.056495 -0.005274
v -0.187485 0.040709 -0.005584
v -0.194839 0.040709 -0.005960
v -0.200577 0.053410 -0.005975
v -0.001831 0.000000 0.230984
v -0.003342 0.053410 0.221929
v -0.002075 0.053410 0.210004
v -0.002121 0.040709 0.204565
v -0.002136 0.040709 0.197168
v 0.003799 0.056495 0.184502
v -0.010361 0.056495 -0.183784
v -0.010925 0.040709 -0.197227
v -0.011322 0.040709 -0.204612
v -0.011627 0.053410 -0.210039
v -0.012253 0.053410 -0.222795
v -0.012680 0.000000 -0.230999
v -0.012860 0.056495 0.026319
v -0.008790 0.056495 -0.150883
v -0.109476 0.056495 -0.098591
v -0.142394 0.056495 -0.004268
v -0.100701 0.056495 0.107034
v 0.002844 0.056495 0.151600
v 0.139281 0.056495 0.001350
v 0.098737 0.056495 0.101554
v 0.104150 0.056495 -0.110067
vt 0.089671 0.275042
vt 0.089671 0.275042
vt 0.089671 0.275042
vt 0.089671 0.275042
vt 0.089671 0.275042
vt 0.089671 0.275042
vt 0.089671 0.275042
vt 0.089671 0.275042
vt 0.089671 0.275042
vt 0.089671 0.275042
vt 0.089671 0.275042
vt 0.089671 0.275042
vt 0.089671 0.275042
vt 0.089671 0.275042
vt 0.089671 0.275042
vt 0.089671 0.275042
vt 0.089671 0.275042
vt 0.089671 0.275042
vt 0.089671 0.275042
vt 0.089671 0.275042
vt 0.089671 0.275042
vt 0.089671 0.275042
vt 0.089671 0.275042
vt 0.089671 0.275042
vt 0.089671 0.275042
vt 0.089671 0.275042
vt 0.089671 0.275042
vt 0.089671 0.275042
vt 0.089671 0.275042
vt 0.089671 0.275042
vt 0.089671 0.275042
vt 0.089671 0.275042
vt 0.089671 0.275042
vt 0.089671 0.275042
vt 0.089671 0.275042
vt 0.089671 0.275042
vt 0.104340 0.013090
vt 0.104340 0.013090
vt 0.104340 0.013090
vt 0.104340 0.013090
vt 0.104340 0.013090
vt 0.104340 0.013090
vt 0.104340 0.013090
vt 0.104340 0.013090
vt 0.104340 0.013090
vt 0.104340 0.013090
vt 0.104340 0.013090
vt 0.104340 0.013090
vt 0.089671 0.275042
vt 0.089671 0.275042
vt 0.089671 0.275042
vt 0.104340 0.013090
vt 0.089671 0.275042
vt 0.089671 0.275042
vt 0.104340 0.013090
vt 0.089671 0.275042
vt 0.089912 0.231433
vt 0.089671 0.275042
vt 0.104340 0.013090
vt 0.089671 0.275042
vt 0.089671 0.275042
vt 0.104340 0.013090
vt 0.089671 0.275042
vt 0.089671 0.275042
vt 0.089671 0.275042
vt 0.089912 0.231433
vt 0.089671 0.275042
vt 0.089671 0.275042
vt 0.089671 0.275042
vt 0.089671 0.275042
vt 0.089671 0.275042
vt 0.089671 0.275042
vt 0.089671 0.275042
vt 0.089912 0.231433
vt 0.089671 0.275042
vt 0.089912 0.231433
vt 0.089912 0.231433
vt 0.089912 0.231433
vt 0.089912 0.231433
vt 0.089912 0.231433
vt 0.089912 0.231433
vt 0.089912 0.231433
vt 0.089912 0.231433
vt 0.089912 0.231433
vt 0.089912 0.231433
vt 0.089912 0.231433
vt 0.089912 0.231433
vt 0.089912 0.231433
vn -0.273131 0.171697 0.946530
vn 0.037281 0.195614 0.979972
vn 0.028348 0.195192 0.980355
vn -0.273131 0.171697 0.946530
vn 0.939375 0.238760 0.246107
vn 0.972071 0.232778 -0.029862
vn 0.972185 0.233223 -0.021548
vn 0.939375 0.238761 0.246107
vn -0.030681 0.174951 -0.984099
vn -0.324992 0.167806 -0.930710
vn -0.324992 0.167806 -0.930710
vn -0.029647 0.174949 -0.984131
vn -0.979695 0.198437 0.028628
vn -0.954208 0.192077 0.229335
vn -0.954208 0.192077 0.229335
vn -0.979617 0.198405 0.031387
vn 0.000000 1.000000 -0.000000
vn 0.000000 1.000000 -0.000000
vn 0.000000 1.000000 -0.000000
vn 0.000000 1.000000 -0.000000
vn 0.000000 1.000000 0.000000
vn 0.000000 1.000000 0.000000
vn 0.000000 1.000000 0.000000
vn 0.000000 1.000000 0.000000
vn 0.000000 1.000000 0.000000
vn 0.000000 1.000000 -0.000000
vn 0.000000 1.000000 -0.000000
vn 0.000000 1.000000 0.000000
vn 0.000000 1.000000 0.000000
vn 0.000000 1.000000 0.000000
vn 0.000000 1.000000 0.000000
vn 0.000000 1.000000 0.000000
vn 0.283458 0.430721 -0.856815
vn -0.026324 0.449843 -0.892720
vn -0.028179 0.449825 -0.892672
vn 0.283458 0.430721 -0.856815
vn -0.871768 0.407826 -0.271475
vn -0.888724 0.453547 0.066814
vn -0.894010 0.447977 -0.007951
vn -0.871768 0.407826 -0.271475
vn 0.029181 0.449380 0.892864
vn 0.327883 0.430525 0.840917
vn 0.327883 0.430525 0.840917
vn 0.025810 0.449357 0.892980
vn 0.894949 0.445384 -0.026454
vn 0.869376 0.430760 -0.242141
vn 0.869376 0.430760 -0.242141
vn 0.894912 0.445351 -0.028183
vn 0.000000 1.000000 -0.000000
vn 0.000000 1.000000 -0.000000
vn 0.000000 1.000000 -0.000000
vn 0.000000 1.000000 -0.000000
vn 0.000000 1.000000 -0.000000
vn 0.000000 1.000000 -0.000000
vn 0.000000 1.000000 -0.000000
vn 0.000000 1.000000 -0.000000
vn 0.000000 1.000000 0.000000
vn 0.000000 1.000000 -0.000000
vn 0.000000 1.000000 -0.000000
vn 0.000000 1.000000 0.000000
vn 0.000000 1.000000 0.000000
vn 0.000000 1.000000 0.000000
vn 0.000000 1.000000 0.000000
vn 0.000000 1.000000 0.000000
vn -0.236263 0.761430 0.603659
vn -0.038295 0.769713 0.637240
vn 0.061617 0.762187 0.644418
vn -0.236263 0.761430 0.603659
vn 0.519837 0.831833 0.194482
vn 0.606917 0.792414 0.061092
vn 0.665539 0.744801 -0.048274
vn 0.519837 0.831833 0.194482
vn -0.028829 0.744051 -0.667500
vn -0.272252 0.762498 -0.586921
vn -0.272252 0.762498 -0.586921
vn -0.029969 0.744252 -0.667227
vn -0.626106 0.779491 0.019637
vn -0.606473 0.769064 0.201817
vn -0.606473 0.769064 0.201817
vn -0.625828 0.779559 0.025034
vn 0.000000 1.000000 -0.000000
vn 0.000000 1.000000 -0.000000
vn 0.000000 1.000000 0.000000
vn 0.000000 1.000000 0.000000
vn 0.000000 1.000000 -0.000000
vn 0.000000 1.000000 0.000000
vn 0.000000 1.000000 -0.000000
vn 0.000000 1.000000 -0.000000
vn -0.959696 0.195753 -0.201655
vn -0.979695 0.198437 0.028628
vn -0.979617 0.198405 0.031387
vn -0.959696 0.195753 -0.201655
vn 0.972185 0.233223 -0.021548
vn 0.972071 0.232778 -0.029862
vn 0.942746 0.214377 -0.255485
vn 0.942746 0.214377 -0.255486
vn 0.000000 1.000000 0.000000
vn 0.000000 1.000000 0.000000
vn 0.000000 1.000000 0.000000
vn 0.000000 1.000000 0.000000
vn -0.894010 0.447977 -0.007951
vn -0.888724 0.453547 0.066814
vn -0.848637 0.455630 0.268733
vn -0.848637 0.455630 0.268733
vn 0.000000 1.000000 -0.000000
vn 0.000000 1.000000 -0.000000
vn 0.000000 1.000000 -0.000000
vn 0.000000 1.000000 -0.000000
vn 0.665539 0.744801 -0.048274
vn 0.606917 0.792414 0.061092
vn 0.739964 0.628907 -0.238599
vn 0.739964 0.628908 -0.238599
vn -0.622477 0.758769 -0.191812
vn -0.626106 0.779491 0.019637
vn -0.625828 0.779559 0.025034
vn -0.622477 0.758769 -0.191812
vn 0.000000 1.000000 0.000000
vn 0.000000 1.000000 0.000000
vn 0.000000 1.000000 0.000000
vn 0.000000 1.000000 0.000000
vn 0.872270 0.436261 0.220956
vn 0.894949 0.445384 -0.026454
vn 0.894912 0.445351 -0.028183
vn 0.872270 0.436261 0.220956
vn 0.000000 1.000000 0.000000
vn 0.000000 1.000000 0.000000
vn 0.000000 1.000000 0.000000
vn 0.000000 1.000000 0.000000
vn 0.028348 0.195192 0.980355
vn 0.037281 0.195614 0.979972
vn 0.316988 0.200742 0.926942
vn 0.316988 0.200742 0.926942
vn 0.000000 1.000000 -0.000000
vn 0.000000 1.000000 -0.000000
vn 0.000000 1.000000 0.000000
vn 0.000000 1.000000 0.000000
vn -0.028179 0.449825 -0.892672
vn -0.026324 0.449843 -0.892720
vn -0.319197 0.427241 -0.845918
vn -0.319197 0.427241 -0.845918
vn 0.000000 1.000000 -0.000000
vn 0.000000 1.000000 -0.000000
vn 0.000000 1.000000 0.000000
vn 0.000000 1.000000 0.000000
vn 0.061617 0.762187 0.644418
vn -0.038295 0.769713 0.637240
vn 0.289463 0.715335 0.636008
vn 0.289463 0.715335 0.636008
vn 0.000000 1.000000 -0.000000
vn 0.000000 1.000000 -0.000000
vn 0.000000 1.000000 -0.000000
vn 0.000000 1.000000 0.000000
vn 0.000000 1.000000 -0.000000
vn 0.000000 1.000000 -0.000000
vn 0.000000 1.000000 -0.000000
vn 0.000000 1.000000 -0.000000
vn 0.246502 0.664704 -0.705269
vn -0.028829 0.744051 -0.667500
vn -0.029969 0.744252 -0.667227
vn 0.246502 0.664704 -0.705269
vn 0.000000 1.000000 0.000000
vn 0.000000 1.000000 0.000000
vn 0.000000 1.000000 0.000000
vn 0.000000 1.000000 0.000000
vn -0.270910 0.426959 0.862736
vn 0.029181 0.449380 0.892864
vn 0.025810 0.449357 0.892980
vn -0.270910 0.426959 0.862736
vn 0.000000 1.000000 0.000000
vn 0.000000 1.000000 0.000000
vn 0.000000 1.000000 0.000000
vn 0.000000 1.000000 0.000000
vn 0.261416 0.166711 -0.950720
vn -0.030681 0.174951 -0.984099
vn -0.029647 0.174949 -0.984131
vn 0.261416 0.166711 -0.950720
vn 0.000000 1.000000 0.000000
vn 0.000000 1.000000 0.000000
vn 0.000000 1.000000 0.000000
vn 0.000000 1.000000 0.000000
vn 0.000000 1.000000 -0.000000
vn 0.000000 1.000000 -0.000000
vn 0.000000 1.000000 -0.000000
vn 0.000000 1.000000 -0.000000
vn 0.000000 1.000000 0.000000
vn 0.000000 1.000000 0.000000
vn 0.000000 1.000000 0.000000
vn 0.000000 1.000000 0.000000
vn 0.000000 1.000000 0.000000
vn 0.000000 1.000000 0.000000
vn 0.000000 1.000000 0.000000
vn 0.000000 1.000000 0.000000
vn 0.000000 1.000000 0.000000
vn 0.000000 1.000000 0.000000
vn 0.000000 1.000000 0.000000
vn 0.000000 1.000000 0.000000
vn 0.000000 1.000000 0.000000
vn 0.000000 1.000000 0.000000
vn 0.000000 1.000000 0.000000
vn 0.000000 1.000000 0.000000
vn 0.000000 1.000000 0.000000
vn 0.000000 1.000000 0.000000
vn 0.000000 1.000000 0.000000
vn 0.000000 1.000000 0.000000
vn 0.000000 1.000000 0.000000
vn 0.000000 1.000000 0.000000
vn 0.000000 1.000000 0.000000
vn 0.000000 1.000000 0.000000
s off
f 1/2/1 37/49/2 38/50/3 5/5/4
f 2/3/5 28/28/6 29/29/7 6/4/8
f 48/65/9 4/8/10 8/9/11 47/64/12
f 27/27/13 1/2/14 5/5/15 26/26/16
f 5/5/17 38/50/18 39/51/19 9/11/20
f 6/4/21 29/29/22 30/30/23 10/10/24
f 47/64/25 8/9/26 12/13/27 46/63/28
f 36/36/29 26/26/30 5/5/31 9/11/32
f 9/11/33 39/51/34 40/53/35 13/15/36
f 10/10/37 30/30/38 31/31/39 14/14/40
f 46/63/41 12/13/42 16/17/43 45/61/44
f 36/36/45 9/11/46 13/15/47 35/35/48
f 13/37/49 40/52/50 41/55/51 17/40/52
f 14/38/53 31/41/54 32/42/55 18/39/56
f 45/62/57 16/44/58 20/45/59 44/59/60
f 35/47/61 13/37/62 17/40/63 34/48/64
f 17/19/65 41/54/66 42/56/67 21/23/68
f 18/18/69 32/32/70 25/1/71 22/22/72
f 44/60/73 20/21/74 24/25/75 43/58/76
f 34/34/77 17/19/78 21/23/79 33/33/80
f 49/83/81 50/74/82 51/88/83 52/86/84
f 49/82/85 52/87/86 53/85/87 54/80/88
f 4/8/89 27/27/90 26/26/91 8/9/92
f 29/29/93 28/28/94 3/6/95 7/7/96
f 30/30/97 29/29/98 7/7/99 11/12/100
f 31/31/101 30/30/102 11/12/103 15/16/104
f 32/42/105 31/41/106 15/43/107 19/46/108
f 25/1/109 32/32/110 19/20/111 23/24/112
f 20/21/113 34/34/114 33/33/115 24/25/116
f 16/44/117 35/47/118 34/48/119 20/45/120
f 12/13/121 36/36/122 35/35/123 16/17/124
f 8/9/125 26/26/126 36/36/127 12/13/128
f 38/50/129 37/49/130 2/3/131 6/4/132
f 39/51/133 38/50/134 6/4/135 10/10/136
f 40/53/137 39/51/138 10/10/139 14/14/140
f 41/55/141 40/52/142 14/38/143 18/39/144
f 42/56/145 41/54/146 18/18/147 22/22/148
f 55/77/149 49/57/150 54/81/151 56/79/152
f 55/78/153 57/76/154 50/66/155 49/84/156
f 19/20/157 44/60/158 43/58/159 23/24/160
f 15/43/161 45/62/162 44/59/163 19/46/164
f 11/12/165 46/63/166 45/61/167 15/16/168
f 7/7/169 47/64/170 46/63/171 11/12/172
f 3/6/173 48/65/174 47/64/175 7/7/176
f 43/58/177 24/25/178 51/67/179 50/75/180
f 24/25/181 33/33/182 52/68/183 51/67/184
f 33/33/185 21/23/186 53/69/187 52/68/188
f 21/23/189 42/56/190 54/70/191 53/69/192
f 42/56/193 22/22/194 56/71/195 54/70/196
f 22/22/197 25/1/198 55/72/199 56/71/200
f 25/1/201 23/24/202 57/73/203 55/72/204
f 23/24/205 43/58/206 50/75/207 57/73/208
