# This file uses centimeters as units for non-parametric coordinates.

v 0.400225 1.155049 0.238471
v 0.503736 1.155049 0.238471
v 0.400225 1.262759 0.238471
v 0.503736 1.262759 0.238471
v 0.400225 1.262759 0.195044
v 0.503736 1.262759 0.195044
v 0.400225 1.155049 0.195044
v 0.503736 1.155049 0.195044
v 0.417408 1.172931 0.238471
v 0.486551 1.172931 0.238471
v 0.486551 1.244878 0.238471
v 0.417408 1.244878 0.238471
v 0.417408 1.172931 0.278329
v 0.486551 1.172931 0.321332
v 0.486551 1.244878 0.321332
v 0.417408 1.244878 0.278329
v 0.142620 1.187433 0.286996
v 0.159079 1.187433 0.312664
v 0.159079 1.230376 0.312664
v 0.142620 1.230376 0.286996
v 0.400221 1.331654 0.238470
v 0.503736 1.331654 0.238470
v 0.400221 1.439364 0.238470
v 0.503736 1.439364 0.238470
v 0.400221 1.439364 0.195043
v 0.503736 1.439364 0.195043
v 0.400221 1.331654 0.195043
v 0.503736 1.331654 0.195043
v 0.439241 1.349162 0.238470
v 0.464722 1.349162 0.238470
v 0.464722 1.421857 0.238470
v 0.439241 1.421857 0.238470
v 0.439241 1.349162 0.221888
v 0.464722 1.349162 0.221888
v 0.464722 1.421857 0.221888
v 0.439241 1.421857 0.221888
v -0.627352 0.000000 0.238216
v 0.627352 0.000000 0.238216
v -0.627352 2.483661 0.238216
v 0.627352 2.483661 0.238216
v 0.627352 1.704788 0.238215
v -0.627352 1.704788 0.238215
v -0.160082 2.483661 0.238215
v -0.374723 1.868631 0.195044
v -0.160082 0.000000 0.238215
v 0.627352 0.433115 0.238215
v -0.352844 0.295279 0.195044
v -0.627352 0.433115 0.238215
v 0.374247 0.000000 0.238215
v 0.321688 0.566665 0.195045
v 0.320608 1.798721 0.195045
v 0.374247 2.483661 0.238215
v -0.772079 0.000000 0.364106
v 0.772078 0.000000 0.364106
v 0.772078 2.618479 0.364106
v -0.772079 2.618479 0.364106
v -0.627352 0.000000 0.364106
v 0.627352 0.000000 0.364106
v 0.627352 2.483660 0.364106
v -0.627352 2.483660 0.364106
v 0.772078 0.000000 -0.097000
v 0.772078 2.618479 -0.097000
v -0.772079 2.618479 -0.097000
v -0.772079 0.000000 -0.097000
vt 0.133934 0.303976
vt 0.133934 0.303976
vt 0.133934 0.303976
vt 0.133934 0.303976
vt 0.133934 0.303976
vt 0.133934 0.303976
vt 0.133934 0.303976
vt 0.133934 0.303976
vt 0.133934 0.303976
vt 0.133934 0.303976
vt 0.133934 0.303976
vt 0.133934 0.303976
vt 0.133934 0.303976
vt 0.133934 0.303976
vt 0.133934 0.303976
vt 0.133934 0.303976
vt 0.133934 0.303976
vt 0.133934 0.303976
vt 0.133934 0.303976
vt 0.133934 0.303976
vt 0.133934 0.303976
vt 0.133934 0.303976
vt 0.133934 0.303976
vt 0.133934 0.303976
vt 0.133934 0.303976
vt 0.133934 0.303976
vt 0.133934 0.303976
vt 0.133934 0.303976
vt 0.133934 0.303976
vt 0.133934 0.303976
vt 0.133934 0.303976
vt 0.133934 0.303976
vt 0.133934 0.303976
vt 0.133934 0.303976
vt 0.133934 0.303976
vt 0.133934 0.303976
vt 0.133934 0.230744
vt 0.133934 0.230744
vt 0.133934 0.230744
vt 0.133934 0.230744
vt 0.133934 0.303976
vt 0.133934 0.303976
vt 0.133934 0.303976
vt 0.133934 0.303976
vt 0.133934 0.303976
vt 0.133934 0.303976
vt 0.133934 0.303976
vt 0.133934 0.303976
vt 0.133934 0.303976
vt 0.133934 0.303976
vt 0.133934 0.303976
vt 0.133934 0.303976
vt 0.133934 0.303976
vt 0.133934 0.303976
vt 0.133934 0.303976
vt 0.133934 0.303976
vt 0.133934 0.303976
vt 0.133934 0.303976
vt 0.133934 0.303976
vt 0.133934 0.303976
vt 0.133934 0.303976
vt 0.133934 0.303976
vt 0.133934 0.303976
vt 0.133934 0.303976
vt 0.133934 0.303976
vt 0.133934 0.303976
vt 0.133934 0.303976
vt 0.133934 0.303976
vt 0.133934 0.230744
vt 0.133934 0.230744
vt 0.133934 0.230744
vt 0.133934 0.230744
vt 0.007610 0.420532
vt 0.007610 0.420532
vt 0.007610 0.420532
vt 0.007610 0.420532
vt 0.007610 0.420532
vt 0.007610 0.420532
vt 0.007610 0.420532
vt 0.007610 0.420532
vt 0.007610 0.420532
vt 0.007610 0.420532
vt 0.007610 0.420532
vt 0.007610 0.420532
vt 0.007610 0.420532
vt 0.007610 0.420532
vt 0.007610 0.420532
vt 0.007610 0.420532
vt 0.007610 0.420532
vt 0.007610 0.420532
vt 0.007610 0.420532
vt 0.007610 0.420532
vt 0.007610 0.420532
vt 0.007610 0.420532
vt 0.007610 0.420532
vt 0.007610 0.420532
vt 0.007610 0.420532
vt 0.007610 0.420532
vt 0.007610 0.420532
vt 0.007610 0.420532
vt 0.007610 0.420532
vt 0.007610 0.420532
vt 0.007610 0.420532
vt 0.007610 0.420532
vt 0.007610 0.420532
vt 0.007610 0.420532
vt 0.007610 0.420532
vt 0.007610 0.420532
vt 0.036428 0.326128
vt 0.036428 0.326128
vt 0.036428 0.326128
vt 0.036428 0.326128
vt 0.036428 0.326128
vt 0.036428 0.326128
vt 0.036428 0.326128
vt 0.036428 0.326128
vt 0.036428 0.326128
vt 0.036428 0.326128
vt 0.036428 0.326128
vt 0.036428 0.326128
vt 0.034969 0.301777
vt 0.034969 0.301777
vt 0.034969 0.301777
vt 0.034969 0.301777
vt 0.034969 0.301777
vt 0.034969 0.301777
vt 0.034969 0.301777
vt 0.034969 0.301777
vn -0.841802 0.000000 0.539786
vn -0.841802 0.000000 0.539786
vn -0.841802 0.000000 0.539786
vn -0.841802 0.000000 0.539786
vn 0.000000 1.000000 0.000000
vn 0.000000 1.000000 0.000000
vn 0.000000 1.000000 0.000000
vn 0.000000 1.000000 0.000000
vn 0.000000 0.000000 -1.000000
vn 0.000000 0.000000 -1.000000
vn 0.000000 0.000000 -1.000000
vn 0.000000 0.000000 -1.000000
vn 0.000000 -1.000000 0.000000
vn 0.000000 -1.000000 0.000000
vn 0.000000 -1.000000 0.000000
vn 0.000000 -1.000000 0.000000
vn 1.000000 0.000000 0.000000
vn 1.000000 0.000000 0.000000
vn 1.000000 0.000000 0.000000
vn 1.000000 0.000000 0.000000
vn -1.000000 0.000000 0.000000
vn -1.000000 0.000000 0.000000
vn -1.000000 0.000000 0.000000
vn -1.000000 0.000000 0.000000
vn 0.000000 0.000000 1.000000
vn 0.000000 0.000000 1.000000
vn 0.000000 0.000000 1.000000
vn 0.000000 0.000000 1.000000
vn -0.000000 0.000000 1.000000
vn -0.000000 0.000000 1.000000
vn -0.000000 0.000000 1.000000
vn -0.000000 0.000000 1.000000
vn 0.000000 0.000000 1.000000
vn 0.000000 0.000000 1.000000
vn 0.000000 0.000000 1.000000
vn 0.000000 0.000000 1.000000
vn 0.000000 0.000000 1.000000
vn 0.000000 0.000000 1.000000
vn 0.000000 0.000000 1.000000
vn 0.000000 0.000000 1.000000
vn 0.000000 -1.000000 0.000000
vn 0.000000 -1.000000 0.000000
vn 0.000000 -1.000000 0.000000
vn 0.000000 -1.000000 0.000000
vn 1.000000 0.000000 0.000000
vn 1.000000 0.000000 0.000000
vn 1.000000 0.000000 0.000000
vn 1.000000 0.000000 0.000000
vn 0.000000 1.000000 0.000000
vn 0.000000 1.000000 0.000000
vn 0.000000 1.000000 0.000000
vn 0.000000 1.000000 0.000000
vn -1.000000 0.000000 0.000000
vn -1.000000 0.000000 0.000000
vn -1.000000 0.000000 0.000000
vn -1.000000 0.000000 0.000000
vn -0.048016 -0.997051 0.059856
vn -0.048016 -0.997052 0.059856
vn -0.048016 -0.997052 0.059856
vn -0.048016 -0.997052 0.059856
vn -0.026460 0.000000 0.999650
vn -0.026460 0.000000 0.999650
vn -0.026460 0.000000 0.999650
vn -0.026460 0.000000 0.999650
vn -0.048016 0.997052 0.059856
vn -0.048016 0.997051 0.059856
vn -0.048016 0.997052 0.059856
vn -0.048016 0.997052 0.059856
vn -0.031525 0.000000 -0.999503
vn -0.031525 0.000000 -0.999503
vn -0.031525 0.000000 -0.999503
vn -0.031525 0.000000 -0.999503
vn 0.000000 0.000000 1.000000
vn 0.000000 0.000000 1.000000
vn 0.000000 0.000000 1.000000
vn 0.000000 0.000000 1.000000
vn 0.000000 1.000000 0.000000
vn 0.000000 1.000000 0.000000
vn 0.000000 1.000000 0.000000
vn 0.000000 1.000000 0.000000
vn 0.000000 0.000000 -1.000000
vn 0.000000 0.000000 -1.000000
vn 0.000000 0.000000 -1.000000
vn 0.000000 0.000000 -1.000000
vn 0.000000 -1.000000 0.000000
vn 0.000000 -1.000000 0.000000
vn 0.000000 -1.000000 0.000000
vn 0.000000 -1.000000 0.000000
vn 1.000000 0.000000 0.000000
vn 1.000000 0.000000 0.000000
vn 1.000000 0.000000 0.000000
vn 1.000000 0.000000 0.000000
vn -1.000000 0.000000 0.000000
vn -1.000000 0.000000 0.000000
vn -1.000000 0.000000 0.000000
vn -1.000000 0.000000 0.000000
vn 0.000000 0.000000 1.000000
vn 0.000000 0.000000 1.000000
vn 0.000000 0.000000 1.000000
vn 0.000000 0.000000 1.000000
vn 0.000000 0.000000 1.000000
vn 0.000000 0.000000 1.000000
vn 0.000000 0.000000 1.000000
vn 0.000000 0.000000 1.000000
vn 0.000000 0.000000 1.000000
vn 0.000000 0.000000 1.000000
vn 0.000000 0.000000 1.000000
vn 0.000000 0.000000 1.000000
vn -0.000000 0.000000 1.000000
vn -0.000000 0.000000 1.000000
vn -0.000000 0.000000 1.000000
vn -0.000000 0.000000 1.000000
vn 0.000000 1.000000 0.000000
vn 0.000000 1.000000 0.000000
vn 0.000000 1.000000 0.000000
vn 0.000000 1.000000 0.000000
vn -1.000000 0.000000 0.000000
vn -1.000000 0.000000 0.000000
vn -1.000000 0.000000 0.000000
vn -1.000000 0.000000 0.000000
vn 0.000000 -1.000000 0.000000
vn 0.000000 -1.000000 0.000000
vn 0.000000 -1.000000 0.000000
vn 0.000000 -1.000000 0.000000
vn 1.000000 0.000000 0.000000
vn 1.000000 0.000000 0.000000
vn 1.000000 0.000000 0.000000
vn 1.000000 0.000000 0.000000
vn -0.021040 0.093718 0.995376
vn -0.021040 0.093718 0.995376
vn -0.021040 0.093718 0.995376
vn -0.021040 0.093718 0.995376
vn -0.003725 -0.065506 0.997845
vn -0.003725 -0.065506 0.997845
vn -0.003725 -0.065506 0.997845
vn -0.003725 -0.065506 0.997845
vn 0.069225 -0.041530 0.996736
vn 0.069225 -0.041530 0.996736
vn 0.069225 -0.041530 0.996736
vn 0.069225 -0.041530 0.996736
vn 0.072379 0.078087 0.994316
vn 0.072379 0.078087 0.994316
vn 0.072379 0.078087 0.994316
vn 0.072379 0.078087 0.994316
vn -0.000001 -0.000000 1.000000
vn -0.000001 -0.000000 1.000000
vn -0.000001 -0.000000 1.000000
vn -0.000001 -0.000000 1.000000
vn 0.161581 0.001243 0.986859
vn 0.161581 0.001243 0.986859
vn 0.161581 0.001243 0.986859
vn 0.161581 0.001243 0.986859
vn -0.067583 0.039495 0.996932
vn -0.067583 0.039495 0.996932
vn -0.067583 0.039495 0.996932
vn -0.067583 0.039495 0.996932
vn -0.139626 -0.000060 0.990204
vn -0.139626 -0.000060 0.990204
vn -0.139626 -0.000060 0.990204
vn -0.139626 -0.000060 0.990204
vn -0.081259 -0.026406 0.996343
vn -0.081259 -0.026406 0.996343
vn -0.081259 -0.026406 0.996343
vn -0.081259 -0.026406 0.996343
vn 0.000000 0.000000 1.000000
vn 0.000000 0.000000 1.000000
vn 0.000000 0.000000 1.000000
vn 0.000000 0.000000 1.000000
vn 0.000000 0.000000 1.000000
vn 0.000000 0.000000 1.000000
vn 0.000000 0.000000 1.000000
vn 0.000000 0.000000 1.000000
vn -0.000000 0.000000 1.000000
vn -0.000000 0.000000 1.000000
vn -0.000000 0.000000 1.000000
vn -0.000000 0.000000 1.000000
vn -1.000000 0.000000 0.000000
vn -1.000000 0.000000 0.000000
vn -1.000000 0.000000 0.000000
vn -1.000000 0.000000 0.000000
vn 0.000000 -1.000000 -0.000005
vn 0.000000 -1.000000 -0.000005
vn 0.000000 -1.000000 -0.000005
vn 0.000000 -1.000000 -0.000005
vn 1.000000 0.000000 0.000000
vn 1.000000 0.000000 0.000000
vn 1.000000 0.000000 0.000000
vn 1.000000 0.000000 0.000000
vn 1.000000 0.000000 0.000000
vn 1.000000 0.000000 0.000000
vn 1.000000 0.000000 0.000000
vn 1.000000 0.000000 0.000000
vn 0.000000 1.000000 0.000000
vn 0.000000 1.000000 0.000000
vn 0.000000 1.000000 0.000000
vn 0.000000 1.000000 0.000000
vn -1.000000 0.000000 0.000000
vn -1.000000 0.000000 0.000000
vn -1.000000 0.000000 0.000000
vn -1.000000 0.000000 0.000000
vn 0.000000 0.000000 -1.000000
vn 0.000000 0.000000 -1.000000
vn 0.000000 0.000000 -1.000000
vn 0.000000 0.000000 -1.000000
s off
f 17/33/1 18/34/2 19/35/3 20/36/4
f 3/5/5 4/6/6 6/7/7 5/8/8
f 5/9/9 6/10/10 8/11/11 7/12/12
f 7/13/13 8/14/14 2/15/15 1/16/16
f 2/17/17 8/18/18 6/19/19 4/20/20
f 7/21/21 1/22/22 3/23/23 5/24/24
f 1/1/25 2/2/26 10/26/27 9/25/28
f 2/2/29 4/3/30 11/27/31 10/26/32
f 4/3/33 3/4/34 12/28/35 11/27/36
f 3/4/37 1/1/38 9/25/39 12/28/40
f 9/25/41 10/26/42 14/30/43 13/29/44
f 10/26/45 11/27/46 15/31/47 14/30/48
f 11/27/49 12/28/50 16/32/51 15/31/52
f 12/28/53 9/25/54 13/29/55 16/32/56
f 13/29/57 14/30/58 18/34/59 17/33/60
f 14/30/61 15/31/62 19/35/63 18/34/64
f 15/31/65 16/32/66 20/36/67 19/35/68
f 16/32/69 13/29/70 17/33/71 20/36/72
f 33/37/73 34/38/74 35/39/75 36/40/76
f 23/41/77 24/42/78 26/43/79 25/44/80
f 25/45/81 26/46/82 28/47/83 27/48/84
f 27/49/85 28/50/86 22/51/87 21/52/88
f 22/53/89 28/54/90 26/55/91 24/56/92
f 27/57/93 21/58/94 23/59/95 25/60/96
f 21/61/97 22/62/98 30/63/99 29/64/100
f 22/62/101 24/65/102 31/66/103 30/63/104
f 24/65/105 23/67/106 32/68/107 31/66/108
f 23/67/109 21/61/110 29/64/111 32/68/112
f 29/69/113 30/70/114 34/38/115 33/37/116
f 30/70/117 31/71/118 35/39/119 34/38/120
f 31/71/121 32/72/122 36/40/123 35/39/124
f 32/72/125 29/69/126 33/37/127 36/40/128
f 49/85/129 50/94/130 47/83/131 45/106/132
f 51/91/133 52/92/134 43/79/135 44/99/136
f 44/98/137 43/108/138 39/74/139 42/78/140
f 45/81/141 47/100/142 48/103/143 37/75/144
f 50/95/145 51/90/146 44/80/147 47/102/148
f 48/84/149 47/101/150 44/97/151 42/105/152
f 46/82/153 50/93/154 49/96/155 38/76/156
f 41/77/157 51/89/158 50/86/159 46/104/160
f 40/73/161 52/88/162 51/87/163 41/107/164
f 54/109/165 55/110/166 59/111/167 58/112/168
f 55/110/169 56/113/170 60/114/171 59/111/172
f 56/113/173 53/115/174 57/116/175 60/114/176
f 58/112/177 59/111/178 40/117/179 38/118/180
f 59/111/181 60/114/182 39/119/183 40/117/184
f 60/114/185 57/116/186 37/120/187 39/119/188
f 55/121/189 54/122/190 61/123/191 62/124/192
f 56/125/193 55/121/194 62/124/195 63/126/196
f 53/127/197 56/125/198 63/126/199 64/128/200
f 64/128/201 63/126/202 62/124/203 61/123/204
