# This file uses centimeters as units for non-parametric coordinates.

v -0.228230 0.137555 0.298256
v 0.309946 0.137555 0.270994
v -0.228230 0.510668 0.298256
v 0.324371 0.510668 0.298256
v -0.228230 0.510668 -0.304039
v 0.324371 0.510668 -0.304039
v -0.189369 0.137555 -0.270696
v 0.324371 0.113283 -0.304039
v -0.209692 0.532394 0.282023
v 0.302980 0.532394 0.282023
v 0.302980 0.538203 -0.298696
v -0.209692 0.538203 -0.298696
v -0.209692 0.135069 0.282023
v 0.261981 0.135069 0.252684
v 0.302980 0.135069 -0.287055
v -0.170816 0.135069 -0.253712
v -0.228230 0.666834 0.529789
v 0.324371 0.563882 0.551649
v 0.313752 0.579606 0.529395
v -0.196665 0.666834 0.513564
v -0.228230 0.260633 -0.457808
v 0.324371 0.302085 -0.507181
v -0.222176 0.268129 -0.470139
v 0.318302 0.309581 -0.519505
v 0.473567 0.762048 0.298256
v 0.423498 0.813427 -0.304039
v 0.402109 0.813427 -0.275386
v 0.452178 0.762048 0.269595
v -0.412905 0.779689 0.298256
v -0.501632 0.720782 -0.304039
v -0.394367 0.779689 0.269595
v -0.470369 0.729483 -0.294688
v 0.324371 0.170958 -0.039143
v 0.324371 0.178980 0.037823
v 0.324371 0.324691 -0.035685
v 0.324371 0.332834 0.037823
v 0.324371 0.333949 0.090227
v 0.324371 0.331720 -0.089595
v 0.324371 0.434170 0.001634
v 0.324371 0.242722 0.037823
v 0.324371 0.279163 0.037823
v 0.324371 0.260015 0.021091
v -0.228230 0.035347 -0.304039
v 0.298582 0.035347 -0.269030
v 0.324371 0.035347 0.298256
v -0.228230 0.035347 0.298256
v -0.086447 0.137555 0.298256
v 0.163796 0.164748 0.298256
v 0.324371 0.157076 0.091668
v 0.158951 0.137555 -0.304039
v -0.071618 0.117691 -0.304039
v -0.228230 0.137555 -0.137752
v -0.228230 0.164748 0.136807
v -0.090205 0.137555 0.298256
vt 0.006983 0.326319
vt 0.006983 0.326319
vt 0.006983 0.326319
vt 0.006983 0.326319
vt 0.006983 0.326319
vt 0.006983 0.326319
vt 0.005794 0.281922
vt 0.005794 0.281922
vt 0.005794 0.281922
vt 0.005794 0.281922
vt 0.006983 0.326319
vt 0.006983 0.326319
vt 0.006983 0.326319
vt 0.006983 0.326319
vt 0.006983 0.326319
vt 0.006983 0.326319
vt 0.006983 0.326319
vt 0.006983 0.326319
vt 0.006983 0.326319
vt 0.006983 0.326319
vt 0.006983 0.326319
vt 0.006983 0.326319
vt 0.006983 0.326319
vt 0.006983 0.326319
vt 0.006983 0.326319
vt 0.006983 0.326319
vt 0.006983 0.326319
vt 0.006983 0.326319
vt 0.006983 0.326319
vt 0.006983 0.326319
vt 0.006983 0.326319
vt 0.006983 0.326319
vt 0.006983 0.326319
vt 0.006983 0.326319
vt 0.006983 0.326319
vt 0.006983 0.326319
vt 0.006983 0.326319
vt 0.006983 0.326319
vt 0.006983 0.326319
vt 0.006983 0.326319
vt 0.006983 0.326319
vt 0.006983 0.326319
vt 0.006983 0.326319
vt 0.006983 0.326319
vt 0.006983 0.326319
vt 0.127335 0.469016
vt 0.127335 0.469016
vt 0.127335 0.469016
vt 0.127335 0.469016
vt 0.127335 0.469016
vt 0.127335 0.469016
vt 0.127335 0.469016
vt 0.006983 0.326319
vt 0.127335 0.469016
vt 0.006983 0.326319
vt 0.127335 0.469016
vt 0.127335 0.469016
vt 0.003849 0.329818
vt 0.003849 0.329818
vt 0.003849 0.329818
vt 0.005794 0.281922
vt 0.005794 0.281922
vt 0.005794 0.281922
vt 0.005794 0.281922
vt 0.005794 0.281922
vt 0.005794 0.281922
vt 0.005794 0.281922
vt 0.005794 0.281922
vt 0.005794 0.281922
vt 0.005794 0.281922
vt 0.005794 0.281922
vt 0.005794 0.281922
vt 0.005794 0.281922
vt 0.005794 0.281922
vt 0.006983 0.326319
vt 0.005794 0.281922
vt 0.006983 0.326319
vt 0.005794 0.281922
vt 0.006983 0.326319
vt 0.005794 0.281922
vt 0.006983 0.326319
vt 0.005794 0.281922
vt 0.005794 0.281922
vt 0.006983 0.326319
vt 0.005794 0.281922
vt 0.006983 0.326319
vt 0.005794 0.281922
vt 0.006983 0.326319
vt 0.006983 0.326319
vt 0.005794 0.281922
vt 0.006983 0.326319
vt 0.005794 0.281922
vt 0.006983 0.326319
vt 0.005794 0.281922
vn 0.000000 0.000000 1.000000
vn 0.000000 0.000000 1.000000
vn 0.000000 0.000000 1.000000
vn 0.000000 1.000000 0.000000
vn 0.000000 1.000000 0.000000
vn 0.000000 1.000000 0.000000
vn 0.000000 1.000000 0.000000
vn 0.000000 0.000000 -1.000000
vn 0.000000 0.000000 -1.000000
vn 0.000000 0.000000 -1.000000
vn 0.000000 -1.000000 0.000000
vn 0.000000 -1.000000 0.000000
vn 0.000000 -1.000000 0.000000
vn 0.000000 -1.000000 0.000000
vn 1.000000 0.000000 0.000000
vn 1.000000 0.000000 0.000000
vn 1.000000 0.000000 0.000000
vn 1.000000 0.000000 0.000000
vn 1.000000 0.000000 0.000000
vn -0.952418 -0.124075 -0.278398
vn -0.952418 -0.124075 -0.278398
vn -0.952418 -0.124075 -0.278398
vn 0.142995 0.886497 0.440087
vn 0.142995 0.886497 0.440087
vn 0.142995 0.886497 0.440087
vn 0.142995 0.886497 0.440087
vn -0.000016 0.996013 0.089212
vn -0.000016 0.996013 0.089212
vn -0.000016 0.996013 0.089212
vn -0.000016 0.996013 0.089212
vn 0.017871 -0.854307 -0.519462
vn 0.017871 -0.854307 -0.519462
vn 0.017871 -0.854307 -0.519462
vn 0.017871 -0.854307 -0.519462
vn -0.195735 0.978574 -0.063890
vn -0.195735 0.978574 -0.063890
vn -0.195735 0.978574 -0.063890
vn -0.195735 0.978574 -0.063890
vn -0.029771 0.038414 -0.998818
vn -0.029771 0.038414 -0.998818
vn -0.029771 0.038414 -0.998818
vn -0.029771 0.038414 -0.998818
vn -0.997993 0.051919 -0.036249
vn -0.997993 0.051919 -0.036249
vn -0.997993 0.051919 -0.036249
vn -0.997993 0.051919 -0.036249
vn 0.033694 0.071635 0.996862
vn 0.033694 0.071635 0.996862
vn 0.033694 0.071635 0.996862
vn 0.033694 0.071635 0.996862
vn 0.998113 0.050443 0.035017
vn 0.998113 0.050443 0.035017
vn 0.998113 0.050443 0.035017
vn 0.998113 0.050443 0.035017
vn 0.000000 -0.978652 0.205525
vn 0.000000 -0.978652 0.205525
vn 0.000000 -0.978652 0.205525
vn -0.173885 -0.816416 0.550662
vn -0.173885 -0.816416 0.550662
vn -0.173885 -0.816416 0.550662
vn 0.815906 0.563262 -0.130511
vn 0.815906 0.563262 -0.130511
vn 0.815906 0.563262 -0.130511
vn 0.815906 0.563262 -0.130511
vn 0.000000 0.982270 -0.187471
vn 0.000000 0.982270 -0.187471
vn 0.000000 0.982270 -0.187471
vn 0.160771 0.849590 -0.502344
vn 0.160772 0.849590 -0.502344
vn 0.160772 0.849590 -0.502344
vn -0.576862 0.699092 -0.422493
vn -0.576862 0.699092 -0.422493
vn -0.576862 0.699092 -0.422493
vn -0.576862 0.699092 -0.422493
vn 0.000000 -0.697703 0.716388
vn 0.000000 -0.697703 0.716388
vn 0.000000 -0.697703 0.716388
vn 0.114641 -0.520401 0.846192
vn 0.114641 -0.520401 0.846192
vn 0.114641 -0.520401 0.846192
vn -0.713336 0.383782 -0.586398
vn -0.713336 0.383782 -0.586398
vn -0.713336 0.383782 -0.586398
vn -0.713336 0.383782 -0.586398
vn 0.000000 0.694708 -0.719292
vn 0.000000 0.694708 -0.719292
vn 0.000000 0.694708 -0.719292
vn -0.117468 0.536089 -0.835948
vn -0.117468 0.536089 -0.835948
vn -0.117468 0.536089 -0.835948
vn 0.737004 0.483648 -0.472133
vn 0.737004 0.483648 -0.472133
vn 0.737004 0.483648 -0.472133
vn 0.737004 0.483648 -0.472133
vn 0.859946 -0.510384 0.000000
vn 0.859946 -0.510384 0.000000
vn 0.859946 -0.510384 0.000000
vn 0.945109 -0.309439 -0.104964
vn 0.945109 -0.309439 -0.104964
vn 0.945108 -0.309439 -0.104964
vn -0.520742 0.211973 -0.826979
vn -0.520742 0.211973 -0.826980
vn -0.520742 0.211973 -0.826980
vn -0.520742 0.211973 -0.826980
vn -0.838425 0.544990 0.005451
vn -0.838425 0.544990 0.005451
vn -0.838425 0.544990 0.005451
vn -0.937489 0.327748 0.117029
vn -0.937489 0.327748 0.117029
vn -0.937489 0.327748 0.117029
vn -0.573831 0.374772 0.728193
vn -0.573831 0.374772 0.728193
vn -0.573831 0.374771 0.728193
vn -0.573831 0.374772 0.728193
vn -0.720090 -0.688442 0.086706
vn -0.720090 -0.688442 0.086706
vn -0.720090 -0.688442 0.086706
vn -0.720090 -0.688442 0.086706
vn 0.581270 0.432408 0.689310
vn 0.581270 0.432408 0.689310
vn 0.581270 0.432408 0.689310
vn 0.581270 0.432408 0.689310
vn 0.591660 0.806147 0.008063
vn 0.591660 0.806147 0.008063
vn 0.591660 0.806147 0.008063
vn 0.794841 0.585574 -0.159155
vn 0.794842 0.585574 -0.159155
vn 0.794841 0.585574 -0.159155
vn 0.141809 0.198368 -0.969815
vn 0.141809 0.198368 -0.969815
vn 0.141809 0.198368 -0.969815
vn 0.141809 0.198368 -0.969815
vn 1.000000 0.000001 0.000000
vn 1.000000 0.000001 0.000000
vn 1.000000 0.000001 0.000000
vn 1.000000 0.000001 0.000000
vn 1.000000 -0.000000 0.000000
vn 1.000000 -0.000000 0.000000
vn 1.000000 -0.000000 0.000000
vn 1.000000 -0.000000 0.000000
vn 1.000000 -0.000000 0.000000
vn 1.000000 -0.000000 0.000000
vn 1.000000 -0.000000 0.000000
vn 1.000000 -0.000000 0.000000
vn 1.000000 -0.000000 0.000000
vn 1.000000 -0.000000 0.000000
vn 1.000000 0.000000 0.000000
vn 1.000000 0.000000 0.000000
vn 1.000000 0.000000 0.000000
vn 1.000000 0.000000 0.000000
vn 1.000000 0.000000 0.000000
vn 1.000000 0.000000 0.000000
vn 1.000000 0.000000 0.000000
vn 1.000000 0.000000 0.000000
vn 1.000000 0.000000 0.000000
vn 1.000000 0.000000 0.000000
vn 1.000000 0.000000 0.000000
vn 1.000000 0.000000 0.000000
vn 1.000000 0.000000 0.000000
vn 1.000000 0.000000 0.000000
vn 1.000000 0.000000 0.000000
vn 1.000000 0.000000 0.000000
vn 1.000000 0.000000 0.000000
vn 1.000000 0.000000 0.000000
vn 1.000000 0.000000 0.000000
vn 1.000000 -0.000000 0.000000
vn 1.000000 -0.000000 0.000000
vn 1.000000 -0.000000 0.000000
vn 1.000000 -0.000000 0.000000
vn -0.194715 0.370332 -0.908262
vn -0.194715 0.370332 -0.908262
vn -0.194715 0.370332 -0.908262
vn 0.988286 -0.151348 -0.019584
vn 0.988286 -0.151348 -0.019584
vn 0.988287 -0.151348 -0.019584
vn 0.988287 -0.151348 -0.019584
vn 0.226219 0.280717 0.932750
vn 0.226219 0.280717 0.932750
vn 0.226219 0.280717 0.932750
vn -1.000000 0.000000 0.000000
vn -1.000000 0.000000 0.000000
vn -1.000000 0.000000 0.000000
vn 0.000000 0.000000 1.000000
vn 0.000000 0.000000 1.000000
vn 0.000000 0.000000 1.000000
vn 0.000000 0.000000 1.000000
vn 0.000000 0.000000 1.000000
vn 0.000000 0.000000 1.000000
vn 0.000000 0.000000 1.000000
vn 0.000000 0.000000 1.000000
vn 0.981630 0.164382 0.096860
vn 0.981630 0.164382 0.096860
vn 0.981630 0.164382 0.096860
vn -0.057685 -0.393135 -0.917670
vn -0.057685 -0.393135 -0.917670
vn -0.057685 -0.393135 -0.917670
vn 0.050316 -0.190606 -0.980376
vn 0.050316 -0.190606 -0.980376
vn 0.050316 -0.190606 -0.980376
vn 0.050316 -0.190606 -0.980376
vn -0.873169 0.415250 -0.255233
vn -0.873169 0.415250 -0.255233
vn -0.873169 0.415250 -0.255233
vn -1.000000 0.000000 0.000000
vn -1.000000 0.000000 0.000000
vn -1.000000 0.000000 0.000000
vn -1.000000 0.000000 0.000000
vn -1.000000 0.000000 0.000000
vn -1.000000 0.000000 0.000000
vn -1.000000 0.000000 0.000000
vn -1.000000 0.000000 0.000000
vn -1.000000 0.000000 0.000000
vn -1.000000 0.000000 0.000000
vn -1.000000 0.000000 0.000000
vn 0.168706 -0.078313 0.982550
vn 0.168706 -0.078313 0.982551
vn 0.168706 -0.078313 0.982550
vn 0.000000 0.000000 1.000000
vn 0.000000 0.000000 1.000000
vn 0.000000 0.000000 1.000000
vn 0.000000 0.000000 1.000000
vn 0.000000 0.000000 1.000000
vn 0.000000 0.000000 -1.000000
vn 0.000000 0.000000 -1.000000
vn 0.000000 0.000000 -1.000000
vn 0.000000 0.000000 -1.000000
vn -0.288557 -0.114998 -0.950531
vn -0.288557 -0.114998 -0.950531
vn -0.288557 -0.114998 -0.950532
vn 0.996185 -0.044021 0.075345
vn 0.996185 -0.044021 0.075345
vn 0.996185 -0.044021 0.075345
s off
f 1/1/1 54/93/2 3/3/3
f 13/19/4 14/20/5 15/21/6 16/22/7
f 50/86/8 6/6/9 8/75/10
f 43/61/11 44/73/12 45/70/13 46/68/14
f 42/57/15 33/47/16 35/48/17 36/49/18 41/56/19
f 7/13/20 52/89/21 5/14/22
f 17/23/23 18/24/24 19/25/25 20/26/26
f 25/31/27 26/32/28 27/33/29 28/34/30
f 22/27/31 21/28/32 23/29/33 24/30/34
f 30/35/35 29/36/36 31/37/37 32/38/38
f 9/15/39 10/16/40 14/20/41 13/19/42
f 10/16/43 11/17/44 15/21/45 14/20/46
f 11/17/47 12/18/48 16/22/49 15/21/50
f 12/18/51 9/15/52 13/19/53 16/22/54
f 4/4/55 18/24/56 3/3/57
f 3/3/58 18/24/59 17/23/60
f 4/4/61 10/16/62 19/25/63 18/24/64
f 10/16/65 9/15/66 19/25/67
f 19/25/68 9/15/69 20/26/70
f 9/15/71 3/3/72 17/23/73 20/26/74
f 6/6/75 5/5/76 22/27/77
f 22/27/78 5/5/79 21/28/80
f 5/5/81 12/18/82 23/29/83 21/28/84
f 11/17/85 24/30/86 12/18/87
f 12/18/88 24/30/89 23/29/90
f 11/17/91 6/6/92 22/27/93 24/30/94
f 4/4/95 6/6/96 25/31/97
f 25/31/98 6/6/99 26/32/100
f 6/6/101 11/17/102 27/33/103 26/32/104
f 10/16/105 28/34/106 11/17/107
f 11/17/108 28/34/109 27/33/110
f 10/16/111 4/4/112 25/31/113 28/34/114
f 5/5/115 3/3/116 29/36/117 30/35/118
f 3/3/119 9/15/120 31/37/121 29/36/122
f 12/18/123 32/38/124 9/15/125
f 9/15/126 32/38/127 31/37/128
f 12/18/129 5/5/130 30/35/131 32/38/132
f 49/84/133 8/11/134 33/40/135 34/39/136
f 8/11/137 6/12/138 38/44/139 35/41/140 33/40/141
f 6/12/142 4/4/143 37/43/144 39/45/145 38/44/146
f 40/53/147 49/84/148 34/39/149
f 38/50/150 39/51/151 37/52/152 36/49/153 35/48/154
f 40/58/155 42/59/156 41/60/157
f 37/43/158 41/55/159 36/42/160
f 4/4/161 49/84/162 40/53/163 41/55/164 37/43/165
f 34/46/166 33/47/167 42/57/168 40/54/169
f 7/7/170 51/87/171 43/65/172
f 8/8/173 49/83/174 45/69/175 44/62/176
f 2/10/177 48/82/178 45/63/179
f 1/9/180 53/92/181 46/64/182
f 46/67/183 47/80/184 54/94/185 1/71/186
f 45/63/187 48/82/188 47/80/189 46/67/190
f 45/69/191 49/83/192 2/74/193
f 44/72/194 50/85/195 8/76/196
f 43/65/197 51/87/198 50/85/199 44/72/200
f 43/66/201 52/90/202 7/78/203
f 46/64/204 53/92/205 52/90/206 43/66/207
f 3/3/208 53/91/209 1/1/210
f 5/14/211 52/89/212 53/91/213 3/3/214
f 4/4/215 48/81/216 2/2/217
f 3/3/218 54/93/219 47/79/220 48/81/221 4/4/222
f 5/5/223 6/6/224 50/86/225 51/88/226
f 5/5/227 51/88/228 7/77/229
f 4/4/230 2/2/231 49/84/232
