# This file uses centimeters as units for non-parametric coordinates.

v 0.036400 -0.150083 -0.063034
v -0.036392 -0.157487 -0.063034
v 0.000008 -0.157487 -0.000000
v -0.067856 -0.140685 -0.002396
v -0.036392 -0.157487 0.063034
v 0.036400 -0.145984 0.063034
v 0.072784 -0.157487 -0.000000
v 0.047455 0.101611 -0.082185
v -0.047447 0.101611 -0.082185
v -0.094902 0.095993 -0.000000
v -0.047447 0.101611 0.082185
v 0.047455 0.101611 0.082185
v 0.094902 0.094477 0.000000
v 0.053772 0.109028 -0.093127
v -0.053757 0.109028 -0.093127
v -0.107536 0.103409 -0.000000
v -0.053757 0.109028 0.093127
v 0.053772 0.109028 0.093127
v 0.107536 0.101894 0.000000
v 0.045578 0.130578 -0.078930
v -0.045563 0.130578 -0.078930
v 0.000008 0.130578 0.000000
v -0.079803 0.124960 0.010150
v -0.045563 0.130578 0.078930
v 0.038620 0.130578 0.072305
v 0.083961 0.123444 -0.001530
v -0.014416 0.130578 0.050745
v 0.007473 0.130578 0.049023
v -0.002566 0.130578 0.030228
v -0.014416 0.233458 0.055063
v 0.007473 0.233458 0.053340
v -0.002566 0.243582 0.034546
v -0.014670 0.275609 0.108102
v 0.007728 0.277029 0.107059
v -0.002543 0.292528 0.095674
vt 0.111282 0.350045
vt 0.111282 0.350045
vt 0.127597 0.445606
vt 0.111282 0.350045
vt 0.127597 0.445606
vt 0.127597 0.445606
vt 0.127597 0.445606
vt 0.127597 0.445606
vt 0.127597 0.445606
vt 0.127597 0.445606
vt 0.111282 0.350045
vt 0.111282 0.350045
vt 0.111282 0.350045
vt 0.127597 0.445606
vt 0.111282 0.350045
vt 0.111282 0.350045
vt 0.111282 0.350045
vt 0.111282 0.350045
vt 0.111282 0.350045
vt 0.111282 0.350045
vt 0.111282 0.350045
vt 0.111282 0.350045
vt 0.111282 0.350045
vt 0.111282 0.350045
vt 0.111282 0.350045
vt 0.111282 0.350045
vt 0.111282 0.350045
vt 0.111282 0.350045
vt 0.111282 0.350045
vt 0.111282 0.350045
vt 0.111282 0.350045
vt 0.111282 0.350045
vt 0.111282 0.350045
vt 0.008262 0.451200
vt 0.008262 0.451200
vt 0.008262 0.451200
vt 0.008262 0.451200
vt 0.008262 0.451200
vt 0.008262 0.451200
vt 0.008262 0.451200
vt 0.008262 0.451200
vt 0.008262 0.451200
vt 0.127597 0.445606
vt 0.127597 0.445606
vt 0.127597 0.445606
vt 0.127597 0.445606
vt 0.127597 0.445606
vt 0.127597 0.445606
vt 0.127597 0.445606
vt 0.127597 0.445606
vt 0.127597 0.445606
vt 0.127597 0.445606
vt 0.111282 0.350045
vt 0.127597 0.445606
vt 0.127597 0.445606
vt 0.127597 0.445606
vt 0.127597 0.445606
vt 0.127597 0.445606
vt 0.127597 0.445606
vt 0.127597 0.445606
vt 0.127597 0.445606
vt 0.127597 0.445606
vt 0.127597 0.445606
vt 0.127597 0.445606
vt 0.127597 0.445606
vt 0.127597 0.445606
vt 0.127597 0.445606
vt 0.127597 0.445606
vt 0.127597 0.445606
vt 0.127597 0.445606
vt 0.127597 0.445606
vt 0.127597 0.445606
vt 0.127597 0.445606
vt 0.127597 0.445606
vt 0.127597 0.445606
vt 0.127597 0.445606
vt 0.127597 0.445606
vt 0.008262 0.451200
vt 0.008262 0.451200
vt 0.008262 0.451200
vt 0.008262 0.451200
vt 0.008262 0.451200
vt 0.008262 0.451200
vt 0.008262 0.451200
vt 0.008262 0.451200
vt 0.008262 0.451200
vt 0.008262 0.451200
vt 0.008262 0.451200
vt 0.008262 0.451200
vt 0.008262 0.451200
vt 0.008262 0.451200
vt 0.008262 0.451200
vt 0.111282 0.350045
vt 0.008262 0.451200
vt 0.111282 0.350045
vt 0.008262 0.451200
vt 0.111282 0.350045
vt 0.008262 0.451200
vn -0.064791 -0.997197 0.037414
vn 0.050603 -0.994866 -0.087639
vn -0.035131 -0.999266 0.015246
vn -0.240408 -0.970669 0.002365
vn -0.064791 -0.997197 0.037414
vn -0.035131 -0.999266 0.015246
vn -0.030948 -0.999361 -0.017871
vn -0.240408 -0.970669 0.002365
vn -0.035131 -0.999266 0.015246
vn 0.078053 -0.987742 0.135180
vn -0.030948 -0.999361 -0.017871
vn -0.035131 -0.999266 0.015246
vn 0.000000 -0.999462 0.032786
vn 0.078053 -0.987742 0.135180
vn -0.035131 -0.999266 0.015246
vn 0.050603 -0.994866 -0.087639
vn 0.000000 -0.999462 0.032786
vn -0.035131 -0.999266 0.015246
vn 0.039627 0.998953 0.022879
vn -0.029145 0.999434 0.016827
vn 0.006348 0.999976 0.002813
vn -0.029145 0.999434 0.016827
vn -0.070576 0.997503 -0.002771
vn 0.006348 0.999976 0.002813
vn -0.070576 0.997503 -0.002771
vn -0.075687 0.996174 -0.043698
vn 0.006348 0.999976 0.002813
vn -0.000006 0.592006 0.805933
vn -0.000006 0.592006 0.805933
vn -0.000006 0.592006 0.805933
vn 0.083778 0.995480 -0.044739
vn 0.084792 0.996376 0.006690
vn 0.006348 0.999976 0.002813
vn 0.084792 0.996376 0.006690
vn 0.039627 0.998953 0.022879
vn 0.006348 0.999976 0.002813
vn 0.003302 -0.074774 -0.997195
vn 0.003302 -0.074774 -0.997195
vn 0.003302 -0.074774 -0.997195
vn 0.003302 -0.074774 -0.997195
vn -0.874971 -0.083362 -0.476946
vn -0.874970 -0.083362 -0.476946
vn -0.874971 -0.083362 -0.476946
vn -0.874970 -0.083362 -0.476946
vn -0.881220 -0.087909 0.464461
vn -0.881220 -0.087909 0.464461
vn -0.881220 -0.087909 0.464461
vn -0.881220 -0.087909 0.464461
vn 0.005169 -0.075375 0.997142
vn 0.005169 -0.075375 0.997142
vn 0.005169 -0.075375 0.997142
vn 0.005169 -0.075375 0.997142
vn 0.859239 -0.076448 0.505830
vn 0.859239 -0.076448 0.505830
vn 0.859239 -0.076448 0.505830
vn 0.859239 -0.076448 0.505830
vn 0.860253 -0.075831 -0.504196
vn 0.860253 -0.075831 -0.504196
vn 0.860253 -0.075831 -0.504196
vn 0.860253 -0.075831 -0.504196
vn 0.000000 -0.827765 -0.561075
vn 0.000000 -0.827765 -0.561075
vn 0.000000 -0.827765 -0.561075
vn 0.000000 -0.827765 -0.561075
vn -0.462532 -0.826806 -0.320087
vn -0.462532 -0.826806 -0.320087
vn -0.462532 -0.826806 -0.320087
vn -0.462532 -0.826806 -0.320087
vn -0.462533 -0.826806 0.320087
vn -0.462533 -0.826806 0.320087
vn -0.462533 -0.826806 0.320087
vn -0.462533 -0.826806 0.320087
vn -0.000001 -0.827765 0.561075
vn -0.000001 -0.827765 0.561075
vn -0.000001 -0.827765 0.561075
vn -0.000001 -0.827765 0.561075
vn 0.455977 -0.826350 0.330500
vn 0.455977 -0.826350 0.330500
vn 0.455977 -0.826350 0.330501
vn 0.455977 -0.826350 0.330500
vn 0.455977 -0.826350 -0.330500
vn 0.455977 -0.826350 -0.330500
vn 0.455977 -0.826350 -0.330500
vn 0.455977 -0.826350 -0.330500
vn 0.000000 0.550135 -0.835076
vn 0.000000 0.550135 -0.835076
vn 0.000000 0.550135 -0.835076
vn 0.000000 0.550135 -0.835076
vn -0.656931 0.702388 -0.274030
vn -0.656931 0.702388 -0.274030
vn -0.656931 0.702388 -0.274030
vn -0.656931 0.702388 -0.274030
vn -0.706161 0.620623 0.340828
vn -0.706161 0.620623 0.340828
vn -0.706161 0.620623 0.340828
vn -0.706161 0.620623 0.340828
vn 0.026737 0.632966 0.773718
vn 0.026737 0.632966 0.773717
vn 0.026737 0.632966 0.773717
vn 0.026737 0.632966 0.773717
vn 0.622658 0.719272 0.308131
vn 0.622658 0.719272 0.308131
vn 0.622658 0.719272 0.308131
vn 0.622658 0.719272 0.308131
vn 0.710160 0.620956 -0.331793
vn 0.710160 0.620956 -0.331793
vn 0.710160 0.620956 -0.331793
vn 0.710160 0.620956 -0.331793
vn 0.000000 1.000000 0.000000
vn 0.000000 1.000000 0.000000
vn 0.000000 1.000000 0.000000
vn 0.000000 1.000000 0.000000
vn 0.000000 1.000000 0.000000
vn 0.000000 1.000000 0.000000
vn 0.000000 1.000000 0.000000
vn 0.000000 1.000000 0.000000
vn 0.000000 1.000000 -0.000000
vn 0.000000 1.000000 -0.000000
vn 0.000000 1.000000 -0.000000
vn 0.000000 1.000000 -0.000000
vn 0.078366 -0.041803 0.996048
vn 0.078366 -0.041803 0.996048
vn 0.078366 -0.041803 0.996048
vn 0.078366 -0.041803 0.996048
vn 0.883986 0.018686 -0.467139
vn 0.883986 0.018686 -0.467139
vn 0.883987 0.018686 -0.467139
vn 0.883986 0.018686 -0.467139
vn -0.867887 0.019855 -0.496365
vn -0.867887 0.019855 -0.496365
vn -0.867887 0.019855 -0.496365
vn -0.867887 0.019855 -0.496365
vn 0.063971 -0.778150 0.624812
vn 0.063971 -0.778150 0.624812
vn 0.063971 -0.778150 0.624812
vn 0.063971 -0.778150 0.624812
vn 0.886516 0.359278 -0.291563
vn 0.886516 0.359278 -0.291563
vn 0.886516 0.359278 -0.291563
vn 0.886516 0.359278 -0.291563
vn -0.866965 0.388697 -0.311907
vn -0.866965 0.388697 -0.311907
vn -0.866965 0.388697 -0.311907
vn -0.866965 0.388697 -0.311907
s off
f 2/68/1 1/70/2 3/73/3
f 4/65/4 2/67/5 3/74/6
f 5/60/7 4/64/8 3/75/9
f 6/55/10 5/59/11 3/76/12
f 7/50/13 6/54/14 3/77/15
f 1/71/16 7/49/17 3/3/18
f 20/26/19 21/27/20 22/4/21
f 21/27/22 23/28/23 22/4/24
f 23/28/25 24/29/26 22/4/27
f 33/40/28 34/83/29 35/81/30
f 25/32/31 26/33/32 22/4/33
f 26/33/34 20/26/35 22/4/36
f 2/69/37 9/63/38 8/45/39 1/6/40
f 4/66/41 10/58/42 9/62/43 2/5/44
f 5/61/45 11/52/46 10/57/47 4/7/48
f 6/56/49 12/48/50 11/14/51 5/8/52
f 7/51/53 13/44/54 12/47/55 6/9/56
f 1/72/57 8/46/58 13/43/59 7/10/60
f 8/11/61 9/12/62 15/19/63 14/18/64
f 9/12/65 10/13/66 16/20/67 15/19/68
f 10/13/69 11/53/70 17/21/71 16/20/72
f 11/17/73 12/2/74 18/23/75 17/22/76
f 12/15/77 13/16/78 19/25/79 18/24/80
f 13/16/81 8/11/82 14/18/83 19/25/84
f 14/18/85 15/19/86 21/27/87 20/26/88
f 15/19/89 16/20/90 23/28/91 21/27/92
f 16/20/93 17/21/94 24/29/95 23/28/96
f 17/22/97 18/23/98 25/31/99 24/30/100
f 18/24/101 19/25/102 26/33/103 25/32/104
f 19/25/105 14/18/106 20/26/107 26/33/108
f 24/30/109 25/31/110 28/95/111 27/97/112
f 25/31/113 22/1/114 29/93/115 28/95/116
f 22/1/117 24/30/118 27/97/119 29/93/120
f 27/34/121 28/96/122 31/88/123 30/90/124
f 28/35/125 29/94/126 32/85/127 31/87/128
f 29/36/129 27/98/130 30/91/131 32/84/132
f 30/37/133 31/89/134 34/82/135 33/78/136
f 31/38/137 32/86/138 35/80/139 34/41/140
f 32/39/141 30/92/142 33/79/143 35/42/144
