# This file uses centimeters as units for non-parametric coordinates.

v 0.069847 1.273987 -0.025314
v 0.098778 1.343834 -0.025314
v 0.069847 1.413681 -0.025314
v 0.000000 1.442613 -0.025314
v -0.069847 1.413681 -0.025312
v -0.098778 1.343834 -0.025314
v -0.069847 1.273987 -0.025312
v 0.069847 1.273987 0.025425
v 0.098777 1.343834 0.025425
v 0.069847 1.413681 0.025425
v -0.000000 1.442613 0.025425
v -0.069848 1.413681 0.025427
v -0.098778 1.343834 0.025425
v -0.069848 1.273987 0.025427
v 0.000000 1.343834 -0.025314
v -0.000000 1.343834 0.025425
v -0.049015 1.081494 -0.049015
v -0.049015 1.081494 0.049015
v -0.080147 1.197483 -0.064186
v -0.080147 1.197483 0.064186
v 0.080147 1.197483 -0.064186
v 0.080147 1.197483 0.064186
v 0.049015 1.081494 -0.049015
v 0.049015 1.081494 0.049015
v -0.080147 1.343633 -0.064186
v -0.080147 1.343633 0.064186
v 0.080147 1.343633 0.064186
v 0.080147 1.343633 -0.064186
v 0.023224 1.081494 0.023222
v 0.032843 1.081494 0.000000
v 0.023223 1.081494 -0.023222
v -0.000000 1.081494 -0.032843
v -0.023224 1.081494 -0.023222
v -0.032843 1.081494 0.000000
v -0.023224 1.081494 0.023222
v 0.000000 1.081494 0.032843
v -0.000000 0.086302 -0.032843
v -0.023226 0.086302 -0.023224
v -0.032845 0.086302 0.000000
v -0.023226 0.086302 0.023224
v 0.000000 0.086302 0.032843
v 0.023224 0.086302 0.023222
v 0.032842 0.086302 0.000000
v 0.023224 0.086302 -0.023224
v -0.000000 0.000000 -0.053270
v -0.037668 0.000000 -0.037668
v -0.037670 0.068706 -0.037668
v -0.000000 0.068706 -0.053270
v -0.053268 0.000000 0.000000
v -0.053273 0.068706 -0.000002
v -0.037668 0.000000 0.037668
v -0.037670 0.068706 0.037666
v -0.000000 0.000000 0.053270
v -0.000000 0.068706 0.053270
v 0.037668 0.000000 0.037670
v 0.037668 0.068706 0.037668
v 0.053270 0.000000 0.000000
v 0.053270 0.068706 0.000000
v 0.037668 0.000000 -0.037666
v 0.037668 0.068706 -0.037666
v 0.079710 1.262083 0.000057
v 0.112724 1.341792 0.000055
v 0.079710 1.421500 0.000057
v -0.000000 1.454517 0.000057
v -0.079710 1.421500 0.000055
v -0.112725 1.341792 0.000057
v -0.079710 1.262083 0.000055
v 0.075874 1.350010 0.026194
v 0.053652 1.403662 0.026196
v -0.000000 1.350010 0.026196
v -0.000000 1.425885 0.026196
v -0.053652 1.403662 0.026194
v -0.075875 1.350010 0.026196
v 0.065538 1.355178 0.013844
v 0.046343 1.401521 0.013844
v 0.000000 1.355178 0.013844
v 0.000000 1.420717 0.013844
v -0.046343 1.401521 0.013844
v -0.065538 1.355178 0.013844
v -0.058766 1.249337 0.064186
v 0.058765 1.249337 0.064186
v 0.058765 1.322173 0.064186
v -0.058766 1.322173 0.064186
v -0.058766 1.249337 0.050213
v 0.058765 1.249337 0.050213
v 0.058765 1.322173 0.050213
v -0.058766 1.322173 0.050213
v 0.020973 1.266073 0.050213
v 0.035448 1.266073 0.050211
v 0.035448 1.305437 0.050211
v 0.020973 1.305437 0.050213
v 0.020973 1.266073 0.038994
v 0.035448 1.266073 0.038992
v 0.035448 1.305437 0.038992
v 0.020973 1.305437 0.038994
v 0.032093 1.104005 0.051960
v -0.032093 1.104005 0.051960
v 0.052482 1.179955 0.061893
v -0.052483 1.179955 0.061893
v 0.026751 1.367270 0.013844
v 0.026751 1.389596 0.013844
v 0.000000 1.367270 0.013844
v 0.000000 1.389596 0.013844
v -0.026751 1.389596 0.013844
v -0.026751 1.367270 0.013844
vt 0.123541 0.277139
vt 0.123541 0.277139
vt 0.132517 0.302694
vt 0.132517 0.302694
vt 0.132517 0.302694
vt 0.132517 0.302694
vt 0.123541 0.277139
vt 0.123541 0.277139
vt 0.123541 0.277139
vt 0.132517 0.302694
vt 0.132517 0.302694
vt 0.132517 0.302694
vt 0.132517 0.302694
vt 0.123541 0.277139
vt 0.123541 0.277139
vt 0.132517 0.302694
vt 0.132517 0.302694
vt 0.132517 0.302694
vt 0.132517 0.302694
vt 0.123541 0.277139
vt 0.123541 0.277139
vt 0.123541 0.277139
vt 0.132517 0.302694
vt 0.132517 0.302694
vt 0.132517 0.302694
vt 0.132517 0.302694
vt 0.132517 0.302694
vt 0.123541 0.277139
vt 0.123541 0.277139
vt 0.123541 0.277139
vt 0.123541 0.277139
vt 0.123541 0.277139
vt 0.123541 0.277139
vt 0.123541 0.277139
vt 0.123541 0.277139
vt 0.123541 0.277139
vt 0.123541 0.277139
vt 0.123541 0.277139
vt 0.123541 0.277139
vt 0.123541 0.277139
vt 0.123541 0.277139
vt 0.123541 0.277139
vt 0.123541 0.277139
vt 0.123541 0.277139
vt 0.123541 0.277139
vt 0.123541 0.277139
vt 0.123541 0.277139
vt 0.123541 0.277139
vt 0.123541 0.277139
vt 0.123541 0.277139
vt 0.123541 0.277139
vt 0.123541 0.277139
vt 0.123541 0.277139
vt 0.123541 0.277139
vt 0.123541 0.277139
vt 0.123541 0.277139
vt 0.123541 0.277139
vt 0.123541 0.277139
vt 0.123541 0.277139
vt 0.123541 0.277139
vt 0.123541 0.277139
vt 0.123541 0.277139
vt 0.123541 0.277139
vt 0.123541 0.277139
vt 0.123541 0.277139
vt 0.123541 0.277139
vt 0.123541 0.277139
vt 0.123541 0.277139
vt 0.123541 0.277139
vt 0.123541 0.277139
vt 0.123541 0.277139
vt 0.123541 0.277139
vt 0.123541 0.277139
vt 0.123541 0.277139
vt 0.123541 0.277139
vt 0.123541 0.277139
vt 0.123541 0.277139
vt 0.123541 0.277139
vt 0.123541 0.277139
vt 0.123541 0.277139
vt 0.123541 0.277139
vt 0.123541 0.277139
vt 0.123541 0.277139
vt 0.123541 0.277139
vt 0.123541 0.277139
vt 0.132517 0.302694
vt 0.132517 0.302694
vt 0.132517 0.302694
vt 0.132517 0.302694
vt 0.123541 0.277139
vt 0.123541 0.277139
vt 0.132517 0.301386
vt 0.132517 0.301386
vt 0.132517 0.301386
vt 0.132517 0.301386
vt 0.132517 0.301386
vt 0.132517 0.301386
vt 0.123541 0.277139
vt 0.123541 0.277139
vt 0.123541 0.277139
vt 0.123541 0.277139
vt 0.123541 0.277139
vt 0.123541 0.277139
vt 0.123541 0.277139
vt 0.123541 0.277139
vt 0.123541 0.277139
vt 0.123541 0.277139
vt 0.123541 0.277139
vt 0.123541 0.277139
vt 0.123541 0.277139
vt 0.123541 0.277139
vt 0.091764 0.351829
vt 0.091764 0.351829
vt 0.091764 0.351829
vt 0.091764 0.351829
vt 0.091764 0.351829
vt 0.091764 0.351829
vt 0.091764 0.351829
vt 0.091764 0.351829
vt 0.123541 0.277139
vt 0.123541 0.277139
vt 0.123541 0.277139
vt 0.123541 0.277139
vt 0.123541 0.277139
vt 0.123541 0.277139
vt 0.123541 0.277139
vt 0.123541 0.277139
vt 0.123541 0.277139
vt 0.123541 0.277139
vt 0.113537 0.227919
vt 0.113537 0.227919
vt 0.113537 0.227919
vt 0.113537 0.227919
vt 0.113537 0.227919
vt 0.113537 0.227919
vt 0.113537 0.227919
vt 0.113537 0.227919
vt 0.113537 0.227919
vt 0.113537 0.227919
vt 0.113537 0.227919
vt 0.113537 0.227919
vt 0.113537 0.227919
vt 0.113537 0.227919
vt 0.132517 0.302694
vt 0.132517 0.302694
vt 0.132517 0.302694
vt 0.132517 0.302694
vt 0.132517 0.302694
vt 0.132517 0.302694
vt 0.123541 0.277139
vt 0.132517 0.302694
vt 0.132517 0.302694
vt 0.132517 0.302694
vt 0.132517 0.302694
vt 0.132517 0.302694
vt 0.132517 0.302694
vt 0.132517 0.302694
vt 0.132517 0.302694
vt 0.132517 0.302694
vt 0.132517 0.302694
vt 0.132517 0.302694
vt 0.132517 0.302694
vt 0.132517 0.302694
vt 0.132517 0.302694
vt 0.123541 0.277139
vt 0.132517 0.302694
vt 0.132517 0.302694
vt 0.123541 0.277139
vt 0.123541 0.277139
vt 0.132517 0.302694
vt 0.132517 0.302694
vt 0.132517 0.302694
vt 0.132517 0.302694
vt 0.132517 0.302694
vt 0.132517 0.302694
vt 0.132517 0.302694
vt 0.132517 0.302694
vt 0.132517 0.302694
vt 0.132517 0.302694
vt 0.132517 0.302694
vt 0.132517 0.302694
vt 0.123541 0.277139
vt 0.132517 0.302694
vt 0.132517 0.302694
vt 0.132517 0.302694
vt 0.132517 0.302694
vt 0.132517 0.302694
vt 0.123541 0.277139
vt 0.123541 0.277139
vt 0.123541 0.277139
vt 0.132517 0.302694
vt 0.132517 0.302694
vt 0.132517 0.302694
vt 0.132517 0.302694
vt 0.132517 0.302694
vt 0.132517 0.302694
vt 0.132517 0.302694
vt 0.132517 0.302694
vt 0.132517 0.301386
vt 0.132517 0.301386
vt 0.132517 0.301386
vt 0.132517 0.301386
vt 0.132517 0.301386
vt 0.132517 0.301386
vt 0.132517 0.301386
vt 0.132517 0.301386
vt 0.132517 0.301386
vt 0.132517 0.301386
vt 0.132517 0.301386
vt 0.132517 0.301386
vt 0.132517 0.301386
vt 0.132517 0.301386
vt 0.132517 0.301386
vt 0.132517 0.301386
vt 0.132517 0.301386
vt 0.132517 0.301386
vt 0.091764 0.351829
vt 0.091764 0.351829
vt 0.091764 0.351829
vt 0.091764 0.351829
vn 0.813363 -0.336883 0.474289
vn 0.813363 -0.336883 0.474289
vn 0.813363 -0.336883 0.474289
vn 0.813363 -0.336883 0.474289
vn 0.833841 0.345366 0.430618
vn 0.833841 0.345366 0.430618
vn 0.833841 0.345366 0.430618
vn 0.833841 0.345366 0.430618
vn 0.351103 0.847645 0.397776
vn 0.351103 0.847644 0.397776
vn 0.351103 0.847645 0.397776
vn 0.351103 0.847645 0.397776
vn -0.351107 0.847655 0.397749
vn -0.351107 0.847655 0.397749
vn -0.351107 0.847655 0.397749
vn -0.351107 0.847655 0.397749
vn -0.833845 0.345373 0.430604
vn -0.833845 0.345373 0.430604
vn -0.833845 0.345373 0.430604
vn -0.833845 0.345373 0.430604
vn -0.813367 -0.336891 0.474276
vn -0.813367 -0.336891 0.474276
vn -0.813367 -0.336891 0.474276
vn -0.813367 -0.336891 0.474277
vn 0.000000 0.000000 -1.000000
vn 0.000000 0.000000 -1.000000
vn 0.000000 0.000000 -1.000000
vn 0.000000 0.000000 -1.000000
vn 0.000000 0.000000 -1.000000
vn 0.000000 0.000000 -1.000000
vn 0.000000 0.000000 -1.000000
vn 0.000000 0.000000 -1.000000
vn 0.000000 0.000000 -1.000000
vn -0.000027 0.000000 -1.000000
vn -0.000027 0.000000 -1.000000
vn -0.000027 0.000000 -1.000000
vn 0.000000 0.000027 -1.000000
vn 0.000000 0.000027 -1.000000
vn 0.000000 0.000027 -1.000000
vn 0.000000 -0.000027 -1.000000
vn 0.000000 -0.000027 -1.000000
vn 0.000000 -0.000027 -1.000000
vn 0.000000 0.000000 1.000000
vn 0.000000 0.000000 1.000000
vn 0.000000 0.000000 1.000000
vn 0.000000 0.000000 1.000000
vn 0.000000 0.000000 1.000000
vn 0.000000 0.000000 1.000000
vn 0.000000 0.000000 1.000000
vn 0.000000 0.000000 1.000000
vn 0.000000 0.000000 1.000000
vn 0.000000 0.000000 1.000000
vn 0.000000 0.000000 1.000000
vn 0.000000 0.000027 1.000000
vn 0.000000 0.000027 1.000000
vn 0.000000 0.000027 1.000000
vn -0.965816 -0.259228 -0.000002
vn -0.965816 -0.259228 -0.000002
vn -0.965816 -0.259228 -0.000002
vn -0.965816 -0.259228 -0.000002
vn 0.000000 1.000000 0.000000
vn 0.000000 1.000000 0.000000
vn 0.000000 1.000000 0.000000
vn 0.000000 1.000000 0.000000
vn 0.965816 -0.259228 0.000002
vn 0.965816 -0.259228 0.000002
vn 0.965816 -0.259228 0.000002
vn 0.965816 -0.259228 0.000002
vn 0.000000 -1.000000 0.000000
vn 0.000000 -1.000000 0.000000
vn 0.000000 -1.000000 0.000000
vn 0.000000 -1.000000 0.000000
vn -0.000004 -0.129694 0.991554
vn 0.000004 -0.129694 0.991554
vn 0.000004 -0.129689 0.991555
vn -0.000004 -0.129689 0.991555
vn 0.000000 -0.129693 -0.991554
vn 0.000000 -0.129693 -0.991554
vn 0.000000 -0.129693 -0.991554
vn 0.000000 -0.129693 -0.991554
vn -1.000000 0.000000 -0.000002
vn -1.000000 0.000000 -0.000002
vn -1.000000 0.000000 -0.000002
vn -1.000000 0.000000 -0.000002
vn 0.000132 0.000000 1.000000
vn 0.000132 0.000000 1.000000
vn 0.000132 0.000000 1.000000
vn 0.000132 0.000000 1.000000
vn 1.000000 0.000000 0.000002
vn 1.000000 0.000000 0.000002
vn 1.000000 0.000000 0.000002
vn 1.000000 0.000000 0.000002
vn 0.000000 0.000000 -1.000000
vn 0.000000 0.000000 -1.000000
vn 0.000000 0.000000 -1.000000
vn 0.000000 0.000000 -1.000000
vn 0.923883 -0.000000 0.382676
vn 0.923883 -0.000000 0.382676
vn 0.923883 -0.000000 0.382676
vn 0.923883 -0.000000 0.382676
vn 0.923883 0.000000 -0.382675
vn 0.923883 0.000000 -0.382675
vn 0.923883 0.000000 -0.382675
vn 0.923883 0.000000 -0.382675
vn 0.382687 0.000001 -0.923878
vn 0.382687 0.000001 -0.923878
vn 0.382687 0.000001 -0.923878
vn 0.382687 0.000001 -0.923878
vn -0.382671 0.000001 -0.923885
vn -0.382671 0.000001 -0.923885
vn -0.382671 0.000001 -0.923885
vn -0.382671 0.000001 -0.923885
vn -0.923890 0.000002 -0.382659
vn -0.923890 0.000002 -0.382659
vn -0.923890 0.000002 -0.382659
vn -0.923890 0.000002 -0.382659
vn -0.923885 0.000002 0.382671
vn -0.923885 0.000002 0.382671
vn -0.923885 0.000002 0.382671
vn -0.923885 0.000002 0.382671
vn -0.382669 0.000001 0.923886
vn -0.382669 0.000001 0.923886
vn -0.382669 0.000001 0.923886
vn -0.382669 0.000001 0.923886
vn 0.382722 0.000000 0.923864
vn 0.382722 0.000000 0.923864
vn 0.382722 0.000000 0.923864
vn 0.382722 0.000000 0.923864
vn -0.382664 -0.000005 -0.923888
vn -0.382664 -0.000005 -0.923888
vn -0.382664 -0.000005 -0.923888
vn -0.382664 -0.000005 -0.923888
vn -0.923888 -0.000045 -0.382662
vn -0.923888 -0.000045 -0.382662
vn -0.923888 -0.000045 -0.382662
vn -0.923888 -0.000045 -0.382662
vn -0.923893 -0.000031 0.382651
vn -0.923893 -0.000031 0.382651
vn -0.923893 -0.000031 0.382651
vn -0.923893 -0.000031 0.382651
vn -0.382683 0.000008 0.923880
vn -0.382683 0.000008 0.923880
vn -0.382683 0.000008 0.923880
vn -0.382683 0.000008 0.923880
vn 0.382651 0.000013 0.923893
vn 0.382651 0.000013 0.923893
vn 0.382651 0.000013 0.923893
vn 0.382651 0.000013 0.923893
vn 0.923888 0.000009 0.382663
vn 0.923888 0.000009 0.382663
vn 0.923888 0.000009 0.382663
vn 0.923888 0.000009 0.382663
vn 0.923879 0.000002 -0.382685
vn 0.923879 0.000002 -0.382685
vn 0.923879 0.000002 -0.382685
vn 0.923879 0.000002 -0.382685
vn 0.382710 -0.000001 -0.923868
vn 0.382710 -0.000001 -0.923869
vn 0.382710 -0.000001 -0.923869
vn 0.382710 -0.000001 -0.923868
vn -0.260940 0.731410 -0.630039
vn -0.260940 0.731410 -0.630039
vn -0.260940 0.731410 -0.630039
vn -0.260940 0.731410 -0.630039
vn -0.630021 0.731418 -0.260962
vn -0.630022 0.731418 -0.260961
vn -0.630022 0.731418 -0.260962
vn -0.630021 0.731418 -0.260962
vn -0.630040 0.731402 0.260961
vn -0.630040 0.731402 0.260961
vn -0.630040 0.731402 0.260961
vn -0.630040 0.731402 0.260961
vn -0.260960 0.731398 0.630045
vn -0.260960 0.731398 0.630045
vn -0.260960 0.731398 0.630045
vn -0.260960 0.731398 0.630045
vn 0.260965 0.731425 0.630012
vn 0.260965 0.731425 0.630012
vn 0.260965 0.731425 0.630012
vn 0.260965 0.731425 0.630012
vn 0.630029 0.731414 0.260955
vn 0.630029 0.731414 0.260955
vn 0.630029 0.731414 0.260955
vn 0.630029 0.731414 0.260955
vn 0.630038 0.731405 -0.260958
vn 0.630038 0.731405 -0.260958
vn 0.630038 0.731405 -0.260958
vn 0.630038 0.731405 -0.260958
vn 0.260975 0.731396 -0.630041
vn 0.260975 0.731396 -0.630041
vn 0.260975 0.731396 -0.630041
vn 0.260975 0.731396 -0.630041
vn 0.813378 -0.336902 -0.474250
vn 0.813378 -0.336902 -0.474250
vn 0.813378 -0.336902 -0.474250
vn 0.813378 -0.336902 -0.474250
vn 0.833854 0.345383 -0.430578
vn 0.833855 0.345383 -0.430578
vn 0.833855 0.345383 -0.430578
vn 0.833855 0.345383 -0.430578
vn 0.351112 0.847667 -0.397719
vn 0.351112 0.847667 -0.397719
vn 0.351112 0.847667 -0.397719
vn 0.351112 0.847667 -0.397719
vn -0.351106 0.847652 -0.397757
vn -0.351106 0.847652 -0.397757
vn -0.351106 0.847652 -0.397757
vn -0.351106 0.847652 -0.397757
vn -0.833839 0.345371 -0.430617
vn -0.833839 0.345371 -0.430617
vn -0.833839 0.345371 -0.430617
vn -0.833839 0.345371 -0.430617
vn -0.813362 -0.336889 -0.474287
vn -0.813362 -0.336889 -0.474287
vn -0.813362 -0.336889 -0.474287
vn -0.813362 -0.336889 -0.474287
vn 0.037798 0.015641 0.999163
vn 0.037798 0.015641 0.999163
vn 0.037798 0.015641 0.999163
vn 0.037798 0.015641 0.999163
vn 0.000011 -0.123631 0.992328
vn 0.000011 -0.123631 0.992328
vn 0.000011 -0.123631 0.992328
vn 0.000011 -0.123631 0.992328
vn 0.019058 0.046010 0.998759
vn 0.019058 0.046010 0.998759
vn 0.019058 0.046010 0.998759
vn 0.019058 0.046010 0.998759
vn -0.019011 0.045895 0.998765
vn -0.019011 0.045895 0.998765
vn -0.019011 0.045895 0.998765
vn -0.019011 0.045895 0.998765
vn -0.037749 0.015636 0.999165
vn -0.037749 0.015636 0.999165
vn -0.037749 0.015636 0.999165
vn -0.037749 0.015636 0.999165
vn 0.000000 -0.123803 0.992307
vn 0.000000 -0.123803 0.992307
vn 0.000000 -0.123803 0.992307
vn 0.000000 -0.123803 0.992307
vn -0.787660 -0.326261 0.522634
vn -0.787660 -0.326261 0.522634
vn -0.787660 -0.326261 0.522634
vn -0.787660 -0.326261 0.522634
vn 0.000005 0.922498 0.386001
vn 0.000005 0.922498 0.386001
vn 0.000005 0.922498 0.386001
vn 0.000005 0.922498 0.386001
vn -0.356945 -0.861742 0.360544
vn -0.356945 -0.861742 0.360544
vn -0.356945 -0.861742 0.360544
vn -0.356945 -0.861742 0.360544
vn 0.356933 -0.861729 0.360584
vn 0.356933 -0.861729 0.360584
vn 0.356933 -0.861730 0.360584
vn 0.356933 -0.861729 0.360584
vn 0.787652 -0.326238 0.522660
vn 0.787651 -0.326238 0.522660
vn 0.787652 -0.326238 0.522660
vn 0.787652 -0.326238 0.522660
vn 0.000000 0.922507 0.385981
vn 0.000000 0.922507 0.385981
vn 0.000000 0.922507 0.385981
vn 0.000000 0.922507 0.385981
vn -0.000002 -0.033748 0.999430
vn 0.000002 -0.033748 0.999430
vn 0.000000 0.000000 1.000000
vn 0.000000 0.000000 1.000000
vn -0.000000 0.000000 1.000000
vn -0.000000 0.000000 1.000000
vn -0.000000 0.000000 1.000000
vn -0.000000 0.000000 1.000000
vn 0.000000 0.000000 1.000000
vn 0.000000 0.000000 1.000000
vn 0.000000 0.000000 1.000000
vn 0.000000 0.000000 1.000000
vn -0.000000 0.000000 1.000000
vn -0.000000 0.000000 1.000000
vn -0.000000 0.000000 1.000000
vn -0.000000 0.000000 1.000000
vn 0.000000 1.000000 0.000000
vn 0.000000 1.000000 0.000000
vn 0.000000 1.000000 0.000000
vn 0.000000 1.000000 0.000000
vn -1.000000 0.000000 0.000000
vn -1.000000 0.000000 0.000000
vn -1.000000 0.000000 0.000000
vn -1.000000 0.000000 0.000000
vn 0.000000 -1.000000 0.000000
vn 0.000000 -1.000000 0.000000
vn 0.000000 -1.000000 0.000000
vn 0.000000 -1.000000 0.000000
vn 1.000000 0.000000 0.000000
vn 1.000000 0.000000 0.000000
vn 1.000000 0.000000 0.000000
vn 1.000000 0.000000 0.000000
vn 0.000014 0.000033 1.000000
vn 0.000014 0.000033 1.000000
vn 0.000014 0.000033 1.000000
vn 0.000014 0.000033 1.000000
vn -0.000082 0.000000 1.000000
vn -0.000082 0.000000 1.000000
vn -0.000082 0.000000 1.000000
vn -0.000082 0.000000 1.000000
vn 0.000014 -0.000033 1.000000
vn 0.000014 -0.000033 1.000000
vn 0.000014 -0.000033 1.000000
vn 0.000014 -0.000033 1.000000
vn 0.000000 0.000000 1.000000
vn 0.000000 0.000000 1.000000
vn 0.000000 0.000000 1.000000
vn 0.000000 0.000000 1.000000
vn 0.000000 1.000000 0.000000
vn 0.000000 1.000000 0.000000
vn 0.000000 1.000000 0.000000
vn 0.000000 1.000000 0.000000
vn -1.000000 0.000000 0.000000
vn -1.000000 0.000000 0.000000
vn -1.000000 0.000000 0.000000
vn -1.000000 0.000000 0.000000
vn 0.000000 -1.000000 0.000000
vn 0.000000 -1.000000 0.000000
vn 0.000000 -1.000000 0.000000
vn 0.000000 -1.000000 0.000000
vn 1.000000 0.000000 0.000000
vn 1.000000 0.000000 0.000000
vn 1.000000 0.000000 0.000000
vn 1.000000 0.000000 0.000000
vn -0.000009 -0.129706 0.991552
vn 0.000008 -0.129706 0.991552
vn 0.000004 -0.129694 0.991554
vn -0.000004 -0.129694 0.991554
vn 0.000008 -0.129706 0.991552
vn 0.000002 -0.033748 0.999430
vn 0.000004 -0.129689 0.991555
vn 0.000004 -0.129694 0.991554
vn 0.000002 -0.033748 0.999430
vn -0.000002 -0.033748 0.999430
vn -0.000004 -0.129689 0.991555
vn 0.000004 -0.129689 0.991555
vn -0.000002 -0.033748 0.999430
vn -0.000009 -0.129706 0.991552
vn -0.000004 -0.129694 0.991554
vn -0.000004 -0.129689 0.991555
vn 0.000000 0.000000 1.000000
vn 0.000000 0.000000 1.000000
vn 0.000000 0.000000 1.000000
vn 0.000000 0.000000 1.000000
vn 0.000000 0.000000 1.000000
vn 0.000000 0.000000 1.000000
vn 0.000000 0.000000 1.000000
vn 0.000000 0.000000 1.000000
vn -0.000000 0.000000 1.000000
vn -0.000000 0.000000 1.000000
vn -0.000000 0.000000 1.000000
vn -0.000000 0.000000 1.000000
vn 0.000000 0.000000 1.000000
vn 0.000000 0.000000 1.000000
vn 0.000000 0.000000 1.000000
vn 0.000000 0.000000 1.000000
vn 0.000000 0.000000 1.000000
vn 0.000000 0.000000 1.000000
vn 0.000000 0.000000 1.000000
vn 0.000000 0.000000 1.000000
vn 0.000000 0.000000 1.000000
vn 0.000000 0.000000 1.000000
vn 0.000000 0.000000 1.000000
vn 0.000000 0.000000 1.000000
s off
f 61/85/1 62/182/2 9/168/3 8/15/4
f 62/183/5 63/180/6 10/166/7 9/16/8
f 63/181/9 64/177/10 11/159/11 10/17/12
f 64/178/13 65/172/14 12/155/15 11/18/16
f 65/173/17 66/175/18 13/151/19 12/19/20
f 66/90/21 67/91/22 14/21/23 13/20/24
f 2/2/25 1/1/26 15/29/27
f 3/3/28 2/198/29 15/184/30
f 4/4/31 3/196/32 15/185/33
f 5/5/34 4/194/35 15/186/36
f 6/6/37 5/192/38 15/187/39
f 7/7/40 6/190/41 15/188/42
f 8/28/43 9/169/44 16/165/45
f 102/130/46 100/131/47 101/132/48 103/133/49
f 102/130/50 103/133/51 104/134/52 105/135/53
f 13/150/54 14/22/55 16/30/56
f 17/31/57 18/32/58 20/33/59 19/34/60
f 25/35/61 26/36/62 27/37/63 28/38/64
f 21/39/65 22/40/66 24/41/67 23/42/68
f 23/42/69 24/41/70 18/43/71 17/44/72
f 97/136/73 96/137/74 98/138/75 99/139/76
f 23/47/77 17/31/78 19/34/79 21/48/80
f 19/34/81 20/33/82 26/36/83 25/35/84
f 92/140/85 93/141/86 94/142/87 95/143/88
f 22/40/89 21/39/90 28/38/91 27/37/92
f 21/39/93 19/34/94 25/35/95 28/38/96
f 42/64/97 43/65/98 30/49/99 29/50/100
f 43/65/101 44/66/102 31/51/103 30/49/104
f 44/66/105 37/58/106 32/52/107 31/51/108
f 37/58/109 38/59/110 33/53/111 32/52/112
f 38/59/113 39/60/114 34/54/115 33/53/116
f 39/60/117 40/61/118 35/55/119 34/54/120
f 40/61/121 41/62/122 36/56/123 35/55/124
f 41/62/125 42/63/126 29/57/127 36/56/128
f 45/67/129 46/68/130 47/69/131 48/70/132
f 46/68/133 49/71/134 50/72/135 47/69/136
f 49/71/137 51/73/138 52/74/139 50/72/140
f 51/73/141 53/75/142 54/76/143 52/74/144
f 53/75/145 55/77/146 56/78/147 54/76/148
f 55/79/149 57/80/150 58/81/151 56/82/152
f 57/80/153 59/83/154 60/84/155 58/81/156
f 59/83/157 45/67/158 48/70/159 60/84/160
f 38/59/161 37/58/162 48/70/163 47/69/164
f 39/60/165 38/59/166 47/69/167 50/72/168
f 40/61/169 39/60/170 50/72/171 52/74/172
f 41/62/173 40/61/174 52/74/175 54/76/176
f 42/63/177 41/62/178 54/76/179 56/78/180
f 43/65/181 42/64/182 56/82/183 58/81/184
f 44/66/185 43/65/186 58/81/187 60/84/188
f 37/58/189 44/66/190 60/84/191 48/70/192
f 1/8/193 2/9/194 62/182/195 61/85/196
f 2/197/197 3/10/198 63/179/199 62/86/200
f 3/195/201 4/11/202 64/176/203 63/87/204
f 4/193/205 5/12/206 65/171/207 64/88/208
f 5/191/209 6/13/210 66/174/211 65/89/212
f 6/189/213 7/14/214 67/91/215 66/90/216
f 9/27/217 10/167/218 69/158/219 68/161/220
f 16/164/221 9/170/222 68/162/223 70/146/224
f 10/26/225 11/160/226 71/154/227 69/157/228
f 11/25/229 12/156/230 72/149/231 71/153/232
f 12/24/233 13/152/234 73/145/235 72/148/236
f 13/23/237 16/163/238 70/147/239 73/144/240
f 68/92/241 69/215/242 75/210/243 74/212/244
f 70/94/245 68/216/246 74/213/247 76/201/248
f 69/93/249 71/211/250 77/207/251 75/209/252
f 71/95/253 72/208/254 78/204/255 77/206/256
f 72/96/257 73/205/258 79/200/259 78/203/260
f 73/97/261 70/214/262 76/202/263 79/199/264
f 20/33/265 22/40/266 81/105/267 80/104/268
f 22/40/269 27/37/270 82/106/271 81/105/272
f 27/37/273 26/36/274 83/107/275 82/106/276
f 26/36/277 20/33/278 80/104/279 83/107/280
f 80/104/281 81/105/282 85/109/283 84/108/284
f 81/105/285 82/106/286 86/110/287 85/109/288
f 82/106/289 83/107/290 87/111/291 86/110/292
f 83/107/293 80/104/294 84/108/295 87/111/296
f 84/112/297 85/113/298 89/114/299 88/115/300
f 85/113/301 86/116/302 90/117/303 89/114/304
f 86/116/305 87/118/306 91/119/307 90/117/308
f 87/118/309 84/112/310 88/115/311 91/119/312
f 88/115/313 89/114/314 93/217/315 92/218/316
f 89/114/317 90/117/318 94/219/319 93/217/320
f 90/117/321 91/119/322 95/220/323 94/219/324
f 91/119/325 88/115/326 92/218/327 95/220/328
f 18/32/329 24/45/330 96/121/331 97/120/332
f 24/45/333 22/46/334 98/122/335 96/121/336
f 22/46/337 20/33/338 99/123/339 98/122/340
f 20/33/341 18/32/342 97/120/343 99/123/344
f 74/98/345 75/99/346 101/125/347 100/124/348
f 76/100/349 74/98/350 100/124/351 102/126/352
f 75/99/353 77/101/354 103/127/355 101/125/356
f 77/101/357 78/102/358 104/128/359 103/127/360
f 78/102/361 79/103/362 105/129/363 104/128/364
f 79/103/365 76/100/366 102/126/367 105/129/368
