# This file uses centimeters as units for non-parametric coordinates.

v -0.500001 0.000000 0.031481
v 0.499999 0.000000 0.031481
v -0.500001 0.436077 0.031481
v 0.499999 0.436077 0.031481
v -0.500001 0.436077 -0.031481
v 0.499999 0.436077 -0.031481
v -0.500001 0.000000 -0.031481
v 0.499999 0.000000 -0.031481
vt 0.173513 0.591972
vt 0.173513 0.591972
vt 0.173513 0.591972
vt 0.173513 0.591972
vt 0.173513 0.591972
vt 0.173513 0.591972
vt 0.173513 0.591972
vt 0.173513 0.591972
vt 0.111091 0.572146
vt 0.302141 0.572146
vt 0.302141 0.642781
vt 0.111091 0.642781
vn 0.000000 0.000000 1.000000
vn 0.000000 0.000000 1.000000
vn 0.000000 0.000000 1.000000
vn 0.000000 0.000000 1.000000
vn 0.000000 1.000000 0.000000
vn 0.000000 1.000000 0.000000
vn 0.000000 1.000000 0.000000
vn 0.000000 1.000000 0.000000
vn 0.000000 0.000000 -1.000000
vn 0.000000 0.000000 -1.000000
vn 0.000000 0.000000 -1.000000
vn 0.000000 0.000000 -1.000000
vn 0.000000 -1.000000 0.000000
vn 0.000000 -1.000000 0.000000
vn 0.000000 -1.000000 0.000000
vn 0.000000 -1.000000 0.000000
vn 1.000000 0.000000 0.000000
vn 1.000000 0.000000 0.000000
vn 1.000000 0.000000 0.000000
vn 1.000000 0.000000 0.000000
vn -1.000000 0.000000 0.000000
vn -1.000000 0.000000 0.000000
vn -1.000000 0.000000 0.000000
vn -1.000000 0.000000 0.000000
s off
f 1/9/1 2/10/2 4/11/3 3/12/4
f 3/1/5 4/2/6 6/3/7 5/4/8
f 5/4/9 6/3/10 8/5/11 7/6/12
f 7/6/13 8/5/14 2/7/15 1/8/16
f 2/7/17 8/5/18 6/3/19 4/2/20
f 7/6/21 1/8/22 3/1/23 5/4/24
