# This file uses centimeters as units for non-parametric coordinates.

v -0.418444 0.000000 0.081916
v 0.418444 0.000000 0.081916
v -0.418444 1.189852 0.081916
v 0.418444 1.189852 0.081916
v -0.418444 1.189852 -0.047982
v 0.418444 1.189852 -0.047982
v -0.418444 0.000000 -0.047982
v 0.418444 0.000000 -0.047982
v -0.364577 0.073051 0.081916
v 0.364577 0.073051 0.081916
v 0.364577 1.116799 0.081916
v -0.364577 1.116799 0.081916
v -0.324589 0.112195 0.022569
v 0.324589 0.112195 0.022569
v 0.324589 1.077657 0.022569
v -0.324589 1.077657 0.022569
v -0.227687 1.173148 0.081916
v 0.227687 1.173148 0.081916
v -0.266435 1.125477 0.081916
v 0.266435 1.125477 0.081916
v -0.209979 1.171294 0.152443
v 0.209979 1.171294 0.152443
v -0.245713 1.127330 0.152443
v 0.245713 1.127330 0.152443
v -0.229326 1.125477 0.098292
v 0.229326 1.125477 0.098292
v 0.211491 1.127330 0.136068
v -0.211491 1.127330 0.136068
v -0.217487 1.105255 0.104171
v 0.217487 1.105255 0.104171
v 0.200572 1.106588 0.130188
v -0.200572 1.106588 0.130188
v 0.402538 0.632206 0.081916
v 0.364577 0.594925 0.081916
v 0.324589 0.594925 0.022569
v -0.324589 0.594925 0.022569
v -0.364577 0.594925 0.081916
v -0.382214 0.594925 0.081916
v -0.418444 0.594925 -0.047982
v 0.418444 0.594925 -0.047982
v 0.073121 0.112195 0.022569
v -0.280871 0.529926 0.022569
v -0.297363 0.415994 0.022569
v -0.269868 0.190832 0.022569
v -0.231653 0.165752 0.022569
v -0.200821 0.211742 0.022569
v -0.194729 0.353749 0.022569
v -0.157624 0.304265 0.022569
v -0.146079 0.209751 0.022569
v -0.117551 0.175161 0.022569
v -0.074352 0.218401 0.022569
v -0.051724 0.233754 0.022569
v -0.028930 0.205491 0.022569
v 0.324589 0.370879 0.022569
v 0.277434 0.345831 0.022569
v 0.268714 0.231555 0.022569
v 0.197892 0.236740 0.022569
v 0.158135 0.169443 0.022569
v 0.109568 1.077657 0.022569
v 0.120113 1.002704 0.022569
v 0.175008 0.978462 0.022569
v 0.183927 0.886744 0.022569
v 0.222539 0.851853 0.022569
v 0.267374 0.892862 0.022569
v 0.288323 0.847128 0.022569
v 0.297819 0.752298 0.022569
v 0.280799 0.680138 0.022569
v -0.208334 1.077657 0.022569
v -0.324589 0.747636 0.022569
v -0.287740 1.046128 0.022569
v -0.269238 0.980466 0.022569
v -0.277846 0.887865 0.022569
v -0.304607 0.864596 0.022569
v -0.304879 0.767164 0.022569
v -0.418444 0.754426 0.081916
v -0.418444 0.594925 0.045600
v -0.418444 0.309269 0.081916
vt 0.102064 0.232189
vt 0.102064 0.232189
vt 0.102064 0.232189
vt 0.102064 0.232189
vt 0.102064 0.232189
vt 0.102064 0.232189
vt 0.102064 0.232189
vt 0.102064 0.232189
vt 0.102064 0.232189
vt 0.102064 0.232189
vt 0.102064 0.232189
vt 0.102064 0.232189
vt 0.102064 0.232189
vt 0.102064 0.232189
vt 0.102064 0.232189
vt 0.102064 0.232189
vt 0.102064 0.232189
vt 0.102064 0.232189
vt 0.102064 0.232189
vt 0.102064 0.232189
vt 0.102064 0.232189
vt 0.102064 0.232189
vt 0.102064 0.232189
vt 0.102064 0.232189
vt 0.102064 0.232189
vt 0.102064 0.232189
vt 0.102064 0.232189
vt 0.102064 0.232189
vt 0.102064 0.232189
vt 0.102064 0.232189
vt 0.102064 0.232189
vt 0.102064 0.232189
vt 0.102064 0.232189
vt 0.102064 0.232189
vt 0.315654 0.034121
vt 0.315654 0.034121
vt 0.315654 0.034121
vt 0.315654 0.034121
vt 0.315654 0.034121
vt 0.315654 0.034121
vt 0.315654 0.034121
vt 0.315654 0.034121
vt 0.102064 0.232189
vt 0.102064 0.232189
vt 0.102064 0.232189
vt 0.102064 0.232189
vt 0.102064 0.232189
vt 0.102064 0.232189
vt 0.102064 0.232189
vt 0.102064 0.232189
vt 0.102064 0.232189
vt 0.102064 0.232189
vt 0.102064 0.232189
vt 0.102064 0.232189
vt 0.102064 0.232189
vt 0.102064 0.232189
vt 0.102064 0.232189
vt 0.102064 0.232189
vt 0.102064 0.232189
vt 0.102064 0.232189
vt 0.102064 0.232189
vt 0.102064 0.232189
vt 0.102064 0.232189
vt 0.102064 0.232189
vt 0.102064 0.232189
vt 0.102064 0.232189
vt 0.102064 0.232189
vt 0.102064 0.232189
vt 0.102064 0.232189
vt 0.102064 0.232189
vt 0.102064 0.232189
vt 0.102064 0.232189
vt 0.102064 0.232189
vt 0.102064 0.232189
vt 0.102064 0.232189
vt 0.102064 0.232189
vt 0.102064 0.232189
vt 0.102064 0.232189
vt 0.102064 0.232189
vt 0.037518 0.380097
vt 0.037518 0.380097
vt 0.037518 0.380097
vt 0.037518 0.380097
vt 0.037518 0.380097
vt 0.037518 0.380097
vt 0.037518 0.380097
vt 0.037518 0.380097
vt 0.037518 0.380097
vt 0.037518 0.380097
vt 0.037518 0.380097
vt 0.037518 0.380097
vt 0.037518 0.380097
vt 0.037518 0.380097
vt 0.037518 0.380097
vt 0.037518 0.380097
vt 0.037518 0.380097
vt 0.037518 0.380097
vt 0.037518 0.380097
vt 0.037518 0.380097
vt 0.037518 0.380097
vt 0.037518 0.380097
vt 0.037518 0.380097
vt 0.037518 0.380097
vt 0.037518 0.380097
vt 0.037518 0.380097
vt 0.037518 0.380097
vt 0.037518 0.380097
vt 0.037518 0.380097
vt 0.037518 0.380097
vt 0.037518 0.380097
vt 0.037518 0.380097
vt 0.102064 0.232189
vt 0.102064 0.232189
vt 0.102064 0.232189
vt 0.102064 0.232189
vt 0.102064 0.232189
vt 0.102064 0.232189
vt 0.102064 0.232189
vt 0.036060 0.378639
vt 0.036060 0.378639
vt 0.036060 0.378639
vt 0.036060 0.378639
vt 0.036060 0.378639
vt 0.036060 0.378639
vt 0.036060 0.378639
vt 0.036060 0.378639
vt 0.102064 0.232189
vt 0.102064 0.232189
vt 0.102064 0.232189
vn 0.000000 0.000000 1.000000
vn 0.000000 0.000000 1.000000
vn 0.000000 0.000000 1.000000
vn 0.000000 0.000000 1.000000
vn 0.000000 0.000000 1.000000
vn 0.000000 0.000000 1.000000
vn 0.000000 0.000000 1.000000
vn 0.000000 0.000000 1.000000
vn 0.000000 0.000000 1.000000
vn 0.000000 0.000000 1.000000
vn 0.000000 0.000000 1.000000
vn 0.000000 1.000000 0.000000
vn 0.000000 1.000000 0.000000
vn 0.000000 1.000000 0.000000
vn 0.000000 1.000000 0.000000
vn 0.000000 0.000000 -1.000000
vn 0.000000 0.000000 -1.000000
vn 0.000000 0.000000 -1.000000
vn 0.000000 0.000000 -1.000000
vn 0.000000 -1.000000 0.000000
vn 0.000000 -1.000000 0.000000
vn 0.000000 -1.000000 0.000000
vn 0.000000 -1.000000 0.000000
vn 0.998159 0.012938 0.059253
vn 0.998159 0.012938 0.059253
vn 0.998159 0.012938 0.059253
vn 0.998159 0.012938 0.059253
vn -0.705113 0.089430 0.703433
vn -0.705113 0.089430 0.703433
vn -0.705113 0.089430 0.703433
vn 0.000000 0.000000 1.000000
vn 0.000000 0.000000 1.000000
vn 0.000000 0.000000 1.000000
vn 0.000000 0.000000 1.000000
vn 0.000000 0.000000 1.000000
vn 0.000000 0.000000 1.000000
vn 0.000000 0.000000 1.000000
vn 0.000000 0.000000 1.000000
vn 0.000000 0.000000 1.000000
vn 0.000000 0.000000 1.000000
vn 0.000000 0.000000 1.000000
vn 0.000000 0.000000 1.000000
vn 0.000000 0.834774 0.550592
vn 0.000000 0.834774 0.550592
vn 0.000000 0.834775 0.550592
vn 0.000000 0.834774 0.550592
vn 0.000000 0.834775 0.550592
vn -0.829305 0.000000 0.558796
vn -0.829305 0.000000 0.558796
vn -0.829305 0.000000 0.558796
vn -0.829305 0.000000 0.558796
vn -0.829305 0.000000 0.558796
vn 0.000000 -0.834786 0.550574
vn 0.000000 -0.834786 0.550574
vn 0.000000 -0.834786 0.550574
vn 0.000000 -0.834786 0.550574
vn 0.000000 -0.834786 0.550574
vn 0.000000 -0.834786 0.550574
vn 0.829305 0.000000 0.558796
vn 0.829305 0.000000 0.558796
vn 0.829305 0.000000 0.558796
vn 0.829305 0.000000 0.558796
vn 0.000000 0.000000 1.000000
vn 0.000000 0.000000 1.000000
vn 0.000000 0.000000 1.000000
vn 0.000000 0.000000 1.000000
vn 0.000000 0.000000 1.000000
vn 0.000000 0.000000 1.000000
vn 0.000000 0.000000 1.000000
vn 0.000000 0.000000 1.000000
vn 0.000000 0.000000 1.000000
vn 0.000000 0.000000 1.000000
vn 0.000000 0.000000 1.000000
vn 0.000000 0.000000 1.000000
vn 0.000000 0.000000 1.000000
vn 0.000000 0.000000 1.000000
vn 0.000000 0.000000 1.000000
vn 0.000000 0.000000 1.000000
vn 0.000000 0.999655 0.026278
vn 0.000000 0.999655 0.026278
vn 0.000000 0.999655 0.026278
vn 0.000000 0.999655 0.026278
vn -0.759217 0.617095 0.206842
vn -0.759217 0.617095 0.206842
vn -0.759217 0.617095 0.206842
vn -0.759217 0.617095 0.206842
vn 0.000000 -0.998691 0.051158
vn 0.000000 -0.998691 0.051158
vn 0.000000 -0.998691 0.051158
vn 0.000000 -0.998691 0.051158
vn 0.759217 0.617095 0.206842
vn 0.759217 0.617095 0.206842
vn 0.759217 0.617095 0.206842
vn 0.759217 0.617095 0.206842
vn 0.000000 -1.000000 0.000005
vn 0.000000 -1.000000 0.000005
vn 0.000000 -1.000000 0.000005
vn 0.000000 -1.000000 0.000005
vn 0.000000 -0.999415 0.034214
vn 0.000000 -0.999415 0.034214
vn 0.000000 -0.999415 0.034214
vn 0.000000 -0.999415 0.034214
vn 0.000000 -1.000000 0.000000
vn 0.000000 -1.000000 0.000000
vn 0.000000 -1.000000 0.000000
vn 0.000000 -1.000000 0.000000
vn 0.000000 -0.999415 0.034212
vn 0.000000 -0.999415 0.034212
vn 0.000000 -0.999415 0.034212
vn 0.000000 -0.999415 0.034212
vn 0.000000 -0.279192 -0.960235
vn 0.000000 -0.279192 -0.960235
vn 0.000000 -0.279192 -0.960235
vn 0.000000 -0.279192 -0.960235
vn 0.781728 -0.434302 0.447529
vn 0.781729 -0.434302 0.447529
vn 0.781729 -0.434302 0.447529
vn 0.781728 -0.434302 0.447529
vn 0.000000 -0.272707 0.962097
vn 0.000000 -0.272707 0.962097
vn 0.000000 -0.272707 0.962097
vn 0.000000 -0.272707 0.962097
vn -0.781728 -0.434302 0.447530
vn -0.781728 -0.434302 0.447530
vn -0.781728 -0.434302 0.447530
vn -0.781728 -0.434302 0.447530
vn 0.000000 0.000000 1.000000
vn 0.000000 0.000000 1.000000
vn 0.000000 0.000000 1.000000
vn 0.000000 0.000000 1.000000
vn -0.829305 0.000000 0.558796
vn -0.829305 0.000000 0.558796
vn -0.829305 0.000000 0.558796
vn -0.829305 0.000000 0.558796
vn 0.000000 0.000000 1.000000
vn 0.000000 0.000000 1.000000
vn 0.000000 0.000000 1.000000
vn 0.000000 0.000000 1.000000
vn -0.000000 0.000000 1.000000
vn -0.000000 0.000000 1.000000
vn -0.000000 0.000000 1.000000
vn 0.000000 0.000000 1.000000
vn 0.000000 0.000000 1.000000
vn 0.000000 0.000000 1.000000
vn 0.000000 0.000000 1.000000
vn 0.000000 0.000000 1.000000
vn 0.000000 0.000000 1.000000
vn 0.000000 0.000000 1.000000
vn 0.000000 0.000000 1.000000
vn 0.000000 0.000000 1.000000
vn 0.000000 0.000000 1.000000
vn -0.000000 0.000000 1.000000
vn -0.000000 0.000000 1.000000
vn -0.000000 0.000000 1.000000
vn 0.000000 0.000000 1.000000
vn 0.000000 0.000000 1.000000
vn 0.000000 0.000000 1.000000
vn 0.829305 0.000000 0.558796
vn 0.829305 0.000000 0.558796
vn 0.829305 0.000000 0.558796
vn 0.829305 0.000000 0.558796
vn 0.829305 0.000000 0.558796
vn -0.698969 -0.158767 0.697306
vn -0.698969 -0.158767 0.697306
vn -0.698969 -0.158767 0.697306
vn 0.000000 0.000000 -1.000000
vn 0.000000 0.000000 -1.000000
vn 0.000000 0.000000 -1.000000
vn 0.000000 0.000000 -1.000000
vn 0.997914 -0.013771 0.063071
vn 0.997914 -0.013771 0.063071
vn 0.997914 -0.013771 0.063071
vn 0.997914 -0.013771 0.063071
vn -0.000000 0.000000 1.000000
vn -0.000000 0.000000 1.000000
vn -0.000000 0.000000 1.000000
vn -0.000000 0.000000 1.000000
vn 0.000000 0.000000 1.000000
vn 0.000000 0.000000 1.000000
vn 0.000000 0.000000 1.000000
vn 0.000000 0.000000 1.000000
vn 0.000000 0.000000 1.000000
vn 0.000000 0.000000 1.000000
vn 0.000000 0.000000 1.000000
vn 0.000000 0.000000 1.000000
vn 0.000000 0.000000 1.000000
vn 0.000000 0.000000 1.000000
vn 0.000000 0.000000 1.000000
vn 0.000000 0.000000 1.000000
vn -0.000000 0.000000 1.000000
vn -0.000000 0.000000 1.000000
vn -0.000000 0.000000 1.000000
vn 0.000000 0.000000 1.000000
vn 0.000000 0.000000 1.000000
vn 0.000000 0.000000 1.000000
vn -0.000000 0.000000 1.000000
vn -0.000000 0.000000 1.000000
vn -0.000000 0.000000 1.000000
vn -0.000000 0.000000 1.000000
vn 0.000000 0.000000 1.000000
vn 0.000000 0.000000 1.000000
vn 0.000000 0.000000 1.000000
vn 0.000000 0.000000 1.000000
vn 0.000000 0.000000 1.000000
vn 0.000000 0.000000 1.000000
vn 0.000000 0.000000 1.000000
vn 0.000000 0.000000 1.000000
vn 0.000000 0.000000 1.000000
vn 0.000000 0.000000 1.000000
vn 0.000000 0.000000 1.000000
vn -0.000000 0.000000 1.000000
vn -0.000000 0.000000 1.000000
vn -0.000000 0.000000 1.000000
vn -0.000000 0.000000 1.000000
vn 0.000000 0.000000 1.000000
vn 0.000000 0.000000 1.000000
vn 0.000000 0.000000 1.000000
vn 0.000000 0.000000 1.000000
vn -0.000000 0.000000 1.000000
vn -0.000000 0.000000 1.000000
vn -0.000000 0.000000 1.000000
vn 0.000000 0.000000 1.000000
vn 0.000000 0.000000 1.000000
vn 0.000000 0.000000 1.000000
vn 0.000000 0.000000 1.000000
vn 0.000000 0.000000 1.000000
vn 0.000000 0.000000 1.000000
vn 0.000000 0.000000 1.000000
vn 0.000000 0.000000 1.000000
vn 0.000000 0.000000 1.000000
vn 0.000000 0.000000 1.000000
vn 0.000000 0.000000 1.000000
vn 0.000000 0.000000 1.000000
vn 0.000000 0.000000 1.000000
vn 0.000000 0.000000 1.000000
vn 0.000000 0.000000 1.000000
vn 0.000000 0.000000 1.000000
vn 0.000000 0.000000 1.000000
vn 0.000000 0.000000 1.000000
vn 0.000000 0.000000 1.000000
vn 0.000000 0.000000 1.000000
vn 0.000000 0.000000 1.000000
vn 0.000000 0.000000 1.000000
vn 0.000000 0.000000 1.000000
vn 0.000000 0.000000 1.000000
vn 0.000000 0.000000 1.000000
vn 0.000000 0.000000 1.000000
vn 0.000000 0.000000 1.000000
vn -0.000000 0.000000 1.000000
vn -0.000000 0.000000 1.000000
vn -0.000000 0.000000 1.000000
vn 0.000000 0.000000 1.000000
vn 0.000000 0.000000 1.000000
vn 0.000000 0.000000 1.000000
vn 0.000000 0.000000 1.000000
vn -0.000000 0.000000 1.000000
vn -0.000000 0.000000 1.000000
vn -0.000000 0.000000 1.000000
vn 0.000000 0.000000 1.000000
vn 0.000000 0.000000 1.000000
vn 0.000000 0.000000 1.000000
vn -0.000000 0.000000 1.000000
vn -0.000000 0.000000 1.000000
vn -0.000000 0.000000 1.000000
vn -0.000000 0.000000 1.000000
vn 0.000000 0.000000 1.000000
vn 0.000000 0.000000 1.000000
vn 0.000000 0.000000 1.000000
vn 0.000000 0.000000 1.000000
vn 0.000000 0.000000 1.000000
vn 0.000000 0.000000 1.000000
vn 0.000000 0.000000 1.000000
vn 0.000000 0.000000 1.000000
vn 0.000000 0.000000 1.000000
vn 0.000000 0.000000 1.000000
vn -0.000000 0.000000 1.000000
vn -0.000000 0.000000 1.000000
vn -0.000000 0.000000 1.000000
vn -0.000000 0.000000 1.000000
vn 0.000000 0.000000 1.000000
vn 0.000000 0.000000 1.000000
vn 0.000000 0.000000 1.000000
vn 0.000000 0.000000 1.000000
vn 0.000000 0.000000 1.000000
vn 0.000000 0.000000 1.000000
vn 0.000000 0.000000 1.000000
vn 0.000000 0.000000 1.000000
vn 0.000000 0.000000 1.000000
vn 0.000000 0.000000 1.000000
vn 0.000000 0.000000 1.000000
vn 0.000000 0.000000 1.000000
vn 0.000000 0.000000 1.000000
vn 0.000000 0.000000 1.000000
vn 0.000000 0.000000 1.000000
vn 0.000000 0.000000 1.000000
vn -0.000000 0.000000 1.000000
vn -0.000000 0.000000 1.000000
vn -0.000000 0.000000 1.000000
vn 0.000000 0.000000 1.000000
vn 0.000000 0.000000 1.000000
vn 0.000000 0.000000 1.000000
vn 0.000000 0.000000 1.000000
vn 0.000000 0.000000 1.000000
vn 0.000000 0.000000 1.000000
vn 0.000000 0.000000 1.000000
vn 0.000000 0.000000 1.000000
vn 0.000000 0.000000 1.000000
vn -1.000000 -0.000000 0.000000
vn -1.000000 -0.000000 0.000000
vn -1.000000 -0.000000 0.000000
vn -1.000000 -0.000000 0.000000
vn -1.000000 -0.000000 0.000000
vn -1.000000 0.000000 0.000000
vn -1.000000 0.000000 0.000000
vn -1.000000 0.000000 0.000000
vn -1.000000 0.000000 0.000000
vn -1.000000 0.000000 0.000000
vn -0.000000 0.000000 1.000000
vn -0.000000 0.000000 1.000000
vn -0.000000 0.000000 1.000000
vn -0.000000 0.000000 1.000000
vn -0.000000 0.000000 1.000000
s off
f 41/85/1 14/86/2 58/84/3
f 57/83/4 58/84/5 14/86/6 56/82/7
f 56/82/8 14/86/9 54/80/10 55/81/11
f 3/3/12 4/4/13 6/6/14 5/5/15
f 39/50/16 40/51/17 8/8/18 7/7/19
f 7/7/20 8/8/21 2/10/22 1/9/23
f 2/2/24 8/11/25 40/52/26 33/43/27
f 76/128/28 77/129/29 38/48/30
f 1/1/31 2/2/32 10/16/33 9/15/34
f 2/2/35 33/43/36 34/44/37 10/16/38
f 22/27/39 21/28/40 23/29/41 24/30/42
f 9/15/43 10/16/44 14/20/45 41/53/46 13/19/47
f 10/16/48 34/44/49 35/45/50 54/66/51 14/20/52
f 11/17/53 12/18/54 16/22/55 68/112/56 59/71/57 15/21/58
f 36/46/59 37/47/60 9/15/61 13/19/62
f 4/4/63 3/3/64 17/24/65 18/23/66
f 3/3/67 12/18/68 19/25/69 17/24/70
f 12/18/71 11/17/72 20/26/73 19/25/74
f 11/17/75 4/4/76 18/23/77 20/26/78
f 18/23/79 17/24/80 21/28/81 22/27/82
f 17/24/83 19/25/84 23/29/85 21/28/86
f 29/35/87 30/36/88 31/37/89 32/38/90
f 20/26/91 18/23/92 22/27/93 24/30/94
f 19/25/95 20/26/96 26/32/97 25/31/98
f 20/26/99 24/30/100 27/33/101 26/32/102
f 24/30/103 23/29/104 28/34/105 27/33/106
f 23/29/107 19/25/108 25/31/109 28/34/110
f 25/39/111 26/40/112 30/36/113 29/35/114
f 26/40/115 27/41/116 31/37/117 30/36/118
f 27/41/119 28/42/120 32/38/121 31/37/122
f 28/42/123 25/39/124 29/35/125 32/38/126
f 34/44/127 33/43/128 4/4/129 11/17/130
f 35/45/131 34/44/132 11/17/133 15/21/134
f 15/97/135 59/87/136 60/88/137 61/89/138
f 61/89/139 62/90/140 15/97/141
f 15/97/142 62/90/143 63/91/144 64/92/145
f 64/92/146 65/93/147 15/97/148
f 67/95/149 35/96/150 66/94/151
f 35/96/152 15/97/153 66/94/154
f 65/93/155 66/94/156 15/97/157
f 12/18/158 37/47/159 36/46/160 69/113/161 16/22/162
f 75/127/163 76/128/164 38/48/165
f 5/5/166 6/6/167 40/51/168 39/50/169
f 33/43/170 40/52/171 6/12/172 4/4/173
f 48/104/174 47/105/175 46/106/176 49/103/177
f 52/100/178 51/101/179 53/99/180
f 42/110/181 36/111/182 43/109/183
f 36/111/184 13/98/185 43/109/186
f 43/109/187 13/98/188 44/108/189
f 44/108/190 13/98/191 45/107/192
f 13/98/193 41/85/194 45/107/195
f 49/103/196 46/106/197 45/107/198 50/102/199
f 45/107/200 41/85/201 50/102/202
f 53/99/203 51/101/204 50/102/205 41/85/206
f 36/46/207 42/54/208 35/45/209 67/79/210
f 54/66/211 35/45/212 42/54/213 55/67/214
f 55/67/215 42/54/216 43/55/217 56/68/218
f 56/68/219 43/55/220 57/69/221
f 58/70/222 57/69/223 43/55/224 47/59/225
f 50/62/226 51/63/227 49/61/228
f 48/60/229 49/61/230 51/63/231 52/64/232
f 45/57/233 46/58/234 44/56/235
f 44/56/236 46/58/237 43/55/238
f 46/58/239 47/59/240 43/55/241
f 58/70/242 47/59/243 48/60/244 52/64/245
f 52/64/246 53/65/247 58/70/248
f 53/65/249 41/53/250 58/70/251
f 69/113/252 36/46/253 67/79/254 74/118/255
f 70/114/256 71/115/257 68/112/258
f 64/76/259 63/75/260 65/77/261
f 73/117/262 74/118/263 67/79/264 72/116/265
f 72/116/266 67/79/267 66/78/268 71/115/269
f 71/115/270 66/78/271 68/112/272
f 65/77/273 63/75/274 66/78/275
f 68/112/276 66/78/277 63/75/278 62/74/279
f 68/112/280 62/74/281 61/73/282 60/72/283
f 60/72/284 59/71/285 68/112/286
f 68/125/287 16/126/288 70/124/289
f 69/119/290 74/120/291 16/126/292
f 74/120/293 73/121/294 16/126/295
f 16/126/296 73/121/297 70/124/298
f 71/123/299 70/124/300 73/121/301 72/122/302
f 3/3/303 75/127/304 38/48/305 37/47/306 12/18/307
f 39/49/308 76/128/309 75/127/310 3/3/311 5/14/312
f 7/13/313 1/1/314 77/129/315 76/128/316 39/49/317
f 37/47/318 38/48/319 77/129/320 1/1/321 9/15/322
