# This file uses centimeters as units for non-parametric coordinates.

v 0.058788 -0.419654 -0.041168
v 0.058788 -0.044496 -0.041168
v 0.463528 -0.232442 -0.041168
v 0.058788 -0.739566 -0.041164
v 0.249989 0.045110 -0.041168
v 0.058788 0.278578 -0.041164
v 0.239887 -0.002152 -0.041164
v -0.463531 -0.020090 -0.041168
v -0.088371 0.139360 -0.041164
v -0.076668 0.040372 -0.041164
v -0.383579 -0.238515 -0.041164
v -0.088371 1.523595 -0.041164
v -0.431244 0.731125 -0.041168
v -0.463531 0.804374 -0.041164
v -0.463531 1.535512 -0.041164
v -0.025036 -0.023886 -0.041168
v -0.176403 -0.378819 -0.041164
v 0.325001 -0.057540 -0.041164
v -0.463531 0.675961 -0.041164
v 0.058788 -0.419655 0.041168
v 0.058788 -0.044496 0.041168
v 0.463528 -0.232442 0.041168
v 0.058788 -0.739567 0.041172
v 0.249989 0.045110 0.041168
v 0.058788 0.278578 0.041172
v 0.239887 -0.002153 0.041172
v -0.463531 -0.020090 0.041168
v -0.088371 0.139360 0.041172
v -0.076668 0.040372 0.041172
v -0.383579 -0.238516 0.041172
v -0.088371 1.523595 0.041172
v -0.431244 0.731124 0.041168
v -0.463531 0.804374 0.041172
v -0.463531 1.535512 0.041172
v -0.025036 -0.023887 0.041168
v -0.176403 -0.378819 0.041172
v 0.325001 -0.057541 0.041172
v -0.463531 0.675961 0.041172
vt 0.081123 0.209280
vt 0.081123 0.209280
vt 0.081123 0.209280
vt 0.081123 0.209280
vt 0.081123 0.209280
vt 0.081123 0.209280
vt 0.081123 0.209280
vt 0.081123 0.209280
vt 0.081123 0.209280
vt 0.081123 0.209280
vt 0.081123 0.209280
vt 0.081123 0.209280
vt 0.081123 0.209280
vt 0.081123 0.209280
vt 0.081123 0.209280
vt 0.081123 0.209280
vt 0.081123 0.209280
vt 0.081123 0.209280
vt 0.081123 0.209280
vt 0.081123 0.209280
vt 0.081123 0.209280
vt 0.081123 0.209280
vt 0.081123 0.209280
vt 0.081123 0.209280
vt 0.081123 0.209280
vt 0.081123 0.209280
vt 0.081123 0.209280
vt 0.081123 0.209280
vt 0.081123 0.209280
vt 0.081123 0.209280
vt 0.081123 0.209280
vt 0.081123 0.209280
vt 0.081123 0.209280
vt 0.081123 0.209280
vt 0.081123 0.209280
vt 0.081123 0.209280
vt 0.081123 0.209280
vt 0.081123 0.209280
vt 0.081123 0.209280
vt 0.081123 0.209280
vt 0.081123 0.209280
vt 0.081123 0.209280
vt 0.081123 0.209280
vt 0.081123 0.209280
vn -0.000001 -0.000006 -1.000000
vn -0.000004 0.000001 -1.000000
vn 0.000003 0.000001 -1.000000
vn 0.000003 0.000001 -1.000000
vn 0.000006 -0.000012 -1.000000
vn -0.000001 -0.000006 -1.000000
vn 0.000000 0.000000 -1.000000
vn 0.000000 0.000000 -1.000000
vn 0.000008 0.000016 -1.000000
vn -0.000004 0.000001 -1.000000
vn 0.000004 -0.000003 -1.000000
vn 0.000005 -0.000002 -1.000000
vn 0.000002 -0.000004 -1.000000
vn -0.000001 -0.000003 -1.000000
vn -0.000002 0.000003 -1.000000
vn 0.000006 0.000001 -1.000000
vn -0.000008 0.000004 -1.000000
vn -0.000008 0.000004 -1.000000
vn -0.000001 -0.000003 -1.000000
vn 0.000002 -0.000004 -1.000000
vn -0.000012 0.000000 -1.000000
vn -0.000012 0.000000 -1.000000
vn -0.000001 -0.000006 -1.000000
vn -0.000012 0.000000 -1.000000
vn -0.000012 0.000000 -1.000000
vn -0.000004 0.000001 -1.000000
vn -0.000004 0.000001 -1.000000
vn 0.000008 0.000016 -1.000000
vn 0.000016 0.000032 -1.000000
vn 0.000003 0.000001 -1.000000
vn 0.000006 0.000001 -1.000000
vn 0.000005 -0.000002 -1.000000
vn 0.000004 -0.000003 -1.000000
vn 0.000000 0.000000 -1.000000
vn -0.000002 0.000003 -1.000000
vn 0.000005 -0.000002 -1.000000
vn 0.000006 0.000001 -1.000000
vn 0.773664 0.633596 0.000002
vn 0.773664 0.633596 0.000002
vn 0.773664 0.633596 0.000002
vn 0.773664 0.633596 0.000002
vn 0.993083 0.117413 0.000000
vn 0.993083 0.117413 0.000000
vn 0.993083 0.117413 0.000000
vn 0.993083 0.117413 0.000000
vn 0.031749 0.999496 0.000000
vn 0.031749 0.999496 0.000000
vn 0.031749 0.999496 0.000000
vn 0.031749 0.999496 0.000000
vn 0.779534 0.626360 0.000002
vn 0.779534 0.626360 0.000002
vn 0.779534 0.626360 0.000002
vn 0.779534 0.626360 0.000002
vn -0.560734 -0.827996 -0.000005
vn -0.560734 -0.827996 -0.000005
vn -0.560734 -0.827996 -0.000005
vn -0.560734 -0.827996 -0.000005
vn -0.171067 -0.985259 -0.000006
vn -0.171067 -0.985260 -0.000006
vn -0.171067 -0.985259 -0.000006
vn -0.171067 -0.985260 -0.000006
vn 0.238751 0.971081 0.000003
vn 0.238751 0.971081 0.000003
vn 0.238751 0.971081 0.000003
vn 0.238751 0.971081 0.000003
vn 0.783908 0.620878 0.000002
vn 0.783907 0.620878 0.000002
vn 0.783908 0.620878 0.000002
vn 0.783908 0.620878 0.000002
vn 1.000000 0.000000 0.000000
vn 1.000000 0.000000 0.000000
vn 1.000000 0.000000 0.000000
vn 1.000000 0.000000 0.000000
vn 0.000001 0.000006 1.000000
vn -0.000003 -0.000001 1.000000
vn 0.000004 -0.000001 1.000000
vn -0.000003 -0.000001 1.000000
vn 0.000001 0.000006 1.000000
vn -0.000006 0.000012 1.000000
vn 0.000000 0.000000 1.000000
vn 0.000004 -0.000001 1.000000
vn -0.000008 -0.000016 1.000000
vn 0.000000 0.000000 1.000000
vn -0.000004 0.000003 1.000000
vn 0.000001 0.000003 1.000000
vn -0.000002 0.000004 1.000000
vn -0.000005 0.000002 1.000000
vn 0.000002 -0.000003 1.000000
vn 0.000008 -0.000004 1.000000
vn 0.000008 -0.000004 1.000000
vn -0.000006 -0.000001 1.000000
vn 0.000001 0.000003 1.000000
vn 0.000012 -0.000000 1.000000
vn 0.000012 -0.000000 1.000000
vn -0.000002 0.000004 1.000000
vn 0.000001 0.000006 1.000000
vn 0.000004 -0.000001 1.000000
vn 0.000012 -0.000000 1.000000
vn 0.000012 -0.000000 1.000000
vn 0.000004 -0.000001 1.000000
vn -0.000003 -0.000001 1.000000
vn -0.000016 -0.000032 1.000000
vn -0.000008 -0.000016 1.000000
vn -0.000006 -0.000001 1.000000
vn -0.000000 0.000000 1.000000
vn -0.000004 0.000003 1.000000
vn -0.000005 0.000002 1.000000
vn 0.000002 -0.000003 1.000000
vn -0.000006 -0.000001 1.000000
vn -0.000005 0.000002 1.000000
vn 0.781590 -0.623792 -0.000002
vn 0.781590 -0.623792 -0.000002
vn 0.781590 -0.623792 -0.000002
vn 0.781590 -0.623792 -0.000002
vn -1.000000 0.000000 0.000000
vn -1.000000 0.000000 0.000000
vn -1.000000 0.000000 0.000000
vn -1.000000 0.000000 0.000000
vn 0.977914 -0.209008 -0.000001
vn 0.977914 -0.209008 -0.000001
vn 0.977914 -0.209008 -0.000001
vn 0.977914 -0.209008 -0.000001
vn -1.000000 0.000000 0.000000
vn -1.000000 0.000000 0.000000
vn -1.000000 0.000000 0.000000
vn -1.000000 0.000000 0.000000
vn -0.939067 -0.343735 -0.000002
vn -0.939067 -0.343735 -0.000002
vn -0.939067 -0.343735 -0.000002
vn -0.939067 -0.343735 -0.000002
vn -0.915048 -0.403345 -0.000001
vn -0.915048 -0.403345 -0.000001
vn -0.915048 -0.403345 -0.000001
vn -0.915048 -0.403345 -0.000001
vn -1.000000 0.000000 0.000000
vn -1.000000 0.000000 0.000000
vn -1.000000 0.000000 0.000000
vn -1.000000 0.000000 0.000000
vn 0.545433 0.838155 0.000005
vn 0.545433 0.838155 0.000005
vn 0.545433 0.838155 0.000005
vn 0.545433 0.838155 0.000005
vn -1.000000 0.000000 0.000000
vn -1.000000 0.000000 0.000000
vn -1.000000 0.000000 0.000000
vn -1.000000 0.000000 0.000000
vn -0.863039 0.505137 0.000001
vn -0.863039 0.505137 0.000001
vn -0.863039 0.505137 0.000001
vn -0.863039 0.505137 0.000001
s off
f 1/1/1 2/2/2 3/3/3
f 3/4/4 4/5/5 1/6/6
f 6/7/7 5/8/8 7/9/9 2/10/10
f 8/14/11 9/11/12 10/12/13 11/13/14
f 12/18/15 13/15/16 14/16/17 15/17/18
f 11/13/19 10/12/20 16/19/21 17/20/22
f 1/6/23 17/20/24 16/19/25 2/10/26
f 2/10/27 7/9/28 18/21/29 3/4/30
f 13/15/31 9/11/32 8/14/33 19/22/34
f 12/18/35 9/11/36 13/15/37
f 6/7/38 25/29/39 24/30/40 5/8/41
f 9/11/42 28/34/43 29/35/44 10/12/45
f 15/17/46 34/40/47 31/37/48 12/18/49
f 10/12/50 29/35/51 35/41/52 16/19/53
f 17/20/54 36/42/55 30/36/56 11/13/57
f 1/6/58 20/28/59 36/42/60 17/20/61
f 16/19/62 35/41/63 21/32/64 2/10/65
f 18/21/66 37/43/67 22/26/68 3/4/69
f 12/18/70 31/37/71 28/34/72 9/11/73
f 20/23/74 22/25/75 21/24/76
f 22/26/77 20/28/78 23/27/79
f 25/29/80 21/32/81 26/31/82 24/30/83
f 27/33/84 30/36/85 29/35/86 28/34/87
f 31/37/88 34/40/89 33/39/90 32/38/91
f 30/36/92 36/42/93 35/41/94 29/35/95
f 20/28/96 21/32/97 35/41/98 36/42/99
f 21/32/100 22/26/101 37/43/102 26/31/103
f 32/38/104 38/44/105 27/33/106 28/34/107
f 31/37/108 32/38/109 28/34/110
f 4/5/111 3/4/112 22/26/113 23/27/114
f 1/6/115 4/5/116 23/27/117 20/28/118
f 7/9/119 5/8/120 24/30/121 26/31/122
f 6/7/123 2/10/124 21/32/125 25/29/126
f 8/14/127 11/13/128 30/36/129 27/33/130
f 14/16/131 13/15/132 32/38/133 33/39/134
f 15/17/135 14/16/136 33/39/137 34/40/138
f 18/21/139 7/9/140 26/31/141 37/43/142
f 19/22/143 8/14/144 27/33/145 38/44/146
f 13/15/147 19/22/148 38/44/149 32/38/150
