# This file uses centimeters as units for non-parametric coordinates.

v -0.228275 0.000002 0.181097
v 0.228275 0.000002 0.181097
v -0.228275 0.053589 0.181097
v 0.228275 0.053589 0.181097
v -0.228275 0.053587 -0.178703
v 0.228275 0.053587 -0.178703
v -0.228275 0.000002 -0.194937
v 0.228275 0.000002 -0.194937
v -0.228275 0.042987 -0.178703
v 0.228275 0.042987 -0.178703
v 0.228275 0.013281 -0.194937
v -0.228275 0.013281 -0.194937
v -0.228275 0.042987 0.171452
v -0.228275 0.013281 0.171452
v 0.228275 0.042987 0.171452
v 0.228275 0.013281 0.171452
v -0.228275 0.034251 -0.185903
v 0.228275 0.034251 -0.185903
v 0.228275 0.022017 -0.185903
v -0.228275 0.022017 -0.185903
v 0.228275 0.034251 0.162582
v 0.228275 0.022017 0.162582
v -0.228275 0.022017 0.162582
v -0.228275 0.034251 0.162582
v 0.228275 0.026795 0.193801
v -0.228275 0.026795 0.193801
vt 0.135018 0.302565
vt 0.135018 0.302565
vt 0.135018 0.302565
vt 0.135018 0.302565
vt 0.135018 0.302565
vt 0.135018 0.302565
vt 0.135018 0.302565
vt 0.135018 0.302565
vt 0.135018 0.302565
vt 0.135018 0.302565
vt 0.135018 0.302565
vt 0.135018 0.302565
vt 0.135018 0.302565
vt 0.135018 0.302565
vt 0.135018 0.302565
vt 0.135018 0.251278
vt 0.135018 0.302565
vt 0.135018 0.251279
vt 0.135018 0.251278
vt 0.135018 0.302565
vt 0.135018 0.251278
vt 0.135018 0.302565
vt 0.135018 0.251279
vt 0.135018 0.251278
vt 0.135018 0.251279
vt 0.135018 0.251278
vt 0.135018 0.302565
vt 0.135018 0.251278
vt 0.135018 0.302565
vt 0.135018 0.251278
vt 0.135018 0.302565
vt 0.135018 0.251278
vt 0.135018 0.302565
vt 0.135018 0.251279
vt 0.135018 0.251278
vt 0.135018 0.251278
vt 0.135018 0.251279
vt 0.135018 0.302565
vt 0.135018 0.251279
vt 0.135018 0.302565
vt 0.135018 0.251278
vt 0.135018 0.251279
vt 0.135018 0.251278
vt 0.135018 0.302565
vt 0.135018 0.302565
vt 0.135018 0.251279
vt 0.135018 0.302565
vt 0.135018 0.302565
vt 0.135018 0.302565
vt 0.135018 0.251278
vt 0.135018 0.302565
vt 0.135018 0.302565
vt 0.135018 0.251279
vt 0.135018 0.251279
vt 0.135018 0.251278
vt 0.135018 0.302565
vt 0.135018 0.251278
vt 0.135018 0.251278
vt 0.135018 0.302565
vt 0.135018 0.251278
vt 0.135018 0.302565
vt 0.135018 0.251279
vt 0.135018 0.302565
vt 0.135018 0.251278
vt 0.135018 0.302565
vt 0.135018 0.251278
vt 0.135018 0.302565
vt 0.135018 0.251278
vt 0.135018 0.302565
vt 0.135018 0.251279
vt 0.135018 0.302565
vt 0.135018 0.302565
vt 0.259932 0.927414
vt 0.330278 0.927414
vt 0.330278 0.928346
vt 0.259932 0.928346
vt 0.330278 0.996292
vt 0.259932 0.996292
vn 0.000000 0.428434 0.903573
vn 0.000000 0.428434 0.903573
vn 0.000000 0.428434 0.903573
vn 0.000000 0.428434 0.903573
vn 0.000000 1.000000 -0.000004
vn 0.000000 1.000000 -0.000004
vn 0.000000 1.000000 -0.000004
vn 0.000000 1.000000 -0.000004
vn 0.000000 0.000000 -1.000000
vn 0.000000 0.000000 -1.000000
vn 0.000000 0.000000 -1.000000
vn 0.000000 0.000000 -1.000000
vn 0.000000 -1.000000 0.000000
vn 0.000000 -1.000000 0.000000
vn 0.000000 -1.000000 0.000000
vn 0.000000 -1.000000 0.000000
vn 1.000000 0.000000 0.000000
vn 1.000000 0.000000 0.000000
vn 1.000000 0.000000 0.000000
vn 1.000000 0.000000 0.000000
vn -1.000000 0.000000 0.000000
vn -1.000000 0.000000 0.000000
vn -1.000000 0.000000 0.000000
vn 0.000000 0.000000 -1.000000
vn 0.000000 0.000000 -1.000000
vn 0.000000 0.000000 -1.000000
vn 0.000000 0.000000 -1.000000
vn 1.000000 0.000000 0.000000
vn 1.000000 0.000000 0.000000
vn 1.000000 0.000000 0.000000
vn 1.000000 0.000000 0.000000
vn 0.000000 0.000000 -1.000000
vn 0.000000 0.000000 -1.000000
vn 0.000000 0.000000 -1.000000
vn 0.000000 0.000000 -1.000000
vn 1.000000 -0.000001 0.000000
vn 1.000000 -0.000001 0.000000
vn 1.000000 -0.000001 0.000000
vn 1.000000 -0.000001 0.000000
vn -1.000000 0.000000 0.000000
vn -1.000000 0.000000 0.000000
vn -1.000000 0.000000 0.000000
vn -1.000000 0.000000 0.000000
vn -1.000000 0.000000 0.000000
vn -1.000000 0.000000 0.000000
vn -1.000000 0.000000 0.000000
vn -1.000000 0.000000 0.000000
vn -1.000000 -0.000002 0.000000
vn -1.000000 -0.000002 0.000000
vn -1.000000 -0.000002 0.000000
vn -1.000000 -0.000002 0.000000
vn 1.000000 0.000000 0.000000
vn 1.000000 0.000000 0.000000
vn 1.000000 0.000000 0.000000
vn 0.000000 0.636023 -0.771670
vn 0.000000 0.636023 -0.771670
vn 0.000000 0.636023 -0.771670
vn 0.000000 0.636023 -0.771670
vn 0.000000 0.718874 -0.695140
vn 0.000000 0.718874 -0.695140
vn 0.000000 0.718874 -0.695140
vn 0.000000 0.718874 -0.695140
vn 1.000000 0.000000 0.000000
vn 1.000000 0.000000 0.000000
vn 1.000000 0.000000 0.000000
vn 1.000000 0.000000 0.000000
vn 1.000000 -0.000001 0.000000
vn 1.000000 -0.000001 0.000000
vn 1.000000 -0.000001 0.000000
vn 1.000000 -0.000001 0.000000
vn 1.000000 -0.000000 0.000000
vn 1.000000 -0.000000 0.000000
vn 1.000000 -0.000000 0.000000
vn 1.000000 -0.000000 0.000000
vn -1.000000 0.000001 0.000000
vn -1.000000 0.000001 0.000000
vn -1.000000 0.000001 0.000000
vn -1.000000 0.000001 0.000000
vn -1.000000 0.000000 0.000000
vn -1.000000 0.000000 0.000000
vn -1.000000 0.000000 0.000000
vn -1.000000 0.000000 0.000000
vn -1.000000 0.000001 0.000000
vn -1.000000 0.000001 0.000000
vn -1.000000 0.000001 0.000000
vn -1.000000 0.000001 0.000000
vn 1.000000 -0.000001 0.000000
vn 1.000000 -0.000001 0.000000
vn 1.000000 -0.000001 0.000000
vn 1.000000 0.000001 0.000000
vn 1.000000 0.000001 0.000000
vn 1.000000 0.000001 0.000000
vn -1.000000 0.000000 0.000000
vn -1.000000 0.000000 0.000000
vn -1.000000 0.000000 0.000000
vn -1.000000 0.000000 0.000000
vn -1.000000 0.000000 0.000000
vn -1.000000 0.000000 0.000000
vn 0.000000 -0.428433 0.903574
vn 0.000000 -0.428433 0.903574
vn 0.000000 -0.428433 0.903574
vn 0.000000 -0.428433 0.903574
s off
f 26/73/1 25/74/2 4/75/3 3/76/4
f 3/76/5 4/75/6 6/77/7 5/78/8
f 17/27/9 18/51/10 19/29/11 20/47/12
f 7/7/13 8/8/14 2/10/15 1/9/16
f 21/31/17 22/56/18 19/33/19 18/52/20
f 13/45/21 26/72/22 3/3/23
f 5/5/24 6/6/25 10/17/26 9/69/27
f 4/4/28 15/61/29 10/67/30 6/12/31
f 12/22/32 11/65/33 8/8/34 7/7/35
f 2/2/36 8/11/37 11/20/38 16/59/39
f 9/15/40 13/45/41 3/3/42 5/14/43
f 20/48/44 23/44/45 24/40/46 17/38/47
f 7/13/48 1/1/49 14/49/50 12/63/51
f 25/71/52 16/59/53 15/61/54
f 9/16/55 10/68/56 18/28/57 17/41/58
f 11/19/59 12/64/60 20/30/61 19/57/62
f 15/25/63 16/60/64 22/55/65 21/53/66
f 16/26/67 11/66/68 19/58/69 22/32/70
f 10/18/71 15/62/72 21/54/73 18/34/74
f 12/21/75 14/50/76 23/43/77 20/35/78
f 14/24/79 13/46/80 24/39/81 23/36/82
f 13/23/83 9/70/84 17/42/85 24/37/86
f 25/71/87 15/61/88 4/4/89
f 2/2/90 16/59/91 25/71/92
f 26/72/93 14/49/94 1/1/95
f 13/45/96 14/49/97 26/72/98
f 1/1/99 2/2/100 25/71/101 26/72/102
