# This file uses centimeters as units for non-parametric coordinates.

v -0.639823 0.011716 0.142675
v -0.627990 0.011716 0.171244
v -0.599422 0.011716 0.183077
v 0.639823 0.011716 0.142677
v 0.599423 0.011716 0.183079
v 0.627990 0.011716 0.171246
v 0.599423 0.011716 -0.183077
v 0.639823 0.011716 -0.142676
v 0.627990 0.011716 -0.171244
v -0.639823 0.011716 -0.142678
v -0.599422 0.011716 -0.183080
v -0.627990 0.011716 -0.171246
v -0.575318 0.011716 0.158058
v -0.614365 0.011716 0.123178
v 0.575318 0.011716 0.158059
v 0.614365 0.011716 0.123180
v 0.614365 0.011716 -0.123178
v 0.575318 0.011716 -0.158060
v -0.575318 0.011716 -0.158061
v -0.614365 0.011716 -0.123180
v -0.602928 0.011716 0.147842
v 0.602928 0.011716 0.147843
v 0.602928 0.011716 -0.147843
v -0.602928 0.011716 -0.147844
v -0.548951 0.011716 0.137794
v -0.586516 0.011716 0.107386
v 0.548951 0.011716 0.137794
v 0.586517 0.011716 0.107387
v 0.586517 0.011716 -0.107386
v 0.548951 0.011716 -0.137795
v -0.548951 0.011716 -0.137796
v -0.586516 0.011716 -0.107388
v -0.575514 0.011716 0.128887
v 0.575514 0.011716 0.128887
v 0.575514 0.011716 -0.128889
v -0.575514 0.011716 -0.128889
v -0.639823 -0.011716 0.142675
v -0.639823 -0.011716 -0.142678
v -0.599422 -0.011716 0.183077
v 0.599423 -0.011716 0.183079
v 0.639823 -0.011716 0.142677
v 0.639823 -0.011716 -0.142676
v -0.599422 -0.011716 -0.183080
v 0.599423 -0.011716 -0.183077
v -0.627990 -0.011716 0.171244
v 0.627990 -0.011716 0.171246
v 0.627990 -0.011716 -0.171244
v -0.627990 -0.011716 -0.171246
v 0.000000 -0.011716 -0.000001
vt 0.241759 0.524952
vt 0.404816 0.524952
vt 0.236180 0.529494
vt 0.236180 0.561569
vt 0.410395 0.529493
vt 0.404816 0.566110
vt 0.241759 0.566110
vt 0.410395 0.561568
vt 0.344786 0.532490
vt 0.344786 0.532490
vt 0.344786 0.532490
vt 0.344786 0.532490
vt 0.344786 0.532490
vt 0.344786 0.532490
vt 0.344786 0.532490
vt 0.344786 0.532490
vt 0.344786 0.532490
vt 0.344786 0.532490
vt 0.344786 0.532490
vt 0.344786 0.532490
vt 0.344786 0.532490
vt 0.344786 0.532490
vt 0.344786 0.532490
vt 0.344786 0.532490
vt 0.344786 0.532490
vt 0.344786 0.532490
vt 0.344786 0.532490
vt 0.344786 0.532490
vt 0.344786 0.532490
vt 0.344786 0.532490
vt 0.344786 0.532490
vt 0.344786 0.532490
vt 0.344786 0.532490
vt 0.344786 0.532490
vt 0.344786 0.532490
vt 0.344786 0.532490
vt 0.344786 0.532490
vt 0.344786 0.532490
vt 0.344786 0.532490
vt 0.344786 0.532490
vt 0.344786 0.532490
vt 0.344786 0.532490
vt 0.344786 0.532490
vt 0.344786 0.532490
vt 0.419406 0.016246
vt 0.419406 0.016246
vt 0.419406 0.016246
vt 0.419406 0.016246
vt 0.419406 0.016246
vt 0.419406 0.016246
vt 0.419406 0.016246
vt 0.419406 0.016246
vt 0.419406 0.016246
vt 0.419406 0.016246
vt 0.419406 0.016246
vt 0.419406 0.016246
vt 0.419406 0.016246
vt 0.419406 0.016246
vt 0.419406 0.016246
vt 0.419406 0.016246
vt 0.419406 0.016246
vt 0.419406 0.016246
vt 0.419406 0.016246
vt 0.419406 0.016246
vt 0.419406 0.016246
vt 0.419406 0.016246
vt 0.419406 0.016246
vt 0.419406 0.016246
vt 0.390435 0.541179
vt 0.390435 0.541179
vt 0.390435 0.541179
vt 0.390435 0.541179
vt 0.390435 0.541179
vt 0.390435 0.541179
vt 0.390435 0.541179
vt 0.390435 0.541179
vt 0.390435 0.541179
vt 0.390435 0.541179
vt 0.390435 0.541179
vt 0.390435 0.541179
vt 0.390435 0.541179
vt 0.390435 0.541179
vt 0.390435 0.541179
vt 0.390435 0.541179
vt 0.390435 0.541179
vt 0.390435 0.541179
vt 0.390435 0.541179
vt 0.390435 0.541179
vt 0.390435 0.541179
vt 0.390435 0.541179
vt 0.390435 0.541179
vt 0.390435 0.541179
vt 0.390435 0.541179
vn 0.000000 1.000000 0.000000
vn 0.000000 1.000000 0.000000
vn 0.000000 1.000000 0.000000
vn 0.000000 1.000000 0.000000
vn 0.000000 1.000000 0.000000
vn 0.000000 1.000000 -0.000000
vn 0.000000 1.000000 0.000000
vn 0.000000 1.000000 0.000000
vn 0.000000 1.000000 -0.000000
vn 0.000000 1.000000 0.000000
vn 0.000000 1.000000 -0.000000
vn 0.000000 1.000000 0.000000
vn 0.000000 1.000000 -0.000000
vn 0.000000 1.000000 -0.000000
vn 0.000000 1.000000 0.000000
vn 0.000000 1.000000 0.000000
vn 0.000000 1.000000 0.000000
vn 0.000000 1.000000 -0.000000
vn 0.000000 1.000000 0.000000
vn 0.000000 1.000000 0.000000
vn 0.000000 1.000000 0.000000
vn 0.000000 1.000000 0.000000
vn 0.000000 1.000000 0.000000
vn 0.000000 1.000000 0.000000
vn 0.000000 1.000000 0.000000
vn 0.000000 1.000000 0.000000
vn 0.000000 1.000000 -0.000000
vn 0.000000 1.000000 -0.000000
vn 0.000000 1.000000 -0.000000
vn 0.000000 1.000000 -0.000000
vn 0.000000 1.000000 -0.000000
vn 0.000000 1.000000 -0.000000
vn 0.000000 1.000000 -0.000000
vn 0.000000 1.000000 -0.000000
vn 0.000000 1.000000 0.000000
vn 0.000000 1.000000 0.000000
vn 0.000000 1.000000 0.000000
vn 0.000000 1.000000 0.000000
vn 0.000000 1.000000 -0.000000
vn 0.000000 1.000000 -0.000000
vn 0.000000 1.000000 -0.000000
vn 0.000000 1.000000 -0.000000
vn 0.000000 1.000000 0.000000
vn 0.000000 1.000000 0.000000
vn 0.000000 1.000000 0.000000
vn 0.000000 1.000000 0.000000
vn 0.000000 1.000000 0.000000
vn 0.000000 1.000000 0.000000
vn 0.000000 1.000000 0.000000
vn 0.000000 1.000000 0.000000
vn 0.000000 1.000000 0.000000
vn 0.000000 1.000000 0.000000
vn 0.000000 1.000000 0.000000
vn 0.000000 1.000000 0.000000
vn 0.000000 1.000000 0.000000
vn 0.000000 1.000000 0.000000
vn 0.000000 1.000000 0.000000
vn 0.000000 1.000000 0.000000
vn 0.000000 1.000000 0.000000
vn 0.000000 1.000000 0.000000
vn 0.000000 1.000000 0.000000
vn 0.000000 1.000000 0.000000
vn 0.000000 1.000000 -0.000000
vn 0.000000 1.000000 -0.000000
vn 0.000000 1.000000 -0.000000
vn 0.000000 1.000000 -0.000000
vn 0.000000 1.000000 0.000000
vn 0.000000 1.000000 0.000000
vn 0.000000 1.000000 0.000000
vn 0.000000 1.000000 0.000000
vn 0.000000 1.000000 0.000000
vn 0.000000 1.000000 0.000000
vn 0.000000 1.000000 0.000000
vn 0.000000 1.000000 0.000000
vn 0.000000 1.000000 -0.000000
vn 0.000000 1.000000 -0.000000
vn 0.000000 1.000000 -0.000000
vn 0.000000 1.000000 -0.000000
vn 0.000000 1.000000 0.000000
vn 0.000000 1.000000 0.000000
vn 0.000000 1.000000 0.000000
vn 0.000000 1.000000 0.000000
vn 0.000000 1.000000 0.000000
vn 0.000000 1.000000 0.000000
vn 0.000000 1.000000 0.000000
vn 0.000000 1.000000 0.000000
vn 0.000000 1.000000 -0.000000
vn 0.000000 1.000000 -0.000000
vn 0.000000 1.000000 -0.000000
vn 0.000000 1.000000 -0.000000
vn 0.000000 1.000000 0.000000
vn 0.000000 1.000000 0.000000
vn 0.000000 1.000000 0.000000
vn 0.000000 1.000000 0.000000
vn 0.000000 1.000000 0.000000
vn 0.000000 1.000000 0.000000
vn 0.000000 1.000000 0.000000
vn 0.000000 1.000000 0.000000
vn 0.000000 1.000000 -0.000000
vn 0.000000 1.000000 -0.000000
vn 0.000000 1.000000 -0.000000
vn 0.000000 1.000000 -0.000000
vn 0.000000 1.000000 -0.000000
vn 0.000000 1.000000 -0.000000
vn 0.000000 1.000000 -0.000000
vn 0.000000 1.000000 -0.000000
vn 0.000000 1.000000 0.000000
vn 0.000000 1.000000 0.000000
vn 0.000000 1.000000 0.000000
vn 0.000000 1.000000 0.000000
vn 0.000000 1.000000 0.000000
vn 0.000000 1.000000 0.000000
vn 0.000000 1.000000 0.000000
vn 0.000000 1.000000 0.000000
vn 0.000000 1.000000 0.000000
vn 0.000000 1.000000 0.000000
vn 0.000000 1.000000 0.000000
vn 0.000000 1.000000 0.000000
vn 0.000000 1.000000 0.000000
vn 0.000000 1.000000 0.000000
vn 0.000000 1.000000 0.000000
vn 0.000000 1.000000 0.000000
vn 0.000000 1.000000 0.000000
vn 0.000000 1.000000 0.000000
vn 0.000000 1.000000 0.000000
vn 0.000000 1.000000 0.000000
vn -1.000000 0.000000 0.000000
vn -1.000000 0.000000 0.000000
vn -1.000000 0.000000 0.000000
vn -1.000000 0.000000 0.000000
vn -0.000002 0.000000 1.000000
vn -0.000002 0.000000 1.000000
vn -0.000002 0.000000 1.000000
vn -0.000002 0.000000 1.000000
vn 1.000000 0.000000 0.000000
vn 1.000000 0.000000 0.000000
vn 1.000000 0.000000 0.000000
vn 1.000000 0.000000 0.000000
vn 0.000002 0.000000 -1.000000
vn 0.000002 0.000000 -1.000000
vn 0.000002 0.000000 -1.000000
vn 0.000002 0.000000 -1.000000
vn -0.923880 0.000000 0.382682
vn -0.923880 0.000000 0.382682
vn -0.923880 0.000000 0.382682
vn -0.923880 0.000000 0.382682
vn -0.382681 0.000000 0.923881
vn -0.382681 0.000000 0.923881
vn -0.382681 0.000000 0.923881
vn -0.382681 0.000000 0.923881
vn 0.382690 0.000000 0.923877
vn 0.382690 0.000000 0.923877
vn 0.382690 0.000000 0.923877
vn 0.382690 0.000000 0.923877
vn 0.923881 0.000000 0.382679
vn 0.923881 0.000000 0.382679
vn 0.923881 0.000000 0.382679
vn 0.923881 0.000000 0.382679
vn 0.923877 0.000000 -0.382689
vn 0.923877 0.000000 -0.382689
vn 0.923877 0.000000 -0.382689
vn 0.923877 0.000000 -0.382689
vn 0.382690 0.000000 -0.923877
vn 0.382690 0.000000 -0.923877
vn 0.382690 0.000000 -0.923877
vn 0.382690 0.000000 -0.923877
vn -0.382708 0.000000 -0.923869
vn -0.382708 0.000000 -0.923869
vn -0.382708 0.000000 -0.923869
vn -0.382708 0.000000 -0.923869
vn -0.923876 0.000000 -0.382693
vn -0.923876 0.000000 -0.382693
vn -0.923876 0.000000 -0.382693
vn -0.923876 0.000000 -0.382693
vn 0.000000 -1.000000 0.000000
vn 0.000000 -1.000000 0.000000
vn 0.000000 -1.000000 0.000000
vn 0.000000 -1.000000 -0.000000
vn 0.000000 -1.000000 -0.000000
vn 0.000000 -1.000000 -0.000000
vn -0.000000 -1.000000 0.000000
vn -0.000000 -1.000000 0.000000
vn -0.000000 -1.000000 0.000000
vn -0.000000 -1.000000 0.000000
vn -0.000000 -1.000000 0.000000
vn -0.000000 -1.000000 0.000000
vn 0.000000 -1.000000 -0.000000
vn 0.000000 -1.000000 -0.000000
vn 0.000000 -1.000000 -0.000000
vn 0.000000 -1.000000 -0.000000
vn 0.000000 -1.000000 -0.000000
vn 0.000000 -1.000000 -0.000000
vn -0.000000 -1.000000 -0.000000
vn -0.000000 -1.000000 -0.000000
vn -0.000000 -1.000000 -0.000000
vn -0.000000 -1.000000 -0.000000
vn -0.000000 -1.000000 -0.000000
vn -0.000000 -1.000000 -0.000000
vn -0.000000 -1.000000 0.000000
vn -0.000000 -1.000000 0.000000
vn -0.000000 -1.000000 0.000000
vn -0.000000 -1.000000 0.000000
vn -0.000000 -1.000000 0.000000
vn -0.000000 -1.000000 0.000000
vn 0.000000 -1.000000 0.000000
vn 0.000000 -1.000000 0.000000
vn 0.000000 -1.000000 0.000000
vn 0.000000 -1.000000 0.000000
vn 0.000000 -1.000000 0.000000
vn 0.000000 -1.000000 0.000000
s off
f 25/1/1 27/2/2 26/3/3
f 26/3/4 27/2/5 32/4/6
f 27/2/7 28/5/8 32/4/9
f 30/6/10 31/7/11 29/8/12
f 31/7/13 32/4/14 29/8/15
f 28/5/16 29/8/17 32/4/18
f 26/9/19 33/10/20 25/11/21
f 28/12/22 27/13/23 34/14/24
f 30/15/25 29/16/26 35/17/27
f 32/18/28 31/19/29 36/20/30
f 3/21/31 5/22/32 15/23/33 13/24/34
f 4/25/35 8/26/36 17/27/37 16/28/38
f 7/29/39 11/30/40 19/31/41 18/32/42
f 10/33/43 1/34/44 14/35/45 20/36/46
f 1/34/47 2/37/48 21/38/49 14/35/50
f 2/37/51 3/21/52 13/24/53 21/38/54
f 5/22/55 6/39/56 22/40/57 15/23/58
f 6/39/59 4/25/60 16/28/61 22/40/62
f 8/26/63 9/41/64 23/42/65 17/27/66
f 9/41/67 7/29/68 18/32/69 23/42/70
f 11/30/71 12/43/72 24/44/73 19/31/74
f 12/43/75 10/33/76 20/36/77 24/44/78
f 13/45/79 15/46/80 27/47/81 25/48/82
f 16/49/83 17/50/84 29/51/85 28/52/86
f 18/53/87 19/54/88 31/55/89 30/56/90
f 20/57/91 14/58/92 26/59/93 32/60/94
f 14/58/95 21/61/96 33/62/97 26/59/98
f 21/61/99 13/45/100 25/48/101 33/62/102
f 15/46/103 22/63/104 34/64/105 27/47/106
f 22/63/107 16/49/108 28/52/109 34/64/110
f 17/50/111 23/65/112 35/66/113 29/51/114
f 23/65/115 18/53/116 30/56/117 35/66/118
f 19/54/119 24/67/120 36/68/121 31/55/122
f 24/67/123 20/57/124 32/60/125 36/68/126
f 1/69/127 10/70/128 38/71/129 37/72/130
f 5/73/131 3/74/132 39/75/133 40/76/134
f 8/77/135 4/78/136 41/79/137 42/80/138
f 11/81/139 7/82/140 44/83/141 43/84/142
f 2/85/143 1/69/144 37/72/145 45/86/146
f 3/74/147 2/85/148 45/86/149 39/75/150
f 6/87/151 5/73/152 40/76/153 46/88/154
f 4/78/155 6/87/156 46/88/157 41/79/158
f 9/89/159 8/77/160 42/80/161 47/90/162
f 7/82/163 9/89/164 47/90/165 44/83/166
f 12/91/167 11/81/168 43/84/169 48/92/170
f 10/70/171 12/91/172 48/92/173 38/71/174
f 37/72/175 38/71/176 49/93/177
f 40/76/178 39/75/179 49/93/180
f 42/80/181 41/79/182 49/93/183
f 43/84/184 44/83/185 49/93/186
f 45/86/187 37/72/188 49/93/189
f 39/75/190 45/86/191 49/93/192
f 46/88/193 40/76/194 49/93/195
f 41/79/196 46/88/197 49/93/198
f 47/90/199 42/80/200 49/93/201
f 44/83/202 47/90/203 49/93/204
f 48/92/205 43/84/206 49/93/207
f 38/71/208 48/92/209 49/93/210
