# This file uses centimeters as units for non-parametric coordinates.

v 0.122107 0.113754 1.217448
v 0.159857 0.113754 1.217448
v 0.122107 0.151504 1.217448
v 0.159857 0.151504 1.217448
v 0.122107 0.151504 0.326722
v 0.159857 0.151504 0.326722
v 0.122107 0.113754 0.326722
v 0.159857 0.113754 0.326722
v 0.122107 -0.169534 1.217448
v 0.159857 -0.169534 1.217448
v 0.122107 -0.131784 1.217448
v 0.159857 -0.131784 1.217448
v 0.122107 -0.131784 0.326722
v 0.159857 -0.131784 0.326722
v 0.122107 -0.169534 0.326722
v 0.159857 -0.169534 0.326722
v -0.161181 -0.169534 1.217448
v -0.123431 -0.169534 1.217448
v -0.161181 -0.131784 1.217448
v -0.123431 -0.131784 1.217448
v -0.161181 -0.131784 0.326722
v -0.123431 -0.131784 0.326722
v -0.161181 -0.169534 0.326722
v -0.123431 -0.169534 0.326722
v -0.161181 0.113754 1.217448
v -0.123431 0.113754 1.217448
v -0.161181 0.151504 1.217448
v -0.123431 0.151504 1.217448
v -0.161181 0.151504 0.326722
v -0.123431 0.151504 0.326722
v -0.161181 0.113754 0.326722
v -0.123431 0.113754 0.326722
v -0.153606 -0.161960 0.781951
v 0.152283 -0.161960 0.781951
v -0.153606 0.143929 0.781951
v 0.152283 0.143929 0.781951
v -0.153606 0.143929 0.764351
v 0.152283 0.143929 0.764351
v -0.153606 -0.161960 0.764351
v 0.152283 -0.161960 0.764351
v -0.132500 -0.140853 0.781951
v 0.131177 -0.140853 0.781951
v 0.131177 0.122823 0.781951
v -0.132500 0.122823 0.781951
v -0.132500 0.122823 0.764351
v 0.131177 0.122823 0.764351
v 0.131177 -0.140853 0.764351
v -0.132500 -0.140853 0.764351
v -0.153606 -0.161960 0.489965
v 0.152283 -0.161960 0.489965
v -0.153606 0.143929 0.489965
v 0.152283 0.143929 0.489965
v -0.153606 0.143929 0.472365
v 0.152283 0.143929 0.472365
v -0.153606 -0.161960 0.472365
v 0.152283 -0.161960 0.472365
v -0.132500 -0.140853 0.489965
v 0.131177 -0.140853 0.489965
v 0.131177 0.122823 0.489965
v -0.132500 0.122823 0.489965
v -0.132500 0.122823 0.472365
v 0.131177 0.122823 0.472365
v 0.131177 -0.140853 0.472365
v -0.132500 -0.140853 0.472365
v -0.153606 -0.161960 1.073937
v 0.152283 -0.161960 1.073937
v -0.153606 0.143929 1.073937
v 0.152283 0.143929 1.073937
v -0.153606 0.143929 1.056337
v 0.152283 0.143929 1.056337
v -0.153606 -0.161960 1.056337
v 0.152283 -0.161960 1.056337
v -0.132500 -0.140853 1.073937
v 0.131177 -0.140853 1.073937
v 0.131177 0.122823 1.073937
v -0.132500 0.122823 1.073937
v -0.132500 0.122823 1.056337
v 0.131177 0.122823 1.056337
v 0.131177 -0.140853 1.056337
v -0.132500 -0.140853 1.056337
v -0.311574 -0.289535 0.191714
v 0.311574 -0.289535 0.191714
v -0.311574 0.289535 0.191714
v 0.311574 0.289535 0.191714
v -0.311574 0.289535 0.000000
v 0.311574 0.289535 0.000000
v -0.311574 -0.289535 0.000000
v 0.311574 -0.289535 0.000000
v -0.247187 -0.222578 0.191714
v 0.247187 -0.222578 0.191714
v 0.247187 0.222578 0.191714
v -0.247187 0.222578 0.191714
v -0.247187 -0.222578 0.326722
v 0.247187 -0.222578 0.288855
v 0.247187 0.222578 0.326722
v -0.174321 0.222578 0.326722
v -0.247187 0.222578 0.264027
v -0.247187 0.113589 0.326721
v -0.028161 0.222578 0.326722
v 0.118377 0.222578 0.326722
v 0.054630 0.222578 0.300461
v 0.069660 0.169764 0.326721
v -0.127616 -0.222578 0.326722
v 0.037239 -0.222578 0.326722
v -0.022938 -0.199882 0.326721
v -0.017483 -0.222578 0.258516
v 0.207612 -0.222578 0.326722
v 0.247187 -0.188929 0.326722
v 0.034265 0.289535 0.191715
v 0.199654 0.289535 0.191714
v 0.113097 0.289535 0.152146
v 0.113867 0.264718 0.191714
vt 0.112179 0.277582
vt 0.112179 0.277582
vt 0.112179 0.277582
vt 0.112179 0.277582
vt 0.112179 0.277582
vt 0.112179 0.277582
vt 0.112179 0.277582
vt 0.112179 0.277582
vt 0.112179 0.277582
vt 0.112179 0.277582
vt 0.112179 0.277582
vt 0.112179 0.277582
vt 0.112179 0.277582
vt 0.112179 0.277582
vt 0.112179 0.277582
vt 0.112179 0.277582
vt 0.112179 0.277582
vt 0.112179 0.277582
vt 0.112179 0.277582
vt 0.112179 0.277582
vt 0.112179 0.277582
vt 0.112179 0.277582
vt 0.112179 0.277582
vt 0.112179 0.277582
vt 0.112179 0.277582
vt 0.112179 0.277582
vt 0.112179 0.277582
vt 0.112179 0.277582
vt 0.112179 0.277582
vt 0.112179 0.277582
vt 0.112179 0.277582
vt 0.112179 0.277582
vt 0.112179 0.277582
vt 0.112179 0.277582
vt 0.112179 0.277582
vt 0.112179 0.277582
vt 0.112179 0.277582
vt 0.112179 0.277582
vt 0.112179 0.277582
vt 0.112179 0.277582
vt 0.112179 0.277582
vt 0.112179 0.277582
vt 0.112179 0.277582
vt 0.112179 0.277582
vt 0.112179 0.277582
vt 0.112179 0.277582
vt 0.112179 0.277582
vt 0.112179 0.277582
vt 0.112179 0.277582
vt 0.112179 0.277582
vt 0.112179 0.277582
vt 0.112179 0.277582
vt 0.112179 0.277582
vt 0.112179 0.277582
vt 0.112179 0.277582
vt 0.112179 0.277582
vt 0.112179 0.277582
vt 0.112179 0.277582
vt 0.112179 0.277582
vt 0.112179 0.277582
vt 0.112179 0.277582
vt 0.112179 0.277582
vt 0.112179 0.277582
vt 0.112179 0.277582
vt 0.112179 0.277582
vt 0.112179 0.277582
vt 0.112179 0.277582
vt 0.112179 0.277582
vt 0.112179 0.277582
vt 0.112179 0.277582
vt 0.112179 0.277582
vt 0.112179 0.277582
vt 0.112179 0.277582
vt 0.112179 0.277582
vt 0.112179 0.277582
vt 0.112179 0.277582
vt 0.112179 0.277582
vt 0.112179 0.277582
vt 0.112179 0.277582
vt 0.112179 0.277582
vt 0.112179 0.277582
vt 0.112179 0.277582
vt 0.112179 0.277582
vt 0.112179 0.277582
vt 0.112179 0.277582
vt 0.112179 0.277582
vt 0.112179 0.277582
vt 0.112179 0.277582
vt 0.112179 0.277582
vt 0.112179 0.277582
vt 0.112179 0.277582
vt 0.112179 0.277582
vt 0.112179 0.277582
vt 0.112179 0.277582
vt 0.112179 0.277582
vt 0.112179 0.277582
vt 0.112179 0.277582
vt 0.112179 0.277582
vt 0.112179 0.277582
vt 0.112179 0.277582
vt 0.112179 0.277582
vt 0.112179 0.277582
vt 0.112179 0.277582
vt 0.112179 0.277582
vt 0.112179 0.277582
vt 0.112179 0.277582
vt 0.112179 0.277582
vt 0.112179 0.277582
vt 0.112179 0.277582
vt 0.112179 0.277582
vt 0.112179 0.277582
vt 0.112179 0.277582
vt 0.112179 0.277582
vt 0.112179 0.277582
vt 0.112179 0.277582
vt 0.112179 0.277582
vt 0.112179 0.277582
vt 0.112179 0.277582
vt 0.112179 0.277582
vt 0.112179 0.277582
vt 0.112179 0.277582
vt 0.112179 0.277582
vt 0.112179 0.277582
vt 0.112179 0.277582
vt 0.112179 0.277582
vt 0.112179 0.277582
vt 0.112179 0.277582
vt 0.112179 0.277582
vt 0.112179 0.277582
vt 0.112179 0.277582
vt 0.112179 0.277582
vt 0.112179 0.277582
vt 0.112179 0.277582
vt 0.112179 0.277582
vt 0.112179 0.277582
vt 0.112179 0.277582
vt 0.112179 0.277582
vt 0.112179 0.277582
vt 0.112179 0.277582
vt 0.112179 0.277582
vt 0.112179 0.277582
vt 0.112179 0.277582
vt 0.112179 0.277582
vt 0.112179 0.277582
vt 0.112179 0.277582
vt 0.112179 0.277582
vt 0.112179 0.277582
vt 0.112179 0.277582
vt 0.112179 0.277582
vt 0.112179 0.277582
vt 0.112179 0.277582
vt 0.112179 0.277582
vt 0.112179 0.277582
vt 0.112179 0.277582
vt 0.112179 0.277582
vt 0.112179 0.277582
vt 0.112179 0.277582
vt 0.112179 0.277582
vt 0.112179 0.277582
vt 0.112179 0.277582
vt 0.112179 0.277582
vt 0.112179 0.277582
vt 0.112179 0.277582
vt 0.112179 0.277582
vt 0.112179 0.277582
vt 0.112179 0.277582
vt 0.112179 0.277582
vt 0.112179 0.277582
vt 0.112179 0.277582
vt 0.112179 0.277582
vt 0.112179 0.277582
vt 0.112179 0.277582
vt 0.112179 0.277582
vt 0.112179 0.277582
vt 0.112179 0.277582
vt 0.112179 0.277582
vt 0.102868 0.300544
vt 0.102868 0.300544
vt 0.102868 0.300544
vt 0.102868 0.300544
vt 0.102868 0.300544
vt 0.102868 0.300544
vt 0.102868 0.300544
vt 0.102868 0.300544
vt 0.102868 0.300544
vt 0.102868 0.300544
vt 0.102868 0.300544
vt 0.102868 0.300544
vt 0.102868 0.300544
vt 0.102868 0.300544
vt 0.102868 0.300544
vt 0.102868 0.300544
vt 0.102868 0.300544
vt 0.102868 0.300544
vt 0.102868 0.300544
vt 0.102868 0.300544
vt 0.102868 0.300544
vt 0.102868 0.300544
vt 0.102868 0.300544
vt 0.102868 0.300544
vt 0.102868 0.300544
vt 0.102868 0.300544
vt 0.102868 0.300544
vt 0.102868 0.300544
vt 0.102868 0.300544
vt 0.102868 0.300544
vt 0.102868 0.300544
vt 0.102868 0.300544
vt 0.102868 0.300544
vt 0.102868 0.300544
vt 0.102868 0.300544
vt 0.102868 0.300544
vt 0.102868 0.300544
vt 0.102868 0.300544
vt 0.102868 0.300544
vt 0.102868 0.300544
vt 0.102868 0.300544
vt 0.102868 0.300544
vt 0.102868 0.300544
vt 0.102868 0.300544
vt 0.102868 0.300544
vt 0.102868 0.300544
vt 0.102868 0.300544
vt 0.102868 0.300544
vt 0.102868 0.300544
vt 0.102868 0.300544
vt 0.102868 0.300544
vn 0.000000 0.000000 1.000000
vn 0.000000 0.000000 1.000000
vn 0.000000 0.000000 1.000000
vn 0.000000 0.000000 1.000000
vn 0.000000 1.000000 0.000000
vn 0.000000 1.000000 0.000000
vn 0.000000 1.000000 0.000000
vn 0.000000 1.000000 0.000000
vn 0.000000 -1.000000 0.000000
vn 0.000000 -1.000000 0.000000
vn 0.000000 -1.000000 0.000000
vn 0.000000 -1.000000 0.000000
vn 1.000000 0.000000 0.000000
vn 1.000000 0.000000 0.000000
vn 1.000000 0.000000 0.000000
vn 1.000000 0.000000 0.000000
vn -1.000000 0.000000 0.000000
vn -1.000000 0.000000 0.000000
vn -1.000000 0.000000 0.000000
vn -1.000000 0.000000 0.000000
vn 0.000000 0.000000 1.000000
vn 0.000000 0.000000 1.000000
vn 0.000000 0.000000 1.000000
vn 0.000000 0.000000 1.000000
vn 0.000000 1.000000 0.000000
vn 0.000000 1.000000 0.000000
vn 0.000000 1.000000 0.000000
vn 0.000000 1.000000 0.000000
vn 0.000000 -1.000000 0.000000
vn 0.000000 -1.000000 0.000000
vn 0.000000 -1.000000 0.000000
vn 0.000000 -1.000000 0.000000
vn 1.000000 0.000000 0.000000
vn 1.000000 0.000000 0.000000
vn 1.000000 0.000000 0.000000
vn 1.000000 0.000000 0.000000
vn -1.000000 0.000000 0.000000
vn -1.000000 0.000000 0.000000
vn -1.000000 0.000000 0.000000
vn -1.000000 0.000000 0.000000
vn 0.000000 0.000000 1.000000
vn 0.000000 0.000000 1.000000
vn 0.000000 0.000000 1.000000
vn 0.000000 0.000000 1.000000
vn 0.000000 1.000000 0.000000
vn 0.000000 1.000000 0.000000
vn 0.000000 1.000000 0.000000
vn 0.000000 1.000000 0.000000
vn 0.000000 -1.000000 0.000000
vn 0.000000 -1.000000 0.000000
vn 0.000000 -1.000000 0.000000
vn 0.000000 -1.000000 0.000000
vn 1.000000 0.000000 0.000000
vn 1.000000 0.000000 0.000000
vn 1.000000 0.000000 0.000000
vn 1.000000 0.000000 0.000000
vn -1.000000 0.000000 0.000000
vn -1.000000 0.000000 0.000000
vn -1.000000 0.000000 0.000000
vn -1.000000 0.000000 0.000000
vn 0.000000 0.000000 1.000000
vn 0.000000 0.000000 1.000000
vn 0.000000 0.000000 1.000000
vn 0.000000 0.000000 1.000000
vn 0.000000 1.000000 0.000000
vn 0.000000 1.000000 0.000000
vn 0.000000 1.000000 0.000000
vn 0.000000 1.000000 0.000000
vn 0.000000 -1.000000 0.000000
vn 0.000000 -1.000000 0.000000
vn 0.000000 -1.000000 0.000000
vn 0.000000 -1.000000 0.000000
vn 1.000000 0.000000 0.000000
vn 1.000000 0.000000 0.000000
vn 1.000000 0.000000 0.000000
vn 1.000000 0.000000 0.000000
vn -1.000000 0.000000 0.000000
vn -1.000000 0.000000 0.000000
vn -1.000000 0.000000 0.000000
vn -1.000000 0.000000 0.000000
vn 0.000000 1.000000 0.000000
vn 0.000000 1.000000 0.000000
vn 0.000000 1.000000 0.000000
vn 0.000000 1.000000 0.000000
vn 0.000000 -1.000000 0.000000
vn 0.000000 -1.000000 0.000000
vn 0.000000 -1.000000 0.000000
vn 0.000000 -1.000000 0.000000
vn 1.000000 0.000000 0.000000
vn 1.000000 0.000000 0.000000
vn 1.000000 0.000000 0.000000
vn 1.000000 0.000000 0.000000
vn -1.000000 0.000000 0.000000
vn -1.000000 0.000000 0.000000
vn -1.000000 0.000000 0.000000
vn -1.000000 0.000000 0.000000
vn 0.000000 0.000000 1.000000
vn 0.000000 0.000000 1.000000
vn 0.000000 0.000000 1.000000
vn 0.000000 0.000000 1.000000
vn 0.000001 0.000000 1.000000
vn 0.000001 0.000000 1.000000
vn 0.000001 0.000000 1.000000
vn 0.000001 0.000000 1.000000
vn 0.000000 0.000000 1.000000
vn 0.000000 0.000000 1.000000
vn 0.000000 0.000000 1.000000
vn 0.000000 0.000000 1.000000
vn 0.000001 0.000000 1.000000
vn 0.000001 0.000000 1.000000
vn 0.000001 0.000000 1.000000
vn 0.000001 0.000000 1.000000
vn 0.000000 0.000000 -1.000000
vn 0.000000 0.000000 -1.000000
vn 0.000000 0.000000 -1.000000
vn 0.000000 0.000000 -1.000000
vn 0.000002 0.000000 -1.000000
vn 0.000002 0.000000 -1.000000
vn 0.000002 0.000000 -1.000000
vn 0.000002 0.000000 -1.000000
vn 0.000000 0.000000 -1.000000
vn 0.000000 0.000000 -1.000000
vn 0.000000 0.000000 -1.000000
vn 0.000000 0.000000 -1.000000
vn -0.000001 0.000000 -1.000000
vn -0.000001 0.000000 -1.000000
vn -0.000001 0.000000 -1.000000
vn -0.000001 0.000000 -1.000000
vn 0.000000 -1.000000 0.000000
vn 0.000000 -1.000000 0.000000
vn 0.000000 -1.000000 0.000000
vn 0.000000 -1.000000 0.000000
vn 1.000000 0.000000 0.000000
vn 1.000000 0.000000 0.000000
vn 1.000000 0.000000 0.000000
vn 1.000000 0.000000 0.000000
vn -1.000000 0.000000 0.000000
vn -1.000000 0.000000 0.000000
vn -1.000000 0.000000 0.000000
vn -1.000000 0.000000 0.000000
vn 0.000000 1.000000 0.000000
vn 0.000000 1.000000 0.000000
vn 0.000000 1.000000 0.000000
vn 0.000000 1.000000 0.000000
vn 0.000000 1.000000 0.000000
vn 0.000000 1.000000 0.000000
vn 0.000000 1.000000 0.000000
vn 0.000000 1.000000 0.000000
vn 0.000000 -1.000000 0.000000
vn 0.000000 -1.000000 0.000000
vn 0.000000 -1.000000 0.000000
vn 0.000000 -1.000000 0.000000
vn 1.000000 0.000000 0.000000
vn 1.000000 0.000000 0.000000
vn 1.000000 0.000000 0.000000
vn 1.000000 0.000000 0.000000
vn -1.000000 0.000000 0.000000
vn -1.000000 0.000000 0.000000
vn -1.000000 0.000000 0.000000
vn -1.000000 0.000000 0.000000
vn 0.000000 0.000000 1.000000
vn 0.000000 0.000000 1.000000
vn 0.000000 0.000000 1.000000
vn 0.000000 0.000000 1.000000
vn -0.000001 0.000000 1.000000
vn -0.000001 0.000000 1.000000
vn -0.000001 0.000000 1.000000
vn -0.000001 0.000000 1.000000
vn 0.000000 0.000000 1.000000
vn 0.000000 0.000000 1.000000
vn 0.000000 0.000000 1.000000
vn 0.000000 0.000000 1.000000
vn 0.000001 0.000000 1.000000
vn 0.000001 0.000000 1.000000
vn 0.000001 0.000000 1.000000
vn 0.000001 0.000000 1.000000
vn 0.000000 0.000000 -1.000000
vn 0.000000 0.000000 -1.000000
vn 0.000000 0.000000 -1.000000
vn 0.000000 0.000000 -1.000000
vn 0.000000 0.000000 -1.000000
vn 0.000000 0.000000 -1.000000
vn 0.000000 0.000000 -1.000000
vn 0.000000 0.000000 -1.000000
vn 0.000000 0.000000 -1.000000
vn 0.000000 0.000000 -1.000000
vn 0.000000 0.000000 -1.000000
vn 0.000000 0.000000 -1.000000
vn -0.000000 0.000000 -1.000000
vn -0.000000 0.000000 -1.000000
vn -0.000000 0.000000 -1.000000
vn -0.000000 0.000000 -1.000000
vn 0.000000 -1.000000 0.000000
vn 0.000000 -1.000000 0.000000
vn 0.000000 -1.000000 0.000000
vn 0.000000 -1.000000 0.000000
vn 1.000000 0.000000 0.000000
vn 1.000000 0.000000 0.000000
vn 1.000000 0.000000 0.000000
vn 1.000000 0.000000 0.000000
vn -1.000000 0.000000 0.000000
vn -1.000000 0.000000 0.000000
vn -1.000000 0.000000 0.000000
vn -1.000000 0.000000 0.000000
vn 0.000000 1.000000 0.000000
vn 0.000000 1.000000 0.000000
vn 0.000000 1.000000 0.000000
vn 0.000000 1.000000 0.000000
vn 0.000000 1.000000 0.000000
vn 0.000000 1.000000 0.000000
vn 0.000000 1.000000 0.000000
vn 0.000000 1.000000 0.000000
vn 0.000000 -1.000000 0.000000
vn 0.000000 -1.000000 0.000000
vn 0.000000 -1.000000 0.000000
vn 0.000000 -1.000000 0.000000
vn 1.000000 0.000000 0.000000
vn 1.000000 0.000000 0.000000
vn 1.000000 0.000000 0.000000
vn 1.000000 0.000000 0.000000
vn -1.000000 0.000000 0.000000
vn -1.000000 0.000000 0.000000
vn -1.000000 0.000000 0.000000
vn -1.000000 0.000000 0.000000
vn 0.000000 0.000000 1.000000
vn 0.000000 0.000000 1.000000
vn 0.000000 0.000000 1.000000
vn 0.000000 0.000000 1.000000
vn -0.000003 0.000000 1.000000
vn -0.000003 0.000000 1.000000
vn -0.000003 0.000000 1.000000
vn -0.000003 0.000000 1.000000
vn 0.000000 0.000000 1.000000
vn 0.000000 0.000000 1.000000
vn 0.000000 0.000000 1.000000
vn 0.000000 0.000000 1.000000
vn 0.000003 0.000000 1.000000
vn 0.000003 0.000000 1.000000
vn 0.000003 0.000000 1.000000
vn 0.000003 0.000000 1.000000
vn 0.000000 0.000000 -1.000000
vn 0.000000 0.000000 -1.000000
vn 0.000000 0.000000 -1.000000
vn 0.000000 0.000000 -1.000000
vn 0.000001 0.000000 -1.000000
vn 0.000001 0.000000 -1.000000
vn 0.000001 0.000000 -1.000000
vn 0.000001 0.000000 -1.000000
vn 0.000000 0.000000 -1.000000
vn 0.000000 0.000000 -1.000000
vn 0.000000 0.000000 -1.000000
vn 0.000000 0.000000 -1.000000
vn -0.000000 0.000000 -1.000000
vn -0.000000 0.000000 -1.000000
vn -0.000000 0.000000 -1.000000
vn -0.000000 0.000000 -1.000000
vn 0.000000 -1.000000 0.000000
vn 0.000000 -1.000000 0.000000
vn 0.000000 -1.000000 0.000000
vn 0.000000 -1.000000 0.000000
vn 1.000000 0.000000 0.000000
vn 1.000000 0.000000 0.000000
vn 1.000000 0.000000 0.000000
vn 1.000000 0.000000 0.000000
vn -1.000000 0.000000 0.000000
vn -1.000000 0.000000 0.000000
vn -1.000000 0.000000 0.000000
vn -1.000000 0.000000 0.000000
vn 0.000000 1.000000 0.000000
vn 0.000000 1.000000 0.000000
vn 0.000000 1.000000 0.000000
vn 0.000000 1.000000 0.000000
vn 0.000000 1.000000 0.000000
vn 0.000000 1.000000 0.000000
vn 0.000000 1.000000 0.000000
vn 0.000000 1.000000 0.000000
vn 0.000000 1.000000 0.000000
vn 0.000000 0.000000 -1.000000
vn 0.000000 0.000000 -1.000000
vn 0.000000 0.000000 -1.000000
vn 0.000000 0.000000 -1.000000
vn 0.000000 -1.000000 0.000000
vn 0.000000 -1.000000 0.000000
vn 0.000000 -1.000000 0.000000
vn 0.000000 -1.000000 0.000000
vn 1.000000 0.000000 0.000000
vn 1.000000 0.000000 0.000000
vn 1.000000 0.000000 0.000000
vn 1.000000 0.000000 0.000000
vn -1.000000 0.000000 0.000000
vn -1.000000 0.000000 0.000000
vn -1.000000 0.000000 0.000000
vn -1.000000 0.000000 0.000000
vn 0.000000 0.000000 1.000000
vn 0.000000 0.000000 1.000000
vn 0.000000 0.000000 1.000000
vn 0.000000 0.000000 1.000000
vn -0.000000 0.000000 1.000000
vn -0.000000 0.000000 1.000000
vn -0.000000 0.000000 1.000000
vn -0.000000 0.000000 1.000000
vn 0.000000 0.000000 1.000000
vn 0.000000 0.000000 1.000000
vn 0.000000 0.000000 1.000000
vn 0.000000 0.000000 1.000000
vn 1.000000 -0.000000 0.000000
vn 1.000000 -0.000000 0.000000
vn 1.000000 -0.000000 0.000000
vn 1.000000 -0.000000 0.000000
vn 1.000000 -0.000000 0.000000
vn -0.597852 0.399701 0.694847
vn -0.597852 0.399701 0.694847
vn -0.597852 0.399701 0.694847
vn -1.000000 0.000000 0.000000
vn -1.000000 0.000000 0.000000
vn -1.000000 0.000000 0.000000
vn -1.000000 0.000000 0.000000
vn -1.000000 0.000000 0.000000
vn 0.000001 0.000001 1.000000
vn 0.000001 0.000001 1.000000
vn 0.000001 0.000001 1.000000
vn 0.000001 0.000001 1.000000
vn 0.000001 0.000001 1.000000
vn 0.000000 1.000000 0.000002
vn 0.000000 1.000000 0.000002
vn 0.000000 1.000000 0.000002
vn 0.263807 0.488603 0.831669
vn 0.263807 0.488604 0.831669
vn 0.263807 0.488603 0.831669
vn 0.200484 -0.924667 0.323723
vn 0.200484 -0.924667 0.323723
vn 0.200484 -0.924667 0.323723
vn -0.339542 -0.900279 0.272413
vn -0.339542 -0.900279 0.272413
vn -0.339542 -0.900279 0.272413
vn -0.359365 0.331483 0.872339
vn -0.359365 0.331483 0.872339
vn -0.359365 0.331483 0.872339
vn 0.536407 -0.630864 0.560605
vn 0.536407 -0.630864 0.560605
vn 0.536407 -0.630864 0.560605
vn 0.256012 0.821161 0.510052
vn 0.256012 0.821161 0.510052
vn 0.256012 0.821161 0.510052
vn -0.237458 0.820843 0.519452
vn -0.237458 0.820843 0.519452
vn -0.237458 0.820843 0.519452
vn -0.000003 -0.000000 1.000000
vn -0.000003 -0.000000 1.000000
vn -0.000003 -0.000000 1.000000
vn -0.000003 -0.000000 1.000000
vn -0.000001 0.000001 1.000000
vn -0.000001 0.000001 1.000000
vn -0.000001 0.000001 1.000000
vn -0.000001 0.000001 1.000000
vn -0.000001 0.000001 1.000000
vn -0.000000 -0.000004 1.000000
vn -0.000000 -0.000004 1.000000
vn -0.000000 -0.000004 1.000000
vn -0.000000 -0.000004 1.000000
vn -0.000000 -0.000004 1.000000
vn 0.000000 0.000000 1.000000
vn 0.000000 0.000000 1.000000
vn 0.000000 0.000000 1.000000
vn 0.000000 0.000000 1.000000
vn 0.000001 1.000000 -0.000002
vn 0.000001 1.000000 -0.000002
vn 0.000001 1.000000 -0.000002
vn 0.000001 1.000000 -0.000002
vn 0.000001 1.000000 -0.000002
vn -0.000001 1.000000 -0.000001
vn -0.000001 1.000000 -0.000001
vn -0.000001 1.000000 -0.000001
vn -0.000001 1.000000 -0.000001
vn 0.000000 1.000000 0.000000
vn 0.000000 1.000000 0.000000
vn 0.000000 1.000000 0.000000
vn 0.000000 1.000000 0.000000
vn 0.000000 -1.000000 0.000004
vn 0.000000 -1.000000 0.000004
vn 0.000000 -1.000000 0.000004
vn -0.000001 -1.000000 -0.000001
vn -0.000001 -1.000000 -0.000001
vn -0.000001 -1.000000 -0.000001
vn -0.000001 -1.000000 -0.000001
vn -0.000001 -1.000000 -0.000001
vn 0.000001 -1.000000 -0.000001
vn 0.000001 -1.000000 -0.000001
vn 0.000001 -1.000000 -0.000001
vn 0.000001 -1.000000 -0.000001
vn 0.000000 -0.000009 1.000000
vn 0.000000 -0.000009 1.000000
vn 0.000000 -0.000009 1.000000
vn 0.000000 -0.000009 1.000000
s off
f 1/15/1 2/2/2 4/17/3 3/19/4
f 3/3/5 4/18/6 6/5/7 5/16/8
f 7/6/9 8/13/10 2/8/11 1/7/12
f 2/14/13 8/9/14 6/10/15 4/4/16
f 7/11/17 1/1/18 3/20/19 5/12/20
f 9/21/21 10/22/22 12/23/23 11/24/24
f 11/25/25 12/26/26 14/27/27 13/28/28
f 15/29/29 16/30/30 10/31/31 9/32/32
f 10/33/33 16/34/34 14/35/35 12/36/36
f 15/37/37 9/38/38 11/39/39 13/40/40
f 17/41/41 18/42/42 20/43/43 19/44/44
f 19/45/45 20/46/46 22/47/47 21/48/48
f 23/49/49 24/50/50 18/51/51 17/52/52
f 18/53/53 24/54/54 22/55/55 20/56/56
f 23/57/57 17/58/58 19/59/59 21/60/60
f 25/61/61 26/62/62 28/63/63 27/64/64
f 27/65/65 28/66/66 30/67/67 29/68/68
f 31/69/69 32/70/70 26/71/71 25/72/72
f 26/73/73 32/74/74 30/75/75 28/76/76
f 31/77/77 25/78/78 27/79/79 29/80/80
f 35/81/81 36/82/82 38/83/83 37/84/84
f 39/85/85 40/86/86 34/87/87 33/88/88
f 34/89/89 40/90/90 38/91/91 36/92/92
f 39/93/93 33/94/94 35/95/95 37/96/96
f 33/97/97 34/98/98 42/99/99 41/100/100
f 34/98/101 36/101/102 43/102/103 42/99/104
f 36/101/105 35/103/106 44/104/107 43/102/108
f 35/103/109 33/97/110 41/100/111 44/104/112
f 37/105/113 38/106/114 46/107/115 45/108/116
f 38/106/117 40/109/118 47/110/119 46/107/120
f 40/109/121 39/111/122 48/112/123 47/110/124
f 39/111/125 37/105/126 45/108/127 48/112/128
f 43/102/129 44/104/130 45/108/131 46/107/132
f 44/104/133 41/100/134 48/112/135 45/108/136
f 43/102/137 46/107/138 47/110/139 42/99/140
f 42/99/141 47/110/142 48/112/143 41/100/144
f 51/113/145 52/114/146 54/115/147 53/116/148
f 55/117/149 56/118/150 50/119/151 49/120/152
f 50/121/153 56/122/154 54/123/155 52/124/156
f 55/125/157 49/126/158 51/127/159 53/128/160
f 49/129/161 50/130/162 58/131/163 57/132/164
f 50/130/165 52/133/166 59/134/167 58/131/168
f 52/133/169 51/135/170 60/136/171 59/134/172
f 51/135/173 49/129/174 57/132/175 60/136/176
f 53/137/177 54/138/178 62/139/179 61/140/180
f 54/138/181 56/141/182 63/142/183 62/139/184
f 56/141/185 55/143/186 64/144/187 63/142/188
f 55/143/189 53/137/190 61/140/191 64/144/192
f 59/134/193 60/136/194 61/140/195 62/139/196
f 60/136/197 57/132/198 64/144/199 61/140/200
f 59/134/201 62/139/202 63/142/203 58/131/204
f 58/131/205 63/142/206 64/144/207 57/132/208
f 67/145/209 68/146/210 70/147/211 69/148/212
f 71/149/213 72/150/214 66/151/215 65/152/216
f 66/153/217 72/154/218 70/155/219 68/156/220
f 71/157/221 65/158/222 67/159/223 69/160/224
f 65/161/225 66/162/226 74/163/227 73/164/228
f 66/162/229 68/165/230 75/166/231 74/163/232
f 68/165/233 67/167/234 76/168/235 75/166/236
f 67/167/237 65/161/238 73/164/239 76/168/240
f 69/169/241 70/170/242 78/171/243 77/172/244
f 70/170/245 72/173/246 79/174/247 78/171/248
f 72/173/249 71/175/250 80/176/251 79/174/252
f 71/175/253 69/169/254 77/172/255 80/176/256
f 75/166/257 76/168/258 77/172/259 78/171/260
f 76/168/261 73/164/262 80/176/263 77/172/264
f 75/166/265 78/171/266 79/174/267 74/163/268
f 74/163/269 79/174/270 80/176/271 73/164/272
f 111/177/273 86/178/274 85/179/275 83/180/276 109/181/277
f 85/182/278 86/183/279 88/184/280 87/185/281
f 87/186/282 88/187/283 82/188/284 81/189/285
f 82/190/286 88/191/287 86/192/288 84/193/289
f 87/194/290 81/195/291 83/196/292 85/197/293
f 81/198/294 82/199/295 90/200/296 89/201/297
f 82/199/298 84/202/299 91/203/300 90/200/301
f 83/204/302 81/198/303 89/201/304 92/205/305
f 90/200/306 91/203/307 95/206/308 108/207/309 94/208/310
f 97/209/311 98/210/312 96/211/313
f 92/205/314 89/201/315 93/212/316 98/210/317 97/209/318
f 102/213/319 98/210/320 93/212/321 103/214/322 105/215/323
f 91/203/324 92/205/325 101/216/326
f 102/213/327 101/216/328 99/217/329
f 103/214/330 106/218/331 105/215/332
f 105/215/333 106/218/334 104/219/335
f 100/220/336 101/216/337 102/213/338
f 108/207/339 107/221/340 94/208/341
f 109/222/342 112/223/343 111/224/344
f 111/224/345 112/223/346 110/225/347
f 102/213/348 105/215/349 95/206/350 100/220/351
f 95/206/352 105/215/353 104/219/354 107/221/355 108/207/356
f 112/223/357 109/222/358 83/204/359 92/205/360 91/203/361
f 84/202/362 110/225/363 112/223/364 91/203/365
f 101/216/366 92/205/367 97/209/368 96/211/369 99/217/370
f 91/203/371 101/216/372 100/220/373 95/206/374
f 86/178/375 111/177/376 110/226/377 84/227/378
f 106/218/379 89/201/380 90/200/381
f 106/218/382 90/200/383 94/208/384 107/221/385 104/219/386
f 106/218/387 103/214/388 93/212/389 89/201/390
f 102/213/391 99/217/392 96/211/393 98/210/394
