# This file uses centimeters as units for non-parametric coordinates.

v -0.233521 0.000000 0.293114
v 0.319092 0.000000 0.293114
v -0.233521 0.399099 0.293114
v 0.319092 0.399099 0.293114
v -0.233521 0.399099 -0.309181
v 0.319092 0.399099 -0.309181
v -0.233521 0.000000 -0.309181
v 0.319092 0.000000 -0.309181
v -0.214987 0.420825 0.276881
v 0.297693 0.420825 0.276881
v 0.297693 0.426634 -0.303843
v -0.214987 0.426634 -0.303843
v -0.214987 0.023500 0.276881
v 0.297693 0.023500 0.276881
v 0.297693 0.023500 -0.292193
v -0.214987 0.023500 -0.292193
v -0.233521 0.555265 0.524651
v 0.319092 0.555265 0.524651
v 0.287516 0.555265 0.508418
v -0.201956 0.555265 0.508418
v -0.233521 0.190516 -0.512321
v 0.319092 0.190516 -0.512321
v -0.227453 0.198012 -0.524646
v 0.313013 0.198012 -0.524646
v 0.418228 0.701858 0.293114
v 0.418228 0.701858 -0.309181
v 0.396830 0.701858 -0.280520
v 0.396830 0.701858 0.264453
v -0.418198 0.668120 0.293114
v -0.418198 0.668120 -0.309181
v -0.399664 0.668120 0.264453
v -0.399664 0.668120 -0.280520
vt 0.006983 0.326319
vt 0.006983 0.326319
vt 0.006983 0.326319
vt 0.006983 0.326319
vt 0.006983 0.326319
vt 0.006983 0.326319
vt 0.006983 0.326319
vt 0.006983 0.326319
vt 0.006983 0.326319
vt 0.006983 0.326319
vt 0.006983 0.326319
vt 0.006983 0.326319
vt 0.006983 0.326319
vt 0.006983 0.326319
vt 0.006983 0.326319
vt 0.006983 0.326319
vt 0.006983 0.326319
vt 0.006983 0.326319
vt 0.006983 0.326319
vt 0.006983 0.326319
vt 0.006983 0.326319
vt 0.006983 0.326319
vt 0.006983 0.326319
vt 0.006983 0.326319
vt 0.006983 0.326319
vt 0.006983 0.326319
vt 0.006983 0.326319
vt 0.006983 0.326319
vt 0.006983 0.326319
vt 0.006983 0.326319
vt 0.006983 0.326319
vt 0.006983 0.326319
vt 0.006983 0.326319
vt 0.006983 0.326319
vt 0.006983 0.326319
vt 0.006983 0.326319
vt 0.006983 0.326319
vt 0.006983 0.326319
vn 0.000000 0.000000 1.000000
vn 0.000000 0.000000 1.000000
vn 0.000000 0.000000 1.000000
vn 0.000000 0.000000 1.000000
vn 0.000000 1.000000 0.000000
vn 0.000000 1.000000 0.000000
vn 0.000000 1.000000 0.000000
vn 0.000000 1.000000 0.000000
vn 0.000000 0.000000 -1.000000
vn 0.000000 0.000000 -1.000000
vn 0.000000 0.000000 -1.000000
vn 0.000000 0.000000 -1.000000
vn 0.000000 -1.000000 0.000000
vn 0.000000 -1.000000 0.000000
vn 0.000000 -1.000000 0.000000
vn 0.000000 -1.000000 0.000000
vn 1.000000 0.000000 0.000000
vn 1.000000 0.000000 0.000000
vn 1.000000 0.000000 0.000000
vn 1.000000 0.000000 0.000000
vn -1.000000 0.000000 0.000000
vn -1.000000 0.000000 0.000000
vn -1.000000 0.000000 0.000000
vn -1.000000 0.000000 0.000000
vn 0.000000 1.000000 -0.000003
vn 0.000000 1.000000 -0.000003
vn 0.000000 1.000000 -0.000003
vn 0.000000 1.000000 -0.000003
vn 0.000000 1.000000 0.000000
vn 0.000000 1.000000 0.000000
vn 0.000000 1.000000 0.000000
vn 0.000000 1.000000 0.000000
vn 0.000000 -0.854394 -0.519625
vn 0.000000 -0.854394 -0.519625
vn 0.000000 -0.854394 -0.519625
vn 0.000000 -0.854394 -0.519625
vn 0.000000 1.000000 0.000000
vn 0.000000 1.000000 0.000000
vn 0.000000 1.000000 0.000000
vn 0.000000 1.000000 0.000000
vn 0.000000 0.000000 -1.000000
vn 0.000000 0.000000 -1.000000
vn 0.000000 0.000000 -1.000000
vn 0.000000 0.000000 -1.000000
vn -1.000000 0.000000 0.000000
vn -1.000000 0.000000 0.000000
vn -1.000000 0.000000 0.000000
vn -1.000000 0.000000 0.000000
vn 0.000000 0.028887 0.999583
vn 0.000000 0.028887 0.999583
vn 0.000000 0.028887 0.999583
vn 0.000000 0.028887 0.999583
vn 1.000000 0.000000 0.000000
vn 1.000000 0.000000 0.000000
vn 1.000000 0.000000 0.000000
vn 1.000000 0.000000 0.000000
vn 0.000000 -0.829049 0.559175
vn 0.000000 -0.829049 0.559175
vn 0.000000 -0.829049 0.559175
vn 0.000000 -0.829049 0.559175
vn 0.556241 0.709343 -0.432930
vn 0.556241 0.709343 -0.432930
vn 0.556241 0.709343 -0.432930
vn 0.556241 0.709343 -0.432930
vn 0.000000 0.864790 -0.502133
vn 0.000000 0.864790 -0.502133
vn 0.000000 0.864790 -0.502133
vn 0.000000 0.864790 -0.502133
vn -0.576931 0.699054 -0.422463
vn -0.576931 0.699054 -0.422463
vn -0.576931 0.699054 -0.422463
vn -0.576931 0.699054 -0.422463
vn 0.000000 -0.697699 0.716391
vn 0.000000 -0.697699 0.716391
vn 0.000000 -0.697699 0.716391
vn 0.000000 -0.697699 0.716391
vn -0.772189 0.453530 -0.445011
vn -0.772189 0.453530 -0.445011
vn -0.772189 0.453530 -0.445011
vn -0.772189 0.453530 -0.445011
vn 0.000000 0.694698 -0.719301
vn 0.000000 0.694698 -0.719301
vn 0.000000 0.694698 -0.719301
vn 0.000000 0.694698 -0.719301
vn 0.736836 0.483767 -0.472273
vn 0.736836 0.483767 -0.472273
vn 0.736836 0.483767 -0.472273
vn 0.736836 0.483767 -0.472273
vn 0.950349 -0.311185 0.000000
vn 0.950349 -0.311185 0.000000
vn 0.950349 -0.311185 0.000000
vn 0.950349 -0.311185 0.000000
vn -0.520635 0.211973 -0.827047
vn -0.520635 0.211973 -0.827047
vn -0.520635 0.211973 -0.827047
vn -0.520635 0.211973 -0.827047
vn -0.941960 0.335719 0.001732
vn -0.941961 0.335719 0.001732
vn -0.941960 0.335719 0.001732
vn -0.941960 0.335719 0.001732
vn -0.644478 0.234378 0.727816
vn -0.644478 0.234378 0.727816
vn -0.644478 0.234378 0.727816
vn -0.644478 0.234378 0.727816
vn -0.824435 -0.565956 0.000000
vn -0.824435 -0.565956 0.000000
vn -0.824435 -0.565956 0.000000
vn -0.824435 -0.565956 0.000000
vn 0.581309 0.432439 0.689258
vn 0.581309 0.432439 0.689258
vn 0.581309 0.432439 0.689258
vn 0.581309 0.432439 0.689258
vn 0.797855 0.602841 0.003111
vn 0.797855 0.602841 0.003111
vn 0.797855 0.602841 0.003111
vn 0.797855 0.602841 0.003111
vn 0.462514 0.371411 -0.805068
vn 0.462514 0.371411 -0.805068
vn 0.462514 0.371411 -0.805068
vn 0.462514 0.371411 -0.805068
s off
f 1/1/1 2/2/2 4/4/3 3/3/4
f 13/19/5 14/20/6 15/21/7 16/22/8
f 5/5/9 6/6/10 8/8/11 7/7/12
f 7/7/13 8/8/14 2/10/15 1/9/16
f 2/2/17 8/11/18 6/12/19 4/4/20
f 7/13/21 1/1/22 3/3/23 5/14/24
f 17/23/25 18/24/26 19/25/27 20/26/28
f 25/31/29 26/32/30 27/33/31 28/34/32
f 22/27/33 21/28/34 23/29/35 24/30/36
f 30/35/37 29/36/38 31/37/39 32/38/40
f 9/15/41 10/16/42 14/20/43 13/19/44
f 10/16/45 11/17/46 15/21/47 14/20/48
f 11/17/49 12/18/50 16/22/51 15/21/52
f 12/18/53 9/15/54 13/19/55 16/22/56
f 3/3/57 4/4/58 18/24/59 17/23/60
f 4/4/61 10/16/62 19/25/63 18/24/64
f 10/16/65 9/15/66 20/26/67 19/25/68
f 9/15/69 3/3/70 17/23/71 20/26/72
f 6/6/73 5/5/74 21/28/75 22/27/76
f 5/5/77 12/18/78 23/29/79 21/28/80
f 12/18/81 11/17/82 24/30/83 23/29/84
f 11/17/85 6/6/86 22/27/87 24/30/88
f 4/4/89 6/6/90 26/32/91 25/31/92
f 6/6/93 11/17/94 27/33/95 26/32/96
f 11/17/97 10/16/98 28/34/99 27/33/100
f 10/16/101 4/4/102 25/31/103 28/34/104
f 5/5/105 3/3/106 29/36/107 30/35/108
f 3/3/109 9/15/110 31/37/111 29/36/112
f 9/15/113 12/18/114 32/38/115 31/37/116
f 12/18/117 5/5/118 30/35/119 32/38/120
