# This file uses centimeters as units for non-parametric coordinates.

v -0.031776 0.000000 6.743719
v 0.031776 0.000000 6.743719
v -0.031776 0.063548 6.743719
v 0.031776 0.063548 6.743719
v -0.031776 0.063548 -6.743720
v 0.031776 0.063548 -6.743720
v -0.031776 0.000000 -6.743720
v 0.031776 0.000000 -6.743720
v -0.031776 -0.417815 -3.371861
v -0.031776 -0.354267 -3.371861
v 0.031776 -0.354267 -3.371861
v 0.031776 -0.417815 -3.371861
v -0.031776 -0.417815 3.371860
v -0.031776 -0.354267 3.371860
v 0.031776 -0.354267 3.371860
v 0.031776 -0.417815 3.371860
v -0.031776 -0.484446 0.824833
v -0.031776 -0.547994 0.824833
v 0.031776 -0.547994 0.824833
v 0.031776 -0.484446 0.824833
v -0.031776 -0.260719 5.057789
v 0.031776 -0.260719 5.057789
v 0.031776 -0.197171 5.057789
v -0.031776 -0.197171 5.057789
v 0.031776 -0.547994 -0.824833
v -0.031776 -0.547994 -0.824833
v -0.031776 -0.484446 -0.824833
v 0.031776 -0.484446 -0.824833
v -0.031776 -0.197171 -5.057790
v -0.031776 -0.260719 -5.057790
v 0.031776 -0.260719 -5.057790
v 0.031776 -0.197171 -5.057790
vt 0.077176 0.304008
vt 0.077176 0.304008
vt 0.077176 0.304008
vt 0.077176 0.304008
vt 0.077176 0.304008
vt 0.077176 0.304008
vt 0.077176 0.304008
vt 0.077176 0.304008
vt 0.077176 0.304008
vt 0.077176 0.304008
vt 0.077176 0.304008
vt 0.077176 0.304008
vt 0.077176 0.304008
vt 0.077176 0.304008
vt 0.077176 0.304008
vt 0.077176 0.304008
vt 0.077176 0.304008
vt 0.077176 0.304008
vt 0.077176 0.304008
vt 0.077176 0.304008
vt 0.077176 0.304008
vt 0.077176 0.304008
vt 0.077176 0.304008
vt 0.077176 0.304008
vt 0.077176 0.304008
vt 0.077176 0.304008
vt 0.077176 0.304008
vt 0.077176 0.304008
vt 0.077176 0.304008
vt 0.077176 0.304008
vt 0.077176 0.304008
vt 0.077176 0.304008
vt 0.077176 0.304008
vt 0.077176 0.304008
vt 0.077176 0.304008
vt 0.077176 0.304008
vt 0.077176 0.304008
vt 0.077176 0.304008
vt 0.077176 0.304008
vt 0.077176 0.304008
vt 0.077176 0.304008
vt 0.077176 0.304008
vt 0.077176 0.304008
vt 0.077176 0.304008
vt 0.077176 0.304008
vt 0.077176 0.304008
vt 0.077176 0.304008
vt 0.077176 0.304008
vt 0.077176 0.304008
vt 0.077176 0.304008
vt 0.077176 0.304008
vt 0.077176 0.304008
vt 0.077176 0.304008
vt 0.077176 0.304008
vt 0.077176 0.304008
vt 0.077176 0.304008
vt 0.077176 0.304008
vt 0.077176 0.304008
vt 0.077176 0.304008
vt 0.077176 0.304008
vt 0.077176 0.304008
vt 0.077176 0.304008
vn 0.000000 0.997705 0.067710
vn 0.000000 0.997705 0.067710
vn 0.000000 0.992410 0.122972
vn 0.000000 0.992410 0.122972
vn 0.000000 -0.992410 -0.122972
vn 0.000000 -0.992410 -0.122972
vn 0.000000 -0.997705 -0.067710
vn 0.000000 -0.997705 -0.067710
vn 1.000000 0.000000 0.000000
vn 1.000000 0.000000 0.000000
vn 1.000000 0.000000 0.000000
vn 1.000000 0.000000 0.000000
vn -1.000000 0.000000 0.000000
vn -1.000000 0.000000 0.000000
vn -1.000000 0.000000 0.000000
vn -1.000000 0.000000 0.000000
vn -1.000000 0.000000 0.000000
vn -1.000000 0.000000 0.000000
vn -1.000000 0.000000 0.000000
vn -1.000000 0.000000 0.000000
vn 0.000000 0.997705 -0.067710
vn 0.000000 0.997705 -0.067710
vn 0.000000 0.999519 -0.031004
vn 0.000000 0.999519 -0.031004
vn 1.000000 0.000000 0.000000
vn 1.000000 0.000000 0.000000
vn 1.000000 0.000000 0.000000
vn 1.000000 0.000000 0.000000
vn 0.000000 -0.999519 0.031004
vn 0.000000 -0.999519 0.031004
vn 0.000000 -0.997705 0.067710
vn 0.000000 -0.997705 0.067710
vn -1.000000 0.000000 0.000000
vn -1.000000 0.000000 0.000000
vn -1.000000 0.000000 0.000000
vn -1.000000 0.000000 0.000000
vn 0.000000 0.999519 0.031004
vn 0.000000 0.999519 0.031004
vn 0.000000 0.997705 0.067710
vn 0.000000 0.997705 0.067710
vn 1.000000 0.000000 0.000000
vn 1.000000 0.000000 0.000000
vn 1.000000 0.000000 0.000000
vn 1.000000 0.000000 0.000000
vn 0.000000 -0.997705 -0.067710
vn 0.000000 -0.997705 -0.067710
vn 0.000000 -0.999519 -0.031004
vn 0.000000 -0.999519 -0.031004
vn -1.000000 0.000000 0.000000
vn -1.000000 0.000000 0.000000
vn -1.000000 0.000000 0.000000
vn -1.000000 0.000000 0.000000
vn 0.000000 0.988253 -0.152828
vn 0.000000 0.988253 -0.152828
vn 0.000000 0.992410 -0.122972
vn 0.000000 0.992410 -0.122972
vn 1.000000 0.000000 0.000000
vn 1.000000 0.000000 0.000000
vn 1.000000 0.000000 0.000000
vn 1.000000 0.000000 0.000000
vn 0.000000 -0.992410 0.122972
vn 0.000000 -0.992410 0.122972
vn 0.000000 -0.988253 0.152828
vn 0.000000 -0.988253 0.152828
vn 0.000000 -0.997705 0.067710
vn 0.000000 -0.997705 0.067710
vn 0.000000 -0.992410 0.122972
vn 0.000000 -0.992410 0.122972
vn 1.000000 0.000000 0.000000
vn 1.000000 0.000000 0.000000
vn 1.000000 0.000000 0.000000
vn 1.000000 0.000000 0.000000
vn 0.000000 0.992410 -0.122972
vn 0.000000 0.992410 -0.122972
vn 0.000000 0.997705 -0.067710
vn 0.000000 0.997705 -0.067710
vn -1.000000 0.000000 0.000000
vn -1.000000 0.000000 0.000000
vn -1.000000 0.000000 0.000000
vn -1.000000 0.000000 0.000000
vn 0.000000 -0.999519 0.031004
vn 0.000000 -0.999519 -0.031004
vn 0.000000 -0.999519 -0.031004
vn 0.000000 -0.999519 0.031004
vn -1.000000 0.000000 0.000000
vn -1.000000 0.000000 0.000000
vn -1.000000 0.000000 0.000000
vn -1.000000 0.000000 0.000000
vn 0.000000 0.999519 0.031004
vn 0.000000 0.999519 0.031004
vn 0.000000 0.999519 -0.031004
vn 0.000000 0.999519 -0.031004
vn 1.000000 0.000000 0.000000
vn 1.000000 0.000000 0.000000
vn 1.000000 0.000000 0.000000
vn 1.000000 0.000000 0.000000
vn -1.000000 0.000000 0.000000
vn -1.000000 0.000000 0.000000
vn -1.000000 0.000000 0.000000
vn -1.000000 0.000000 0.000000
vn 0.000000 -0.988253 -0.152828
vn 0.000000 -0.988253 -0.152828
vn 0.000000 -0.992410 -0.122972
vn 0.000000 -0.992410 -0.122972
vn 1.000000 0.000000 0.000000
vn 1.000000 0.000000 0.000000
vn 1.000000 0.000000 0.000000
vn 1.000000 0.000000 0.000000
vn 0.000000 0.992410 0.122972
vn 0.000000 0.992410 0.122972
vn 0.000000 0.988253 0.152828
vn 0.000000 0.988253 0.152828
s off
f 10/18/1 11/19/2 32/61/3 29/56/4
f 30/58/5 31/59/6 12/21/7 9/16/8
f 11/20/9 12/22/10 31/60/11 32/62/12
f 29/55/13 30/57/14 9/15/15 10/17/16
f 17/31/17 18/33/18 13/23/19 14/25/20
f 14/26/21 15/27/22 20/37/23 17/32/24
f 15/28/25 16/30/26 19/36/27 20/38/28
f 18/34/29 19/35/30 16/29/31 13/24/32
f 10/17/33 9/15/34 26/49/35 27/51/36
f 27/52/37 28/53/38 11/19/39 10/18/40
f 28/54/41 25/48/42 12/22/43 11/20/44
f 9/16/45 12/21/46 25/47/47 26/50/48
f 24/45/49 21/39/50 1/1/51 3/3/52
f 3/3/53 4/4/54 23/43/55 24/46/56
f 2/2/57 22/42/58 23/44/59 4/4/60
f 21/40/61 22/41/62 2/10/63 1/9/64
f 13/24/65 16/29/66 22/41/67 21/40/68
f 23/44/69 22/42/70 16/30/71 15/28/72
f 24/46/73 23/43/74 15/27/75 14/26/76
f 14/25/77 13/23/78 21/39/79 24/45/80
f 18/34/81 26/50/82 25/47/83 19/35/84
f 27/51/85 26/49/86 18/33/87 17/31/88
f 28/53/89 27/52/90 17/32/91 20/37/92
f 19/36/93 25/48/94 28/54/95 20/38/96
f 7/13/97 30/57/98 29/55/99 5/14/100
f 7/7/101 8/8/102 31/59/103 30/58/104
f 32/62/105 31/60/106 8/11/107 6/12/108
f 29/56/109 32/61/110 6/6/111 5/5/112
