# This file uses centimeters as units for non-parametric coordinates.

v 0.038116 0.024659 -0.065992
v -0.038086 0.034232 -0.065992
v -0.076187 0.024659 -0.000000
v -0.038086 0.034232 0.065984
v 0.038116 0.024659 0.065984
v 0.076218 0.034232 0.000000
v 0.038116 0.198046 -0.065992
v -0.038086 0.205105 -0.065992
v -0.076187 0.200691 -0.000000
v -0.038086 0.205105 0.065984
v 0.038116 0.196581 0.065984
v 0.076218 0.205105 0.000000
v 0.031380 0.000000 -0.054344
v -0.031357 0.000000 -0.054344
v 0.000008 0.000000 -0.000000
v -0.062729 0.000000 -0.000000
v -0.031357 0.000000 0.054344
v 0.031380 0.000000 0.054337
v 0.062759 0.000000 -0.000000
v 0.031380 0.229765 -0.054344
v -0.031357 0.229765 -0.054344
v 0.000008 0.229765 -0.000000
v -0.062729 0.229765 -0.000000
v -0.031357 0.229765 0.054344
v 0.031380 0.229765 0.054337
v 0.062759 0.229765 -0.000000
vt 0.091061 0.325456
vt 0.091061 0.325456
vt 0.091061 0.325456
vt 0.091061 0.325456
vt 0.091061 0.325456
vt 0.091061 0.325456
vt 0.128866 0.470175
vt 0.128866 0.470175
vt 0.128866 0.470175
vt 0.128866 0.470175
vt 0.128866 0.470175
vt 0.128866 0.470175
vt 0.128866 0.470175
vt 0.128866 0.470175
vt 0.128866 0.470175
vt 0.128866 0.470175
vt 0.128866 0.470175
vt 0.128866 0.470175
vt 0.088108 0.254574
vt 0.088108 0.254574
vt 0.091061 0.325456
vt 0.091061 0.325456
vt 0.091061 0.325456
vt 0.091061 0.325456
vt 0.091061 0.325456
vt 0.091061 0.325456
vt 0.091061 0.325456
vt 0.091061 0.325456
vt 0.091061 0.325456
vt 0.091061 0.325456
vt 0.091061 0.325456
vt 0.091061 0.325456
vt 0.091061 0.325456
vt 0.091061 0.325456
vt 0.091061 0.325456
vt 0.091061 0.325456
vt 0.091061 0.325456
vt 0.091061 0.325456
vt 0.091061 0.325456
vt 0.091061 0.325456
vt 0.088108 0.254574
vn 0.000003 0.000000 -1.000000
vn 0.000003 0.000000 -1.000000
vn 0.000003 0.000000 -1.000000
vn 0.000003 0.000000 -1.000000
vn -0.866021 0.000000 -0.500008
vn -0.866021 0.000000 -0.500008
vn -0.866021 0.000000 -0.500008
vn -0.866021 0.000000 -0.500008
vn -0.865996 0.000000 0.500051
vn -0.865996 0.000000 0.500051
vn -0.865996 0.000000 0.500051
vn -0.865996 0.000000 0.500051
vn 0.000000 0.000000 1.000000
vn 0.000000 0.000000 1.000000
vn 0.000000 0.000000 1.000000
vn 0.000000 0.000000 1.000000
vn 0.865995 0.000000 0.500052
vn 0.865996 0.000000 0.500052
vn 0.865995 0.000000 0.500052
vn 0.865995 0.000000 0.500052
vn 0.866021 0.000000 -0.500009
vn 0.866021 0.000000 -0.500009
vn 0.866021 0.000000 -0.500009
vn 0.866021 0.000000 -0.500009
vn 0.000000 -1.000000 0.000000
vn 0.000000 -1.000000 0.000000
vn 0.000000 -1.000000 0.000000
vn 0.000000 -1.000000 0.000000
vn 0.000000 -1.000000 0.000000
vn 0.000000 -1.000000 0.000000
vn 0.000000 -1.000000 0.000000
vn 0.000000 -1.000000 0.000000
vn 0.000000 -1.000000 0.000000
vn 0.000000 -1.000000 0.000000
vn 0.000000 -1.000000 0.000000
vn 0.000000 -1.000000 0.000000
vn 0.000000 -1.000000 0.000000
vn 0.000000 -1.000000 0.000000
vn 0.000000 -1.000000 0.000000
vn 0.000000 -1.000000 0.000000
vn 0.000000 -1.000000 0.000000
vn 0.000000 -1.000000 0.000000
vn 0.000000 1.000000 0.000000
vn 0.000000 1.000000 0.000000
vn 0.000000 1.000000 0.000000
vn 0.000000 1.000000 0.000000
vn 0.000000 1.000000 0.000000
vn 0.000000 1.000000 0.000000
vn 0.000000 1.000000 0.000000
vn 0.000000 1.000000 0.000000
vn 0.000000 1.000000 0.000000
vn 0.000000 1.000000 0.000000
vn 0.000000 1.000000 0.000000
vn 0.000000 1.000000 0.000000
vn 0.000000 1.000000 0.000000
vn 0.000000 1.000000 0.000000
vn 0.000000 1.000000 0.000000
vn 0.000000 1.000000 0.000000
vn 0.000000 1.000000 0.000000
vn 0.000000 1.000000 0.000000
vn -0.025333 -0.367706 -0.929597
vn -0.025333 -0.367706 -0.929597
vn -0.025333 -0.367706 -0.929597
vn -0.025333 -0.367706 -0.929597
vn -0.792336 -0.367865 -0.486702
vn -0.792336 -0.367865 -0.486702
vn -0.792336 -0.367865 -0.486702
vn -0.792336 -0.367865 -0.486702
vn -0.792343 -0.367810 0.486732
vn -0.792343 -0.367810 0.486732
vn -0.792343 -0.367810 0.486732
vn -0.792343 -0.367810 0.486732
vn -0.025277 -0.367602 0.929640
vn -0.025277 -0.367602 0.929640
vn -0.025277 -0.367602 0.929640
vn -0.025277 -0.367602 0.929640
vn 0.817605 -0.367962 0.442862
vn 0.817605 -0.367962 0.442862
vn 0.817605 -0.367962 0.442862
vn 0.817605 -0.367962 0.442862
vn 0.817628 -0.367961 -0.442819
vn 0.817628 -0.367961 -0.442819
vn 0.817628 -0.367961 -0.442819
vn 0.817628 -0.367961 -0.442819
vn 0.019403 0.381806 -0.924039
vn 0.019403 0.381806 -0.924039
vn 0.019403 0.381806 -0.924039
vn 0.019403 0.381806 -0.924039
vn -0.800772 0.397895 -0.447709
vn -0.800772 0.397895 -0.447709
vn -0.800772 0.397895 -0.447709
vn -0.800772 0.397895 -0.447709
vn -0.800780 0.397841 0.447744
vn -0.800780 0.397841 0.447744
vn -0.800780 0.397841 0.447744
vn -0.800780 0.397841 0.447744
vn 0.022959 0.373367 0.927400
vn 0.022959 0.373367 0.927400
vn 0.022959 0.373367 0.927400
vn 0.022959 0.373367 0.927400
vn 0.791524 0.373717 0.483555
vn 0.791524 0.373717 0.483555
vn 0.791524 0.373717 0.483555
vn 0.791524 0.373717 0.483555
vn 0.790432 0.382054 -0.478803
vn 0.790432 0.382054 -0.478803
vn 0.790432 0.382054 -0.478803
vn 0.790432 0.382054 -0.478803
s off
f 1/7/1 2/8/2 8/9/3 7/10/4
f 2/8/5 3/11/6 9/12/7 8/9/8
f 3/11/9 4/13/10 10/14/11 9/12/12
f 4/13/13 5/15/14 11/16/15 10/14/16
f 5/15/17 6/17/18 12/18/19 11/16/20
f 6/17/21 1/7/22 7/10/23 12/18/24
f 14/29/25 13/30/26 15/27/27
f 16/31/28 14/29/29 15/27/30
f 17/32/31 16/31/32 15/27/33
f 18/33/34 17/32/35 15/27/36
f 19/34/37 18/33/38 15/27/39
f 13/30/40 19/34/41 15/27/42
f 20/35/43 21/36/44 22/28/45
f 21/36/46 23/37/47 22/28/48
f 23/37/49 24/38/50 22/28/51
f 24/41/52 25/20/53 22/19/54
f 25/39/55 26/40/56 22/28/57
f 26/40/58 20/35/59 22/28/60
f 2/2/61 1/1/62 13/30/63 14/29/64
f 3/3/65 2/2/66 14/29/67 16/31/68
f 4/4/69 3/3/70 16/31/71 17/32/72
f 5/5/73 4/4/74 17/32/75 18/33/76
f 6/6/77 5/5/78 18/33/79 19/34/80
f 1/1/81 6/6/82 19/34/83 13/30/84
f 7/25/85 8/24/86 21/36/87 20/35/88
f 8/24/89 9/23/90 23/37/91 21/36/92
f 9/23/93 10/22/94 24/38/95 23/37/96
f 10/22/97 11/21/98 25/39/99 24/38/100
f 11/21/101 12/26/102 26/40/103 25/39/104
f 12/26/105 7/25/106 20/35/107 26/40/108
