# This file uses centimeters as units for non-parametric coordinates.

v 1.705160 0.094942 0.748226
v 1.705160 0.296459 0.748226
v 1.705160 0.094942 -0.748226
v 1.705160 0.296459 -0.748226
v 1.705160 0.738670 -0.000000
v -1.705160 0.296459 -0.748226
v -1.705160 0.738670 -0.000000
v -1.705160 0.296459 0.748226
v -1.705159 0.094942 0.748226
v -1.705159 0.094942 -0.748226
vt 0.728252 0.007239
vt 0.825563 0.007239
vt 0.825563 0.037702
vt 0.728252 0.037702
vt 0.825563 0.037702
vt 0.825563 0.007239
vt 0.728252 0.007239
vt 0.728252 0.037702
vt 0.825563 0.104550
vt 0.728252 0.104550
vt 0.825563 0.104550
vt 0.728252 0.104550
vn 0.000000 0.000000 1.000000
vn 0.000000 0.000000 1.000000
vn 0.000000 0.000000 1.000000
vn 0.000000 0.000000 1.000000
vn 0.000000 0.000000 -1.000000
vn 0.000000 0.000000 -1.000000
vn 0.000000 0.000000 -1.000000
vn 0.000000 0.000000 -1.000000
vn 0.000000 0.860888 0.508795
vn 0.000000 0.860888 0.508795
vn 0.000000 0.860888 0.508795
vn 0.000000 0.860888 0.508795
vn 0.000000 0.860888 -0.508795
vn 0.000000 0.860888 -0.508795
vn 0.000000 0.860888 -0.508795
vn 0.000000 0.860888 -0.508795
s off
f 9/1/1 1/2/2 2/3/3 8/4/4
f 4/5/5 3/6/6 10/7/7 6/8/8
f 2/3/9 5/9/10 7/10/11 8/4/12
f 5/11/13 4/5/14 6/8/15 7/12/16
