# This file uses centimeters as units for non-parametric coordinates.

v -0.187937 1.850073 0.027098
v 0.187937 1.850073 0.027098
v -0.187937 1.908316 0.027098
v 0.187937 1.908316 0.027098
v -0.187937 1.908316 0.008949
v 0.187937 1.908316 0.008949
v -0.187937 1.850073 0.008949
v 0.187937 1.850073 0.008949
v 0.019708 1.908316 -0.024092
v 0.026439 1.908316 -0.042398
v 0.026439 1.850073 -0.042398
v 0.019708 1.850073 -0.024092
v -0.019708 1.850073 -0.024092
v -0.026439 1.850073 -0.042398
v -0.026439 1.908316 -0.042398
v -0.019708 1.908316 -0.024092
v 0.041878 1.908316 0.027098
v 0.047590 1.908316 -0.002338
v 0.047590 1.850073 -0.002338
v 0.041878 1.850073 0.027098
v -0.041878 1.850073 0.027098
v -0.047590 1.850073 -0.002338
v -0.047590 1.908316 -0.002338
v -0.041878 1.908316 0.027098
v 0.023481 2.089526 0.021139
v 0.033207 2.089526 -0.002342
v 0.023481 2.089526 -0.025824
v 0.000000 2.089526 -0.035549
v -0.023481 2.089526 -0.025824
v -0.033207 2.089526 -0.002342
v -0.023481 2.089526 0.021139
v 0.000000 2.089526 0.030865
v 0.000000 0.341235 -0.035549
v -0.023483 0.341235 -0.025824
v -0.033209 0.341235 -0.002342
v -0.023483 0.341235 0.021139
v 0.000000 0.341235 0.030865
v 0.023481 0.341235 0.021139
v 0.033207 0.341235 -0.002342
v 0.023481 0.341235 -0.025824
v 0.000000 0.000000 -0.061665
v -0.041946 0.000000 -0.044289
v -0.041948 0.317228 -0.044289
v 0.000000 0.317228 -0.061665
v -0.059320 0.000000 -0.002342
v -0.059322 0.317228 -0.002342
v -0.041946 0.000000 0.039606
v -0.041948 0.317228 0.039604
v 0.000000 0.000000 0.056980
v 0.000000 0.317228 0.056980
v 0.041946 0.000000 0.039606
v 0.041946 0.317228 0.039604
v 0.059320 0.000000 -0.002342
v 0.059320 0.317228 -0.002342
v 0.041946 0.000000 -0.044289
v 0.041946 0.317228 -0.044289
v 0.000000 1.457274 0.065707
v -0.053618 1.478074 0.065707
v 0.053618 1.478074 0.065707
v 0.428129 2.151597 0.065707
v 0.432322 2.093972 0.065707
v 0.383574 2.181172 0.065707
v -0.428129 2.151597 0.065707
v -0.383574 2.181172 0.065707
v -0.432322 2.093972 0.065707
v 0.039592 1.583123 0.065707
v 0.319230 2.037907 0.065707
v 0.283235 2.102298 0.065707
v -0.283235 2.102298 0.065707
v -0.319230 2.037907 0.065707
v -0.039592 1.583123 0.065707
v 0.000000 1.567763 0.065707
v 0.316134 2.080457 0.065707
v -0.316134 2.080457 0.065707
v -0.053618 1.478074 0.027098
v -0.432322 2.093972 0.027098
v 0.053618 1.478074 0.027098
v 0.432322 2.093972 0.027098
v -0.383574 2.181172 0.027098
v 0.383574 2.181172 0.027098
v 0.000000 1.457274 0.027098
v 0.428129 2.151597 0.027098
v -0.428129 2.151597 0.027098
v 0.000000 1.918545 0.027098
v -0.100769 1.702891 0.065707
v -0.153745 2.114967 0.065707
vt 0.220251 0.186661
vt 0.220251 0.186661
vt 0.220251 0.186661
vt 0.220251 0.186661
vt 0.220251 0.186661
vt 0.220251 0.186661
vt 0.220251 0.186661
vt 0.220251 0.186661
vt 0.220251 0.186661
vt 0.220251 0.186661
vt 0.220251 0.186661
vt 0.220251 0.186661
vt 0.220251 0.186661
vt 0.220251 0.186661
vt 0.220251 0.186661
vt 0.220251 0.186661
vt 0.220251 0.186661
vt 0.220251 0.186661
vt 0.220251 0.186661
vt 0.220251 0.186661
vt 0.220251 0.186661
vt 0.220251 0.186661
vt 0.220251 0.186661
vt 0.220251 0.186661
vt 0.220251 0.186661
vt 0.220251 0.186661
vt 0.220251 0.186661
vt 0.220251 0.186661
vt 0.220251 0.186661
vt 0.220251 0.186661
vt 0.123541 0.277139
vt 0.123541 0.277139
vt 0.123541 0.277139
vt 0.123541 0.277139
vt 0.123541 0.277139
vt 0.123541 0.277139
vt 0.123541 0.277139
vt 0.123541 0.277139
vt 0.123541 0.277139
vt 0.123541 0.277139
vt 0.123541 0.277139
vt 0.123541 0.277139
vt 0.123541 0.277139
vt 0.123541 0.277139
vt 0.123541 0.277139
vt 0.123541 0.277139
vt 0.123541 0.277139
vt 0.123541 0.277139
vt 0.123541 0.277139
vt 0.123541 0.277139
vt 0.123541 0.277139
vt 0.123541 0.277139
vt 0.123541 0.277139
vt 0.123541 0.277139
vt 0.123541 0.277139
vt 0.123541 0.277139
vt 0.123541 0.277139
vt 0.123541 0.277139
vt 0.123541 0.277139
vt 0.123541 0.277139
vt 0.123541 0.277139
vt 0.123541 0.277139
vt 0.123541 0.277139
vt 0.123541 0.277139
vt 0.123541 0.277139
vt 0.123541 0.277139
vt 0.808474 0.277195
vt 0.808474 0.277195
vt 0.808474 0.277195
vt 0.808474 0.277195
vt 0.808474 0.277195
vt 0.808474 0.277195
vt 0.808474 0.277195
vt 0.808474 0.277195
vt 0.808474 0.277195
vt 0.808474 0.277195
vt 0.808474 0.277195
vt 0.839945 0.262209
vt 0.839945 0.262209
vt 0.839945 0.262209
vt 0.839945 0.262209
vt 0.839945 0.262209
vt 0.839945 0.262209
vt 0.839945 0.262209
vt 0.839945 0.262209
vt 0.839945 0.262209
vt 0.839945 0.262209
vt 0.839945 0.262209
vt 0.839945 0.262209
vt 0.839945 0.262209
vt 0.839945 0.262209
vt 0.839945 0.262209
vt 0.839945 0.262209
vt 0.839945 0.262209
vt 0.839945 0.262209
vt 0.839945 0.262209
vt 0.839945 0.262209
vt 0.838878 0.259076
vt 0.838878 0.259076
vt 0.838878 0.259076
vt 0.838878 0.259076
vt 0.838878 0.259076
vt 0.838878 0.259076
vt 0.838878 0.259076
vt 0.838878 0.259076
vt 0.838878 0.259076
vt 0.838878 0.259076
vt 0.838878 0.259076
vt 0.838878 0.259076
vt 0.838878 0.259076
vt 0.838878 0.259076
vt 0.838878 0.259076
vt 0.838878 0.259076
vt 0.838878 0.259076
vt 0.838878 0.259076
vt 0.838878 0.259076
vn 0.000000 1.000000 0.000001
vn 0.000000 1.000000 0.000001
vn 0.000000 1.000000 0.000001
vn 0.000000 1.000000 0.000001
vn 0.000000 0.000000 -1.000000
vn 0.000000 0.000000 -1.000000
vn 0.000000 0.000000 -1.000000
vn 0.000000 0.000000 -1.000000
vn 0.000000 -1.000000 0.000000
vn 0.000000 -1.000000 0.000000
vn 0.000000 -1.000000 0.000000
vn 0.000000 -1.000000 0.000000
vn 1.000000 0.000000 0.000000
vn 1.000000 0.000000 0.000000
vn 1.000000 0.000000 0.000000
vn 1.000000 0.000000 0.000000
vn -1.000000 0.000000 0.000000
vn -1.000000 0.000000 0.000000
vn -1.000000 0.000000 0.000000
vn -1.000000 0.000000 0.000000
vn 0.000000 1.000000 0.000000
vn 0.000000 1.000000 0.000000
vn 0.000000 1.000000 0.000000
vn 0.000000 1.000000 0.000000
vn 0.884307 0.000000 -0.466905
vn 0.884307 0.000000 -0.466905
vn 0.884307 0.000000 -0.466905
vn 0.884307 0.000000 -0.466905
vn 0.000000 -1.000000 0.000000
vn 0.000000 -1.000000 0.000000
vn 0.000000 -1.000000 0.000000
vn 0.000000 -1.000000 0.000000
vn 0.000000 -1.000000 0.000000
vn 0.000000 -1.000000 0.000000
vn 0.000000 -1.000000 0.000000
vn 0.000000 -1.000000 0.000000
vn -0.884307 0.000000 -0.466905
vn -0.884307 0.000000 -0.466905
vn -0.884307 0.000000 -0.466905
vn -0.884307 0.000000 -0.466905
vn 0.000000 1.000000 0.000000
vn 0.000000 1.000000 0.000000
vn 0.000000 1.000000 0.000000
vn 0.000000 1.000000 0.000000
vn 0.000000 1.000000 0.000009
vn 0.000000 1.000000 0.000009
vn 0.000000 1.000000 0.000009
vn 0.000000 1.000000 0.000009
vn 0.080168 0.000000 -0.996781
vn 0.080168 0.000000 -0.996781
vn 0.080168 0.000000 -0.996781
vn 0.080168 0.000000 -0.996781
vn 0.000000 -1.000000 0.000009
vn 0.000000 -1.000000 0.000009
vn 0.000000 -1.000000 0.000009
vn 0.000000 -1.000000 0.000009
vn 0.000000 -1.000000 0.000009
vn 0.000000 -1.000000 0.000009
vn 0.000000 -1.000000 0.000009
vn 0.000000 -1.000000 0.000009
vn -0.080168 0.000000 -0.996781
vn -0.080168 0.000000 -0.996781
vn -0.080168 0.000000 -0.996781
vn -0.080168 0.000000 -0.996781
vn 0.000000 1.000000 0.000009
vn 0.000000 1.000000 0.000009
vn 0.000000 1.000000 0.000009
vn 0.000000 1.000000 0.000009
vn 0.923890 0.000000 0.382659
vn 0.923890 0.000000 0.382659
vn 0.923890 0.000000 0.382659
vn 0.923890 0.000000 0.382659
vn 0.923890 0.000000 -0.382659
vn 0.923890 0.000000 -0.382659
vn 0.923890 0.000000 -0.382659
vn 0.923890 0.000000 -0.382659
vn 0.382659 0.000000 -0.923890
vn 0.382659 0.000000 -0.923890
vn 0.382659 0.000000 -0.923890
vn 0.382659 0.000000 -0.923890
vn -0.382646 0.000000 -0.923895
vn -0.382646 0.000000 -0.923895
vn -0.382646 0.000000 -0.923895
vn -0.382646 0.000000 -0.923895
vn -0.923890 0.000001 -0.382659
vn -0.923890 0.000001 -0.382659
vn -0.923890 0.000001 -0.382659
vn -0.923890 0.000001 -0.382659
vn -0.923890 0.000001 0.382659
vn -0.923890 0.000001 0.382659
vn -0.923890 0.000001 0.382659
vn -0.923890 0.000001 0.382659
vn -0.382646 0.000000 0.923895
vn -0.382646 0.000000 0.923895
vn -0.382646 0.000000 0.923895
vn -0.382646 0.000000 0.923895
vn 0.382659 0.000000 0.923890
vn 0.382659 0.000000 0.923890
vn 0.382659 0.000000 0.923890
vn 0.382659 0.000000 0.923890
vn -0.382698 -0.000001 -0.923873
vn -0.382698 -0.000001 -0.923873
vn -0.382698 -0.000001 -0.923874
vn -0.382698 -0.000001 -0.923873
vn -0.923885 -0.000006 -0.382670
vn -0.923885 -0.000006 -0.382670
vn -0.923885 -0.000006 -0.382670
vn -0.923885 -0.000006 -0.382670
vn -0.923888 -0.000004 0.382662
vn -0.923888 -0.000004 0.382662
vn -0.923888 -0.000004 0.382662
vn -0.923888 -0.000004 0.382662
vn -0.382680 0.000002 0.923881
vn -0.382680 0.000002 0.923881
vn -0.382680 0.000002 0.923881
vn -0.382680 0.000002 0.923881
vn 0.382688 0.000003 0.923878
vn 0.382688 0.000003 0.923878
vn 0.382688 0.000003 0.923878
vn 0.382688 0.000003 0.923878
vn 0.923888 0.000001 0.382662
vn 0.923888 0.000001 0.382662
vn 0.923888 0.000001 0.382662
vn 0.923888 0.000001 0.382662
vn 0.923885 0.000000 -0.382670
vn 0.923885 0.000000 -0.382670
vn 0.923885 0.000000 -0.382670
vn 0.923885 0.000000 -0.382670
vn 0.382705 0.000000 -0.923870
vn 0.382705 0.000000 -0.923870
vn 0.382705 0.000000 -0.923870
vn 0.382705 0.000000 -0.923870
vn -0.269911 0.708873 -0.651650
vn -0.269911 0.708873 -0.651650
vn -0.269911 0.708873 -0.651650
vn -0.269911 0.708873 -0.651650
vn -0.651662 0.708861 -0.269913
vn -0.651662 0.708861 -0.269913
vn -0.651662 0.708861 -0.269913
vn -0.651662 0.708861 -0.269913
vn -0.651662 0.708860 0.269913
vn -0.651662 0.708860 0.269913
vn -0.651662 0.708860 0.269913
vn -0.651662 0.708860 0.269913
vn -0.269911 0.708873 0.651650
vn -0.269911 0.708873 0.651650
vn -0.269911 0.708873 0.651650
vn -0.269911 0.708873 0.651650
vn 0.269924 0.708873 0.651644
vn 0.269924 0.708873 0.651644
vn 0.269924 0.708873 0.651644
vn 0.269924 0.708873 0.651644
vn 0.651662 0.708861 0.269913
vn 0.651662 0.708861 0.269913
vn 0.651662 0.708861 0.269913
vn 0.651662 0.708861 0.269913
vn 0.651662 0.708860 -0.269913
vn 0.651662 0.708860 -0.269913
vn 0.651662 0.708860 -0.269913
vn 0.651662 0.708860 -0.269913
vn 0.269924 0.708873 -0.651644
vn 0.269924 0.708873 -0.651644
vn 0.269924 0.708873 -0.651644
vn 0.269924 0.708873 -0.651644
vn 0.000000 1.000000 -0.000001
vn 0.000000 1.000000 -0.000001
vn 0.000000 1.000000 -0.000001
vn 0.000000 1.000000 -0.000001
vn 0.000000 1.000000 -0.000001
vn 0.000000 1.000000 -0.000001
vn 0.000000 1.000000 -0.000001
vn 0.000000 1.000000 -0.000001
vn 0.000000 0.000000 1.000000
vn -0.000000 0.000000 1.000000
vn -0.000000 0.000000 1.000000
vn -0.000000 0.000000 1.000000
vn 0.000000 0.000000 1.000000
vn 0.000000 0.000000 1.000000
vn 0.000000 0.000000 1.000000
vn -0.000000 0.000000 1.000000
vn 0.000000 0.000000 1.000000
vn 0.000000 0.000000 1.000000
vn 0.000001 0.000000 1.000000
vn -0.000000 0.000000 1.000000
vn -0.000000 0.000000 1.000000
vn -0.000000 0.000000 1.000000
vn -0.000000 0.000000 1.000000
vn -0.000000 0.000000 1.000000
vn -0.000000 0.000000 1.000000
vn 0.000000 0.000000 1.000000
vn 0.000000 0.000000 1.000000
vn 0.000000 0.000000 1.000000
vn 0.000000 0.000000 1.000000
vn 0.000000 0.000000 1.000000
vn 0.000000 0.000000 1.000000
vn 0.000000 0.000000 1.000000
vn 0.000000 0.000000 1.000000
vn 0.000000 0.000000 1.000000
vn 0.000000 0.000000 1.000000
vn -0.000000 0.000000 1.000000
vn -0.000000 0.000000 1.000000
vn -0.000000 0.000000 1.000000
vn -0.000000 0.000000 1.000000
vn 0.000000 0.000000 1.000000
vn 0.000000 0.000000 1.000000
vn 0.000000 0.000000 1.000000
vn 0.000000 0.000000 1.000000
vn 0.000000 0.000000 1.000000
vn 0.000000 0.000000 1.000000
vn 0.000000 0.000000 1.000000
vn 0.000000 0.000000 1.000000
vn 0.000000 0.000000 1.000000
vn 0.000000 0.000000 1.000000
vn 0.000000 0.000000 1.000000
vn 0.000000 0.000000 1.000000
vn 0.000000 0.000000 1.000000
vn 0.000000 0.000000 1.000000
vn 0.000000 0.000000 1.000000
vn 0.000000 0.000000 1.000000
vn 0.000000 0.000000 1.000000
vn 0.000000 0.000000 1.000000
vn 0.000000 0.000000 1.000000
vn 0.000000 0.000000 1.000000
vn -0.851850 -0.523786 0.000000
vn -0.851850 -0.523786 0.000000
vn -0.851850 -0.523786 0.000000
vn -0.851850 -0.523786 0.000000
vn 0.851850 -0.523786 0.000000
vn 0.851850 -0.523786 0.000000
vn 0.851850 -0.523786 0.000000
vn 0.851850 -0.523786 0.000000
vn 0.000000 1.000000 0.000000
vn 0.000000 1.000000 0.000000
vn 0.000000 1.000000 0.000000
vn 0.000000 1.000000 0.000000
vn -0.361662 -0.932309 0.000000
vn -0.361662 -0.932309 0.000000
vn -0.361662 -0.932309 0.000000
vn -0.361662 -0.932309 0.000000
vn 0.361662 -0.932309 0.000000
vn 0.361662 -0.932309 0.000000
vn 0.361662 -0.932309 0.000000
vn 0.361662 -0.932309 0.000000
vn 0.997363 0.072572 0.000000
vn 0.997363 0.072572 0.000000
vn 0.997363 0.072572 0.000000
vn 0.997363 0.072572 0.000000
vn 0.553047 0.833150 0.000000
vn 0.553047 0.833150 0.000000
vn 0.553047 0.833150 0.000000
vn 0.553047 0.833150 0.000000
vn -0.553049 0.833149 0.000000
vn -0.553049 0.833149 0.000000
vn -0.553049 0.833149 0.000000
vn -0.553049 0.833149 0.000000
vn -0.997363 0.072573 0.000000
vn -0.997363 0.072573 0.000000
vn -0.997363 0.072573 0.000000
vn -0.997363 0.072573 0.000000
vn 0.000000 0.000000 -1.000000
vn 0.000000 0.000000 -1.000000
vn 0.000000 0.000000 -1.000000
vn -0.000000 0.000000 -1.000000
vn -0.000000 0.000000 -1.000000
vn -0.000000 0.000000 -1.000000
vn 0.000000 0.000000 -1.000000
vn 0.000000 0.000000 -1.000000
vn 0.000000 0.000000 -1.000000
vn 0.000000 0.000000 -1.000000
vn 0.000000 0.000000 -1.000000
vn 0.000000 0.000000 -1.000000
vn 0.000000 0.000000 -1.000000
vn 0.000000 0.000000 -1.000000
vn 0.000000 0.000000 -1.000000
vn 0.000000 0.000000 -1.000000
vn 0.000000 0.000000 -1.000000
vn 0.000000 0.000000 -1.000000
vn 0.000000 0.000000 -1.000000
vn 0.000000 0.000000 -1.000000
vn 0.000000 0.000000 -1.000000
vn 0.000000 0.000000 -1.000000
vn 0.000000 0.000000 -1.000000
vn 0.000000 0.000000 -1.000000
vn 0.000000 0.000000 -1.000000
vn 0.000000 0.000000 -1.000000
vn 0.000000 0.000000 -1.000000
vn 0.000000 0.000000 1.000000
vn 0.000000 0.000000 1.000000
vn 0.000000 0.000000 1.000000
vn -0.000000 0.000000 1.000000
vn 0.000000 0.000000 1.000000
vn 0.000000 0.000000 1.000000
s off
f 16/1/1 9/2/2 10/3/3 15/4/4
f 10/3/5 11/5/6 14/6/7 15/4/8
f 11/5/9 12/7/10 13/8/11 14/6/12
f 2/9/13 8/10/14 6/11/15 4/12/16
f 7/13/17 1/14/18 3/15/19 5/16/20
f 10/3/21 9/2/22 17/17/23 18/18/24
f 11/5/25 10/3/26 18/18/27 19/19/28
f 12/7/29 11/5/30 19/19/31 20/20/32
f 21/21/33 22/22/34 14/6/35 13/8/36
f 22/22/37 23/23/38 15/4/39 14/6/40
f 23/23/41 24/24/42 16/1/43 15/4/44
f 18/18/45 17/17/46 4/12/47 6/25/48
f 19/19/49 18/18/50 6/25/51 8/26/52
f 20/20/53 19/19/54 8/26/55 2/27/56
f 7/28/57 22/22/58 21/21/59 1/29/60
f 5/30/61 23/23/62 22/22/63 7/28/64
f 3/15/65 24/24/66 23/23/67 5/30/68
f 38/31/69 39/32/70 26/33/71 25/34/72
f 39/32/73 40/35/74 27/36/75 26/33/76
f 40/35/77 33/37/78 28/38/79 27/36/80
f 33/37/81 34/39/82 29/40/83 28/38/84
f 34/39/85 35/41/86 30/42/87 29/40/88
f 35/41/89 36/43/90 31/44/91 30/42/92
f 36/43/93 37/45/94 32/46/95 31/44/96
f 37/45/97 38/47/98 25/48/99 32/46/100
f 41/49/101 42/50/102 43/51/103 44/52/104
f 42/50/105 45/53/106 46/54/107 43/51/108
f 45/53/109 47/55/110 48/56/111 46/54/112
f 47/55/113 49/57/114 50/58/115 48/56/116
f 49/57/117 51/59/118 52/60/119 50/58/120
f 51/61/121 53/62/122 54/63/123 52/64/124
f 53/62/125 55/65/126 56/66/127 54/63/128
f 55/65/129 41/49/130 44/52/131 56/66/132
f 34/39/133 33/37/134 44/52/135 43/51/136
f 35/41/137 34/39/138 43/51/139 46/54/140
f 36/43/141 35/41/142 46/54/143 48/56/144
f 37/45/145 36/43/146 48/56/147 50/58/148
f 38/47/149 37/45/150 50/58/151 52/60/152
f 39/32/153 38/31/154 52/64/155 54/63/156
f 40/35/157 39/32/158 54/63/159 56/66/160
f 33/37/161 40/35/162 56/66/163 44/52/164
f 26/33/165 27/36/166 28/38/167 29/40/168 30/42/169 31/44/170 32/46/171 25/34/172
f 85/67/173 86/68/174 69/69/175 70/70/176
f 72/71/177 66/72/178 71/73/179
f 73/74/180 68/75/181 67/76/182
f 74/77/183 70/70/184 69/69/185
f 59/78/186 61/79/187 67/80/188 66/81/189
f 62/82/190 64/83/191 69/84/192 86/85/193 68/86/194
f 65/87/195 58/88/196 71/89/197 85/90/198 70/91/199
f 57/92/200 59/78/201 66/81/202 72/93/203
f 58/88/204 57/92/205 72/93/206 71/89/207
f 60/94/208 62/82/209 68/86/210 73/95/211
f 61/79/212 60/94/213 73/95/214 67/80/215
f 63/96/216 65/87/217 70/91/218 74/97/219
f 64/83/220 63/96/221 74/97/222 69/84/223
f 58/98/224 65/99/225 76/100/226 75/101/227
f 61/102/228 59/103/229 77/104/230 78/105/231
f 64/106/232 62/107/233 80/108/234 79/109/235
f 57/110/236 58/98/237 75/101/238 81/111/239
f 59/103/240 57/110/241 81/111/242 77/104/243
f 60/112/244 61/102/245 78/105/246 82/113/247
f 62/107/248 60/112/249 82/113/250 80/108/251
f 63/114/252 64/106/253 79/109/254 83/115/255
f 65/99/256 63/114/257 83/115/258 76/100/259
f 75/101/260 76/100/261 84/116/262
f 78/105/263 77/104/264 84/116/265
f 79/109/266 80/108/267 84/116/268
f 81/111/269 75/101/270 84/116/271
f 77/104/272 81/111/273 84/116/274
f 82/113/275 78/105/276 84/116/277
f 80/108/278 82/113/279 84/116/280
f 83/115/281 79/109/282 84/116/283
f 76/100/284 83/115/285 84/116/286
f 66/72/287 67/76/288 68/75/289 86/68/290 85/67/291 71/73/292
