# This file uses centimeters as units for non-parametric coordinates.

v -0.077560 0.094009 0.515613
v 0.077562 0.094009 0.515613
v -0.077560 0.150216 0.515613
v 0.077562 0.150216 0.515613
v -0.077560 0.150216 0.080121
v 0.077562 0.150216 0.080121
v -0.077560 0.094009 0.080121
v 0.077562 0.094009 0.080121
v -0.110150 0.208781 0.080121
v 0.110151 0.208781 0.080121
v 0.110151 -0.193829 0.080121
v -0.110150 -0.193829 0.080121
v -0.110150 0.208781 0.000000
v 0.110151 0.208781 0.000000
v 0.110151 -0.193829 0.000000
v -0.110150 -0.193829 0.000000
v 0.045943 -0.296365 0.392109
v -0.000000 -0.296365 0.373079
v -0.045943 -0.296365 0.392109
v -0.064974 -0.296365 0.438052
v -0.045943 -0.296365 0.483996
v -0.000000 -0.296365 0.503026
v 0.045943 -0.296365 0.483996
v 0.064974 -0.296365 0.438052
v 0.084892 -0.262198 0.353160
v -0.000000 -0.262198 0.317997
v -0.084892 -0.262198 0.353160
v -0.120054 -0.262198 0.438052
v -0.084892 -0.262198 0.522945
v -0.000000 -0.262198 0.558108
v 0.084892 -0.262198 0.522945
v 0.120056 -0.262198 0.438052
v 0.110917 -0.211065 0.327136
v -0.000000 -0.211065 0.281193
v -0.110917 -0.211065 0.327136
v -0.156860 -0.211065 0.438052
v -0.110917 -0.211065 0.548969
v -0.000000 -0.211065 0.594912
v 0.110917 -0.211065 0.548969
v 0.156860 -0.211065 0.438052
v 0.116548 -0.150750 0.321505
v -0.000000 -0.150750 0.273229
v -0.116548 -0.150750 0.321505
v -0.164823 -0.150750 0.438052
v -0.116548 -0.150750 0.554600
v -0.000000 -0.150750 0.602875
v 0.116548 -0.150750 0.554600
v 0.164823 -0.150750 0.438052
v -0.000000 -0.308362 0.438052
v 0.143314 -0.150750 0.294739
v -0.000000 -0.150750 0.235377
v -0.143312 -0.150750 0.294739
v -0.202675 -0.150750 0.438052
v -0.143312 -0.150750 0.581365
v -0.000000 -0.150750 0.640727
v 0.143314 -0.150750 0.581365
v 0.202675 -0.150750 0.438052
v 0.143314 -0.021938 0.294739
v -0.000000 -0.021938 0.235377
v -0.000000 0.021417 0.250805
v 0.132404 0.021417 0.305648
v -0.143312 -0.021938 0.294739
v -0.132404 0.021417 0.305648
v -0.202675 -0.021938 0.438052
v -0.187248 0.021417 0.438052
v -0.143312 -0.021938 0.581365
v -0.132404 0.021417 0.570456
v -0.000000 -0.021938 0.640727
v -0.000000 0.021417 0.625300
v 0.143314 -0.021938 0.581365
v 0.132404 0.021417 0.570456
v 0.202675 -0.021938 0.438052
v 0.187248 0.021417 0.438052
v -0.000000 0.059877 0.294739
v 0.101339 0.059877 0.336715
v -0.101337 0.059877 0.336715
v -0.143312 0.059877 0.438052
v -0.101337 0.059877 0.539390
v -0.000000 0.059877 0.581365
v 0.101339 0.059877 0.539390
v 0.143314 0.059877 0.438052
v -0.000000 0.094009 0.360492
v 0.054844 0.094043 0.383209
v -0.054844 0.094009 0.383209
v -0.077560 0.094009 0.438052
v -0.054844 0.094009 0.492896
v -0.000000 0.094043 0.515613
v 0.054844 0.094043 0.492896
v 0.077560 0.094043 0.438052
v -0.000000 0.187077 0.080121
v -0.000000 0.187077 0.515613
v -0.104936 0.208781 0.080121
vt 0.296666 0.012212
vt 0.296666 0.012212
vt 0.296666 0.012212
vt 0.296666 0.012212
vt 0.296666 0.012212
vt 0.296666 0.012212
vt 0.296666 0.012212
vt 0.296666 0.012212
vt 0.296666 0.012212
vt 0.296666 0.012212
vt 0.296666 0.012212
vt 0.296666 0.012212
vt 0.296666 0.012212
vt 0.296666 0.012212
vt 0.296666 0.012212
vt 0.296666 0.012212
vt 0.296666 0.012212
vt 0.296666 0.012212
vt 0.296666 0.012212
vt 0.296666 0.012212
vt 0.296666 0.012212
vt 0.296666 0.012212
vt 0.107046 0.012722
vt 0.107046 0.012722
vt 0.107046 0.012722
vt 0.107046 0.012722
vt 0.107046 0.012722
vt 0.107046 0.012722
vt 0.107046 0.012722
vt 0.107046 0.012722
vt 0.107046 0.012722
vt 0.107046 0.012722
vt 0.107046 0.012722
vt 0.107046 0.012722
vt 0.107046 0.012722
vt 0.107046 0.012722
vt 0.107046 0.012722
vt 0.107046 0.012722
vt 0.107046 0.012722
vt 0.107046 0.012722
vt 0.107046 0.012722
vt 0.107046 0.012722
vt 0.107046 0.012722
vt 0.107046 0.012722
vt 0.107046 0.012722
vt 0.107046 0.012722
vt 0.107046 0.012722
vt 0.107046 0.012722
vt 0.107046 0.012722
vt 0.107046 0.012722
vt 0.107046 0.012722
vt 0.107046 0.012722
vt 0.107046 0.012722
vt 0.107046 0.012722
vt 0.326357 0.013052
vt 0.326356 0.013052
vt 0.326356 0.013052
vt 0.326357 0.013052
vt 0.326357 0.013052
vt 0.326357 0.013052
vt 0.326357 0.013052
vt 0.326357 0.013052
vt 0.326356 0.013052
vt 0.326356 0.013052
vt 0.326357 0.013052
vt 0.326357 0.013052
vt 0.326357 0.013052
vt 0.326357 0.013052
vt 0.326356 0.013052
vt 0.326356 0.013052
vt 0.326356 0.013052
vt 0.326356 0.013052
vt 0.326356 0.013052
vt 0.326357 0.013052
vt 0.326357 0.013052
vt 0.326357 0.013052
vt 0.326356 0.013052
vt 0.326357 0.013052
vt 0.326357 0.013052
vt 0.326356 0.013052
vt 0.326356 0.013052
vt 0.326356 0.013052
vt 0.326357 0.013052
vt 0.326357 0.013052
vt 0.326357 0.013052
vt 0.326356 0.013052
vt 0.326357 0.013052
vt 0.326357 0.013052
vt 0.326356 0.013052
vt 0.326356 0.013052
vt 0.107046 0.012723
vt 0.326357 0.013052
vt 0.326356 0.013052
vt 0.326356 0.013052
vt 0.326357 0.013052
vt 0.326357 0.013052
vt 0.326357 0.013052
vt 0.326357 0.013052
vt 0.326357 0.013052
vt 0.326356 0.013052
vt 0.326356 0.013052
vt 0.326357 0.013052
vt 0.326357 0.013052
vt 0.326357 0.013052
vt 0.326357 0.013052
vt 0.326356 0.013052
vt 0.326356 0.013052
vt 0.326356 0.013052
vt 0.326356 0.013052
vt 0.296666 0.012212
vt 0.296666 0.012212
vt 0.296666 0.012212
vn -0.000000 0.000000 1.000000
vn -0.000000 0.000000 1.000000
vn -0.000000 0.000000 1.000000
vn -0.000000 0.000000 1.000000
vn -0.000000 0.000000 1.000000
vn 0.429246 0.903188 0.000000
vn 0.429246 0.903188 0.000000
vn 0.429246 0.903188 0.000000
vn 0.429246 0.903188 0.000000
vn 0.000000 0.000000 -1.000000
vn 0.000000 0.000000 -1.000000
vn 0.000000 0.000000 -1.000000
vn 0.000000 0.000000 -1.000000
vn 0.000000 -1.000000 0.000000
vn 0.000000 -1.000000 0.000000
vn 0.000000 -1.000000 0.000000
vn 0.000000 -1.000000 0.000000
vn 1.000000 0.000000 0.000000
vn 1.000000 0.000000 0.000000
vn 1.000000 0.000000 0.000000
vn 1.000000 0.000000 0.000000
vn -1.000000 0.000000 0.000000
vn -1.000000 0.000000 0.000000
vn -1.000000 0.000000 0.000000
vn -1.000000 0.000000 0.000000
vn 0.000000 0.000000 1.000000
vn 0.000000 0.000000 1.000000
vn 0.000000 0.000000 1.000000
vn 0.000000 0.000000 1.000000
vn 0.000000 0.000000 1.000000
vn 0.000000 0.000000 1.000000
vn 0.000000 0.000000 1.000000
vn 0.000000 0.000000 1.000000
vn 0.000000 0.000000 1.000000
vn 0.000000 0.000000 1.000000
vn 0.000000 0.000000 1.000000
vn 0.000000 0.000000 1.000000
vn 0.000000 0.000000 1.000000
vn 0.000000 0.000000 1.000000
vn 0.000000 0.000000 1.000000
vn 0.000000 1.000000 0.000000
vn 0.000000 1.000000 0.000000
vn 0.000000 1.000000 0.000000
vn 0.000000 1.000000 0.000000
vn 0.000000 1.000000 0.000000
vn 1.000000 0.000000 0.000000
vn 1.000000 0.000000 0.000000
vn 1.000000 0.000000 0.000000
vn 1.000000 0.000000 0.000000
vn 0.000000 -1.000000 0.000000
vn 0.000000 -1.000000 0.000000
vn 0.000000 -1.000000 0.000000
vn 0.000000 -1.000000 0.000000
vn -1.000000 0.000000 0.000000
vn -1.000000 0.000000 0.000000
vn -1.000000 0.000000 0.000000
vn -1.000000 0.000000 0.000000
vn 0.213309 -0.830239 -0.514978
vn 0.213309 -0.830239 -0.514978
vn 0.213309 -0.830239 -0.514978
vn 0.213309 -0.830239 -0.514978
vn -0.213309 -0.830239 -0.514979
vn -0.213309 -0.830239 -0.514979
vn -0.213309 -0.830239 -0.514979
vn -0.213309 -0.830239 -0.514979
vn -0.514984 -0.830235 -0.213310
vn -0.514984 -0.830235 -0.213310
vn -0.514984 -0.830235 -0.213310
vn -0.514984 -0.830235 -0.213310
vn -0.514985 -0.830235 0.213309
vn -0.514985 -0.830235 0.213309
vn -0.514985 -0.830235 0.213309
vn -0.514985 -0.830235 0.213309
vn -0.213309 -0.830239 0.514979
vn -0.213309 -0.830239 0.514979
vn -0.213309 -0.830239 0.514979
vn -0.213309 -0.830239 0.514979
vn 0.213309 -0.830239 0.514978
vn 0.213309 -0.830239 0.514978
vn 0.213309 -0.830239 0.514978
vn 0.213309 -0.830239 0.514978
vn 0.514976 -0.830239 0.213313
vn 0.514976 -0.830239 0.213313
vn 0.514976 -0.830239 0.213313
vn 0.514976 -0.830239 0.213313
vn 0.514975 -0.830240 -0.213314
vn 0.514975 -0.830239 -0.213314
vn 0.514975 -0.830240 -0.213314
vn 0.514975 -0.830240 -0.213314
vn 0.318657 -0.553732 -0.769311
vn 0.318657 -0.553732 -0.769311
vn 0.318657 -0.553732 -0.769311
vn 0.318657 -0.553732 -0.769311
vn -0.318657 -0.553732 -0.769311
vn -0.318657 -0.553732 -0.769311
vn -0.318657 -0.553732 -0.769311
vn -0.318657 -0.553732 -0.769311
vn -0.769309 -0.553737 -0.318651
vn -0.769309 -0.553737 -0.318651
vn -0.769309 -0.553737 -0.318651
vn -0.769309 -0.553737 -0.318651
vn -0.769310 -0.553738 0.318649
vn -0.769310 -0.553738 0.318649
vn -0.769310 -0.553738 0.318649
vn -0.769310 -0.553738 0.318649
vn -0.318656 -0.553730 0.769313
vn -0.318656 -0.553730 0.769313
vn -0.318656 -0.553730 0.769313
vn -0.318656 -0.553730 0.769313
vn 0.318656 -0.553730 0.769312
vn 0.318656 -0.553730 0.769312
vn 0.318656 -0.553730 0.769312
vn 0.318656 -0.553730 0.769312
vn 0.769313 -0.553727 0.318658
vn 0.769313 -0.553728 0.318658
vn 0.769313 -0.553727 0.318658
vn 0.769313 -0.553727 0.318658
vn 0.769313 -0.553727 -0.318660
vn 0.769313 -0.553727 -0.318660
vn 0.769313 -0.553727 -0.318660
vn 0.769313 -0.553727 -0.318660
vn 0.379868 -0.121083 -0.917082
vn 0.379868 -0.121083 -0.917082
vn 0.379868 -0.121083 -0.917082
vn 0.379868 -0.121083 -0.917082
vn -0.379868 -0.121083 -0.917082
vn -0.379868 -0.121083 -0.917082
vn -0.379868 -0.121083 -0.917082
vn -0.379868 -0.121083 -0.917082
vn -0.917083 -0.121083 -0.379866
vn -0.917083 -0.121083 -0.379866
vn -0.917083 -0.121083 -0.379866
vn -0.917083 -0.121083 -0.379866
vn -0.917083 -0.121083 0.379865
vn -0.917083 -0.121083 0.379865
vn -0.917083 -0.121083 0.379865
vn -0.917083 -0.121083 0.379865
vn -0.379864 -0.121083 0.917084
vn -0.379864 -0.121083 0.917084
vn -0.379864 -0.121083 0.917084
vn -0.379864 -0.121083 0.917084
vn 0.379864 -0.121083 0.917084
vn 0.379864 -0.121083 0.917084
vn 0.379864 -0.121083 0.917084
vn 0.379864 -0.121083 0.917084
vn 0.917083 -0.121083 0.379865
vn 0.917083 -0.121083 0.379865
vn 0.917083 -0.121083 0.379865
vn 0.917083 -0.121083 0.379865
vn 0.917083 -0.121083 -0.379866
vn 0.917083 -0.121083 -0.379866
vn 0.917083 -0.121083 -0.379866
vn 0.917083 -0.121083 -0.379866
vn 0.363539 0.312321 -0.877664
vn 0.363539 0.312321 -0.877664
vn 0.363539 0.312321 -0.877664
vn 0.363539 0.312321 -0.877664
vn -0.363542 0.312314 -0.877666
vn -0.363542 0.312314 -0.877666
vn -0.363542 0.312314 -0.877666
vn -0.363542 0.312314 -0.877666
vn -0.877667 0.312305 -0.363546
vn -0.877667 0.312305 -0.363546
vn -0.877667 0.312305 -0.363546
vn -0.877667 0.312305 -0.363546
vn -0.877667 0.312305 0.363546
vn -0.877667 0.312305 0.363546
vn -0.877667 0.312305 0.363546
vn -0.877667 0.312305 0.363546
vn -0.363545 0.312310 0.877666
vn -0.363545 0.312310 0.877666
vn -0.363545 0.312310 0.877666
vn -0.363545 0.312310 0.877666
vn 0.363541 0.312316 0.877665
vn 0.363541 0.312316 0.877665
vn 0.363541 0.312316 0.877665
vn 0.363541 0.312316 0.877665
vn 0.877664 0.312322 0.363539
vn 0.877664 0.312322 0.363539
vn 0.877664 0.312322 0.363539
vn 0.877664 0.312322 0.363539
vn 0.877664 0.312322 -0.363540
vn 0.877664 0.312322 -0.363540
vn 0.877664 0.312322 -0.363540
vn 0.877664 0.312322 -0.363540
vn 0.263211 0.725892 -0.635453
vn 0.263211 0.725892 -0.635453
vn 0.263211 0.725892 -0.635453
vn 0.263211 0.725892 -0.635453
vn -0.263212 0.725895 -0.635449
vn -0.263212 0.725895 -0.635449
vn -0.263212 0.725896 -0.635449
vn -0.263212 0.725896 -0.635449
vn -0.635441 0.725903 -0.263209
vn -0.635441 0.725903 -0.263209
vn -0.635441 0.725903 -0.263209
vn -0.635441 0.725903 -0.263209
vn -0.635441 0.725903 0.263209
vn -0.635441 0.725903 0.263209
vn -0.635441 0.725903 0.263209
vn -0.635441 0.725903 0.263209
vn -0.263213 0.725898 0.635446
vn -0.263213 0.725898 0.635446
vn -0.263213 0.725898 0.635446
vn -0.263213 0.725898 0.635446
vn 0.263212 0.725895 0.635450
vn 0.263212 0.725895 0.635450
vn 0.263212 0.725895 0.635450
vn 0.263212 0.725895 0.635450
vn 0.635455 0.725889 0.263215
vn 0.635455 0.725889 0.263215
vn 0.635455 0.725889 0.263215
vn 0.635455 0.725889 0.263215
vn 0.635455 0.725889 -0.263215
vn 0.635455 0.725889 -0.263215
vn 0.635455 0.725889 -0.263215
vn 0.635455 0.725889 -0.263215
vn 0.187361 0.871708 -0.452792
vn 0.187361 0.871708 -0.452792
vn 0.187361 0.871708 -0.452792
vn 0.187361 0.871708 -0.452792
vn -0.187455 0.871812 -0.452553
vn -0.187455 0.871812 -0.452553
vn -0.187455 0.871812 -0.452553
vn -0.187455 0.871812 -0.452553
vn -0.452558 0.871810 -0.187453
vn -0.452558 0.871810 -0.187453
vn -0.452558 0.871810 -0.187453
vn -0.452558 0.871810 -0.187453
vn -0.452560 0.871809 0.187453
vn -0.452560 0.871809 0.187453
vn -0.452560 0.871809 0.187453
vn -0.452560 0.871809 0.187453
vn -0.187691 0.871705 0.452662
vn -0.187691 0.871705 0.452662
vn -0.187691 0.871705 0.452662
vn -0.187691 0.871705 0.452662
vn 0.187596 0.871601 0.452902
vn 0.187596 0.871601 0.452902
vn 0.187596 0.871601 0.452902
vn 0.187596 0.871601 0.452902
vn 0.452896 0.871605 0.187592
vn 0.452896 0.871605 0.187592
vn 0.452896 0.871605 0.187592
vn 0.452896 0.871605 0.187592
vn 0.452894 0.871605 -0.187593
vn 0.452894 0.871605 -0.187593
vn 0.452894 0.871605 -0.187593
vn 0.452894 0.871605 -0.187593
vn 0.075002 -0.980606 -0.181072
vn 0.075002 -0.980606 -0.181072
vn 0.075002 -0.980606 -0.181072
vn -0.075002 -0.980606 -0.181072
vn -0.075002 -0.980606 -0.181072
vn -0.075002 -0.980606 -0.181072
vn -0.181069 -0.980606 -0.075003
vn -0.181069 -0.980606 -0.075003
vn -0.181069 -0.980606 -0.075003
vn -0.181069 -0.980606 0.075003
vn -0.181069 -0.980606 0.075003
vn -0.181069 -0.980606 0.075003
vn -0.075002 -0.980606 0.181071
vn -0.075002 -0.980606 0.181071
vn -0.075002 -0.980606 0.181071
vn 0.075002 -0.980606 0.181071
vn 0.075002 -0.980606 0.181071
vn 0.075002 -0.980606 0.181071
vn 0.181069 -0.980606 0.075005
vn 0.181069 -0.980606 0.075005
vn 0.181069 -0.980606 0.075005
vn 0.181069 -0.980606 -0.075005
vn 0.181069 -0.980606 -0.075005
vn 0.181069 -0.980606 -0.075005
vn 0.000000 -1.000000 0.000000
vn 0.000000 -1.000000 0.000000
vn 0.000000 -1.000000 0.000000
vn 0.000000 -1.000000 0.000000
vn 0.000000 -1.000000 0.000000
vn 0.000000 -1.000000 0.000000
vn 0.000000 -1.000000 0.000000
vn 0.000000 -1.000000 0.000000
vn 0.000000 -1.000000 0.000000
vn 0.000000 -1.000000 0.000000
vn 0.000000 -1.000000 0.000000
vn 0.000000 -1.000000 0.000000
vn 0.000000 -1.000000 -0.000000
vn 0.000000 -1.000000 -0.000000
vn 0.000000 -1.000000 -0.000000
vn 0.000000 -1.000000 -0.000000
vn 0.000000 -1.000000 0.000000
vn 0.000000 -1.000000 0.000000
vn 0.000000 -1.000000 0.000000
vn 0.000000 -1.000000 0.000000
vn 0.000000 -1.000000 0.000000
vn 0.000000 -1.000000 0.000000
vn 0.000000 -1.000000 0.000000
vn 0.000000 -1.000000 0.000000
vn 0.000000 -1.000000 -0.000000
vn 0.000000 -1.000000 -0.000000
vn 0.000000 -1.000000 -0.000000
vn 0.000000 -1.000000 -0.000000
vn 0.000000 -1.000000 0.000000
vn 0.000000 -1.000000 0.000000
vn 0.000000 -1.000000 0.000000
vn 0.000000 -1.000000 0.000000
vn 0.382682 0.000000 -0.923880
vn 0.382682 0.000000 -0.923880
vn 0.382682 0.000000 -0.923880
vn 0.382682 0.000000 -0.923880
vn -0.382686 0.000000 -0.923878
vn -0.382686 0.000000 -0.923878
vn -0.382686 0.000000 -0.923878
vn -0.382686 0.000000 -0.923878
vn -0.923877 0.000000 -0.382689
vn -0.923877 0.000000 -0.382689
vn -0.923877 0.000000 -0.382689
vn -0.923877 0.000000 -0.382689
vn -0.923877 0.000000 0.382689
vn -0.923877 0.000000 0.382689
vn -0.923877 0.000000 0.382689
vn -0.923877 0.000000 0.382689
vn -0.382686 0.000000 0.923878
vn -0.382686 0.000000 0.923878
vn -0.382686 0.000000 0.923878
vn -0.382686 0.000000 0.923878
vn 0.382682 0.000000 0.923880
vn 0.382682 0.000000 0.923880
vn 0.382682 0.000000 0.923880
vn 0.382682 0.000000 0.923880
vn 0.923881 0.000000 0.382679
vn 0.923881 0.000000 0.382679
vn 0.923881 0.000000 0.382679
vn 0.923881 0.000000 0.382679
vn 0.923881 0.000000 -0.382679
vn 0.923881 0.000000 -0.382679
vn 0.923881 0.000000 -0.382679
vn 0.923881 0.000000 -0.382679
vn -0.429255 0.903184 0.000000
vn -0.429255 0.903184 0.000000
vn -0.429255 0.903184 0.000000
vn -0.429255 0.903184 0.000000
vn 0.000000 0.000000 1.000000
vn 0.000000 0.000000 1.000000
vn 0.000000 0.000000 1.000000
vn 0.000000 0.000000 1.000000
vn 0.000000 0.000000 1.000000
vn 0.000000 0.000000 1.000000
vn 0.000000 0.000000 1.000000
s off
f 1/1/1 2/2/2 4/4/3 91/111/4 3/3/5
f 90/110/6 91/111/7 4/4/8 6/6/9
f 13/19/10 14/20/11 15/21/12 16/22/13
f 7/7/14 8/8/15 2/10/16 1/9/17
f 2/2/18 8/11/19 6/12/20 4/4/21
f 7/13/22 1/1/23 3/3/24 5/14/25
f 92/112/26 90/110/27 10/16/28
f 6/6/29 8/8/30 11/17/31 10/16/32
f 8/8/33 7/7/34 12/18/35 11/17/36
f 7/7/37 5/5/38 9/15/39 12/18/40
f 9/15/41 92/112/42 10/16/43 14/20/44 13/19/45
f 10/16/46 11/17/47 15/21/48 14/20/49
f 11/17/50 12/18/51 16/22/52 15/21/53
f 12/18/54 9/15/55 13/19/56 16/22/57
f 17/23/58 18/24/59 26/25/60 25/26/61
f 18/24/62 19/27/63 27/28/64 26/25/65
f 19/27/66 20/29/67 28/30/68 27/28/69
f 20/29/70 21/31/71 29/32/72 28/30/73
f 21/31/74 22/33/75 30/34/76 29/32/77
f 22/33/78 23/35/79 31/36/80 30/34/81
f 23/35/82 24/37/83 32/38/84 31/36/85
f 24/37/86 17/23/87 25/26/88 32/38/89
f 25/26/90 26/25/91 34/39/92 33/40/93
f 26/25/94 27/28/95 35/41/96 34/39/97
f 27/28/98 28/30/99 36/42/100 35/41/101
f 28/30/102 29/32/103 37/43/104 36/42/105
f 29/32/106 30/34/107 38/44/108 37/43/109
f 30/34/110 31/36/111 39/45/112 38/44/113
f 31/36/114 32/38/115 40/46/116 39/45/117
f 32/38/118 25/26/119 33/40/120 40/46/121
f 33/40/122 34/39/123 42/47/124 41/48/125
f 34/39/126 35/41/127 43/49/128 42/47/129
f 35/41/130 36/42/131 44/50/132 43/49/133
f 36/42/134 37/43/135 45/51/136 44/50/137
f 37/43/138 38/44/139 46/52/140 45/51/141
f 38/44/142 39/45/143 47/53/144 46/52/145
f 39/45/146 40/46/147 48/54/148 47/53/149
f 40/46/150 33/40/151 41/48/152 48/54/153
f 58/55/154 59/56/155 60/57/156 61/58/157
f 59/56/158 62/59/159 63/60/160 60/57/161
f 62/59/162 64/61/163 65/62/164 63/60/165
f 64/61/166 66/63/167 67/64/168 65/62/169
f 66/63/170 68/65/171 69/66/172 67/64/173
f 68/65/174 70/67/175 71/68/176 69/66/177
f 70/67/178 72/69/179 73/70/180 71/68/181
f 72/69/182 58/71/183 61/72/184 73/70/185
f 61/58/186 60/57/187 74/73/188 75/74/189
f 60/57/190 63/60/191 76/75/192 74/73/193
f 63/60/194 65/62/195 77/76/196 76/75/197
f 65/62/198 67/64/199 78/77/200 77/76/201
f 67/64/202 69/66/203 79/78/204 78/77/205
f 69/66/206 71/68/207 80/79/208 79/78/209
f 71/68/210 73/70/211 81/80/212 80/79/213
f 73/70/214 61/72/215 75/81/216 81/80/217
f 75/74/218 74/73/219 82/82/220 83/83/221
f 74/73/222 76/75/223 84/84/224 82/82/225
f 76/75/226 77/76/227 85/85/228 84/84/229
f 77/76/230 78/77/231 86/86/232 85/85/233
f 78/77/234 79/78/235 87/87/236 86/86/237
f 79/78/238 80/79/239 88/88/240 87/87/241
f 80/79/242 81/80/243 89/89/244 88/88/245
f 81/80/246 75/81/247 83/90/248 89/89/249
f 18/24/250 17/23/251 49/91/252
f 19/27/253 18/24/254 49/91/255
f 20/29/256 19/27/257 49/91/258
f 21/31/259 20/29/260 49/91/261
f 22/33/262 21/31/263 49/91/264
f 23/35/265 22/33/266 49/91/267
f 24/37/268 23/35/269 49/91/270
f 17/23/271 24/37/272 49/91/273
f 41/92/274 42/93/275 51/94/276 50/95/277
f 42/93/278 43/96/279 52/97/280 51/94/281
f 43/96/282 44/98/283 53/99/284 52/97/285
f 44/98/286 45/100/287 54/101/288 53/99/289
f 45/100/290 46/102/291 55/103/292 54/101/293
f 46/102/294 47/104/295 56/105/296 55/103/297
f 47/104/298 48/106/299 57/107/300 56/105/301
f 48/106/302 41/108/303 50/109/304 57/107/305
f 50/95/306 51/94/307 59/56/308 58/55/309
f 51/94/310 52/97/311 62/59/312 59/56/313
f 52/97/314 53/99/315 64/61/316 62/59/317
f 53/99/318 54/101/319 66/63/320 64/61/321
f 54/101/322 55/103/323 68/65/324 66/63/325
f 55/103/326 56/105/327 70/67/328 68/65/329
f 56/105/330 57/107/331 72/69/332 70/67/333
f 57/107/334 50/109/335 58/71/336 72/69/337
f 3/3/338 91/111/339 90/110/340 5/5/341
f 5/5/342 90/110/343 92/112/344 9/15/345
f 10/16/346 90/110/347 6/6/348
