# This file uses centimeters as units for non-parametric coordinates.

v -0.298721 0.000000 0.298729
v 0.298737 0.000000 0.298729
v -0.298721 0.454795 0.298729
v 0.298737 0.454795 0.298729
v -0.298721 0.454795 -0.298737
v 0.298737 0.454795 -0.298737
v -0.298721 0.000000 -0.298737
v 0.298737 0.000000 -0.298737
v -0.298721 0.454795 -0.045176
v 0.298737 0.454795 -0.045176
v -0.298721 0.454795 0.045168
v 0.298737 0.454795 0.045168
v -0.298721 0.404796 0.045168
v -0.298721 0.398159 -0.045176
v 0.298737 0.382437 -0.045176
v 0.298737 0.398159 0.045168
v 0.306503 0.462559 0.039186
v -0.306488 0.462559 0.039186
v 0.306503 0.462559 -0.039201
v -0.306488 0.462559 -0.039201
v -0.314255 0.404796 0.039186
v -0.314255 0.398159 -0.039201
v 0.314270 0.398159 0.039186
v 0.314270 0.382437 -0.039201
v -0.157296 0.462559 -0.029233
v 0.066819 0.462559 0.029539
v 0.067542 0.454795 0.035521
v -0.156558 0.454795 -0.035216
vt 0.006297 0.330046
vt 0.006297 0.330046
vt 0.006297 0.330046
vt 0.006297 0.330046
vt 0.006297 0.330046
vt 0.006297 0.330046
vt 0.006297 0.330046
vt 0.006297 0.330046
vt 0.006297 0.330046
vt 0.006297 0.330046
vt 0.006297 0.330046
vt 0.006297 0.330046
vt 0.006297 0.330046
vt 0.006297 0.330046
vt 0.006297 0.330046
vt 0.006297 0.330046
vt 0.006297 0.330046
vt 0.006297 0.330046
vt 0.006297 0.330046
vt 0.006297 0.330046
vt 0.006297 0.330046
vt 0.006297 0.330046
vt 0.006297 0.330046
vt 0.006297 0.330046
vt 0.006297 0.330046
vt 0.006297 0.330046
vt 0.070374 0.380992
vt 0.070374 0.380992
vt 0.070374 0.380992
vt 0.070374 0.380992
vt 0.070374 0.380992
vt 0.070374 0.380992
vt 0.070374 0.380992
vt 0.070374 0.380992
vt 0.070374 0.380992
vt 0.070374 0.380992
vt 0.070374 0.380992
vt 0.070374 0.380992
vt 0.070374 0.380992
vt 0.070374 0.380992
vt 0.070374 0.380992
vt 0.070374 0.380992
vt 0.070374 0.380992
vt 0.070374 0.380992
vt 0.006297 0.330046
vt 0.070374 0.380992
vt 0.070374 0.380992
vt 0.006297 0.330046
vn 0.000000 1.000000 0.000000
vn 0.000000 1.000000 0.000000
vn 0.000000 1.000000 0.000000
vn 1.000000 -0.000000 0.000000
vn 1.000000 -0.000000 0.000000
vn 1.000000 0.000000 0.000000
vn -1.000000 0.000000 0.000000
vn -1.000000 0.000000 0.000000
vn -1.000000 0.000000 0.000000
vn -1.000000 0.000000 0.000000
vn -1.000000 0.000000 0.000000
vn -1.000000 0.000000 0.000000
vn 1.000000 -0.000000 0.000000
vn 1.000000 -0.000000 0.000000
vn 1.000000 0.000000 0.000000
vn 0.000000 1.000000 0.000000
vn 0.000000 1.000000 0.000000
vn 0.000000 1.000000 0.000000
vn -1.000000 0.000000 0.000000
vn -1.000000 0.000000 0.000000
vn -1.000000 0.000000 0.000000
vn -1.000000 0.000000 0.000000
vn 1.000000 -0.000000 0.000000
vn 1.000000 -0.000000 0.000000
vn 1.000000 -0.000000 0.000000
vn 1.000000 -0.000000 0.000000
vn 0.000000 1.000000 0.000000
vn 0.000000 1.000000 0.000000
vn 0.000000 1.000000 0.000000
vn 0.000000 1.000000 0.000000
vn -1.000000 0.000000 0.000000
vn -1.000000 0.000000 0.000000
vn -1.000000 0.000000 0.000000
vn -0.991999 0.126136 -0.005340
vn -0.991999 0.126136 -0.005340
vn -0.991999 0.126136 -0.005340
vn -0.991999 0.126136 -0.005340
vn -1.000000 0.000000 0.000000
vn -1.000000 0.000000 0.000000
vn -1.000000 0.000000 0.000000
vn 1.000000 0.000000 0.000000
vn 1.000000 -0.000000 0.000000
vn 1.000000 0.000000 0.000000
vn 0.994216 0.106860 -0.010716
vn 0.994216 0.106860 -0.010716
vn 0.994216 0.106860 -0.010716
vn 0.994216 0.106860 -0.010716
vn 1.000000 0.000000 0.000000
vn 1.000000 -0.000000 0.000000
vn 1.000000 0.000000 0.000000
vn -0.001246 0.618268 0.785966
vn 0.098386 0.495077 0.863261
vn 0.104942 0.488235 0.866380
vn 0.001246 0.618169 0.786044
vn 0.071906 0.529735 -0.845110
vn -0.000959 0.618053 -0.786136
vn 0.001049 0.618433 -0.785837
vn 0.076741 0.524791 -0.847765
vn -0.000019 -0.996920 0.078427
vn -0.000019 -0.996920 0.078427
vn -0.000019 -0.996920 0.078427
vn -0.000019 -0.996920 0.078427
vn -0.448055 0.032293 0.893423
vn -0.059495 0.542305 0.838073
vn -0.065855 0.535968 0.841666
vn -0.448055 0.032293 0.893423
vn -0.138256 0.444562 -0.885014
vn -0.448568 0.028784 -0.893285
vn -0.448568 0.028784 -0.893285
vn -0.143113 0.439289 -0.886873
vn 0.098386 0.495077 0.863261
vn 0.449025 0.028813 0.893054
vn 0.449025 0.028813 0.893055
vn 0.104942 0.488235 0.866380
vn 0.000045 -0.983075 0.183202
vn 0.000045 -0.983075 0.183202
vn 0.000045 -0.983075 0.183202
vn 0.000045 -0.983075 0.183202
vn 0.450188 0.022931 -0.892640
vn 0.071906 0.529735 -0.845110
vn 0.076741 0.524791 -0.847765
vn 0.450188 0.022931 -0.892640
vn 0.000000 1.000000 0.000000
vn 0.000000 1.000000 0.000000
vn 0.000000 1.000000 0.000000
vn 0.000000 1.000000 0.000000
vn -0.059495 0.542305 0.838073
vn -0.001246 0.618268 0.785966
vn 0.001246 0.618169 0.786044
vn -0.065855 0.535968 0.841666
vn 0.000000 1.000000 0.000000
vn 0.000000 1.000000 0.000000
vn 0.000000 1.000000 0.000000
vn 0.000000 1.000000 0.000000
vn 0.000000 0.000000 1.000000
vn 0.000000 0.000000 1.000000
vn 0.000000 0.000000 1.000000
vn 0.000000 0.000000 1.000000
vn 0.000000 -1.000000 0.000000
vn 0.000000 -1.000000 0.000000
vn 0.000000 -1.000000 0.000000
vn 0.000000 -1.000000 0.000000
vn 0.000000 0.000000 -1.000000
vn 0.000000 0.000000 -1.000000
vn 0.000000 0.000000 -1.000000
vn 0.000000 0.000000 -1.000000
vn 0.000000 1.000000 0.000000
vn 0.000000 1.000000 0.000000
vn 0.000000 1.000000 0.000000
vn 0.000000 1.000000 0.000000
vn 0.001049 0.618433 -0.785837
vn -0.000959 0.618053 -0.786136
vn -0.138256 0.444562 -0.885014
vn -0.143113 0.439289 -0.886873
s off
f 4/4/1 12/21/2 27/45/3
f 2/2/4 16/26/5 4/4/6
f 1/1/7 3/3/8 13/23/9
f 7/13/10 14/24/11 5/14/12
f 15/25/13 8/11/14 6/12/15
f 28/48/16 10/17/17 6/6/18
f 7/13/19 1/1/20 13/23/21 14/24/22
f 16/26/23 2/2/24 8/11/25 15/25/26
f 26/44/27 17/28/28 19/29/29 25/43/30
f 13/23/31 3/3/32 11/19/33
f 22/31/34 21/32/35 18/27/36 20/30/37
f 5/14/38 14/24/39 9/15/40
f 10/18/41 15/25/42 6/12/43
f 17/28/44 23/33/45 24/34/46 19/29/47
f 4/4/48 16/26/49 12/22/50
f 27/46/51 12/36/52 17/28/53 26/44/54
f 10/37/55 28/47/56 25/43/57 19/29/58
f 14/39/59 13/40/60 21/32/61 22/31/62
f 13/40/63 11/35/64 18/27/65 21/32/66
f 9/38/67 14/39/68 22/31/69 20/30/70
f 12/36/71 16/41/72 23/33/73 17/28/74
f 16/41/75 15/42/76 24/34/77 23/33/78
f 15/42/79 10/37/80 19/29/81 24/34/82
f 18/27/83 26/44/84 25/43/85 20/30/86
f 11/35/87 27/46/88 26/44/89 18/27/90
f 3/3/91 4/4/92 27/45/93 11/20/94
f 1/1/95 2/2/96 4/4/97 3/3/98
f 7/7/99 8/8/100 2/10/101 1/9/102
f 5/5/103 6/6/104 8/8/105 7/7/106
f 9/16/107 28/48/108 6/6/109 5/5/110
f 25/43/111 28/47/112 9/38/113 20/30/114
