# This file uses centimeters as units for non-parametric coordinates.

v -1.000001 -0.109765 0.045466
v -1.000002 0.000000 0.000000
v -1.000001 0.109765 0.045466
v -1.000001 0.155231 0.155231
v -1.000001 0.109765 0.264996
v -1.000002 0.000000 0.310462
v -1.000001 -0.109765 0.264996
v -1.000002 -0.155231 0.155231
v -0.000001 0.155231 0.155231
v -0.000001 0.109765 0.045466
v -0.000001 0.109765 0.264996
v -0.000002 0.000000 0.310462
v -0.000001 -0.109765 0.264996
v -0.000002 -0.155231 0.155231
v -0.000001 -0.109765 0.045466
v -0.000002 0.000000 0.000000
vt 0.026330 0.276146
vt 0.026330 0.276146
vt 0.026330 0.276146
vt 0.026330 0.276146
vt 0.026330 0.276146
vt 0.026330 0.276146
vt 0.026330 0.276146
vt 0.026330 0.276146
vt 0.026330 0.276146
vt 0.026330 0.276146
vt 0.026330 0.276146
vt 0.026330 0.276146
vt 0.026330 0.276146
vt 0.026330 0.276146
vt 0.026330 0.276146
vt 0.026330 0.276146
vt 0.026330 0.276146
vt 0.026330 0.276146
vn -0.000000 0.923880 -0.382683
vn -0.000000 0.923880 -0.382683
vn -0.000000 0.923880 -0.382683
vn -0.000000 0.923880 -0.382683
vn -0.000000 0.923880 0.382683
vn -0.000000 0.923880 0.382683
vn -0.000000 0.923880 0.382683
vn -0.000000 0.923880 0.382683
vn 0.000000 0.382685 0.923879
vn 0.000000 0.382685 0.923879
vn 0.000000 0.382685 0.923879
vn 0.000000 0.382685 0.923879
vn 0.000000 -0.382685 0.923879
vn 0.000000 -0.382685 0.923879
vn 0.000000 -0.382685 0.923879
vn 0.000000 -0.382685 0.923879
vn 0.000000 -0.923879 0.382684
vn 0.000000 -0.923879 0.382684
vn 0.000000 -0.923879 0.382684
vn 0.000000 -0.923879 0.382684
vn 0.000000 -0.923880 -0.382683
vn 0.000000 -0.923880 -0.382683
vn 0.000000 -0.923880 -0.382683
vn 0.000000 -0.923880 -0.382683
vn 0.000000 -0.382681 -0.923881
vn 0.000000 -0.382681 -0.923881
vn 0.000000 -0.382681 -0.923881
vn 0.000000 -0.382681 -0.923881
vn -0.000000 0.382681 -0.923881
vn -0.000000 0.382681 -0.923881
vn -0.000000 0.382681 -0.923881
vn -0.000000 0.382681 -0.923881
s off
f 3/1/1 4/2/2 9/3/3 10/4/4
f 4/2/5 5/5/6 11/6/7 9/3/8
f 5/5/9 6/7/10 12/8/11 11/6/12
f 6/7/13 7/9/14 13/10/15 12/8/16
f 7/9/17 8/11/18 14/12/19 13/10/20
f 8/11/21 1/13/22 15/14/23 14/12/24
f 1/15/25 2/16/26 16/17/27 15/18/28
f 2/16/29 3/1/30 10/4/31 16/17/32
