# This file uses centimeters as units for non-parametric coordinates.

v -0.609436 0.000000 0.132543
v 0.609421 0.000000 0.132543
v -0.609436 0.649174 0.132543
v 0.609421 0.649174 0.132543
v -0.609436 0.649174 -0.132543
v 0.609421 0.649174 -0.132543
v -0.609436 0.000000 -0.132543
v 0.609421 0.000000 -0.132543
v -0.547455 0.044698 0.132543
v 0.547440 0.044698 0.132543
v 0.547440 0.625555 0.132543
v -0.547455 0.625555 0.132543
v -0.547455 0.375087 0.132543
v 0.547440 0.375087 0.132543
v -0.547455 0.294357 0.132543
v 0.547440 0.294357 0.132543
v -0.547455 0.375087 -0.066178
v 0.547440 0.375087 -0.066178
v 0.547440 0.625555 -0.066178
v -0.547455 0.625555 -0.066178
v -0.547455 0.044698 -0.066178
v 0.547440 0.044698 -0.066178
v 0.547440 0.294357 -0.066178
v -0.547455 0.294357 -0.066178
v -0.222321 0.375087 0.092567
v 0.055267 0.375087 0.092567
v -0.222321 0.495229 0.092567
v 0.055267 0.495229 0.092567
v -0.222321 0.495229 -0.086447
v 0.055267 0.495229 -0.086447
v -0.222321 0.375087 -0.086447
v 0.055267 0.375087 -0.086447
v -0.376114 0.044698 0.092567
v -0.098526 0.044698 0.092567
v -0.376114 0.164841 0.092567
v -0.098526 0.164841 0.092567
v -0.376114 0.164841 -0.086447
v -0.098526 0.164841 -0.086447
v -0.376114 0.044698 -0.086447
v -0.098526 0.044698 -0.086447
v 0.146042 0.044698 0.092567
v 0.423630 0.044698 0.092567
v 0.146042 0.164841 0.092567
v 0.423630 0.164841 0.092567
v 0.146042 0.164841 -0.086447
v 0.423630 0.164841 -0.086447
v 0.146042 0.044698 -0.086447
v 0.423630 0.044698 -0.086447
v -0.547455 0.693872 0.132543
v -0.547455 0.693872 -0.132543
v 0.547440 0.693872 0.132543
v 0.547440 0.693872 -0.132543
v -0.465652 1.313216 0.092567
v -0.188065 1.313216 0.092567
v -0.465652 1.433359 0.092567
v -0.188065 1.433359 0.092567
v -0.465652 1.433359 -0.086447
v -0.188065 1.433359 -0.086447
v -0.465652 1.313216 -0.086447
v -0.188065 1.313216 -0.086447
v -0.102219 1.313216 0.092567
v 0.175369 1.313216 0.092567
v -0.102219 1.433359 0.092567
v 0.175369 1.433359 0.092567
v -0.102219 1.433359 -0.086447
v 0.175369 1.433359 -0.086447
v -0.102219 1.313216 -0.086447
v 0.175369 1.313216 -0.086447
v -0.609436 1.313216 0.132543
v 0.609421 1.313216 0.132543
v -0.609436 1.313216 -0.132543
v 0.609421 1.313216 -0.132543
v 0.547440 1.268518 0.132543
v -0.547455 1.268518 0.132543
v -0.547455 1.024261 0.132543
v 0.547440 1.024261 0.132543
v -0.547455 0.943532 0.132543
v 0.547440 0.943532 0.132543
v -0.547455 1.024261 -0.066178
v 0.547440 1.024261 -0.066178
v 0.547440 1.268518 -0.066178
v -0.547455 1.268518 -0.066178
v -0.547455 0.693872 -0.066178
v 0.547440 0.693872 -0.066178
v 0.547440 0.943532 -0.066178
v -0.547455 0.943532 -0.066178
v -0.222321 1.024261 0.092567
v 0.055267 1.024261 0.092567
v -0.222321 1.144404 0.092567
v 0.055267 1.144404 0.092567
v -0.222321 1.144404 -0.086447
v 0.055267 1.144404 -0.086447
v -0.222321 1.024261 -0.086447
v 0.055267 1.024261 -0.086447
v -0.376114 0.693872 0.092567
v -0.098526 0.693872 0.092567
v -0.376114 0.814015 0.092567
v -0.098526 0.814015 0.092567
v -0.376114 0.814015 -0.086447
v -0.098526 0.814015 -0.086447
v -0.376114 0.693872 -0.086447
v -0.098526 0.693872 -0.086447
v 0.146042 0.693872 0.092567
v 0.423630 0.693872 0.092567
v 0.146042 0.814015 0.092567
v 0.423630 0.814015 0.092567
v 0.146042 0.814015 -0.086447
v 0.423630 0.814015 -0.086447
v 0.146042 0.693872 -0.086447
v 0.423630 0.693872 -0.086447
vt 0.102970 0.354156
vt 0.102970 0.354156
vt 0.102970 0.354156
vt 0.102970 0.354156
vt 0.102970 0.354156
vt 0.102970 0.354156
vt 0.102970 0.354156
vt 0.102970 0.354156
vt 0.102970 0.354156
vt 0.102970 0.354156
vt 0.102970 0.354156
vt 0.102970 0.354156
vt 0.102970 0.354156
vt 0.102970 0.354156
vt 0.102970 0.354156
vt 0.102970 0.354156
vt 0.102970 0.354156
vt 0.102970 0.354156
vt 0.102970 0.354156
vt 0.102970 0.354156
vt 0.102970 0.354156
vt 0.102970 0.354156
vt 0.102970 0.354156
vt 0.102970 0.354156
vt 0.102970 0.354156
vt 0.102970 0.354156
vt 0.102970 0.354156
vt 0.102970 0.354156
vt 0.171521 0.444574
vt 0.171521 0.444574
vt 0.171521 0.444574
vt 0.171521 0.444574
vt 0.171521 0.444574
vt 0.171521 0.444574
vt 0.171521 0.444574
vt 0.171521 0.444574
vt 0.035699 0.444574
vt 0.035699 0.444574
vt 0.035699 0.444574
vt 0.035699 0.444574
vt 0.035699 0.444574
vt 0.035699 0.444574
vt 0.035699 0.444574
vt 0.035699 0.444574
vt 0.248616 0.472568
vt 0.248616 0.472568
vt 0.248616 0.472568
vt 0.248616 0.472568
vt 0.248616 0.472568
vt 0.248616 0.472568
vt 0.248616 0.472568
vt 0.248616 0.472568
vt 0.102970 0.354156
vt 0.102970 0.354156
vt 0.102970 0.354156
vt 0.102970 0.354156
vt 0.175641 0.303568
vt 0.175641 0.303568
vt 0.175641 0.303568
vt 0.175641 0.303568
vt 0.175641 0.303568
vt 0.175641 0.303568
vt 0.175641 0.303568
vt 0.175641 0.303568
vt 0.035699 0.444574
vt 0.035699 0.444574
vt 0.035699 0.444574
vt 0.035699 0.444574
vt 0.035699 0.444574
vt 0.035699 0.444574
vt 0.035699 0.444574
vt 0.035699 0.444574
vt 0.102970 0.354156
vt 0.102970 0.354156
vt 0.102970 0.354156
vt 0.102970 0.354156
vt 0.102970 0.354156
vt 0.102970 0.354156
vt 0.102970 0.354156
vt 0.102970 0.354156
vt 0.102970 0.354156
vt 0.102970 0.354156
vt 0.102970 0.354156
vt 0.102970 0.354156
vt 0.102970 0.354156
vt 0.102970 0.354156
vt 0.102970 0.354156
vt 0.102970 0.354156
vt 0.102970 0.354156
vt 0.102970 0.354156
vt 0.102970 0.354156
vt 0.102970 0.354156
vt 0.102970 0.354156
vt 0.102970 0.354156
vt 0.102970 0.354156
vt 0.102970 0.354156
vt 0.102970 0.354156
vt 0.102970 0.354156
vt 0.102970 0.354156
vt 0.102970 0.354156
vt 0.171521 0.444574
vt 0.171521 0.444574
vt 0.171521 0.444574
vt 0.171521 0.444574
vt 0.171521 0.444574
vt 0.171521 0.444574
vt 0.171521 0.444574
vt 0.171521 0.444574
vt 0.035699 0.444574
vt 0.035699 0.444574
vt 0.035699 0.444574
vt 0.035699 0.444574
vt 0.035699 0.444574
vt 0.035699 0.444574
vt 0.035699 0.444574
vt 0.035699 0.444574
vt 0.248616 0.472568
vt 0.248616 0.472568
vt 0.248616 0.472568
vt 0.248616 0.472568
vt 0.248616 0.472568
vt 0.248616 0.472568
vt 0.248616 0.472568
vt 0.248616 0.472568
vn 0.000000 0.000000 1.000000
vn 0.000000 0.000000 1.000000
vn 0.000000 0.000000 1.000000
vn 0.000000 0.000000 1.000000
vn 0.000000 0.000000 -1.000000
vn 0.000000 0.000000 -1.000000
vn 0.000000 0.000000 -1.000000
vn 0.000000 0.000000 -1.000000
vn 0.000000 0.000000 -1.000000
vn 0.000000 0.000000 -1.000000
vn 1.000000 0.000000 0.000000
vn 1.000000 0.000000 0.000000
vn 1.000000 0.000000 0.000000
vn 1.000000 0.000000 0.000000
vn -1.000000 0.000000 0.000000
vn -1.000000 0.000000 0.000000
vn -1.000000 0.000000 0.000000
vn -1.000000 0.000000 0.000000
vn 0.000000 0.000000 1.000000
vn 0.000000 0.000000 1.000000
vn 0.000000 0.000000 1.000000
vn 0.000000 0.000000 1.000000
vn 0.000000 0.000000 1.000000
vn 0.000000 0.000000 1.000000
vn 0.000000 0.000000 1.000000
vn 0.000000 0.000000 1.000000
vn 0.000000 0.000000 1.000000
vn 0.000000 0.000000 1.000000
vn -0.000000 0.000000 1.000000
vn -0.000000 0.000000 1.000000
vn -0.000000 0.000000 1.000000
vn -0.000000 0.000000 1.000000
vn -0.000000 0.000000 1.000000
vn -0.000000 0.000000 1.000000
vn -0.000000 0.000000 1.000000
vn -0.000000 0.000000 1.000000
vn -0.000000 0.000000 1.000000
vn 0.000000 0.000000 1.000000
vn 0.000000 0.000000 1.000000
vn 0.000000 0.000000 1.000000
vn 0.000000 0.000000 1.000000
vn 0.000000 0.000000 1.000000
vn 0.000000 0.000000 1.000000
vn 0.000000 0.000000 1.000000
vn 0.000000 0.000000 1.000000
vn 0.000000 1.000000 0.000000
vn 0.000000 1.000000 0.000000
vn 0.000000 1.000000 0.000000
vn 0.000000 1.000000 0.000000
vn -1.000000 0.000000 0.000000
vn -1.000000 0.000000 0.000000
vn -1.000000 0.000000 0.000000
vn -1.000000 0.000000 0.000000
vn 0.000000 -1.000000 0.000000
vn 0.000000 -1.000000 0.000000
vn 0.000000 -1.000000 0.000000
vn 0.000000 -1.000000 0.000000
vn 1.000000 0.000000 0.000000
vn 1.000000 0.000000 0.000000
vn 1.000000 0.000000 0.000000
vn 1.000000 0.000000 0.000000
vn 0.000000 1.000000 0.000000
vn 0.000000 1.000000 0.000000
vn 0.000000 1.000000 0.000000
vn 0.000000 1.000000 0.000000
vn -1.000000 0.000000 0.000000
vn -1.000000 0.000000 0.000000
vn -1.000000 0.000000 0.000000
vn -1.000000 0.000000 0.000000
vn 0.000000 -1.000000 0.000000
vn 0.000000 -1.000000 0.000000
vn 0.000000 -1.000000 0.000000
vn 0.000000 -1.000000 0.000000
vn 1.000000 0.000000 0.000000
vn 1.000000 0.000000 0.000000
vn 1.000000 0.000000 0.000000
vn 1.000000 0.000000 0.000000
vn 0.000000 0.000000 1.000000
vn 0.000000 0.000000 1.000000
vn 0.000000 0.000000 1.000000
vn 0.000000 0.000000 1.000000
vn 0.000000 1.000000 0.000000
vn 0.000000 1.000000 0.000000
vn 0.000000 1.000000 0.000000
vn 0.000000 1.000000 0.000000
vn 0.000000 0.000000 -1.000000
vn 0.000000 0.000000 -1.000000
vn 0.000000 0.000000 -1.000000
vn 0.000000 0.000000 -1.000000
vn 1.000000 0.000000 0.000000
vn 1.000000 0.000000 0.000000
vn 1.000000 0.000000 0.000000
vn 1.000000 0.000000 0.000000
vn -1.000000 0.000000 0.000000
vn -1.000000 0.000000 0.000000
vn -1.000000 0.000000 0.000000
vn -1.000000 0.000000 0.000000
vn 0.000000 0.000000 1.000000
vn 0.000000 0.000000 1.000000
vn 0.000000 0.000000 1.000000
vn 0.000000 0.000000 1.000000
vn 0.000000 1.000000 0.000000
vn 0.000000 1.000000 0.000000
vn 0.000000 1.000000 0.000000
vn 0.000000 1.000000 0.000000
vn 0.000000 0.000000 -1.000000
vn 0.000000 0.000000 -1.000000
vn 0.000000 0.000000 -1.000000
vn 0.000000 0.000000 -1.000000
vn 1.000000 0.000000 0.000000
vn 1.000000 0.000000 0.000000
vn 1.000000 0.000000 0.000000
vn 1.000000 0.000000 0.000000
vn -1.000000 0.000000 0.000000
vn -1.000000 0.000000 0.000000
vn -1.000000 0.000000 0.000000
vn -1.000000 0.000000 0.000000
vn 0.000000 0.000000 1.000000
vn 0.000000 0.000000 1.000000
vn 0.000000 0.000000 1.000000
vn 0.000000 0.000000 1.000000
vn 0.000000 1.000000 0.000000
vn 0.000000 1.000000 0.000000
vn 0.000000 1.000000 0.000000
vn 0.000000 1.000000 0.000000
vn 0.000000 0.000000 -1.000000
vn 0.000000 0.000000 -1.000000
vn 0.000000 0.000000 -1.000000
vn 0.000000 0.000000 -1.000000
vn 1.000000 0.000000 0.000000
vn 1.000000 0.000000 0.000000
vn 1.000000 0.000000 0.000000
vn 1.000000 0.000000 0.000000
vn -1.000000 0.000000 0.000000
vn -1.000000 0.000000 0.000000
vn -1.000000 0.000000 0.000000
vn -1.000000 0.000000 0.000000
vn -0.000000 1.000000 0.000000
vn -0.000000 1.000000 0.000000
vn -0.000000 1.000000 0.000000
vn -0.000000 1.000000 0.000000
vn 0.000000 0.000000 1.000000
vn 0.000000 0.000000 1.000000
vn 0.000000 0.000000 1.000000
vn 0.000000 0.000000 1.000000
vn 0.000000 0.000000 1.000000
vn -0.000000 0.000000 1.000000
vn -0.000000 0.000000 1.000000
vn 0.000000 0.000000 1.000000
vn 0.000000 0.000000 1.000000
vn 0.000000 0.000000 1.000000
vn 0.000000 0.000000 1.000000
vn 0.000000 1.000000 0.000000
vn 0.000000 1.000000 0.000000
vn 0.000000 1.000000 0.000000
vn 0.000000 1.000000 0.000000
vn 0.000000 0.000000 -1.000000
vn 0.000000 0.000000 -1.000000
vn 0.000000 0.000000 -1.000000
vn 0.000000 0.000000 -1.000000
vn 1.000000 0.000000 0.000000
vn 1.000000 0.000000 0.000000
vn 1.000000 0.000000 0.000000
vn 1.000000 0.000000 0.000000
vn -1.000000 0.000000 0.000000
vn -1.000000 0.000000 0.000000
vn -1.000000 0.000000 0.000000
vn -1.000000 0.000000 0.000000
vn 0.000000 0.000000 1.000000
vn 0.000000 0.000000 1.000000
vn 0.000000 0.000000 1.000000
vn 0.000000 0.000000 1.000000
vn 0.000000 1.000000 0.000000
vn 0.000000 1.000000 0.000000
vn 0.000000 1.000000 0.000000
vn 0.000000 1.000000 0.000000
vn 0.000000 0.000000 -1.000000
vn 0.000000 0.000000 -1.000000
vn 0.000000 0.000000 -1.000000
vn 0.000000 0.000000 -1.000000
vn 1.000000 0.000000 0.000000
vn 1.000000 0.000000 0.000000
vn 1.000000 0.000000 0.000000
vn 1.000000 0.000000 0.000000
vn -1.000000 0.000000 0.000000
vn -1.000000 0.000000 0.000000
vn -1.000000 0.000000 0.000000
vn -1.000000 0.000000 0.000000
vn 0.000000 0.000000 1.000000
vn 0.000000 0.000000 1.000000
vn 0.000000 0.000000 1.000000
vn 0.000000 0.000000 1.000000
vn 0.000000 1.000000 0.000000
vn 0.000000 1.000000 0.000000
vn 0.000000 1.000000 0.000000
vn 0.000000 1.000000 0.000000
vn 0.000000 0.000000 -1.000000
vn 0.000000 0.000000 -1.000000
vn 0.000000 0.000000 -1.000000
vn 0.000000 0.000000 -1.000000
vn 1.000000 0.000000 0.000000
vn 1.000000 0.000000 0.000000
vn 1.000000 0.000000 0.000000
vn 1.000000 0.000000 0.000000
vn -1.000000 0.000000 0.000000
vn -1.000000 0.000000 0.000000
vn -1.000000 0.000000 0.000000
vn -1.000000 0.000000 0.000000
vn -0.000000 0.000000 1.000000
vn -0.000000 0.000000 1.000000
vn -0.000000 0.000000 1.000000
vn -0.000000 0.000000 1.000000
vn -0.000000 0.000000 1.000000
vn -0.000000 0.000000 1.000000
vn 0.000000 0.000000 1.000000
vn 0.000000 0.000000 1.000000
vn 0.000000 0.000000 1.000000
vn 0.000000 0.000000 1.000000
vn -0.000000 0.000000 1.000000
vn -0.000000 0.000000 1.000000
vn -0.000000 0.000000 1.000000
vn -0.000000 0.000000 1.000000
vn -0.000000 0.000000 1.000000
vn -0.000000 0.000000 1.000000
vn 0.000000 0.000000 1.000000
vn 0.000000 0.000000 1.000000
vn 0.000000 0.000000 1.000000
vn 0.000000 0.000000 1.000000
vn 0.000000 0.000000 1.000000
vn 0.000000 0.000000 1.000000
vn 0.000000 0.000000 1.000000
vn 0.000000 0.000000 1.000000
vn 0.000000 1.000000 0.000000
vn 0.000000 1.000000 0.000000
vn 0.000000 1.000000 0.000000
vn 0.000000 1.000000 0.000000
vn -1.000000 0.000000 0.000000
vn -1.000000 0.000000 0.000000
vn -1.000000 0.000000 0.000000
vn -1.000000 0.000000 0.000000
vn 0.000000 -1.000000 0.000000
vn 0.000000 -1.000000 0.000000
vn 0.000000 -1.000000 0.000000
vn 0.000000 -1.000000 0.000000
vn 1.000000 0.000000 0.000000
vn 1.000000 0.000000 0.000000
vn 1.000000 0.000000 0.000000
vn 1.000000 0.000000 0.000000
vn -1.000000 0.000000 0.000000
vn -1.000000 0.000000 0.000000
vn -1.000000 0.000000 0.000000
vn -1.000000 0.000000 0.000000
vn 0.000000 -1.000000 0.000000
vn 0.000000 -1.000000 0.000000
vn 0.000000 -1.000000 0.000000
vn 0.000000 -1.000000 0.000000
vn 1.000000 0.000000 0.000000
vn 1.000000 0.000000 0.000000
vn 1.000000 0.000000 0.000000
vn 1.000000 0.000000 0.000000
vn 0.000000 0.000000 1.000000
vn 0.000000 0.000000 1.000000
vn 0.000000 0.000000 1.000000
vn 0.000000 0.000000 1.000000
vn 0.000000 1.000000 0.000000
vn 0.000000 1.000000 0.000000
vn 0.000000 1.000000 0.000000
vn 0.000000 1.000000 0.000000
vn 0.000000 0.000000 -1.000000
vn 0.000000 0.000000 -1.000000
vn 0.000000 0.000000 -1.000000
vn 0.000000 0.000000 -1.000000
vn 1.000000 0.000000 0.000000
vn 1.000000 0.000000 0.000000
vn 1.000000 0.000000 0.000000
vn 1.000000 0.000000 0.000000
vn -1.000000 0.000000 0.000000
vn -1.000000 0.000000 0.000000
vn -1.000000 0.000000 0.000000
vn -1.000000 0.000000 0.000000
vn 0.000000 0.000000 1.000000
vn 0.000000 0.000000 1.000000
vn 0.000000 0.000000 1.000000
vn 0.000000 0.000000 1.000000
vn 0.000000 1.000000 0.000000
vn 0.000000 1.000000 0.000000
vn 0.000000 1.000000 0.000000
vn 0.000000 1.000000 0.000000
vn 0.000000 0.000000 -1.000000
vn 0.000000 0.000000 -1.000000
vn 0.000000 0.000000 -1.000000
vn 0.000000 0.000000 -1.000000
vn 1.000000 0.000000 0.000000
vn 1.000000 0.000000 0.000000
vn 1.000000 0.000000 0.000000
vn 1.000000 0.000000 0.000000
vn -1.000000 0.000000 0.000000
vn -1.000000 0.000000 0.000000
vn -1.000000 0.000000 0.000000
vn -1.000000 0.000000 0.000000
vn 0.000000 0.000000 1.000000
vn 0.000000 0.000000 1.000000
vn 0.000000 0.000000 1.000000
vn 0.000000 0.000000 1.000000
vn 0.000000 1.000000 0.000000
vn 0.000000 1.000000 0.000000
vn 0.000000 1.000000 0.000000
vn 0.000000 1.000000 0.000000
vn 0.000000 0.000000 -1.000000
vn 0.000000 0.000000 -1.000000
vn 0.000000 0.000000 -1.000000
vn 0.000000 0.000000 -1.000000
vn 1.000000 0.000000 0.000000
vn 1.000000 0.000000 0.000000
vn 1.000000 0.000000 0.000000
vn 1.000000 0.000000 0.000000
vn -1.000000 0.000000 0.000000
vn -1.000000 0.000000 0.000000
vn -1.000000 0.000000 0.000000
vn -1.000000 0.000000 0.000000
s off
f 17/1/1 18/2/2 19/3/3 20/4/4
f 5/8/5 50/54/6 52/56/7 6/7/8 8/9/9 7/10/10
f 2/11/11 8/12/12 6/13/13 4/6/14
f 7/14/15 1/15/16 3/5/17 5/16/18
f 1/15/19 2/11/20 10/17/21 9/18/22
f 2/11/23 4/6/24 11/19/25 14/20/26 16/21/27 10/17/28
f 12/22/29 49/53/30 3/5/31
f 3/5/32 1/15/33 9/18/34 15/23/35 13/24/36 12/22/37
f 15/23/38 16/21/39 14/20/40 13/24/41
f 21/25/42 22/26/43 23/27/44 24/28/45
f 13/24/46 14/20/47 18/2/48 17/1/49
f 14/20/50 11/19/51 19/3/52 18/2/53
f 11/19/54 12/22/55 20/4/56 19/3/57
f 12/22/58 13/24/59 17/1/60 20/4/61
f 9/18/62 10/17/63 22/26/64 21/25/65
f 10/17/66 16/21/67 23/27/68 22/26/69
f 16/21/70 15/23/71 24/28/72 23/27/73
f 15/23/74 9/18/75 21/25/76 24/28/77
f 25/29/78 26/30/79 28/31/80 27/32/81
f 27/32/82 28/31/83 30/33/84 29/34/85
f 29/34/86 30/33/87 32/35/88 31/36/89
f 26/30/90 32/35/91 30/33/92 28/31/93
f 31/36/94 25/29/95 27/32/96 29/34/97
f 33/37/98 34/38/99 36/39/100 35/40/101
f 35/40/102 36/39/103 38/41/104 37/42/105
f 37/42/106 38/41/107 40/43/108 39/44/109
f 34/38/110 40/43/111 38/41/112 36/39/113
f 39/44/114 33/37/115 35/40/116 37/42/117
f 41/45/118 42/46/119 44/47/120 43/48/121
f 43/48/122 44/47/123 46/49/124 45/50/125
f 45/50/126 46/49/127 48/51/128 47/52/129
f 42/46/130 48/51/131 46/49/132 44/47/133
f 47/52/134 41/45/135 43/48/136 45/50/137
f 50/54/138 49/53/139 51/55/140 52/56/141
f 4/6/142 51/55/143 11/19/144
f 11/19/145 51/55/146 49/53/147 12/22/148
f 53/57/149 54/58/150 56/59/151 55/60/152
f 55/60/153 56/59/154 58/61/155 57/62/156
f 57/62/157 58/61/158 60/63/159 59/64/160
f 54/58/161 60/63/162 58/61/163 56/59/164
f 59/64/165 53/57/166 55/60/167 57/62/168
f 61/65/169 62/66/170 64/67/171 63/68/172
f 63/68/173 64/67/174 66/69/175 65/70/176
f 65/70/177 66/69/178 68/71/179 67/72/180
f 62/66/181 68/71/182 66/69/183 64/67/184
f 67/72/185 61/65/186 63/68/187 65/70/188
f 79/73/189 80/74/190 81/75/191 82/76/192
f 69/77/193 70/78/194 72/79/195 71/80/196
f 71/80/197 72/79/198 6/81/199 5/82/200
f 4/83/201 6/84/202 72/85/203 70/78/204
f 5/86/205 3/87/206 69/77/207 71/88/208
f 4/83/209 70/78/210 73/89/211 76/90/212 78/91/213 51/92/214
f 70/78/215 69/77/216 74/93/217 73/89/218
f 69/77/219 3/87/220 49/94/221 77/95/222 75/96/223 74/93/224
f 77/95/225 78/91/226 76/90/227 75/96/228
f 83/97/229 84/98/230 85/99/231 86/100/232
f 75/96/233 76/90/234 80/74/235 79/73/236
f 76/90/237 73/89/238 81/75/239 80/74/240
f 73/89/241 74/93/242 82/76/243 81/75/244
f 74/93/245 75/96/246 79/73/247 82/76/248
f 51/92/249 78/91/250 85/99/251 84/98/252
f 78/91/253 77/95/254 86/100/255 85/99/256
f 77/95/257 49/94/258 83/97/259 86/100/260
f 87/101/261 88/102/262 90/103/263 89/104/264
f 89/104/265 90/103/266 92/105/267 91/106/268
f 91/106/269 92/105/270 94/107/271 93/108/272
f 88/102/273 94/107/274 92/105/275 90/103/276
f 93/108/277 87/101/278 89/104/279 91/106/280
f 95/109/281 96/110/282 98/111/283 97/112/284
f 97/112/285 98/111/286 100/113/287 99/114/288
f 99/114/289 100/113/290 102/115/291 101/116/292
f 96/110/293 102/115/294 100/113/295 98/111/296
f 101/116/297 95/109/298 97/112/299 99/114/300
f 103/117/301 104/118/302 106/119/303 105/120/304
f 105/120/305 106/119/306 108/121/307 107/122/308
f 107/122/309 108/121/310 110/123/311 109/124/312
f 104/118/313 110/123/314 108/121/315 106/119/316
f 109/124/317 103/117/318 105/120/319 107/122/320
