# This file uses centimeters as units for non-parametric coordinates.

v 0.135492 0.064490 -0.135484
v 0.000011 0.064490 -0.191597
v -0.135469 0.064490 -0.135484
v -0.191583 0.064490 -0.000003
v -0.135469 0.064490 0.135478
v 0.000011 0.064490 0.191599
v 0.135492 0.064490 0.135478
v 0.191606 0.064490 -0.000003
v 0.033572 0.955892 -0.033563
v 0.000011 0.955892 -0.047465
v -0.033549 0.955892 -0.033563
v -0.047443 0.955892 -0.000003
v -0.033549 0.955892 0.033557
v 0.000011 0.955892 0.047460
v 0.033572 0.955892 0.033557
v 0.047466 0.955892 -0.000003
v 0.000011 0.040261 -0.252274
v -0.252259 0.040261 -0.000003
v 0.000011 0.040261 0.252275
v 0.252282 0.040261 -0.000003
v 0.000011 0.000000 -0.262556
v 0.000011 0.000000 -0.000003
v -0.262542 0.000000 -0.000003
v 0.000011 0.000000 0.262558
v 0.262564 0.000000 -0.000003
v 0.187735 0.040261 -0.252274
v 0.252282 0.040261 -0.198249
v 0.262564 0.000000 -0.206334
v 0.195389 0.000000 -0.262556
v -0.252259 0.040261 -0.198249
v -0.187712 0.040261 -0.252274
v -0.262542 0.000000 -0.206334
v -0.195367 0.000000 -0.262556
v -0.187712 0.040261 0.252275
v -0.252259 0.040261 0.198250
v -0.195367 0.000000 0.262558
v -0.262542 0.000000 0.206328
v 0.252282 0.040261 0.198250
v 0.187735 0.040261 0.252275
v 0.262565 0.000000 0.206328
v 0.195390 0.000000 0.262558
v 0.025557 0.955892 -0.025548
v 0.000011 0.955892 -0.036132
v 0.000011 0.955892 -0.000003
v -0.025534 0.955892 -0.025548
v -0.036118 0.955892 -0.000003
v -0.025534 0.955892 0.025550
v 0.000011 0.955892 0.036134
v 0.025557 0.955892 0.025550
v 0.036140 0.955892 -0.000003
v 0.049297 0.818395 -0.049281
v 0.069709 0.818395 -0.000003
v 0.049297 0.818395 0.049283
v 0.000011 0.818395 0.069695
v -0.051373 0.811503 0.050008
v -0.069686 0.818395 -0.000003
v -0.049274 0.818395 -0.049281
v -0.001523 0.807043 -0.072216
v 0.072043 0.619357 -0.072042
v 0.101894 0.619357 -0.000003
v 0.070166 0.629497 0.072339
v 0.000011 0.619357 0.101880
v -0.072021 0.619357 0.072037
v -0.100307 0.630879 0.002559
v -0.072021 0.619357 -0.072042
v 0.000011 0.619357 -0.101878
v 0.097687 0.395098 -0.097678
v 0.138152 0.395098 -0.000003
v 0.097704 0.383358 0.097758
v 0.000011 0.395098 0.138138
v -0.097664 0.395098 0.097680
v -0.140573 0.383727 -0.001102
v -0.097664 0.395098 -0.097678
v 0.001501 0.383465 -0.140779
v 0.108795 0.289051 -0.111135
v 0.156771 0.279991 -0.000003
v 0.110861 0.279991 0.110839
v 0.000011 0.279991 0.156748
v -0.110823 0.279991 0.110839
v -0.156748 0.279991 -0.000003
v -0.110823 0.279991 -0.110845
v 0.000011 0.279991 -0.156754
v -0.195367 0.018950 -0.262556
v 0.000011 0.018950 -0.262556
v 0.195389 0.018950 -0.262556
v 0.262564 0.018950 -0.206334
v 0.262564 0.018950 -0.000003
v 0.262565 0.018950 0.206328
v 0.195390 0.018950 0.262558
v 0.000011 0.018950 0.262558
v -0.195367 0.018950 0.262558
v -0.262542 0.018950 0.206328
v -0.262542 0.018950 -0.000003
v -0.262542 0.018950 -0.206334
vt 0.485081 0.377569
vt 0.485081 0.377569
vt 0.485081 0.377569
vt 0.485081 0.377569
vt 0.485081 0.377569
vt 0.485081 0.377569
vt 0.485081 0.377569
vt 0.485081 0.377569
vt 0.485081 0.377569
vt 0.485081 0.377569
vt 0.485081 0.377569
vt 0.485081 0.377569
vt 0.485081 0.377569
vt 0.485081 0.377569
vt 0.485081 0.377569
vt 0.485081 0.377569
vt 0.485081 0.377569
vt 0.485081 0.377569
vt 0.485081 0.377569
vt 0.485081 0.377569
vt 0.485081 0.377569
vt 0.485081 0.377569
vt 0.485081 0.377569
vt 0.485081 0.377569
vt 0.485081 0.377569
vt 0.485081 0.377569
vt 0.173319 0.427903
vt 0.485081 0.377569
vt 0.485081 0.377569
vt 0.485081 0.377569
vt 0.485081 0.377569
vt 0.485081 0.377569
vt 0.485081 0.377569
vt 0.485081 0.377569
vt 0.485081 0.377569
vt 0.485081 0.377569
vt 0.485081 0.377569
vt 0.485081 0.377569
vt 0.485081 0.377569
vt 0.485081 0.377569
vt 0.485081 0.377569
vt 0.485081 0.377569
vt 0.485081 0.377569
vt 0.485081 0.377569
vt 0.485081 0.377569
vt 0.485081 0.377569
vt 0.485081 0.377569
vt 0.485081 0.377569
vt 0.485081 0.377569
vt 0.485081 0.377569
vt 0.485081 0.377569
vt 0.485081 0.377569
vt 0.485081 0.377569
vt 0.485081 0.377569
vt 0.485081 0.377569
vt 0.485081 0.377569
vt 0.485081 0.377569
vt 0.485081 0.377569
vt 0.485081 0.377569
vt 0.485081 0.377569
vt 0.485081 0.377569
vt 0.173319 0.427903
vt 0.485081 0.377569
vt 0.485081 0.377569
vt 0.485081 0.377569
vt 0.485081 0.377569
vt 0.485081 0.377569
vt 0.485081 0.377569
vt 0.485081 0.377569
vt 0.485081 0.377569
vt 0.485081 0.377569
vt 0.485081 0.377569
vt 0.485081 0.377569
vt 0.485081 0.377569
vt 0.485081 0.377569
vt 0.485081 0.377569
vt 0.485081 0.377569
vt 0.485081 0.377569
vt 0.485081 0.377569
vt 0.485081 0.377569
vt 0.485081 0.377569
vt 0.485081 0.377569
vt 0.485081 0.377569
vt 0.485081 0.377569
vt 0.485081 0.377569
vt 0.485081 0.377569
vt 0.485081 0.377569
vt 0.485081 0.377569
vt 0.485081 0.377569
vt 0.485081 0.377569
vt 0.485081 0.377569
vt 0.485081 0.377569
vt 0.485081 0.377569
vt 0.485081 0.377569
vt 0.485081 0.377569
vt 0.485081 0.377569
vt 0.485081 0.377569
vt 0.485081 0.377569
vt 0.485081 0.377569
vt 0.485081 0.377569
vt 0.485081 0.377569
vt 0.485081 0.377569
vt 0.485081 0.377569
vt 0.485081 0.377569
vt 0.485081 0.377569
vt 0.485081 0.377569
vt 0.485081 0.377569
vt 0.485081 0.377569
vt 0.485081 0.377569
vt 0.485081 0.377569
vt 0.485081 0.377569
vt 0.485081 0.377569
vt 0.485081 0.377569
vt 0.485081 0.377569
vt 0.485081 0.377569
vt 0.485081 0.377569
vt 0.485081 0.377569
vt 0.173319 0.427903
vt 0.173319 0.427903
vt 0.173319 0.427903
vt 0.485081 0.377569
vt 0.173319 0.427903
vt 0.173319 0.427903
vt 0.173319 0.427903
vt 0.173319 0.427903
vt 0.173319 0.427903
vt 0.173319 0.427903
vt 0.173319 0.427903
vt 0.173319 0.427903
vt 0.173319 0.427903
vt 0.173319 0.427903
vt 0.173319 0.427903
vt 0.173319 0.427903
vt 0.173319 0.427903
vt 0.173319 0.427903
vt 0.173319 0.427903
vt 0.173319 0.427903
vt 0.173319 0.427903
vt 0.173319 0.427903
vt 0.173319 0.427903
vt 0.085167 0.209798
vt 0.085167 0.209798
vt 0.085167 0.209798
vt 0.085167 0.209798
vt 0.085167 0.209798
vt 0.085167 0.209798
vt 0.085167 0.209798
vt 0.085167 0.209798
vt 0.085167 0.209798
vt 0.085167 0.209798
vt 0.085167 0.209798
vt 0.085167 0.209798
vt 0.085167 0.209798
vt 0.085167 0.209798
vt 0.085167 0.209798
vt 0.085167 0.209798
vt 0.085167 0.209799
vt 0.085167 0.209799
vt 0.085167 0.209799
vt 0.085167 0.209799
vt 0.085167 0.209799
vt 0.085167 0.209799
vt 0.085167 0.209799
vt 0.085167 0.209799
vt 0.085167 0.209799
vt 0.085167 0.209799
vt 0.085167 0.209799
vt 0.085167 0.209799
vt 0.085167 0.209799
vt 0.085167 0.209799
vt 0.085167 0.209799
vt 0.085167 0.209799
vn 0.375745 0.145888 -0.915168
vn 0.375745 0.145888 -0.915168
vn 0.375745 0.145888 -0.915168
vn 0.375745 0.145888 -0.915168
vn -0.378484 0.147750 -0.913740
vn -0.378484 0.147750 -0.913740
vn -0.378484 0.147750 -0.913740
vn -0.378484 0.147750 -0.913740
vn -0.913740 0.147750 -0.378484
vn -0.913740 0.147750 -0.378484
vn -0.913740 0.147750 -0.378484
vn -0.913740 0.147750 -0.378484
vn -0.913740 0.147750 0.378484
vn -0.913740 0.147750 0.378484
vn -0.913740 0.147750 0.378484
vn -0.913740 0.147750 0.378484
vn -0.378484 0.147750 0.913740
vn -0.378484 0.147750 0.913740
vn -0.378484 0.147750 0.913740
vn -0.378484 0.147750 0.913740
vn 0.378484 0.147750 0.913740
vn 0.378484 0.147750 0.913740
vn 0.378484 0.147750 0.913740
vn 0.378484 0.147750 0.913740
vn 0.913740 0.147750 0.378484
vn 0.913740 0.147750 0.378484
vn 0.913740 0.147750 0.378484
vn 0.913740 0.147750 0.378484
vn 0.913015 0.148688 -0.379862
vn 0.913015 0.148688 -0.379862
vn 0.913015 0.148688 -0.379862
vn 0.913015 0.148688 -0.379862
vn 0.000000 -1.000000 0.000000
vn 0.000000 -1.000000 0.000000
vn 0.000000 -1.000000 0.000000
vn 0.000000 -1.000000 0.000000
vn 0.000000 -1.000000 0.000000
vn 0.000000 -1.000000 0.000000
vn 0.000000 -1.000000 0.000000
vn 0.000000 -1.000000 0.000000
vn 0.000000 -1.000000 0.000000
vn 0.000000 -1.000000 0.000000
vn 0.000000 -1.000000 0.000000
vn 0.000000 -1.000000 0.000000
vn 0.000000 1.000000 0.000000
vn 0.000000 1.000000 0.000000
vn 0.000000 1.000000 0.000000
vn 0.000000 1.000000 0.000000
vn 0.000000 1.000000 0.000000
vn 0.000000 1.000000 0.000000
vn 0.000000 1.000000 0.000000
vn 0.000000 1.000000 0.000000
vn 0.000000 1.000000 0.000000
vn 0.000000 1.000000 0.000005
vn 0.000000 1.000000 0.000005
vn 0.000000 1.000000 0.000005
vn 0.000000 1.000000 0.000000
vn 0.000000 1.000000 0.000000
vn 0.000000 1.000000 0.000000
vn 0.000000 1.000000 0.000000
vn 0.000000 1.000000 0.000000
vn 0.000000 1.000000 0.000000
vn 0.000000 1.000000 0.000000
vn 0.000000 1.000000 0.000000
vn 0.000000 1.000000 0.000000
vn 0.000000 1.000000 -0.000005
vn 0.000000 1.000000 -0.000005
vn 0.000000 1.000000 -0.000005
vn 0.043614 0.966956 -0.251186
vn 0.043614 0.966956 -0.251186
vn 0.043614 0.966956 -0.251186
vn 0.043614 0.966956 -0.251186
vn -0.043614 0.966956 -0.251186
vn -0.043614 0.966956 -0.251186
vn -0.043614 0.966956 -0.251186
vn -0.043614 0.966956 -0.251186
vn -0.249346 0.967507 -0.041929
vn -0.249346 0.967507 -0.041929
vn -0.249346 0.967506 -0.041929
vn -0.249346 0.967507 -0.041929
vn -0.249346 0.967507 0.041928
vn -0.249346 0.967506 0.041928
vn -0.249346 0.967507 0.041928
vn -0.249346 0.967507 0.041928
vn -0.043614 0.966956 0.251186
vn -0.043614 0.966956 0.251186
vn -0.043614 0.966956 0.251186
vn -0.043614 0.966956 0.251186
vn 0.043614 0.966956 0.251186
vn 0.043614 0.966956 0.251186
vn 0.043614 0.966956 0.251186
vn 0.043614 0.966956 0.251186
vn 0.249346 0.967506 0.041928
vn 0.249346 0.967507 0.041928
vn 0.249346 0.967507 0.041928
vn 0.249346 0.967506 0.041928
vn 0.249346 0.967506 -0.041929
vn 0.249346 0.967506 -0.041929
vn 0.249346 0.967507 -0.041929
vn 0.249346 0.967506 -0.041929
vn 0.000000 0.000000 -1.000000
vn 0.000000 0.000000 -1.000000
vn 0.000000 0.000000 -1.000000
vn 0.000000 0.000000 -1.000000
vn 0.000000 0.000000 -1.000000
vn 0.000000 0.000000 -1.000000
vn 0.000000 0.000000 -1.000000
vn 0.000000 0.000000 -1.000000
vn -1.000000 0.000000 0.000000
vn -1.000000 0.000000 0.000000
vn -1.000000 0.000000 0.000000
vn -1.000000 0.000000 0.000000
vn -1.000000 0.000000 0.000000
vn -1.000000 0.000000 0.000000
vn -1.000000 0.000000 0.000000
vn -1.000000 0.000000 0.000000
vn 0.000000 0.000000 1.000000
vn 0.000000 0.000000 1.000000
vn 0.000000 0.000000 1.000000
vn 0.000000 0.000000 1.000000
vn 0.000000 0.000000 1.000000
vn 0.000000 0.000000 1.000000
vn 0.000000 0.000000 1.000000
vn 0.000000 0.000000 1.000000
vn 1.000000 0.000000 -0.000001
vn 1.000000 0.000000 -0.000001
vn 1.000000 0.000000 -0.000001
vn 1.000000 0.000000 -0.000001
vn 1.000000 0.000000 0.000000
vn 1.000000 0.000000 0.000000
vn 1.000000 0.000000 0.000000
vn 1.000000 0.000000 0.000000
vn 0.000000 -1.000000 0.000000
vn 0.000000 -1.000000 0.000000
vn 0.000000 -1.000000 0.000000
vn 0.000000 -1.000000 0.000000
vn 0.000000 -1.000000 0.000000
vn 0.000000 -1.000000 0.000000
vn 0.000000 -1.000000 0.000000
vn 0.000000 -1.000000 0.000000
vn 0.000000 -1.000000 0.000000
vn 0.000000 -1.000000 0.000000
vn 0.000000 -1.000000 0.000000
vn 0.000000 -1.000000 0.000000
vn 0.641806 0.000000 -0.766867
vn 0.641806 0.000000 -0.766867
vn 0.641806 0.000000 -0.766867
vn 0.641806 0.000000 -0.766867
vn -0.641806 0.000000 -0.766867
vn -0.641806 0.000000 -0.766867
vn -0.641806 0.000000 -0.766867
vn -0.641806 0.000000 -0.766867
vn -0.641807 0.000000 0.766866
vn -0.641807 0.000000 0.766866
vn -0.641807 0.000000 0.766866
vn -0.641807 0.000000 0.766866
vn 0.641807 0.000000 0.766866
vn 0.641807 0.000000 0.766866
vn 0.641807 0.000000 0.766866
vn 0.641807 0.000000 0.766866
vn 0.123950 0.981174 -0.148102
vn 0.123950 0.981174 -0.148102
vn 0.123950 0.981174 -0.148102
vn 0.000000 -1.000000 0.000000
vn 0.000000 -1.000000 0.000000
vn 0.000000 -1.000000 0.000000
vn -0.123950 0.981174 -0.148102
vn -0.123950 0.981174 -0.148102
vn -0.123950 0.981174 -0.148102
vn 0.000000 -1.000000 0.000000
vn 0.000000 -1.000000 0.000000
vn 0.000000 -1.000000 0.000000
vn -0.123950 0.981174 0.148102
vn -0.123950 0.981174 0.148102
vn -0.123950 0.981174 0.148102
vn -0.000000 -1.000000 0.000000
vn -0.000000 -1.000000 0.000000
vn -0.000000 -1.000000 0.000000
vn 0.123950 0.981174 0.148102
vn 0.123950 0.981174 0.148102
vn 0.123950 0.981174 0.148102
vn 0.000000 -1.000000 0.000000
vn 0.000000 -1.000000 0.000000
vn 0.000000 -1.000000 0.000000
vn 0.000000 1.000000 0.000002
vn 0.000000 1.000000 0.000002
vn 0.000000 1.000000 0.000002
vn 0.000000 1.000000 0.000002
vn 0.000000 1.000000 0.000000
vn 0.000000 1.000000 0.000000
vn 0.000000 1.000000 0.000000
vn 0.000000 1.000000 0.000000
vn 0.000000 1.000000 0.000002
vn 0.000000 1.000000 0.000002
vn 0.000000 1.000000 0.000002
vn 0.000000 1.000000 0.000002
vn 0.000000 1.000000 0.000000
vn 0.000000 1.000000 0.000000
vn 0.000000 1.000000 0.000000
vn 0.000000 1.000000 0.000000
vn 0.000000 1.000000 -0.000002
vn 0.000000 1.000000 -0.000002
vn 0.000000 1.000000 -0.000002
vn 0.000000 1.000000 -0.000002
vn 0.000000 1.000000 0.000000
vn 0.000000 1.000000 0.000000
vn 0.000000 1.000000 0.000000
vn 0.000000 1.000000 0.000000
vn 0.000000 1.000000 -0.000002
vn 0.000000 1.000000 -0.000002
vn 0.000000 1.000000 -0.000002
vn 0.000000 1.000000 -0.000002
vn 0.000000 1.000000 0.000000
vn 0.000000 1.000000 0.000000
vn 0.000000 1.000000 0.000000
vn 0.000000 1.000000 0.000000
vn 0.913740 0.147750 -0.378483
vn 0.913740 0.147750 -0.378483
vn 0.913740 0.147750 -0.378483
vn 0.913740 0.147750 -0.378483
vn 0.913740 0.147750 0.378483
vn 0.913740 0.147750 0.378483
vn 0.913740 0.147750 0.378483
vn 0.913740 0.147750 0.378483
vn 0.378484 0.147750 0.913740
vn 0.378484 0.147750 0.913740
vn 0.378484 0.147750 0.913740
vn 0.378484 0.147750 0.913740
vn -0.374023 0.149257 0.915330
vn -0.374023 0.149257 0.915330
vn -0.374023 0.149257 0.915330
vn -0.374023 0.149257 0.915330
vn -0.918017 0.151843 0.366318
vn -0.918017 0.151843 0.366318
vn -0.918017 0.151843 0.366318
vn -0.918017 0.151843 0.366318
vn -0.913740 0.147750 -0.378483
vn -0.913740 0.147750 -0.378483
vn -0.913740 0.147750 -0.378483
vn -0.913740 0.147750 -0.378483
vn -0.390226 0.151884 -0.908105
vn -0.390226 0.151884 -0.908105
vn -0.390226 0.151884 -0.908105
vn -0.390226 0.151884 -0.908105
vn 0.378901 0.147897 -0.913543
vn 0.378901 0.147897 -0.913543
vn 0.378901 0.147897 -0.913543
vn 0.378901 0.147897 -0.913543
vn 0.913740 0.147750 -0.378483
vn 0.913740 0.147750 -0.378483
vn 0.913740 0.147750 -0.378483
vn 0.913740 0.147750 -0.378483
vn 0.910408 0.144448 0.387676
vn 0.910408 0.144448 0.387676
vn 0.910408 0.144448 0.387676
vn 0.910408 0.144448 0.387676
vn 0.381820 0.142112 0.913245
vn 0.381820 0.142112 0.913246
vn 0.381820 0.142112 0.913246
vn 0.381820 0.142112 0.913245
vn -0.378483 0.147750 0.913740
vn -0.378483 0.147750 0.913740
vn -0.378483 0.147750 0.913740
vn -0.378483 0.147750 0.913740
vn -0.911134 0.145382 0.385614
vn -0.911134 0.145382 0.385614
vn -0.911134 0.145382 0.385614
vn -0.911134 0.145382 0.385614
vn -0.912672 0.151217 -0.379688
vn -0.912672 0.151217 -0.379688
vn -0.912672 0.151217 -0.379688
vn -0.912672 0.151217 -0.379688
vn -0.379114 0.148031 -0.913433
vn -0.379114 0.148031 -0.913433
vn -0.379114 0.148031 -0.913433
vn -0.379114 0.148031 -0.913433
vn 0.384485 0.150420 -0.910794
vn 0.384485 0.150420 -0.910794
vn 0.384485 0.150420 -0.910794
vn 0.384485 0.150420 -0.910794
vn 0.000000 0.434626 -0.900611
vn 0.000000 0.434626 -0.900611
vn 0.000000 0.434626 -0.900611
vn 0.000000 0.434626 -0.900611
vn 0.000000 0.434626 -0.900611
vn 0.000000 0.434626 -0.900611
vn 0.000000 0.434626 -0.900611
vn 0.000000 0.434626 -0.900611
vn 0.550210 0.514846 -0.657422
vn 0.550210 0.514846 -0.657422
vn 0.550210 0.514846 -0.657422
vn 0.550210 0.514846 -0.657422
vn 0.900611 0.434625 0.000000
vn 0.900611 0.434625 0.000000
vn 0.900611 0.434625 0.000000
vn 0.900611 0.434625 0.000000
vn 0.900611 0.434627 -0.000000
vn 0.900611 0.434627 -0.000000
vn 0.900611 0.434627 -0.000000
vn 0.900611 0.434627 -0.000000
vn 0.550209 0.514849 0.657420
vn 0.550209 0.514849 0.657420
vn 0.550209 0.514849 0.657420
vn 0.550209 0.514849 0.657420
vn 0.000000 0.434627 0.900611
vn 0.000000 0.434627 0.900611
vn 0.000000 0.434627 0.900611
vn 0.000000 0.434627 0.900611
vn 0.000000 0.434627 0.900611
vn 0.000000 0.434627 0.900611
vn 0.000000 0.434627 0.900611
vn 0.000000 0.434627 0.900611
vn -0.550209 0.514848 0.657420
vn -0.550209 0.514848 0.657420
vn -0.550209 0.514848 0.657420
vn -0.550209 0.514848 0.657420
vn -0.900610 0.434629 -0.000000
vn -0.900610 0.434629 -0.000000
vn -0.900610 0.434629 -0.000000
vn -0.900610 0.434629 -0.000000
vn -0.900609 0.434629 0.000000
vn -0.900609 0.434629 0.000000
vn -0.900609 0.434629 0.000000
vn -0.900609 0.434629 0.000000
vn -0.550209 0.514848 -0.657421
vn -0.550209 0.514848 -0.657421
vn -0.550209 0.514848 -0.657421
vn -0.550209 0.514848 -0.657421
vn 0.913249 0.145883 -0.380387
vn 0.913249 0.145883 -0.380387
vn 0.913249 0.145883 -0.380387
vn 0.913249 0.145883 -0.380387
vn 0.909622 0.155304 0.385315
vn 0.909623 0.155304 0.385315
vn 0.909623 0.155304 0.385315
vn 0.909622 0.155304 0.385315
vn 0.385183 0.155159 0.909703
vn 0.385183 0.155159 0.909703
vn 0.385183 0.155159 0.909703
vn 0.385183 0.155159 0.909703
vn -0.378483 0.147750 0.913740
vn -0.378484 0.147750 0.913740
vn -0.378484 0.147750 0.913740
vn -0.378483 0.147750 0.913740
vn -0.913575 0.147122 0.379126
vn -0.913575 0.147122 0.379126
vn -0.913575 0.147122 0.379126
vn -0.913575 0.147122 0.379126
vn -0.912582 0.143382 -0.382930
vn -0.912582 0.143382 -0.382930
vn -0.912582 0.143382 -0.382930
vn -0.912582 0.143382 -0.382930
vn -0.379087 0.147158 -0.913585
vn -0.379087 0.147158 -0.913585
vn -0.379087 0.147158 -0.913585
vn -0.379087 0.147158 -0.913585
vn 0.380529 0.145743 -0.913212
vn 0.380529 0.145743 -0.913212
vn 0.380529 0.145743 -0.913212
vn 0.380529 0.145743 -0.913212
vn 0.913740 0.147750 -0.378484
vn 0.913740 0.147750 -0.378484
vn 0.913740 0.147750 -0.378484
vn 0.913740 0.147750 -0.378484
vn 0.913431 0.147456 0.379342
vn 0.913431 0.147456 0.379342
vn 0.913431 0.147456 0.379342
vn 0.913431 0.147456 0.379342
vn 0.370590 0.150442 0.916532
vn 0.370590 0.150442 0.916532
vn 0.370589 0.150442 0.916532
vn 0.370589 0.150442 0.916532
vn -0.375414 0.146656 0.915181
vn -0.375414 0.146656 0.915181
vn -0.375413 0.146656 0.915181
vn -0.375414 0.146656 0.915181
vn -0.913526 0.147911 0.378937
vn -0.913526 0.147911 0.378936
vn -0.913526 0.147911 0.378937
vn -0.913526 0.147911 0.378937
vn -0.916018 0.146015 -0.373618
vn -0.916018 0.146015 -0.373618
vn -0.916018 0.146015 -0.373618
vn -0.916018 0.146015 -0.373618
vn -0.387432 0.144673 -0.910476
vn -0.387432 0.144673 -0.910476
vn -0.387432 0.144673 -0.910476
vn -0.387432 0.144673 -0.910476
vn 0.378803 0.147640 -0.913625
vn 0.378803 0.147640 -0.913625
vn 0.378803 0.147640 -0.913625
vn 0.378803 0.147640 -0.913625
s off
f 1/1/1 2/2/2 82/105/3 75/98/4
f 2/2/5 3/3/6 81/104/7 82/105/8
f 3/3/9 4/4/10 80/103/11 81/104/12
f 4/4/13 5/5/14 79/102/15 80/103/16
f 5/5/17 6/6/18 78/101/19 79/102/20
f 6/6/21 7/7/22 77/100/23 78/101/24
f 7/7/25 8/8/26 76/99/27 77/100/28
f 8/8/29 1/9/30 75/97/31 76/99/32
f 21/30/33 29/55/34 22/34/35
f 23/33/36 32/57/37 22/34/38
f 24/37/39 36/59/40 22/38/41
f 25/41/42 40/61/43 22/34/44
f 42/120/45 43/139/46 44/127/47
f 43/140/48 45/137/49 44/126/50
f 45/138/51 46/135/52 44/125/53
f 46/136/54 47/133/55 44/124/56
f 47/134/57 48/131/58 44/123/59
f 48/132/60 49/129/61 44/122/62
f 49/130/63 50/118/64 44/27/65
f 50/119/66 42/62/67 44/128/68
f 2/32/69 1/28/70 26/46/71 17/42/72
f 3/31/73 2/32/74 17/42/75 31/56/76
f 4/36/77 3/31/78 30/48/79 18/43/80
f 5/35/81 4/36/82 18/43/83 35/58/84
f 6/40/85 5/35/86 34/50/87 19/44/88
f 7/39/89 6/40/90 19/44/91 39/60/92
f 8/29/93 7/39/94 38/52/95 20/45/96
f 1/28/97 8/29/98 20/45/99 27/54/100
f 84/107/101 85/108/102 29/55/103 21/30/104
f 33/49/105 83/106/106 84/107/107 21/30/108
f 93/116/109 94/117/110 32/57/111 23/33/112
f 37/51/113 92/115/114 93/116/115 23/33/116
f 90/113/117 91/114/118 36/59/119 24/37/120
f 41/53/121 89/112/122 90/113/123 24/37/124
f 87/110/125 88/111/126 40/61/127 25/41/128
f 28/47/129 86/109/130 87/110/131 25/41/132
f 22/34/133 28/47/134 25/41/135
f 22/34/136 33/49/137 21/30/138
f 22/38/139 37/51/140 23/33/141
f 22/34/142 41/53/143 24/37/144
f 85/108/145 86/109/146 28/47/147 29/55/148
f 94/117/149 83/106/150 33/49/151 32/57/152
f 91/114/153 92/115/154 37/51/155 36/59/156
f 88/111/157 89/112/158 41/53/159 40/61/160
f 26/46/161 1/28/162 27/54/163
f 28/47/164 22/34/165 29/55/166
f 30/48/167 3/31/168 31/56/169
f 32/57/170 33/49/171 22/34/172
f 34/50/173 5/35/174 35/58/175
f 36/59/176 37/51/177 22/38/178
f 38/52/179 7/39/180 39/60/181
f 40/61/182 41/53/183 22/34/184
f 9/25/185 10/24/186 43/63/187 42/121/188
f 10/24/189 11/23/190 45/64/191 43/63/192
f 11/23/193 12/22/194 46/65/195 45/64/196
f 12/22/197 13/21/198 47/66/199 46/65/200
f 13/21/201 14/20/202 48/67/203 47/66/204
f 14/20/205 15/19/206 49/68/207 48/67/208
f 15/19/209 16/26/210 50/69/211 49/68/212
f 16/26/213 9/25/214 42/121/215 50/69/216
f 52/72/217 51/70/218 9/18/219 16/17/220
f 53/73/221 52/72/222 16/17/223 15/16/224
f 54/74/225 53/73/226 15/16/227 14/15/228
f 55/75/229 54/74/230 14/15/231 13/14/232
f 56/76/233 55/75/234 13/14/235 12/13/236
f 57/77/237 56/76/238 12/13/239 11/12/240
f 58/78/241 57/77/242 11/12/243 10/11/244
f 51/71/245 58/78/246 10/11/247 9/10/248
f 68/90/249 67/88/250 59/79/251 60/81/252
f 69/91/253 68/90/254 60/81/255 61/82/256
f 70/92/257 69/91/258 61/82/259 62/83/260
f 71/93/261 70/92/262 62/83/263 63/84/264
f 72/94/265 71/93/266 63/84/267 64/85/268
f 73/95/269 72/94/270 64/85/271 65/86/272
f 74/96/273 73/95/274 65/86/275 66/87/276
f 67/89/277 74/96/278 66/87/279 59/80/280
f 83/106/281 31/56/282 17/42/283 84/107/284
f 17/42/285 26/46/286 85/108/287 84/107/288
f 26/46/289 27/54/290 86/109/291 85/108/292
f 87/110/293 86/109/294 27/54/295 20/45/296
f 20/45/297 38/52/298 88/111/299 87/110/300
f 38/52/301 39/60/302 89/112/303 88/111/304
f 90/113/305 89/112/306 39/60/307 19/44/308
f 19/44/309 34/50/310 91/114/311 90/113/312
f 34/50/313 35/58/314 92/115/315 91/114/316
f 93/116/317 92/115/318 35/58/319 18/43/320
f 18/43/321 30/48/322 94/117/323 93/116/324
f 30/48/325 31/56/326 83/106/327 94/117/328
f 76/141/329 75/142/330 67/143/331 68/144/332
f 77/145/333 76/141/334 68/144/335 69/146/336
f 78/147/337 77/145/338 69/146/339 70/148/340
f 79/149/341 78/147/342 70/148/343 71/150/344
f 80/151/345 79/149/346 71/150/347 72/152/348
f 81/153/349 80/151/350 72/152/351 73/154/352
f 82/155/353 81/153/354 73/154/355 74/156/356
f 75/142/357 82/155/358 74/156/359 67/143/360
f 60/157/361 59/158/362 51/159/363 52/160/364
f 61/161/365 60/157/366 52/160/367 53/162/368
f 62/163/369 61/161/370 53/162/371 54/164/372
f 63/165/373 62/163/374 54/164/375 55/166/376
f 64/167/377 63/165/378 55/166/379 56/168/380
f 65/169/381 64/167/382 56/168/383 57/170/384
f 66/171/385 65/169/386 57/170/387 58/172/388
f 59/158/389 66/171/390 58/172/391 51/159/392
