# This file uses centimeters as units for non-parametric coordinates.

v -12.300723 0.223525 0.518780
v -12.294033 0.260515 0.518780
v -12.300723 0.223525 0.481220
v -12.294033 0.260515 0.481220
v -0.144917 0.223525 0.481220
v -0.151607 0.260515 0.481220
v -0.144917 0.223525 0.518780
v -0.151607 0.260515 0.518780
v -6.222820 -0.294879 0.518780
v -6.222820 -0.257318 0.518780
v -6.222820 -0.257318 0.481220
v -6.222820 -0.294879 0.481220
v -4.189917 -0.199651 0.518780
v -4.187677 -0.237148 0.518780
v -4.187677 -0.237148 0.481220
v -4.189917 -0.199651 0.481220
v -2.163895 -0.026845 0.518780
v -2.159422 -0.064152 0.518780
v -2.159422 -0.064152 0.481220
v -2.163895 -0.026845 0.481220
v -10.286217 -0.064152 0.518780
v -10.286217 -0.064152 0.481220
v -10.281744 -0.026845 0.481220
v -10.281744 -0.026845 0.518780
v -8.257961 -0.237148 0.518780
v -8.257961 -0.237148 0.481220
v -8.255721 -0.199651 0.481220
v -8.255721 -0.199651 0.518780
v -12.300723 0.195642 0.018780
v -12.294033 0.232631 0.018780
v -12.300723 0.195642 -0.018780
v -12.294033 0.232631 -0.018780
v -0.144917 0.195642 -0.018780
v -0.151607 0.232631 -0.018780
v -0.144917 0.195642 0.018780
v -0.151607 0.232631 0.018780
v -6.222820 -0.443219 -0.018780
v -6.222820 -0.443219 0.018780
v -6.222820 -0.405659 0.018780
v -6.222820 -0.405659 -0.018780
v -4.189917 -0.327786 0.018780
v -4.187677 -0.365256 0.018780
v -4.187677 -0.365256 -0.018780
v -4.189917 -0.327786 -0.018780
v -2.163895 -0.103069 0.018780
v -2.159422 -0.140376 0.018780
v -2.159422 -0.140376 -0.018780
v -2.163895 -0.103069 -0.018780
v -10.281744 -0.103069 0.018780
v -10.286217 -0.140376 0.018780
v -10.286217 -0.140376 -0.018780
v -10.281744 -0.103069 -0.018780
v -8.255721 -0.327786 0.018780
v -8.257961 -0.365256 0.018780
v -8.257961 -0.365256 -0.018780
v -8.255721 -0.327786 -0.018780
v -12.300723 0.223525 -0.481220
v -12.294033 0.260515 -0.481220
v -12.300723 0.223525 -0.518780
v -12.294033 0.260515 -0.518780
v -0.144917 0.223525 -0.518780
v -0.151607 0.260515 -0.518780
v -0.144917 0.223525 -0.481220
v -0.151607 0.260515 -0.481220
v -6.222820 -0.294879 -0.481220
v -6.222820 -0.257318 -0.481220
v -6.222820 -0.257318 -0.518780
v -6.222820 -0.294879 -0.518780
v -4.189917 -0.199651 -0.481220
v -4.187677 -0.237148 -0.481220
v -4.187677 -0.237148 -0.518780
v -4.189917 -0.199651 -0.518780
v -2.163895 -0.026845 -0.481220
v -2.159422 -0.064152 -0.481220
v -2.159422 -0.064152 -0.518780
v -2.163895 -0.026845 -0.518780
v -10.281744 -0.026845 -0.481220
v -10.286217 -0.064152 -0.481220
v -10.286217 -0.064152 -0.518780
v -10.281744 -0.026845 -0.518780
v -8.255721 -0.199651 -0.481220
v -8.257961 -0.237148 -0.481220
v -8.257961 -0.237148 -0.518780
v -8.255721 -0.199651 -0.518780
v -12.445641 0.168788 -0.746088
v -12.445641 0.168788 0.746090
v -12.445641 0.294878 -0.746088
v -12.445641 0.294878 0.746090
v -12.211016 0.294878 -0.746088
v -12.211016 0.294878 0.746090
v -12.211016 0.168788 -0.746088
v -12.211016 0.168788 0.746090
v -0.234628 0.168788 -0.746088
v -0.234628 0.168788 0.746090
v -0.234628 0.294878 -0.746088
v -0.234628 0.294878 0.746090
v 0.000000 0.294878 -0.746088
v 0.000000 0.294878 0.746090
v 0.000000 0.168788 -0.746088
v 0.000000 0.168788 0.746090
vt 0.112790 0.229565
vt 0.112790 0.229565
vt 0.112790 0.229565
vt 0.112790 0.229565
vt 0.112790 0.229565
vt 0.112790 0.229565
vt 0.112790 0.229565
vt 0.112790 0.229565
vt 0.112790 0.229565
vt 0.112790 0.229565
vt 0.112790 0.229565
vt 0.112790 0.229565
vt 0.112790 0.229565
vt 0.112790 0.229565
vt 0.112790 0.229565
vt 0.112790 0.229565
vt 0.112790 0.229565
vt 0.112790 0.229565
vt 0.112790 0.229565
vt 0.112790 0.229565
vt 0.112790 0.229565
vt 0.112790 0.229565
vt 0.112790 0.229565
vt 0.112790 0.229565
vt 0.112790 0.229565
vt 0.112790 0.229565
vt 0.112790 0.229565
vt 0.112790 0.229565
vt 0.112790 0.229565
vt 0.112790 0.229565
vt 0.112790 0.229565
vt 0.112790 0.229565
vt 0.112790 0.229565
vt 0.112790 0.229565
vt 0.112790 0.229565
vt 0.112790 0.229565
vt 0.112790 0.229565
vt 0.112790 0.229565
vt 0.112790 0.229565
vt 0.112790 0.229565
vt 0.112790 0.229565
vt 0.112790 0.229565
vt 0.112790 0.229565
vt 0.112790 0.229565
vt 0.112790 0.229565
vt 0.112790 0.229565
vt 0.112790 0.229565
vt 0.112790 0.229565
vt 0.112790 0.229565
vt 0.112790 0.229565
vt 0.112790 0.229565
vt 0.112790 0.229565
vt 0.112790 0.229565
vt 0.112790 0.229565
vt 0.112790 0.229565
vt 0.112790 0.229565
vt 0.112790 0.229565
vt 0.112790 0.229565
vt 0.112790 0.229565
vt 0.112790 0.229565
vt 0.112790 0.229565
vt 0.112790 0.229565
vt 0.112790 0.229565
vt 0.112790 0.229565
vt 0.112790 0.229565
vt 0.112790 0.229565
vt 0.112790 0.229565
vt 0.112790 0.229565
vt 0.112790 0.229565
vt 0.112790 0.229565
vt 0.112790 0.229565
vt 0.112790 0.229565
vt 0.112790 0.229565
vt 0.112790 0.229565
vt 0.112790 0.229565
vt 0.112790 0.229565
vt 0.112790 0.229565
vt 0.112790 0.229565
vt 0.112790 0.229565
vt 0.112790 0.229565
vt 0.112790 0.229565
vt 0.112790 0.229565
vt 0.112790 0.229565
vt 0.112790 0.229565
vt 0.112790 0.229565
vt 0.112790 0.229565
vt 0.112790 0.229565
vt 0.112790 0.229565
vt 0.112790 0.229565
vt 0.112790 0.229565
vt 0.112790 0.229565
vt 0.112790 0.229565
vt 0.112790 0.229565
vt 0.112790 0.229565
vt 0.112790 0.229565
vt 0.112790 0.229565
vt 0.112790 0.229565
vt 0.112790 0.229565
vt 0.112790 0.229565
vt 0.112790 0.229565
vt 0.112790 0.229565
vt 0.112790 0.229565
vt 0.112790 0.229565
vt 0.112790 0.229565
vt 0.112790 0.229565
vt 0.112790 0.229565
vt 0.112790 0.229565
vt 0.112790 0.229565
vt 0.112790 0.229565
vt 0.112790 0.229565
vt 0.112790 0.229565
vt 0.112790 0.229565
vt 0.112790 0.229565
vt 0.112790 0.229565
vt 0.112790 0.229565
vt 0.112790 0.229565
vt 0.112790 0.229565
vt 0.112790 0.229565
vt 0.112790 0.229565
vt 0.112790 0.229565
vt 0.112790 0.229565
vt 0.112790 0.229565
vt 0.112790 0.229565
vt 0.112790 0.229565
vt 0.112790 0.229565
vt 0.112790 0.229565
vt 0.112790 0.229565
vt 0.112790 0.229565
vt 0.112790 0.229565
vt 0.112790 0.229565
vt 0.112790 0.229565
vt 0.112790 0.229565
vt 0.112790 0.229565
vt 0.112790 0.229565
vt 0.112790 0.229565
vt 0.112790 0.229565
vt 0.112790 0.229565
vt 0.112790 0.229565
vt 0.112790 0.229565
vt 0.112790 0.229565
vt 0.112790 0.229565
vt 0.112790 0.229565
vt 0.112790 0.229565
vt 0.112790 0.229565
vt 0.112790 0.229565
vt 0.112790 0.229565
vt 0.112790 0.229565
vt 0.112790 0.229565
vt 0.112790 0.229565
vt 0.112790 0.229565
vt 0.112790 0.229565
vt 0.112790 0.229565
vt 0.112790 0.229565
vt 0.112790 0.229565
vt 0.112790 0.229565
vt 0.112790 0.229565
vt 0.112790 0.229565
vt 0.112790 0.229565
vt 0.112790 0.229565
vt 0.112790 0.229565
vt 0.112790 0.229565
vt 0.112790 0.229565
vt 0.038277 0.251826
vt 0.038277 0.251826
vt 0.038277 0.251826
vt 0.038277 0.251826
vt 0.038277 0.251826
vt 0.038277 0.251826
vt 0.038277 0.251826
vt 0.038277 0.251826
vt 0.038277 0.251826
vt 0.038277 0.251826
vt 0.038277 0.251826
vt 0.038277 0.251826
vt 0.038277 0.251826
vt 0.038277 0.251826
vt 0.038277 0.251826
vt 0.038277 0.251826
vt 0.038277 0.251826
vt 0.038277 0.251826
vt 0.038277 0.251826
vt 0.038277 0.251826
vt 0.038277 0.251826
vt 0.038277 0.251826
vt 0.038277 0.251826
vt 0.038277 0.251826
vt 0.038277 0.251826
vt 0.038277 0.251826
vt 0.038277 0.251826
vt 0.038277 0.251826
vn 0.000000 0.000000 -1.000000
vn 0.000000 0.000000 -1.000000
vn 0.000000 0.000000 -1.000000
vn 0.000000 0.000000 -1.000000
vn 0.000000 0.000000 1.000000
vn 0.000000 0.000000 1.000000
vn 0.000000 0.000000 1.000000
vn 0.000000 0.000000 1.000000
vn 0.056690 0.998392 0.000000
vn 0.056690 0.998392 0.000000
vn 0.000000 1.000000 0.000000
vn 0.000000 1.000000 0.000000
vn -0.056691 -0.998392 0.000000
vn -0.056691 -0.998392 0.000000
vn -0.000000 -1.000000 0.000000
vn -0.000000 -1.000000 0.000000
vn 0.000000 0.000000 1.000000
vn 0.000000 0.000000 1.000000
vn -0.000000 0.000000 1.000000
vn -0.000000 0.000000 1.000000
vn -0.113218 0.993570 0.000000
vn -0.113218 0.993570 0.000000
vn -0.141369 0.989957 0.000000
vn -0.141369 0.989957 0.000000
vn -0.000000 0.000000 -1.000000
vn -0.000000 0.000000 -1.000000
vn 0.000000 0.000000 -1.000000
vn 0.000000 0.000000 -1.000000
vn 0.141369 -0.989957 0.000000
vn 0.113218 -0.993570 0.000000
vn 0.113218 -0.993570 0.000000
vn 0.141369 -0.989957 0.000000
vn -0.000000 0.000000 1.000000
vn -0.000000 0.000000 1.000000
vn 0.000000 0.000000 1.000000
vn 0.000000 0.000000 1.000000
vn 0.056691 -0.998392 0.000000
vn 0.056691 -0.998392 0.000000
vn -0.000000 -1.000000 0.000000
vn -0.000000 -1.000000 0.000000
vn 0.000000 0.000000 -1.000000
vn 0.000000 0.000000 -1.000000
vn -0.000000 0.000000 -1.000000
vn -0.000000 0.000000 -1.000000
vn 0.000000 1.000000 0.000000
vn 0.000000 1.000000 0.000000
vn -0.056690 0.998392 0.000000
vn -0.056690 0.998392 0.000000
vn -0.000000 0.000000 1.000000
vn -0.000000 0.000000 1.000000
vn -0.000000 0.000000 1.000000
vn -0.000000 0.000000 1.000000
vn 0.113218 -0.993570 0.000000
vn 0.113218 -0.993570 0.000000
vn 0.056691 -0.998392 0.000000
vn 0.056691 -0.998392 0.000000
vn -0.000000 0.000000 -1.000000
vn -0.000000 0.000000 -1.000000
vn -0.000000 0.000000 -1.000000
vn -0.000000 0.000000 -1.000000
vn -0.056690 0.998392 0.000000
vn -0.056690 0.998392 0.000000
vn -0.113218 0.993570 0.000000
vn -0.113218 0.993570 0.000000
vn -0.141369 -0.989957 0.000000
vn -0.141369 -0.989957 0.000000
vn -0.113218 -0.993570 0.000000
vn -0.113218 -0.993570 0.000000
vn 0.000000 0.000000 -1.000000
vn 0.000000 0.000000 -1.000000
vn 0.000000 0.000000 -1.000000
vn 0.000000 0.000000 -1.000000
vn 0.141369 0.989957 0.000000
vn 0.141369 0.989957 0.000000
vn 0.113217 0.993570 0.000000
vn 0.113217 0.993570 0.000000
vn 0.000000 0.000000 1.000000
vn 0.000000 0.000000 1.000000
vn 0.000000 0.000000 1.000000
vn 0.000000 0.000000 1.000000
vn -0.113218 -0.993570 0.000000
vn -0.113218 -0.993570 0.000000
vn -0.056691 -0.998392 0.000000
vn -0.056691 -0.998392 0.000000
vn 0.000000 0.000000 -1.000000
vn 0.000000 0.000000 -1.000000
vn 0.000000 0.000000 -1.000000
vn 0.000000 0.000000 -1.000000
vn 0.113217 0.993570 0.000000
vn 0.113217 0.993570 0.000000
vn 0.056690 0.998392 0.000000
vn 0.056690 0.998392 0.000000
vn 0.000000 0.000000 1.000000
vn 0.000000 0.000000 1.000000
vn 0.000000 0.000000 1.000000
vn 0.000000 0.000000 1.000000
vn -0.000000 0.000000 -1.000000
vn 0.000000 0.000000 -1.000000
vn 0.000000 0.000000 -1.000000
vn -0.000000 0.000000 -1.000000
vn -0.000000 0.000000 1.000000
vn -0.000000 0.000000 1.000000
vn -0.000000 0.000000 1.000000
vn -0.000000 0.000000 1.000000
vn 0.074343 0.997233 0.000000
vn 0.074343 0.997233 0.000000
vn 0.000000 1.000000 0.000000
vn 0.000000 1.000000 0.000000
vn -0.074324 -0.997234 0.000000
vn -0.074324 -0.997234 0.000000
vn 0.000000 -1.000000 0.000000
vn 0.000000 -1.000000 0.000000
vn 0.164526 -0.986373 0.000000
vn 0.137425 -0.990512 0.000000
vn 0.137425 -0.990512 0.000000
vn 0.164526 -0.986373 0.000000
vn 0.000000 0.000000 1.000000
vn 0.000000 0.000000 1.000000
vn 0.000000 0.000000 1.000000
vn 0.000000 0.000000 1.000000
vn -0.137458 0.990508 0.000000
vn -0.137458 0.990508 0.000000
vn -0.164551 0.986369 0.000000
vn -0.164551 0.986369 0.000000
vn 0.000000 0.000000 -1.000000
vn 0.000000 0.000000 -1.000000
vn 0.000000 0.000000 -1.000000
vn 0.000000 0.000000 -1.000000
vn -0.000000 0.000000 1.000000
vn -0.000000 0.000000 1.000000
vn -0.000000 0.000000 1.000000
vn -0.000000 0.000000 1.000000
vn 0.074324 -0.997234 0.000000
vn 0.074324 -0.997234 0.000000
vn 0.000000 -1.000000 0.000000
vn 0.000000 -1.000000 0.000000
vn -0.000000 0.000000 -1.000000
vn -0.000000 0.000000 -1.000000
vn -0.000000 0.000000 -1.000000
vn -0.000000 0.000000 -1.000000
vn 0.000000 1.000000 0.000000
vn 0.000000 1.000000 0.000000
vn -0.074343 0.997233 0.000000
vn -0.074343 0.997233 0.000000
vn 0.000000 0.000000 1.000000
vn 0.000000 0.000000 1.000000
vn -0.000000 0.000000 1.000000
vn -0.000000 0.000000 1.000000
vn 0.137425 -0.990512 0.000000
vn 0.137425 -0.990512 0.000000
vn 0.074324 -0.997234 0.000000
vn 0.074324 -0.997234 0.000000
vn -0.000000 0.000000 -1.000000
vn -0.000000 0.000000 -1.000000
vn 0.000000 0.000000 -1.000000
vn 0.000000 0.000000 -1.000000
vn -0.074343 0.997233 0.000000
vn -0.074343 0.997233 0.000000
vn -0.137458 0.990508 0.000000
vn -0.137458 0.990508 0.000000
vn 0.000000 0.000000 1.000000
vn 0.000000 0.000000 1.000000
vn -0.000000 0.000000 1.000000
vn -0.000000 0.000000 1.000000
vn -0.164526 -0.986373 0.000000
vn -0.164526 -0.986373 0.000000
vn -0.137425 -0.990512 0.000000
vn -0.137425 -0.990512 0.000000
vn 0.000000 0.000000 -1.000000
vn 0.000000 0.000000 -1.000000
vn 0.000000 0.000000 -1.000000
vn 0.000000 0.000000 -1.000000
vn 0.164551 0.986369 0.000000
vn 0.164551 0.986369 0.000000
vn 0.137458 0.990508 0.000000
vn 0.137458 0.990508 0.000000
vn -0.000000 0.000000 1.000000
vn -0.000000 0.000000 1.000000
vn -0.000000 0.000000 1.000000
vn -0.000000 0.000000 1.000000
vn -0.137425 -0.990512 0.000000
vn -0.137425 -0.990512 0.000000
vn -0.074324 -0.997234 0.000000
vn -0.074324 -0.997234 0.000000
vn 0.000000 0.000000 -1.000000
vn 0.000000 0.000000 -1.000000
vn 0.000000 0.000000 -1.000000
vn 0.000000 0.000000 -1.000000
vn 0.137458 0.990508 0.000000
vn 0.137458 0.990508 0.000000
vn 0.074343 0.997233 0.000000
vn 0.074343 0.997233 0.000000
vn 0.000000 0.000000 -1.000000
vn 0.000000 0.000000 -1.000000
vn 0.000000 0.000000 -1.000000
vn 0.000000 0.000000 -1.000000
vn 0.000000 0.000000 1.000000
vn 0.000000 0.000000 1.000000
vn 0.000000 0.000000 1.000000
vn 0.000000 0.000000 1.000000
vn 0.056690 0.998392 0.000000
vn 0.056690 0.998392 0.000000
vn 0.000000 1.000000 0.000000
vn 0.000000 1.000000 0.000000
vn -0.056691 -0.998392 0.000000
vn -0.056691 -0.998392 0.000000
vn -0.000000 -1.000000 0.000000
vn -0.000000 -1.000000 0.000000
vn 0.000000 0.000000 1.000000
vn 0.000000 0.000000 1.000000
vn -0.000000 0.000000 1.000000
vn -0.000000 0.000000 1.000000
vn -0.113218 0.993570 0.000000
vn -0.113218 0.993570 0.000000
vn -0.141369 0.989957 0.000000
vn -0.141369 0.989957 0.000000
vn -0.000000 0.000000 -1.000000
vn -0.000000 0.000000 -1.000000
vn 0.000000 0.000000 -1.000000
vn 0.000000 0.000000 -1.000000
vn 0.141369 -0.989957 0.000000
vn 0.113218 -0.993570 0.000000
vn 0.113218 -0.993570 0.000000
vn 0.141369 -0.989957 0.000000
vn -0.000000 0.000000 1.000000
vn -0.000000 0.000000 1.000000
vn 0.000000 0.000000 1.000000
vn 0.000000 0.000000 1.000000
vn 0.056691 -0.998392 0.000000
vn 0.056691 -0.998392 0.000000
vn -0.000000 -1.000000 0.000000
vn -0.000000 -1.000000 0.000000
vn 0.000000 0.000000 -1.000000
vn 0.000000 0.000000 -1.000000
vn -0.000000 0.000000 -1.000000
vn -0.000000 0.000000 -1.000000
vn 0.000000 1.000000 0.000000
vn 0.000000 1.000000 0.000000
vn -0.056690 0.998392 0.000000
vn -0.056690 0.998392 0.000000
vn -0.000000 0.000000 1.000000
vn -0.000000 0.000000 1.000000
vn -0.000000 0.000000 1.000000
vn -0.000000 0.000000 1.000000
vn 0.113218 -0.993570 0.000000
vn 0.113218 -0.993570 0.000000
vn 0.056691 -0.998392 0.000000
vn 0.056691 -0.998392 0.000000
vn -0.000000 0.000000 -1.000000
vn -0.000000 0.000000 -1.000000
vn -0.000000 0.000000 -1.000000
vn -0.000000 0.000000 -1.000000
vn -0.056690 0.998392 0.000000
vn -0.056690 0.998392 0.000000
vn -0.113218 0.993570 0.000000
vn -0.113218 0.993570 0.000000
vn 0.000000 0.000000 1.000000
vn 0.000000 0.000000 1.000000
vn 0.000000 0.000000 1.000000
vn 0.000000 0.000000 1.000000
vn -0.141369 -0.989957 0.000000
vn -0.141369 -0.989957 0.000000
vn -0.113218 -0.993570 0.000000
vn -0.113218 -0.993570 0.000000
vn 0.000000 0.000000 -1.000000
vn 0.000000 0.000000 -1.000000
vn 0.000000 0.000000 -1.000000
vn 0.000000 0.000000 -1.000000
vn 0.141369 0.989957 0.000000
vn 0.141369 0.989957 0.000000
vn 0.113217 0.993570 0.000000
vn 0.113217 0.993570 0.000000
vn 0.000000 0.000000 1.000000
vn 0.000000 0.000000 1.000000
vn 0.000000 0.000000 1.000000
vn 0.000000 0.000000 1.000000
vn -0.113218 -0.993570 0.000000
vn -0.113218 -0.993570 0.000000
vn -0.056691 -0.998392 0.000000
vn -0.056691 -0.998392 0.000000
vn 0.000000 0.000000 -1.000000
vn 0.000000 0.000000 -1.000000
vn 0.000000 0.000000 -1.000000
vn 0.000000 0.000000 -1.000000
vn 0.113217 0.993570 0.000000
vn 0.113217 0.993570 0.000000
vn 0.056690 0.998392 0.000000
vn 0.056690 0.998392 0.000000
vn -1.000000 0.000000 0.000000
vn -1.000000 0.000000 0.000000
vn -1.000000 0.000000 0.000000
vn -1.000000 0.000000 0.000000
vn 0.000000 1.000000 0.000000
vn 0.000000 1.000000 0.000000
vn 0.000000 1.000000 0.000000
vn 0.000000 1.000000 0.000000
vn 1.000000 0.000000 0.000000
vn 1.000000 0.000000 0.000000
vn 1.000000 0.000000 0.000000
vn 1.000000 0.000000 0.000000
vn 0.000000 -1.000000 0.000000
vn 0.000000 -1.000000 0.000000
vn 0.000000 -1.000000 0.000000
vn 0.000000 -1.000000 0.000000
vn 0.000000 0.000000 1.000000
vn 0.000000 0.000000 1.000000
vn 0.000000 0.000000 1.000000
vn 0.000000 0.000000 1.000000
vn 0.000000 0.000000 -1.000000
vn 0.000000 0.000000 -1.000000
vn 0.000000 0.000000 -1.000000
vn 0.000000 0.000000 -1.000000
vn -1.000000 0.000000 0.000000
vn -1.000000 0.000000 0.000000
vn -1.000000 0.000000 0.000000
vn -1.000000 0.000000 0.000000
vn 0.000000 1.000000 0.000000
vn 0.000000 1.000000 0.000000
vn 0.000000 1.000000 0.000000
vn 0.000000 1.000000 0.000000
vn 1.000000 0.000000 0.000000
vn 1.000000 0.000000 0.000000
vn 1.000000 0.000000 0.000000
vn 1.000000 0.000000 0.000000
vn 0.000000 -1.000000 0.000000
vn 0.000000 -1.000000 0.000000
vn 0.000000 -1.000000 0.000000
vn 0.000000 -1.000000 0.000000
vn 0.000000 0.000000 1.000000
vn 0.000000 0.000000 1.000000
vn 0.000000 0.000000 1.000000
vn 0.000000 0.000000 1.000000
vn 0.000000 0.000000 -1.000000
vn 0.000000 0.000000 -1.000000
vn 0.000000 0.000000 -1.000000
vn 0.000000 0.000000 -1.000000
s off
f 12/1/1 26/2/2 27/3/3 11/4/4
f 28/5/5 25/6/6 9/7/7 10/8/8
f 27/9/9 28/10/10 10/11/11 11/12/12
f 25/13/13 26/14/14 12/15/15 9/16/16
f 7/17/17 8/18/18 17/19/19 18/20/20
f 20/21/21 17/22/22 8/23/23 6/24/24
f 19/25/25 20/26/26 6/27/27 5/28/28
f 7/29/29 18/30/30 19/31/31 5/32/32
f 14/33/33 13/34/34 10/8/35 9/7/36
f 15/35/37 14/36/38 9/16/39 12/15/40
f 12/1/41 11/4/42 16/37/43 15/38/44
f 11/12/45 10/11/46 13/39/47 16/40/48
f 18/20/49 17/19/50 13/34/51 14/33/52
f 19/31/53 18/30/54 14/36/55 15/35/56
f 15/38/57 16/37/58 20/26/59 19/25/60
f 16/40/61 13/39/62 17/22/63 20/21/64
f 1/41/65 3/42/66 22/43/67 21/44/68
f 23/45/69 22/46/70 3/42/71 4/47/72
f 4/47/73 2/48/74 24/49/75 23/50/76
f 2/51/77 1/52/78 21/53/79 24/54/80
f 21/44/81 22/43/82 26/14/83 25/13/84
f 27/3/85 26/2/86 22/46/87 23/45/88
f 23/50/89 24/49/90 28/10/91 27/9/92
f 24/54/93 21/53/94 25/6/95 28/5/96
f 37/55/97 55/56/98 56/57/99 40/58/100
f 53/59/101 54/60/102 38/61/103 39/62/104
f 56/63/105 53/64/106 39/65/107 40/66/108
f 54/67/109 55/68/110 37/69/111 38/70/112
f 35/71/113 46/72/114 47/73/115 33/74/116
f 35/75/117 36/76/118 45/77/119 46/78/120
f 48/79/121 45/80/122 36/81/123 34/82/124
f 47/83/125 48/84/126 34/85/127 33/86/128
f 42/87/129 41/88/130 39/62/131 38/61/132
f 43/89/133 42/90/134 38/70/135 37/69/136
f 37/55/137 40/58/138 44/91/139 43/92/140
f 40/66/141 39/65/142 41/93/143 44/94/144
f 46/78/145 45/77/146 41/88/147 42/87/148
f 47/73/149 46/72/150 42/90/151 43/89/152
f 43/92/153 44/91/154 48/84/155 47/83/156
f 44/94/157 41/93/158 45/80/159 48/79/160
f 30/95/161 29/96/162 50/97/163 49/98/164
f 29/99/165 31/100/166 51/101/167 50/102/168
f 52/103/169 51/104/170 31/100/171 32/105/172
f 32/105/173 30/106/174 49/107/175 52/108/176
f 49/98/177 50/97/178 54/60/179 53/59/180
f 50/102/181 51/101/182 55/68/183 54/67/184
f 56/57/185 55/56/186 51/104/187 52/103/188
f 52/108/189 49/107/190 53/64/191 56/63/192
f 68/109/193 83/110/194 84/111/195 67/112/196
f 81/113/197 82/114/198 65/115/199 66/116/200
f 84/117/201 81/118/202 66/119/203 67/120/204
f 82/121/205 83/122/206 68/123/207 65/124/208
f 63/125/209 64/126/210 73/127/211 74/128/212
f 76/129/213 73/130/214 64/131/215 62/132/216
f 75/133/217 76/134/218 62/135/219 61/136/220
f 63/137/221 74/138/222 75/139/223 61/140/224
f 70/141/225 69/142/226 66/116/227 65/115/228
f 71/143/229 70/144/230 65/124/231 68/123/232
f 68/109/233 67/112/234 72/145/235 71/146/236
f 67/120/237 66/119/238 69/147/239 72/148/240
f 74/128/241 73/127/242 69/142/243 70/141/244
f 75/139/245 74/138/246 70/144/247 71/143/248
f 71/146/249 72/145/250 76/134/251 75/133/252
f 72/148/253 69/147/254 73/130/255 76/129/256
f 58/149/257 57/150/258 78/151/259 77/152/260
f 57/153/261 59/154/262 79/155/263 78/156/264
f 80/157/265 79/158/266 59/154/267 60/159/268
f 60/159/269 58/160/270 77/161/271 80/162/272
f 77/152/273 78/151/274 82/114/275 81/113/276
f 78/156/277 79/155/278 83/122/279 82/121/280
f 84/111/281 83/110/282 79/158/283 80/157/284
f 80/162/285 77/161/286 81/118/287 84/117/288
f 85/163/289 86/164/290 88/165/291 87/166/292
f 87/166/293 88/165/294 90/167/295 89/168/296
f 89/168/297 90/167/298 92/169/299 91/170/300
f 91/170/301 92/169/302 86/171/303 85/172/304
f 86/164/305 92/173/306 90/174/307 88/165/308
f 91/175/309 85/163/310 87/166/311 89/176/312
f 93/177/313 94/178/314 96/179/315 95/180/316
f 95/180/317 96/179/318 98/181/319 97/182/320
f 97/182/321 98/181/322 100/183/323 99/184/324
f 99/184/325 100/183/326 94/185/327 93/186/328
f 94/178/329 100/187/330 98/188/331 96/179/332
f 99/189/333 93/177/334 95/180/335 97/190/336
