# This file uses centimeters as units for non-parametric coordinates.

v -0.020270 -0.241508 0.342158
v 0.020270 -0.241508 0.342158
v -0.020270 -0.200397 0.342158
v 0.020270 -0.200397 0.342158
v -0.020270 -0.200397 0.092336
v 0.020270 -0.200397 0.092336
v -0.020270 -0.241508 0.092336
v 0.020270 -0.241508 0.092336
v -0.020270 0.144014 0.342158
v 0.020270 0.144014 0.342158
v -0.020270 0.185125 0.342158
v 0.020270 0.185125 0.342158
v -0.020270 0.185125 0.092336
v 0.020270 0.185125 0.092336
v -0.020270 0.144014 0.092336
v 0.020270 0.144014 0.092336
v -0.107482 -0.368870 0.092336
v 0.107481 -0.368870 0.092336
v -0.070269 0.295761 0.092336
v 0.107481 0.295761 0.092336
v -0.107482 0.295761 0.000000
v 0.107481 0.295761 0.000000
v -0.107482 -0.368870 0.000000
v 0.107481 -0.368870 0.000000
v -0.107482 0.295761 0.053944
v -0.107482 0.246467 0.092336
v 0.107481 -0.247787 0.092336
v 0.107481 0.202542 0.092336
v 0.070221 0.065013 0.092336
v 0.107481 0.068941 0.050746
vt 0.115828 0.230539
vt 0.115828 0.230539
vt 0.115828 0.230539
vt 0.115828 0.230539
vt 0.115828 0.230539
vt 0.115828 0.230539
vt 0.115828 0.230539
vt 0.115828 0.230539
vt 0.115828 0.230539
vt 0.115828 0.230539
vt 0.115828 0.230539
vt 0.115828 0.230539
vt 0.115828 0.230539
vt 0.115828 0.230539
vt 0.115828 0.230539
vt 0.115828 0.230539
vt 0.101589 0.302855
vt 0.101589 0.302855
vt 0.101589 0.302855
vt 0.101589 0.302855
vt 0.101589 0.302855
vt 0.101589 0.302855
vt 0.101589 0.302855
vt 0.101589 0.302855
vt 0.101589 0.302855
vt 0.101589 0.302855
vt 0.101589 0.302855
vt 0.101589 0.302855
vt 0.101589 0.302855
vt 0.101589 0.302855
vt 0.101589 0.302855
vt 0.101589 0.302855
vt 0.101589 0.302855
vt 0.101589 0.302855
vt 0.101589 0.302855
vt 0.101589 0.302855
vt 0.101589 0.302855
vn 0.000000 0.000000 1.000000
vn 0.000000 0.000000 1.000000
vn 0.000000 0.000000 1.000000
vn 0.000000 0.000000 1.000000
vn 0.000000 1.000000 0.000000
vn 0.000000 1.000000 0.000000
vn 0.000000 1.000000 0.000000
vn 0.000000 1.000000 0.000000
vn 0.000000 -1.000000 0.000000
vn 0.000000 -1.000000 0.000000
vn 0.000000 -1.000000 0.000000
vn 0.000000 -1.000000 0.000000
vn 1.000000 0.000000 0.000000
vn 1.000000 0.000000 0.000000
vn 1.000000 0.000000 0.000000
vn 1.000000 0.000000 0.000000
vn -1.000000 0.000000 0.000000
vn -1.000000 0.000000 0.000000
vn -1.000000 0.000000 0.000000
vn -1.000000 0.000000 0.000000
vn 0.000000 0.000000 1.000000
vn 0.000000 0.000000 1.000000
vn 0.000000 0.000000 1.000000
vn 0.000000 0.000000 1.000000
vn 0.000000 1.000000 0.000000
vn 0.000000 1.000000 0.000000
vn 0.000000 1.000000 0.000000
vn 0.000000 1.000000 0.000000
vn 0.000000 -1.000000 0.000000
vn 0.000000 -1.000000 0.000000
vn 0.000000 -1.000000 0.000000
vn 0.000000 -1.000000 0.000000
vn 1.000000 0.000000 0.000000
vn 1.000000 0.000000 0.000000
vn 1.000000 0.000000 0.000000
vn 1.000000 0.000000 0.000000
vn -1.000000 0.000000 0.000000
vn -1.000000 0.000000 0.000000
vn -1.000000 0.000000 0.000000
vn -1.000000 0.000000 0.000000
vn 0.000000 0.000000 -1.000000
vn 0.000000 0.000000 -1.000000
vn 0.000000 0.000000 -1.000000
vn 0.000000 0.000000 -1.000000
vn 0.000000 -1.000000 0.000000
vn 0.000000 -1.000000 0.000000
vn 0.000000 -1.000000 0.000000
vn 0.000000 -1.000000 0.000000
vn 1.000000 0.000001 -0.000001
vn 1.000000 0.000001 -0.000001
vn 1.000000 -0.000000 0.000006
vn 1.000000 0.000001 -0.000001
vn -0.631269 0.476552 0.611881
vn -0.631269 0.476552 0.611881
vn -0.631269 0.476552 0.611881
vn -1.000000 0.000000 0.000000
vn -1.000000 0.000000 0.000000
vn -1.000000 0.000000 0.000000
vn -1.000000 0.000000 0.000000
vn -1.000000 0.000000 0.000000
vn -0.000000 0.000000 1.000000
vn -0.000000 0.000000 1.000000
vn 0.000000 0.000000 1.000000
vn 0.000000 0.000000 1.000000
vn 0.000000 0.000000 1.000000
vn 0.000000 1.000000 0.000000
vn 0.000000 1.000000 0.000000
vn 0.000000 1.000000 0.000000
vn 0.000000 1.000000 0.000000
vn 0.000000 1.000000 0.000000
vn 0.737799 0.087885 0.669275
vn 0.737799 0.087885 0.669275
vn 0.737799 0.087885 0.669275
vn 0.739060 -0.200228 0.643194
vn 0.739060 -0.200228 0.643194
vn 0.739060 -0.200228 0.643194
vn -0.000000 -0.000000 1.000000
vn 0.000000 -0.000000 1.000000
vn 0.000000 -0.000000 1.000000
vn -0.000000 0.000000 1.000000
vn -0.000000 -0.000000 1.000000
vn -0.000000 0.000000 1.000000
vn -0.000000 0.000000 1.000000
vn 1.000000 -0.000000 0.000006
vn 1.000000 -0.000001 0.000000
vn 1.000000 -0.000002 -0.000002
vn 1.000000 -0.000002 -0.000002
vn 1.000000 -0.000000 0.000006
vn 1.000000 0.000001 -0.000001
vn 1.000000 -0.000001 0.000000
s off
f 1/1/1 2/2/2 4/3/3 3/4/4
f 3/4/5 4/3/6 6/5/7 5/6/8
f 7/7/9 8/8/10 2/2/11 1/1/12
f 2/2/13 8/8/14 6/5/15 4/3/16
f 7/7/17 1/1/18 3/4/19 5/6/20
f 9/9/21 10/10/22 12/11/23 11/12/24
f 11/12/25 12/11/26 14/13/27 13/14/28
f 15/15/29 16/16/30 10/10/31 9/9/32
f 10/10/33 16/16/34 14/13/35 12/11/36
f 15/15/37 9/9/38 11/12/39 13/14/40
f 21/25/41 22/26/42 24/24/43 23/23/44
f 23/23/45 24/24/46 18/22/47 17/21/48
f 18/30/49 24/20/50 30/37/51 27/34/52
f 25/31/53 26/33/54 19/27/55
f 23/18/56 17/29/57 26/33/58 25/31/59 21/17/60
f 26/33/61 29/36/62 28/35/63 20/28/64 19/27/65
f 25/32/66 19/27/67 20/28/68 22/26/69 21/25/70
f 30/37/71 29/36/72 27/34/73
f 28/35/74 29/36/75 30/37/76
f 17/29/77 18/30/78 27/34/79 29/36/80
f 17/29/81 29/36/82 26/33/83
f 30/37/84 22/19/85 20/28/86 28/35/87
f 30/37/88 24/20/89 22/19/90
