# This file uses centimeters as units for non-parametric coordinates.

v 0.232330 0.110715 -0.307097
v 0.037430 0.060696 -0.425301
v -0.258667 0.060696 -0.222678
v -0.354675 0.112707 0.049126
v -0.139999 0.060696 0.311553
v 0.058167 0.126487 0.425293
v 0.237717 0.060696 0.311553
v 0.315933 0.060696 0.010254
v 0.191910 0.462289 -0.244475
v 0.059204 0.544444 -0.299889
v -0.100616 0.523170 -0.221152
v -0.155823 0.537273 -0.022873
v -0.097885 0.474497 0.173232
v 0.048843 0.410537 0.255302
v 0.195221 0.365186 0.159873
v 0.265976 0.447390 -0.026863
v 0.196053 0.000000 -0.233849
v 0.037430 0.000000 -0.329440
v 0.048859 0.000000 0.009903
v -0.217018 0.000000 -0.153786
v -0.215885 0.000000 0.072540
v -0.098351 0.000000 0.242661
v 0.048859 0.000000 0.316714
v 0.196053 0.000000 0.242661
v 0.257038 0.000000 0.009903
v 0.099815 0.634554 -0.030341
v 0.077377 0.644417 -0.042901
v 0.054405 0.646980 -0.030379
v 0.044380 0.641263 -0.000198
v 0.053047 0.629173 0.030219
v 0.075424 0.618520 0.042916
v 0.098335 0.615031 0.030554
v 0.108467 0.622091 0.000137
v 0.153305 0.740944 -0.059194
v 0.098022 0.757755 -0.088603
v 0.069201 0.734259 -0.016966
v 0.017601 0.752728 0.015198
v 0.073016 0.721458 0.064501
v 0.094131 0.707601 0.118648
v 0.150253 0.701330 0.088078
v 0.140015 0.708476 0.013679
v 0.140362 0.752941 -0.040162
v 0.097931 0.766391 -0.062861
v 0.077338 0.746205 -0.005335
v 0.036087 0.762404 0.016945
v 0.080741 0.738908 0.053274
v 0.095016 0.729031 0.096240
v 0.138119 0.723755 0.072816
v 0.128166 0.728330 0.015677
v 0.078598 0.644169 0.001846
v 0.230771 0.527474 -0.011688
v 0.179645 0.489703 0.141665
v 0.063873 0.500023 0.205091
v -0.023640 0.578128 0.141276
v -0.092923 0.605162 -0.010109
v -0.043171 0.623682 -0.160128
v 0.072601 0.613362 -0.223562
v 0.186710 0.582608 -0.163653
v 0.354679 0.308253 0.010590
v 0.259419 0.297533 0.284228
v 0.050598 0.292821 0.410755
v -0.166950 0.305707 0.290645
v -0.256870 0.309215 0.010254
v -0.167332 0.309215 -0.268916
v 0.048859 0.309215 -0.384548
v 0.265034 0.309215 -0.268916
vt 0.079247 0.278792
vt 0.079247 0.278792
vt 0.079247 0.278792
vt 0.079247 0.278792
vt 0.079247 0.278792
vt 0.079247 0.278792
vt 0.079247 0.278792
vt 0.079247 0.278792
vt 0.079247 0.278792
vt 0.079247 0.278792
vt 0.079247 0.278792
vt 0.079247 0.278792
vt 0.079247 0.278792
vt 0.079247 0.278792
vt 0.079247 0.278792
vt 0.079247 0.278792
vt 0.079247 0.278792
vt 0.079247 0.278792
vt 0.079247 0.278792
vt 0.079247 0.278792
vt 0.079247 0.278792
vt 0.079247 0.278792
vt 0.079247 0.278792
vt 0.079247 0.278792
vt 0.079247 0.278792
vt 0.079247 0.278792
vt 0.079247 0.278792
vt 0.079247 0.278792
vt 0.079247 0.278792
vt 0.079247 0.278792
vt 0.079247 0.278792
vt 0.079247 0.278792
vt 0.079247 0.278792
vt 0.079247 0.278792
vt 0.079247 0.278792
vt 0.079247 0.278792
vt 0.079247 0.278792
vt 0.079247 0.278792
vt 0.079247 0.278792
vt 0.079247 0.278792
vt 0.079247 0.278792
vt 0.079247 0.278792
vt 0.079247 0.278792
vt 0.079247 0.278792
vt 0.079247 0.278792
vt 0.079247 0.278792
vt 0.079247 0.278792
vt 0.079247 0.278792
vt 0.079247 0.278792
vt 0.079247 0.278792
vt 0.079247 0.278792
vt 0.079247 0.278792
vt 0.079247 0.278792
vt 0.079247 0.278792
vt 0.079247 0.278792
vt 0.079247 0.278792
vt 0.079247 0.278792
vt 0.079247 0.278792
vt 0.079247 0.278792
vt 0.079247 0.278792
vt 0.079247 0.278792
vt 0.079247 0.278792
vt 0.079247 0.278792
vt 0.079247 0.278792
vt 0.079247 0.278792
vt 0.079247 0.278792
vt 0.079247 0.278792
vt 0.079247 0.278792
vt 0.079247 0.278792
vt 0.079247 0.278792
vt 0.079247 0.278792
vt 0.079247 0.278792
vt 0.079247 0.278792
vt 0.079247 0.278792
vt 0.079247 0.278792
vt 0.079247 0.278792
vt 0.079247 0.278792
vt 0.079247 0.278792
vt 0.079247 0.278792
vt 0.079247 0.278792
vt 0.079247 0.278792
vt 0.079247 0.278792
vt 0.079247 0.278792
vt 0.079247 0.278792
vt 0.079247 0.278792
vn 0.481876 0.106014 -0.869803
vn 0.481876 0.106014 -0.869803
vn 0.481876 0.106014 -0.869803
vn 0.481876 0.106014 -0.869802
vn -0.525097 0.099237 -0.845237
vn -0.525097 0.099237 -0.845237
vn -0.525097 0.099237 -0.845237
vn -0.525097 0.099237 -0.845237
vn -0.889984 0.315241 -0.329470
vn -0.889984 0.315241 -0.329470
vn -0.889984 0.315241 -0.329470
vn -0.889985 0.315241 -0.329470
vn -0.845006 0.202611 0.494888
vn -0.845006 0.202611 0.494888
vn -0.845006 0.202611 0.494888
vn -0.845006 0.202611 0.494888
vn -0.493240 0.033512 0.869248
vn -0.493240 0.033512 0.869248
vn -0.493240 0.033512 0.869248
vn -0.493240 0.033512 0.869248
vn 0.532677 0.068910 0.843509
vn 0.532677 0.068910 0.843509
vn 0.532677 0.068910 0.843509
vn 0.532677 0.068910 0.843509
vn 0.952807 -0.102991 0.285572
vn 0.952807 -0.102991 0.285572
vn 0.952807 -0.102991 0.285572
vn 0.952807 -0.102991 0.285572
vn 0.949574 -0.127363 -0.286509
vn 0.949574 -0.127363 -0.286509
vn 0.949574 -0.127363 -0.286509
vn 0.949574 -0.127363 -0.286509
vn 0.000000 -1.000000 0.000000
vn 0.000000 -1.000000 0.000000
vn 0.000000 -1.000000 0.000000
vn 0.000000 -1.000000 0.000000
vn 0.000000 -1.000000 0.000000
vn 0.000000 -1.000000 0.000000
vn 0.000000 -1.000000 0.000000
vn 0.000000 -1.000000 0.000000
vn 0.000000 -1.000000 0.000000
vn 0.000000 -1.000000 0.000000
vn 0.000000 -1.000000 0.000000
vn 0.000000 -1.000000 0.000000
vn 0.000000 -1.000000 0.000000
vn 0.000000 -1.000000 0.000000
vn 0.000000 -1.000000 0.000000
vn 0.000000 -1.000000 0.000000
vn 0.000000 -1.000000 0.000000
vn 0.000000 -1.000000 0.000000
vn 0.000000 -1.000000 0.000000
vn 0.000000 -1.000000 0.000000
vn 0.000000 -1.000000 0.000000
vn 0.000000 -1.000000 0.000000
vn 0.000000 -1.000000 0.000000
vn 0.000000 -1.000000 0.000000
vn 0.449894 -0.673664 -0.586321
vn 0.449894 -0.673664 -0.586321
vn 0.449894 -0.673664 -0.586321
vn 0.449894 -0.673664 -0.586321
vn -0.343138 -0.795519 -0.499405
vn -0.343138 -0.795519 -0.499405
vn -0.343138 -0.795519 -0.499405
vn -0.343138 -0.795519 -0.499405
vn -0.677850 -0.733321 -0.052537
vn -0.677850 -0.733321 -0.052537
vn -0.677850 -0.733321 -0.052537
vn -0.677850 -0.733321 -0.052537
vn -0.593585 -0.714696 0.369955
vn -0.593585 -0.714696 0.369955
vn -0.593585 -0.714696 0.369955
vn -0.593585 -0.714696 0.369955
vn -0.240242 -0.689417 0.683365
vn -0.240242 -0.689417 0.683365
vn -0.240242 -0.689417 0.683365
vn -0.240242 -0.689417 0.683365
vn 0.243725 -0.701410 0.669792
vn 0.243725 -0.701410 0.669792
vn 0.243725 -0.701410 0.669792
vn 0.243725 -0.701410 0.669792
vn 0.703148 -0.687018 0.183276
vn 0.703148 -0.687018 0.183276
vn 0.703148 -0.687018 0.183276
vn 0.703148 -0.687018 0.183276
vn 0.795697 -0.549839 -0.254055
vn 0.795697 -0.549839 -0.254055
vn 0.795696 -0.549839 -0.254055
vn 0.795696 -0.549839 -0.254055
vn 0.545227 0.521452 -0.656366
vn 0.545227 0.521452 -0.656366
vn 0.545227 0.521452 -0.656366
vn 0.545227 0.521452 -0.656366
vn -0.359773 0.673713 -0.645503
vn -0.359773 0.673713 -0.645503
vn -0.359773 0.673713 -0.645503
vn -0.359773 0.673713 -0.645503
vn -0.746717 0.628733 -0.217046
vn -0.746717 0.628733 -0.217046
vn -0.746717 0.628733 -0.217046
vn -0.746717 0.628733 -0.217046
vn -0.690537 0.597718 0.407297
vn -0.690537 0.597718 0.407297
vn -0.690537 0.597718 0.407297
vn -0.690537 0.597718 0.407297
vn -0.241491 0.472318 0.847701
vn -0.241491 0.472318 0.847701
vn -0.241491 0.472318 0.847701
vn -0.241491 0.472318 0.847701
vn 0.540181 0.257524 0.801178
vn 0.540180 0.257524 0.801178
vn 0.540180 0.257524 0.801178
vn 0.540181 0.257524 0.801178
vn 0.888794 0.226500 0.398427
vn 0.888793 0.226500 0.398427
vn 0.888794 0.226500 0.398427
vn 0.888793 0.226500 0.398427
vn 0.923584 0.300356 -0.238286
vn 0.923583 0.300356 -0.238286
vn 0.923584 0.300356 -0.238286
vn 0.923584 0.300356 -0.238286
vn 0.325204 -0.400403 -0.856691
vn 0.325204 -0.400403 -0.856691
vn 0.325204 -0.400403 -0.856691
vn 0.325204 -0.400403 -0.856691
vn -0.857200 0.069300 -0.510299
vn -0.857200 0.069300 -0.510299
vn -0.857200 0.069300 -0.510299
vn -0.857200 0.069300 -0.510299
vn -0.703725 0.060185 -0.707919
vn -0.703725 0.060185 -0.707919
vn -0.703725 0.060185 -0.707919
vn -0.703725 0.060185 -0.707919
vn -0.810520 -0.164175 0.562231
vn -0.810520 -0.164175 0.562231
vn -0.810520 -0.164175 0.562231
vn -0.810520 -0.164175 0.562231
vn -0.852025 -0.126452 0.508000
vn -0.852025 -0.126452 0.508000
vn -0.852025 -0.126452 0.508000
vn -0.852025 -0.126452 0.508000
vn 0.298822 -0.650722 0.698045
vn 0.298822 -0.650722 0.698045
vn 0.298822 -0.650722 0.698045
vn 0.298822 -0.650722 0.698045
vn 0.907893 -0.415279 -0.057214
vn 0.907893 -0.415279 -0.057214
vn 0.907893 -0.415279 -0.057214
vn 0.907893 -0.415279 -0.057214
vn 0.902204 -0.408884 -0.137263
vn 0.902204 -0.408884 -0.137263
vn 0.902204 -0.408884 -0.137263
vn 0.902204 -0.408884 -0.137263
vn 0.416261 0.865775 -0.277779
vn 0.416261 0.865775 -0.277779
vn 0.416261 0.865775 -0.277779
vn 0.416261 0.865775 -0.277779
vn -0.822999 0.553512 -0.127660
vn -0.822999 0.553512 -0.127660
vn -0.822999 0.553512 -0.127660
vn -0.822999 0.553512 -0.127660
vn -0.176469 0.665826 -0.724938
vn -0.176469 0.665826 -0.724938
vn -0.176469 0.665826 -0.724938
vn -0.176469 0.665826 -0.724938
vn -0.325687 0.576567 0.749332
vn -0.325687 0.576567 0.749332
vn -0.325687 0.576567 0.749332
vn -0.325687 0.576567 0.749332
vn -0.757029 0.515228 0.401805
vn -0.757029 0.515228 0.401805
vn -0.757029 0.515228 0.401805
vn -0.757029 0.515228 0.401805
vn 0.419894 0.650945 0.632424
vn 0.419894 0.650945 0.632424
vn 0.419894 0.650945 0.632424
vn 0.419894 0.650945 0.632424
vn 0.878270 0.469030 -0.093019
vn 0.878270 0.469030 -0.093019
vn 0.878270 0.469030 -0.093019
vn 0.878270 0.469030 -0.093019
vn 0.836977 0.419286 0.351665
vn 0.836977 0.419286 0.351665
vn 0.836977 0.419286 0.351665
vn 0.836977 0.419286 0.351665
vn -0.288941 0.483241 0.826433
vn -0.288941 0.483241 0.826433
vn -0.288941 0.483241 0.826433
vn 0.936800 0.036060 0.348002
vn 0.936800 0.036060 0.348002
vn 0.936800 0.036060 0.348002
vn 0.494425 0.067101 0.866627
vn 0.494425 0.067101 0.866627
vn 0.494425 0.067101 0.866627
vn 0.694195 0.331203 -0.639061
vn 0.694195 0.331203 -0.639061
vn 0.694195 0.331203 -0.639061
vn 0.949297 0.133127 -0.284802
vn 0.949297 0.133127 -0.284802
vn 0.949297 0.133127 -0.284802
vn -0.248053 0.741468 -0.623454
vn -0.248053 0.741468 -0.623454
vn -0.248053 0.741468 -0.623454
vn -0.859515 0.475368 0.187775
vn -0.859515 0.475368 0.187775
vn -0.859515 0.475368 0.187775
vn -0.863558 0.503158 0.033160
vn -0.863558 0.503158 0.033160
vn -0.863558 0.503158 0.033160
vn 0.591571 0.715445 0.371727
vn 0.591571 0.715445 0.371727
vn 0.591571 0.715445 0.371728
vn 0.591571 0.715445 0.371728
vn 0.379438 0.736385 0.560147
vn 0.379438 0.736385 0.560147
vn 0.379438 0.736385 0.560147
vn 0.379438 0.736385 0.560147
vn 0.241577 0.787665 0.566767
vn 0.241577 0.787665 0.566767
vn 0.241577 0.787665 0.566767
vn 0.241577 0.787665 0.566767
vn -0.234901 0.924661 0.299705
vn -0.234901 0.924661 0.299705
vn -0.234901 0.924661 0.299705
vn -0.234901 0.924661 0.299705
vn -0.267644 0.962658 0.040693
vn -0.267644 0.962658 0.040693
vn -0.267644 0.962658 0.040693
vn -0.267644 0.962658 0.040693
vn -0.002504 0.985151 -0.171671
vn -0.002504 0.985151 -0.171671
vn -0.002504 0.985151 -0.171671
vn -0.002504 0.985151 -0.171671
vn 0.354684 0.922688 -0.151149
vn 0.354684 0.922688 -0.151149
vn 0.354684 0.922688 -0.151149
vn 0.354684 0.922688 -0.151149
vn 0.619914 0.777089 0.108809
vn 0.619914 0.777089 0.108809
vn 0.619914 0.777089 0.108809
vn 0.619914 0.777089 0.108809
vn 0.593557 0.720090 0.359389
vn 0.593557 0.720090 0.359389
vn 0.593557 0.720090 0.359389
vn 0.593557 0.720090 0.359389
vn 0.373688 0.811388 0.449452
vn 0.373688 0.811388 0.449452
vn 0.373688 0.811388 0.449452
vn 0.373688 0.811388 0.449452
vn -0.228606 0.699022 0.677575
vn -0.228606 0.699022 0.677575
vn -0.228606 0.699022 0.677575
vn -0.228606 0.699022 0.677575
vn -0.820547 0.473296 0.320457
vn -0.820547 0.473296 0.320457
vn -0.820547 0.473296 0.320457
vn -0.820547 0.473296 0.320457
vn -0.894036 0.348641 -0.281336
vn -0.894036 0.348641 -0.281336
vn -0.894036 0.348641 -0.281336
vn -0.894036 0.348641 -0.281336
vn -0.448979 0.322674 -0.833246
vn -0.448979 0.322674 -0.833246
vn -0.448979 0.322674 -0.833246
vn -0.448979 0.322674 -0.833246
vn 0.476315 0.308364 -0.823429
vn 0.476315 0.308364 -0.823429
vn 0.476315 0.308364 -0.823429
vn 0.476315 0.308364 -0.823429
vn 0.848525 0.458122 -0.264820
vn 0.848525 0.458122 -0.264820
vn 0.848525 0.458122 -0.264820
vn 0.848525 0.458122 -0.264820
s off
f 1/9/1 2/10/2 65/83/3 66/85/4
f 2/10/5 3/11/6 64/82/7 65/83/8
f 3/11/9 4/12/10 63/81/11 64/82/12
f 4/12/13 5/13/14 62/80/15 63/81/16
f 5/13/17 6/14/18 61/79/19 62/80/20
f 6/14/21 7/15/22 60/78/23 61/79/24
f 7/15/25 8/16/26 59/77/27 60/78/28
f 8/16/29 1/17/30 66/84/31 59/77/32
f 18/37/33 17/38/34 19/35/35
f 20/39/36 18/37/37 19/35/38
f 21/40/39 20/39/40 19/35/41
f 22/41/42 21/40/43 19/35/44
f 23/42/45 22/41/46 19/35/47
f 24/43/48 23/42/49 19/35/50
f 25/44/51 24/43/52 19/35/53
f 17/38/54 25/44/55 19/35/56
f 2/2/57 1/1/58 17/38/59 18/37/60
f 3/3/61 2/2/62 18/37/63 20/39/64
f 4/4/65 3/3/66 20/39/67 21/40/68
f 5/5/69 4/4/70 21/40/71 22/41/72
f 6/6/73 5/5/74 22/41/75 23/42/76
f 7/7/77 6/6/78 23/42/79 24/43/80
f 8/8/81 7/7/82 24/43/83 25/44/84
f 1/1/85 8/8/86 25/44/87 17/38/88
f 9/33/89 10/32/90 57/75/91 58/76/92
f 10/32/93 11/31/94 56/74/95 57/75/96
f 11/31/97 12/30/98 55/73/99 56/74/100
f 12/30/101 13/29/102 54/72/103 55/73/104
f 13/29/105 14/28/106 53/71/107 54/72/108
f 14/28/109 15/27/110 52/70/111 53/71/112
f 15/27/113 16/34/114 51/69/115 52/70/116
f 16/34/117 9/33/118 58/76/119 51/69/120
f 26/45/121 27/46/122 35/54/123 34/53/124
f 27/46/125 28/47/126 36/55/127 35/54/128
f 28/47/129 29/48/130 37/56/131 36/55/132
f 29/48/133 30/49/134 38/57/135 37/56/136
f 30/49/137 31/50/138 39/58/139 38/57/140
f 31/50/141 32/51/142 40/59/143 39/58/144
f 32/51/145 33/52/146 41/60/147 40/59/148
f 33/52/149 26/45/150 34/53/151 41/60/152
f 34/53/153 35/54/154 43/62/155 42/61/156
f 35/54/157 36/55/158 44/63/159 43/62/160
f 36/55/161 37/56/162 45/64/163 44/63/164
f 37/56/165 38/57/166 46/65/167 45/64/168
f 38/57/169 39/58/170 47/66/171 46/65/172
f 39/58/173 40/59/174 48/67/175 47/66/176
f 40/59/177 41/60/178 49/68/179 48/67/180
f 41/60/181 34/53/182 42/61/183 49/68/184
f 42/61/185 43/62/186 50/36/187
f 43/62/188 44/63/189 50/36/190
f 44/63/191 45/64/192 50/36/193
f 45/64/194 46/65/195 50/36/196
f 46/65/197 47/66/198 50/36/199
f 47/66/200 48/67/201 50/36/202
f 48/67/203 49/68/204 50/36/205
f 49/68/206 42/61/207 50/36/208
f 52/70/209 51/69/210 33/52/211 32/51/212
f 53/71/213 52/70/214 32/51/215 31/50/216
f 54/72/217 53/71/218 31/50/219 30/49/220
f 55/73/221 54/72/222 30/49/223 29/48/224
f 56/74/225 55/73/226 29/48/227 28/47/228
f 57/75/229 56/74/230 28/47/231 27/46/232
f 58/76/233 57/75/234 27/46/235 26/45/236
f 51/69/237 58/76/238 26/45/239 33/52/240
f 60/78/241 59/77/242 16/25/243 15/24/244
f 61/79/245 60/78/246 15/24/247 14/23/248
f 62/80/249 61/79/250 14/23/251 13/22/252
f 63/81/253 62/80/254 13/22/255 12/21/256
f 64/82/257 63/81/258 12/21/259 11/20/260
f 65/83/261 64/82/262 11/20/263 10/19/264
f 66/85/265 65/83/266 10/19/267 9/18/268
f 59/77/269 66/84/270 9/26/271 16/25/272
