# This file uses centimeters as units for non-parametric coordinates.

v -0.246643 0.478404 -0.199997
v -0.246643 0.478404 0.293284
v -0.246643 0.561336 -0.199997
v -0.246643 0.561336 0.293284
v 0.246643 0.561336 -0.199997
v 0.246643 0.561336 0.293284
v 0.246643 0.478404 -0.199997
v 0.246643 0.478404 0.293284
v -0.216797 0.798174 -0.261988
v -0.216797 0.804550 -0.197589
v -0.216797 1.032387 -0.286927
v -0.216797 1.032387 -0.221949
v 0.216782 1.032387 -0.286927
v 0.216782 1.032387 -0.221949
v 0.216782 0.798174 -0.261988
v 0.216782 0.804550 -0.197589
v 0.202423 -0.000000 -0.241423
v 0.202438 -0.000000 -0.198128
v 0.202438 1.047451 -0.293284
v 0.202423 1.047451 -0.249990
v 0.245712 1.047451 -0.293284
v 0.245712 1.047451 -0.249989
v 0.245712 -0.000000 -0.241423
v 0.245712 -0.000000 -0.198128
v 0.202423 -0.000000 0.248199
v 0.202423 -0.000000 0.291492
v 0.202423 0.485885 0.248199
v 0.202423 0.485885 0.291492
v 0.245712 0.485885 0.248199
v 0.245712 0.485885 0.291493
v 0.245712 -0.000000 0.248199
v 0.245712 -0.000000 0.291493
v -0.244858 -0.000000 -0.241423
v -0.244858 -0.000000 -0.198128
v -0.244858 1.047451 -0.293284
v -0.244858 1.047451 -0.249989
v -0.201569 1.047451 -0.293284
v -0.201569 1.047451 -0.249989
v -0.201569 -0.000000 -0.241423
v -0.201569 -0.000000 -0.198128
v -0.244858 -0.000000 0.248199
v -0.244858 -0.000000 0.291492
v -0.244858 0.485885 0.248199
v -0.244858 0.485885 0.291492
v -0.201569 0.485885 0.248199
v -0.201569 0.485885 0.291492
v -0.201569 -0.000000 0.248199
v -0.201569 -0.000000 0.291492
v -0.201569 0.560284 -0.241423
v -0.244858 0.560284 -0.241423
v -0.244858 0.560284 -0.198128
v -0.201569 0.560284 -0.198128
v 0.202423 0.561019 -0.241423
v 0.245712 0.561019 -0.241423
v 0.245712 0.561019 -0.198128
v 0.202438 0.561019 -0.198128
v -0.190674 0.591430 0.237306
v -0.190674 0.591430 -0.144017
v 0.190659 0.591430 0.237306
v 0.190659 0.591430 -0.144017
v 0.167587 0.833605 -0.170430
v -0.167603 0.833605 -0.170430
v 0.167587 1.009731 -0.189261
v -0.167603 1.009731 -0.189261
vt 0.352020 0.424212
vt 0.352020 0.424212
vt 0.352020 0.424212
vt 0.352020 0.424212
vt 0.352020 0.424212
vt 0.352020 0.424212
vt 0.352020 0.424212
vt 0.352020 0.424212
vt 0.352020 0.424212
vt 0.352020 0.424212
vt 0.352020 0.424212
vt 0.352020 0.424212
vt 0.352020 0.424212
vt 0.352020 0.424212
vt 0.352020 0.424212
vt 0.352020 0.424212
vt 0.103215 0.230305
vt 0.103215 0.230305
vt 0.103215 0.230305
vt 0.103215 0.230305
vt 0.103215 0.230305
vt 0.103215 0.230305
vt 0.103215 0.230305
vt 0.103215 0.230305
vt 0.103215 0.230305
vt 0.103215 0.230305
vt 0.103215 0.230305
vt 0.103215 0.230305
vt 0.103215 0.230305
vt 0.103215 0.230305
vt 0.103215 0.230305
vt 0.103215 0.230305
vt 0.103215 0.230305
vt 0.103215 0.230305
vt 0.103215 0.230305
vt 0.103215 0.230305
vt 0.103215 0.230305
vt 0.103215 0.230305
vt 0.103215 0.230305
vt 0.103215 0.230305
vt 0.103215 0.230305
vt 0.103215 0.230305
vt 0.103215 0.230305
vt 0.103215 0.230305
vt 0.103215 0.230305
vt 0.103215 0.230305
vt 0.103215 0.230305
vt 0.103215 0.230305
vt 0.103215 0.230305
vt 0.103215 0.230305
vt 0.103215 0.230305
vt 0.103215 0.230305
vt 0.103215 0.230305
vt 0.103215 0.230305
vt 0.103215 0.230305
vt 0.103215 0.230305
vt 0.103215 0.230305
vt 0.103215 0.230305
vt 0.103215 0.230305
vt 0.103215 0.230305
vt 0.103215 0.230305
vt 0.103215 0.230305
vt 0.103215 0.230305
vt 0.103215 0.230305
vt 0.103215 0.230305
vt 0.103215 0.230305
vt 0.103215 0.230305
vt 0.103215 0.230305
vt 0.103215 0.230305
vt 0.103215 0.230305
vt 0.103215 0.230305
vt 0.103215 0.230305
vt 0.103215 0.230305
vt 0.103215 0.230305
vt 0.103215 0.230305
vt 0.103215 0.230305
vt 0.103215 0.230305
vt 0.103215 0.230305
vt 0.103215 0.230305
vt 0.103215 0.230305
vt 0.103215 0.230305
vt 0.103215 0.230305
vt 0.103215 0.230305
vt 0.103215 0.230305
vt 0.103215 0.230305
vt 0.103215 0.230305
vt 0.103215 0.230305
vt 0.103215 0.230305
vt 0.103215 0.230305
vt 0.103215 0.230305
vt 0.103215 0.230305
vt 0.103215 0.230305
vt 0.103215 0.230305
vt 0.103215 0.230305
vt 0.103215 0.230305
vt 0.103215 0.230305
vt 0.103215 0.230305
vt 0.103215 0.230305
vt 0.103215 0.230305
vt 0.103215 0.230305
vt 0.103215 0.230305
vt 0.103215 0.230305
vt 0.103215 0.230305
vt 0.103215 0.230305
vt 0.103215 0.230305
vt 0.103215 0.230305
vt 0.103215 0.230305
vt 0.103215 0.230305
vt 0.103215 0.230305
vt 0.103215 0.230305
vt 0.103215 0.230305
vt 0.103215 0.230305
vt 0.103215 0.230305
vt 0.103215 0.230305
vt 0.103215 0.230305
vt 0.103215 0.230305
vt 0.103215 0.230305
vt 0.103215 0.230305
vt 0.103215 0.230305
vt 0.103215 0.230305
vt 0.103215 0.230305
vt 0.103215 0.230305
vt 0.103215 0.230305
vt 0.103215 0.230305
vt 0.103215 0.230305
vt 0.103215 0.230305
vt 0.103215 0.230305
vt 0.103215 0.230305
vt 0.352020 0.424212
vt 0.352020 0.424212
vt 0.352020 0.424212
vt 0.352020 0.424212
vt 0.352020 0.424212
vt 0.352020 0.424212
vt 0.352020 0.424212
vt 0.352020 0.424212
vn -1.000000 0.000000 0.000000
vn -1.000000 0.000000 0.000000
vn -1.000000 0.000000 0.000000
vn -1.000000 0.000000 0.000000
vn 0.000000 1.000000 0.000000
vn 0.000000 1.000000 0.000000
vn 0.000000 1.000000 0.000000
vn 0.000000 1.000000 0.000000
vn 1.000000 0.000000 0.000000
vn 1.000000 0.000000 0.000000
vn 1.000000 0.000000 0.000000
vn 1.000000 0.000000 0.000000
vn 0.000000 -1.000000 0.000000
vn 0.000000 -1.000000 0.000000
vn 0.000000 -1.000000 0.000000
vn 0.000000 -1.000000 0.000000
vn 0.000000 0.000000 1.000000
vn 0.000000 0.000000 1.000000
vn 0.000000 0.000000 1.000000
vn 0.000000 0.000000 1.000000
vn 0.000000 0.000000 -1.000000
vn 0.000000 0.000000 -1.000000
vn 0.000000 0.000000 -1.000000
vn 0.000000 0.000000 -1.000000
vn -1.000000 0.000000 0.000000
vn -1.000000 0.000000 0.000000
vn -1.000000 0.000000 0.000000
vn -1.000000 0.000000 0.000000
vn 0.000000 1.000000 0.000000
vn 0.000000 1.000000 0.000000
vn 0.000000 1.000000 0.000000
vn 0.000000 1.000000 0.000000
vn 1.000000 0.000000 0.000000
vn 1.000000 0.000000 0.000000
vn 1.000000 0.000000 0.000000
vn 1.000000 0.000000 0.000000
vn 0.000000 -0.995135 0.098522
vn 0.000000 -0.995135 0.098522
vn 0.000000 -0.995135 0.098522
vn 0.000000 -0.995135 0.098522
vn 0.000000 0.106313 0.994333
vn 0.000000 0.106313 0.994333
vn 0.000000 0.106313 0.994333
vn 0.000000 0.106313 0.994333
vn 0.000000 -0.105884 -0.994379
vn 0.000000 -0.105884 -0.994379
vn 0.000000 -0.105884 -0.994379
vn 0.000000 -0.105884 -0.994379
vn -1.000000 0.000000 0.000352
vn -1.000000 0.000000 0.000352
vn -1.000000 0.000000 0.000352
vn -1.000000 0.000000 0.000352
vn 0.000000 1.000000 -0.000002
vn 0.000000 1.000000 -0.000002
vn 0.000000 1.000000 -0.000002
vn 0.000000 1.000000 -0.000002
vn 1.000000 0.000000 0.000000
vn 1.000000 0.000000 0.000000
vn 1.000000 0.000000 0.000000
vn 1.000000 0.000000 0.000000
vn 0.000000 -1.000000 0.000000
vn 0.000000 -1.000000 0.000000
vn 0.000000 -1.000000 0.000000
vn 0.000000 -1.000000 0.000000
vn 0.000000 0.000000 1.000000
vn 0.000000 0.000000 1.000000
vn 0.000000 0.000000 1.000000
vn 0.000000 0.000000 1.000000
vn 0.000000 0.000000 -1.000000
vn 0.000000 0.000000 -1.000000
vn 0.000000 0.000000 -1.000000
vn 0.000000 0.000000 -1.000000
vn -1.000000 0.000000 0.000000
vn -1.000000 0.000000 0.000000
vn -1.000000 0.000000 0.000000
vn -1.000000 0.000000 0.000000
vn 0.000000 1.000000 0.000000
vn 0.000000 1.000000 0.000000
vn 0.000000 1.000000 0.000000
vn 0.000000 1.000000 0.000000
vn 1.000000 0.000000 0.000000
vn 1.000000 0.000000 0.000000
vn 1.000000 0.000000 0.000000
vn 1.000000 0.000000 0.000000
vn 0.000000 -1.000000 0.000000
vn 0.000000 -1.000000 0.000000
vn 0.000000 -1.000000 0.000000
vn 0.000000 -1.000000 0.000000
vn -0.000022 0.000000 1.000000
vn -0.000022 0.000000 1.000000
vn -0.000022 0.000000 1.000000
vn -0.000022 0.000000 1.000000
vn 0.000000 0.000000 -1.000000
vn 0.000000 0.000000 -1.000000
vn 0.000000 0.000000 -1.000000
vn 0.000000 0.000000 -1.000000
vn -1.000000 0.000000 0.000000
vn -1.000000 0.000000 0.000000
vn -1.000000 0.000000 0.000000
vn -1.000000 0.000000 0.000000
vn 0.000000 1.000000 0.000000
vn 0.000000 1.000000 0.000000
vn 0.000000 1.000000 0.000000
vn 0.000000 1.000000 0.000000
vn 1.000000 -0.000000 0.000000
vn 1.000000 -0.000000 0.000000
vn 1.000000 -0.000000 0.000000
vn 1.000000 -0.000000 0.000000
vn 0.000000 -1.000000 0.000000
vn 0.000000 -1.000000 0.000000
vn 0.000000 -1.000000 0.000000
vn 0.000000 -1.000000 0.000000
vn 0.000000 0.105856 0.994381
vn 0.000000 0.105856 0.994381
vn 0.000000 0.105856 0.994381
vn 0.000000 0.105856 0.994381
vn 0.000000 -0.105858 -0.994381
vn 0.000000 -0.105858 -0.994381
vn 0.000000 -0.105858 -0.994381
vn 0.000000 -0.105858 -0.994381
vn -1.000000 0.000000 0.000000
vn -1.000000 0.000000 0.000000
vn -1.000000 0.000000 0.000000
vn -1.000000 0.000000 0.000000
vn 0.000000 1.000000 0.000000
vn 0.000000 1.000000 0.000000
vn 0.000000 1.000000 0.000000
vn 0.000000 1.000000 0.000000
vn 1.000000 0.000000 0.000000
vn 1.000000 0.000000 0.000000
vn 1.000000 0.000000 0.000000
vn 1.000000 0.000000 0.000000
vn 0.000000 -1.000000 0.000000
vn 0.000000 -1.000000 0.000000
vn 0.000000 -1.000000 0.000000
vn 0.000000 -1.000000 0.000000
vn 0.000000 0.000000 1.000000
vn 0.000000 0.000000 1.000000
vn 0.000000 0.000000 1.000000
vn 0.000000 0.000000 1.000000
vn 0.000000 0.000000 -1.000000
vn 0.000000 0.000000 -1.000000
vn 0.000000 0.000000 -1.000000
vn 0.000000 0.000000 -1.000000
vn 0.000000 0.000000 -1.000000
vn 0.000000 0.000000 -1.000000
vn 0.000000 0.000000 -1.000000
vn 0.000000 0.000000 -1.000000
vn -1.000000 0.000000 0.000000
vn -1.000000 0.000000 0.000000
vn -1.000000 0.000000 0.000000
vn -1.000000 0.000000 0.000000
vn 0.000000 0.000000 1.000000
vn 0.000000 0.000000 1.000000
vn 0.000000 0.000000 1.000000
vn 0.000000 0.000000 1.000000
vn 1.000000 0.000000 0.000000
vn 1.000000 0.000000 0.000000
vn 1.000000 0.000000 0.000000
vn 1.000000 0.000000 0.000000
vn -0.000001 -0.106016 -0.994364
vn -0.000001 -0.106016 -0.994364
vn -0.000001 -0.106016 -0.994365
vn -0.000001 -0.106016 -0.994365
vn 1.000000 -0.000000 0.000000
vn 1.000000 -0.000000 0.000000
vn 1.000000 -0.000000 0.000000
vn 1.000000 -0.000000 0.000000
vn -0.000011 0.106015 0.994365
vn -0.000011 0.106015 0.994365
vn -0.000011 0.106015 0.994365
vn -0.000011 0.106015 0.994365
vn -1.000000 0.000000 0.000000
vn -1.000000 0.000000 0.000000
vn -1.000000 0.000000 0.000000
vn -1.000000 0.000000 0.000000
vn -0.473568 0.880758 0.000000
vn -0.473568 0.880757 0.000000
vn -0.473568 0.880758 0.000000
vn -0.473568 0.880757 0.000000
vn 0.000000 0.880791 0.473505
vn 0.000000 0.880791 0.473505
vn 0.000000 0.880791 0.473505
vn 0.000000 0.880791 0.473505
vn 0.473468 0.880811 0.000000
vn 0.473468 0.880811 0.000000
vn 0.473468 0.880811 0.000000
vn 0.473468 0.880811 0.000000
vn 0.000000 0.880795 -0.473499
vn 0.000000 0.880794 -0.473499
vn 0.000000 0.880794 -0.473499
vn 0.000000 0.880795 -0.473499
vn 0.000000 -0.682864 0.730546
vn 0.000000 -0.682864 0.730546
vn 0.000000 -0.682864 0.730546
vn 0.000000 -0.682864 0.730546
vn 0.521833 0.090689 0.848214
vn 0.521833 0.090689 0.848214
vn 0.521833 0.090689 0.848213
vn 0.521833 0.090689 0.848214
vn 0.000000 0.821876 0.569667
vn 0.000000 0.821876 0.569667
vn 0.000000 0.821876 0.569667
vn 0.000000 0.821876 0.569667
vn -0.521833 0.090689 0.848214
vn -0.521833 0.090689 0.848214
vn -0.521833 0.090689 0.848214
vn -0.521833 0.090689 0.848214
s off
f 1/1/1 2/2/2 4/3/3 3/4/4
f 58/129/5 57/130/6 59/131/7 60/132/8
f 5/6/9 6/5/10 8/7/11 7/8/12
f 7/8/13 8/7/14 2/2/15 1/1/16
f 2/2/17 8/7/18 6/5/19 4/3/20
f 7/8/21 1/1/22 3/4/23 5/6/24
f 9/9/25 10/10/26 12/11/27 11/12/28
f 11/12/29 12/11/30 14/13/31 13/14/32
f 13/14/33 14/13/34 16/15/35 15/16/36
f 15/16/37 16/15/38 10/10/39 9/9/40
f 62/133/41 61/134/42 63/135/43 64/136/44
f 15/16/45 9/9/46 11/12/47 13/14/48
f 17/49/49 18/50/50 56/51/51 53/52/52
f 19/53/53 20/54/54 22/55/55 21/56/56
f 54/57/57 55/58/58 24/59/59 23/60/60
f 23/61/61 24/62/62 18/63/63 17/64/64
f 18/65/65 24/66/66 55/67/67 56/68/68
f 23/69/69 17/70/70 53/71/71 54/72/72
f 25/73/73 26/74/74 28/75/75 27/76/76
f 27/77/77 28/78/78 30/79/79 29/80/80
f 29/81/81 30/82/82 32/83/83 31/84/84
f 31/85/85 32/86/86 26/87/87 25/88/88
f 26/89/89 32/90/90 30/91/91 28/92/92
f 31/93/93 25/94/94 27/95/95 29/96/96
f 50/97/97 51/98/98 36/99/99 35/100/100
f 35/101/101 36/102/102 38/103/103 37/104/104
f 37/105/105 38/106/106 52/107/107 49/108/108
f 39/109/109 40/110/110 34/111/111 33/112/112
f 51/113/113 52/114/114 38/115/115 36/116/116
f 49/117/117 50/118/118 35/119/119 37/120/120
f 41/121/121 42/122/122 44/123/123 43/124/124
f 43/125/125 44/126/126 46/127/127 45/128/128
f 45/48/129 46/47/130 48/46/131 47/45/132
f 47/44/133 48/43/134 42/42/135 41/41/136
f 42/40/137 48/39/138 46/38/139 44/37/140
f 47/36/141 41/35/142 43/34/143 45/33/144
f 39/32/145 33/31/146 50/118/147 49/117/148
f 33/30/149 34/29/150 51/98/151 50/97/152
f 34/28/153 40/27/154 52/114/155 51/113/156
f 49/108/157 52/107/158 40/26/159 39/25/160
f 54/72/161 53/71/162 19/24/163 21/23/164
f 21/22/165 22/21/166 55/58/167 54/57/168
f 56/68/169 55/67/170 22/20/171 20/19/172
f 53/52/173 56/51/174 20/18/175 19/17/176
f 3/4/177 4/3/178 57/130/179 58/129/180
f 4/3/181 6/5/182 59/131/183 57/130/184
f 6/5/185 5/6/186 60/132/187 59/131/188
f 5/6/189 3/4/190 58/129/191 60/132/192
f 10/10/193 16/15/194 61/134/195 62/133/196
f 16/15/197 14/13/198 63/135/199 61/134/200
f 14/13/201 12/11/202 64/136/203 63/135/204
f 12/11/205 10/10/206 62/133/207 64/136/208
