# This file uses centimeters as units for non-parametric coordinates.

v -0.364365 0.000000 0.332816
v -0.338272 0.000000 0.358910
v -0.396851 0.877109 0.332816
v -0.338272 0.877109 0.370953
v -0.338272 0.877109 0.264789
v -0.289490 0.877109 0.332816
v -0.338272 0.000000 0.306723
v -0.312180 0.000000 0.332816
v -0.338074 0.000000 -0.357427
v -0.364166 0.000000 -0.331333
v -0.338074 0.877109 -0.378989
v -0.394165 0.877109 -0.331333
v -0.290314 0.877109 -0.331333
v -0.338074 0.877109 -0.259834
v -0.311981 0.000000 -0.331333
v -0.338074 0.000000 -0.305239
v 0.360291 0.000000 -0.336888
v 0.334198 0.000000 -0.362982
v 0.391235 0.877109 -0.336888
v 0.334198 0.877109 -0.363567
v 0.334198 0.877109 -0.289309
v 0.267700 0.877109 -0.336888
v 0.334198 0.000000 -0.310793
v 0.308105 0.000000 -0.336888
v 0.332565 0.000000 0.362981
v 0.358658 0.000000 0.336886
v 0.332565 0.877109 0.383791
v 0.386856 0.877109 0.336886
v 0.263046 0.877109 0.336887
v 0.332565 0.877109 0.292717
v 0.306473 0.000000 0.336887
v 0.332565 0.000000 0.310793
v 0.540604 0.861874 -0.260345
v 0.374115 0.875869 -0.444261
v 0.133514 0.875869 -0.553984
v -0.133514 0.875869 -0.553985
v -0.374115 0.875869 -0.444262
v -0.540604 0.861874 -0.260345
v -0.591614 0.877803 0.129432
v -0.540604 0.861874 0.260344
v -0.374115 0.875869 0.444261
v -0.133514 0.875869 0.553984
v 0.133514 0.875869 0.553984
v 0.374115 0.875869 0.444261
v 0.540604 0.861874 0.260344
v 0.591614 0.877803 0.129432
v 0.540604 0.947849 -0.260345
v 0.374115 0.933854 -0.444261
v 0.133514 0.933854 -0.553984
v -0.133514 0.933854 -0.553985
v -0.374115 0.933854 -0.444262
v -0.540604 0.947849 -0.260345
v -0.591614 0.931920 0.129432
v -0.540604 0.947849 0.260344
v -0.374115 0.933854 0.444261
v -0.133514 0.933854 0.553984
v 0.133514 0.933854 0.553984
v 0.374115 0.933854 0.444261
v 0.540604 0.947849 0.260344
v 0.591614 0.931920 0.129432
v -0.365463 0.947849 -0.473293
v -0.365463 0.947849 0.473291
v -0.365463 0.861874 0.473291
v -0.365463 0.861874 -0.473293
v -0.145813 0.861874 0.579064
v -0.145813 0.947849 0.579064
v -0.145813 0.947849 -0.579065
v -0.145813 0.861874 -0.579065
v -0.118790 0.947849 -0.584988
v -0.118790 0.947849 0.584987
v -0.118790 0.861874 0.584987
v -0.118790 0.861874 -0.584988
v 0.117233 0.861874 0.584988
v 0.117233 0.947849 0.584988
v 0.117233 0.947849 -0.584988
v 0.117233 0.861874 -0.584988
v 0.149857 0.947849 -0.577119
v 0.149857 0.947849 0.577119
v 0.149857 0.861874 0.577119
v 0.149857 0.861874 -0.577119
v 0.361755 0.861874 0.475076
v 0.361755 0.947849 0.475076
v 0.361755 0.947849 -0.475076
v 0.361755 0.861874 -0.475076
v -0.385788 0.947849 0.454478
v -0.385788 0.861874 0.454478
v 0.386658 0.947849 0.453397
v 0.386658 0.861874 0.453397
v 0.385727 0.947849 -0.454563
v 0.385727 0.861874 -0.454563
v -0.385880 0.947849 -0.454363
v -0.385880 0.861874 -0.454363
v -0.589890 0.870631 -0.147438
v -0.589890 0.939092 -0.147438
v 0.585999 0.873119 -0.147438
v 0.585999 0.936604 -0.147438
vt 0.103866 0.228913
vt 0.103866 0.228913
vt 0.103866 0.228913
vt 0.103866 0.228913
vt 0.103866 0.228913
vt 0.103866 0.228913
vt 0.103866 0.228913
vt 0.103866 0.228913
vt 0.103866 0.228913
vt 0.103866 0.228913
vt 0.103866 0.228913
vt 0.103866 0.228913
vt 0.103866 0.228913
vt 0.103866 0.228913
vt 0.103866 0.228913
vt 0.103866 0.228913
vt 0.103866 0.228913
vt 0.103866 0.228913
vt 0.103866 0.228913
vt 0.103866 0.228913
vt 0.103866 0.228913
vt 0.103866 0.228913
vt 0.103866 0.228913
vt 0.103866 0.228913
vt 0.103866 0.228913
vt 0.103866 0.228913
vt 0.103866 0.228913
vt 0.103866 0.228913
vt 0.103866 0.228913
vt 0.103866 0.228913
vt 0.103866 0.228913
vt 0.103866 0.228913
vt 0.103866 0.228913
vt 0.103866 0.228913
vt 0.103866 0.228913
vt 0.103866 0.228913
vt 0.103866 0.228913
vt 0.103866 0.228913
vt 0.103866 0.228913
vt 0.103866 0.228913
vt 0.103866 0.228913
vt 0.103866 0.228913
vt 0.103866 0.228913
vt 0.103866 0.228913
vt 0.103866 0.228913
vt 0.103866 0.228913
vt 0.103866 0.228913
vt 0.103866 0.228913
vt 0.103866 0.228913
vt 0.103866 0.228913
vt 0.103866 0.228913
vt 0.103866 0.228913
vt 0.103866 0.228913
vt 0.103866 0.228913
vt 0.103866 0.228913
vt 0.103866 0.228913
vt 0.103866 0.228913
vt 0.103866 0.228913
vt 0.103866 0.228913
vt 0.103866 0.228913
vt 0.103866 0.228913
vt 0.103866 0.228913
vt 0.103866 0.228913
vt 0.103866 0.228913
vt 0.103866 0.228913
vt 0.103866 0.228913
vt 0.103866 0.228913
vt 0.103866 0.228913
vt 0.103866 0.228913
vt 0.103866 0.228913
vt 0.103866 0.228913
vt 0.103866 0.228913
vt 0.036865 0.300103
vt 0.036865 0.300103
vt 0.036865 0.300103
vt 0.036865 0.300103
vt 0.036865 0.300103
vt 0.036865 0.300103
vt 0.036865 0.300103
vt 0.036865 0.300103
vt 0.036865 0.300103
vt 0.036865 0.300103
vt 0.036865 0.300103
vt 0.036865 0.300103
vt 0.036865 0.300103
vt 0.036865 0.300103
vt 0.036865 0.300103
vt 0.036865 0.300103
vt 0.036865 0.300103
vt 0.036865 0.300103
vt 0.036865 0.300103
vt 0.036865 0.300103
vt 0.036865 0.300103
vt 0.036865 0.300103
vt 0.036865 0.300103
vt 0.036865 0.300103
vt 0.036865 0.300103
vt 0.036865 0.300103
vt 0.036865 0.300103
vt 0.036865 0.300103
vt 0.036865 0.300103
vt 0.036865 0.300103
vt 0.036865 0.300103
vt 0.036865 0.300103
vt 0.036865 0.300103
vt 0.036865 0.300103
vt 0.036865 0.300103
vt 0.036865 0.300103
vt 0.036865 0.300103
vt 0.036865 0.300103
vt 0.036865 0.300103
vt 0.036865 0.300103
vt 0.036865 0.300103
vt 0.036865 0.300103
vt 0.036865 0.300103
vt 0.036865 0.300103
vt 0.036865 0.300103
vt 0.036865 0.300103
vt 0.036865 0.300103
vt 0.036865 0.300103
vt 0.036865 0.300103
vt 0.036865 0.300103
vt 0.036865 0.300103
vt 0.036865 0.300103
vt 0.036865 0.300103
vt 0.036865 0.300103
vt 0.036865 0.300103
vt 0.036865 0.300103
vt 0.036865 0.300103
vt 0.036865 0.300103
vt 0.036865 0.300103
vt 0.036865 0.300103
vt 0.036865 0.300103
vt 0.036865 0.300103
vt 0.036865 0.300103
vt 0.036865 0.300103
vn -0.604284 -0.016659 0.796595
vn -0.604284 -0.016659 0.796595
vn -0.604284 -0.016659 0.796595
vn -0.604284 -0.016659 0.796595
vn 0.782332 -0.024996 -0.622359
vn 0.782332 -0.024996 -0.622359
vn 0.782333 -0.024996 -0.622359
vn 0.782333 -0.024996 -0.622359
vn 0.000000 -1.000000 0.000000
vn 0.000000 -1.000000 0.000000
vn 0.000000 -1.000000 0.000000
vn 0.000000 -1.000000 0.000000
vn 0.651032 -0.013631 0.758928
vn 0.651032 -0.013631 0.758928
vn 0.651032 -0.013631 0.758928
vn 0.651032 -0.013631 0.758928
vn -0.743114 -0.029742 -0.668504
vn -0.743114 -0.029742 -0.668504
vn -0.743114 -0.029742 -0.668504
vn -0.743114 -0.029742 -0.668504
vn -0.667743 -0.020565 -0.744108
vn -0.667743 -0.020565 -0.744108
vn -0.667743 -0.020565 -0.744108
vn -0.667743 -0.020565 -0.744108
vn 0.797154 -0.025460 0.603239
vn 0.797154 -0.025460 0.603240
vn 0.797154 -0.025460 0.603239
vn 0.797154 -0.025460 0.603239
vn 0.000000 -1.000000 0.000000
vn 0.000000 -1.000000 0.000000
vn 0.000000 -1.000000 0.000000
vn 0.000000 -1.000000 0.000000
vn -0.764571 -0.029740 0.643853
vn -0.764571 -0.029740 0.643853
vn -0.764571 -0.029740 0.643853
vn -0.764571 -0.029740 0.643853
vn 0.706506 -0.017423 -0.707493
vn 0.706506 -0.017423 -0.707493
vn 0.706506 -0.017423 -0.707493
vn 0.706506 -0.017423 -0.707493
vn 0.535926 -0.009735 -0.844209
vn 0.535926 -0.009735 -0.844209
vn 0.535926 -0.009735 -0.844209
vn 0.535926 -0.009735 -0.844209
vn -0.622461 -0.023918 0.782285
vn -0.622461 -0.023918 0.782285
vn -0.622461 -0.023918 0.782285
vn -0.622461 -0.023918 0.782285
vn 0.000000 -1.000000 0.000000
vn 0.000000 -1.000000 0.000000
vn 0.000000 -1.000000 0.000000
vn 0.000000 -1.000000 0.000000
vn -0.495145 -0.011695 -0.868732
vn -0.495145 -0.011695 -0.868732
vn -0.495145 -0.011695 -0.868732
vn -0.495145 -0.011695 -0.868732
vn 0.663115 -0.020861 0.748227
vn 0.663115 -0.020861 0.748227
vn 0.663115 -0.020861 0.748227
vn 0.663115 -0.020861 0.748227
vn 0.672157 -0.019585 0.740150
vn 0.672157 -0.019585 0.740150
vn 0.672157 -0.019585 0.740150
vn 0.672157 -0.019585 0.740150
vn -0.592027 -0.022957 -0.805591
vn -0.592027 -0.022957 -0.805591
vn -0.592027 -0.022957 -0.805591
vn -0.592027 -0.022957 -0.805591
vn 0.000000 -1.000000 0.000000
vn 0.000000 -1.000000 0.000000
vn 0.000000 -1.000000 0.000000
vn 0.000000 -1.000000 0.000000
vn 0.658009 -0.018334 -0.752787
vn 0.658009 -0.018334 -0.752787
vn 0.658009 -0.018334 -0.752787
vn 0.658009 -0.018334 -0.752787
vn -0.606652 -0.024444 0.794592
vn -0.606652 -0.024444 0.794592
vn -0.606652 -0.024444 0.794592
vn -0.606652 -0.024444 0.794592
vn -0.663657 0.000000 -0.748037
vn -0.663657 0.000000 -0.748037
vn -0.663657 0.000000 -0.748037
vn -0.663657 0.000000 -0.748037
vn 0.433877 0.000000 -0.900972
vn 0.433877 0.000000 -0.900972
vn 0.433877 0.000000 -0.900972
vn 0.433877 0.000000 -0.900972
vn 0.000000 0.000000 -1.000000
vn 0.000000 0.000000 -1.000000
vn 0.000000 0.000000 -1.000000
vn 0.000000 0.000000 -1.000000
vn -0.433864 0.000000 -0.900979
vn -0.433864 0.000000 -0.900979
vn -0.433864 0.000000 -0.900979
vn -0.433864 0.000000 -0.900979
vn -0.781832 0.000000 -0.623489
vn -0.781832 0.000000 -0.623489
vn -0.781832 0.000000 -0.623489
vn -0.781832 0.000000 -0.623489
vn -0.916487 0.000000 -0.400064
vn -0.916487 0.000000 -0.400064
vn -0.916487 0.000000 -0.400064
vn -0.916487 0.000000 -0.400064
vn -0.931764 0.000000 0.363064
vn -0.931764 0.000000 0.363064
vn -0.931764 0.000000 0.363064
vn -0.931764 0.000000 0.363064
vn 0.658644 0.000000 0.752454
vn 0.658644 0.000000 0.752454
vn 0.658644 0.000000 0.752454
vn 0.658644 0.000000 0.752454
vn -0.433867 0.000000 0.900977
vn -0.433867 0.000000 0.900977
vn -0.433867 0.000000 0.900977
vn -0.433867 0.000000 0.900977
vn -0.000004 0.000000 1.000000
vn -0.000004 0.000000 1.000000
vn -0.000004 0.000000 1.000000
vn -0.000004 0.000000 1.000000
vn 0.433877 0.000000 0.900972
vn 0.433877 0.000000 0.900972
vn 0.433877 0.000000 0.900972
vn 0.433877 0.000000 0.900972
vn 0.781849 0.000000 0.623468
vn 0.781849 0.000000 0.623468
vn 0.781849 0.000000 0.623468
vn 0.781849 0.000000 0.623468
vn 0.931764 0.000000 0.363064
vn 0.931764 0.000000 0.363064
vn 0.931764 0.000000 0.363064
vn 0.931764 0.000000 0.363064
vn 0.999794 0.000000 -0.020277
vn 0.999794 0.000000 -0.020277
vn 0.999794 0.000000 -0.020277
vn 0.999794 0.000000 -0.020277
vn 0.000000 -1.000000 0.000000
vn 0.000000 -1.000000 0.000000
vn 0.000000 -1.000000 0.000000
vn 0.000000 -1.000000 0.000000
vn 0.000000 1.000000 0.000000
vn 0.000000 1.000000 0.000000
vn 0.000000 1.000000 0.000000
vn 0.000000 1.000000 0.000000
vn 0.766700 0.642005 -0.000039
vn 0.766700 0.642005 -0.000039
vn 0.766700 0.642005 -0.000039
vn 0.766700 0.642005 -0.000039
vn 0.000000 1.000000 0.000000
vn 0.000000 1.000000 0.000000
vn 0.000000 1.000000 0.000000
vn 0.000000 1.000000 0.000000
vn -0.757059 0.653346 0.000392
vn -0.757059 0.653346 0.000392
vn -0.757059 0.653346 0.000392
vn -0.757059 0.653346 0.000392
vn 0.000000 1.000000 0.000000
vn 0.000000 1.000000 0.000000
vn 0.000000 1.000000 0.000000
vn 0.000000 1.000000 0.000000
vn 0.000000 -1.000000 0.000000
vn 0.000000 -1.000000 0.000000
vn 0.000000 -1.000000 0.000000
vn 0.000000 -1.000000 0.000000
vn 0.000000 -1.000000 0.000000
vn 0.000000 -1.000000 0.000000
vn 0.000000 -1.000000 0.000000
vn 0.000000 -1.000000 0.000000
vn 0.000000 -1.000000 0.000000
vn 0.000000 -1.000000 0.000000
vn 0.000000 -1.000000 0.000000
vn 0.000000 -1.000000 0.000000
vn -0.757059 -0.653346 0.000392
vn -0.757059 -0.653346 0.000392
vn -0.757059 -0.653346 0.000392
vn -0.757059 -0.653346 0.000392
vn -0.850585 0.525837 0.000000
vn -0.850585 0.525837 0.000000
vn -0.850585 0.525837 0.000000
vn -0.850585 0.525837 0.000000
vn -0.958347 0.000000 0.285606
vn -0.958347 0.000000 0.285606
vn -0.958347 0.000000 0.285606
vn -0.958347 0.000000 0.285606
vn -0.850585 -0.525837 0.000000
vn -0.850585 -0.525837 0.000000
vn -0.850585 -0.525837 0.000000
vn -0.850585 -0.525837 0.000000
vn -0.958348 0.000000 -0.285602
vn -0.958348 0.000000 -0.285602
vn -0.958348 0.000000 -0.285602
vn -0.958348 0.000000 -0.285602
vn 0.897862 0.000000 0.440276
vn 0.897862 0.000000 0.440276
vn 0.897862 0.000000 0.440276
vn 0.897862 0.000000 0.440276
vn 0.751163 0.660116 0.000000
vn 0.751163 0.660116 0.000000
vn 0.751163 0.660116 0.000000
vn 0.751163 0.660116 0.000000
vn 0.897859 0.000000 -0.440283
vn 0.897859 0.000000 -0.440283
vn 0.897859 0.000000 -0.440283
vn 0.897859 0.000000 -0.440283
vn 0.751163 -0.660117 0.000000
vn 0.751163 -0.660117 0.000000
vn 0.751163 -0.660117 0.000000
vn 0.751163 -0.660117 0.000000
vn -0.688915 0.724843 0.000000
vn -0.688915 0.724843 0.000000
vn -0.688915 0.724843 0.000000
vn -0.688915 0.724843 0.000000
vn -0.903297 0.000000 0.429016
vn -0.903297 0.000000 0.429016
vn -0.903297 0.000000 0.429016
vn -0.903297 0.000000 0.429016
vn -0.688914 -0.724843 0.000000
vn -0.688915 -0.724843 0.000000
vn -0.688914 -0.724843 0.000000
vn -0.688914 -0.724843 0.000000
vn -0.903299 0.000000 -0.429011
vn -0.903299 0.000000 -0.429011
vn -0.903299 0.000000 -0.429011
vn -0.903299 0.000000 -0.429011
vn 0.885350 0.000000 0.464925
vn 0.885350 0.000000 0.464925
vn 0.885350 0.000000 0.464925
vn 0.885350 0.000000 0.464925
vn 0.651855 0.758344 0.000000
vn 0.651855 0.758344 0.000000
vn 0.651855 0.758344 0.000000
vn 0.651855 0.758344 0.000000
vn 0.885350 0.000000 -0.464924
vn 0.885350 0.000000 -0.464924
vn 0.885350 0.000000 -0.464924
vn 0.885350 0.000000 -0.464924
vn 0.651855 -0.758344 0.000000
vn 0.651855 -0.758344 0.000000
vn 0.651855 -0.758344 0.000000
vn 0.651855 -0.758344 0.000000
vn -0.650451 0.759548 0.000000
vn -0.650451 0.759548 0.000000
vn -0.650451 0.759548 0.000000
vn -0.650451 0.759548 0.000000
vn -0.816777 0.000000 0.576953
vn -0.816777 0.000000 0.576953
vn -0.816777 0.000000 0.576953
vn -0.816777 0.000000 0.576953
vn -0.650451 -0.759548 0.000000
vn -0.650451 -0.759548 0.000000
vn -0.650451 -0.759548 0.000000
vn -0.650451 -0.759548 0.000000
vn -0.816778 0.000000 -0.576953
vn -0.816778 0.000000 -0.576953
vn -0.816777 0.000000 -0.576953
vn -0.816777 0.000000 -0.576953
vn 0.928128 0.000000 0.372262
vn 0.928128 0.000000 0.372262
vn 0.928128 0.000000 0.372262
vn 0.928128 0.000000 0.372262
vn 0.749540 0.661959 0.000000
vn 0.749540 0.661959 0.000000
vn 0.749540 0.661959 0.000000
vn 0.749540 0.661959 0.000000
vn 0.928128 0.000000 -0.372262
vn 0.928128 0.000000 -0.372262
vn 0.928128 0.000000 -0.372262
vn 0.928128 0.000000 -0.372262
vn 0.749540 -0.661959 0.000000
vn 0.749540 -0.661959 0.000000
vn 0.749540 -0.661959 0.000000
vn 0.749540 -0.661959 0.000000
vn -0.781835 0.000000 0.623486
vn -0.781835 0.000000 0.623486
vn -0.781835 0.000000 0.623486
vn -0.781835 0.000000 0.623486
vn -0.588769 0.000000 0.808301
vn -0.588769 0.000000 0.808301
vn -0.588769 0.000000 0.808301
vn -0.588769 0.000000 0.808301
vn 0.781846 0.000000 -0.623471
vn 0.781846 0.000000 -0.623471
vn 0.781846 0.000000 -0.623471
vn 0.781846 0.000000 -0.623471
vn 0.651440 0.000000 -0.758700
vn 0.651440 0.000000 -0.758700
vn 0.651440 0.000000 -0.758700
vn 0.651440 0.000000 -0.758700
vn -0.240371 0.970646 0.008209
vn -0.240371 0.970647 0.008209
vn -0.240371 0.970646 0.008209
vn -0.240371 0.970646 0.008209
vn 0.000000 1.000000 0.000000
vn 0.000000 1.000000 0.000000
vn 0.000000 1.000000 0.000000
vn 0.000000 1.000000 0.000000
vn 0.766701 -0.642005 -0.000039
vn 0.766701 -0.642005 -0.000039
vn 0.766701 -0.642005 -0.000039
vn 0.766701 -0.642005 -0.000039
vn 0.271940 -0.962307 0.003736
vn 0.271940 -0.962307 0.003736
vn 0.271940 -0.962307 0.003736
vn 0.271940 -0.962307 0.003736
vn 0.271940 0.962307 0.003736
vn 0.271940 0.962307 0.003736
vn 0.271940 0.962307 0.003736
vn 0.271940 0.962307 0.003736
vn 0.000000 -1.000000 0.000000
vn 0.000000 -1.000000 0.000000
vn 0.000000 -1.000000 0.000000
vn 0.000000 -1.000000 0.000000
vn 0.000000 1.000000 0.000000
vn 0.000000 1.000000 0.000000
vn 0.000000 1.000000 0.000000
vn 0.000000 1.000000 0.000000
vn -0.240371 -0.970647 0.008209
vn -0.240371 -0.970646 0.008209
vn -0.240371 -0.970646 0.008209
vn -0.240371 -0.970646 0.008209
vn -0.999981 0.000000 -0.006228
vn -0.999981 0.000000 -0.006228
vn -0.999981 0.000000 -0.006228
vn -0.999981 0.000000 -0.006228
vn 0.927817 0.000000 -0.373036
vn 0.927817 0.000000 -0.373036
vn 0.927817 0.000000 -0.373036
vn 0.927817 0.000000 -0.373036
s off
f 1/1/1 2/2/2 4/3/3 3/4/4
f 5/5/5 6/6/6 8/7/7 7/8/8
f 7/8/9 8/7/10 2/9/11 1/10/12
f 2/11/13 8/12/14 6/13/15 4/14/16
f 7/15/17 1/16/18 3/17/19 5/18/20
f 9/19/21 10/20/22 12/21/23 11/22/24
f 13/23/25 14/24/26 16/25/27 15/26/28
f 15/26/29 16/25/30 10/27/31 9/28/32
f 10/29/33 16/30/34 14/31/35 12/32/36
f 15/33/37 9/34/38 11/35/39 13/36/40
f 17/37/41 18/38/42 20/39/43 19/40/44
f 21/41/45 22/42/46 24/43/47 23/44/48
f 23/44/49 24/43/50 18/45/51 17/46/52
f 18/47/53 24/48/54 22/49/55 20/50/56
f 23/51/57 17/52/58 19/53/59 21/54/60
f 25/55/61 26/56/62 28/57/63 27/58/64
f 29/59/65 30/60/66 32/61/67 31/62/68
f 31/62/69 32/61/70 26/63/71 25/64/72
f 26/65/73 32/66/74 30/67/75 28/68/76
f 31/69/77 25/70/78 27/71/79 29/72/80
f 89/73/81 90/74/82 34/75/83 48/76/84
f 83/77/85 84/78/86 80/79/87 77/80/88
f 75/81/89 76/82/90 72/83/91 69/84/92
f 67/85/93 68/86/94 64/87/95 61/88/96
f 91/89/97 92/90/98 38/91/99 52/92/100
f 38/91/101 93/93/102 94/94/103 52/92/104
f 39/95/105 40/96/106 54/97/107 53/98/108
f 85/99/109 86/100/110 41/101/111 55/102/112
f 62/103/113 63/104/114 65/105/115 66/106/116
f 70/107/117 71/108/118 73/109/119 74/110/120
f 78/111/121 79/112/122 81/113/123 82/114/124
f 87/115/125 88/116/126 45/117/127 59/118/128
f 45/117/129 46/119/130 60/120/131 59/118/132
f 46/119/133 95/121/134 96/122/135 60/120/136
f 92/90/137 86/100/138 40/96/139 38/91/140
f 82/114/141 83/77/142 77/80/143 78/111/144
f 55/102/145 51/123/146 91/89/147 85/99/148
f 74/110/149 75/81/150 69/84/151 70/107/152
f 87/115/153 89/73/154 48/76/155 58/124/156
f 66/106/157 67/85/158 61/88/159 62/103/160
f 76/82/161 73/109/162 71/108/163 72/83/164
f 84/78/165 81/113/166 79/112/167 80/79/168
f 68/86/169 65/105/170 63/104/171 64/87/172
f 90/74/173 88/116/174 44/125/175 34/75/176
f 62/103/177 61/88/178 51/123/179 55/102/180
f 41/101/181 63/104/182 62/103/183 55/102/184
f 64/87/185 63/104/186 41/101/187 37/126/188
f 61/88/189 64/87/190 37/126/191 51/123/192
f 66/106/193 65/105/194 42/127/195 56/128/196
f 56/128/197 50/129/198 67/85/199 66/106/200
f 36/130/201 68/86/202 67/85/203 50/129/204
f 36/130/205 42/127/206 65/105/207 68/86/208
f 70/107/209 69/84/210 50/129/211 56/128/212
f 42/127/213 71/108/214 70/107/215 56/128/216
f 72/83/217 71/108/218 42/127/219 36/130/220
f 69/84/221 72/83/222 36/130/223 50/129/224
f 74/110/225 73/109/226 43/131/227 57/132/228
f 57/132/229 49/133/230 75/81/231 74/110/232
f 35/134/233 76/82/234 75/81/235 49/133/236
f 35/134/237 43/131/238 73/109/239 76/82/240
f 78/111/241 77/80/242 49/133/243 57/132/244
f 43/131/245 79/112/246 78/111/247 57/132/248
f 80/79/249 79/112/250 43/131/251 35/134/252
f 77/80/253 80/79/254 35/134/255 49/133/256
f 82/114/257 81/113/258 44/125/259 58/124/260
f 58/124/261 48/76/262 83/77/263 82/114/264
f 34/75/265 84/78/266 83/77/267 48/76/268
f 34/75/269 44/125/270 81/113/271 84/78/272
f 40/96/273 86/100/274 85/99/275 54/97/276
f 44/125/277 88/116/278 87/115/279 58/124/280
f 33/135/281 90/74/282 89/73/283 47/136/284
f 37/126/285 92/90/286 91/89/287 51/123/288
f 54/97/289 52/92/290 94/94/291 53/98/292
f 59/118/293 47/136/294 89/73/295 87/115/296
f 37/126/297 41/101/298 86/100/299 92/90/300
f 45/117/301 33/135/302 95/121/303 46/119/304
f 60/120/305 96/122/306 47/136/307 59/118/308
f 45/117/309 88/116/310 90/74/311 33/135/312
f 85/99/313 91/89/314 52/92/315 54/97/316
f 38/91/317 40/96/318 39/95/319 93/93/320
f 94/94/321 93/93/322 39/95/323 53/98/324
f 96/122/325 95/121/326 33/135/327 47/136/328
